G04 #@! TF.GenerationSoftware,KiCad,Pcbnew,5.1.9+dfsg1-1*
G04 #@! TF.CreationDate,2021-03-09T09:38:51-06:00*
G04 #@! TF.ProjectId,C64UserPortMidi,43363455-7365-4725-906f-72744d696469,rev?*
G04 #@! TF.SameCoordinates,Original*
G04 #@! TF.FileFunction,Copper,L2,Bot*
G04 #@! TF.FilePolarity,Positive*
%FSLAX46Y46*%
G04 Gerber Fmt 4.6, Leading zero omitted, Abs format (unit mm)*
G04 Created by KiCad (PCBNEW 5.1.9+dfsg1-1) date 2021-03-09 09:38:51*
%MOMM*%
%LPD*%
G01*
G04 APERTURE LIST*
G04 #@! TA.AperFunction,ComponentPad*
%ADD10C,2.500000*%
G04 #@! TD*
G04 #@! TA.AperFunction,ComponentPad*
%ADD11O,1.600000X1.600000*%
G04 #@! TD*
G04 #@! TA.AperFunction,ComponentPad*
%ADD12R,1.600000X1.600000*%
G04 #@! TD*
G04 #@! TA.AperFunction,ComponentPad*
%ADD13C,1.600000*%
G04 #@! TD*
G04 #@! TA.AperFunction,ComponentPad*
%ADD14R,1.700000X1.700000*%
G04 #@! TD*
G04 #@! TA.AperFunction,ComponentPad*
%ADD15O,1.700000X1.700000*%
G04 #@! TD*
G04 #@! TA.AperFunction,ComponentPad*
%ADD16R,2.400000X1.600000*%
G04 #@! TD*
G04 #@! TA.AperFunction,ComponentPad*
%ADD17O,2.400000X1.600000*%
G04 #@! TD*
G04 #@! TA.AperFunction,ComponentPad*
%ADD18R,1.600000X2.400000*%
G04 #@! TD*
G04 #@! TA.AperFunction,ComponentPad*
%ADD19O,1.600000X2.400000*%
G04 #@! TD*
G04 #@! TA.AperFunction,ComponentPad*
%ADD20R,1.800000X1.800000*%
G04 #@! TD*
G04 #@! TA.AperFunction,ComponentPad*
%ADD21C,1.800000*%
G04 #@! TD*
G04 #@! TA.AperFunction,Conductor*
%ADD22C,1.000000*%
G04 #@! TD*
G04 #@! TA.AperFunction,Conductor*
%ADD23C,0.500000*%
G04 #@! TD*
G04 #@! TA.AperFunction,Conductor*
%ADD24C,0.254000*%
G04 #@! TD*
G04 #@! TA.AperFunction,Conductor*
%ADD25C,0.150000*%
G04 #@! TD*
G04 APERTURE END LIST*
D10*
X124848000Y-101171000D03*
X112348000Y-103671000D03*
X117348000Y-101171000D03*
X109848000Y-101171000D03*
X122348000Y-103671000D03*
X112348000Y-91171000D03*
X122348000Y-91171000D03*
G04 #@! TA.AperFunction,SMDPad,CuDef*
G36*
G01*
X107994000Y-134328000D02*
X107994000Y-125768000D01*
G75*
G02*
X108214000Y-125548000I220000J0D01*
G01*
X109974000Y-125548000D01*
G75*
G02*
X110194000Y-125768000I0J-220000D01*
G01*
X110194000Y-134328000D01*
G75*
G02*
X109974000Y-134548000I-220000J0D01*
G01*
X108214000Y-134548000D01*
G75*
G02*
X107994000Y-134328000I0J220000D01*
G01*
G37*
G04 #@! TD.AperFunction*
G04 #@! TA.AperFunction,SMDPad,CuDef*
G36*
G01*
X111954000Y-134328000D02*
X111954000Y-125768000D01*
G75*
G02*
X112174000Y-125548000I220000J0D01*
G01*
X113934000Y-125548000D01*
G75*
G02*
X114154000Y-125768000I0J-220000D01*
G01*
X114154000Y-134328000D01*
G75*
G02*
X113934000Y-134548000I-220000J0D01*
G01*
X112174000Y-134548000D01*
G75*
G02*
X111954000Y-134328000I0J220000D01*
G01*
G37*
G04 #@! TD.AperFunction*
G04 #@! TA.AperFunction,SMDPad,CuDef*
G36*
G01*
X115914000Y-134328000D02*
X115914000Y-125768000D01*
G75*
G02*
X116134000Y-125548000I220000J0D01*
G01*
X117894000Y-125548000D01*
G75*
G02*
X118114000Y-125768000I0J-220000D01*
G01*
X118114000Y-134328000D01*
G75*
G02*
X117894000Y-134548000I-220000J0D01*
G01*
X116134000Y-134548000D01*
G75*
G02*
X115914000Y-134328000I0J220000D01*
G01*
G37*
G04 #@! TD.AperFunction*
G04 #@! TA.AperFunction,SMDPad,CuDef*
G36*
G01*
X119874000Y-134328000D02*
X119874000Y-125768000D01*
G75*
G02*
X120094000Y-125548000I220000J0D01*
G01*
X121854000Y-125548000D01*
G75*
G02*
X122074000Y-125768000I0J-220000D01*
G01*
X122074000Y-134328000D01*
G75*
G02*
X121854000Y-134548000I-220000J0D01*
G01*
X120094000Y-134548000D01*
G75*
G02*
X119874000Y-134328000I0J220000D01*
G01*
G37*
G04 #@! TD.AperFunction*
G04 #@! TA.AperFunction,SMDPad,CuDef*
G36*
G01*
X123834000Y-134328000D02*
X123834000Y-125768000D01*
G75*
G02*
X124054000Y-125548000I220000J0D01*
G01*
X125814000Y-125548000D01*
G75*
G02*
X126034000Y-125768000I0J-220000D01*
G01*
X126034000Y-134328000D01*
G75*
G02*
X125814000Y-134548000I-220000J0D01*
G01*
X124054000Y-134548000D01*
G75*
G02*
X123834000Y-134328000I0J220000D01*
G01*
G37*
G04 #@! TD.AperFunction*
G04 #@! TA.AperFunction,SMDPad,CuDef*
G36*
G01*
X127794000Y-134328000D02*
X127794000Y-125768000D01*
G75*
G02*
X128014000Y-125548000I220000J0D01*
G01*
X129774000Y-125548000D01*
G75*
G02*
X129994000Y-125768000I0J-220000D01*
G01*
X129994000Y-134328000D01*
G75*
G02*
X129774000Y-134548000I-220000J0D01*
G01*
X128014000Y-134548000D01*
G75*
G02*
X127794000Y-134328000I0J220000D01*
G01*
G37*
G04 #@! TD.AperFunction*
G04 #@! TA.AperFunction,SMDPad,CuDef*
G36*
G01*
X131754000Y-134328000D02*
X131754000Y-125768000D01*
G75*
G02*
X131974000Y-125548000I220000J0D01*
G01*
X133734000Y-125548000D01*
G75*
G02*
X133954000Y-125768000I0J-220000D01*
G01*
X133954000Y-134328000D01*
G75*
G02*
X133734000Y-134548000I-220000J0D01*
G01*
X131974000Y-134548000D01*
G75*
G02*
X131754000Y-134328000I0J220000D01*
G01*
G37*
G04 #@! TD.AperFunction*
G04 #@! TA.AperFunction,SMDPad,CuDef*
G36*
G01*
X135714000Y-134328000D02*
X135714000Y-125768000D01*
G75*
G02*
X135934000Y-125548000I220000J0D01*
G01*
X137694000Y-125548000D01*
G75*
G02*
X137914000Y-125768000I0J-220000D01*
G01*
X137914000Y-134328000D01*
G75*
G02*
X137694000Y-134548000I-220000J0D01*
G01*
X135934000Y-134548000D01*
G75*
G02*
X135714000Y-134328000I0J220000D01*
G01*
G37*
G04 #@! TD.AperFunction*
G04 #@! TA.AperFunction,SMDPad,CuDef*
G36*
G01*
X139674000Y-134328000D02*
X139674000Y-125768000D01*
G75*
G02*
X139894000Y-125548000I220000J0D01*
G01*
X141654000Y-125548000D01*
G75*
G02*
X141874000Y-125768000I0J-220000D01*
G01*
X141874000Y-134328000D01*
G75*
G02*
X141654000Y-134548000I-220000J0D01*
G01*
X139894000Y-134548000D01*
G75*
G02*
X139674000Y-134328000I0J220000D01*
G01*
G37*
G04 #@! TD.AperFunction*
G04 #@! TA.AperFunction,SMDPad,CuDef*
G36*
G01*
X143634000Y-134328000D02*
X143634000Y-125768000D01*
G75*
G02*
X143854000Y-125548000I220000J0D01*
G01*
X145614000Y-125548000D01*
G75*
G02*
X145834000Y-125768000I0J-220000D01*
G01*
X145834000Y-134328000D01*
G75*
G02*
X145614000Y-134548000I-220000J0D01*
G01*
X143854000Y-134548000D01*
G75*
G02*
X143634000Y-134328000I0J220000D01*
G01*
G37*
G04 #@! TD.AperFunction*
G04 #@! TA.AperFunction,SMDPad,CuDef*
G36*
G01*
X147594000Y-134328000D02*
X147594000Y-125768000D01*
G75*
G02*
X147814000Y-125548000I220000J0D01*
G01*
X149574000Y-125548000D01*
G75*
G02*
X149794000Y-125768000I0J-220000D01*
G01*
X149794000Y-134328000D01*
G75*
G02*
X149574000Y-134548000I-220000J0D01*
G01*
X147814000Y-134548000D01*
G75*
G02*
X147594000Y-134328000I0J220000D01*
G01*
G37*
G04 #@! TD.AperFunction*
G04 #@! TA.AperFunction,SMDPad,CuDef*
G36*
G01*
X151554000Y-134328000D02*
X151554000Y-125768000D01*
G75*
G02*
X151774000Y-125548000I220000J0D01*
G01*
X153534000Y-125548000D01*
G75*
G02*
X153754000Y-125768000I0J-220000D01*
G01*
X153754000Y-134328000D01*
G75*
G02*
X153534000Y-134548000I-220000J0D01*
G01*
X151774000Y-134548000D01*
G75*
G02*
X151554000Y-134328000I0J220000D01*
G01*
G37*
G04 #@! TD.AperFunction*
D11*
X129921000Y-94488000D03*
D12*
X137541000Y-94488000D03*
D13*
X149574000Y-113030000D03*
D12*
X147574000Y-113030000D03*
X112776000Y-113284000D03*
D13*
X110776000Y-113284000D03*
D14*
X144526000Y-121158000D03*
D15*
X144526000Y-118618000D03*
X147066000Y-121158000D03*
X147066000Y-118618000D03*
X149606000Y-121158000D03*
X149606000Y-118618000D03*
D13*
X129921000Y-90678000D03*
D11*
X137541000Y-90678000D03*
X137414000Y-109601000D03*
D13*
X129794000Y-109601000D03*
X127254000Y-109601000D03*
D11*
X119634000Y-109601000D03*
D16*
X143509001Y-98806000D03*
D17*
X151129001Y-106426000D03*
X143509001Y-101346000D03*
X151129001Y-103886000D03*
X143509001Y-103886000D03*
X151129001Y-101346000D03*
X143509001Y-106426000D03*
X151129001Y-98806000D03*
X137414000Y-98806000D03*
X129794000Y-106426000D03*
X137414000Y-101346000D03*
X129794000Y-103886000D03*
X137414000Y-103886000D03*
X129794000Y-101346000D03*
X137414000Y-106426000D03*
D16*
X129794000Y-98806000D03*
D18*
X137414000Y-113030000D03*
D19*
X119634000Y-120650000D03*
X134874000Y-113030000D03*
X122174000Y-120650000D03*
X132334000Y-113030000D03*
X124714000Y-120650000D03*
X129794000Y-113030000D03*
X127254000Y-120650000D03*
X127254000Y-113030000D03*
X129794000Y-120650000D03*
X124714000Y-113030000D03*
X132334000Y-120650000D03*
X122174000Y-113030000D03*
X134874000Y-120650000D03*
X119634000Y-113030000D03*
X137414000Y-120650000D03*
D13*
X113030000Y-119126000D03*
X110530000Y-119126000D03*
X143510000Y-95250000D03*
D11*
X151130000Y-95250000D03*
D20*
X146050000Y-91313000D03*
D21*
X148590000Y-91313000D03*
D22*
X152654000Y-130048000D02*
X152654000Y-124460000D01*
X109094000Y-130048000D02*
X109094000Y-124334000D01*
D23*
X147036002Y-121158000D02*
X147066000Y-121158000D01*
X145004002Y-123190000D02*
X147036002Y-121158000D01*
X143510000Y-123190000D02*
X145004002Y-123190000D01*
X142494000Y-122174000D02*
X143510000Y-123190000D01*
X142494000Y-111506000D02*
X142494000Y-122174000D01*
X144018000Y-110007039D02*
X143992961Y-110007039D01*
X145159011Y-108866028D02*
X144018000Y-110007039D01*
X143992961Y-110007039D02*
X142494000Y-111506000D01*
X145159011Y-102996010D02*
X145159011Y-108866028D01*
X143509001Y-101346000D02*
X145159011Y-102996010D01*
X148694000Y-126879998D02*
X145004002Y-123190000D01*
X148694000Y-130048000D02*
X148694000Y-126879998D01*
X149860000Y-106426000D02*
X151129001Y-106426000D01*
X144018000Y-112268000D02*
X149860000Y-106426000D01*
X144018000Y-115570000D02*
X144018000Y-112268000D01*
X147066000Y-118618000D02*
X144018000Y-115570000D01*
X152779011Y-117984989D02*
X149606000Y-121158000D01*
X152046772Y-97555990D02*
X152779011Y-98288229D01*
X144760010Y-97555990D02*
X152046772Y-97555990D01*
X152779011Y-98288229D02*
X152779011Y-117984989D01*
X143510000Y-98806000D02*
X144760010Y-97555990D01*
X143509001Y-98806000D02*
X143510000Y-98806000D01*
X117014000Y-120349000D02*
X117014000Y-130048000D01*
X122174000Y-115189000D02*
X117014000Y-120349000D01*
X122174000Y-113030000D02*
X122174000Y-115189000D01*
X121177990Y-129844010D02*
X120974000Y-130048000D01*
X124714000Y-113030000D02*
X124714000Y-114935000D01*
X120884010Y-129958010D02*
X120974000Y-130048000D01*
X120884010Y-118764990D02*
X120884010Y-129958010D01*
X124714000Y-114935000D02*
X120884010Y-118764990D01*
X127254000Y-113030000D02*
X127254000Y-115443000D01*
X123463990Y-119233010D02*
X123463990Y-122320990D01*
X127254000Y-115443000D02*
X123463990Y-119233010D01*
X124934000Y-123791000D02*
X124934000Y-130048000D01*
X123463990Y-122320990D02*
X124934000Y-123791000D01*
X128797990Y-129951990D02*
X128894000Y-130048000D01*
X126003990Y-119513048D02*
X126003990Y-122320990D01*
X129794000Y-115723038D02*
X126003990Y-119513048D01*
X129794000Y-113030000D02*
X129794000Y-115723038D01*
X128894000Y-125211000D02*
X128894000Y-130048000D01*
X126003990Y-122320990D02*
X128894000Y-125211000D01*
X132334000Y-113030000D02*
X132334000Y-115570000D01*
X132854000Y-125877781D02*
X132854000Y-130048000D01*
X128504010Y-121527791D02*
X132854000Y-125877781D01*
X128504010Y-119399990D02*
X128504010Y-121527791D01*
X132334000Y-115570000D02*
X128504010Y-119399990D01*
X134874000Y-113030000D02*
X134874000Y-115697000D01*
X131044010Y-121527791D02*
X133341219Y-123825000D01*
X131044010Y-119526990D02*
X131044010Y-121527791D01*
X134874000Y-115697000D02*
X131044010Y-119526990D01*
X134891256Y-123825000D02*
X134894276Y-123828020D01*
X133341219Y-123825000D02*
X134891256Y-123825000D01*
X134894276Y-123828020D02*
X135131020Y-123828020D01*
X136814000Y-125511000D02*
X136814000Y-130048000D01*
X135131020Y-123828020D02*
X136814000Y-125511000D01*
X137414000Y-113030000D02*
X137414000Y-116967000D01*
X133623990Y-119732229D02*
X133623990Y-121567771D01*
X134356229Y-118999990D02*
X133623990Y-119732229D01*
X133623990Y-121567771D02*
X135184229Y-123128010D01*
X135381010Y-118999990D02*
X134356229Y-118999990D01*
X137414000Y-116967000D02*
X135381010Y-118999990D01*
X140774000Y-125548000D02*
X140774000Y-130048000D01*
X138354010Y-123128010D02*
X140774000Y-125548000D01*
X135184229Y-123128010D02*
X138354010Y-123128010D01*
X134874000Y-120650000D02*
X136652000Y-122428000D01*
X136652000Y-122428000D02*
X141478000Y-122428000D01*
X144734000Y-125684000D02*
X144734000Y-130048000D01*
X141478000Y-122428000D02*
X144734000Y-125684000D01*
X134366000Y-103776257D02*
X134366000Y-104827076D01*
X136796257Y-101346000D02*
X134366000Y-103776257D01*
X137414000Y-101346000D02*
X136796257Y-101346000D01*
X134331180Y-104827076D02*
X131081256Y-108077000D01*
X134366000Y-104827076D02*
X134331180Y-104827076D01*
X128778000Y-108077000D02*
X127254000Y-109601000D01*
X131081256Y-108077000D02*
X128778000Y-108077000D01*
X140569010Y-105175990D02*
X135997010Y-105175990D01*
X141859000Y-103886000D02*
X140569010Y-105175990D01*
X143509001Y-103886000D02*
X141859000Y-103886000D01*
X127254000Y-120650000D02*
X127254000Y-119253000D01*
X131083990Y-115423010D02*
X131083990Y-111906990D01*
X127254000Y-119253000D02*
X131083990Y-115423010D01*
X131083990Y-111906990D02*
X134366000Y-108624980D01*
X134366000Y-106807000D02*
X135997010Y-105175990D01*
X134366000Y-108624980D02*
X134366000Y-106807000D01*
X143225999Y-119857999D02*
X144526000Y-121158000D01*
X143225999Y-111789002D02*
X143225999Y-119857999D01*
X151129001Y-103886000D02*
X143225999Y-111789002D01*
X142591230Y-100095990D02*
X140091210Y-102596010D01*
X149878991Y-100095990D02*
X142591230Y-100095990D01*
X151129001Y-101346000D02*
X149878991Y-100095990D01*
X133604000Y-106544219D02*
X133638819Y-106544219D01*
X133638819Y-106544219D02*
X135077519Y-105105519D01*
X136536209Y-102596010D02*
X140091210Y-102596010D01*
X135077519Y-104054700D02*
X136536209Y-102596010D01*
X135077519Y-105105519D02*
X135077519Y-104054700D01*
X128543990Y-113399792D02*
X128543990Y-113185771D01*
X124714000Y-119813076D02*
X124714000Y-120650000D01*
X128543990Y-115983086D02*
X124714000Y-119813076D01*
X128543990Y-113399792D02*
X128543990Y-115983086D01*
X133638819Y-107606183D02*
X133638819Y-106544219D01*
X133638819Y-108042181D02*
X133638819Y-107606183D01*
X130683000Y-110998000D02*
X133638819Y-108042181D01*
X129452980Y-110998000D02*
X130683000Y-110998000D01*
X128543990Y-111906990D02*
X129452980Y-110998000D01*
X128543990Y-113399792D02*
X128543990Y-111906990D01*
D24*
X152688345Y-89217909D02*
X153039008Y-89323780D01*
X153362425Y-89495744D01*
X153646284Y-89727254D01*
X153879765Y-90009486D01*
X154053983Y-90331695D01*
X154162302Y-90681614D01*
X154203801Y-91076452D01*
X154203800Y-124187618D01*
X154203801Y-124187628D01*
X154203801Y-124968000D01*
X154015957Y-124968000D01*
X153998180Y-124958498D01*
X153878482Y-124922188D01*
X153754000Y-124909928D01*
X152939750Y-124913000D01*
X152884750Y-124968000D01*
X152423250Y-124968000D01*
X152368250Y-124913000D01*
X151554000Y-124909928D01*
X151429518Y-124922188D01*
X151309820Y-124958498D01*
X151292043Y-124968000D01*
X149878486Y-124968000D01*
X149741402Y-124926416D01*
X149574000Y-124909928D01*
X147975509Y-124909928D01*
X146255580Y-123190000D01*
X146822019Y-122623562D01*
X146919740Y-122643000D01*
X147212260Y-122643000D01*
X147499158Y-122585932D01*
X147769411Y-122473990D01*
X148012632Y-122311475D01*
X148219475Y-122104632D01*
X148336000Y-121930240D01*
X148452525Y-122104632D01*
X148659368Y-122311475D01*
X148902589Y-122473990D01*
X149172842Y-122585932D01*
X149459740Y-122643000D01*
X149752260Y-122643000D01*
X150039158Y-122585932D01*
X150309411Y-122473990D01*
X150552632Y-122311475D01*
X150759475Y-122104632D01*
X150921990Y-121861411D01*
X151033932Y-121591158D01*
X151091000Y-121304260D01*
X151091000Y-121011740D01*
X151076539Y-120939039D01*
X153374060Y-118641519D01*
X153407828Y-118613806D01*
X153436885Y-118578401D01*
X153518421Y-118479049D01*
X153547483Y-118424678D01*
X153600600Y-118325302D01*
X153651206Y-118158479D01*
X153664011Y-118028466D01*
X153664011Y-118028456D01*
X153668292Y-117984990D01*
X153664011Y-117941524D01*
X153664011Y-98331694D01*
X153668292Y-98288228D01*
X153664011Y-98244762D01*
X153664011Y-98244752D01*
X153651206Y-98114739D01*
X153600600Y-97947916D01*
X153518422Y-97794170D01*
X153407828Y-97659412D01*
X153374061Y-97631700D01*
X152703306Y-96960946D01*
X152675589Y-96927173D01*
X152540831Y-96816579D01*
X152387085Y-96734401D01*
X152220262Y-96683795D01*
X152090249Y-96670990D01*
X152090241Y-96670990D01*
X152046772Y-96666709D01*
X152003303Y-96670990D01*
X151257002Y-96670990D01*
X151257002Y-96520625D01*
X151479040Y-96641909D01*
X151743881Y-96547070D01*
X151985131Y-96402385D01*
X152193519Y-96213414D01*
X152361037Y-95987420D01*
X152481246Y-95733087D01*
X152521904Y-95599039D01*
X152399915Y-95377000D01*
X151257000Y-95377000D01*
X151257000Y-95397000D01*
X151003000Y-95397000D01*
X151003000Y-95377000D01*
X149860085Y-95377000D01*
X149738096Y-95599039D01*
X149778754Y-95733087D01*
X149898963Y-95987420D01*
X150066481Y-96213414D01*
X150274869Y-96402385D01*
X150516119Y-96547070D01*
X150780960Y-96641909D01*
X151002998Y-96520625D01*
X151002998Y-96670990D01*
X144803475Y-96670990D01*
X144760009Y-96666709D01*
X144716543Y-96670990D01*
X144716533Y-96670990D01*
X144586520Y-96683795D01*
X144419697Y-96734401D01*
X144265951Y-96816579D01*
X144265949Y-96816580D01*
X144265950Y-96816580D01*
X144164963Y-96899458D01*
X144164961Y-96899460D01*
X144131193Y-96927173D01*
X144103480Y-96960941D01*
X143696493Y-97367928D01*
X142309001Y-97367928D01*
X142184519Y-97380188D01*
X142064821Y-97416498D01*
X141954507Y-97475463D01*
X141857816Y-97554815D01*
X141778464Y-97651506D01*
X141719499Y-97761820D01*
X141683189Y-97881518D01*
X141670929Y-98006000D01*
X141670929Y-99606000D01*
X141683189Y-99730482D01*
X141688302Y-99747339D01*
X139724632Y-101711010D01*
X139202846Y-101711010D01*
X139228236Y-101627309D01*
X139255943Y-101346000D01*
X139228236Y-101064691D01*
X139146182Y-100794192D01*
X139012932Y-100544899D01*
X138833608Y-100326392D01*
X138615101Y-100147068D01*
X138482142Y-100076000D01*
X138615101Y-100004932D01*
X138833608Y-99825608D01*
X139012932Y-99607101D01*
X139146182Y-99357808D01*
X139228236Y-99087309D01*
X139255943Y-98806000D01*
X139228236Y-98524691D01*
X139146182Y-98254192D01*
X139012932Y-98004899D01*
X138833608Y-97786392D01*
X138615101Y-97607068D01*
X138365808Y-97473818D01*
X138095309Y-97391764D01*
X137884492Y-97371000D01*
X136943508Y-97371000D01*
X136732691Y-97391764D01*
X136462192Y-97473818D01*
X136212899Y-97607068D01*
X135994392Y-97786392D01*
X135815068Y-98004899D01*
X135681818Y-98254192D01*
X135599764Y-98524691D01*
X135572057Y-98806000D01*
X135599764Y-99087309D01*
X135681818Y-99357808D01*
X135815068Y-99607101D01*
X135994392Y-99825608D01*
X136212899Y-100004932D01*
X136345858Y-100076000D01*
X136212899Y-100147068D01*
X135994392Y-100326392D01*
X135815068Y-100544899D01*
X135681818Y-100794192D01*
X135599764Y-101064691D01*
X135575048Y-101315630D01*
X133770956Y-103119723D01*
X133737183Y-103147440D01*
X133626589Y-103282199D01*
X133544411Y-103435945D01*
X133493805Y-103602768D01*
X133481000Y-103732781D01*
X133481000Y-103732788D01*
X133476719Y-103776257D01*
X133481000Y-103819727D01*
X133481001Y-104425676D01*
X131622022Y-106284656D01*
X131608236Y-106144691D01*
X131526182Y-105874192D01*
X131392932Y-105624899D01*
X131213608Y-105406392D01*
X130995101Y-105227068D01*
X130862142Y-105156000D01*
X130995101Y-105084932D01*
X131213608Y-104905608D01*
X131392932Y-104687101D01*
X131526182Y-104437808D01*
X131608236Y-104167309D01*
X131635943Y-103886000D01*
X131608236Y-103604691D01*
X131526182Y-103334192D01*
X131392932Y-103084899D01*
X131213608Y-102866392D01*
X130995101Y-102687068D01*
X130862142Y-102616000D01*
X130995101Y-102544932D01*
X131213608Y-102365608D01*
X131392932Y-102147101D01*
X131526182Y-101897808D01*
X131608236Y-101627309D01*
X131635943Y-101346000D01*
X131608236Y-101064691D01*
X131526182Y-100794192D01*
X131392932Y-100544899D01*
X131213608Y-100326392D01*
X131100518Y-100233581D01*
X131118482Y-100231812D01*
X131238180Y-100195502D01*
X131348494Y-100136537D01*
X131445185Y-100057185D01*
X131524537Y-99960494D01*
X131583502Y-99850180D01*
X131619812Y-99730482D01*
X131632072Y-99606000D01*
X131632072Y-98006000D01*
X131619812Y-97881518D01*
X131583502Y-97761820D01*
X131524537Y-97651506D01*
X131445185Y-97554815D01*
X131348494Y-97475463D01*
X131238180Y-97416498D01*
X131118482Y-97380188D01*
X130994000Y-97367928D01*
X128594000Y-97367928D01*
X128469518Y-97380188D01*
X128349820Y-97416498D01*
X128239506Y-97475463D01*
X128142815Y-97554815D01*
X128063463Y-97651506D01*
X128004498Y-97761820D01*
X127968188Y-97881518D01*
X127955928Y-98006000D01*
X127955928Y-99606000D01*
X127968188Y-99730482D01*
X128004498Y-99850180D01*
X128063463Y-99960494D01*
X128142815Y-100057185D01*
X128239506Y-100136537D01*
X128349820Y-100195502D01*
X128469518Y-100231812D01*
X128487482Y-100233581D01*
X128374392Y-100326392D01*
X128195068Y-100544899D01*
X128061818Y-100794192D01*
X127979764Y-101064691D01*
X127952057Y-101346000D01*
X127979764Y-101627309D01*
X128061818Y-101897808D01*
X128195068Y-102147101D01*
X128374392Y-102365608D01*
X128592899Y-102544932D01*
X128725858Y-102616000D01*
X128592899Y-102687068D01*
X128374392Y-102866392D01*
X128195068Y-103084899D01*
X128061818Y-103334192D01*
X127979764Y-103604691D01*
X127952057Y-103886000D01*
X127979764Y-104167309D01*
X128061818Y-104437808D01*
X128195068Y-104687101D01*
X128374392Y-104905608D01*
X128592899Y-105084932D01*
X128725858Y-105156000D01*
X128592899Y-105227068D01*
X128374392Y-105406392D01*
X128195068Y-105624899D01*
X128061818Y-105874192D01*
X127979764Y-106144691D01*
X127952057Y-106426000D01*
X127979764Y-106707309D01*
X128061818Y-106977808D01*
X128195068Y-107227101D01*
X128285194Y-107336919D01*
X128283941Y-107337589D01*
X128283939Y-107337590D01*
X128283940Y-107337590D01*
X128182953Y-107420468D01*
X128182951Y-107420470D01*
X128149183Y-107448183D01*
X128121470Y-107481951D01*
X127430439Y-108172983D01*
X127395335Y-108166000D01*
X127112665Y-108166000D01*
X126835426Y-108221147D01*
X126574273Y-108329320D01*
X126339241Y-108486363D01*
X126139363Y-108686241D01*
X125982320Y-108921273D01*
X125874147Y-109182426D01*
X125819000Y-109459665D01*
X125819000Y-109742335D01*
X125874147Y-110019574D01*
X125982320Y-110280727D01*
X126139363Y-110515759D01*
X126339241Y-110715637D01*
X126574273Y-110872680D01*
X126835426Y-110980853D01*
X127112665Y-111036000D01*
X127395335Y-111036000D01*
X127672574Y-110980853D01*
X127933727Y-110872680D01*
X128168759Y-110715637D01*
X128368637Y-110515759D01*
X128524000Y-110283241D01*
X128679363Y-110515759D01*
X128681503Y-110517899D01*
X127948941Y-111250461D01*
X127915174Y-111278173D01*
X127887461Y-111311941D01*
X127887458Y-111311944D01*
X127870620Y-111332461D01*
X127805808Y-111297818D01*
X127535309Y-111215764D01*
X127254000Y-111188057D01*
X126972692Y-111215764D01*
X126702193Y-111297818D01*
X126452900Y-111431068D01*
X126234393Y-111610392D01*
X126055068Y-111828899D01*
X125984000Y-111961858D01*
X125912932Y-111828899D01*
X125733608Y-111610392D01*
X125515101Y-111431068D01*
X125265808Y-111297818D01*
X124995309Y-111215764D01*
X124714000Y-111188057D01*
X124432692Y-111215764D01*
X124162193Y-111297818D01*
X123912900Y-111431068D01*
X123694393Y-111610392D01*
X123515068Y-111828899D01*
X123444000Y-111961858D01*
X123372932Y-111828899D01*
X123193608Y-111610392D01*
X122975101Y-111431068D01*
X122725808Y-111297818D01*
X122455309Y-111215764D01*
X122174000Y-111188057D01*
X121892692Y-111215764D01*
X121622193Y-111297818D01*
X121372900Y-111431068D01*
X121154393Y-111610392D01*
X120975068Y-111828899D01*
X120906735Y-111956741D01*
X120756601Y-111727161D01*
X120558895Y-111525500D01*
X120325646Y-111366285D01*
X120065818Y-111255633D01*
X119983039Y-111238096D01*
X119761000Y-111360085D01*
X119761000Y-112903000D01*
X119781000Y-112903000D01*
X119781000Y-113157000D01*
X119761000Y-113157000D01*
X119761000Y-114699915D01*
X119983039Y-114821904D01*
X120065818Y-114804367D01*
X120325646Y-114693715D01*
X120558895Y-114534500D01*
X120756601Y-114332839D01*
X120906735Y-114103258D01*
X120975068Y-114231100D01*
X121154392Y-114449607D01*
X121289001Y-114560078D01*
X121289001Y-114822420D01*
X116418956Y-119692466D01*
X116385183Y-119720183D01*
X116274589Y-119854942D01*
X116192411Y-120008688D01*
X116159038Y-120118702D01*
X116147742Y-120155941D01*
X116141805Y-120175511D01*
X116129000Y-120305524D01*
X116129000Y-120305531D01*
X116124719Y-120349000D01*
X116129000Y-120392469D01*
X116129000Y-124910420D01*
X115966598Y-124926416D01*
X115829514Y-124968000D01*
X114238486Y-124968000D01*
X114101402Y-124926416D01*
X113934000Y-124909928D01*
X112174000Y-124909928D01*
X112006598Y-124926416D01*
X111869514Y-124968000D01*
X110455957Y-124968000D01*
X110438180Y-124958498D01*
X110318482Y-124922188D01*
X110194000Y-124909928D01*
X109379750Y-124913000D01*
X109324750Y-124968000D01*
X108863250Y-124968000D01*
X108808250Y-124913000D01*
X107994000Y-124909928D01*
X107869518Y-124922188D01*
X107749820Y-124958498D01*
X107732043Y-124968000D01*
X107517800Y-124968000D01*
X107517800Y-120118702D01*
X109716903Y-120118702D01*
X109788486Y-120362671D01*
X110043996Y-120483571D01*
X110318184Y-120552300D01*
X110600512Y-120566217D01*
X110880130Y-120524787D01*
X111146292Y-120429603D01*
X111271514Y-120362671D01*
X111343097Y-120118702D01*
X110530000Y-119305605D01*
X109716903Y-120118702D01*
X107517800Y-120118702D01*
X107517800Y-119196512D01*
X109089783Y-119196512D01*
X109131213Y-119476130D01*
X109226397Y-119742292D01*
X109293329Y-119867514D01*
X109537298Y-119939097D01*
X110350395Y-119126000D01*
X110709605Y-119126000D01*
X111522702Y-119939097D01*
X111766671Y-119867514D01*
X111780324Y-119838659D01*
X111915363Y-120040759D01*
X112115241Y-120240637D01*
X112350273Y-120397680D01*
X112611426Y-120505853D01*
X112888665Y-120561000D01*
X113171335Y-120561000D01*
X113448574Y-120505853D01*
X113709727Y-120397680D01*
X113944759Y-120240637D01*
X114144637Y-120040759D01*
X114301680Y-119805727D01*
X114409853Y-119544574D01*
X114465000Y-119267335D01*
X114465000Y-118984665D01*
X114409853Y-118707426D01*
X114301680Y-118446273D01*
X114144637Y-118211241D01*
X113944759Y-118011363D01*
X113709727Y-117854320D01*
X113448574Y-117746147D01*
X113171335Y-117691000D01*
X112888665Y-117691000D01*
X112611426Y-117746147D01*
X112350273Y-117854320D01*
X112115241Y-118011363D01*
X111915363Y-118211241D01*
X111781308Y-118411869D01*
X111766671Y-118384486D01*
X111522702Y-118312903D01*
X110709605Y-119126000D01*
X110350395Y-119126000D01*
X109537298Y-118312903D01*
X109293329Y-118384486D01*
X109172429Y-118639996D01*
X109103700Y-118914184D01*
X109089783Y-119196512D01*
X107517800Y-119196512D01*
X107517800Y-118133298D01*
X109716903Y-118133298D01*
X110530000Y-118946395D01*
X111343097Y-118133298D01*
X111271514Y-117889329D01*
X111016004Y-117768429D01*
X110741816Y-117699700D01*
X110459488Y-117685783D01*
X110179870Y-117727213D01*
X109913708Y-117822397D01*
X109788486Y-117889329D01*
X109716903Y-118133298D01*
X107517800Y-118133298D01*
X107517800Y-113354512D01*
X109335783Y-113354512D01*
X109377213Y-113634130D01*
X109472397Y-113900292D01*
X109539329Y-114025514D01*
X109783298Y-114097097D01*
X110596395Y-113284000D01*
X109783298Y-112470903D01*
X109539329Y-112542486D01*
X109418429Y-112797996D01*
X109349700Y-113072184D01*
X109335783Y-113354512D01*
X107517800Y-113354512D01*
X107517800Y-112291298D01*
X109962903Y-112291298D01*
X110776000Y-113104395D01*
X110790143Y-113090253D01*
X110969748Y-113269858D01*
X110955605Y-113284000D01*
X110969748Y-113298143D01*
X110790143Y-113477748D01*
X110776000Y-113463605D01*
X109962903Y-114276702D01*
X110034486Y-114520671D01*
X110289996Y-114641571D01*
X110564184Y-114710300D01*
X110846512Y-114724217D01*
X111126130Y-114682787D01*
X111392292Y-114587603D01*
X111514309Y-114522384D01*
X111524815Y-114535185D01*
X111621506Y-114614537D01*
X111731820Y-114673502D01*
X111851518Y-114709812D01*
X111976000Y-114722072D01*
X113576000Y-114722072D01*
X113700482Y-114709812D01*
X113820180Y-114673502D01*
X113930494Y-114614537D01*
X114027185Y-114535185D01*
X114106537Y-114438494D01*
X114165502Y-114328180D01*
X114201812Y-114208482D01*
X114214072Y-114084000D01*
X114214072Y-113157000D01*
X118199000Y-113157000D01*
X118199000Y-113557000D01*
X118251350Y-113834514D01*
X118356834Y-114096483D01*
X118511399Y-114332839D01*
X118709105Y-114534500D01*
X118942354Y-114693715D01*
X119202182Y-114804367D01*
X119284961Y-114821904D01*
X119507000Y-114699915D01*
X119507000Y-113157000D01*
X118199000Y-113157000D01*
X114214072Y-113157000D01*
X114214072Y-112503000D01*
X118199000Y-112503000D01*
X118199000Y-112903000D01*
X119507000Y-112903000D01*
X119507000Y-111360085D01*
X119284961Y-111238096D01*
X119202182Y-111255633D01*
X118942354Y-111366285D01*
X118709105Y-111525500D01*
X118511399Y-111727161D01*
X118356834Y-111963517D01*
X118251350Y-112225486D01*
X118199000Y-112503000D01*
X114214072Y-112503000D01*
X114214072Y-112484000D01*
X114201812Y-112359518D01*
X114165502Y-112239820D01*
X114106537Y-112129506D01*
X114027185Y-112032815D01*
X113930494Y-111953463D01*
X113820180Y-111894498D01*
X113700482Y-111858188D01*
X113576000Y-111845928D01*
X111976000Y-111845928D01*
X111851518Y-111858188D01*
X111731820Y-111894498D01*
X111621506Y-111953463D01*
X111524815Y-112032815D01*
X111514193Y-112045758D01*
X111262004Y-111926429D01*
X110987816Y-111857700D01*
X110705488Y-111843783D01*
X110425870Y-111885213D01*
X110159708Y-111980397D01*
X110034486Y-112047329D01*
X109962903Y-112291298D01*
X107517800Y-112291298D01*
X107517800Y-109950039D01*
X118242096Y-109950039D01*
X118282754Y-110084087D01*
X118402963Y-110338420D01*
X118570481Y-110564414D01*
X118778869Y-110753385D01*
X119020119Y-110898070D01*
X119284960Y-110992909D01*
X119507000Y-110871624D01*
X119507000Y-109728000D01*
X119761000Y-109728000D01*
X119761000Y-110871624D01*
X119983040Y-110992909D01*
X120247881Y-110898070D01*
X120489131Y-110753385D01*
X120697519Y-110564414D01*
X120865037Y-110338420D01*
X120985246Y-110084087D01*
X121025904Y-109950039D01*
X120903915Y-109728000D01*
X119761000Y-109728000D01*
X119507000Y-109728000D01*
X118364085Y-109728000D01*
X118242096Y-109950039D01*
X107517800Y-109950039D01*
X107517800Y-109251961D01*
X118242096Y-109251961D01*
X118364085Y-109474000D01*
X119507000Y-109474000D01*
X119507000Y-108330376D01*
X119761000Y-108330376D01*
X119761000Y-109474000D01*
X120903915Y-109474000D01*
X121025904Y-109251961D01*
X120985246Y-109117913D01*
X120865037Y-108863580D01*
X120697519Y-108637586D01*
X120489131Y-108448615D01*
X120247881Y-108303930D01*
X119983040Y-108209091D01*
X119761000Y-108330376D01*
X119507000Y-108330376D01*
X119284960Y-108209091D01*
X119020119Y-108303930D01*
X118778869Y-108448615D01*
X118570481Y-108637586D01*
X118402963Y-108863580D01*
X118282754Y-109117913D01*
X118242096Y-109251961D01*
X107517800Y-109251961D01*
X107517800Y-100985344D01*
X107963000Y-100985344D01*
X107963000Y-101356656D01*
X108035439Y-101720834D01*
X108177534Y-102063882D01*
X108383825Y-102372618D01*
X108646382Y-102635175D01*
X108955118Y-102841466D01*
X109298166Y-102983561D01*
X109662344Y-103056000D01*
X110033656Y-103056000D01*
X110397834Y-102983561D01*
X110632740Y-102886260D01*
X110535439Y-103121166D01*
X110463000Y-103485344D01*
X110463000Y-103856656D01*
X110535439Y-104220834D01*
X110677534Y-104563882D01*
X110883825Y-104872618D01*
X111146382Y-105135175D01*
X111455118Y-105341466D01*
X111798166Y-105483561D01*
X112162344Y-105556000D01*
X112533656Y-105556000D01*
X112897834Y-105483561D01*
X113240882Y-105341466D01*
X113549618Y-105135175D01*
X113812175Y-104872618D01*
X114018466Y-104563882D01*
X114160561Y-104220834D01*
X114233000Y-103856656D01*
X114233000Y-103485344D01*
X120463000Y-103485344D01*
X120463000Y-103856656D01*
X120535439Y-104220834D01*
X120677534Y-104563882D01*
X120883825Y-104872618D01*
X121146382Y-105135175D01*
X121455118Y-105341466D01*
X121798166Y-105483561D01*
X122162344Y-105556000D01*
X122533656Y-105556000D01*
X122897834Y-105483561D01*
X123240882Y-105341466D01*
X123549618Y-105135175D01*
X123812175Y-104872618D01*
X124018466Y-104563882D01*
X124160561Y-104220834D01*
X124233000Y-103856656D01*
X124233000Y-103485344D01*
X124160561Y-103121166D01*
X124063260Y-102886260D01*
X124298166Y-102983561D01*
X124662344Y-103056000D01*
X125033656Y-103056000D01*
X125397834Y-102983561D01*
X125740882Y-102841466D01*
X126049618Y-102635175D01*
X126312175Y-102372618D01*
X126518466Y-102063882D01*
X126660561Y-101720834D01*
X126733000Y-101356656D01*
X126733000Y-100985344D01*
X126660561Y-100621166D01*
X126518466Y-100278118D01*
X126312175Y-99969382D01*
X126049618Y-99706825D01*
X125740882Y-99500534D01*
X125397834Y-99358439D01*
X125033656Y-99286000D01*
X124662344Y-99286000D01*
X124298166Y-99358439D01*
X123955118Y-99500534D01*
X123646382Y-99706825D01*
X123383825Y-99969382D01*
X123177534Y-100278118D01*
X123035439Y-100621166D01*
X122963000Y-100985344D01*
X122963000Y-101356656D01*
X123035439Y-101720834D01*
X123132740Y-101955740D01*
X122897834Y-101858439D01*
X122533656Y-101786000D01*
X122162344Y-101786000D01*
X121798166Y-101858439D01*
X121455118Y-102000534D01*
X121146382Y-102206825D01*
X120883825Y-102469382D01*
X120677534Y-102778118D01*
X120535439Y-103121166D01*
X120463000Y-103485344D01*
X114233000Y-103485344D01*
X114160561Y-103121166D01*
X114018466Y-102778118D01*
X113812175Y-102469382D01*
X113549618Y-102206825D01*
X113240882Y-102000534D01*
X112897834Y-101858439D01*
X112533656Y-101786000D01*
X112162344Y-101786000D01*
X111798166Y-101858439D01*
X111563260Y-101955740D01*
X111660561Y-101720834D01*
X111733000Y-101356656D01*
X111733000Y-100985344D01*
X115463000Y-100985344D01*
X115463000Y-101356656D01*
X115535439Y-101720834D01*
X115677534Y-102063882D01*
X115883825Y-102372618D01*
X116146382Y-102635175D01*
X116455118Y-102841466D01*
X116798166Y-102983561D01*
X117162344Y-103056000D01*
X117533656Y-103056000D01*
X117897834Y-102983561D01*
X118240882Y-102841466D01*
X118549618Y-102635175D01*
X118812175Y-102372618D01*
X119018466Y-102063882D01*
X119160561Y-101720834D01*
X119233000Y-101356656D01*
X119233000Y-100985344D01*
X119160561Y-100621166D01*
X119018466Y-100278118D01*
X118812175Y-99969382D01*
X118549618Y-99706825D01*
X118240882Y-99500534D01*
X117897834Y-99358439D01*
X117533656Y-99286000D01*
X117162344Y-99286000D01*
X116798166Y-99358439D01*
X116455118Y-99500534D01*
X116146382Y-99706825D01*
X115883825Y-99969382D01*
X115677534Y-100278118D01*
X115535439Y-100621166D01*
X115463000Y-100985344D01*
X111733000Y-100985344D01*
X111660561Y-100621166D01*
X111518466Y-100278118D01*
X111312175Y-99969382D01*
X111049618Y-99706825D01*
X110740882Y-99500534D01*
X110397834Y-99358439D01*
X110033656Y-99286000D01*
X109662344Y-99286000D01*
X109298166Y-99358439D01*
X108955118Y-99500534D01*
X108646382Y-99706825D01*
X108383825Y-99969382D01*
X108177534Y-100278118D01*
X108035439Y-100621166D01*
X107963000Y-100985344D01*
X107517800Y-100985344D01*
X107517800Y-94346665D01*
X128486000Y-94346665D01*
X128486000Y-94629335D01*
X128541147Y-94906574D01*
X128649320Y-95167727D01*
X128806363Y-95402759D01*
X129006241Y-95602637D01*
X129241273Y-95759680D01*
X129502426Y-95867853D01*
X129779665Y-95923000D01*
X130062335Y-95923000D01*
X130339574Y-95867853D01*
X130600727Y-95759680D01*
X130835759Y-95602637D01*
X131035637Y-95402759D01*
X131192680Y-95167727D01*
X131300853Y-94906574D01*
X131356000Y-94629335D01*
X131356000Y-94346665D01*
X131300853Y-94069426D01*
X131192680Y-93808273D01*
X131112317Y-93688000D01*
X136102928Y-93688000D01*
X136102928Y-95288000D01*
X136115188Y-95412482D01*
X136151498Y-95532180D01*
X136210463Y-95642494D01*
X136289815Y-95739185D01*
X136386506Y-95818537D01*
X136496820Y-95877502D01*
X136616518Y-95913812D01*
X136741000Y-95926072D01*
X138341000Y-95926072D01*
X138465482Y-95913812D01*
X138585180Y-95877502D01*
X138695494Y-95818537D01*
X138792185Y-95739185D01*
X138871537Y-95642494D01*
X138930502Y-95532180D01*
X138966812Y-95412482D01*
X138979072Y-95288000D01*
X138979072Y-95108665D01*
X142075000Y-95108665D01*
X142075000Y-95391335D01*
X142130147Y-95668574D01*
X142238320Y-95929727D01*
X142395363Y-96164759D01*
X142595241Y-96364637D01*
X142830273Y-96521680D01*
X143091426Y-96629853D01*
X143368665Y-96685000D01*
X143651335Y-96685000D01*
X143928574Y-96629853D01*
X144189727Y-96521680D01*
X144424759Y-96364637D01*
X144624637Y-96164759D01*
X144781680Y-95929727D01*
X144889853Y-95668574D01*
X144945000Y-95391335D01*
X144945000Y-95108665D01*
X144903685Y-94900961D01*
X149738096Y-94900961D01*
X149860085Y-95123000D01*
X151003000Y-95123000D01*
X151003000Y-93979376D01*
X151257000Y-93979376D01*
X151257000Y-95123000D01*
X152399915Y-95123000D01*
X152521904Y-94900961D01*
X152481246Y-94766913D01*
X152361037Y-94512580D01*
X152193519Y-94286586D01*
X151985131Y-94097615D01*
X151743881Y-93952930D01*
X151479040Y-93858091D01*
X151257000Y-93979376D01*
X151003000Y-93979376D01*
X150780960Y-93858091D01*
X150516119Y-93952930D01*
X150274869Y-94097615D01*
X150066481Y-94286586D01*
X149898963Y-94512580D01*
X149778754Y-94766913D01*
X149738096Y-94900961D01*
X144903685Y-94900961D01*
X144889853Y-94831426D01*
X144781680Y-94570273D01*
X144624637Y-94335241D01*
X144424759Y-94135363D01*
X144189727Y-93978320D01*
X143928574Y-93870147D01*
X143651335Y-93815000D01*
X143368665Y-93815000D01*
X143091426Y-93870147D01*
X142830273Y-93978320D01*
X142595241Y-94135363D01*
X142395363Y-94335241D01*
X142238320Y-94570273D01*
X142130147Y-94831426D01*
X142075000Y-95108665D01*
X138979072Y-95108665D01*
X138979072Y-93688000D01*
X138966812Y-93563518D01*
X138930502Y-93443820D01*
X138871537Y-93333506D01*
X138792185Y-93236815D01*
X138695494Y-93157463D01*
X138585180Y-93098498D01*
X138465482Y-93062188D01*
X138341000Y-93049928D01*
X136741000Y-93049928D01*
X136616518Y-93062188D01*
X136496820Y-93098498D01*
X136386506Y-93157463D01*
X136289815Y-93236815D01*
X136210463Y-93333506D01*
X136151498Y-93443820D01*
X136115188Y-93563518D01*
X136102928Y-93688000D01*
X131112317Y-93688000D01*
X131035637Y-93573241D01*
X130835759Y-93373363D01*
X130600727Y-93216320D01*
X130339574Y-93108147D01*
X130062335Y-93053000D01*
X129779665Y-93053000D01*
X129502426Y-93108147D01*
X129241273Y-93216320D01*
X129006241Y-93373363D01*
X128806363Y-93573241D01*
X128649320Y-93808273D01*
X128541147Y-94069426D01*
X128486000Y-94346665D01*
X107517800Y-94346665D01*
X107517800Y-91091279D01*
X107528187Y-90985344D01*
X110463000Y-90985344D01*
X110463000Y-91356656D01*
X110535439Y-91720834D01*
X110677534Y-92063882D01*
X110883825Y-92372618D01*
X111146382Y-92635175D01*
X111455118Y-92841466D01*
X111798166Y-92983561D01*
X112162344Y-93056000D01*
X112533656Y-93056000D01*
X112897834Y-92983561D01*
X113240882Y-92841466D01*
X113549618Y-92635175D01*
X113812175Y-92372618D01*
X114018466Y-92063882D01*
X114160561Y-91720834D01*
X114233000Y-91356656D01*
X114233000Y-90985344D01*
X120463000Y-90985344D01*
X120463000Y-91356656D01*
X120535439Y-91720834D01*
X120677534Y-92063882D01*
X120883825Y-92372618D01*
X121146382Y-92635175D01*
X121455118Y-92841466D01*
X121798166Y-92983561D01*
X122162344Y-93056000D01*
X122533656Y-93056000D01*
X122897834Y-92983561D01*
X123240882Y-92841466D01*
X123549618Y-92635175D01*
X123812175Y-92372618D01*
X124018466Y-92063882D01*
X124160561Y-91720834D01*
X124233000Y-91356656D01*
X124233000Y-90985344D01*
X124160561Y-90621166D01*
X124125560Y-90536665D01*
X128486000Y-90536665D01*
X128486000Y-90819335D01*
X128541147Y-91096574D01*
X128649320Y-91357727D01*
X128806363Y-91592759D01*
X129006241Y-91792637D01*
X129241273Y-91949680D01*
X129502426Y-92057853D01*
X129779665Y-92113000D01*
X130062335Y-92113000D01*
X130339574Y-92057853D01*
X130600727Y-91949680D01*
X130835759Y-91792637D01*
X131035637Y-91592759D01*
X131192680Y-91357727D01*
X131300853Y-91096574D01*
X131356000Y-90819335D01*
X131356000Y-90536665D01*
X136106000Y-90536665D01*
X136106000Y-90819335D01*
X136161147Y-91096574D01*
X136269320Y-91357727D01*
X136426363Y-91592759D01*
X136626241Y-91792637D01*
X136861273Y-91949680D01*
X137122426Y-92057853D01*
X137399665Y-92113000D01*
X137682335Y-92113000D01*
X137959574Y-92057853D01*
X138220727Y-91949680D01*
X138455759Y-91792637D01*
X138655637Y-91592759D01*
X138812680Y-91357727D01*
X138920853Y-91096574D01*
X138976000Y-90819335D01*
X138976000Y-90536665D01*
X138951402Y-90413000D01*
X144511928Y-90413000D01*
X144511928Y-92213000D01*
X144524188Y-92337482D01*
X144560498Y-92457180D01*
X144619463Y-92567494D01*
X144698815Y-92664185D01*
X144795506Y-92743537D01*
X144905820Y-92802502D01*
X145025518Y-92838812D01*
X145150000Y-92851072D01*
X146950000Y-92851072D01*
X147074482Y-92838812D01*
X147194180Y-92802502D01*
X147304494Y-92743537D01*
X147401185Y-92664185D01*
X147480537Y-92567494D01*
X147539502Y-92457180D01*
X147545056Y-92438873D01*
X147611495Y-92505312D01*
X147862905Y-92673299D01*
X148142257Y-92789011D01*
X148438816Y-92848000D01*
X148741184Y-92848000D01*
X149037743Y-92789011D01*
X149317095Y-92673299D01*
X149568505Y-92505312D01*
X149782312Y-92291505D01*
X149950299Y-92040095D01*
X150066011Y-91760743D01*
X150125000Y-91464184D01*
X150125000Y-91161816D01*
X150066011Y-90865257D01*
X149950299Y-90585905D01*
X149782312Y-90334495D01*
X149568505Y-90120688D01*
X149317095Y-89952701D01*
X149037743Y-89836989D01*
X148741184Y-89778000D01*
X148438816Y-89778000D01*
X148142257Y-89836989D01*
X147862905Y-89952701D01*
X147611495Y-90120688D01*
X147545056Y-90187127D01*
X147539502Y-90168820D01*
X147480537Y-90058506D01*
X147401185Y-89961815D01*
X147304494Y-89882463D01*
X147194180Y-89823498D01*
X147074482Y-89787188D01*
X146950000Y-89774928D01*
X145150000Y-89774928D01*
X145025518Y-89787188D01*
X144905820Y-89823498D01*
X144795506Y-89882463D01*
X144698815Y-89961815D01*
X144619463Y-90058506D01*
X144560498Y-90168820D01*
X144524188Y-90288518D01*
X144511928Y-90413000D01*
X138951402Y-90413000D01*
X138920853Y-90259426D01*
X138812680Y-89998273D01*
X138655637Y-89763241D01*
X138455759Y-89563363D01*
X138220727Y-89406320D01*
X137959574Y-89298147D01*
X137682335Y-89243000D01*
X137399665Y-89243000D01*
X137122426Y-89298147D01*
X136861273Y-89406320D01*
X136626241Y-89563363D01*
X136426363Y-89763241D01*
X136269320Y-89998273D01*
X136161147Y-90259426D01*
X136106000Y-90536665D01*
X131356000Y-90536665D01*
X131300853Y-90259426D01*
X131192680Y-89998273D01*
X131035637Y-89763241D01*
X130835759Y-89563363D01*
X130600727Y-89406320D01*
X130339574Y-89298147D01*
X130062335Y-89243000D01*
X129779665Y-89243000D01*
X129502426Y-89298147D01*
X129241273Y-89406320D01*
X129006241Y-89563363D01*
X128806363Y-89763241D01*
X128649320Y-89998273D01*
X128541147Y-90259426D01*
X128486000Y-90536665D01*
X124125560Y-90536665D01*
X124018466Y-90278118D01*
X123812175Y-89969382D01*
X123549618Y-89706825D01*
X123240882Y-89500534D01*
X122897834Y-89358439D01*
X122533656Y-89286000D01*
X122162344Y-89286000D01*
X121798166Y-89358439D01*
X121455118Y-89500534D01*
X121146382Y-89706825D01*
X120883825Y-89969382D01*
X120677534Y-90278118D01*
X120535439Y-90621166D01*
X120463000Y-90985344D01*
X114233000Y-90985344D01*
X114160561Y-90621166D01*
X114018466Y-90278118D01*
X113812175Y-89969382D01*
X113549618Y-89706825D01*
X113240882Y-89500534D01*
X112897834Y-89358439D01*
X112533656Y-89286000D01*
X112162344Y-89286000D01*
X111798166Y-89358439D01*
X111455118Y-89500534D01*
X111146382Y-89706825D01*
X110883825Y-89969382D01*
X110677534Y-90278118D01*
X110535439Y-90621166D01*
X110463000Y-90985344D01*
X107528187Y-90985344D01*
X107556709Y-90694455D01*
X107662580Y-90343792D01*
X107834544Y-90020375D01*
X108066054Y-89736516D01*
X108348286Y-89503035D01*
X108670495Y-89328817D01*
X109020414Y-89220498D01*
X109415243Y-89179000D01*
X152291521Y-89179000D01*
X152688345Y-89217909D01*
G04 #@! TA.AperFunction,Conductor*
D25*
G36*
X152688345Y-89217909D02*
G01*
X153039008Y-89323780D01*
X153362425Y-89495744D01*
X153646284Y-89727254D01*
X153879765Y-90009486D01*
X154053983Y-90331695D01*
X154162302Y-90681614D01*
X154203801Y-91076452D01*
X154203800Y-124187618D01*
X154203801Y-124187628D01*
X154203801Y-124968000D01*
X154015957Y-124968000D01*
X153998180Y-124958498D01*
X153878482Y-124922188D01*
X153754000Y-124909928D01*
X152939750Y-124913000D01*
X152884750Y-124968000D01*
X152423250Y-124968000D01*
X152368250Y-124913000D01*
X151554000Y-124909928D01*
X151429518Y-124922188D01*
X151309820Y-124958498D01*
X151292043Y-124968000D01*
X149878486Y-124968000D01*
X149741402Y-124926416D01*
X149574000Y-124909928D01*
X147975509Y-124909928D01*
X146255580Y-123190000D01*
X146822019Y-122623562D01*
X146919740Y-122643000D01*
X147212260Y-122643000D01*
X147499158Y-122585932D01*
X147769411Y-122473990D01*
X148012632Y-122311475D01*
X148219475Y-122104632D01*
X148336000Y-121930240D01*
X148452525Y-122104632D01*
X148659368Y-122311475D01*
X148902589Y-122473990D01*
X149172842Y-122585932D01*
X149459740Y-122643000D01*
X149752260Y-122643000D01*
X150039158Y-122585932D01*
X150309411Y-122473990D01*
X150552632Y-122311475D01*
X150759475Y-122104632D01*
X150921990Y-121861411D01*
X151033932Y-121591158D01*
X151091000Y-121304260D01*
X151091000Y-121011740D01*
X151076539Y-120939039D01*
X153374060Y-118641519D01*
X153407828Y-118613806D01*
X153436885Y-118578401D01*
X153518421Y-118479049D01*
X153547483Y-118424678D01*
X153600600Y-118325302D01*
X153651206Y-118158479D01*
X153664011Y-118028466D01*
X153664011Y-118028456D01*
X153668292Y-117984990D01*
X153664011Y-117941524D01*
X153664011Y-98331694D01*
X153668292Y-98288228D01*
X153664011Y-98244762D01*
X153664011Y-98244752D01*
X153651206Y-98114739D01*
X153600600Y-97947916D01*
X153518422Y-97794170D01*
X153407828Y-97659412D01*
X153374061Y-97631700D01*
X152703306Y-96960946D01*
X152675589Y-96927173D01*
X152540831Y-96816579D01*
X152387085Y-96734401D01*
X152220262Y-96683795D01*
X152090249Y-96670990D01*
X152090241Y-96670990D01*
X152046772Y-96666709D01*
X152003303Y-96670990D01*
X151257002Y-96670990D01*
X151257002Y-96520625D01*
X151479040Y-96641909D01*
X151743881Y-96547070D01*
X151985131Y-96402385D01*
X152193519Y-96213414D01*
X152361037Y-95987420D01*
X152481246Y-95733087D01*
X152521904Y-95599039D01*
X152399915Y-95377000D01*
X151257000Y-95377000D01*
X151257000Y-95397000D01*
X151003000Y-95397000D01*
X151003000Y-95377000D01*
X149860085Y-95377000D01*
X149738096Y-95599039D01*
X149778754Y-95733087D01*
X149898963Y-95987420D01*
X150066481Y-96213414D01*
X150274869Y-96402385D01*
X150516119Y-96547070D01*
X150780960Y-96641909D01*
X151002998Y-96520625D01*
X151002998Y-96670990D01*
X144803475Y-96670990D01*
X144760009Y-96666709D01*
X144716543Y-96670990D01*
X144716533Y-96670990D01*
X144586520Y-96683795D01*
X144419697Y-96734401D01*
X144265951Y-96816579D01*
X144265949Y-96816580D01*
X144265950Y-96816580D01*
X144164963Y-96899458D01*
X144164961Y-96899460D01*
X144131193Y-96927173D01*
X144103480Y-96960941D01*
X143696493Y-97367928D01*
X142309001Y-97367928D01*
X142184519Y-97380188D01*
X142064821Y-97416498D01*
X141954507Y-97475463D01*
X141857816Y-97554815D01*
X141778464Y-97651506D01*
X141719499Y-97761820D01*
X141683189Y-97881518D01*
X141670929Y-98006000D01*
X141670929Y-99606000D01*
X141683189Y-99730482D01*
X141688302Y-99747339D01*
X139724632Y-101711010D01*
X139202846Y-101711010D01*
X139228236Y-101627309D01*
X139255943Y-101346000D01*
X139228236Y-101064691D01*
X139146182Y-100794192D01*
X139012932Y-100544899D01*
X138833608Y-100326392D01*
X138615101Y-100147068D01*
X138482142Y-100076000D01*
X138615101Y-100004932D01*
X138833608Y-99825608D01*
X139012932Y-99607101D01*
X139146182Y-99357808D01*
X139228236Y-99087309D01*
X139255943Y-98806000D01*
X139228236Y-98524691D01*
X139146182Y-98254192D01*
X139012932Y-98004899D01*
X138833608Y-97786392D01*
X138615101Y-97607068D01*
X138365808Y-97473818D01*
X138095309Y-97391764D01*
X137884492Y-97371000D01*
X136943508Y-97371000D01*
X136732691Y-97391764D01*
X136462192Y-97473818D01*
X136212899Y-97607068D01*
X135994392Y-97786392D01*
X135815068Y-98004899D01*
X135681818Y-98254192D01*
X135599764Y-98524691D01*
X135572057Y-98806000D01*
X135599764Y-99087309D01*
X135681818Y-99357808D01*
X135815068Y-99607101D01*
X135994392Y-99825608D01*
X136212899Y-100004932D01*
X136345858Y-100076000D01*
X136212899Y-100147068D01*
X135994392Y-100326392D01*
X135815068Y-100544899D01*
X135681818Y-100794192D01*
X135599764Y-101064691D01*
X135575048Y-101315630D01*
X133770956Y-103119723D01*
X133737183Y-103147440D01*
X133626589Y-103282199D01*
X133544411Y-103435945D01*
X133493805Y-103602768D01*
X133481000Y-103732781D01*
X133481000Y-103732788D01*
X133476719Y-103776257D01*
X133481000Y-103819727D01*
X133481001Y-104425676D01*
X131622022Y-106284656D01*
X131608236Y-106144691D01*
X131526182Y-105874192D01*
X131392932Y-105624899D01*
X131213608Y-105406392D01*
X130995101Y-105227068D01*
X130862142Y-105156000D01*
X130995101Y-105084932D01*
X131213608Y-104905608D01*
X131392932Y-104687101D01*
X131526182Y-104437808D01*
X131608236Y-104167309D01*
X131635943Y-103886000D01*
X131608236Y-103604691D01*
X131526182Y-103334192D01*
X131392932Y-103084899D01*
X131213608Y-102866392D01*
X130995101Y-102687068D01*
X130862142Y-102616000D01*
X130995101Y-102544932D01*
X131213608Y-102365608D01*
X131392932Y-102147101D01*
X131526182Y-101897808D01*
X131608236Y-101627309D01*
X131635943Y-101346000D01*
X131608236Y-101064691D01*
X131526182Y-100794192D01*
X131392932Y-100544899D01*
X131213608Y-100326392D01*
X131100518Y-100233581D01*
X131118482Y-100231812D01*
X131238180Y-100195502D01*
X131348494Y-100136537D01*
X131445185Y-100057185D01*
X131524537Y-99960494D01*
X131583502Y-99850180D01*
X131619812Y-99730482D01*
X131632072Y-99606000D01*
X131632072Y-98006000D01*
X131619812Y-97881518D01*
X131583502Y-97761820D01*
X131524537Y-97651506D01*
X131445185Y-97554815D01*
X131348494Y-97475463D01*
X131238180Y-97416498D01*
X131118482Y-97380188D01*
X130994000Y-97367928D01*
X128594000Y-97367928D01*
X128469518Y-97380188D01*
X128349820Y-97416498D01*
X128239506Y-97475463D01*
X128142815Y-97554815D01*
X128063463Y-97651506D01*
X128004498Y-97761820D01*
X127968188Y-97881518D01*
X127955928Y-98006000D01*
X127955928Y-99606000D01*
X127968188Y-99730482D01*
X128004498Y-99850180D01*
X128063463Y-99960494D01*
X128142815Y-100057185D01*
X128239506Y-100136537D01*
X128349820Y-100195502D01*
X128469518Y-100231812D01*
X128487482Y-100233581D01*
X128374392Y-100326392D01*
X128195068Y-100544899D01*
X128061818Y-100794192D01*
X127979764Y-101064691D01*
X127952057Y-101346000D01*
X127979764Y-101627309D01*
X128061818Y-101897808D01*
X128195068Y-102147101D01*
X128374392Y-102365608D01*
X128592899Y-102544932D01*
X128725858Y-102616000D01*
X128592899Y-102687068D01*
X128374392Y-102866392D01*
X128195068Y-103084899D01*
X128061818Y-103334192D01*
X127979764Y-103604691D01*
X127952057Y-103886000D01*
X127979764Y-104167309D01*
X128061818Y-104437808D01*
X128195068Y-104687101D01*
X128374392Y-104905608D01*
X128592899Y-105084932D01*
X128725858Y-105156000D01*
X128592899Y-105227068D01*
X128374392Y-105406392D01*
X128195068Y-105624899D01*
X128061818Y-105874192D01*
X127979764Y-106144691D01*
X127952057Y-106426000D01*
X127979764Y-106707309D01*
X128061818Y-106977808D01*
X128195068Y-107227101D01*
X128285194Y-107336919D01*
X128283941Y-107337589D01*
X128283939Y-107337590D01*
X128283940Y-107337590D01*
X128182953Y-107420468D01*
X128182951Y-107420470D01*
X128149183Y-107448183D01*
X128121470Y-107481951D01*
X127430439Y-108172983D01*
X127395335Y-108166000D01*
X127112665Y-108166000D01*
X126835426Y-108221147D01*
X126574273Y-108329320D01*
X126339241Y-108486363D01*
X126139363Y-108686241D01*
X125982320Y-108921273D01*
X125874147Y-109182426D01*
X125819000Y-109459665D01*
X125819000Y-109742335D01*
X125874147Y-110019574D01*
X125982320Y-110280727D01*
X126139363Y-110515759D01*
X126339241Y-110715637D01*
X126574273Y-110872680D01*
X126835426Y-110980853D01*
X127112665Y-111036000D01*
X127395335Y-111036000D01*
X127672574Y-110980853D01*
X127933727Y-110872680D01*
X128168759Y-110715637D01*
X128368637Y-110515759D01*
X128524000Y-110283241D01*
X128679363Y-110515759D01*
X128681503Y-110517899D01*
X127948941Y-111250461D01*
X127915174Y-111278173D01*
X127887461Y-111311941D01*
X127887458Y-111311944D01*
X127870620Y-111332461D01*
X127805808Y-111297818D01*
X127535309Y-111215764D01*
X127254000Y-111188057D01*
X126972692Y-111215764D01*
X126702193Y-111297818D01*
X126452900Y-111431068D01*
X126234393Y-111610392D01*
X126055068Y-111828899D01*
X125984000Y-111961858D01*
X125912932Y-111828899D01*
X125733608Y-111610392D01*
X125515101Y-111431068D01*
X125265808Y-111297818D01*
X124995309Y-111215764D01*
X124714000Y-111188057D01*
X124432692Y-111215764D01*
X124162193Y-111297818D01*
X123912900Y-111431068D01*
X123694393Y-111610392D01*
X123515068Y-111828899D01*
X123444000Y-111961858D01*
X123372932Y-111828899D01*
X123193608Y-111610392D01*
X122975101Y-111431068D01*
X122725808Y-111297818D01*
X122455309Y-111215764D01*
X122174000Y-111188057D01*
X121892692Y-111215764D01*
X121622193Y-111297818D01*
X121372900Y-111431068D01*
X121154393Y-111610392D01*
X120975068Y-111828899D01*
X120906735Y-111956741D01*
X120756601Y-111727161D01*
X120558895Y-111525500D01*
X120325646Y-111366285D01*
X120065818Y-111255633D01*
X119983039Y-111238096D01*
X119761000Y-111360085D01*
X119761000Y-112903000D01*
X119781000Y-112903000D01*
X119781000Y-113157000D01*
X119761000Y-113157000D01*
X119761000Y-114699915D01*
X119983039Y-114821904D01*
X120065818Y-114804367D01*
X120325646Y-114693715D01*
X120558895Y-114534500D01*
X120756601Y-114332839D01*
X120906735Y-114103258D01*
X120975068Y-114231100D01*
X121154392Y-114449607D01*
X121289001Y-114560078D01*
X121289001Y-114822420D01*
X116418956Y-119692466D01*
X116385183Y-119720183D01*
X116274589Y-119854942D01*
X116192411Y-120008688D01*
X116159038Y-120118702D01*
X116147742Y-120155941D01*
X116141805Y-120175511D01*
X116129000Y-120305524D01*
X116129000Y-120305531D01*
X116124719Y-120349000D01*
X116129000Y-120392469D01*
X116129000Y-124910420D01*
X115966598Y-124926416D01*
X115829514Y-124968000D01*
X114238486Y-124968000D01*
X114101402Y-124926416D01*
X113934000Y-124909928D01*
X112174000Y-124909928D01*
X112006598Y-124926416D01*
X111869514Y-124968000D01*
X110455957Y-124968000D01*
X110438180Y-124958498D01*
X110318482Y-124922188D01*
X110194000Y-124909928D01*
X109379750Y-124913000D01*
X109324750Y-124968000D01*
X108863250Y-124968000D01*
X108808250Y-124913000D01*
X107994000Y-124909928D01*
X107869518Y-124922188D01*
X107749820Y-124958498D01*
X107732043Y-124968000D01*
X107517800Y-124968000D01*
X107517800Y-120118702D01*
X109716903Y-120118702D01*
X109788486Y-120362671D01*
X110043996Y-120483571D01*
X110318184Y-120552300D01*
X110600512Y-120566217D01*
X110880130Y-120524787D01*
X111146292Y-120429603D01*
X111271514Y-120362671D01*
X111343097Y-120118702D01*
X110530000Y-119305605D01*
X109716903Y-120118702D01*
X107517800Y-120118702D01*
X107517800Y-119196512D01*
X109089783Y-119196512D01*
X109131213Y-119476130D01*
X109226397Y-119742292D01*
X109293329Y-119867514D01*
X109537298Y-119939097D01*
X110350395Y-119126000D01*
X110709605Y-119126000D01*
X111522702Y-119939097D01*
X111766671Y-119867514D01*
X111780324Y-119838659D01*
X111915363Y-120040759D01*
X112115241Y-120240637D01*
X112350273Y-120397680D01*
X112611426Y-120505853D01*
X112888665Y-120561000D01*
X113171335Y-120561000D01*
X113448574Y-120505853D01*
X113709727Y-120397680D01*
X113944759Y-120240637D01*
X114144637Y-120040759D01*
X114301680Y-119805727D01*
X114409853Y-119544574D01*
X114465000Y-119267335D01*
X114465000Y-118984665D01*
X114409853Y-118707426D01*
X114301680Y-118446273D01*
X114144637Y-118211241D01*
X113944759Y-118011363D01*
X113709727Y-117854320D01*
X113448574Y-117746147D01*
X113171335Y-117691000D01*
X112888665Y-117691000D01*
X112611426Y-117746147D01*
X112350273Y-117854320D01*
X112115241Y-118011363D01*
X111915363Y-118211241D01*
X111781308Y-118411869D01*
X111766671Y-118384486D01*
X111522702Y-118312903D01*
X110709605Y-119126000D01*
X110350395Y-119126000D01*
X109537298Y-118312903D01*
X109293329Y-118384486D01*
X109172429Y-118639996D01*
X109103700Y-118914184D01*
X109089783Y-119196512D01*
X107517800Y-119196512D01*
X107517800Y-118133298D01*
X109716903Y-118133298D01*
X110530000Y-118946395D01*
X111343097Y-118133298D01*
X111271514Y-117889329D01*
X111016004Y-117768429D01*
X110741816Y-117699700D01*
X110459488Y-117685783D01*
X110179870Y-117727213D01*
X109913708Y-117822397D01*
X109788486Y-117889329D01*
X109716903Y-118133298D01*
X107517800Y-118133298D01*
X107517800Y-113354512D01*
X109335783Y-113354512D01*
X109377213Y-113634130D01*
X109472397Y-113900292D01*
X109539329Y-114025514D01*
X109783298Y-114097097D01*
X110596395Y-113284000D01*
X109783298Y-112470903D01*
X109539329Y-112542486D01*
X109418429Y-112797996D01*
X109349700Y-113072184D01*
X109335783Y-113354512D01*
X107517800Y-113354512D01*
X107517800Y-112291298D01*
X109962903Y-112291298D01*
X110776000Y-113104395D01*
X110790143Y-113090253D01*
X110969748Y-113269858D01*
X110955605Y-113284000D01*
X110969748Y-113298143D01*
X110790143Y-113477748D01*
X110776000Y-113463605D01*
X109962903Y-114276702D01*
X110034486Y-114520671D01*
X110289996Y-114641571D01*
X110564184Y-114710300D01*
X110846512Y-114724217D01*
X111126130Y-114682787D01*
X111392292Y-114587603D01*
X111514309Y-114522384D01*
X111524815Y-114535185D01*
X111621506Y-114614537D01*
X111731820Y-114673502D01*
X111851518Y-114709812D01*
X111976000Y-114722072D01*
X113576000Y-114722072D01*
X113700482Y-114709812D01*
X113820180Y-114673502D01*
X113930494Y-114614537D01*
X114027185Y-114535185D01*
X114106537Y-114438494D01*
X114165502Y-114328180D01*
X114201812Y-114208482D01*
X114214072Y-114084000D01*
X114214072Y-113157000D01*
X118199000Y-113157000D01*
X118199000Y-113557000D01*
X118251350Y-113834514D01*
X118356834Y-114096483D01*
X118511399Y-114332839D01*
X118709105Y-114534500D01*
X118942354Y-114693715D01*
X119202182Y-114804367D01*
X119284961Y-114821904D01*
X119507000Y-114699915D01*
X119507000Y-113157000D01*
X118199000Y-113157000D01*
X114214072Y-113157000D01*
X114214072Y-112503000D01*
X118199000Y-112503000D01*
X118199000Y-112903000D01*
X119507000Y-112903000D01*
X119507000Y-111360085D01*
X119284961Y-111238096D01*
X119202182Y-111255633D01*
X118942354Y-111366285D01*
X118709105Y-111525500D01*
X118511399Y-111727161D01*
X118356834Y-111963517D01*
X118251350Y-112225486D01*
X118199000Y-112503000D01*
X114214072Y-112503000D01*
X114214072Y-112484000D01*
X114201812Y-112359518D01*
X114165502Y-112239820D01*
X114106537Y-112129506D01*
X114027185Y-112032815D01*
X113930494Y-111953463D01*
X113820180Y-111894498D01*
X113700482Y-111858188D01*
X113576000Y-111845928D01*
X111976000Y-111845928D01*
X111851518Y-111858188D01*
X111731820Y-111894498D01*
X111621506Y-111953463D01*
X111524815Y-112032815D01*
X111514193Y-112045758D01*
X111262004Y-111926429D01*
X110987816Y-111857700D01*
X110705488Y-111843783D01*
X110425870Y-111885213D01*
X110159708Y-111980397D01*
X110034486Y-112047329D01*
X109962903Y-112291298D01*
X107517800Y-112291298D01*
X107517800Y-109950039D01*
X118242096Y-109950039D01*
X118282754Y-110084087D01*
X118402963Y-110338420D01*
X118570481Y-110564414D01*
X118778869Y-110753385D01*
X119020119Y-110898070D01*
X119284960Y-110992909D01*
X119507000Y-110871624D01*
X119507000Y-109728000D01*
X119761000Y-109728000D01*
X119761000Y-110871624D01*
X119983040Y-110992909D01*
X120247881Y-110898070D01*
X120489131Y-110753385D01*
X120697519Y-110564414D01*
X120865037Y-110338420D01*
X120985246Y-110084087D01*
X121025904Y-109950039D01*
X120903915Y-109728000D01*
X119761000Y-109728000D01*
X119507000Y-109728000D01*
X118364085Y-109728000D01*
X118242096Y-109950039D01*
X107517800Y-109950039D01*
X107517800Y-109251961D01*
X118242096Y-109251961D01*
X118364085Y-109474000D01*
X119507000Y-109474000D01*
X119507000Y-108330376D01*
X119761000Y-108330376D01*
X119761000Y-109474000D01*
X120903915Y-109474000D01*
X121025904Y-109251961D01*
X120985246Y-109117913D01*
X120865037Y-108863580D01*
X120697519Y-108637586D01*
X120489131Y-108448615D01*
X120247881Y-108303930D01*
X119983040Y-108209091D01*
X119761000Y-108330376D01*
X119507000Y-108330376D01*
X119284960Y-108209091D01*
X119020119Y-108303930D01*
X118778869Y-108448615D01*
X118570481Y-108637586D01*
X118402963Y-108863580D01*
X118282754Y-109117913D01*
X118242096Y-109251961D01*
X107517800Y-109251961D01*
X107517800Y-100985344D01*
X107963000Y-100985344D01*
X107963000Y-101356656D01*
X108035439Y-101720834D01*
X108177534Y-102063882D01*
X108383825Y-102372618D01*
X108646382Y-102635175D01*
X108955118Y-102841466D01*
X109298166Y-102983561D01*
X109662344Y-103056000D01*
X110033656Y-103056000D01*
X110397834Y-102983561D01*
X110632740Y-102886260D01*
X110535439Y-103121166D01*
X110463000Y-103485344D01*
X110463000Y-103856656D01*
X110535439Y-104220834D01*
X110677534Y-104563882D01*
X110883825Y-104872618D01*
X111146382Y-105135175D01*
X111455118Y-105341466D01*
X111798166Y-105483561D01*
X112162344Y-105556000D01*
X112533656Y-105556000D01*
X112897834Y-105483561D01*
X113240882Y-105341466D01*
X113549618Y-105135175D01*
X113812175Y-104872618D01*
X114018466Y-104563882D01*
X114160561Y-104220834D01*
X114233000Y-103856656D01*
X114233000Y-103485344D01*
X120463000Y-103485344D01*
X120463000Y-103856656D01*
X120535439Y-104220834D01*
X120677534Y-104563882D01*
X120883825Y-104872618D01*
X121146382Y-105135175D01*
X121455118Y-105341466D01*
X121798166Y-105483561D01*
X122162344Y-105556000D01*
X122533656Y-105556000D01*
X122897834Y-105483561D01*
X123240882Y-105341466D01*
X123549618Y-105135175D01*
X123812175Y-104872618D01*
X124018466Y-104563882D01*
X124160561Y-104220834D01*
X124233000Y-103856656D01*
X124233000Y-103485344D01*
X124160561Y-103121166D01*
X124063260Y-102886260D01*
X124298166Y-102983561D01*
X124662344Y-103056000D01*
X125033656Y-103056000D01*
X125397834Y-102983561D01*
X125740882Y-102841466D01*
X126049618Y-102635175D01*
X126312175Y-102372618D01*
X126518466Y-102063882D01*
X126660561Y-101720834D01*
X126733000Y-101356656D01*
X126733000Y-100985344D01*
X126660561Y-100621166D01*
X126518466Y-100278118D01*
X126312175Y-99969382D01*
X126049618Y-99706825D01*
X125740882Y-99500534D01*
X125397834Y-99358439D01*
X125033656Y-99286000D01*
X124662344Y-99286000D01*
X124298166Y-99358439D01*
X123955118Y-99500534D01*
X123646382Y-99706825D01*
X123383825Y-99969382D01*
X123177534Y-100278118D01*
X123035439Y-100621166D01*
X122963000Y-100985344D01*
X122963000Y-101356656D01*
X123035439Y-101720834D01*
X123132740Y-101955740D01*
X122897834Y-101858439D01*
X122533656Y-101786000D01*
X122162344Y-101786000D01*
X121798166Y-101858439D01*
X121455118Y-102000534D01*
X121146382Y-102206825D01*
X120883825Y-102469382D01*
X120677534Y-102778118D01*
X120535439Y-103121166D01*
X120463000Y-103485344D01*
X114233000Y-103485344D01*
X114160561Y-103121166D01*
X114018466Y-102778118D01*
X113812175Y-102469382D01*
X113549618Y-102206825D01*
X113240882Y-102000534D01*
X112897834Y-101858439D01*
X112533656Y-101786000D01*
X112162344Y-101786000D01*
X111798166Y-101858439D01*
X111563260Y-101955740D01*
X111660561Y-101720834D01*
X111733000Y-101356656D01*
X111733000Y-100985344D01*
X115463000Y-100985344D01*
X115463000Y-101356656D01*
X115535439Y-101720834D01*
X115677534Y-102063882D01*
X115883825Y-102372618D01*
X116146382Y-102635175D01*
X116455118Y-102841466D01*
X116798166Y-102983561D01*
X117162344Y-103056000D01*
X117533656Y-103056000D01*
X117897834Y-102983561D01*
X118240882Y-102841466D01*
X118549618Y-102635175D01*
X118812175Y-102372618D01*
X119018466Y-102063882D01*
X119160561Y-101720834D01*
X119233000Y-101356656D01*
X119233000Y-100985344D01*
X119160561Y-100621166D01*
X119018466Y-100278118D01*
X118812175Y-99969382D01*
X118549618Y-99706825D01*
X118240882Y-99500534D01*
X117897834Y-99358439D01*
X117533656Y-99286000D01*
X117162344Y-99286000D01*
X116798166Y-99358439D01*
X116455118Y-99500534D01*
X116146382Y-99706825D01*
X115883825Y-99969382D01*
X115677534Y-100278118D01*
X115535439Y-100621166D01*
X115463000Y-100985344D01*
X111733000Y-100985344D01*
X111660561Y-100621166D01*
X111518466Y-100278118D01*
X111312175Y-99969382D01*
X111049618Y-99706825D01*
X110740882Y-99500534D01*
X110397834Y-99358439D01*
X110033656Y-99286000D01*
X109662344Y-99286000D01*
X109298166Y-99358439D01*
X108955118Y-99500534D01*
X108646382Y-99706825D01*
X108383825Y-99969382D01*
X108177534Y-100278118D01*
X108035439Y-100621166D01*
X107963000Y-100985344D01*
X107517800Y-100985344D01*
X107517800Y-94346665D01*
X128486000Y-94346665D01*
X128486000Y-94629335D01*
X128541147Y-94906574D01*
X128649320Y-95167727D01*
X128806363Y-95402759D01*
X129006241Y-95602637D01*
X129241273Y-95759680D01*
X129502426Y-95867853D01*
X129779665Y-95923000D01*
X130062335Y-95923000D01*
X130339574Y-95867853D01*
X130600727Y-95759680D01*
X130835759Y-95602637D01*
X131035637Y-95402759D01*
X131192680Y-95167727D01*
X131300853Y-94906574D01*
X131356000Y-94629335D01*
X131356000Y-94346665D01*
X131300853Y-94069426D01*
X131192680Y-93808273D01*
X131112317Y-93688000D01*
X136102928Y-93688000D01*
X136102928Y-95288000D01*
X136115188Y-95412482D01*
X136151498Y-95532180D01*
X136210463Y-95642494D01*
X136289815Y-95739185D01*
X136386506Y-95818537D01*
X136496820Y-95877502D01*
X136616518Y-95913812D01*
X136741000Y-95926072D01*
X138341000Y-95926072D01*
X138465482Y-95913812D01*
X138585180Y-95877502D01*
X138695494Y-95818537D01*
X138792185Y-95739185D01*
X138871537Y-95642494D01*
X138930502Y-95532180D01*
X138966812Y-95412482D01*
X138979072Y-95288000D01*
X138979072Y-95108665D01*
X142075000Y-95108665D01*
X142075000Y-95391335D01*
X142130147Y-95668574D01*
X142238320Y-95929727D01*
X142395363Y-96164759D01*
X142595241Y-96364637D01*
X142830273Y-96521680D01*
X143091426Y-96629853D01*
X143368665Y-96685000D01*
X143651335Y-96685000D01*
X143928574Y-96629853D01*
X144189727Y-96521680D01*
X144424759Y-96364637D01*
X144624637Y-96164759D01*
X144781680Y-95929727D01*
X144889853Y-95668574D01*
X144945000Y-95391335D01*
X144945000Y-95108665D01*
X144903685Y-94900961D01*
X149738096Y-94900961D01*
X149860085Y-95123000D01*
X151003000Y-95123000D01*
X151003000Y-93979376D01*
X151257000Y-93979376D01*
X151257000Y-95123000D01*
X152399915Y-95123000D01*
X152521904Y-94900961D01*
X152481246Y-94766913D01*
X152361037Y-94512580D01*
X152193519Y-94286586D01*
X151985131Y-94097615D01*
X151743881Y-93952930D01*
X151479040Y-93858091D01*
X151257000Y-93979376D01*
X151003000Y-93979376D01*
X150780960Y-93858091D01*
X150516119Y-93952930D01*
X150274869Y-94097615D01*
X150066481Y-94286586D01*
X149898963Y-94512580D01*
X149778754Y-94766913D01*
X149738096Y-94900961D01*
X144903685Y-94900961D01*
X144889853Y-94831426D01*
X144781680Y-94570273D01*
X144624637Y-94335241D01*
X144424759Y-94135363D01*
X144189727Y-93978320D01*
X143928574Y-93870147D01*
X143651335Y-93815000D01*
X143368665Y-93815000D01*
X143091426Y-93870147D01*
X142830273Y-93978320D01*
X142595241Y-94135363D01*
X142395363Y-94335241D01*
X142238320Y-94570273D01*
X142130147Y-94831426D01*
X142075000Y-95108665D01*
X138979072Y-95108665D01*
X138979072Y-93688000D01*
X138966812Y-93563518D01*
X138930502Y-93443820D01*
X138871537Y-93333506D01*
X138792185Y-93236815D01*
X138695494Y-93157463D01*
X138585180Y-93098498D01*
X138465482Y-93062188D01*
X138341000Y-93049928D01*
X136741000Y-93049928D01*
X136616518Y-93062188D01*
X136496820Y-93098498D01*
X136386506Y-93157463D01*
X136289815Y-93236815D01*
X136210463Y-93333506D01*
X136151498Y-93443820D01*
X136115188Y-93563518D01*
X136102928Y-93688000D01*
X131112317Y-93688000D01*
X131035637Y-93573241D01*
X130835759Y-93373363D01*
X130600727Y-93216320D01*
X130339574Y-93108147D01*
X130062335Y-93053000D01*
X129779665Y-93053000D01*
X129502426Y-93108147D01*
X129241273Y-93216320D01*
X129006241Y-93373363D01*
X128806363Y-93573241D01*
X128649320Y-93808273D01*
X128541147Y-94069426D01*
X128486000Y-94346665D01*
X107517800Y-94346665D01*
X107517800Y-91091279D01*
X107528187Y-90985344D01*
X110463000Y-90985344D01*
X110463000Y-91356656D01*
X110535439Y-91720834D01*
X110677534Y-92063882D01*
X110883825Y-92372618D01*
X111146382Y-92635175D01*
X111455118Y-92841466D01*
X111798166Y-92983561D01*
X112162344Y-93056000D01*
X112533656Y-93056000D01*
X112897834Y-92983561D01*
X113240882Y-92841466D01*
X113549618Y-92635175D01*
X113812175Y-92372618D01*
X114018466Y-92063882D01*
X114160561Y-91720834D01*
X114233000Y-91356656D01*
X114233000Y-90985344D01*
X120463000Y-90985344D01*
X120463000Y-91356656D01*
X120535439Y-91720834D01*
X120677534Y-92063882D01*
X120883825Y-92372618D01*
X121146382Y-92635175D01*
X121455118Y-92841466D01*
X121798166Y-92983561D01*
X122162344Y-93056000D01*
X122533656Y-93056000D01*
X122897834Y-92983561D01*
X123240882Y-92841466D01*
X123549618Y-92635175D01*
X123812175Y-92372618D01*
X124018466Y-92063882D01*
X124160561Y-91720834D01*
X124233000Y-91356656D01*
X124233000Y-90985344D01*
X124160561Y-90621166D01*
X124125560Y-90536665D01*
X128486000Y-90536665D01*
X128486000Y-90819335D01*
X128541147Y-91096574D01*
X128649320Y-91357727D01*
X128806363Y-91592759D01*
X129006241Y-91792637D01*
X129241273Y-91949680D01*
X129502426Y-92057853D01*
X129779665Y-92113000D01*
X130062335Y-92113000D01*
X130339574Y-92057853D01*
X130600727Y-91949680D01*
X130835759Y-91792637D01*
X131035637Y-91592759D01*
X131192680Y-91357727D01*
X131300853Y-91096574D01*
X131356000Y-90819335D01*
X131356000Y-90536665D01*
X136106000Y-90536665D01*
X136106000Y-90819335D01*
X136161147Y-91096574D01*
X136269320Y-91357727D01*
X136426363Y-91592759D01*
X136626241Y-91792637D01*
X136861273Y-91949680D01*
X137122426Y-92057853D01*
X137399665Y-92113000D01*
X137682335Y-92113000D01*
X137959574Y-92057853D01*
X138220727Y-91949680D01*
X138455759Y-91792637D01*
X138655637Y-91592759D01*
X138812680Y-91357727D01*
X138920853Y-91096574D01*
X138976000Y-90819335D01*
X138976000Y-90536665D01*
X138951402Y-90413000D01*
X144511928Y-90413000D01*
X144511928Y-92213000D01*
X144524188Y-92337482D01*
X144560498Y-92457180D01*
X144619463Y-92567494D01*
X144698815Y-92664185D01*
X144795506Y-92743537D01*
X144905820Y-92802502D01*
X145025518Y-92838812D01*
X145150000Y-92851072D01*
X146950000Y-92851072D01*
X147074482Y-92838812D01*
X147194180Y-92802502D01*
X147304494Y-92743537D01*
X147401185Y-92664185D01*
X147480537Y-92567494D01*
X147539502Y-92457180D01*
X147545056Y-92438873D01*
X147611495Y-92505312D01*
X147862905Y-92673299D01*
X148142257Y-92789011D01*
X148438816Y-92848000D01*
X148741184Y-92848000D01*
X149037743Y-92789011D01*
X149317095Y-92673299D01*
X149568505Y-92505312D01*
X149782312Y-92291505D01*
X149950299Y-92040095D01*
X150066011Y-91760743D01*
X150125000Y-91464184D01*
X150125000Y-91161816D01*
X150066011Y-90865257D01*
X149950299Y-90585905D01*
X149782312Y-90334495D01*
X149568505Y-90120688D01*
X149317095Y-89952701D01*
X149037743Y-89836989D01*
X148741184Y-89778000D01*
X148438816Y-89778000D01*
X148142257Y-89836989D01*
X147862905Y-89952701D01*
X147611495Y-90120688D01*
X147545056Y-90187127D01*
X147539502Y-90168820D01*
X147480537Y-90058506D01*
X147401185Y-89961815D01*
X147304494Y-89882463D01*
X147194180Y-89823498D01*
X147074482Y-89787188D01*
X146950000Y-89774928D01*
X145150000Y-89774928D01*
X145025518Y-89787188D01*
X144905820Y-89823498D01*
X144795506Y-89882463D01*
X144698815Y-89961815D01*
X144619463Y-90058506D01*
X144560498Y-90168820D01*
X144524188Y-90288518D01*
X144511928Y-90413000D01*
X138951402Y-90413000D01*
X138920853Y-90259426D01*
X138812680Y-89998273D01*
X138655637Y-89763241D01*
X138455759Y-89563363D01*
X138220727Y-89406320D01*
X137959574Y-89298147D01*
X137682335Y-89243000D01*
X137399665Y-89243000D01*
X137122426Y-89298147D01*
X136861273Y-89406320D01*
X136626241Y-89563363D01*
X136426363Y-89763241D01*
X136269320Y-89998273D01*
X136161147Y-90259426D01*
X136106000Y-90536665D01*
X131356000Y-90536665D01*
X131300853Y-90259426D01*
X131192680Y-89998273D01*
X131035637Y-89763241D01*
X130835759Y-89563363D01*
X130600727Y-89406320D01*
X130339574Y-89298147D01*
X130062335Y-89243000D01*
X129779665Y-89243000D01*
X129502426Y-89298147D01*
X129241273Y-89406320D01*
X129006241Y-89563363D01*
X128806363Y-89763241D01*
X128649320Y-89998273D01*
X128541147Y-90259426D01*
X128486000Y-90536665D01*
X124125560Y-90536665D01*
X124018466Y-90278118D01*
X123812175Y-89969382D01*
X123549618Y-89706825D01*
X123240882Y-89500534D01*
X122897834Y-89358439D01*
X122533656Y-89286000D01*
X122162344Y-89286000D01*
X121798166Y-89358439D01*
X121455118Y-89500534D01*
X121146382Y-89706825D01*
X120883825Y-89969382D01*
X120677534Y-90278118D01*
X120535439Y-90621166D01*
X120463000Y-90985344D01*
X114233000Y-90985344D01*
X114160561Y-90621166D01*
X114018466Y-90278118D01*
X113812175Y-89969382D01*
X113549618Y-89706825D01*
X113240882Y-89500534D01*
X112897834Y-89358439D01*
X112533656Y-89286000D01*
X112162344Y-89286000D01*
X111798166Y-89358439D01*
X111455118Y-89500534D01*
X111146382Y-89706825D01*
X110883825Y-89969382D01*
X110677534Y-90278118D01*
X110535439Y-90621166D01*
X110463000Y-90985344D01*
X107528187Y-90985344D01*
X107556709Y-90694455D01*
X107662580Y-90343792D01*
X107834544Y-90020375D01*
X108066054Y-89736516D01*
X108348286Y-89503035D01*
X108670495Y-89328817D01*
X109020414Y-89220498D01*
X109415243Y-89179000D01*
X152291521Y-89179000D01*
X152688345Y-89217909D01*
G37*
G04 #@! TD.AperFunction*
D24*
X142307900Y-105084932D02*
X142435742Y-105153265D01*
X142206162Y-105303399D01*
X142004501Y-105501105D01*
X141845286Y-105734354D01*
X141734634Y-105994182D01*
X141717097Y-106076961D01*
X141839086Y-106299000D01*
X143382001Y-106299000D01*
X143382001Y-106279000D01*
X143636001Y-106279000D01*
X143636001Y-106299000D01*
X143656001Y-106299000D01*
X143656001Y-106553000D01*
X143636001Y-106553000D01*
X143636001Y-107861000D01*
X144036001Y-107861000D01*
X144274012Y-107816102D01*
X144274012Y-108499448D01*
X143513791Y-109259670D01*
X143498902Y-109267628D01*
X143498900Y-109267629D01*
X143498901Y-109267629D01*
X143397914Y-109350507D01*
X143397912Y-109350509D01*
X143364144Y-109378222D01*
X143336431Y-109411990D01*
X141898956Y-110849466D01*
X141865183Y-110877183D01*
X141754589Y-111011942D01*
X141672411Y-111165688D01*
X141645126Y-111255633D01*
X141621805Y-111332510D01*
X141621233Y-111338314D01*
X141609000Y-111462524D01*
X141609000Y-111462531D01*
X141604719Y-111506000D01*
X141609000Y-111549469D01*
X141609001Y-121551620D01*
X141521477Y-121543000D01*
X141521469Y-121543000D01*
X141478000Y-121538719D01*
X141434531Y-121543000D01*
X138764021Y-121543000D01*
X138828236Y-121331309D01*
X138849000Y-121120492D01*
X138849000Y-120179509D01*
X138828236Y-119968691D01*
X138746182Y-119698192D01*
X138612932Y-119448899D01*
X138433608Y-119230392D01*
X138215101Y-119051068D01*
X137965808Y-118917818D01*
X137695309Y-118835764D01*
X137414000Y-118808057D01*
X137132692Y-118835764D01*
X136862193Y-118917818D01*
X136612900Y-119051068D01*
X136437852Y-119194726D01*
X138009049Y-117623530D01*
X138042817Y-117595817D01*
X138153411Y-117461059D01*
X138235589Y-117307313D01*
X138286195Y-117140490D01*
X138299000Y-117010477D01*
X138299000Y-117010467D01*
X138303281Y-116967001D01*
X138299000Y-116923534D01*
X138299000Y-114859701D01*
X138338482Y-114855812D01*
X138458180Y-114819502D01*
X138568494Y-114760537D01*
X138665185Y-114681185D01*
X138744537Y-114584494D01*
X138803502Y-114474180D01*
X138839812Y-114354482D01*
X138852072Y-114230000D01*
X138852072Y-111830000D01*
X138839812Y-111705518D01*
X138803502Y-111585820D01*
X138744537Y-111475506D01*
X138665185Y-111378815D01*
X138568494Y-111299463D01*
X138458180Y-111240498D01*
X138338482Y-111204188D01*
X138214000Y-111191928D01*
X136614000Y-111191928D01*
X136489518Y-111204188D01*
X136369820Y-111240498D01*
X136259506Y-111299463D01*
X136162815Y-111378815D01*
X136083463Y-111475506D01*
X136024498Y-111585820D01*
X135988188Y-111705518D01*
X135986419Y-111723482D01*
X135893608Y-111610392D01*
X135675101Y-111431068D01*
X135425808Y-111297818D01*
X135155309Y-111215764D01*
X134874000Y-111188057D01*
X134592692Y-111215764D01*
X134322193Y-111297818D01*
X134072900Y-111431068D01*
X133854393Y-111610392D01*
X133675068Y-111828899D01*
X133604000Y-111961858D01*
X133532932Y-111828899D01*
X133353608Y-111610392D01*
X133135101Y-111431068D01*
X132924213Y-111318346D01*
X134782894Y-109459665D01*
X135979000Y-109459665D01*
X135979000Y-109742335D01*
X136034147Y-110019574D01*
X136142320Y-110280727D01*
X136299363Y-110515759D01*
X136499241Y-110715637D01*
X136734273Y-110872680D01*
X136995426Y-110980853D01*
X137272665Y-111036000D01*
X137555335Y-111036000D01*
X137832574Y-110980853D01*
X138093727Y-110872680D01*
X138328759Y-110715637D01*
X138528637Y-110515759D01*
X138685680Y-110280727D01*
X138793853Y-110019574D01*
X138849000Y-109742335D01*
X138849000Y-109459665D01*
X138793853Y-109182426D01*
X138685680Y-108921273D01*
X138528637Y-108686241D01*
X138328759Y-108486363D01*
X138093727Y-108329320D01*
X137832574Y-108221147D01*
X137555335Y-108166000D01*
X137272665Y-108166000D01*
X136995426Y-108221147D01*
X136734273Y-108329320D01*
X136499241Y-108486363D01*
X136299363Y-108686241D01*
X136142320Y-108921273D01*
X136034147Y-109182426D01*
X135979000Y-109459665D01*
X134782894Y-109459665D01*
X134961050Y-109281509D01*
X134994817Y-109253797D01*
X135033764Y-109206341D01*
X135105410Y-109119040D01*
X135105411Y-109119039D01*
X135187589Y-108965293D01*
X135238195Y-108798470D01*
X135251000Y-108668457D01*
X135251000Y-108668447D01*
X135255281Y-108624981D01*
X135251000Y-108581514D01*
X135251000Y-107173578D01*
X135626894Y-106797685D01*
X135639633Y-106857818D01*
X135750285Y-107117646D01*
X135909500Y-107350895D01*
X136111161Y-107548601D01*
X136347517Y-107703166D01*
X136609486Y-107808650D01*
X136887000Y-107861000D01*
X137287000Y-107861000D01*
X137287000Y-106553000D01*
X137541000Y-106553000D01*
X137541000Y-107861000D01*
X137941000Y-107861000D01*
X138218514Y-107808650D01*
X138480483Y-107703166D01*
X138716839Y-107548601D01*
X138918500Y-107350895D01*
X139077715Y-107117646D01*
X139188367Y-106857818D01*
X139205904Y-106775039D01*
X141717097Y-106775039D01*
X141734634Y-106857818D01*
X141845286Y-107117646D01*
X142004501Y-107350895D01*
X142206162Y-107548601D01*
X142442518Y-107703166D01*
X142704487Y-107808650D01*
X142982001Y-107861000D01*
X143382001Y-107861000D01*
X143382001Y-106553000D01*
X141839086Y-106553000D01*
X141717097Y-106775039D01*
X139205904Y-106775039D01*
X139083915Y-106553000D01*
X137541000Y-106553000D01*
X137287000Y-106553000D01*
X137267000Y-106553000D01*
X137267000Y-106299000D01*
X137287000Y-106299000D01*
X137287000Y-106279000D01*
X137541000Y-106279000D01*
X137541000Y-106299000D01*
X139083915Y-106299000D01*
X139205904Y-106076961D01*
X139202520Y-106060990D01*
X140525541Y-106060990D01*
X140569010Y-106065271D01*
X140612479Y-106060990D01*
X140612487Y-106060990D01*
X140742500Y-106048185D01*
X140909323Y-105997579D01*
X141063069Y-105915401D01*
X141197827Y-105804807D01*
X141225544Y-105771034D01*
X142090260Y-104906319D01*
X142307900Y-105084932D01*
G04 #@! TA.AperFunction,Conductor*
D25*
G36*
X142307900Y-105084932D02*
G01*
X142435742Y-105153265D01*
X142206162Y-105303399D01*
X142004501Y-105501105D01*
X141845286Y-105734354D01*
X141734634Y-105994182D01*
X141717097Y-106076961D01*
X141839086Y-106299000D01*
X143382001Y-106299000D01*
X143382001Y-106279000D01*
X143636001Y-106279000D01*
X143636001Y-106299000D01*
X143656001Y-106299000D01*
X143656001Y-106553000D01*
X143636001Y-106553000D01*
X143636001Y-107861000D01*
X144036001Y-107861000D01*
X144274012Y-107816102D01*
X144274012Y-108499448D01*
X143513791Y-109259670D01*
X143498902Y-109267628D01*
X143498900Y-109267629D01*
X143498901Y-109267629D01*
X143397914Y-109350507D01*
X143397912Y-109350509D01*
X143364144Y-109378222D01*
X143336431Y-109411990D01*
X141898956Y-110849466D01*
X141865183Y-110877183D01*
X141754589Y-111011942D01*
X141672411Y-111165688D01*
X141645126Y-111255633D01*
X141621805Y-111332510D01*
X141621233Y-111338314D01*
X141609000Y-111462524D01*
X141609000Y-111462531D01*
X141604719Y-111506000D01*
X141609000Y-111549469D01*
X141609001Y-121551620D01*
X141521477Y-121543000D01*
X141521469Y-121543000D01*
X141478000Y-121538719D01*
X141434531Y-121543000D01*
X138764021Y-121543000D01*
X138828236Y-121331309D01*
X138849000Y-121120492D01*
X138849000Y-120179509D01*
X138828236Y-119968691D01*
X138746182Y-119698192D01*
X138612932Y-119448899D01*
X138433608Y-119230392D01*
X138215101Y-119051068D01*
X137965808Y-118917818D01*
X137695309Y-118835764D01*
X137414000Y-118808057D01*
X137132692Y-118835764D01*
X136862193Y-118917818D01*
X136612900Y-119051068D01*
X136437852Y-119194726D01*
X138009049Y-117623530D01*
X138042817Y-117595817D01*
X138153411Y-117461059D01*
X138235589Y-117307313D01*
X138286195Y-117140490D01*
X138299000Y-117010477D01*
X138299000Y-117010467D01*
X138303281Y-116967001D01*
X138299000Y-116923534D01*
X138299000Y-114859701D01*
X138338482Y-114855812D01*
X138458180Y-114819502D01*
X138568494Y-114760537D01*
X138665185Y-114681185D01*
X138744537Y-114584494D01*
X138803502Y-114474180D01*
X138839812Y-114354482D01*
X138852072Y-114230000D01*
X138852072Y-111830000D01*
X138839812Y-111705518D01*
X138803502Y-111585820D01*
X138744537Y-111475506D01*
X138665185Y-111378815D01*
X138568494Y-111299463D01*
X138458180Y-111240498D01*
X138338482Y-111204188D01*
X138214000Y-111191928D01*
X136614000Y-111191928D01*
X136489518Y-111204188D01*
X136369820Y-111240498D01*
X136259506Y-111299463D01*
X136162815Y-111378815D01*
X136083463Y-111475506D01*
X136024498Y-111585820D01*
X135988188Y-111705518D01*
X135986419Y-111723482D01*
X135893608Y-111610392D01*
X135675101Y-111431068D01*
X135425808Y-111297818D01*
X135155309Y-111215764D01*
X134874000Y-111188057D01*
X134592692Y-111215764D01*
X134322193Y-111297818D01*
X134072900Y-111431068D01*
X133854393Y-111610392D01*
X133675068Y-111828899D01*
X133604000Y-111961858D01*
X133532932Y-111828899D01*
X133353608Y-111610392D01*
X133135101Y-111431068D01*
X132924213Y-111318346D01*
X134782894Y-109459665D01*
X135979000Y-109459665D01*
X135979000Y-109742335D01*
X136034147Y-110019574D01*
X136142320Y-110280727D01*
X136299363Y-110515759D01*
X136499241Y-110715637D01*
X136734273Y-110872680D01*
X136995426Y-110980853D01*
X137272665Y-111036000D01*
X137555335Y-111036000D01*
X137832574Y-110980853D01*
X138093727Y-110872680D01*
X138328759Y-110715637D01*
X138528637Y-110515759D01*
X138685680Y-110280727D01*
X138793853Y-110019574D01*
X138849000Y-109742335D01*
X138849000Y-109459665D01*
X138793853Y-109182426D01*
X138685680Y-108921273D01*
X138528637Y-108686241D01*
X138328759Y-108486363D01*
X138093727Y-108329320D01*
X137832574Y-108221147D01*
X137555335Y-108166000D01*
X137272665Y-108166000D01*
X136995426Y-108221147D01*
X136734273Y-108329320D01*
X136499241Y-108486363D01*
X136299363Y-108686241D01*
X136142320Y-108921273D01*
X136034147Y-109182426D01*
X135979000Y-109459665D01*
X134782894Y-109459665D01*
X134961050Y-109281509D01*
X134994817Y-109253797D01*
X135033764Y-109206341D01*
X135105410Y-109119040D01*
X135105411Y-109119039D01*
X135187589Y-108965293D01*
X135238195Y-108798470D01*
X135251000Y-108668457D01*
X135251000Y-108668447D01*
X135255281Y-108624981D01*
X135251000Y-108581514D01*
X135251000Y-107173578D01*
X135626894Y-106797685D01*
X135639633Y-106857818D01*
X135750285Y-107117646D01*
X135909500Y-107350895D01*
X136111161Y-107548601D01*
X136347517Y-107703166D01*
X136609486Y-107808650D01*
X136887000Y-107861000D01*
X137287000Y-107861000D01*
X137287000Y-106553000D01*
X137541000Y-106553000D01*
X137541000Y-107861000D01*
X137941000Y-107861000D01*
X138218514Y-107808650D01*
X138480483Y-107703166D01*
X138716839Y-107548601D01*
X138918500Y-107350895D01*
X139077715Y-107117646D01*
X139188367Y-106857818D01*
X139205904Y-106775039D01*
X141717097Y-106775039D01*
X141734634Y-106857818D01*
X141845286Y-107117646D01*
X142004501Y-107350895D01*
X142206162Y-107548601D01*
X142442518Y-107703166D01*
X142704487Y-107808650D01*
X142982001Y-107861000D01*
X143382001Y-107861000D01*
X143382001Y-106553000D01*
X141839086Y-106553000D01*
X141717097Y-106775039D01*
X139205904Y-106775039D01*
X139083915Y-106553000D01*
X137541000Y-106553000D01*
X137287000Y-106553000D01*
X137267000Y-106553000D01*
X137267000Y-106299000D01*
X137287000Y-106299000D01*
X137287000Y-106279000D01*
X137541000Y-106279000D01*
X137541000Y-106299000D01*
X139083915Y-106299000D01*
X139205904Y-106076961D01*
X139202520Y-106060990D01*
X140525541Y-106060990D01*
X140569010Y-106065271D01*
X140612479Y-106060990D01*
X140612487Y-106060990D01*
X140742500Y-106048185D01*
X140909323Y-105997579D01*
X141063069Y-105915401D01*
X141197827Y-105804807D01*
X141225544Y-105771034D01*
X142090260Y-104906319D01*
X142307900Y-105084932D01*
G37*
G04 #@! TD.AperFunction*
D24*
X129921000Y-120523000D02*
X129941000Y-120523000D01*
X129941000Y-120777000D01*
X129921000Y-120777000D01*
X129921000Y-120797000D01*
X129667000Y-120797000D01*
X129667000Y-120777000D01*
X129647000Y-120777000D01*
X129647000Y-120523000D01*
X129667000Y-120523000D01*
X129667000Y-120503000D01*
X129921000Y-120503000D01*
X129921000Y-120523000D01*
G04 #@! TA.AperFunction,Conductor*
D25*
G36*
X129921000Y-120523000D02*
G01*
X129941000Y-120523000D01*
X129941000Y-120777000D01*
X129921000Y-120777000D01*
X129921000Y-120797000D01*
X129667000Y-120797000D01*
X129667000Y-120777000D01*
X129647000Y-120777000D01*
X129647000Y-120523000D01*
X129667000Y-120523000D01*
X129667000Y-120503000D01*
X129921000Y-120503000D01*
X129921000Y-120523000D01*
G37*
G04 #@! TD.AperFunction*
D24*
X149927900Y-107624932D02*
X150177193Y-107758182D01*
X150447692Y-107840236D01*
X150658509Y-107861000D01*
X151599493Y-107861000D01*
X151810310Y-107840236D01*
X151894011Y-107814846D01*
X151894012Y-117618409D01*
X151021423Y-118490998D01*
X150926815Y-118490998D01*
X151047481Y-118261109D01*
X150950157Y-117986748D01*
X150801178Y-117736645D01*
X150606269Y-117520412D01*
X150372920Y-117346359D01*
X150110099Y-117221175D01*
X149962890Y-117176524D01*
X149733000Y-117297845D01*
X149733000Y-118491000D01*
X149753000Y-118491000D01*
X149753000Y-118745000D01*
X149733000Y-118745000D01*
X149733000Y-118765000D01*
X149479000Y-118765000D01*
X149479000Y-118745000D01*
X149459000Y-118745000D01*
X149459000Y-118491000D01*
X149479000Y-118491000D01*
X149479000Y-117297845D01*
X149249110Y-117176524D01*
X149101901Y-117221175D01*
X148839080Y-117346359D01*
X148605731Y-117520412D01*
X148410822Y-117736645D01*
X148341195Y-117853534D01*
X148219475Y-117671368D01*
X148012632Y-117464525D01*
X147769411Y-117302010D01*
X147499158Y-117190068D01*
X147212260Y-117133000D01*
X146919740Y-117133000D01*
X146847040Y-117147461D01*
X144903000Y-115203422D01*
X144903000Y-112634578D01*
X145307578Y-112230000D01*
X146135928Y-112230000D01*
X146135928Y-113830000D01*
X146148188Y-113954482D01*
X146184498Y-114074180D01*
X146243463Y-114184494D01*
X146322815Y-114281185D01*
X146419506Y-114360537D01*
X146529820Y-114419502D01*
X146649518Y-114455812D01*
X146774000Y-114468072D01*
X148374000Y-114468072D01*
X148498482Y-114455812D01*
X148618180Y-114419502D01*
X148728494Y-114360537D01*
X148825185Y-114281185D01*
X148835807Y-114268242D01*
X149087996Y-114387571D01*
X149362184Y-114456300D01*
X149644512Y-114470217D01*
X149924130Y-114428787D01*
X150190292Y-114333603D01*
X150315514Y-114266671D01*
X150387097Y-114022702D01*
X149574000Y-113209605D01*
X149559858Y-113223748D01*
X149380253Y-113044143D01*
X149394395Y-113030000D01*
X149753605Y-113030000D01*
X150566702Y-113843097D01*
X150810671Y-113771514D01*
X150931571Y-113516004D01*
X151000300Y-113241816D01*
X151014217Y-112959488D01*
X150972787Y-112679870D01*
X150877603Y-112413708D01*
X150810671Y-112288486D01*
X150566702Y-112216903D01*
X149753605Y-113030000D01*
X149394395Y-113030000D01*
X149380253Y-113015858D01*
X149559858Y-112836253D01*
X149574000Y-112850395D01*
X150387097Y-112037298D01*
X150315514Y-111793329D01*
X150060004Y-111672429D01*
X149785816Y-111603700D01*
X149503488Y-111589783D01*
X149223870Y-111631213D01*
X148957708Y-111726397D01*
X148835691Y-111791616D01*
X148825185Y-111778815D01*
X148728494Y-111699463D01*
X148618180Y-111640498D01*
X148498482Y-111604188D01*
X148374000Y-111591928D01*
X146774000Y-111591928D01*
X146649518Y-111604188D01*
X146529820Y-111640498D01*
X146419506Y-111699463D01*
X146322815Y-111778815D01*
X146243463Y-111875506D01*
X146184498Y-111985820D01*
X146148188Y-112105518D01*
X146135928Y-112230000D01*
X145307578Y-112230000D01*
X149919522Y-107618057D01*
X149927900Y-107624932D01*
G04 #@! TA.AperFunction,Conductor*
D25*
G36*
X149927900Y-107624932D02*
G01*
X150177193Y-107758182D01*
X150447692Y-107840236D01*
X150658509Y-107861000D01*
X151599493Y-107861000D01*
X151810310Y-107840236D01*
X151894011Y-107814846D01*
X151894012Y-117618409D01*
X151021423Y-118490998D01*
X150926815Y-118490998D01*
X151047481Y-118261109D01*
X150950157Y-117986748D01*
X150801178Y-117736645D01*
X150606269Y-117520412D01*
X150372920Y-117346359D01*
X150110099Y-117221175D01*
X149962890Y-117176524D01*
X149733000Y-117297845D01*
X149733000Y-118491000D01*
X149753000Y-118491000D01*
X149753000Y-118745000D01*
X149733000Y-118745000D01*
X149733000Y-118765000D01*
X149479000Y-118765000D01*
X149479000Y-118745000D01*
X149459000Y-118745000D01*
X149459000Y-118491000D01*
X149479000Y-118491000D01*
X149479000Y-117297845D01*
X149249110Y-117176524D01*
X149101901Y-117221175D01*
X148839080Y-117346359D01*
X148605731Y-117520412D01*
X148410822Y-117736645D01*
X148341195Y-117853534D01*
X148219475Y-117671368D01*
X148012632Y-117464525D01*
X147769411Y-117302010D01*
X147499158Y-117190068D01*
X147212260Y-117133000D01*
X146919740Y-117133000D01*
X146847040Y-117147461D01*
X144903000Y-115203422D01*
X144903000Y-112634578D01*
X145307578Y-112230000D01*
X146135928Y-112230000D01*
X146135928Y-113830000D01*
X146148188Y-113954482D01*
X146184498Y-114074180D01*
X146243463Y-114184494D01*
X146322815Y-114281185D01*
X146419506Y-114360537D01*
X146529820Y-114419502D01*
X146649518Y-114455812D01*
X146774000Y-114468072D01*
X148374000Y-114468072D01*
X148498482Y-114455812D01*
X148618180Y-114419502D01*
X148728494Y-114360537D01*
X148825185Y-114281185D01*
X148835807Y-114268242D01*
X149087996Y-114387571D01*
X149362184Y-114456300D01*
X149644512Y-114470217D01*
X149924130Y-114428787D01*
X150190292Y-114333603D01*
X150315514Y-114266671D01*
X150387097Y-114022702D01*
X149574000Y-113209605D01*
X149559858Y-113223748D01*
X149380253Y-113044143D01*
X149394395Y-113030000D01*
X149753605Y-113030000D01*
X150566702Y-113843097D01*
X150810671Y-113771514D01*
X150931571Y-113516004D01*
X151000300Y-113241816D01*
X151014217Y-112959488D01*
X150972787Y-112679870D01*
X150877603Y-112413708D01*
X150810671Y-112288486D01*
X150566702Y-112216903D01*
X149753605Y-113030000D01*
X149394395Y-113030000D01*
X149380253Y-113015858D01*
X149559858Y-112836253D01*
X149574000Y-112850395D01*
X150387097Y-112037298D01*
X150315514Y-111793329D01*
X150060004Y-111672429D01*
X149785816Y-111603700D01*
X149503488Y-111589783D01*
X149223870Y-111631213D01*
X148957708Y-111726397D01*
X148835691Y-111791616D01*
X148825185Y-111778815D01*
X148728494Y-111699463D01*
X148618180Y-111640498D01*
X148498482Y-111604188D01*
X148374000Y-111591928D01*
X146774000Y-111591928D01*
X146649518Y-111604188D01*
X146529820Y-111640498D01*
X146419506Y-111699463D01*
X146322815Y-111778815D01*
X146243463Y-111875506D01*
X146184498Y-111985820D01*
X146148188Y-112105518D01*
X146135928Y-112230000D01*
X145307578Y-112230000D01*
X149919522Y-107618057D01*
X149927900Y-107624932D01*
G37*
G04 #@! TD.AperFunction*
M02*
