G04 #@! TF.GenerationSoftware,KiCad,Pcbnew,5.1.9+dfsg1-1*
G04 #@! TF.CreationDate,2021-03-02T11:36:12-06:00*
G04 #@! TF.ProjectId,C64UserPortMidi,43363455-7365-4725-906f-72744d696469,rev?*
G04 #@! TF.SameCoordinates,Original*
G04 #@! TF.FileFunction,Legend,Bot*
G04 #@! TF.FilePolarity,Positive*
%FSLAX46Y46*%
G04 Gerber Fmt 4.6, Leading zero omitted, Abs format (unit mm)*
G04 Created by KiCad (PCBNEW 5.1.9+dfsg1-1) date 2021-03-02 11:36:12*
%MOMM*%
%LPD*%
G01*
G04 APERTURE LIST*
%ADD10C,0.150000*%
%ADD11C,0.200000*%
%ADD12C,0.120000*%
%ADD13C,0.010000*%
G04 APERTURE END LIST*
D10*
X131882571Y-94639333D02*
X131882571Y-94306000D01*
X132406380Y-94306000D02*
X131406380Y-94306000D01*
X131406380Y-94782190D01*
X132406380Y-95306000D02*
X132358761Y-95210761D01*
X132311142Y-95163142D01*
X132215904Y-95115523D01*
X131930190Y-95115523D01*
X131834952Y-95163142D01*
X131787333Y-95210761D01*
X131739714Y-95306000D01*
X131739714Y-95448857D01*
X131787333Y-95544095D01*
X131834952Y-95591714D01*
X131930190Y-95639333D01*
X132215904Y-95639333D01*
X132311142Y-95591714D01*
X132358761Y-95544095D01*
X132406380Y-95448857D01*
X132406380Y-95306000D01*
X132406380Y-96067904D02*
X131739714Y-96067904D01*
X131930190Y-96067904D02*
X131834952Y-96115523D01*
X131787333Y-96163142D01*
X131739714Y-96258380D01*
X131739714Y-96353619D01*
X131739714Y-97877428D02*
X132406380Y-97877428D01*
X131739714Y-97448857D02*
X132263523Y-97448857D01*
X132358761Y-97496476D01*
X132406380Y-97591714D01*
X132406380Y-97734571D01*
X132358761Y-97829809D01*
X132311142Y-97877428D01*
X132358761Y-98306000D02*
X132406380Y-98401238D01*
X132406380Y-98591714D01*
X132358761Y-98686952D01*
X132263523Y-98734571D01*
X132215904Y-98734571D01*
X132120666Y-98686952D01*
X132073047Y-98591714D01*
X132073047Y-98448857D01*
X132025428Y-98353619D01*
X131930190Y-98306000D01*
X131882571Y-98306000D01*
X131787333Y-98353619D01*
X131739714Y-98448857D01*
X131739714Y-98591714D01*
X131787333Y-98686952D01*
X132358761Y-99544095D02*
X132406380Y-99448857D01*
X132406380Y-99258380D01*
X132358761Y-99163142D01*
X132263523Y-99115523D01*
X131882571Y-99115523D01*
X131787333Y-99163142D01*
X131739714Y-99258380D01*
X131739714Y-99448857D01*
X131787333Y-99544095D01*
X131882571Y-99591714D01*
X131977809Y-99591714D01*
X132073047Y-99115523D01*
X131739714Y-100686952D02*
X132406380Y-100877428D01*
X131930190Y-101067904D01*
X132406380Y-101258380D01*
X131739714Y-101448857D01*
X132406380Y-101829809D02*
X131739714Y-101829809D01*
X131406380Y-101829809D02*
X131454000Y-101782190D01*
X131501619Y-101829809D01*
X131454000Y-101877428D01*
X131406380Y-101829809D01*
X131501619Y-101829809D01*
X131739714Y-102163142D02*
X131739714Y-102544095D01*
X131406380Y-102306000D02*
X132263523Y-102306000D01*
X132358761Y-102353619D01*
X132406380Y-102448857D01*
X132406380Y-102544095D01*
X132406380Y-102877428D02*
X131406380Y-102877428D01*
X132406380Y-103306000D02*
X131882571Y-103306000D01*
X131787333Y-103258380D01*
X131739714Y-103163142D01*
X131739714Y-103020285D01*
X131787333Y-102925047D01*
X131834952Y-102877428D01*
X133961142Y-93901238D02*
X134008761Y-93853619D01*
X134056380Y-93710761D01*
X134056380Y-93615523D01*
X134008761Y-93472666D01*
X133913523Y-93377428D01*
X133818285Y-93329809D01*
X133627809Y-93282190D01*
X133484952Y-93282190D01*
X133294476Y-93329809D01*
X133199238Y-93377428D01*
X133104000Y-93472666D01*
X133056380Y-93615523D01*
X133056380Y-93710761D01*
X133104000Y-93853619D01*
X133151619Y-93901238D01*
X134056380Y-94472666D02*
X134008761Y-94377428D01*
X133961142Y-94329809D01*
X133865904Y-94282190D01*
X133580190Y-94282190D01*
X133484952Y-94329809D01*
X133437333Y-94377428D01*
X133389714Y-94472666D01*
X133389714Y-94615523D01*
X133437333Y-94710761D01*
X133484952Y-94758380D01*
X133580190Y-94806000D01*
X133865904Y-94806000D01*
X133961142Y-94758380D01*
X134008761Y-94710761D01*
X134056380Y-94615523D01*
X134056380Y-94472666D01*
X134056380Y-95234571D02*
X133389714Y-95234571D01*
X133484952Y-95234571D02*
X133437333Y-95282190D01*
X133389714Y-95377428D01*
X133389714Y-95520285D01*
X133437333Y-95615523D01*
X133532571Y-95663142D01*
X134056380Y-95663142D01*
X133532571Y-95663142D02*
X133437333Y-95710761D01*
X133389714Y-95806000D01*
X133389714Y-95948857D01*
X133437333Y-96044095D01*
X133532571Y-96091714D01*
X134056380Y-96091714D01*
X134056380Y-96567904D02*
X133389714Y-96567904D01*
X133484952Y-96567904D02*
X133437333Y-96615523D01*
X133389714Y-96710761D01*
X133389714Y-96853619D01*
X133437333Y-96948857D01*
X133532571Y-96996476D01*
X134056380Y-96996476D01*
X133532571Y-96996476D02*
X133437333Y-97044095D01*
X133389714Y-97139333D01*
X133389714Y-97282190D01*
X133437333Y-97377428D01*
X133532571Y-97425047D01*
X134056380Y-97425047D01*
X134056380Y-98044095D02*
X134008761Y-97948857D01*
X133961142Y-97901238D01*
X133865904Y-97853619D01*
X133580190Y-97853619D01*
X133484952Y-97901238D01*
X133437333Y-97948857D01*
X133389714Y-98044095D01*
X133389714Y-98186952D01*
X133437333Y-98282190D01*
X133484952Y-98329809D01*
X133580190Y-98377428D01*
X133865904Y-98377428D01*
X133961142Y-98329809D01*
X134008761Y-98282190D01*
X134056380Y-98186952D01*
X134056380Y-98044095D01*
X134056380Y-99234571D02*
X133056380Y-99234571D01*
X134008761Y-99234571D02*
X134056380Y-99139333D01*
X134056380Y-98948857D01*
X134008761Y-98853619D01*
X133961142Y-98806000D01*
X133865904Y-98758380D01*
X133580190Y-98758380D01*
X133484952Y-98806000D01*
X133437333Y-98853619D01*
X133389714Y-98948857D01*
X133389714Y-99139333D01*
X133437333Y-99234571D01*
X134056380Y-99853619D02*
X134008761Y-99758380D01*
X133961142Y-99710761D01*
X133865904Y-99663142D01*
X133580190Y-99663142D01*
X133484952Y-99710761D01*
X133437333Y-99758380D01*
X133389714Y-99853619D01*
X133389714Y-99996476D01*
X133437333Y-100091714D01*
X133484952Y-100139333D01*
X133580190Y-100186952D01*
X133865904Y-100186952D01*
X133961142Y-100139333D01*
X134008761Y-100091714D01*
X134056380Y-99996476D01*
X134056380Y-99853619D01*
X134056380Y-100615523D02*
X133389714Y-100615523D01*
X133580190Y-100615523D02*
X133484952Y-100663142D01*
X133437333Y-100710761D01*
X133389714Y-100806000D01*
X133389714Y-100901238D01*
X134008761Y-101615523D02*
X134056380Y-101520285D01*
X134056380Y-101329809D01*
X134008761Y-101234571D01*
X133913523Y-101186952D01*
X133532571Y-101186952D01*
X133437333Y-101234571D01*
X133389714Y-101329809D01*
X133389714Y-101520285D01*
X133437333Y-101615523D01*
X133532571Y-101663142D01*
X133627809Y-101663142D01*
X133723047Y-101186952D01*
X133056380Y-103282190D02*
X133056380Y-103091714D01*
X133104000Y-102996476D01*
X133151619Y-102948857D01*
X133294476Y-102853619D01*
X133484952Y-102806000D01*
X133865904Y-102806000D01*
X133961142Y-102853619D01*
X134008761Y-102901238D01*
X134056380Y-102996476D01*
X134056380Y-103186952D01*
X134008761Y-103282190D01*
X133961142Y-103329809D01*
X133865904Y-103377428D01*
X133627809Y-103377428D01*
X133532571Y-103329809D01*
X133484952Y-103282190D01*
X133437333Y-103186952D01*
X133437333Y-102996476D01*
X133484952Y-102901238D01*
X133532571Y-102853619D01*
X133627809Y-102806000D01*
X133389714Y-104234571D02*
X134056380Y-104234571D01*
X133008761Y-103996476D02*
X133723047Y-103758380D01*
X133723047Y-104377428D01*
X135658761Y-91353619D02*
X135706380Y-91258380D01*
X135706380Y-91067904D01*
X135658761Y-90972666D01*
X135611142Y-90925047D01*
X135515904Y-90877428D01*
X135230190Y-90877428D01*
X135134952Y-90925047D01*
X135087333Y-90972666D01*
X135039714Y-91067904D01*
X135039714Y-91258380D01*
X135087333Y-91353619D01*
X135706380Y-91925047D02*
X135658761Y-91829809D01*
X135611142Y-91782190D01*
X135515904Y-91734571D01*
X135230190Y-91734571D01*
X135134952Y-91782190D01*
X135087333Y-91829809D01*
X135039714Y-91925047D01*
X135039714Y-92067904D01*
X135087333Y-92163142D01*
X135134952Y-92210761D01*
X135230190Y-92258380D01*
X135515904Y-92258380D01*
X135611142Y-92210761D01*
X135658761Y-92163142D01*
X135706380Y-92067904D01*
X135706380Y-91925047D01*
X135706380Y-92686952D02*
X135039714Y-92686952D01*
X135134952Y-92686952D02*
X135087333Y-92734571D01*
X135039714Y-92829809D01*
X135039714Y-92972666D01*
X135087333Y-93067904D01*
X135182571Y-93115523D01*
X135706380Y-93115523D01*
X135182571Y-93115523D02*
X135087333Y-93163142D01*
X135039714Y-93258380D01*
X135039714Y-93401238D01*
X135087333Y-93496476D01*
X135182571Y-93544095D01*
X135706380Y-93544095D01*
X135039714Y-94020285D02*
X136039714Y-94020285D01*
X135087333Y-94020285D02*
X135039714Y-94115523D01*
X135039714Y-94306000D01*
X135087333Y-94401238D01*
X135134952Y-94448857D01*
X135230190Y-94496476D01*
X135515904Y-94496476D01*
X135611142Y-94448857D01*
X135658761Y-94401238D01*
X135706380Y-94306000D01*
X135706380Y-94115523D01*
X135658761Y-94020285D01*
X135706380Y-95353619D02*
X135182571Y-95353619D01*
X135087333Y-95306000D01*
X135039714Y-95210761D01*
X135039714Y-95020285D01*
X135087333Y-94925047D01*
X135658761Y-95353619D02*
X135706380Y-95258380D01*
X135706380Y-95020285D01*
X135658761Y-94925047D01*
X135563523Y-94877428D01*
X135468285Y-94877428D01*
X135373047Y-94925047D01*
X135325428Y-95020285D01*
X135325428Y-95258380D01*
X135277809Y-95353619D01*
X135039714Y-95686952D02*
X135039714Y-96067904D01*
X134706380Y-95829809D02*
X135563523Y-95829809D01*
X135658761Y-95877428D01*
X135706380Y-95972666D01*
X135706380Y-96067904D01*
X135706380Y-96401238D02*
X135039714Y-96401238D01*
X134706380Y-96401238D02*
X134754000Y-96353619D01*
X134801619Y-96401238D01*
X134754000Y-96448857D01*
X134706380Y-96401238D01*
X134801619Y-96401238D01*
X135706380Y-96877428D02*
X134706380Y-96877428D01*
X135087333Y-96877428D02*
X135039714Y-96972666D01*
X135039714Y-97163142D01*
X135087333Y-97258380D01*
X135134952Y-97306000D01*
X135230190Y-97353619D01*
X135515904Y-97353619D01*
X135611142Y-97306000D01*
X135658761Y-97258380D01*
X135706380Y-97163142D01*
X135706380Y-96972666D01*
X135658761Y-96877428D01*
X135706380Y-97925047D02*
X135658761Y-97829809D01*
X135563523Y-97782190D01*
X134706380Y-97782190D01*
X135658761Y-98686952D02*
X135706380Y-98591714D01*
X135706380Y-98401238D01*
X135658761Y-98306000D01*
X135563523Y-98258380D01*
X135182571Y-98258380D01*
X135087333Y-98306000D01*
X135039714Y-98401238D01*
X135039714Y-98591714D01*
X135087333Y-98686952D01*
X135182571Y-98734571D01*
X135277809Y-98734571D01*
X135373047Y-98258380D01*
X135706380Y-99925047D02*
X134706380Y-99925047D01*
X135706380Y-100353619D02*
X135182571Y-100353619D01*
X135087333Y-100306000D01*
X135039714Y-100210761D01*
X135039714Y-100067904D01*
X135087333Y-99972666D01*
X135134952Y-99925047D01*
X135706380Y-101258380D02*
X135182571Y-101258380D01*
X135087333Y-101210761D01*
X135039714Y-101115523D01*
X135039714Y-100925047D01*
X135087333Y-100829809D01*
X135658761Y-101258380D02*
X135706380Y-101163142D01*
X135706380Y-100925047D01*
X135658761Y-100829809D01*
X135563523Y-100782190D01*
X135468285Y-100782190D01*
X135373047Y-100829809D01*
X135325428Y-100925047D01*
X135325428Y-101163142D01*
X135277809Y-101258380D01*
X135706380Y-101734571D02*
X135039714Y-101734571D01*
X135230190Y-101734571D02*
X135134952Y-101782190D01*
X135087333Y-101829809D01*
X135039714Y-101925047D01*
X135039714Y-102020285D01*
X135706380Y-102782190D02*
X134706380Y-102782190D01*
X135658761Y-102782190D02*
X135706380Y-102686952D01*
X135706380Y-102496476D01*
X135658761Y-102401238D01*
X135611142Y-102353619D01*
X135515904Y-102306000D01*
X135230190Y-102306000D01*
X135134952Y-102353619D01*
X135087333Y-102401238D01*
X135039714Y-102496476D01*
X135039714Y-102686952D01*
X135087333Y-102782190D01*
X135039714Y-103163142D02*
X135706380Y-103353619D01*
X135230190Y-103544095D01*
X135706380Y-103734571D01*
X135039714Y-103925047D01*
X135706380Y-104734571D02*
X135182571Y-104734571D01*
X135087333Y-104686952D01*
X135039714Y-104591714D01*
X135039714Y-104401238D01*
X135087333Y-104306000D01*
X135658761Y-104734571D02*
X135706380Y-104639333D01*
X135706380Y-104401238D01*
X135658761Y-104306000D01*
X135563523Y-104258380D01*
X135468285Y-104258380D01*
X135373047Y-104306000D01*
X135325428Y-104401238D01*
X135325428Y-104639333D01*
X135277809Y-104734571D01*
X135706380Y-105210761D02*
X135039714Y-105210761D01*
X135230190Y-105210761D02*
X135134952Y-105258380D01*
X135087333Y-105306000D01*
X135039714Y-105401238D01*
X135039714Y-105496476D01*
X135658761Y-106210761D02*
X135706380Y-106115523D01*
X135706380Y-105925047D01*
X135658761Y-105829809D01*
X135563523Y-105782190D01*
X135182571Y-105782190D01*
X135087333Y-105829809D01*
X135039714Y-105925047D01*
X135039714Y-106115523D01*
X135087333Y-106210761D01*
X135182571Y-106258380D01*
X135277809Y-106258380D01*
X135373047Y-105782190D01*
X135611142Y-106686952D02*
X135658761Y-106734571D01*
X135706380Y-106686952D01*
X135658761Y-106639333D01*
X135611142Y-106686952D01*
X135706380Y-106686952D01*
X146122380Y-93353619D02*
X145122380Y-93353619D01*
X145122380Y-93734571D01*
X145170000Y-93829809D01*
X145217619Y-93877428D01*
X145312857Y-93925047D01*
X145455714Y-93925047D01*
X145550952Y-93877428D01*
X145598571Y-93829809D01*
X145646190Y-93734571D01*
X145646190Y-93353619D01*
X146122380Y-94353619D02*
X145455714Y-94353619D01*
X145646190Y-94353619D02*
X145550952Y-94401238D01*
X145503333Y-94448857D01*
X145455714Y-94544095D01*
X145455714Y-94639333D01*
X146122380Y-95115523D02*
X146074761Y-95020285D01*
X146027142Y-94972666D01*
X145931904Y-94925047D01*
X145646190Y-94925047D01*
X145550952Y-94972666D01*
X145503333Y-95020285D01*
X145455714Y-95115523D01*
X145455714Y-95258380D01*
X145503333Y-95353619D01*
X145550952Y-95401238D01*
X145646190Y-95448857D01*
X145931904Y-95448857D01*
X146027142Y-95401238D01*
X146074761Y-95353619D01*
X146122380Y-95258380D01*
X146122380Y-95115523D01*
X145455714Y-96306000D02*
X146265238Y-96306000D01*
X146360476Y-96258380D01*
X146408095Y-96210761D01*
X146455714Y-96115523D01*
X146455714Y-95972666D01*
X146408095Y-95877428D01*
X146074761Y-96306000D02*
X146122380Y-96210761D01*
X146122380Y-96020285D01*
X146074761Y-95925047D01*
X146027142Y-95877428D01*
X145931904Y-95829809D01*
X145646190Y-95829809D01*
X145550952Y-95877428D01*
X145503333Y-95925047D01*
X145455714Y-96020285D01*
X145455714Y-96210761D01*
X145503333Y-96306000D01*
X146122380Y-96782190D02*
X145455714Y-96782190D01*
X145646190Y-96782190D02*
X145550952Y-96829809D01*
X145503333Y-96877428D01*
X145455714Y-96972666D01*
X145455714Y-97067904D01*
X146122380Y-97829809D02*
X145598571Y-97829809D01*
X145503333Y-97782190D01*
X145455714Y-97686952D01*
X145455714Y-97496476D01*
X145503333Y-97401238D01*
X146074761Y-97829809D02*
X146122380Y-97734571D01*
X146122380Y-97496476D01*
X146074761Y-97401238D01*
X145979523Y-97353619D01*
X145884285Y-97353619D01*
X145789047Y-97401238D01*
X145741428Y-97496476D01*
X145741428Y-97734571D01*
X145693809Y-97829809D01*
X146122380Y-98306000D02*
X145455714Y-98306000D01*
X145550952Y-98306000D02*
X145503333Y-98353619D01*
X145455714Y-98448857D01*
X145455714Y-98591714D01*
X145503333Y-98686952D01*
X145598571Y-98734571D01*
X146122380Y-98734571D01*
X145598571Y-98734571D02*
X145503333Y-98782190D01*
X145455714Y-98877428D01*
X145455714Y-99020285D01*
X145503333Y-99115523D01*
X145598571Y-99163142D01*
X146122380Y-99163142D01*
X145836666Y-100353619D02*
X145836666Y-100829809D01*
X146122380Y-100258380D02*
X145122380Y-100591714D01*
X146122380Y-100925047D01*
X145122380Y-101115523D02*
X145122380Y-101686952D01*
X146122380Y-101401238D02*
X145122380Y-101401238D01*
X145455714Y-101877428D02*
X145455714Y-102258380D01*
X145122380Y-102020285D02*
X145979523Y-102020285D01*
X146074761Y-102067904D01*
X146122380Y-102163142D01*
X146122380Y-102258380D01*
X146122380Y-102591714D02*
X145455714Y-102591714D01*
X145122380Y-102591714D02*
X145170000Y-102544095D01*
X145217619Y-102591714D01*
X145170000Y-102639333D01*
X145122380Y-102591714D01*
X145217619Y-102591714D01*
X145455714Y-103067904D02*
X146122380Y-103067904D01*
X145550952Y-103067904D02*
X145503333Y-103115523D01*
X145455714Y-103210761D01*
X145455714Y-103353619D01*
X145503333Y-103448857D01*
X145598571Y-103496476D01*
X146122380Y-103496476D01*
X145455714Y-103877428D02*
X146122380Y-104115523D01*
X145455714Y-104353619D02*
X146122380Y-104115523D01*
X146360476Y-104020285D01*
X146408095Y-103972666D01*
X146455714Y-103877428D01*
X147105714Y-91353619D02*
X147772380Y-91544095D01*
X147296190Y-91734571D01*
X147772380Y-91925047D01*
X147105714Y-92115523D01*
X147772380Y-92496476D02*
X147105714Y-92496476D01*
X146772380Y-92496476D02*
X146820000Y-92448857D01*
X146867619Y-92496476D01*
X146820000Y-92544095D01*
X146772380Y-92496476D01*
X146867619Y-92496476D01*
X147105714Y-92829809D02*
X147105714Y-93210761D01*
X146772380Y-92972666D02*
X147629523Y-92972666D01*
X147724761Y-93020285D01*
X147772380Y-93115523D01*
X147772380Y-93210761D01*
X147772380Y-93544095D02*
X146772380Y-93544095D01*
X147772380Y-93972666D02*
X147248571Y-93972666D01*
X147153333Y-93925047D01*
X147105714Y-93829809D01*
X147105714Y-93686952D01*
X147153333Y-93591714D01*
X147200952Y-93544095D01*
X147772380Y-95353619D02*
X147724761Y-95258380D01*
X147629523Y-95210761D01*
X146772380Y-95210761D01*
X147772380Y-96163142D02*
X147248571Y-96163142D01*
X147153333Y-96115523D01*
X147105714Y-96020285D01*
X147105714Y-95829809D01*
X147153333Y-95734571D01*
X147724761Y-96163142D02*
X147772380Y-96067904D01*
X147772380Y-95829809D01*
X147724761Y-95734571D01*
X147629523Y-95686952D01*
X147534285Y-95686952D01*
X147439047Y-95734571D01*
X147391428Y-95829809D01*
X147391428Y-96067904D01*
X147343809Y-96163142D01*
X147105714Y-96496476D02*
X147105714Y-96877428D01*
X146772380Y-96639333D02*
X147629523Y-96639333D01*
X147724761Y-96686952D01*
X147772380Y-96782190D01*
X147772380Y-96877428D01*
X147724761Y-97591714D02*
X147772380Y-97496476D01*
X147772380Y-97306000D01*
X147724761Y-97210761D01*
X147629523Y-97163142D01*
X147248571Y-97163142D01*
X147153333Y-97210761D01*
X147105714Y-97306000D01*
X147105714Y-97496476D01*
X147153333Y-97591714D01*
X147248571Y-97639333D01*
X147343809Y-97639333D01*
X147439047Y-97163142D01*
X147724761Y-98020285D02*
X147772380Y-98115523D01*
X147772380Y-98306000D01*
X147724761Y-98401238D01*
X147629523Y-98448857D01*
X147581904Y-98448857D01*
X147486666Y-98401238D01*
X147439047Y-98306000D01*
X147439047Y-98163142D01*
X147391428Y-98067904D01*
X147296190Y-98020285D01*
X147248571Y-98020285D01*
X147153333Y-98067904D01*
X147105714Y-98163142D01*
X147105714Y-98306000D01*
X147153333Y-98401238D01*
X147105714Y-98734571D02*
X147105714Y-99115523D01*
X146772380Y-98877428D02*
X147629523Y-98877428D01*
X147724761Y-98925047D01*
X147772380Y-99020285D01*
X147772380Y-99115523D01*
X147105714Y-100067904D02*
X147105714Y-100448857D01*
X147772380Y-100210761D02*
X146915238Y-100210761D01*
X146820000Y-100258380D01*
X146772380Y-100353619D01*
X146772380Y-100448857D01*
X147772380Y-100782190D02*
X147105714Y-100782190D01*
X146772380Y-100782190D02*
X146820000Y-100734571D01*
X146867619Y-100782190D01*
X146820000Y-100829809D01*
X146772380Y-100782190D01*
X146867619Y-100782190D01*
X147772380Y-101258380D02*
X147105714Y-101258380D01*
X147296190Y-101258380D02*
X147200952Y-101306000D01*
X147153333Y-101353619D01*
X147105714Y-101448857D01*
X147105714Y-101544095D01*
X147772380Y-101877428D02*
X147105714Y-101877428D01*
X147200952Y-101877428D02*
X147153333Y-101925047D01*
X147105714Y-102020285D01*
X147105714Y-102163142D01*
X147153333Y-102258380D01*
X147248571Y-102306000D01*
X147772380Y-102306000D01*
X147248571Y-102306000D02*
X147153333Y-102353619D01*
X147105714Y-102448857D01*
X147105714Y-102591714D01*
X147153333Y-102686952D01*
X147248571Y-102734571D01*
X147772380Y-102734571D01*
X147105714Y-103115523D02*
X147772380Y-103306000D01*
X147296190Y-103496476D01*
X147772380Y-103686952D01*
X147105714Y-103877428D01*
X147772380Y-104686952D02*
X147248571Y-104686952D01*
X147153333Y-104639333D01*
X147105714Y-104544095D01*
X147105714Y-104353619D01*
X147153333Y-104258380D01*
X147724761Y-104686952D02*
X147772380Y-104591714D01*
X147772380Y-104353619D01*
X147724761Y-104258380D01*
X147629523Y-104210761D01*
X147534285Y-104210761D01*
X147439047Y-104258380D01*
X147391428Y-104353619D01*
X147391428Y-104591714D01*
X147343809Y-104686952D01*
X147772380Y-105163142D02*
X147105714Y-105163142D01*
X147296190Y-105163142D02*
X147200952Y-105210761D01*
X147153333Y-105258380D01*
X147105714Y-105353619D01*
X147105714Y-105448857D01*
X147724761Y-106163142D02*
X147772380Y-106067904D01*
X147772380Y-105877428D01*
X147724761Y-105782190D01*
X147629523Y-105734571D01*
X147248571Y-105734571D01*
X147153333Y-105782190D01*
X147105714Y-105877428D01*
X147105714Y-106067904D01*
X147153333Y-106163142D01*
X147248571Y-106210761D01*
X147343809Y-106210761D01*
X147439047Y-105734571D01*
X148755714Y-91139333D02*
X149422380Y-91377428D01*
X148755714Y-91615523D01*
X149422380Y-91996476D02*
X148755714Y-91996476D01*
X148422380Y-91996476D02*
X148470000Y-91948857D01*
X148517619Y-91996476D01*
X148470000Y-92044095D01*
X148422380Y-91996476D01*
X148517619Y-91996476D01*
X149422380Y-92901238D02*
X148898571Y-92901238D01*
X148803333Y-92853619D01*
X148755714Y-92758380D01*
X148755714Y-92567904D01*
X148803333Y-92472666D01*
X149374761Y-92901238D02*
X149422380Y-92806000D01*
X149422380Y-92567904D01*
X149374761Y-92472666D01*
X149279523Y-92425047D01*
X149184285Y-92425047D01*
X149089047Y-92472666D01*
X149041428Y-92567904D01*
X149041428Y-92806000D01*
X148993809Y-92901238D01*
X149422380Y-94139333D02*
X148422380Y-94139333D01*
X149327142Y-95186952D02*
X149374761Y-95139333D01*
X149422380Y-94996476D01*
X149422380Y-94901238D01*
X149374761Y-94758380D01*
X149279523Y-94663142D01*
X149184285Y-94615523D01*
X148993809Y-94567904D01*
X148850952Y-94567904D01*
X148660476Y-94615523D01*
X148565238Y-94663142D01*
X148470000Y-94758380D01*
X148422380Y-94901238D01*
X148422380Y-94996476D01*
X148470000Y-95139333D01*
X148517619Y-95186952D01*
X149374761Y-95567904D02*
X149422380Y-95710761D01*
X149422380Y-95948857D01*
X149374761Y-96044095D01*
X149327142Y-96091714D01*
X149231904Y-96139333D01*
X149136666Y-96139333D01*
X149041428Y-96091714D01*
X148993809Y-96044095D01*
X148946190Y-95948857D01*
X148898571Y-95758380D01*
X148850952Y-95663142D01*
X148803333Y-95615523D01*
X148708095Y-95567904D01*
X148612857Y-95567904D01*
X148517619Y-95615523D01*
X148470000Y-95663142D01*
X148422380Y-95758380D01*
X148422380Y-95996476D01*
X148470000Y-96139333D01*
X149422380Y-96567904D02*
X148422380Y-96567904D01*
X148422380Y-96948857D01*
X148470000Y-97044095D01*
X148517619Y-97091714D01*
X148612857Y-97139333D01*
X148755714Y-97139333D01*
X148850952Y-97091714D01*
X148898571Y-97044095D01*
X148946190Y-96948857D01*
X148946190Y-96567904D01*
X149422380Y-98329809D02*
X148422380Y-98329809D01*
X148803333Y-98329809D02*
X148755714Y-98425047D01*
X148755714Y-98615523D01*
X148803333Y-98710761D01*
X148850952Y-98758380D01*
X148946190Y-98806000D01*
X149231904Y-98806000D01*
X149327142Y-98758380D01*
X149374761Y-98710761D01*
X149422380Y-98615523D01*
X149422380Y-98425047D01*
X149374761Y-98329809D01*
X149374761Y-99615523D02*
X149422380Y-99520285D01*
X149422380Y-99329809D01*
X149374761Y-99234571D01*
X149279523Y-99186952D01*
X148898571Y-99186952D01*
X148803333Y-99234571D01*
X148755714Y-99329809D01*
X148755714Y-99520285D01*
X148803333Y-99615523D01*
X148898571Y-99663142D01*
X148993809Y-99663142D01*
X149089047Y-99186952D01*
X148755714Y-99948857D02*
X148755714Y-100329809D01*
X149422380Y-100091714D02*
X148565238Y-100091714D01*
X148470000Y-100139333D01*
X148422380Y-100234571D01*
X148422380Y-100329809D01*
X149422380Y-100806000D02*
X149374761Y-100710761D01*
X149327142Y-100663142D01*
X149231904Y-100615523D01*
X148946190Y-100615523D01*
X148850952Y-100663142D01*
X148803333Y-100710761D01*
X148755714Y-100806000D01*
X148755714Y-100948857D01*
X148803333Y-101044095D01*
X148850952Y-101091714D01*
X148946190Y-101139333D01*
X149231904Y-101139333D01*
X149327142Y-101091714D01*
X149374761Y-101044095D01*
X149422380Y-100948857D01*
X149422380Y-100806000D01*
X149422380Y-101567904D02*
X148755714Y-101567904D01*
X148946190Y-101567904D02*
X148850952Y-101615523D01*
X148803333Y-101663142D01*
X148755714Y-101758380D01*
X148755714Y-101853619D01*
X149374761Y-102567904D02*
X149422380Y-102472666D01*
X149422380Y-102282190D01*
X149374761Y-102186952D01*
X149279523Y-102139333D01*
X148898571Y-102139333D01*
X148803333Y-102186952D01*
X148755714Y-102282190D01*
X148755714Y-102472666D01*
X148803333Y-102567904D01*
X148898571Y-102615523D01*
X148993809Y-102615523D01*
X149089047Y-102139333D01*
X148755714Y-104234571D02*
X149422380Y-104234571D01*
X148755714Y-103806000D02*
X149279523Y-103806000D01*
X149374761Y-103853619D01*
X149422380Y-103948857D01*
X149422380Y-104091714D01*
X149374761Y-104186952D01*
X149327142Y-104234571D01*
X149374761Y-104663142D02*
X149422380Y-104758380D01*
X149422380Y-104948857D01*
X149374761Y-105044095D01*
X149279523Y-105091714D01*
X149231904Y-105091714D01*
X149136666Y-105044095D01*
X149089047Y-104948857D01*
X149089047Y-104806000D01*
X149041428Y-104710761D01*
X148946190Y-104663142D01*
X148898571Y-104663142D01*
X148803333Y-104710761D01*
X148755714Y-104806000D01*
X148755714Y-104948857D01*
X148803333Y-105044095D01*
X149374761Y-105901238D02*
X149422380Y-105806000D01*
X149422380Y-105615523D01*
X149374761Y-105520285D01*
X149279523Y-105472666D01*
X148898571Y-105472666D01*
X148803333Y-105520285D01*
X148755714Y-105615523D01*
X148755714Y-105806000D01*
X148803333Y-105901238D01*
X148898571Y-105948857D01*
X148993809Y-105948857D01*
X149089047Y-105472666D01*
X149327142Y-106377428D02*
X149374761Y-106425047D01*
X149422380Y-106377428D01*
X149374761Y-106329809D01*
X149327142Y-106377428D01*
X149422380Y-106377428D01*
D11*
X120641619Y-94796142D02*
X120689238Y-94843761D01*
X120832095Y-94891380D01*
X120927333Y-94891380D01*
X121070190Y-94843761D01*
X121165428Y-94748523D01*
X121213047Y-94653285D01*
X121260666Y-94462809D01*
X121260666Y-94319952D01*
X121213047Y-94129476D01*
X121165428Y-94034238D01*
X121070190Y-93939000D01*
X120927333Y-93891380D01*
X120832095Y-93891380D01*
X120689238Y-93939000D01*
X120641619Y-93986619D01*
X120213047Y-94891380D02*
X120213047Y-94224714D01*
X120213047Y-94415190D02*
X120165428Y-94319952D01*
X120117809Y-94272333D01*
X120022571Y-94224714D01*
X119927333Y-94224714D01*
X119213047Y-94843761D02*
X119308285Y-94891380D01*
X119498761Y-94891380D01*
X119594000Y-94843761D01*
X119641619Y-94748523D01*
X119641619Y-94367571D01*
X119594000Y-94272333D01*
X119498761Y-94224714D01*
X119308285Y-94224714D01*
X119213047Y-94272333D01*
X119165428Y-94367571D01*
X119165428Y-94462809D01*
X119641619Y-94558047D01*
X118308285Y-94891380D02*
X118308285Y-94367571D01*
X118355904Y-94272333D01*
X118451142Y-94224714D01*
X118641619Y-94224714D01*
X118736857Y-94272333D01*
X118308285Y-94843761D02*
X118403523Y-94891380D01*
X118641619Y-94891380D01*
X118736857Y-94843761D01*
X118784476Y-94748523D01*
X118784476Y-94653285D01*
X118736857Y-94558047D01*
X118641619Y-94510428D01*
X118403523Y-94510428D01*
X118308285Y-94462809D01*
X117974952Y-94224714D02*
X117594000Y-94224714D01*
X117832095Y-93891380D02*
X117832095Y-94748523D01*
X117784476Y-94843761D01*
X117689238Y-94891380D01*
X117594000Y-94891380D01*
X116879714Y-94843761D02*
X116974952Y-94891380D01*
X117165428Y-94891380D01*
X117260666Y-94843761D01*
X117308285Y-94748523D01*
X117308285Y-94367571D01*
X117260666Y-94272333D01*
X117165428Y-94224714D01*
X116974952Y-94224714D01*
X116879714Y-94272333D01*
X116832095Y-94367571D01*
X116832095Y-94462809D01*
X117308285Y-94558047D01*
X115974952Y-94891380D02*
X115974952Y-93891380D01*
X115974952Y-94843761D02*
X116070190Y-94891380D01*
X116260666Y-94891380D01*
X116355904Y-94843761D01*
X116403523Y-94796142D01*
X116451142Y-94700904D01*
X116451142Y-94415190D01*
X116403523Y-94319952D01*
X116355904Y-94272333D01*
X116260666Y-94224714D01*
X116070190Y-94224714D01*
X115974952Y-94272333D01*
X114403523Y-94367571D02*
X114260666Y-94415190D01*
X114213047Y-94462809D01*
X114165428Y-94558047D01*
X114165428Y-94700904D01*
X114213047Y-94796142D01*
X114260666Y-94843761D01*
X114355904Y-94891380D01*
X114736857Y-94891380D01*
X114736857Y-93891380D01*
X114403523Y-93891380D01*
X114308285Y-93939000D01*
X114260666Y-93986619D01*
X114213047Y-94081857D01*
X114213047Y-94177095D01*
X114260666Y-94272333D01*
X114308285Y-94319952D01*
X114403523Y-94367571D01*
X114736857Y-94367571D01*
X113832095Y-94224714D02*
X113594000Y-94891380D01*
X113355904Y-94224714D02*
X113594000Y-94891380D01*
X113689238Y-95129476D01*
X113736857Y-95177095D01*
X113832095Y-95224714D01*
X112974952Y-94796142D02*
X112927333Y-94843761D01*
X112974952Y-94891380D01*
X113022571Y-94843761D01*
X112974952Y-94796142D01*
X112974952Y-94891380D01*
X112974952Y-94272333D02*
X112927333Y-94319952D01*
X112974952Y-94367571D01*
X113022571Y-94319952D01*
X112974952Y-94272333D01*
X112974952Y-94367571D01*
X124427333Y-96591380D02*
X124427333Y-95591380D01*
X124189238Y-95591380D01*
X124046380Y-95639000D01*
X123951142Y-95734238D01*
X123903523Y-95829476D01*
X123855904Y-96019952D01*
X123855904Y-96162809D01*
X123903523Y-96353285D01*
X123951142Y-96448523D01*
X124046380Y-96543761D01*
X124189238Y-96591380D01*
X124427333Y-96591380D01*
X122094000Y-96496142D02*
X122141619Y-96543761D01*
X122284476Y-96591380D01*
X122379714Y-96591380D01*
X122522571Y-96543761D01*
X122617809Y-96448523D01*
X122665428Y-96353285D01*
X122713047Y-96162809D01*
X122713047Y-96019952D01*
X122665428Y-95829476D01*
X122617809Y-95734238D01*
X122522571Y-95639000D01*
X122379714Y-95591380D01*
X122284476Y-95591380D01*
X122141619Y-95639000D01*
X122094000Y-95686619D01*
X121522571Y-96591380D02*
X121617809Y-96543761D01*
X121665428Y-96496142D01*
X121713047Y-96400904D01*
X121713047Y-96115190D01*
X121665428Y-96019952D01*
X121617809Y-95972333D01*
X121522571Y-95924714D01*
X121379714Y-95924714D01*
X121284476Y-95972333D01*
X121236857Y-96019952D01*
X121189238Y-96115190D01*
X121189238Y-96400904D01*
X121236857Y-96496142D01*
X121284476Y-96543761D01*
X121379714Y-96591380D01*
X121522571Y-96591380D01*
X120617809Y-96591380D02*
X120713047Y-96543761D01*
X120760666Y-96496142D01*
X120808285Y-96400904D01*
X120808285Y-96115190D01*
X120760666Y-96019952D01*
X120713047Y-95972333D01*
X120617809Y-95924714D01*
X120474952Y-95924714D01*
X120379714Y-95972333D01*
X120332095Y-96019952D01*
X120284476Y-96115190D01*
X120284476Y-96400904D01*
X120332095Y-96496142D01*
X120379714Y-96543761D01*
X120474952Y-96591380D01*
X120617809Y-96591380D01*
X119855904Y-95924714D02*
X119855904Y-96924714D01*
X119855904Y-95972333D02*
X119760666Y-95924714D01*
X119570190Y-95924714D01*
X119474952Y-95972333D01*
X119427333Y-96019952D01*
X119379714Y-96115190D01*
X119379714Y-96400904D01*
X119427333Y-96496142D01*
X119474952Y-96543761D01*
X119570190Y-96591380D01*
X119760666Y-96591380D01*
X119855904Y-96543761D01*
X118570190Y-96543761D02*
X118665428Y-96591380D01*
X118855904Y-96591380D01*
X118951142Y-96543761D01*
X118998761Y-96448523D01*
X118998761Y-96067571D01*
X118951142Y-95972333D01*
X118855904Y-95924714D01*
X118665428Y-95924714D01*
X118570190Y-95972333D01*
X118522571Y-96067571D01*
X118522571Y-96162809D01*
X118998761Y-96258047D01*
X118094000Y-96591380D02*
X118094000Y-95924714D01*
X118094000Y-96115190D02*
X118046380Y-96019952D01*
X117998761Y-95972333D01*
X117903523Y-95924714D01*
X117808285Y-95924714D01*
X116713047Y-96591380D02*
X116713047Y-95591380D01*
X116474952Y-95591380D01*
X116332095Y-95639000D01*
X116236857Y-95734238D01*
X116189238Y-95829476D01*
X116141619Y-96019952D01*
X116141619Y-96162809D01*
X116189238Y-96353285D01*
X116236857Y-96448523D01*
X116332095Y-96543761D01*
X116474952Y-96591380D01*
X116713047Y-96591380D01*
X115284476Y-96591380D02*
X115284476Y-96067571D01*
X115332095Y-95972333D01*
X115427333Y-95924714D01*
X115617809Y-95924714D01*
X115713047Y-95972333D01*
X115284476Y-96543761D02*
X115379714Y-96591380D01*
X115617809Y-96591380D01*
X115713047Y-96543761D01*
X115760666Y-96448523D01*
X115760666Y-96353285D01*
X115713047Y-96258047D01*
X115617809Y-96210428D01*
X115379714Y-96210428D01*
X115284476Y-96162809D01*
X114665428Y-96591380D02*
X114760666Y-96543761D01*
X114808285Y-96448523D01*
X114808285Y-95591380D01*
X114284476Y-96591380D02*
X114284476Y-95924714D01*
X114284476Y-96115190D02*
X114236857Y-96019952D01*
X114189238Y-95972333D01*
X114094000Y-95924714D01*
X113998761Y-95924714D01*
X113760666Y-95924714D02*
X113522571Y-96591380D01*
X113284476Y-95924714D02*
X113522571Y-96591380D01*
X113617809Y-96829476D01*
X113665428Y-96877095D01*
X113760666Y-96924714D01*
X112903523Y-96591380D02*
X112903523Y-95924714D01*
X112903523Y-96019952D02*
X112855904Y-95972333D01*
X112760666Y-95924714D01*
X112617809Y-95924714D01*
X112522571Y-95972333D01*
X112474952Y-96067571D01*
X112474952Y-96591380D01*
X112474952Y-96067571D02*
X112427333Y-95972333D01*
X112332095Y-95924714D01*
X112189238Y-95924714D01*
X112094000Y-95972333D01*
X112046380Y-96067571D01*
X112046380Y-96591380D01*
X111570190Y-95924714D02*
X111570190Y-96924714D01*
X111570190Y-95972333D02*
X111474952Y-95924714D01*
X111284476Y-95924714D01*
X111189238Y-95972333D01*
X111141619Y-96019952D01*
X111094000Y-96115190D01*
X111094000Y-96400904D01*
X111141619Y-96496142D01*
X111189238Y-96543761D01*
X111284476Y-96591380D01*
X111474952Y-96591380D01*
X111570190Y-96543761D01*
X110522571Y-96591380D02*
X110617809Y-96543761D01*
X110665428Y-96448523D01*
X110665428Y-95591380D01*
X109760666Y-96543761D02*
X109855904Y-96591380D01*
X110046380Y-96591380D01*
X110141619Y-96543761D01*
X110189238Y-96448523D01*
X110189238Y-96067571D01*
X110141619Y-95972333D01*
X110046380Y-95924714D01*
X109855904Y-95924714D01*
X109760666Y-95972333D01*
X109713047Y-96067571D01*
X109713047Y-96162809D01*
X110189238Y-96258047D01*
X125522571Y-97386619D02*
X125474952Y-97339000D01*
X125379714Y-97291380D01*
X125141619Y-97291380D01*
X125046380Y-97339000D01*
X124998761Y-97386619D01*
X124951142Y-97481857D01*
X124951142Y-97577095D01*
X124998761Y-97719952D01*
X125570190Y-98291380D01*
X124951142Y-98291380D01*
X124332095Y-97291380D02*
X124236857Y-97291380D01*
X124141619Y-97339000D01*
X124094000Y-97386619D01*
X124046380Y-97481857D01*
X123998761Y-97672333D01*
X123998761Y-97910428D01*
X124046380Y-98100904D01*
X124094000Y-98196142D01*
X124141619Y-98243761D01*
X124236857Y-98291380D01*
X124332095Y-98291380D01*
X124427333Y-98243761D01*
X124474952Y-98196142D01*
X124522571Y-98100904D01*
X124570190Y-97910428D01*
X124570190Y-97672333D01*
X124522571Y-97481857D01*
X124474952Y-97386619D01*
X124427333Y-97339000D01*
X124332095Y-97291380D01*
X123617809Y-97386619D02*
X123570190Y-97339000D01*
X123474952Y-97291380D01*
X123236857Y-97291380D01*
X123141619Y-97339000D01*
X123094000Y-97386619D01*
X123046380Y-97481857D01*
X123046380Y-97577095D01*
X123094000Y-97719952D01*
X123665428Y-98291380D01*
X123046380Y-98291380D01*
X122094000Y-98291380D02*
X122665428Y-98291380D01*
X122379714Y-98291380D02*
X122379714Y-97291380D01*
X122474952Y-97434238D01*
X122570190Y-97529476D01*
X122665428Y-97577095D01*
X120474952Y-98291380D02*
X120474952Y-97291380D01*
X120474952Y-98243761D02*
X120570190Y-98291380D01*
X120760666Y-98291380D01*
X120855904Y-98243761D01*
X120903523Y-98196142D01*
X120951142Y-98100904D01*
X120951142Y-97815190D01*
X120903523Y-97719952D01*
X120855904Y-97672333D01*
X120760666Y-97624714D01*
X120570190Y-97624714D01*
X120474952Y-97672333D01*
X119570190Y-98243761D02*
X119665428Y-98291380D01*
X119855904Y-98291380D01*
X119951142Y-98243761D01*
X119998761Y-98196142D01*
X120046380Y-98100904D01*
X120046380Y-97815190D01*
X119998761Y-97719952D01*
X119951142Y-97672333D01*
X119855904Y-97624714D01*
X119665428Y-97624714D01*
X119570190Y-97672333D01*
X118713047Y-98291380D02*
X118713047Y-97291380D01*
X118713047Y-98243761D02*
X118808285Y-98291380D01*
X118998761Y-98291380D01*
X119094000Y-98243761D01*
X119141619Y-98196142D01*
X119189238Y-98100904D01*
X119189238Y-97815190D01*
X119141619Y-97719952D01*
X119094000Y-97672333D01*
X118998761Y-97624714D01*
X118808285Y-97624714D01*
X118713047Y-97672333D01*
X117808285Y-98291380D02*
X117808285Y-97767571D01*
X117855904Y-97672333D01*
X117951142Y-97624714D01*
X118141619Y-97624714D01*
X118236857Y-97672333D01*
X117808285Y-98243761D02*
X117903523Y-98291380D01*
X118141619Y-98291380D01*
X118236857Y-98243761D01*
X118284476Y-98148523D01*
X118284476Y-98053285D01*
X118236857Y-97958047D01*
X118141619Y-97910428D01*
X117903523Y-97910428D01*
X117808285Y-97862809D01*
X117189238Y-98291380D02*
X117284476Y-98243761D01*
X117332095Y-98148523D01*
X117332095Y-97291380D01*
X116808285Y-98291380D02*
X116808285Y-97624714D01*
X116808285Y-97815190D02*
X116760666Y-97719952D01*
X116713047Y-97672333D01*
X116617809Y-97624714D01*
X116522571Y-97624714D01*
X116284476Y-97624714D02*
X116046380Y-98291380D01*
X115808285Y-97624714D02*
X116046380Y-98291380D01*
X116141619Y-98529476D01*
X116189238Y-98577095D01*
X116284476Y-98624714D01*
X115427333Y-98291380D02*
X115427333Y-97624714D01*
X115427333Y-97719952D02*
X115379714Y-97672333D01*
X115284476Y-97624714D01*
X115141619Y-97624714D01*
X115046380Y-97672333D01*
X114998761Y-97767571D01*
X114998761Y-98291380D01*
X114998761Y-97767571D02*
X114951142Y-97672333D01*
X114855904Y-97624714D01*
X114713047Y-97624714D01*
X114617809Y-97672333D01*
X114570190Y-97767571D01*
X114570190Y-98291380D01*
X114094000Y-97624714D02*
X114094000Y-98624714D01*
X114094000Y-97672333D02*
X113998761Y-97624714D01*
X113808285Y-97624714D01*
X113713047Y-97672333D01*
X113665428Y-97719952D01*
X113617809Y-97815190D01*
X113617809Y-98100904D01*
X113665428Y-98196142D01*
X113713047Y-98243761D01*
X113808285Y-98291380D01*
X113998761Y-98291380D01*
X114094000Y-98243761D01*
X113046380Y-98291380D02*
X113141619Y-98243761D01*
X113189238Y-98148523D01*
X113189238Y-97291380D01*
X112284476Y-98243761D02*
X112379714Y-98291380D01*
X112570190Y-98291380D01*
X112665428Y-98243761D01*
X112713047Y-98148523D01*
X112713047Y-97767571D01*
X112665428Y-97672333D01*
X112570190Y-97624714D01*
X112379714Y-97624714D01*
X112284476Y-97672333D01*
X112236857Y-97767571D01*
X112236857Y-97862809D01*
X112713047Y-97958047D01*
X111808285Y-98196142D02*
X111760666Y-98243761D01*
X111808285Y-98291380D01*
X111855904Y-98243761D01*
X111808285Y-98196142D01*
X111808285Y-98291380D01*
X110903523Y-98243761D02*
X110998761Y-98291380D01*
X111189238Y-98291380D01*
X111284476Y-98243761D01*
X111332095Y-98196142D01*
X111379714Y-98100904D01*
X111379714Y-97815190D01*
X111332095Y-97719952D01*
X111284476Y-97672333D01*
X111189238Y-97624714D01*
X110998761Y-97624714D01*
X110903523Y-97672333D01*
X110332095Y-98291380D02*
X110427333Y-98243761D01*
X110474952Y-98196142D01*
X110522571Y-98100904D01*
X110522571Y-97815190D01*
X110474952Y-97719952D01*
X110427333Y-97672333D01*
X110332095Y-97624714D01*
X110189238Y-97624714D01*
X110094000Y-97672333D01*
X110046380Y-97719952D01*
X109998761Y-97815190D01*
X109998761Y-98100904D01*
X110046380Y-98196142D01*
X110094000Y-98243761D01*
X110189238Y-98291380D01*
X110332095Y-98291380D01*
X109570190Y-98291380D02*
X109570190Y-97624714D01*
X109570190Y-97719952D02*
X109522571Y-97672333D01*
X109427333Y-97624714D01*
X109284476Y-97624714D01*
X109189238Y-97672333D01*
X109141619Y-97767571D01*
X109141619Y-98291380D01*
X109141619Y-97767571D02*
X109094000Y-97672333D01*
X108998761Y-97624714D01*
X108855904Y-97624714D01*
X108760666Y-97672333D01*
X108713047Y-97767571D01*
X108713047Y-98291380D01*
D12*
X126238000Y-93345000D02*
X108204000Y-93345000D01*
X126238000Y-98933000D02*
X126238000Y-93345000D01*
X108204000Y-98933000D02*
X126238000Y-98933000D01*
X108204000Y-93345000D02*
X108204000Y-98933000D01*
D11*
X139419238Y-115598238D02*
X139262095Y-115650619D01*
X139000190Y-115650619D01*
X138895428Y-115598238D01*
X138843047Y-115545857D01*
X138790666Y-115441095D01*
X138790666Y-115336333D01*
X138843047Y-115231571D01*
X138895428Y-115179190D01*
X139000190Y-115126809D01*
X139209714Y-115074428D01*
X139314476Y-115022047D01*
X139366857Y-114969666D01*
X139419238Y-114864904D01*
X139419238Y-114760142D01*
X139366857Y-114655380D01*
X139314476Y-114603000D01*
X139209714Y-114550619D01*
X138947809Y-114550619D01*
X138790666Y-114603000D01*
X138162095Y-115650619D02*
X138266857Y-115598238D01*
X138319238Y-115545857D01*
X138371619Y-115441095D01*
X138371619Y-115126809D01*
X138319238Y-115022047D01*
X138266857Y-114969666D01*
X138162095Y-114917285D01*
X138004952Y-114917285D01*
X137900190Y-114969666D01*
X137847809Y-115022047D01*
X137795428Y-115126809D01*
X137795428Y-115441095D01*
X137847809Y-115545857D01*
X137900190Y-115598238D01*
X138004952Y-115650619D01*
X138162095Y-115650619D01*
X137481142Y-114917285D02*
X137062095Y-114917285D01*
X137324000Y-115650619D02*
X137324000Y-114707761D01*
X137271619Y-114603000D01*
X137166857Y-114550619D01*
X137062095Y-114550619D01*
X136852571Y-114917285D02*
X136433523Y-114917285D01*
X136695428Y-114550619D02*
X136695428Y-115493476D01*
X136643047Y-115598238D01*
X136538285Y-115650619D01*
X136433523Y-115650619D01*
X136171619Y-114917285D02*
X135962095Y-115650619D01*
X135752571Y-115126809D01*
X135543047Y-115650619D01*
X135333523Y-114917285D01*
X134443047Y-115650619D02*
X134443047Y-115074428D01*
X134495428Y-114969666D01*
X134600190Y-114917285D01*
X134809714Y-114917285D01*
X134914476Y-114969666D01*
X134443047Y-115598238D02*
X134547809Y-115650619D01*
X134809714Y-115650619D01*
X134914476Y-115598238D01*
X134966857Y-115493476D01*
X134966857Y-115388714D01*
X134914476Y-115283952D01*
X134809714Y-115231571D01*
X134547809Y-115231571D01*
X134443047Y-115179190D01*
X133919238Y-115650619D02*
X133919238Y-114917285D01*
X133919238Y-115126809D02*
X133866857Y-115022047D01*
X133814476Y-114969666D01*
X133709714Y-114917285D01*
X133604952Y-114917285D01*
X132819238Y-115598238D02*
X132924000Y-115650619D01*
X133133523Y-115650619D01*
X133238285Y-115598238D01*
X133290666Y-115493476D01*
X133290666Y-115074428D01*
X133238285Y-114969666D01*
X133133523Y-114917285D01*
X132924000Y-114917285D01*
X132819238Y-114969666D01*
X132766857Y-115074428D01*
X132766857Y-115179190D01*
X133290666Y-115283952D01*
X130566857Y-115650619D02*
X130619238Y-115650619D01*
X130723999Y-115598238D01*
X130881142Y-115441095D01*
X131143047Y-115126809D01*
X131247809Y-114969666D01*
X131300190Y-114812523D01*
X131300190Y-114707761D01*
X131247809Y-114603000D01*
X131143047Y-114550619D01*
X131090666Y-114550619D01*
X130985904Y-114603000D01*
X130933523Y-114707761D01*
X130933523Y-114760142D01*
X130985904Y-114864904D01*
X131038285Y-114917285D01*
X131352571Y-115126809D01*
X131404952Y-115179190D01*
X131457333Y-115283952D01*
X131457333Y-115441095D01*
X131404952Y-115545857D01*
X131352571Y-115598238D01*
X131247809Y-115650619D01*
X131090666Y-115650619D01*
X130985904Y-115598238D01*
X130933523Y-115545857D01*
X130776380Y-115336333D01*
X130723999Y-115179190D01*
X130723999Y-115074428D01*
X129257333Y-115650619D02*
X129257333Y-114550619D01*
X129257333Y-115074428D02*
X128628761Y-115074428D01*
X128628761Y-115650619D02*
X128628761Y-114550619D01*
X127633523Y-115650619D02*
X127633523Y-115074428D01*
X127685904Y-114969666D01*
X127790666Y-114917285D01*
X128000190Y-114917285D01*
X128104952Y-114969666D01*
X127633523Y-115598238D02*
X127738285Y-115650619D01*
X128000190Y-115650619D01*
X128104952Y-115598238D01*
X128157333Y-115493476D01*
X128157333Y-115388714D01*
X128104952Y-115283952D01*
X128000190Y-115231571D01*
X127738285Y-115231571D01*
X127633523Y-115179190D01*
X127109714Y-115650619D02*
X127109714Y-114917285D01*
X127109714Y-115126809D02*
X127057333Y-115022047D01*
X127004952Y-114969666D01*
X126900190Y-114917285D01*
X126795428Y-114917285D01*
X125957333Y-115650619D02*
X125957333Y-114550619D01*
X125957333Y-115598238D02*
X126062095Y-115650619D01*
X126271619Y-115650619D01*
X126376380Y-115598238D01*
X126428761Y-115545857D01*
X126481142Y-115441095D01*
X126481142Y-115126809D01*
X126428761Y-115022047D01*
X126376380Y-114969666D01*
X126271619Y-114917285D01*
X126062095Y-114917285D01*
X125957333Y-114969666D01*
X125538285Y-114917285D02*
X125328761Y-115650619D01*
X125119238Y-115126809D01*
X124909714Y-115650619D01*
X124700190Y-114917285D01*
X123809714Y-115650619D02*
X123809714Y-115074428D01*
X123862095Y-114969666D01*
X123966857Y-114917285D01*
X124176380Y-114917285D01*
X124281142Y-114969666D01*
X123809714Y-115598238D02*
X123914476Y-115650619D01*
X124176380Y-115650619D01*
X124281142Y-115598238D01*
X124333523Y-115493476D01*
X124333523Y-115388714D01*
X124281142Y-115283952D01*
X124176380Y-115231571D01*
X123914476Y-115231571D01*
X123809714Y-115179190D01*
X123285904Y-115650619D02*
X123285904Y-114917285D01*
X123285904Y-115126809D02*
X123233523Y-115022047D01*
X123181142Y-114969666D01*
X123076380Y-114917285D01*
X122971619Y-114917285D01*
X122185904Y-115598238D02*
X122290666Y-115650619D01*
X122500190Y-115650619D01*
X122604952Y-115598238D01*
X122657333Y-115493476D01*
X122657333Y-115074428D01*
X122604952Y-114969666D01*
X122500190Y-114917285D01*
X122290666Y-114917285D01*
X122185904Y-114969666D01*
X122133523Y-115074428D01*
X122133523Y-115179190D01*
X122657333Y-115283952D01*
X120824000Y-115650619D02*
X120824000Y-114550619D01*
X120300190Y-114917285D02*
X120300190Y-115650619D01*
X120300190Y-115022047D02*
X120247809Y-114969666D01*
X120143047Y-114917285D01*
X119985904Y-114917285D01*
X119881142Y-114969666D01*
X119828761Y-115074428D01*
X119828761Y-115650619D01*
X119462095Y-114917285D02*
X119043047Y-114917285D01*
X119304952Y-115650619D02*
X119304952Y-114707761D01*
X119252571Y-114603000D01*
X119147809Y-114550619D01*
X119043047Y-114550619D01*
X118519238Y-115650619D02*
X118624000Y-115598238D01*
X118676380Y-115545857D01*
X118728761Y-115441095D01*
X118728761Y-115126809D01*
X118676380Y-115022047D01*
X118624000Y-114969666D01*
X118519238Y-114917285D01*
X118362095Y-114917285D01*
X118257333Y-114969666D01*
X118204952Y-115022047D01*
X118152571Y-115126809D01*
X118152571Y-115441095D01*
X118204952Y-115545857D01*
X118257333Y-115598238D01*
X118362095Y-115650619D01*
X118519238Y-115650619D01*
X117681142Y-115545857D02*
X117628761Y-115598238D01*
X117681142Y-115650619D01*
X117733523Y-115598238D01*
X117681142Y-115545857D01*
X117681142Y-115650619D01*
X117681142Y-114969666D02*
X117628761Y-115022047D01*
X117681142Y-115074428D01*
X117733523Y-115022047D01*
X117681142Y-114969666D01*
X117681142Y-115074428D01*
X142116857Y-117500619D02*
X142116857Y-116400619D01*
X142116857Y-117448238D02*
X142221619Y-117500619D01*
X142431142Y-117500619D01*
X142535904Y-117448238D01*
X142588285Y-117395857D01*
X142640666Y-117291095D01*
X142640666Y-116976809D01*
X142588285Y-116872047D01*
X142535904Y-116819666D01*
X142431142Y-116767285D01*
X142221619Y-116767285D01*
X142116857Y-116819666D01*
X141121619Y-117448238D02*
X141226380Y-117500619D01*
X141435904Y-117500619D01*
X141540666Y-117448238D01*
X141593047Y-117395857D01*
X141645428Y-117291095D01*
X141645428Y-116976809D01*
X141593047Y-116872047D01*
X141540666Y-116819666D01*
X141435904Y-116767285D01*
X141226380Y-116767285D01*
X141121619Y-116819666D01*
X140178761Y-117500619D02*
X140178761Y-116400619D01*
X140178761Y-117448238D02*
X140283523Y-117500619D01*
X140493047Y-117500619D01*
X140597809Y-117448238D01*
X140650190Y-117395857D01*
X140702571Y-117291095D01*
X140702571Y-116976809D01*
X140650190Y-116872047D01*
X140597809Y-116819666D01*
X140493047Y-116767285D01*
X140283523Y-116767285D01*
X140178761Y-116819666D01*
X139183523Y-117500619D02*
X139183523Y-116924428D01*
X139235904Y-116819666D01*
X139340666Y-116767285D01*
X139550190Y-116767285D01*
X139654952Y-116819666D01*
X139183523Y-117448238D02*
X139288285Y-117500619D01*
X139550190Y-117500619D01*
X139654952Y-117448238D01*
X139707333Y-117343476D01*
X139707333Y-117238714D01*
X139654952Y-117133952D01*
X139550190Y-117081571D01*
X139288285Y-117081571D01*
X139183523Y-117029190D01*
X138502571Y-117500619D02*
X138607333Y-117448238D01*
X138659714Y-117343476D01*
X138659714Y-116400619D01*
X138083523Y-117500619D02*
X138083523Y-116767285D01*
X138083523Y-116976809D02*
X138031142Y-116872047D01*
X137978761Y-116819666D01*
X137874000Y-116767285D01*
X137769238Y-116767285D01*
X137507333Y-116767285D02*
X137245428Y-117500619D01*
X136983523Y-116767285D02*
X137245428Y-117500619D01*
X137350190Y-117762523D01*
X137402571Y-117814904D01*
X137507333Y-117867285D01*
X136564476Y-117500619D02*
X136564476Y-116767285D01*
X136564476Y-116872047D02*
X136512095Y-116819666D01*
X136407333Y-116767285D01*
X136250190Y-116767285D01*
X136145428Y-116819666D01*
X136093047Y-116924428D01*
X136093047Y-117500619D01*
X136093047Y-116924428D02*
X136040666Y-116819666D01*
X135935904Y-116767285D01*
X135778761Y-116767285D01*
X135674000Y-116819666D01*
X135621619Y-116924428D01*
X135621619Y-117500619D01*
X135097809Y-116767285D02*
X135097809Y-117867285D01*
X135097809Y-116819666D02*
X134993047Y-116767285D01*
X134783523Y-116767285D01*
X134678761Y-116819666D01*
X134626380Y-116872047D01*
X134574000Y-116976809D01*
X134574000Y-117291095D01*
X134626380Y-117395857D01*
X134678761Y-117448238D01*
X134783523Y-117500619D01*
X134993047Y-117500619D01*
X135097809Y-117448238D01*
X133945428Y-117500619D02*
X134050190Y-117448238D01*
X134102571Y-117343476D01*
X134102571Y-116400619D01*
X133107333Y-117448238D02*
X133212095Y-117500619D01*
X133421619Y-117500619D01*
X133526380Y-117448238D01*
X133578761Y-117343476D01*
X133578761Y-116924428D01*
X133526380Y-116819666D01*
X133421619Y-116767285D01*
X133212095Y-116767285D01*
X133107333Y-116819666D01*
X133054952Y-116924428D01*
X133054952Y-117029190D01*
X133578761Y-117133952D01*
X132583523Y-117395857D02*
X132531142Y-117448238D01*
X132583523Y-117500619D01*
X132635904Y-117448238D01*
X132583523Y-117395857D01*
X132583523Y-117500619D01*
X131588285Y-117448238D02*
X131693047Y-117500619D01*
X131902571Y-117500619D01*
X132007333Y-117448238D01*
X132059714Y-117395857D01*
X132112095Y-117291095D01*
X132112095Y-116976809D01*
X132059714Y-116872047D01*
X132007333Y-116819666D01*
X131902571Y-116767285D01*
X131693047Y-116767285D01*
X131588285Y-116819666D01*
X130959714Y-117500619D02*
X131064476Y-117448238D01*
X131116857Y-117395857D01*
X131169238Y-117291095D01*
X131169238Y-116976809D01*
X131116857Y-116872047D01*
X131064476Y-116819666D01*
X130959714Y-116767285D01*
X130802571Y-116767285D01*
X130697809Y-116819666D01*
X130645428Y-116872047D01*
X130593047Y-116976809D01*
X130593047Y-117291095D01*
X130645428Y-117395857D01*
X130697809Y-117448238D01*
X130802571Y-117500619D01*
X130959714Y-117500619D01*
X130121619Y-117500619D02*
X130121619Y-116767285D01*
X130121619Y-116872047D02*
X130069238Y-116819666D01*
X129964476Y-116767285D01*
X129807333Y-116767285D01*
X129702571Y-116819666D01*
X129650190Y-116924428D01*
X129650190Y-117500619D01*
X129650190Y-116924428D02*
X129597809Y-116819666D01*
X129493047Y-116767285D01*
X129335904Y-116767285D01*
X129231142Y-116819666D01*
X129178761Y-116924428D01*
X129178761Y-117500619D01*
X127869238Y-116348238D02*
X128812095Y-117762523D01*
X126874000Y-117395857D02*
X126926380Y-117448238D01*
X127083523Y-117500619D01*
X127188285Y-117500619D01*
X127345428Y-117448238D01*
X127450190Y-117343476D01*
X127502571Y-117238714D01*
X127554952Y-117029190D01*
X127554952Y-116872047D01*
X127502571Y-116662523D01*
X127450190Y-116557761D01*
X127345428Y-116453000D01*
X127188285Y-116400619D01*
X127083523Y-116400619D01*
X126926380Y-116453000D01*
X126874000Y-116505380D01*
X125931142Y-116400619D02*
X126140666Y-116400619D01*
X126245428Y-116453000D01*
X126297809Y-116505380D01*
X126402571Y-116662523D01*
X126454952Y-116872047D01*
X126454952Y-117291095D01*
X126402571Y-117395857D01*
X126350190Y-117448238D01*
X126245428Y-117500619D01*
X126035904Y-117500619D01*
X125931142Y-117448238D01*
X125878761Y-117395857D01*
X125826380Y-117291095D01*
X125826380Y-117029190D01*
X125878761Y-116924428D01*
X125931142Y-116872047D01*
X126035904Y-116819666D01*
X126245428Y-116819666D01*
X126350190Y-116872047D01*
X126402571Y-116924428D01*
X126454952Y-117029190D01*
X124883523Y-116767285D02*
X124883523Y-117500619D01*
X125145428Y-116348238D02*
X125407333Y-117133952D01*
X124726380Y-117133952D01*
X124307333Y-116400619D02*
X124307333Y-117291095D01*
X124254952Y-117395857D01*
X124202571Y-117448238D01*
X124097809Y-117500619D01*
X123888285Y-117500619D01*
X123783523Y-117448238D01*
X123731142Y-117395857D01*
X123678761Y-117291095D01*
X123678761Y-116400619D01*
X123207333Y-117448238D02*
X123102571Y-117500619D01*
X122893047Y-117500619D01*
X122788285Y-117448238D01*
X122735904Y-117343476D01*
X122735904Y-117291095D01*
X122788285Y-117186333D01*
X122893047Y-117133952D01*
X123050190Y-117133952D01*
X123154952Y-117081571D01*
X123207333Y-116976809D01*
X123207333Y-116924428D01*
X123154952Y-116819666D01*
X123050190Y-116767285D01*
X122893047Y-116767285D01*
X122788285Y-116819666D01*
X121845428Y-117448238D02*
X121950190Y-117500619D01*
X122159714Y-117500619D01*
X122264476Y-117448238D01*
X122316857Y-117343476D01*
X122316857Y-116924428D01*
X122264476Y-116819666D01*
X122159714Y-116767285D01*
X121950190Y-116767285D01*
X121845428Y-116819666D01*
X121793047Y-116924428D01*
X121793047Y-117029190D01*
X122316857Y-117133952D01*
X121321619Y-117500619D02*
X121321619Y-116767285D01*
X121321619Y-116976809D02*
X121269238Y-116872047D01*
X121216857Y-116819666D01*
X121112095Y-116767285D01*
X121007333Y-116767285D01*
X120640666Y-117500619D02*
X120640666Y-116400619D01*
X120221619Y-116400619D01*
X120116857Y-116453000D01*
X120064476Y-116505380D01*
X120012095Y-116610142D01*
X120012095Y-116767285D01*
X120064476Y-116872047D01*
X120116857Y-116924428D01*
X120221619Y-116976809D01*
X120640666Y-116976809D01*
X119383523Y-117500619D02*
X119488285Y-117448238D01*
X119540666Y-117395857D01*
X119593047Y-117291095D01*
X119593047Y-116976809D01*
X119540666Y-116872047D01*
X119488285Y-116819666D01*
X119383523Y-116767285D01*
X119226380Y-116767285D01*
X119121619Y-116819666D01*
X119069238Y-116872047D01*
X119016857Y-116976809D01*
X119016857Y-117291095D01*
X119069238Y-117395857D01*
X119121619Y-117448238D01*
X119226380Y-117500619D01*
X119383523Y-117500619D01*
X118545428Y-117500619D02*
X118545428Y-116767285D01*
X118545428Y-116976809D02*
X118493047Y-116872047D01*
X118440666Y-116819666D01*
X118335904Y-116767285D01*
X118231142Y-116767285D01*
X118021619Y-116767285D02*
X117602571Y-116767285D01*
X117864476Y-116400619D02*
X117864476Y-117343476D01*
X117812095Y-117448238D01*
X117707333Y-117500619D01*
X117602571Y-117500619D01*
X117235904Y-117500619D02*
X117235904Y-116400619D01*
X116869238Y-117186333D01*
X116502571Y-116400619D01*
X116502571Y-117500619D01*
X115978761Y-117500619D02*
X115978761Y-116767285D01*
X115978761Y-116400619D02*
X116031142Y-116453000D01*
X115978761Y-116505380D01*
X115926380Y-116453000D01*
X115978761Y-116400619D01*
X115978761Y-116505380D01*
X114983523Y-117500619D02*
X114983523Y-116400619D01*
X114983523Y-117448238D02*
X115088285Y-117500619D01*
X115297809Y-117500619D01*
X115402571Y-117448238D01*
X115454952Y-117395857D01*
X115507333Y-117291095D01*
X115507333Y-116976809D01*
X115454952Y-116872047D01*
X115402571Y-116819666D01*
X115297809Y-116767285D01*
X115088285Y-116767285D01*
X114983523Y-116819666D01*
X114459714Y-117500619D02*
X114459714Y-116767285D01*
X114459714Y-116400619D02*
X114512095Y-116453000D01*
X114459714Y-116505380D01*
X114407333Y-116453000D01*
X114459714Y-116400619D01*
X114459714Y-116505380D01*
D13*
G36*
X114804640Y-111934468D02*
G01*
X114769408Y-111951874D01*
X114725960Y-111982206D01*
X114694294Y-112015283D01*
X114672606Y-112056817D01*
X114659097Y-112112522D01*
X114651962Y-112188111D01*
X114649400Y-112289296D01*
X114649250Y-112332797D01*
X114649688Y-112428135D01*
X114651504Y-112496271D01*
X114655455Y-112543418D01*
X114662298Y-112575790D01*
X114672789Y-112599600D01*
X114683704Y-112615843D01*
X114753381Y-112684952D01*
X114835434Y-112726521D01*
X114923950Y-112739023D01*
X115013019Y-112720934D01*
X115041237Y-112708142D01*
X115108790Y-112672931D01*
X115108790Y-113224700D01*
X115059488Y-113199205D01*
X114994527Y-113179480D01*
X114914680Y-113174427D01*
X114834948Y-113183756D01*
X114774735Y-113204714D01*
X114724792Y-113244627D01*
X114682119Y-113301741D01*
X114678910Y-113307605D01*
X114665378Y-113335227D01*
X114655495Y-113363068D01*
X114648691Y-113396794D01*
X114644399Y-113442071D01*
X114642049Y-113504562D01*
X114641072Y-113589935D01*
X114640895Y-113686010D01*
X114640895Y-113992526D01*
X114824711Y-113992526D01*
X114824711Y-113427339D01*
X114876125Y-113384077D01*
X114929534Y-113349472D01*
X114980112Y-113343180D01*
X115030970Y-113359372D01*
X115058075Y-113375227D01*
X115078249Y-113397810D01*
X115092597Y-113431940D01*
X115102224Y-113482434D01*
X115108237Y-113554111D01*
X115111740Y-113651788D01*
X115112974Y-113716802D01*
X115117145Y-113984171D01*
X115204875Y-113989222D01*
X115292606Y-113994273D01*
X115292606Y-112335101D01*
X115108790Y-112335101D01*
X115104104Y-112427600D01*
X115088312Y-112491809D01*
X115058817Y-112531759D01*
X115013020Y-112551480D01*
X114966750Y-112555421D01*
X114914372Y-112550892D01*
X114879610Y-112533069D01*
X114857872Y-112509519D01*
X114840760Y-112484189D01*
X114830573Y-112455969D01*
X114826040Y-112416431D01*
X114825891Y-112357142D01*
X114827416Y-112307498D01*
X114830919Y-112232710D01*
X114836133Y-112183611D01*
X114844913Y-112152467D01*
X114859114Y-112131545D01*
X114872516Y-112119452D01*
X114928513Y-112093081D01*
X114994789Y-112088822D01*
X115032844Y-112097906D01*
X115070523Y-112130196D01*
X115095481Y-112193006D01*
X115107578Y-112285894D01*
X115108790Y-112335101D01*
X115292606Y-112335101D01*
X115292606Y-111920421D01*
X115200698Y-111920421D01*
X115145517Y-111922603D01*
X115117048Y-111930351D01*
X115108794Y-111945468D01*
X115108790Y-111945916D01*
X115104960Y-111960720D01*
X115088067Y-111959039D01*
X115054481Y-111942772D01*
X114976222Y-111917887D01*
X114888173Y-111915271D01*
X114804640Y-111934468D01*
G37*
X114804640Y-111934468D02*
X114769408Y-111951874D01*
X114725960Y-111982206D01*
X114694294Y-112015283D01*
X114672606Y-112056817D01*
X114659097Y-112112522D01*
X114651962Y-112188111D01*
X114649400Y-112289296D01*
X114649250Y-112332797D01*
X114649688Y-112428135D01*
X114651504Y-112496271D01*
X114655455Y-112543418D01*
X114662298Y-112575790D01*
X114672789Y-112599600D01*
X114683704Y-112615843D01*
X114753381Y-112684952D01*
X114835434Y-112726521D01*
X114923950Y-112739023D01*
X115013019Y-112720934D01*
X115041237Y-112708142D01*
X115108790Y-112672931D01*
X115108790Y-113224700D01*
X115059488Y-113199205D01*
X114994527Y-113179480D01*
X114914680Y-113174427D01*
X114834948Y-113183756D01*
X114774735Y-113204714D01*
X114724792Y-113244627D01*
X114682119Y-113301741D01*
X114678910Y-113307605D01*
X114665378Y-113335227D01*
X114655495Y-113363068D01*
X114648691Y-113396794D01*
X114644399Y-113442071D01*
X114642049Y-113504562D01*
X114641072Y-113589935D01*
X114640895Y-113686010D01*
X114640895Y-113992526D01*
X114824711Y-113992526D01*
X114824711Y-113427339D01*
X114876125Y-113384077D01*
X114929534Y-113349472D01*
X114980112Y-113343180D01*
X115030970Y-113359372D01*
X115058075Y-113375227D01*
X115078249Y-113397810D01*
X115092597Y-113431940D01*
X115102224Y-113482434D01*
X115108237Y-113554111D01*
X115111740Y-113651788D01*
X115112974Y-113716802D01*
X115117145Y-113984171D01*
X115204875Y-113989222D01*
X115292606Y-113994273D01*
X115292606Y-112335101D01*
X115108790Y-112335101D01*
X115104104Y-112427600D01*
X115088312Y-112491809D01*
X115058817Y-112531759D01*
X115013020Y-112551480D01*
X114966750Y-112555421D01*
X114914372Y-112550892D01*
X114879610Y-112533069D01*
X114857872Y-112509519D01*
X114840760Y-112484189D01*
X114830573Y-112455969D01*
X114826040Y-112416431D01*
X114825891Y-112357142D01*
X114827416Y-112307498D01*
X114830919Y-112232710D01*
X114836133Y-112183611D01*
X114844913Y-112152467D01*
X114859114Y-112131545D01*
X114872516Y-112119452D01*
X114928513Y-112093081D01*
X114994789Y-112088822D01*
X115032844Y-112097906D01*
X115070523Y-112130196D01*
X115095481Y-112193006D01*
X115107578Y-112285894D01*
X115108790Y-112335101D01*
X115292606Y-112335101D01*
X115292606Y-111920421D01*
X115200698Y-111920421D01*
X115145517Y-111922603D01*
X115117048Y-111930351D01*
X115108794Y-111945468D01*
X115108790Y-111945916D01*
X115104960Y-111960720D01*
X115088067Y-111959039D01*
X115054481Y-111942772D01*
X114976222Y-111917887D01*
X114888173Y-111915271D01*
X114804640Y-111934468D01*
G36*
X114107543Y-113180184D02*
G01*
X114028930Y-113201160D01*
X113969084Y-113239180D01*
X113926853Y-113288978D01*
X113913725Y-113310230D01*
X113904032Y-113332492D01*
X113897256Y-113360970D01*
X113892877Y-113400871D01*
X113890376Y-113457401D01*
X113889232Y-113535767D01*
X113888928Y-113641176D01*
X113888922Y-113669142D01*
X113888922Y-113992526D01*
X113969132Y-113992526D01*
X114020294Y-113988943D01*
X114058123Y-113979866D01*
X114067601Y-113974268D01*
X114093512Y-113964606D01*
X114119976Y-113974268D01*
X114163548Y-113986330D01*
X114226840Y-113991185D01*
X114296990Y-113989078D01*
X114361140Y-113980256D01*
X114398593Y-113968937D01*
X114471067Y-113922412D01*
X114516360Y-113857846D01*
X114536722Y-113772000D01*
X114536912Y-113769796D01*
X114535125Y-113731713D01*
X114373527Y-113731713D01*
X114359399Y-113775030D01*
X114336388Y-113799408D01*
X114290196Y-113817845D01*
X114229225Y-113825205D01*
X114167051Y-113821583D01*
X114117249Y-113807074D01*
X114103297Y-113797765D01*
X114078915Y-113754753D01*
X114072737Y-113705857D01*
X114072737Y-113641605D01*
X114165182Y-113641605D01*
X114253005Y-113648366D01*
X114319582Y-113667520D01*
X114360998Y-113697376D01*
X114373527Y-113731713D01*
X114535125Y-113731713D01*
X114532510Y-113676004D01*
X114501576Y-113601847D01*
X114443419Y-113545767D01*
X114435380Y-113540665D01*
X114400837Y-113524055D01*
X114358082Y-113513996D01*
X114298314Y-113509107D01*
X114227310Y-113507983D01*
X114072737Y-113507921D01*
X114072737Y-113443125D01*
X114079294Y-113392850D01*
X114096025Y-113359169D01*
X114097984Y-113357376D01*
X114135217Y-113342642D01*
X114191420Y-113336931D01*
X114253533Y-113339737D01*
X114308490Y-113350556D01*
X114341101Y-113366782D01*
X114358772Y-113379780D01*
X114377431Y-113382262D01*
X114403181Y-113371613D01*
X114442127Y-113345218D01*
X114500370Y-113300465D01*
X114505716Y-113296273D01*
X114502977Y-113280760D01*
X114480124Y-113254960D01*
X114445391Y-113226289D01*
X114407010Y-113202166D01*
X114394952Y-113196470D01*
X114350966Y-113185103D01*
X114286513Y-113176995D01*
X114214503Y-113173743D01*
X114211136Y-113173736D01*
X114107543Y-113180184D01*
G37*
X114107543Y-113180184D02*
X114028930Y-113201160D01*
X113969084Y-113239180D01*
X113926853Y-113288978D01*
X113913725Y-113310230D01*
X113904032Y-113332492D01*
X113897256Y-113360970D01*
X113892877Y-113400871D01*
X113890376Y-113457401D01*
X113889232Y-113535767D01*
X113888928Y-113641176D01*
X113888922Y-113669142D01*
X113888922Y-113992526D01*
X113969132Y-113992526D01*
X114020294Y-113988943D01*
X114058123Y-113979866D01*
X114067601Y-113974268D01*
X114093512Y-113964606D01*
X114119976Y-113974268D01*
X114163548Y-113986330D01*
X114226840Y-113991185D01*
X114296990Y-113989078D01*
X114361140Y-113980256D01*
X114398593Y-113968937D01*
X114471067Y-113922412D01*
X114516360Y-113857846D01*
X114536722Y-113772000D01*
X114536912Y-113769796D01*
X114535125Y-113731713D01*
X114373527Y-113731713D01*
X114359399Y-113775030D01*
X114336388Y-113799408D01*
X114290196Y-113817845D01*
X114229225Y-113825205D01*
X114167051Y-113821583D01*
X114117249Y-113807074D01*
X114103297Y-113797765D01*
X114078915Y-113754753D01*
X114072737Y-113705857D01*
X114072737Y-113641605D01*
X114165182Y-113641605D01*
X114253005Y-113648366D01*
X114319582Y-113667520D01*
X114360998Y-113697376D01*
X114373527Y-113731713D01*
X114535125Y-113731713D01*
X114532510Y-113676004D01*
X114501576Y-113601847D01*
X114443419Y-113545767D01*
X114435380Y-113540665D01*
X114400837Y-113524055D01*
X114358082Y-113513996D01*
X114298314Y-113509107D01*
X114227310Y-113507983D01*
X114072737Y-113507921D01*
X114072737Y-113443125D01*
X114079294Y-113392850D01*
X114096025Y-113359169D01*
X114097984Y-113357376D01*
X114135217Y-113342642D01*
X114191420Y-113336931D01*
X114253533Y-113339737D01*
X114308490Y-113350556D01*
X114341101Y-113366782D01*
X114358772Y-113379780D01*
X114377431Y-113382262D01*
X114403181Y-113371613D01*
X114442127Y-113345218D01*
X114500370Y-113300465D01*
X114505716Y-113296273D01*
X114502977Y-113280760D01*
X114480124Y-113254960D01*
X114445391Y-113226289D01*
X114407010Y-113202166D01*
X114394952Y-113196470D01*
X114350966Y-113185103D01*
X114286513Y-113176995D01*
X114214503Y-113173743D01*
X114211136Y-113173736D01*
X114107543Y-113180184D01*
G36*
X113588119Y-113175486D02*
G01*
X113563112Y-113182982D01*
X113555050Y-113199451D01*
X113554711Y-113206886D01*
X113553264Y-113227594D01*
X113543302Y-113230845D01*
X113516388Y-113216648D01*
X113500402Y-113206948D01*
X113449967Y-113186175D01*
X113389728Y-113175904D01*
X113326566Y-113175114D01*
X113267363Y-113182786D01*
X113218998Y-113197898D01*
X113188354Y-113219432D01*
X113182311Y-113246366D01*
X113185361Y-113253660D01*
X113207594Y-113283937D01*
X113242070Y-113321175D01*
X113248306Y-113327195D01*
X113281167Y-113354875D01*
X113309520Y-113363818D01*
X113349173Y-113357576D01*
X113365058Y-113353429D01*
X113414491Y-113343467D01*
X113449248Y-113347947D01*
X113478600Y-113363746D01*
X113505487Y-113384949D01*
X113525290Y-113411614D01*
X113539052Y-113448827D01*
X113547816Y-113501673D01*
X113552626Y-113575237D01*
X113554526Y-113674605D01*
X113554711Y-113734601D01*
X113554711Y-113992526D01*
X113721816Y-113992526D01*
X113721816Y-113173710D01*
X113638264Y-113173710D01*
X113588119Y-113175486D01*
G37*
X113588119Y-113175486D02*
X113563112Y-113182982D01*
X113555050Y-113199451D01*
X113554711Y-113206886D01*
X113553264Y-113227594D01*
X113543302Y-113230845D01*
X113516388Y-113216648D01*
X113500402Y-113206948D01*
X113449967Y-113186175D01*
X113389728Y-113175904D01*
X113326566Y-113175114D01*
X113267363Y-113182786D01*
X113218998Y-113197898D01*
X113188354Y-113219432D01*
X113182311Y-113246366D01*
X113185361Y-113253660D01*
X113207594Y-113283937D01*
X113242070Y-113321175D01*
X113248306Y-113327195D01*
X113281167Y-113354875D01*
X113309520Y-113363818D01*
X113349173Y-113357576D01*
X113365058Y-113353429D01*
X113414491Y-113343467D01*
X113449248Y-113347947D01*
X113478600Y-113363746D01*
X113505487Y-113384949D01*
X113525290Y-113411614D01*
X113539052Y-113448827D01*
X113547816Y-113501673D01*
X113552626Y-113575237D01*
X113554526Y-113674605D01*
X113554711Y-113734601D01*
X113554711Y-113992526D01*
X113721816Y-113992526D01*
X113721816Y-113173710D01*
X113638264Y-113173710D01*
X113588119Y-113175486D01*
G36*
X112535369Y-113992526D02*
G01*
X112627277Y-113992526D01*
X112680623Y-113990962D01*
X112708407Y-113984485D01*
X112718410Y-113970418D01*
X112719185Y-113960906D01*
X112720872Y-113941832D01*
X112731510Y-113938174D01*
X112759465Y-113949932D01*
X112781205Y-113960906D01*
X112864668Y-113986911D01*
X112955396Y-113988416D01*
X113029158Y-113969021D01*
X113097846Y-113922165D01*
X113150206Y-113853004D01*
X113178878Y-113771427D01*
X113179608Y-113766866D01*
X113183868Y-113717101D01*
X113185986Y-113645659D01*
X113185816Y-113591626D01*
X113003280Y-113591626D01*
X112999051Y-113663441D01*
X112989432Y-113722634D01*
X112976410Y-113756060D01*
X112927144Y-113801740D01*
X112868650Y-113818115D01*
X112808329Y-113804873D01*
X112756783Y-113765373D01*
X112737262Y-113738807D01*
X112725848Y-113707106D01*
X112720502Y-113660832D01*
X112719185Y-113591328D01*
X112721542Y-113522499D01*
X112727767Y-113462026D01*
X112736592Y-113421556D01*
X112738063Y-113417929D01*
X112773653Y-113374802D01*
X112825600Y-113351124D01*
X112883722Y-113347301D01*
X112937840Y-113363738D01*
X112977774Y-113400840D01*
X112981917Y-113408222D01*
X112994884Y-113453239D01*
X113001948Y-113517967D01*
X113003280Y-113591626D01*
X113185816Y-113591626D01*
X113185729Y-113564230D01*
X113184528Y-113520405D01*
X113176355Y-113411988D01*
X113159370Y-113330588D01*
X113131113Y-113270412D01*
X113089128Y-113225666D01*
X113048368Y-113199400D01*
X112991419Y-113180935D01*
X112920589Y-113174602D01*
X112848059Y-113179760D01*
X112786014Y-113195769D01*
X112753232Y-113214920D01*
X112719185Y-113245732D01*
X112719185Y-112856210D01*
X112535369Y-112856210D01*
X112535369Y-113992526D01*
G37*
X112535369Y-113992526D02*
X112627277Y-113992526D01*
X112680623Y-113990962D01*
X112708407Y-113984485D01*
X112718410Y-113970418D01*
X112719185Y-113960906D01*
X112720872Y-113941832D01*
X112731510Y-113938174D01*
X112759465Y-113949932D01*
X112781205Y-113960906D01*
X112864668Y-113986911D01*
X112955396Y-113988416D01*
X113029158Y-113969021D01*
X113097846Y-113922165D01*
X113150206Y-113853004D01*
X113178878Y-113771427D01*
X113179608Y-113766866D01*
X113183868Y-113717101D01*
X113185986Y-113645659D01*
X113185816Y-113591626D01*
X113003280Y-113591626D01*
X112999051Y-113663441D01*
X112989432Y-113722634D01*
X112976410Y-113756060D01*
X112927144Y-113801740D01*
X112868650Y-113818115D01*
X112808329Y-113804873D01*
X112756783Y-113765373D01*
X112737262Y-113738807D01*
X112725848Y-113707106D01*
X112720502Y-113660832D01*
X112719185Y-113591328D01*
X112721542Y-113522499D01*
X112727767Y-113462026D01*
X112736592Y-113421556D01*
X112738063Y-113417929D01*
X112773653Y-113374802D01*
X112825600Y-113351124D01*
X112883722Y-113347301D01*
X112937840Y-113363738D01*
X112977774Y-113400840D01*
X112981917Y-113408222D01*
X112994884Y-113453239D01*
X113001948Y-113517967D01*
X113003280Y-113591626D01*
X113185816Y-113591626D01*
X113185729Y-113564230D01*
X113184528Y-113520405D01*
X113176355Y-113411988D01*
X113159370Y-113330588D01*
X113131113Y-113270412D01*
X113089128Y-113225666D01*
X113048368Y-113199400D01*
X112991419Y-113180935D01*
X112920589Y-113174602D01*
X112848059Y-113179760D01*
X112786014Y-113195769D01*
X112753232Y-113214920D01*
X112719185Y-113245732D01*
X112719185Y-112856210D01*
X112535369Y-112856210D01*
X112535369Y-113992526D01*
G36*
X111893870Y-113177104D02*
G01*
X111827780Y-113182066D01*
X111741374Y-113441079D01*
X111654969Y-113700092D01*
X111627876Y-113608184D01*
X111611572Y-113551384D01*
X111590125Y-113474625D01*
X111566965Y-113390251D01*
X111554720Y-113344993D01*
X111508656Y-113173710D01*
X111318613Y-113173710D01*
X111375418Y-113353349D01*
X111403393Y-113441704D01*
X111437187Y-113548281D01*
X111472480Y-113659454D01*
X111503987Y-113758579D01*
X111575750Y-113984171D01*
X111730714Y-113994253D01*
X111772730Y-113855528D01*
X111798641Y-113769351D01*
X111826917Y-113674347D01*
X111851631Y-113590441D01*
X111852606Y-113587102D01*
X111871065Y-113530248D01*
X111887351Y-113491456D01*
X111898758Y-113476787D01*
X111901102Y-113478483D01*
X111909329Y-113501225D01*
X111924962Y-113549940D01*
X111946096Y-113618502D01*
X111970830Y-113700785D01*
X111984213Y-113746046D01*
X112056689Y-113992526D01*
X112210505Y-113992526D01*
X112333469Y-113604006D01*
X112368012Y-113495022D01*
X112399479Y-113396048D01*
X112426384Y-113311736D01*
X112447241Y-113246734D01*
X112460562Y-113205692D01*
X112464612Y-113193701D01*
X112461406Y-113181423D01*
X112436235Y-113176046D01*
X112383854Y-113176584D01*
X112375655Y-113176990D01*
X112278518Y-113182066D01*
X112214900Y-113416013D01*
X112191516Y-113501333D01*
X112170619Y-113576335D01*
X112154049Y-113634507D01*
X112143646Y-113669337D01*
X112141724Y-113675016D01*
X112133759Y-113668486D01*
X112117696Y-113634654D01*
X112095379Y-113578127D01*
X112068655Y-113503510D01*
X112046063Y-113436107D01*
X111959959Y-113172143D01*
X111893870Y-113177104D01*
G37*
X111893870Y-113177104D02*
X111827780Y-113182066D01*
X111741374Y-113441079D01*
X111654969Y-113700092D01*
X111627876Y-113608184D01*
X111611572Y-113551384D01*
X111590125Y-113474625D01*
X111566965Y-113390251D01*
X111554720Y-113344993D01*
X111508656Y-113173710D01*
X111318613Y-113173710D01*
X111375418Y-113353349D01*
X111403393Y-113441704D01*
X111437187Y-113548281D01*
X111472480Y-113659454D01*
X111503987Y-113758579D01*
X111575750Y-113984171D01*
X111730714Y-113994253D01*
X111772730Y-113855528D01*
X111798641Y-113769351D01*
X111826917Y-113674347D01*
X111851631Y-113590441D01*
X111852606Y-113587102D01*
X111871065Y-113530248D01*
X111887351Y-113491456D01*
X111898758Y-113476787D01*
X111901102Y-113478483D01*
X111909329Y-113501225D01*
X111924962Y-113549940D01*
X111946096Y-113618502D01*
X111970830Y-113700785D01*
X111984213Y-113746046D01*
X112056689Y-113992526D01*
X112210505Y-113992526D01*
X112333469Y-113604006D01*
X112368012Y-113495022D01*
X112399479Y-113396048D01*
X112426384Y-113311736D01*
X112447241Y-113246734D01*
X112460562Y-113205692D01*
X112464612Y-113193701D01*
X112461406Y-113181423D01*
X112436235Y-113176046D01*
X112383854Y-113176584D01*
X112375655Y-113176990D01*
X112278518Y-113182066D01*
X112214900Y-113416013D01*
X112191516Y-113501333D01*
X112170619Y-113576335D01*
X112154049Y-113634507D01*
X112143646Y-113669337D01*
X112141724Y-113675016D01*
X112133759Y-113668486D01*
X112117696Y-113634654D01*
X112095379Y-113578127D01*
X112068655Y-113503510D01*
X112046063Y-113436107D01*
X111959959Y-113172143D01*
X111893870Y-113177104D01*
G36*
X110888008Y-113178673D02*
G01*
X110817573Y-113195780D01*
X110797213Y-113204844D01*
X110757747Y-113228583D01*
X110727459Y-113255321D01*
X110705048Y-113289699D01*
X110689214Y-113336360D01*
X110678657Y-113399946D01*
X110672076Y-113485099D01*
X110668172Y-113596462D01*
X110666690Y-113670849D01*
X110661235Y-113992526D01*
X110754420Y-113992526D01*
X110810953Y-113990156D01*
X110840078Y-113982055D01*
X110847606Y-113968451D01*
X110851580Y-113953741D01*
X110869348Y-113956554D01*
X110893560Y-113968348D01*
X110954172Y-113986427D01*
X111032071Y-113991299D01*
X111114005Y-113983330D01*
X111186719Y-113962889D01*
X111193241Y-113960051D01*
X111259698Y-113913365D01*
X111303509Y-113848464D01*
X111323668Y-113772600D01*
X111322128Y-113745344D01*
X111157655Y-113745344D01*
X111143163Y-113782024D01*
X111100195Y-113808309D01*
X111030871Y-113822417D01*
X110993823Y-113824290D01*
X110932081Y-113819494D01*
X110891040Y-113800858D01*
X110881027Y-113792000D01*
X110853900Y-113743806D01*
X110847606Y-113700092D01*
X110847606Y-113641605D01*
X110929070Y-113641605D01*
X111023766Y-113646432D01*
X111090187Y-113661613D01*
X111132154Y-113688200D01*
X111141551Y-113700052D01*
X111157655Y-113745344D01*
X111322128Y-113745344D01*
X111319171Y-113693026D01*
X111289015Y-113616995D01*
X111247869Y-113565612D01*
X111222948Y-113543397D01*
X111198552Y-113528798D01*
X111166809Y-113519897D01*
X111119848Y-113514775D01*
X111049796Y-113511515D01*
X111022010Y-113510577D01*
X110847606Y-113504879D01*
X110847862Y-113452091D01*
X110854616Y-113396603D01*
X110879036Y-113363052D01*
X110928370Y-113341618D01*
X110929694Y-113341236D01*
X110999640Y-113332808D01*
X111068086Y-113343816D01*
X111118953Y-113370585D01*
X111139363Y-113383803D01*
X111161346Y-113381974D01*
X111195174Y-113362824D01*
X111215039Y-113349308D01*
X111253894Y-113320432D01*
X111277962Y-113298786D01*
X111281824Y-113292589D01*
X111265921Y-113260519D01*
X111218935Y-113222219D01*
X111198527Y-113209297D01*
X111139857Y-113187041D01*
X111060788Y-113174432D01*
X110972959Y-113171600D01*
X110888008Y-113178673D01*
G37*
X110888008Y-113178673D02*
X110817573Y-113195780D01*
X110797213Y-113204844D01*
X110757747Y-113228583D01*
X110727459Y-113255321D01*
X110705048Y-113289699D01*
X110689214Y-113336360D01*
X110678657Y-113399946D01*
X110672076Y-113485099D01*
X110668172Y-113596462D01*
X110666690Y-113670849D01*
X110661235Y-113992526D01*
X110754420Y-113992526D01*
X110810953Y-113990156D01*
X110840078Y-113982055D01*
X110847606Y-113968451D01*
X110851580Y-113953741D01*
X110869348Y-113956554D01*
X110893560Y-113968348D01*
X110954172Y-113986427D01*
X111032071Y-113991299D01*
X111114005Y-113983330D01*
X111186719Y-113962889D01*
X111193241Y-113960051D01*
X111259698Y-113913365D01*
X111303509Y-113848464D01*
X111323668Y-113772600D01*
X111322128Y-113745344D01*
X111157655Y-113745344D01*
X111143163Y-113782024D01*
X111100195Y-113808309D01*
X111030871Y-113822417D01*
X110993823Y-113824290D01*
X110932081Y-113819494D01*
X110891040Y-113800858D01*
X110881027Y-113792000D01*
X110853900Y-113743806D01*
X110847606Y-113700092D01*
X110847606Y-113641605D01*
X110929070Y-113641605D01*
X111023766Y-113646432D01*
X111090187Y-113661613D01*
X111132154Y-113688200D01*
X111141551Y-113700052D01*
X111157655Y-113745344D01*
X111322128Y-113745344D01*
X111319171Y-113693026D01*
X111289015Y-113616995D01*
X111247869Y-113565612D01*
X111222948Y-113543397D01*
X111198552Y-113528798D01*
X111166809Y-113519897D01*
X111119848Y-113514775D01*
X111049796Y-113511515D01*
X111022010Y-113510577D01*
X110847606Y-113504879D01*
X110847862Y-113452091D01*
X110854616Y-113396603D01*
X110879036Y-113363052D01*
X110928370Y-113341618D01*
X110929694Y-113341236D01*
X110999640Y-113332808D01*
X111068086Y-113343816D01*
X111118953Y-113370585D01*
X111139363Y-113383803D01*
X111161346Y-113381974D01*
X111195174Y-113362824D01*
X111215039Y-113349308D01*
X111253894Y-113320432D01*
X111277962Y-113298786D01*
X111281824Y-113292589D01*
X111265921Y-113260519D01*
X111218935Y-113222219D01*
X111198527Y-113209297D01*
X111139857Y-113187041D01*
X111060788Y-113174432D01*
X110972959Y-113171600D01*
X110888008Y-113178673D01*
G36*
X110094833Y-113173447D02*
G01*
X110030592Y-113186112D01*
X109994020Y-113204864D01*
X109955547Y-113236017D01*
X110010283Y-113305127D01*
X110044031Y-113346979D01*
X110066947Y-113367398D01*
X110089721Y-113370517D01*
X110123044Y-113360472D01*
X110138686Y-113354789D01*
X110202458Y-113346404D01*
X110260860Y-113364378D01*
X110303736Y-113404982D01*
X110310701Y-113417929D01*
X110318287Y-113452224D01*
X110324141Y-113515427D01*
X110327989Y-113603060D01*
X110329557Y-113710640D01*
X110329579Y-113725944D01*
X110329579Y-113992526D01*
X110513395Y-113992526D01*
X110513395Y-113173710D01*
X110421487Y-113173710D01*
X110368493Y-113175094D01*
X110340885Y-113181252D01*
X110330676Y-113195194D01*
X110329579Y-113208344D01*
X110329579Y-113242978D01*
X110285550Y-113208344D01*
X110235063Y-113184716D01*
X110167240Y-113173033D01*
X110094833Y-113173447D01*
G37*
X110094833Y-113173447D02*
X110030592Y-113186112D01*
X109994020Y-113204864D01*
X109955547Y-113236017D01*
X110010283Y-113305127D01*
X110044031Y-113346979D01*
X110066947Y-113367398D01*
X110089721Y-113370517D01*
X110123044Y-113360472D01*
X110138686Y-113354789D01*
X110202458Y-113346404D01*
X110260860Y-113364378D01*
X110303736Y-113404982D01*
X110310701Y-113417929D01*
X110318287Y-113452224D01*
X110324141Y-113515427D01*
X110327989Y-113603060D01*
X110329557Y-113710640D01*
X110329579Y-113725944D01*
X110329579Y-113992526D01*
X110513395Y-113992526D01*
X110513395Y-113173710D01*
X110421487Y-113173710D01*
X110368493Y-113175094D01*
X110340885Y-113181252D01*
X110330676Y-113195194D01*
X110329579Y-113208344D01*
X110329579Y-113242978D01*
X110285550Y-113208344D01*
X110235063Y-113184716D01*
X110167240Y-113173033D01*
X110094833Y-113173447D01*
G36*
X109566807Y-113178078D02*
G01*
X109486932Y-113198845D01*
X109420038Y-113241705D01*
X109387649Y-113273723D01*
X109334555Y-113349413D01*
X109304127Y-113437216D01*
X109293673Y-113545150D01*
X109293620Y-113553875D01*
X109293527Y-113641605D01*
X109798466Y-113641605D01*
X109787702Y-113687559D01*
X109768268Y-113729178D01*
X109734255Y-113772544D01*
X109727140Y-113779467D01*
X109665997Y-113816935D01*
X109596271Y-113823289D01*
X109516013Y-113798638D01*
X109502408Y-113792000D01*
X109460681Y-113771819D01*
X109432732Y-113760321D01*
X109427855Y-113759258D01*
X109410832Y-113769583D01*
X109378367Y-113794845D01*
X109361886Y-113808650D01*
X109327736Y-113840361D01*
X109316522Y-113861299D01*
X109324305Y-113880560D01*
X109328465Y-113885827D01*
X109356643Y-113908878D01*
X109403138Y-113936892D01*
X109435566Y-113953246D01*
X109527615Y-113982059D01*
X109629524Y-113991395D01*
X109726037Y-113980332D01*
X109753066Y-113972412D01*
X109836724Y-113927581D01*
X109898734Y-113858598D01*
X109939455Y-113764794D01*
X109959245Y-113645498D01*
X109961418Y-113583118D01*
X109955074Y-113492298D01*
X109794843Y-113492298D01*
X109779345Y-113499012D01*
X109737688Y-113504280D01*
X109677124Y-113507389D01*
X109636093Y-113507921D01*
X109562289Y-113507408D01*
X109515707Y-113505006D01*
X109490152Y-113499422D01*
X109479431Y-113489361D01*
X109477343Y-113474763D01*
X109491669Y-113429796D01*
X109527738Y-113385353D01*
X109575185Y-113351242D01*
X109622651Y-113337288D01*
X109687121Y-113349666D01*
X109742930Y-113385452D01*
X109781626Y-113437033D01*
X109794843Y-113492298D01*
X109955074Y-113492298D01*
X109952179Y-113450866D01*
X109923664Y-113345498D01*
X109875271Y-113266178D01*
X109806396Y-113212071D01*
X109716435Y-113182343D01*
X109667700Y-113176618D01*
X109566807Y-113178078D01*
G37*
X109566807Y-113178078D02*
X109486932Y-113198845D01*
X109420038Y-113241705D01*
X109387649Y-113273723D01*
X109334555Y-113349413D01*
X109304127Y-113437216D01*
X109293673Y-113545150D01*
X109293620Y-113553875D01*
X109293527Y-113641605D01*
X109798466Y-113641605D01*
X109787702Y-113687559D01*
X109768268Y-113729178D01*
X109734255Y-113772544D01*
X109727140Y-113779467D01*
X109665997Y-113816935D01*
X109596271Y-113823289D01*
X109516013Y-113798638D01*
X109502408Y-113792000D01*
X109460681Y-113771819D01*
X109432732Y-113760321D01*
X109427855Y-113759258D01*
X109410832Y-113769583D01*
X109378367Y-113794845D01*
X109361886Y-113808650D01*
X109327736Y-113840361D01*
X109316522Y-113861299D01*
X109324305Y-113880560D01*
X109328465Y-113885827D01*
X109356643Y-113908878D01*
X109403138Y-113936892D01*
X109435566Y-113953246D01*
X109527615Y-113982059D01*
X109629524Y-113991395D01*
X109726037Y-113980332D01*
X109753066Y-113972412D01*
X109836724Y-113927581D01*
X109898734Y-113858598D01*
X109939455Y-113764794D01*
X109959245Y-113645498D01*
X109961418Y-113583118D01*
X109955074Y-113492298D01*
X109794843Y-113492298D01*
X109779345Y-113499012D01*
X109737688Y-113504280D01*
X109677124Y-113507389D01*
X109636093Y-113507921D01*
X109562289Y-113507408D01*
X109515707Y-113505006D01*
X109490152Y-113499422D01*
X109479431Y-113489361D01*
X109477343Y-113474763D01*
X109491669Y-113429796D01*
X109527738Y-113385353D01*
X109575185Y-113351242D01*
X109622651Y-113337288D01*
X109687121Y-113349666D01*
X109742930Y-113385452D01*
X109781626Y-113437033D01*
X109794843Y-113492298D01*
X109955074Y-113492298D01*
X109952179Y-113450866D01*
X109923664Y-113345498D01*
X109875271Y-113266178D01*
X109806396Y-113212071D01*
X109716435Y-113182343D01*
X109667700Y-113176618D01*
X109566807Y-113178078D01*
G36*
X115641216Y-111929104D02*
G01*
X115553795Y-111967754D01*
X115487430Y-112032290D01*
X115442024Y-112122812D01*
X115417482Y-112239418D01*
X115415723Y-112257624D01*
X115414344Y-112385984D01*
X115432216Y-112498496D01*
X115468250Y-112589688D01*
X115487545Y-112619022D01*
X115554755Y-112681106D01*
X115640350Y-112721316D01*
X115736110Y-112738003D01*
X115833813Y-112729517D01*
X115908083Y-112703380D01*
X115971953Y-112659335D01*
X116024154Y-112601587D01*
X116025057Y-112600236D01*
X116046256Y-112564593D01*
X116060033Y-112528752D01*
X116068376Y-112483519D01*
X116073273Y-112419701D01*
X116075431Y-112367368D01*
X116076329Y-112319910D01*
X115909257Y-112319910D01*
X115907624Y-112367154D01*
X115901696Y-112430046D01*
X115891239Y-112470407D01*
X115872381Y-112499122D01*
X115854719Y-112515896D01*
X115792106Y-112551016D01*
X115726592Y-112555710D01*
X115665579Y-112530440D01*
X115635072Y-112502124D01*
X115613089Y-112473589D01*
X115600231Y-112446284D01*
X115594588Y-112410750D01*
X115594249Y-112357524D01*
X115595988Y-112308506D01*
X115599729Y-112238482D01*
X115605659Y-112193064D01*
X115616347Y-112163440D01*
X115634361Y-112140797D01*
X115648637Y-112127855D01*
X115708349Y-112093860D01*
X115772766Y-112092165D01*
X115826781Y-112112301D01*
X115872860Y-112154352D01*
X115900311Y-112223428D01*
X115909257Y-112319910D01*
X116076329Y-112319910D01*
X116077401Y-112263299D01*
X116074036Y-112185468D01*
X116063955Y-112126930D01*
X116045774Y-112080737D01*
X116018110Y-112039942D01*
X116007854Y-112027828D01*
X115943722Y-111967474D01*
X115874934Y-111932220D01*
X115790811Y-111917450D01*
X115749791Y-111916243D01*
X115641216Y-111929104D01*
G37*
X115641216Y-111929104D02*
X115553795Y-111967754D01*
X115487430Y-112032290D01*
X115442024Y-112122812D01*
X115417482Y-112239418D01*
X115415723Y-112257624D01*
X115414344Y-112385984D01*
X115432216Y-112498496D01*
X115468250Y-112589688D01*
X115487545Y-112619022D01*
X115554755Y-112681106D01*
X115640350Y-112721316D01*
X115736110Y-112738003D01*
X115833813Y-112729517D01*
X115908083Y-112703380D01*
X115971953Y-112659335D01*
X116024154Y-112601587D01*
X116025057Y-112600236D01*
X116046256Y-112564593D01*
X116060033Y-112528752D01*
X116068376Y-112483519D01*
X116073273Y-112419701D01*
X116075431Y-112367368D01*
X116076329Y-112319910D01*
X115909257Y-112319910D01*
X115907624Y-112367154D01*
X115901696Y-112430046D01*
X115891239Y-112470407D01*
X115872381Y-112499122D01*
X115854719Y-112515896D01*
X115792106Y-112551016D01*
X115726592Y-112555710D01*
X115665579Y-112530440D01*
X115635072Y-112502124D01*
X115613089Y-112473589D01*
X115600231Y-112446284D01*
X115594588Y-112410750D01*
X115594249Y-112357524D01*
X115595988Y-112308506D01*
X115599729Y-112238482D01*
X115605659Y-112193064D01*
X115616347Y-112163440D01*
X115634361Y-112140797D01*
X115648637Y-112127855D01*
X115708349Y-112093860D01*
X115772766Y-112092165D01*
X115826781Y-112112301D01*
X115872860Y-112154352D01*
X115900311Y-112223428D01*
X115909257Y-112319910D01*
X116076329Y-112319910D01*
X116077401Y-112263299D01*
X116074036Y-112185468D01*
X116063955Y-112126930D01*
X116045774Y-112080737D01*
X116018110Y-112039942D01*
X116007854Y-112027828D01*
X115943722Y-111967474D01*
X115874934Y-111932220D01*
X115790811Y-111917450D01*
X115749791Y-111916243D01*
X115641216Y-111929104D01*
G36*
X114070982Y-111939027D02*
G01*
X114054330Y-111946866D01*
X113996695Y-111989086D01*
X113942195Y-112050700D01*
X113901501Y-112118543D01*
X113889926Y-112149734D01*
X113879366Y-112205449D01*
X113873069Y-112272781D01*
X113872304Y-112300585D01*
X113872211Y-112388316D01*
X114377150Y-112388316D01*
X114366387Y-112434270D01*
X114339967Y-112488620D01*
X114293778Y-112535591D01*
X114238828Y-112565848D01*
X114203811Y-112572131D01*
X114156323Y-112564506D01*
X114099665Y-112545383D01*
X114080418Y-112536584D01*
X114009241Y-112501036D01*
X113948498Y-112547367D01*
X113913448Y-112578703D01*
X113894798Y-112604567D01*
X113893853Y-112612158D01*
X113910515Y-112630556D01*
X113947030Y-112658515D01*
X113980172Y-112680327D01*
X114069607Y-112719537D01*
X114169871Y-112737285D01*
X114269246Y-112732670D01*
X114348461Y-112708551D01*
X114430120Y-112656884D01*
X114488151Y-112588856D01*
X114524454Y-112500843D01*
X114540928Y-112389216D01*
X114542389Y-112338138D01*
X114536543Y-112221091D01*
X114535825Y-112217686D01*
X114368511Y-112217686D01*
X114363903Y-112228662D01*
X114344964Y-112234715D01*
X114305902Y-112237310D01*
X114240923Y-112237910D01*
X114215903Y-112237921D01*
X114139779Y-112237014D01*
X114091504Y-112233720D01*
X114065540Y-112227181D01*
X114056352Y-112216537D01*
X114056027Y-112213119D01*
X114066513Y-112185956D01*
X114092758Y-112147903D01*
X114104041Y-112134579D01*
X114145928Y-112096896D01*
X114189591Y-112082080D01*
X114213115Y-112080842D01*
X114276757Y-112096329D01*
X114330127Y-112137930D01*
X114363981Y-112198353D01*
X114364581Y-112200322D01*
X114368511Y-112217686D01*
X114535825Y-112217686D01*
X114517101Y-112128928D01*
X114482078Y-112055190D01*
X114439244Y-112002848D01*
X114360052Y-111946092D01*
X114266960Y-111915762D01*
X114167945Y-111913021D01*
X114070982Y-111939027D01*
G37*
X114070982Y-111939027D02*
X114054330Y-111946866D01*
X113996695Y-111989086D01*
X113942195Y-112050700D01*
X113901501Y-112118543D01*
X113889926Y-112149734D01*
X113879366Y-112205449D01*
X113873069Y-112272781D01*
X113872304Y-112300585D01*
X113872211Y-112388316D01*
X114377150Y-112388316D01*
X114366387Y-112434270D01*
X114339967Y-112488620D01*
X114293778Y-112535591D01*
X114238828Y-112565848D01*
X114203811Y-112572131D01*
X114156323Y-112564506D01*
X114099665Y-112545383D01*
X114080418Y-112536584D01*
X114009241Y-112501036D01*
X113948498Y-112547367D01*
X113913448Y-112578703D01*
X113894798Y-112604567D01*
X113893853Y-112612158D01*
X113910515Y-112630556D01*
X113947030Y-112658515D01*
X113980172Y-112680327D01*
X114069607Y-112719537D01*
X114169871Y-112737285D01*
X114269246Y-112732670D01*
X114348461Y-112708551D01*
X114430120Y-112656884D01*
X114488151Y-112588856D01*
X114524454Y-112500843D01*
X114540928Y-112389216D01*
X114542389Y-112338138D01*
X114536543Y-112221091D01*
X114535825Y-112217686D01*
X114368511Y-112217686D01*
X114363903Y-112228662D01*
X114344964Y-112234715D01*
X114305902Y-112237310D01*
X114240923Y-112237910D01*
X114215903Y-112237921D01*
X114139779Y-112237014D01*
X114091504Y-112233720D01*
X114065540Y-112227181D01*
X114056352Y-112216537D01*
X114056027Y-112213119D01*
X114066513Y-112185956D01*
X114092758Y-112147903D01*
X114104041Y-112134579D01*
X114145928Y-112096896D01*
X114189591Y-112082080D01*
X114213115Y-112080842D01*
X114276757Y-112096329D01*
X114330127Y-112137930D01*
X114363981Y-112198353D01*
X114364581Y-112200322D01*
X114368511Y-112217686D01*
X114535825Y-112217686D01*
X114517101Y-112128928D01*
X114482078Y-112055190D01*
X114439244Y-112002848D01*
X114360052Y-111946092D01*
X114266960Y-111915762D01*
X114167945Y-111913021D01*
X114070982Y-111939027D01*
G36*
X112249372Y-111917547D02*
G01*
X112186092Y-111929548D01*
X112120443Y-111954648D01*
X112113428Y-111957848D01*
X112063644Y-111984026D01*
X112029166Y-112008353D01*
X112018022Y-112023937D01*
X112028634Y-112049353D01*
X112054412Y-112086853D01*
X112065854Y-112100852D01*
X112113008Y-112155954D01*
X112173799Y-112120086D01*
X112231653Y-112096192D01*
X112298500Y-112083420D01*
X112362606Y-112082613D01*
X112412236Y-112094615D01*
X112424146Y-112102105D01*
X112446828Y-112136450D01*
X112449584Y-112176013D01*
X112432612Y-112206920D01*
X112422573Y-112212913D01*
X112392490Y-112220357D01*
X112339611Y-112229106D01*
X112274425Y-112237467D01*
X112262400Y-112238778D01*
X112157703Y-112256888D01*
X112081768Y-112287651D01*
X112031408Y-112333907D01*
X112003436Y-112398497D01*
X111994722Y-112477387D01*
X112006760Y-112567065D01*
X112045849Y-112637486D01*
X112112145Y-112688777D01*
X112205806Y-112721067D01*
X112309777Y-112733807D01*
X112394562Y-112733654D01*
X112463335Y-112722083D01*
X112510303Y-112706109D01*
X112569650Y-112678275D01*
X112624494Y-112645973D01*
X112643987Y-112631755D01*
X112694119Y-112590835D01*
X112573197Y-112468477D01*
X112504457Y-112513967D01*
X112435512Y-112548133D01*
X112361889Y-112566004D01*
X112291117Y-112567889D01*
X112230726Y-112554101D01*
X112188243Y-112524949D01*
X112174526Y-112500352D01*
X112176583Y-112460904D01*
X112210670Y-112430737D01*
X112276692Y-112409906D01*
X112349026Y-112400279D01*
X112460348Y-112381910D01*
X112543048Y-112347254D01*
X112598235Y-112295297D01*
X112627012Y-112225023D01*
X112630999Y-112141707D01*
X112611307Y-112054681D01*
X112566411Y-111988902D01*
X112495909Y-111944068D01*
X112399399Y-111919879D01*
X112327900Y-111915137D01*
X112249372Y-111917547D01*
G37*
X112249372Y-111917547D02*
X112186092Y-111929548D01*
X112120443Y-111954648D01*
X112113428Y-111957848D01*
X112063644Y-111984026D01*
X112029166Y-112008353D01*
X112018022Y-112023937D01*
X112028634Y-112049353D01*
X112054412Y-112086853D01*
X112065854Y-112100852D01*
X112113008Y-112155954D01*
X112173799Y-112120086D01*
X112231653Y-112096192D01*
X112298500Y-112083420D01*
X112362606Y-112082613D01*
X112412236Y-112094615D01*
X112424146Y-112102105D01*
X112446828Y-112136450D01*
X112449584Y-112176013D01*
X112432612Y-112206920D01*
X112422573Y-112212913D01*
X112392490Y-112220357D01*
X112339611Y-112229106D01*
X112274425Y-112237467D01*
X112262400Y-112238778D01*
X112157703Y-112256888D01*
X112081768Y-112287651D01*
X112031408Y-112333907D01*
X112003436Y-112398497D01*
X111994722Y-112477387D01*
X112006760Y-112567065D01*
X112045849Y-112637486D01*
X112112145Y-112688777D01*
X112205806Y-112721067D01*
X112309777Y-112733807D01*
X112394562Y-112733654D01*
X112463335Y-112722083D01*
X112510303Y-112706109D01*
X112569650Y-112678275D01*
X112624494Y-112645973D01*
X112643987Y-112631755D01*
X112694119Y-112590835D01*
X112573197Y-112468477D01*
X112504457Y-112513967D01*
X112435512Y-112548133D01*
X112361889Y-112566004D01*
X112291117Y-112567889D01*
X112230726Y-112554101D01*
X112188243Y-112524949D01*
X112174526Y-112500352D01*
X112176583Y-112460904D01*
X112210670Y-112430737D01*
X112276692Y-112409906D01*
X112349026Y-112400279D01*
X112460348Y-112381910D01*
X112543048Y-112347254D01*
X112598235Y-112295297D01*
X112627012Y-112225023D01*
X112630999Y-112141707D01*
X112611307Y-112054681D01*
X112566411Y-111988902D01*
X112495909Y-111944068D01*
X112399399Y-111919879D01*
X112327900Y-111915137D01*
X112249372Y-111917547D01*
G36*
X111456331Y-111930310D02*
G01*
X111371808Y-111976340D01*
X111305679Y-112049006D01*
X111274522Y-112108106D01*
X111261145Y-112160305D01*
X111252478Y-112234719D01*
X111248763Y-112320442D01*
X111250246Y-112406569D01*
X111257169Y-112482193D01*
X111265255Y-112522584D01*
X111292535Y-112577840D01*
X111339780Y-112636530D01*
X111396718Y-112687852D01*
X111453076Y-112721005D01*
X111454450Y-112721531D01*
X111524384Y-112736018D01*
X111607263Y-112736377D01*
X111686023Y-112723188D01*
X111716434Y-112712617D01*
X111794761Y-112668201D01*
X111850857Y-112610007D01*
X111887714Y-112532965D01*
X111908320Y-112432001D01*
X111912982Y-112379116D01*
X111912387Y-112312663D01*
X111733264Y-112312663D01*
X111727230Y-112409630D01*
X111709862Y-112483523D01*
X111682260Y-112530736D01*
X111662596Y-112544237D01*
X111612213Y-112553651D01*
X111552327Y-112550864D01*
X111500551Y-112537316D01*
X111486973Y-112529862D01*
X111451151Y-112486451D01*
X111427507Y-112420014D01*
X111417442Y-112339161D01*
X111422358Y-112252502D01*
X111433345Y-112200349D01*
X111464891Y-112139951D01*
X111514689Y-112102197D01*
X111574663Y-112089143D01*
X111636736Y-112102849D01*
X111684418Y-112136372D01*
X111709475Y-112164031D01*
X111724100Y-112191294D01*
X111731071Y-112228190D01*
X111733167Y-112284750D01*
X111733264Y-112312663D01*
X111912387Y-112312663D01*
X111911718Y-112237994D01*
X111888735Y-112122271D01*
X111844028Y-112031941D01*
X111777595Y-111967000D01*
X111689435Y-111927445D01*
X111670505Y-111922858D01*
X111556734Y-111912090D01*
X111456331Y-111930310D01*
G37*
X111456331Y-111930310D02*
X111371808Y-111976340D01*
X111305679Y-112049006D01*
X111274522Y-112108106D01*
X111261145Y-112160305D01*
X111252478Y-112234719D01*
X111248763Y-112320442D01*
X111250246Y-112406569D01*
X111257169Y-112482193D01*
X111265255Y-112522584D01*
X111292535Y-112577840D01*
X111339780Y-112636530D01*
X111396718Y-112687852D01*
X111453076Y-112721005D01*
X111454450Y-112721531D01*
X111524384Y-112736018D01*
X111607263Y-112736377D01*
X111686023Y-112723188D01*
X111716434Y-112712617D01*
X111794761Y-112668201D01*
X111850857Y-112610007D01*
X111887714Y-112532965D01*
X111908320Y-112432001D01*
X111912982Y-112379116D01*
X111912387Y-112312663D01*
X111733264Y-112312663D01*
X111727230Y-112409630D01*
X111709862Y-112483523D01*
X111682260Y-112530736D01*
X111662596Y-112544237D01*
X111612213Y-112553651D01*
X111552327Y-112550864D01*
X111500551Y-112537316D01*
X111486973Y-112529862D01*
X111451151Y-112486451D01*
X111427507Y-112420014D01*
X111417442Y-112339161D01*
X111422358Y-112252502D01*
X111433345Y-112200349D01*
X111464891Y-112139951D01*
X111514689Y-112102197D01*
X111574663Y-112089143D01*
X111636736Y-112102849D01*
X111684418Y-112136372D01*
X111709475Y-112164031D01*
X111724100Y-112191294D01*
X111731071Y-112228190D01*
X111733167Y-112284750D01*
X111733264Y-112312663D01*
X111912387Y-112312663D01*
X111911718Y-112237994D01*
X111888735Y-112122271D01*
X111844028Y-112031941D01*
X111777595Y-111967000D01*
X111689435Y-111927445D01*
X111670505Y-111922858D01*
X111556734Y-111912090D01*
X111456331Y-111930310D01*
G36*
X110947869Y-112180533D02*
G01*
X110946290Y-112303089D01*
X110940519Y-112396179D01*
X110929009Y-112463651D01*
X110910210Y-112509355D01*
X110882574Y-112537139D01*
X110844552Y-112550854D01*
X110797474Y-112554358D01*
X110748168Y-112550432D01*
X110710717Y-112536089D01*
X110683572Y-112507478D01*
X110665185Y-112460751D01*
X110654007Y-112392058D01*
X110648489Y-112297550D01*
X110647079Y-112180533D01*
X110647079Y-111920421D01*
X110463264Y-111920421D01*
X110463264Y-112722526D01*
X110555172Y-112722526D01*
X110610578Y-112720281D01*
X110639109Y-112712396D01*
X110647079Y-112697428D01*
X110651880Y-112684097D01*
X110670986Y-112686917D01*
X110709496Y-112705783D01*
X110797761Y-112734887D01*
X110891377Y-112732825D01*
X110981079Y-112701221D01*
X111023796Y-112676257D01*
X111056379Y-112649226D01*
X111080183Y-112615405D01*
X111096561Y-112570068D01*
X111106869Y-112508489D01*
X111112459Y-112425943D01*
X111114688Y-112317705D01*
X111114974Y-112234004D01*
X111114974Y-111920421D01*
X110947869Y-111920421D01*
X110947869Y-112180533D01*
G37*
X110947869Y-112180533D02*
X110946290Y-112303089D01*
X110940519Y-112396179D01*
X110929009Y-112463651D01*
X110910210Y-112509355D01*
X110882574Y-112537139D01*
X110844552Y-112550854D01*
X110797474Y-112554358D01*
X110748168Y-112550432D01*
X110710717Y-112536089D01*
X110683572Y-112507478D01*
X110665185Y-112460751D01*
X110654007Y-112392058D01*
X110648489Y-112297550D01*
X110647079Y-112180533D01*
X110647079Y-111920421D01*
X110463264Y-111920421D01*
X110463264Y-112722526D01*
X110555172Y-112722526D01*
X110610578Y-112720281D01*
X110639109Y-112712396D01*
X110647079Y-112697428D01*
X110651880Y-112684097D01*
X110670986Y-112686917D01*
X110709496Y-112705783D01*
X110797761Y-112734887D01*
X110891377Y-112732825D01*
X110981079Y-112701221D01*
X111023796Y-112676257D01*
X111056379Y-112649226D01*
X111080183Y-112615405D01*
X111096561Y-112570068D01*
X111106869Y-112508489D01*
X111112459Y-112425943D01*
X111114688Y-112317705D01*
X111114974Y-112234004D01*
X111114974Y-111920421D01*
X110947869Y-111920421D01*
X110947869Y-112180533D01*
G36*
X109321424Y-111927419D02*
G01*
X109224605Y-111968549D01*
X109194110Y-111988571D01*
X109155135Y-112019340D01*
X109130669Y-112043533D01*
X109126422Y-112051413D01*
X109138416Y-112068899D01*
X109169113Y-112098570D01*
X109193688Y-112119279D01*
X109260954Y-112173336D01*
X109314070Y-112128642D01*
X109355116Y-112099789D01*
X109395137Y-112089829D01*
X109440941Y-112092261D01*
X109513676Y-112110345D01*
X109563744Y-112147881D01*
X109594171Y-112208562D01*
X109607983Y-112296081D01*
X109607987Y-112296136D01*
X109606792Y-112393958D01*
X109588228Y-112465730D01*
X109551196Y-112514595D01*
X109525950Y-112531143D01*
X109458903Y-112551749D01*
X109387291Y-112551762D01*
X109324985Y-112531768D01*
X109310237Y-112522000D01*
X109273250Y-112497047D01*
X109244332Y-112492958D01*
X109213144Y-112511530D01*
X109178664Y-112544887D01*
X109124088Y-112601196D01*
X109184682Y-112651142D01*
X109278302Y-112707513D01*
X109383875Y-112735293D01*
X109494202Y-112733282D01*
X109566657Y-112714862D01*
X109651344Y-112669310D01*
X109719073Y-112597650D01*
X109749843Y-112547066D01*
X109774764Y-112474488D01*
X109787234Y-112382569D01*
X109787330Y-112282948D01*
X109775130Y-112187267D01*
X109750710Y-112107169D01*
X109746864Y-112098956D01*
X109689907Y-112018413D01*
X109612791Y-111959771D01*
X109521610Y-111924247D01*
X109422457Y-111913057D01*
X109321424Y-111927419D01*
G37*
X109321424Y-111927419D02*
X109224605Y-111968549D01*
X109194110Y-111988571D01*
X109155135Y-112019340D01*
X109130669Y-112043533D01*
X109126422Y-112051413D01*
X109138416Y-112068899D01*
X109169113Y-112098570D01*
X109193688Y-112119279D01*
X109260954Y-112173336D01*
X109314070Y-112128642D01*
X109355116Y-112099789D01*
X109395137Y-112089829D01*
X109440941Y-112092261D01*
X109513676Y-112110345D01*
X109563744Y-112147881D01*
X109594171Y-112208562D01*
X109607983Y-112296081D01*
X109607987Y-112296136D01*
X109606792Y-112393958D01*
X109588228Y-112465730D01*
X109551196Y-112514595D01*
X109525950Y-112531143D01*
X109458903Y-112551749D01*
X109387291Y-112551762D01*
X109324985Y-112531768D01*
X109310237Y-112522000D01*
X109273250Y-112497047D01*
X109244332Y-112492958D01*
X109213144Y-112511530D01*
X109178664Y-112544887D01*
X109124088Y-112601196D01*
X109184682Y-112651142D01*
X109278302Y-112707513D01*
X109383875Y-112735293D01*
X109494202Y-112733282D01*
X109566657Y-112714862D01*
X109651344Y-112669310D01*
X109719073Y-112597650D01*
X109749843Y-112547066D01*
X109774764Y-112474488D01*
X109787234Y-112382569D01*
X109787330Y-112282948D01*
X109775130Y-112187267D01*
X109750710Y-112107169D01*
X109746864Y-112098956D01*
X109689907Y-112018413D01*
X109612791Y-111959771D01*
X109521610Y-111924247D01*
X109422457Y-111913057D01*
X109321424Y-111927419D01*
G36*
X108709216Y-111917554D02*
G01*
X108666426Y-111927949D01*
X108584391Y-111966013D01*
X108514243Y-112024149D01*
X108465695Y-112093852D01*
X108459025Y-112109502D01*
X108449876Y-112150496D01*
X108443471Y-112211138D01*
X108441290Y-112272430D01*
X108441290Y-112388316D01*
X108683593Y-112388316D01*
X108783529Y-112388693D01*
X108853931Y-112390987D01*
X108898687Y-112396938D01*
X108921685Y-112408285D01*
X108926811Y-112426771D01*
X108917952Y-112454136D01*
X108902083Y-112486155D01*
X108857816Y-112539592D01*
X108796301Y-112566215D01*
X108721115Y-112565347D01*
X108635947Y-112536371D01*
X108562341Y-112500611D01*
X108501266Y-112548904D01*
X108440190Y-112597197D01*
X108497649Y-112650285D01*
X108574359Y-112700445D01*
X108668698Y-112730688D01*
X108770173Y-112739151D01*
X108868289Y-112723974D01*
X108884119Y-112718824D01*
X108970353Y-112673791D01*
X109034499Y-112606652D01*
X109077909Y-112515405D01*
X109101936Y-112398044D01*
X109102216Y-112395529D01*
X109104367Y-112267627D01*
X109095671Y-112221997D01*
X108925895Y-112221997D01*
X108910303Y-112229013D01*
X108867971Y-112234388D01*
X108805566Y-112237457D01*
X108766019Y-112237921D01*
X108692272Y-112237630D01*
X108646160Y-112235783D01*
X108621900Y-112230912D01*
X108613706Y-112221555D01*
X108615794Y-112206245D01*
X108617545Y-112200322D01*
X108647440Y-112144668D01*
X108694458Y-112099815D01*
X108735951Y-112080105D01*
X108791074Y-112081295D01*
X108846932Y-112105875D01*
X108893788Y-112146570D01*
X108921906Y-112196108D01*
X108925895Y-112221997D01*
X109095671Y-112221997D01*
X109082926Y-112155133D01*
X109040389Y-112060727D01*
X108979253Y-111987088D01*
X108902015Y-111936893D01*
X108811170Y-111912822D01*
X108709216Y-111917554D01*
G37*
X108709216Y-111917554D02*
X108666426Y-111927949D01*
X108584391Y-111966013D01*
X108514243Y-112024149D01*
X108465695Y-112093852D01*
X108459025Y-112109502D01*
X108449876Y-112150496D01*
X108443471Y-112211138D01*
X108441290Y-112272430D01*
X108441290Y-112388316D01*
X108683593Y-112388316D01*
X108783529Y-112388693D01*
X108853931Y-112390987D01*
X108898687Y-112396938D01*
X108921685Y-112408285D01*
X108926811Y-112426771D01*
X108917952Y-112454136D01*
X108902083Y-112486155D01*
X108857816Y-112539592D01*
X108796301Y-112566215D01*
X108721115Y-112565347D01*
X108635947Y-112536371D01*
X108562341Y-112500611D01*
X108501266Y-112548904D01*
X108440190Y-112597197D01*
X108497649Y-112650285D01*
X108574359Y-112700445D01*
X108668698Y-112730688D01*
X108770173Y-112739151D01*
X108868289Y-112723974D01*
X108884119Y-112718824D01*
X108970353Y-112673791D01*
X109034499Y-112606652D01*
X109077909Y-112515405D01*
X109101936Y-112398044D01*
X109102216Y-112395529D01*
X109104367Y-112267627D01*
X109095671Y-112221997D01*
X108925895Y-112221997D01*
X108910303Y-112229013D01*
X108867971Y-112234388D01*
X108805566Y-112237457D01*
X108766019Y-112237921D01*
X108692272Y-112237630D01*
X108646160Y-112235783D01*
X108621900Y-112230912D01*
X108613706Y-112221555D01*
X108615794Y-112206245D01*
X108617545Y-112200322D01*
X108647440Y-112144668D01*
X108694458Y-112099815D01*
X108735951Y-112080105D01*
X108791074Y-112081295D01*
X108846932Y-112105875D01*
X108893788Y-112146570D01*
X108921906Y-112196108D01*
X108925895Y-112221997D01*
X109095671Y-112221997D01*
X109082926Y-112155133D01*
X109040389Y-112060727D01*
X108979253Y-111987088D01*
X108902015Y-111936893D01*
X108811170Y-111912822D01*
X108709216Y-111917554D01*
G36*
X113270043Y-111934226D02*
G01*
X113228454Y-111954090D01*
X113188175Y-111982784D01*
X113157490Y-112015809D01*
X113135139Y-112057931D01*
X113119864Y-112113915D01*
X113110408Y-112188528D01*
X113105513Y-112286535D01*
X113103919Y-112412702D01*
X113103894Y-112425914D01*
X113103527Y-112722526D01*
X113287343Y-112722526D01*
X113287343Y-112449081D01*
X113287473Y-112347777D01*
X113288379Y-112274353D01*
X113290827Y-112223271D01*
X113295586Y-112188990D01*
X113303426Y-112165971D01*
X113315115Y-112148673D01*
X113331398Y-112131581D01*
X113388366Y-112094857D01*
X113450555Y-112088042D01*
X113509801Y-112111261D01*
X113530405Y-112128543D01*
X113545530Y-112144791D01*
X113556390Y-112162191D01*
X113563690Y-112186212D01*
X113568137Y-112222322D01*
X113570436Y-112275988D01*
X113571296Y-112352680D01*
X113571422Y-112446043D01*
X113571422Y-112722526D01*
X113755237Y-112722526D01*
X113755237Y-111920421D01*
X113663329Y-111920421D01*
X113608149Y-111922603D01*
X113579680Y-111930351D01*
X113571425Y-111945468D01*
X113571422Y-111945916D01*
X113567592Y-111960720D01*
X113550699Y-111959040D01*
X113517112Y-111942773D01*
X113440937Y-111918840D01*
X113353800Y-111916178D01*
X113270043Y-111934226D01*
G37*
X113270043Y-111934226D02*
X113228454Y-111954090D01*
X113188175Y-111982784D01*
X113157490Y-112015809D01*
X113135139Y-112057931D01*
X113119864Y-112113915D01*
X113110408Y-112188528D01*
X113105513Y-112286535D01*
X113103919Y-112412702D01*
X113103894Y-112425914D01*
X113103527Y-112722526D01*
X113287343Y-112722526D01*
X113287343Y-112449081D01*
X113287473Y-112347777D01*
X113288379Y-112274353D01*
X113290827Y-112223271D01*
X113295586Y-112188990D01*
X113303426Y-112165971D01*
X113315115Y-112148673D01*
X113331398Y-112131581D01*
X113388366Y-112094857D01*
X113450555Y-112088042D01*
X113509801Y-112111261D01*
X113530405Y-112128543D01*
X113545530Y-112144791D01*
X113556390Y-112162191D01*
X113563690Y-112186212D01*
X113568137Y-112222322D01*
X113570436Y-112275988D01*
X113571296Y-112352680D01*
X113571422Y-112446043D01*
X113571422Y-112722526D01*
X113755237Y-112722526D01*
X113755237Y-111920421D01*
X113663329Y-111920421D01*
X113608149Y-111922603D01*
X113579680Y-111930351D01*
X113571425Y-111945468D01*
X113571422Y-111945916D01*
X113567592Y-111960720D01*
X113550699Y-111959040D01*
X113517112Y-111942773D01*
X113440937Y-111918840D01*
X113353800Y-111916178D01*
X113270043Y-111934226D01*
G36*
X109876612Y-111919645D02*
G01*
X109819135Y-111937206D01*
X109782128Y-111959395D01*
X109770073Y-111976942D01*
X109773391Y-111997742D01*
X109794921Y-112030419D01*
X109813126Y-112053562D01*
X109850656Y-112095402D01*
X109878852Y-112113005D01*
X109902889Y-112111856D01*
X109974192Y-112093710D01*
X110026558Y-112094534D01*
X110069082Y-112115098D01*
X110083358Y-112127134D01*
X110129053Y-112169483D01*
X110129053Y-112722526D01*
X110312869Y-112722526D01*
X110312869Y-111920421D01*
X110220961Y-111920421D01*
X110165781Y-111922603D01*
X110137312Y-111930351D01*
X110129057Y-111945468D01*
X110129053Y-111945916D01*
X110125155Y-111961749D01*
X110107526Y-111959684D01*
X110083099Y-111948261D01*
X110032650Y-111927005D01*
X109991684Y-111914216D01*
X109938972Y-111910938D01*
X109876612Y-111919645D01*
G37*
X109876612Y-111919645D02*
X109819135Y-111937206D01*
X109782128Y-111959395D01*
X109770073Y-111976942D01*
X109773391Y-111997742D01*
X109794921Y-112030419D01*
X109813126Y-112053562D01*
X109850656Y-112095402D01*
X109878852Y-112113005D01*
X109902889Y-112111856D01*
X109974192Y-112093710D01*
X110026558Y-112094534D01*
X110069082Y-112115098D01*
X110083358Y-112127134D01*
X110129053Y-112169483D01*
X110129053Y-112722526D01*
X110312869Y-112722526D01*
X110312869Y-111920421D01*
X110220961Y-111920421D01*
X110165781Y-111922603D01*
X110137312Y-111930351D01*
X110129057Y-111945468D01*
X110129053Y-111945916D01*
X110125155Y-111961749D01*
X110107526Y-111959684D01*
X110083099Y-111948261D01*
X110032650Y-111927005D01*
X109991684Y-111914216D01*
X109938972Y-111910938D01*
X109876612Y-111919645D01*
G36*
X111767036Y-106380576D02*
G01*
X111691487Y-106781322D01*
X111133959Y-107011154D01*
X110799535Y-106783748D01*
X110705878Y-106720431D01*
X110621218Y-106663896D01*
X110549505Y-106616727D01*
X110494689Y-106581502D01*
X110460720Y-106560805D01*
X110451470Y-106556342D01*
X110434805Y-106567820D01*
X110399194Y-106599551D01*
X110348629Y-106647483D01*
X110287100Y-106707562D01*
X110218601Y-106775733D01*
X110147121Y-106847945D01*
X110076653Y-106920142D01*
X110011189Y-106988273D01*
X109954720Y-107048283D01*
X109911237Y-107096119D01*
X109884732Y-107127727D01*
X109878395Y-107138305D01*
X109887514Y-107157806D01*
X109913080Y-107200531D01*
X109952403Y-107262298D01*
X110002797Y-107338931D01*
X110061573Y-107426248D01*
X110095632Y-107476052D01*
X110157711Y-107566993D01*
X110212874Y-107649059D01*
X110258446Y-107718163D01*
X110291750Y-107770222D01*
X110310110Y-107801150D01*
X110312869Y-107807650D01*
X110306615Y-107826121D01*
X110289566Y-107869172D01*
X110264297Y-107930749D01*
X110233378Y-108004799D01*
X110199382Y-108085270D01*
X110164882Y-108166107D01*
X110132449Y-108241258D01*
X110104657Y-108304671D01*
X110084077Y-108350293D01*
X110073281Y-108372069D01*
X110072644Y-108372926D01*
X110055693Y-108377084D01*
X110010549Y-108386361D01*
X109941890Y-108399844D01*
X109854398Y-108416621D01*
X109752750Y-108435781D01*
X109693444Y-108446830D01*
X109584828Y-108467510D01*
X109486723Y-108487189D01*
X109404091Y-108504789D01*
X109341896Y-108519233D01*
X109305101Y-108529446D01*
X109297704Y-108532686D01*
X109290460Y-108554617D01*
X109284615Y-108604147D01*
X109280165Y-108675485D01*
X109277107Y-108762839D01*
X109275435Y-108860417D01*
X109275147Y-108962426D01*
X109276239Y-109063075D01*
X109278706Y-109156572D01*
X109282544Y-109237125D01*
X109287750Y-109298942D01*
X109294319Y-109336230D01*
X109298259Y-109343993D01*
X109321812Y-109353298D01*
X109371718Y-109366600D01*
X109441377Y-109382337D01*
X109524187Y-109398946D01*
X109553095Y-109404319D01*
X109692469Y-109429848D01*
X109802564Y-109450408D01*
X109887018Y-109466815D01*
X109949470Y-109479887D01*
X109993556Y-109490441D01*
X110022915Y-109499294D01*
X110041185Y-109507263D01*
X110052002Y-109515165D01*
X110053515Y-109516727D01*
X110068623Y-109541886D01*
X110091671Y-109590850D01*
X110120356Y-109657621D01*
X110152378Y-109736205D01*
X110185435Y-109820607D01*
X110217227Y-109904830D01*
X110245451Y-109982879D01*
X110267807Y-110048759D01*
X110281993Y-110096473D01*
X110285707Y-110120027D01*
X110285398Y-110120852D01*
X110272811Y-110140104D01*
X110244256Y-110182463D01*
X110202733Y-110243521D01*
X110151244Y-110318868D01*
X110092789Y-110404096D01*
X110076142Y-110428315D01*
X110016785Y-110516123D01*
X109964553Y-110596238D01*
X109922292Y-110664062D01*
X109892847Y-110714993D01*
X109879063Y-110744431D01*
X109878395Y-110748048D01*
X109889976Y-110767057D01*
X109921976Y-110804714D01*
X109970282Y-110856973D01*
X110030780Y-110919786D01*
X110099356Y-110989106D01*
X110171896Y-111060885D01*
X110244288Y-111131077D01*
X110312416Y-111195635D01*
X110372168Y-111250510D01*
X110419429Y-111291656D01*
X110450087Y-111315026D01*
X110458568Y-111318842D01*
X110478309Y-111309855D01*
X110518726Y-111285616D01*
X110573237Y-111250209D01*
X110615177Y-111221711D01*
X110691171Y-111169418D01*
X110781166Y-111107845D01*
X110871436Y-111046370D01*
X110919968Y-111013469D01*
X111084238Y-110902359D01*
X111222131Y-110976916D01*
X111284951Y-111009578D01*
X111338371Y-111034966D01*
X111374516Y-111049446D01*
X111383716Y-111051460D01*
X111394779Y-111036584D01*
X111416606Y-110994547D01*
X111447566Y-110929227D01*
X111486030Y-110844500D01*
X111530368Y-110744245D01*
X111578953Y-110632339D01*
X111630154Y-110512659D01*
X111682341Y-110389084D01*
X111733887Y-110265491D01*
X111783160Y-110145757D01*
X111828533Y-110033759D01*
X111868375Y-109933377D01*
X111901058Y-109848486D01*
X111924951Y-109782965D01*
X111938426Y-109740690D01*
X111940594Y-109726172D01*
X111923417Y-109707653D01*
X111885810Y-109677590D01*
X111835634Y-109642232D01*
X111831422Y-109639434D01*
X111701736Y-109535625D01*
X111597166Y-109414515D01*
X111518619Y-109279976D01*
X111467001Y-109135882D01*
X111443218Y-108986105D01*
X111448177Y-108834517D01*
X111482783Y-108684992D01*
X111547943Y-108541400D01*
X111567114Y-108509984D01*
X111666826Y-108383125D01*
X111784623Y-108281255D01*
X111916429Y-108204904D01*
X112058167Y-108154602D01*
X112205758Y-108130879D01*
X112355127Y-108134265D01*
X112502197Y-108165288D01*
X112642889Y-108224480D01*
X112773127Y-108312369D01*
X112813414Y-108348042D01*
X112915945Y-108459706D01*
X112990659Y-108577257D01*
X113041910Y-108709020D01*
X113070454Y-108839507D01*
X113077500Y-108986216D01*
X113054004Y-109133653D01*
X113002351Y-109276834D01*
X112924929Y-109410777D01*
X112824125Y-109530498D01*
X112702324Y-109631014D01*
X112686316Y-109641609D01*
X112635602Y-109676306D01*
X112597050Y-109706370D01*
X112578619Y-109725565D01*
X112578351Y-109726172D01*
X112582308Y-109746936D01*
X112597993Y-109794062D01*
X112623778Y-109863673D01*
X112658031Y-109951893D01*
X112699123Y-110054844D01*
X112745424Y-110168650D01*
X112795304Y-110289435D01*
X112847133Y-110413321D01*
X112899281Y-110536432D01*
X112950118Y-110654891D01*
X112998013Y-110764823D01*
X113041338Y-110862349D01*
X113078462Y-110943593D01*
X113107756Y-111004679D01*
X113127588Y-111041730D01*
X113135574Y-111051460D01*
X113159979Y-111043883D01*
X113205642Y-111023560D01*
X113264690Y-110994125D01*
X113297160Y-110976916D01*
X113435053Y-110902359D01*
X113599323Y-111013469D01*
X113683179Y-111070390D01*
X113774987Y-111133030D01*
X113861020Y-111192011D01*
X113904113Y-111221711D01*
X113964723Y-111262410D01*
X114016045Y-111294663D01*
X114051385Y-111314384D01*
X114062863Y-111318554D01*
X114079570Y-111307307D01*
X114116546Y-111275911D01*
X114170205Y-111227624D01*
X114236962Y-111165708D01*
X114313234Y-111093421D01*
X114361473Y-111047008D01*
X114445867Y-110964087D01*
X114518803Y-110889920D01*
X114577331Y-110827680D01*
X114618503Y-110780541D01*
X114639372Y-110751673D01*
X114641374Y-110745815D01*
X114632083Y-110723532D01*
X114606409Y-110678477D01*
X114567200Y-110615211D01*
X114517303Y-110538295D01*
X114459567Y-110452292D01*
X114443149Y-110428315D01*
X114383323Y-110341170D01*
X114329650Y-110262710D01*
X114285130Y-110197345D01*
X114252765Y-110149484D01*
X114235555Y-110123535D01*
X114233893Y-110120852D01*
X114236379Y-110100172D01*
X114249577Y-110054704D01*
X114271186Y-109990444D01*
X114298904Y-109913387D01*
X114330430Y-109829529D01*
X114363463Y-109744866D01*
X114395701Y-109665392D01*
X114424843Y-109597104D01*
X114448588Y-109545997D01*
X114464635Y-109518067D01*
X114465775Y-109516727D01*
X114475588Y-109508745D01*
X114492161Y-109500851D01*
X114519132Y-109492229D01*
X114560139Y-109482062D01*
X114618820Y-109469531D01*
X114698813Y-109453821D01*
X114803755Y-109434113D01*
X114937285Y-109409592D01*
X114966196Y-109404319D01*
X115051882Y-109387764D01*
X115126582Y-109371569D01*
X115183694Y-109357296D01*
X115216617Y-109346508D01*
X115221031Y-109343993D01*
X115228306Y-109321696D01*
X115234219Y-109271869D01*
X115238766Y-109200304D01*
X115241945Y-109112793D01*
X115243749Y-109015128D01*
X115244177Y-108913101D01*
X115243223Y-108812503D01*
X115240884Y-108719127D01*
X115237156Y-108638765D01*
X115232034Y-108577209D01*
X115225516Y-108540250D01*
X115221586Y-108532686D01*
X115199708Y-108525056D01*
X115149891Y-108512642D01*
X115077097Y-108496522D01*
X114986289Y-108477773D01*
X114882431Y-108457471D01*
X114825846Y-108446830D01*
X114718486Y-108426760D01*
X114622746Y-108408580D01*
X114543306Y-108393199D01*
X114484846Y-108381531D01*
X114452045Y-108374488D01*
X114446646Y-108372926D01*
X114437522Y-108355322D01*
X114418235Y-108312918D01*
X114391355Y-108251772D01*
X114359454Y-108177943D01*
X114325102Y-108097489D01*
X114290871Y-108016468D01*
X114259331Y-107940937D01*
X114233054Y-107876955D01*
X114214611Y-107830580D01*
X114206571Y-107807869D01*
X114206422Y-107806876D01*
X114215535Y-107788961D01*
X114241086Y-107747733D01*
X114280388Y-107687291D01*
X114330757Y-107611731D01*
X114389506Y-107525152D01*
X114423658Y-107475421D01*
X114485890Y-107384236D01*
X114541164Y-107301449D01*
X114586782Y-107231249D01*
X114620048Y-107177824D01*
X114638264Y-107145361D01*
X114640895Y-107138083D01*
X114629586Y-107121145D01*
X114598319Y-107084978D01*
X114551090Y-107033635D01*
X114491892Y-106971167D01*
X114424719Y-106901626D01*
X114353566Y-106829065D01*
X114282426Y-106757535D01*
X114215293Y-106691087D01*
X114156161Y-106633774D01*
X114109025Y-106589647D01*
X114077877Y-106562759D01*
X114067457Y-106556342D01*
X114050491Y-106565365D01*
X114009911Y-106590715D01*
X113949663Y-106629810D01*
X113873693Y-106680071D01*
X113785946Y-106738917D01*
X113719756Y-106783748D01*
X113385332Y-107011154D01*
X113106567Y-106896238D01*
X112827803Y-106781322D01*
X112752254Y-106380576D01*
X112676706Y-105979829D01*
X111842585Y-105979829D01*
X111767036Y-106380576D01*
G37*
X111767036Y-106380576D02*
X111691487Y-106781322D01*
X111133959Y-107011154D01*
X110799535Y-106783748D01*
X110705878Y-106720431D01*
X110621218Y-106663896D01*
X110549505Y-106616727D01*
X110494689Y-106581502D01*
X110460720Y-106560805D01*
X110451470Y-106556342D01*
X110434805Y-106567820D01*
X110399194Y-106599551D01*
X110348629Y-106647483D01*
X110287100Y-106707562D01*
X110218601Y-106775733D01*
X110147121Y-106847945D01*
X110076653Y-106920142D01*
X110011189Y-106988273D01*
X109954720Y-107048283D01*
X109911237Y-107096119D01*
X109884732Y-107127727D01*
X109878395Y-107138305D01*
X109887514Y-107157806D01*
X109913080Y-107200531D01*
X109952403Y-107262298D01*
X110002797Y-107338931D01*
X110061573Y-107426248D01*
X110095632Y-107476052D01*
X110157711Y-107566993D01*
X110212874Y-107649059D01*
X110258446Y-107718163D01*
X110291750Y-107770222D01*
X110310110Y-107801150D01*
X110312869Y-107807650D01*
X110306615Y-107826121D01*
X110289566Y-107869172D01*
X110264297Y-107930749D01*
X110233378Y-108004799D01*
X110199382Y-108085270D01*
X110164882Y-108166107D01*
X110132449Y-108241258D01*
X110104657Y-108304671D01*
X110084077Y-108350293D01*
X110073281Y-108372069D01*
X110072644Y-108372926D01*
X110055693Y-108377084D01*
X110010549Y-108386361D01*
X109941890Y-108399844D01*
X109854398Y-108416621D01*
X109752750Y-108435781D01*
X109693444Y-108446830D01*
X109584828Y-108467510D01*
X109486723Y-108487189D01*
X109404091Y-108504789D01*
X109341896Y-108519233D01*
X109305101Y-108529446D01*
X109297704Y-108532686D01*
X109290460Y-108554617D01*
X109284615Y-108604147D01*
X109280165Y-108675485D01*
X109277107Y-108762839D01*
X109275435Y-108860417D01*
X109275147Y-108962426D01*
X109276239Y-109063075D01*
X109278706Y-109156572D01*
X109282544Y-109237125D01*
X109287750Y-109298942D01*
X109294319Y-109336230D01*
X109298259Y-109343993D01*
X109321812Y-109353298D01*
X109371718Y-109366600D01*
X109441377Y-109382337D01*
X109524187Y-109398946D01*
X109553095Y-109404319D01*
X109692469Y-109429848D01*
X109802564Y-109450408D01*
X109887018Y-109466815D01*
X109949470Y-109479887D01*
X109993556Y-109490441D01*
X110022915Y-109499294D01*
X110041185Y-109507263D01*
X110052002Y-109515165D01*
X110053515Y-109516727D01*
X110068623Y-109541886D01*
X110091671Y-109590850D01*
X110120356Y-109657621D01*
X110152378Y-109736205D01*
X110185435Y-109820607D01*
X110217227Y-109904830D01*
X110245451Y-109982879D01*
X110267807Y-110048759D01*
X110281993Y-110096473D01*
X110285707Y-110120027D01*
X110285398Y-110120852D01*
X110272811Y-110140104D01*
X110244256Y-110182463D01*
X110202733Y-110243521D01*
X110151244Y-110318868D01*
X110092789Y-110404096D01*
X110076142Y-110428315D01*
X110016785Y-110516123D01*
X109964553Y-110596238D01*
X109922292Y-110664062D01*
X109892847Y-110714993D01*
X109879063Y-110744431D01*
X109878395Y-110748048D01*
X109889976Y-110767057D01*
X109921976Y-110804714D01*
X109970282Y-110856973D01*
X110030780Y-110919786D01*
X110099356Y-110989106D01*
X110171896Y-111060885D01*
X110244288Y-111131077D01*
X110312416Y-111195635D01*
X110372168Y-111250510D01*
X110419429Y-111291656D01*
X110450087Y-111315026D01*
X110458568Y-111318842D01*
X110478309Y-111309855D01*
X110518726Y-111285616D01*
X110573237Y-111250209D01*
X110615177Y-111221711D01*
X110691171Y-111169418D01*
X110781166Y-111107845D01*
X110871436Y-111046370D01*
X110919968Y-111013469D01*
X111084238Y-110902359D01*
X111222131Y-110976916D01*
X111284951Y-111009578D01*
X111338371Y-111034966D01*
X111374516Y-111049446D01*
X111383716Y-111051460D01*
X111394779Y-111036584D01*
X111416606Y-110994547D01*
X111447566Y-110929227D01*
X111486030Y-110844500D01*
X111530368Y-110744245D01*
X111578953Y-110632339D01*
X111630154Y-110512659D01*
X111682341Y-110389084D01*
X111733887Y-110265491D01*
X111783160Y-110145757D01*
X111828533Y-110033759D01*
X111868375Y-109933377D01*
X111901058Y-109848486D01*
X111924951Y-109782965D01*
X111938426Y-109740690D01*
X111940594Y-109726172D01*
X111923417Y-109707653D01*
X111885810Y-109677590D01*
X111835634Y-109642232D01*
X111831422Y-109639434D01*
X111701736Y-109535625D01*
X111597166Y-109414515D01*
X111518619Y-109279976D01*
X111467001Y-109135882D01*
X111443218Y-108986105D01*
X111448177Y-108834517D01*
X111482783Y-108684992D01*
X111547943Y-108541400D01*
X111567114Y-108509984D01*
X111666826Y-108383125D01*
X111784623Y-108281255D01*
X111916429Y-108204904D01*
X112058167Y-108154602D01*
X112205758Y-108130879D01*
X112355127Y-108134265D01*
X112502197Y-108165288D01*
X112642889Y-108224480D01*
X112773127Y-108312369D01*
X112813414Y-108348042D01*
X112915945Y-108459706D01*
X112990659Y-108577257D01*
X113041910Y-108709020D01*
X113070454Y-108839507D01*
X113077500Y-108986216D01*
X113054004Y-109133653D01*
X113002351Y-109276834D01*
X112924929Y-109410777D01*
X112824125Y-109530498D01*
X112702324Y-109631014D01*
X112686316Y-109641609D01*
X112635602Y-109676306D01*
X112597050Y-109706370D01*
X112578619Y-109725565D01*
X112578351Y-109726172D01*
X112582308Y-109746936D01*
X112597993Y-109794062D01*
X112623778Y-109863673D01*
X112658031Y-109951893D01*
X112699123Y-110054844D01*
X112745424Y-110168650D01*
X112795304Y-110289435D01*
X112847133Y-110413321D01*
X112899281Y-110536432D01*
X112950118Y-110654891D01*
X112998013Y-110764823D01*
X113041338Y-110862349D01*
X113078462Y-110943593D01*
X113107756Y-111004679D01*
X113127588Y-111041730D01*
X113135574Y-111051460D01*
X113159979Y-111043883D01*
X113205642Y-111023560D01*
X113264690Y-110994125D01*
X113297160Y-110976916D01*
X113435053Y-110902359D01*
X113599323Y-111013469D01*
X113683179Y-111070390D01*
X113774987Y-111133030D01*
X113861020Y-111192011D01*
X113904113Y-111221711D01*
X113964723Y-111262410D01*
X114016045Y-111294663D01*
X114051385Y-111314384D01*
X114062863Y-111318554D01*
X114079570Y-111307307D01*
X114116546Y-111275911D01*
X114170205Y-111227624D01*
X114236962Y-111165708D01*
X114313234Y-111093421D01*
X114361473Y-111047008D01*
X114445867Y-110964087D01*
X114518803Y-110889920D01*
X114577331Y-110827680D01*
X114618503Y-110780541D01*
X114639372Y-110751673D01*
X114641374Y-110745815D01*
X114632083Y-110723532D01*
X114606409Y-110678477D01*
X114567200Y-110615211D01*
X114517303Y-110538295D01*
X114459567Y-110452292D01*
X114443149Y-110428315D01*
X114383323Y-110341170D01*
X114329650Y-110262710D01*
X114285130Y-110197345D01*
X114252765Y-110149484D01*
X114235555Y-110123535D01*
X114233893Y-110120852D01*
X114236379Y-110100172D01*
X114249577Y-110054704D01*
X114271186Y-109990444D01*
X114298904Y-109913387D01*
X114330430Y-109829529D01*
X114363463Y-109744866D01*
X114395701Y-109665392D01*
X114424843Y-109597104D01*
X114448588Y-109545997D01*
X114464635Y-109518067D01*
X114465775Y-109516727D01*
X114475588Y-109508745D01*
X114492161Y-109500851D01*
X114519132Y-109492229D01*
X114560139Y-109482062D01*
X114618820Y-109469531D01*
X114698813Y-109453821D01*
X114803755Y-109434113D01*
X114937285Y-109409592D01*
X114966196Y-109404319D01*
X115051882Y-109387764D01*
X115126582Y-109371569D01*
X115183694Y-109357296D01*
X115216617Y-109346508D01*
X115221031Y-109343993D01*
X115228306Y-109321696D01*
X115234219Y-109271869D01*
X115238766Y-109200304D01*
X115241945Y-109112793D01*
X115243749Y-109015128D01*
X115244177Y-108913101D01*
X115243223Y-108812503D01*
X115240884Y-108719127D01*
X115237156Y-108638765D01*
X115232034Y-108577209D01*
X115225516Y-108540250D01*
X115221586Y-108532686D01*
X115199708Y-108525056D01*
X115149891Y-108512642D01*
X115077097Y-108496522D01*
X114986289Y-108477773D01*
X114882431Y-108457471D01*
X114825846Y-108446830D01*
X114718486Y-108426760D01*
X114622746Y-108408580D01*
X114543306Y-108393199D01*
X114484846Y-108381531D01*
X114452045Y-108374488D01*
X114446646Y-108372926D01*
X114437522Y-108355322D01*
X114418235Y-108312918D01*
X114391355Y-108251772D01*
X114359454Y-108177943D01*
X114325102Y-108097489D01*
X114290871Y-108016468D01*
X114259331Y-107940937D01*
X114233054Y-107876955D01*
X114214611Y-107830580D01*
X114206571Y-107807869D01*
X114206422Y-107806876D01*
X114215535Y-107788961D01*
X114241086Y-107747733D01*
X114280388Y-107687291D01*
X114330757Y-107611731D01*
X114389506Y-107525152D01*
X114423658Y-107475421D01*
X114485890Y-107384236D01*
X114541164Y-107301449D01*
X114586782Y-107231249D01*
X114620048Y-107177824D01*
X114638264Y-107145361D01*
X114640895Y-107138083D01*
X114629586Y-107121145D01*
X114598319Y-107084978D01*
X114551090Y-107033635D01*
X114491892Y-106971167D01*
X114424719Y-106901626D01*
X114353566Y-106829065D01*
X114282426Y-106757535D01*
X114215293Y-106691087D01*
X114156161Y-106633774D01*
X114109025Y-106589647D01*
X114077877Y-106562759D01*
X114067457Y-106556342D01*
X114050491Y-106565365D01*
X114009911Y-106590715D01*
X113949663Y-106629810D01*
X113873693Y-106680071D01*
X113785946Y-106738917D01*
X113719756Y-106783748D01*
X113385332Y-107011154D01*
X113106567Y-106896238D01*
X112827803Y-106781322D01*
X112752254Y-106380576D01*
X112676706Y-105979829D01*
X111842585Y-105979829D01*
X111767036Y-106380576D01*
M02*
