M48
INCH,TZ
T1C0.0315
T2C0.0354
T3C0.0394
T4C0.0551
%
G90
G05
T1
X43516Y-46900
X43613Y-44600
X44400Y-44600
X44500Y-46900
X47100Y-43150
X47100Y-44500
X47100Y-47500
X48100Y-44500
X48100Y-47500
X49100Y-44500
X49100Y-47500
X50100Y-43150
X50100Y-44500
X50100Y-47500
X51100Y-38900
X51100Y-39900
X51100Y-40900
X51100Y-41900
X51100Y-43150
X51100Y-44500
X51100Y-47500
X51150Y-35700
X51150Y-37200
X52100Y-44500
X52100Y-47500
X53100Y-44500
X53100Y-47500
X54100Y-38900
X54100Y-39900
X54100Y-40900
X54100Y-41900
X54100Y-43150
X54100Y-44500
X54100Y-47500
X54150Y-35700
X54150Y-37200
X56500Y-38900
X56500Y-39900
X56500Y-40900
X56500Y-41900
X56500Y-37500
X58100Y-44500
X58887Y-44500
X59500Y-38900
X59500Y-39900
X59500Y-40900
X59500Y-41900
X59500Y-37500
T2
X57500Y-35950
X58500Y-35950
T3
X56900Y-46700
X56900Y-47700
X57900Y-46700
X57900Y-47700
X58900Y-46700
X58900Y-47700
T4
X43247Y-39831
X44231Y-35894
X44231Y-40815
X46200Y-39831
X48169Y-35894
X48169Y-40815
X49153Y-39831
T0
M30
