G04 #@! TF.GenerationSoftware,KiCad,Pcbnew,5.1.9+dfsg1-1*
G04 #@! TF.CreationDate,2021-03-03T12:24:53-06:00*
G04 #@! TF.ProjectId,C64UserPortMidi,43363455-7365-4725-906f-72744d696469,rev?*
G04 #@! TF.SameCoordinates,Original*
G04 #@! TF.FileFunction,Copper,L1,Top*
G04 #@! TF.FilePolarity,Positive*
%FSLAX46Y46*%
G04 Gerber Fmt 4.6, Leading zero omitted, Abs format (unit mm)*
G04 Created by KiCad (PCBNEW 5.1.9+dfsg1-1) date 2021-03-03 12:24:53*
%MOMM*%
%LPD*%
G01*
G04 APERTURE LIST*
G04 #@! TA.AperFunction,ComponentPad*
%ADD10C,2.500000*%
G04 #@! TD*
G04 #@! TA.AperFunction,ComponentPad*
%ADD11O,1.600000X1.600000*%
G04 #@! TD*
G04 #@! TA.AperFunction,ComponentPad*
%ADD12R,1.600000X1.600000*%
G04 #@! TD*
G04 #@! TA.AperFunction,ComponentPad*
%ADD13C,1.600000*%
G04 #@! TD*
G04 #@! TA.AperFunction,ComponentPad*
%ADD14R,1.700000X1.700000*%
G04 #@! TD*
G04 #@! TA.AperFunction,ComponentPad*
%ADD15O,1.700000X1.700000*%
G04 #@! TD*
G04 #@! TA.AperFunction,ComponentPad*
%ADD16R,2.400000X1.600000*%
G04 #@! TD*
G04 #@! TA.AperFunction,ComponentPad*
%ADD17O,2.400000X1.600000*%
G04 #@! TD*
G04 #@! TA.AperFunction,ComponentPad*
%ADD18R,1.600000X2.400000*%
G04 #@! TD*
G04 #@! TA.AperFunction,ComponentPad*
%ADD19O,1.600000X2.400000*%
G04 #@! TD*
G04 #@! TA.AperFunction,ComponentPad*
%ADD20R,1.800000X1.800000*%
G04 #@! TD*
G04 #@! TA.AperFunction,ComponentPad*
%ADD21C,1.800000*%
G04 #@! TD*
G04 #@! TA.AperFunction,Conductor*
%ADD22C,0.750000*%
G04 #@! TD*
G04 #@! TA.AperFunction,Conductor*
%ADD23C,0.500000*%
G04 #@! TD*
G04 #@! TA.AperFunction,Conductor*
%ADD24C,1.000000*%
G04 #@! TD*
G04 #@! TA.AperFunction,Conductor*
%ADD25C,0.254000*%
G04 #@! TD*
G04 #@! TA.AperFunction,Conductor*
%ADD26C,0.150000*%
G04 #@! TD*
G04 APERTURE END LIST*
D10*
X124848000Y-101171000D03*
X112348000Y-103671000D03*
X117348000Y-101171000D03*
X109848000Y-101171000D03*
X122348000Y-103671000D03*
X112348000Y-91171000D03*
X122348000Y-91171000D03*
G04 #@! TA.AperFunction,SMDPad,CuDef*
G36*
G01*
X107994000Y-134328000D02*
X107994000Y-125768000D01*
G75*
G02*
X108214000Y-125548000I220000J0D01*
G01*
X109974000Y-125548000D01*
G75*
G02*
X110194000Y-125768000I0J-220000D01*
G01*
X110194000Y-134328000D01*
G75*
G02*
X109974000Y-134548000I-220000J0D01*
G01*
X108214000Y-134548000D01*
G75*
G02*
X107994000Y-134328000I0J220000D01*
G01*
G37*
G04 #@! TD.AperFunction*
G04 #@! TA.AperFunction,SMDPad,CuDef*
G36*
G01*
X111954000Y-134328000D02*
X111954000Y-125768000D01*
G75*
G02*
X112174000Y-125548000I220000J0D01*
G01*
X113934000Y-125548000D01*
G75*
G02*
X114154000Y-125768000I0J-220000D01*
G01*
X114154000Y-134328000D01*
G75*
G02*
X113934000Y-134548000I-220000J0D01*
G01*
X112174000Y-134548000D01*
G75*
G02*
X111954000Y-134328000I0J220000D01*
G01*
G37*
G04 #@! TD.AperFunction*
G04 #@! TA.AperFunction,SMDPad,CuDef*
G36*
G01*
X115914000Y-134328000D02*
X115914000Y-125768000D01*
G75*
G02*
X116134000Y-125548000I220000J0D01*
G01*
X117894000Y-125548000D01*
G75*
G02*
X118114000Y-125768000I0J-220000D01*
G01*
X118114000Y-134328000D01*
G75*
G02*
X117894000Y-134548000I-220000J0D01*
G01*
X116134000Y-134548000D01*
G75*
G02*
X115914000Y-134328000I0J220000D01*
G01*
G37*
G04 #@! TD.AperFunction*
G04 #@! TA.AperFunction,SMDPad,CuDef*
G36*
G01*
X119874000Y-134328000D02*
X119874000Y-125768000D01*
G75*
G02*
X120094000Y-125548000I220000J0D01*
G01*
X121854000Y-125548000D01*
G75*
G02*
X122074000Y-125768000I0J-220000D01*
G01*
X122074000Y-134328000D01*
G75*
G02*
X121854000Y-134548000I-220000J0D01*
G01*
X120094000Y-134548000D01*
G75*
G02*
X119874000Y-134328000I0J220000D01*
G01*
G37*
G04 #@! TD.AperFunction*
G04 #@! TA.AperFunction,SMDPad,CuDef*
G36*
G01*
X123834000Y-134328000D02*
X123834000Y-125768000D01*
G75*
G02*
X124054000Y-125548000I220000J0D01*
G01*
X125814000Y-125548000D01*
G75*
G02*
X126034000Y-125768000I0J-220000D01*
G01*
X126034000Y-134328000D01*
G75*
G02*
X125814000Y-134548000I-220000J0D01*
G01*
X124054000Y-134548000D01*
G75*
G02*
X123834000Y-134328000I0J220000D01*
G01*
G37*
G04 #@! TD.AperFunction*
G04 #@! TA.AperFunction,SMDPad,CuDef*
G36*
G01*
X127794000Y-134328000D02*
X127794000Y-125768000D01*
G75*
G02*
X128014000Y-125548000I220000J0D01*
G01*
X129774000Y-125548000D01*
G75*
G02*
X129994000Y-125768000I0J-220000D01*
G01*
X129994000Y-134328000D01*
G75*
G02*
X129774000Y-134548000I-220000J0D01*
G01*
X128014000Y-134548000D01*
G75*
G02*
X127794000Y-134328000I0J220000D01*
G01*
G37*
G04 #@! TD.AperFunction*
G04 #@! TA.AperFunction,SMDPad,CuDef*
G36*
G01*
X131754000Y-134328000D02*
X131754000Y-125768000D01*
G75*
G02*
X131974000Y-125548000I220000J0D01*
G01*
X133734000Y-125548000D01*
G75*
G02*
X133954000Y-125768000I0J-220000D01*
G01*
X133954000Y-134328000D01*
G75*
G02*
X133734000Y-134548000I-220000J0D01*
G01*
X131974000Y-134548000D01*
G75*
G02*
X131754000Y-134328000I0J220000D01*
G01*
G37*
G04 #@! TD.AperFunction*
G04 #@! TA.AperFunction,SMDPad,CuDef*
G36*
G01*
X135714000Y-134328000D02*
X135714000Y-125768000D01*
G75*
G02*
X135934000Y-125548000I220000J0D01*
G01*
X137694000Y-125548000D01*
G75*
G02*
X137914000Y-125768000I0J-220000D01*
G01*
X137914000Y-134328000D01*
G75*
G02*
X137694000Y-134548000I-220000J0D01*
G01*
X135934000Y-134548000D01*
G75*
G02*
X135714000Y-134328000I0J220000D01*
G01*
G37*
G04 #@! TD.AperFunction*
G04 #@! TA.AperFunction,SMDPad,CuDef*
G36*
G01*
X139674000Y-134328000D02*
X139674000Y-125768000D01*
G75*
G02*
X139894000Y-125548000I220000J0D01*
G01*
X141654000Y-125548000D01*
G75*
G02*
X141874000Y-125768000I0J-220000D01*
G01*
X141874000Y-134328000D01*
G75*
G02*
X141654000Y-134548000I-220000J0D01*
G01*
X139894000Y-134548000D01*
G75*
G02*
X139674000Y-134328000I0J220000D01*
G01*
G37*
G04 #@! TD.AperFunction*
G04 #@! TA.AperFunction,SMDPad,CuDef*
G36*
G01*
X143634000Y-134328000D02*
X143634000Y-125768000D01*
G75*
G02*
X143854000Y-125548000I220000J0D01*
G01*
X145614000Y-125548000D01*
G75*
G02*
X145834000Y-125768000I0J-220000D01*
G01*
X145834000Y-134328000D01*
G75*
G02*
X145614000Y-134548000I-220000J0D01*
G01*
X143854000Y-134548000D01*
G75*
G02*
X143634000Y-134328000I0J220000D01*
G01*
G37*
G04 #@! TD.AperFunction*
G04 #@! TA.AperFunction,SMDPad,CuDef*
G36*
G01*
X147594000Y-134328000D02*
X147594000Y-125768000D01*
G75*
G02*
X147814000Y-125548000I220000J0D01*
G01*
X149574000Y-125548000D01*
G75*
G02*
X149794000Y-125768000I0J-220000D01*
G01*
X149794000Y-134328000D01*
G75*
G02*
X149574000Y-134548000I-220000J0D01*
G01*
X147814000Y-134548000D01*
G75*
G02*
X147594000Y-134328000I0J220000D01*
G01*
G37*
G04 #@! TD.AperFunction*
G04 #@! TA.AperFunction,SMDPad,CuDef*
G36*
G01*
X151554000Y-134328000D02*
X151554000Y-125768000D01*
G75*
G02*
X151774000Y-125548000I220000J0D01*
G01*
X153534000Y-125548000D01*
G75*
G02*
X153754000Y-125768000I0J-220000D01*
G01*
X153754000Y-134328000D01*
G75*
G02*
X153534000Y-134548000I-220000J0D01*
G01*
X151774000Y-134548000D01*
G75*
G02*
X151554000Y-134328000I0J220000D01*
G01*
G37*
G04 #@! TD.AperFunction*
D11*
X129921000Y-94488000D03*
D12*
X137541000Y-94488000D03*
D13*
X149574000Y-113030000D03*
D12*
X147574000Y-113030000D03*
X112776000Y-113284000D03*
D13*
X110776000Y-113284000D03*
D14*
X144526000Y-121158000D03*
D15*
X144526000Y-118618000D03*
X147066000Y-121158000D03*
X147066000Y-118618000D03*
X149606000Y-121158000D03*
X149606000Y-118618000D03*
D13*
X129921000Y-90678000D03*
D11*
X137541000Y-90678000D03*
X137414000Y-109601000D03*
D13*
X129794000Y-109601000D03*
X127254000Y-109601000D03*
D11*
X119634000Y-109601000D03*
D16*
X143509001Y-98806000D03*
D17*
X151129001Y-106426000D03*
X143509001Y-101346000D03*
X151129001Y-103886000D03*
X143509001Y-103886000D03*
X151129001Y-101346000D03*
X143509001Y-106426000D03*
X151129001Y-98806000D03*
X137414000Y-98806000D03*
X129794000Y-106426000D03*
X137414000Y-101346000D03*
X129794000Y-103886000D03*
X137414000Y-103886000D03*
X129794000Y-101346000D03*
X137414000Y-106426000D03*
D16*
X129794000Y-98806000D03*
D18*
X137414000Y-113030000D03*
D19*
X119634000Y-120650000D03*
X134874000Y-113030000D03*
X122174000Y-120650000D03*
X132334000Y-113030000D03*
X124714000Y-120650000D03*
X129794000Y-113030000D03*
X127254000Y-120650000D03*
X127254000Y-113030000D03*
X129794000Y-120650000D03*
X124714000Y-113030000D03*
X132334000Y-120650000D03*
X122174000Y-113030000D03*
X134874000Y-120650000D03*
X119634000Y-113030000D03*
X137414000Y-120650000D03*
D13*
X113030000Y-119126000D03*
X110530000Y-119126000D03*
X143510000Y-95250000D03*
D11*
X151130000Y-95250000D03*
D20*
X146050000Y-91313000D03*
D21*
X148590000Y-91313000D03*
D22*
X117348000Y-101171000D02*
X120729000Y-97790000D01*
X126619000Y-97790000D02*
X129921000Y-94488000D01*
X120729000Y-97790000D02*
X126619000Y-97790000D01*
X126619000Y-97790000D02*
X127254000Y-98425000D01*
X127254000Y-101346000D02*
X129794000Y-103886000D01*
X127254000Y-98425000D02*
X127254000Y-101346000D01*
D23*
X137541000Y-90678000D02*
X137541000Y-94488000D01*
X137541000Y-95299000D02*
X137541000Y-94488000D01*
X131494000Y-101346000D02*
X137541000Y-95299000D01*
X129794000Y-101346000D02*
X131494000Y-101346000D01*
D22*
X151130000Y-98805001D02*
X151129001Y-98806000D01*
X137414000Y-98806000D02*
X137414000Y-98298000D01*
X144526000Y-116078000D02*
X147574000Y-113030000D01*
X144526000Y-118618000D02*
X144526000Y-116078000D01*
X143256000Y-119888000D02*
X144526000Y-118618000D01*
X137668000Y-119888000D02*
X143256000Y-119888000D01*
X151031001Y-116487001D02*
X147574000Y-113030000D01*
X151031001Y-121842001D02*
X151031001Y-116487001D01*
X148694000Y-124179002D02*
X151031001Y-121842001D01*
X148694000Y-130048000D02*
X148694000Y-124179002D01*
X152904011Y-100581010D02*
X151129001Y-98806000D01*
X152904011Y-107699989D02*
X152904011Y-100581010D01*
X147574000Y-113030000D02*
X152904011Y-107699989D01*
X115824000Y-113284000D02*
X112776000Y-113284000D01*
X122428000Y-119888000D02*
X115824000Y-113284000D01*
X135892990Y-118112990D02*
X137668000Y-119888000D01*
X124968000Y-117348000D02*
X135128000Y-117348000D01*
X135128000Y-117348000D02*
X135892990Y-118112990D01*
X122428000Y-119888000D02*
X124968000Y-117348000D01*
X136779000Y-98806000D02*
X137414000Y-98806000D01*
X134747000Y-109474000D02*
X134747000Y-100838000D01*
X134747000Y-100838000D02*
X136779000Y-98806000D01*
X129921000Y-109474000D02*
X129794000Y-109601000D01*
X134747000Y-109474000D02*
X129921000Y-109474000D01*
X145669000Y-111125000D02*
X136398000Y-111125000D01*
X136398000Y-111125000D02*
X134747000Y-109474000D01*
X147574000Y-113030000D02*
X145669000Y-111125000D01*
D24*
X109094000Y-130048000D02*
X109094000Y-124588000D01*
X152654000Y-130048000D02*
X152654000Y-124587000D01*
X152654000Y-124587000D02*
X152654000Y-124714000D01*
D23*
X146685990Y-121538010D02*
X147066000Y-121158000D01*
X149097001Y-108458000D02*
X151129001Y-106426000D01*
X142240000Y-108458000D02*
X149097001Y-108458000D01*
X137668000Y-103886000D02*
X142240000Y-108458000D01*
X137414000Y-103886000D02*
X137668000Y-103886000D01*
X141097000Y-109601000D02*
X142240000Y-108458000D01*
X137414000Y-109601000D02*
X141097000Y-109601000D01*
X149124000Y-121158000D02*
X149606000Y-121158000D01*
X144734000Y-125548000D02*
X149124000Y-121158000D01*
X144734000Y-130048000D02*
X144734000Y-125548000D01*
D22*
X112348000Y-103671000D02*
X112348000Y-101520000D01*
X112348000Y-101520000D02*
X118618000Y-95250000D01*
X125349000Y-95250000D02*
X129921000Y-90678000D01*
X118618000Y-95250000D02*
X125349000Y-95250000D01*
D23*
X125095000Y-122809000D02*
X127254000Y-120650000D01*
X116713000Y-122809000D02*
X125095000Y-122809000D01*
X113030000Y-119126000D02*
X116713000Y-122809000D01*
X148590000Y-101346999D02*
X148590000Y-91313000D01*
X151129001Y-103886000D02*
X148590000Y-101346999D01*
X132334000Y-121158000D02*
X132334000Y-120650000D01*
X134112000Y-122936000D02*
X132334000Y-121158000D01*
X142748000Y-122936000D02*
X134112000Y-122936000D01*
X144526000Y-121158000D02*
X142748000Y-122936000D01*
X146050000Y-92710000D02*
X143510000Y-95250000D01*
X146050000Y-91313000D02*
X146050000Y-92710000D01*
D25*
X152688345Y-89217909D02*
X153039008Y-89323780D01*
X153362425Y-89495744D01*
X153646284Y-89727254D01*
X153879765Y-90009486D01*
X154053983Y-90331695D01*
X154162302Y-90681614D01*
X154203801Y-91076452D01*
X154203800Y-124187618D01*
X154203801Y-124187628D01*
X154203801Y-124968000D01*
X154015957Y-124968000D01*
X153998180Y-124958498D01*
X153878482Y-124922188D01*
X153754000Y-124909928D01*
X152939750Y-124913000D01*
X152884750Y-124968000D01*
X152423250Y-124968000D01*
X152368250Y-124913000D01*
X151554000Y-124909928D01*
X151429518Y-124922188D01*
X151309820Y-124958498D01*
X151292043Y-124968000D01*
X149878486Y-124968000D01*
X149741402Y-124926416D01*
X149704000Y-124922732D01*
X149704000Y-124597357D01*
X151710101Y-122591257D01*
X151748634Y-122559634D01*
X151874848Y-122405841D01*
X151968633Y-122230381D01*
X151991651Y-122154500D01*
X152026386Y-122039996D01*
X152045887Y-121842001D01*
X152041001Y-121792393D01*
X152041001Y-116536609D01*
X152045887Y-116487001D01*
X152026386Y-116289006D01*
X151968633Y-116098621D01*
X151874847Y-115923160D01*
X151780257Y-115807901D01*
X151748634Y-115769368D01*
X151710101Y-115737745D01*
X150265669Y-114293313D01*
X150315514Y-114266671D01*
X150387097Y-114022702D01*
X149574000Y-113209605D01*
X149559858Y-113223748D01*
X149380253Y-113044143D01*
X149394395Y-113030000D01*
X149753605Y-113030000D01*
X150566702Y-113843097D01*
X150810671Y-113771514D01*
X150931571Y-113516004D01*
X151000300Y-113241816D01*
X151014217Y-112959488D01*
X150972787Y-112679870D01*
X150877603Y-112413708D01*
X150810671Y-112288486D01*
X150566702Y-112216903D01*
X149753605Y-113030000D01*
X149394395Y-113030000D01*
X149380253Y-113015858D01*
X149559858Y-112836253D01*
X149574000Y-112850395D01*
X150387097Y-112037298D01*
X150315514Y-111793329D01*
X150263594Y-111768762D01*
X153583111Y-108449245D01*
X153621644Y-108417622D01*
X153747858Y-108263829D01*
X153841643Y-108088369D01*
X153899396Y-107897983D01*
X153914011Y-107749597D01*
X153914011Y-107749596D01*
X153918897Y-107699989D01*
X153914011Y-107650381D01*
X153914011Y-100630614D01*
X153918897Y-100581009D01*
X153913421Y-100525411D01*
X153899396Y-100383016D01*
X153841643Y-100192630D01*
X153747858Y-100017170D01*
X153621644Y-99863377D01*
X153583105Y-99831749D01*
X152918899Y-99167543D01*
X152943237Y-99087309D01*
X152970944Y-98806000D01*
X152943237Y-98524691D01*
X152861183Y-98254192D01*
X152727933Y-98004899D01*
X152548609Y-97786392D01*
X152330102Y-97607068D01*
X152080809Y-97473818D01*
X151810310Y-97391764D01*
X151599493Y-97371000D01*
X150658509Y-97371000D01*
X150447692Y-97391764D01*
X150177193Y-97473818D01*
X149927900Y-97607068D01*
X149709393Y-97786392D01*
X149530069Y-98004899D01*
X149475000Y-98107926D01*
X149475000Y-95599039D01*
X149738096Y-95599039D01*
X149778754Y-95733087D01*
X149898963Y-95987420D01*
X150066481Y-96213414D01*
X150274869Y-96402385D01*
X150516119Y-96547070D01*
X150780960Y-96641909D01*
X151003000Y-96520624D01*
X151003000Y-95377000D01*
X151257000Y-95377000D01*
X151257000Y-96520624D01*
X151479040Y-96641909D01*
X151743881Y-96547070D01*
X151985131Y-96402385D01*
X152193519Y-96213414D01*
X152361037Y-95987420D01*
X152481246Y-95733087D01*
X152521904Y-95599039D01*
X152399915Y-95377000D01*
X151257000Y-95377000D01*
X151003000Y-95377000D01*
X149860085Y-95377000D01*
X149738096Y-95599039D01*
X149475000Y-95599039D01*
X149475000Y-94900961D01*
X149738096Y-94900961D01*
X149860085Y-95123000D01*
X151003000Y-95123000D01*
X151003000Y-93979376D01*
X151257000Y-93979376D01*
X151257000Y-95123000D01*
X152399915Y-95123000D01*
X152521904Y-94900961D01*
X152481246Y-94766913D01*
X152361037Y-94512580D01*
X152193519Y-94286586D01*
X151985131Y-94097615D01*
X151743881Y-93952930D01*
X151479040Y-93858091D01*
X151257000Y-93979376D01*
X151003000Y-93979376D01*
X150780960Y-93858091D01*
X150516119Y-93952930D01*
X150274869Y-94097615D01*
X150066481Y-94286586D01*
X149898963Y-94512580D01*
X149778754Y-94766913D01*
X149738096Y-94900961D01*
X149475000Y-94900961D01*
X149475000Y-92567790D01*
X149568505Y-92505312D01*
X149782312Y-92291505D01*
X149950299Y-92040095D01*
X150066011Y-91760743D01*
X150125000Y-91464184D01*
X150125000Y-91161816D01*
X150066011Y-90865257D01*
X149950299Y-90585905D01*
X149782312Y-90334495D01*
X149568505Y-90120688D01*
X149317095Y-89952701D01*
X149037743Y-89836989D01*
X148741184Y-89778000D01*
X148438816Y-89778000D01*
X148142257Y-89836989D01*
X147862905Y-89952701D01*
X147611495Y-90120688D01*
X147545056Y-90187127D01*
X147539502Y-90168820D01*
X147480537Y-90058506D01*
X147401185Y-89961815D01*
X147304494Y-89882463D01*
X147194180Y-89823498D01*
X147074482Y-89787188D01*
X146950000Y-89774928D01*
X145150000Y-89774928D01*
X145025518Y-89787188D01*
X144905820Y-89823498D01*
X144795506Y-89882463D01*
X144698815Y-89961815D01*
X144619463Y-90058506D01*
X144560498Y-90168820D01*
X144524188Y-90288518D01*
X144511928Y-90413000D01*
X144511928Y-92213000D01*
X144524188Y-92337482D01*
X144560498Y-92457180D01*
X144619463Y-92567494D01*
X144698815Y-92664185D01*
X144778687Y-92729734D01*
X143686439Y-93821983D01*
X143651335Y-93815000D01*
X143368665Y-93815000D01*
X143091426Y-93870147D01*
X142830273Y-93978320D01*
X142595241Y-94135363D01*
X142395363Y-94335241D01*
X142238320Y-94570273D01*
X142130147Y-94831426D01*
X142075000Y-95108665D01*
X142075000Y-95391335D01*
X142130147Y-95668574D01*
X142238320Y-95929727D01*
X142395363Y-96164759D01*
X142595241Y-96364637D01*
X142830273Y-96521680D01*
X143091426Y-96629853D01*
X143368665Y-96685000D01*
X143651335Y-96685000D01*
X143928574Y-96629853D01*
X144189727Y-96521680D01*
X144424759Y-96364637D01*
X144624637Y-96164759D01*
X144781680Y-95929727D01*
X144889853Y-95668574D01*
X144945000Y-95391335D01*
X144945000Y-95108665D01*
X144938017Y-95073561D01*
X146645049Y-93366530D01*
X146678817Y-93338817D01*
X146789411Y-93204059D01*
X146871589Y-93050313D01*
X146922195Y-92883490D01*
X146925388Y-92851072D01*
X146950000Y-92851072D01*
X147074482Y-92838812D01*
X147194180Y-92802502D01*
X147304494Y-92743537D01*
X147401185Y-92664185D01*
X147480537Y-92567494D01*
X147539502Y-92457180D01*
X147545056Y-92438873D01*
X147611495Y-92505312D01*
X147705001Y-92567791D01*
X147705000Y-101303530D01*
X147700719Y-101346999D01*
X147705000Y-101390468D01*
X147705000Y-101390475D01*
X147712871Y-101470392D01*
X147717805Y-101520489D01*
X147728466Y-101555632D01*
X147768411Y-101687311D01*
X147850589Y-101841057D01*
X147961183Y-101975816D01*
X147994956Y-102003533D01*
X149380247Y-103388824D01*
X149314765Y-103604691D01*
X149287058Y-103886000D01*
X149314765Y-104167309D01*
X149396819Y-104437808D01*
X149530069Y-104687101D01*
X149709393Y-104905608D01*
X149927900Y-105084932D01*
X150060859Y-105156000D01*
X149927900Y-105227068D01*
X149709393Y-105406392D01*
X149530069Y-105624899D01*
X149396819Y-105874192D01*
X149314765Y-106144691D01*
X149287058Y-106426000D01*
X149314765Y-106707309D01*
X149380247Y-106923176D01*
X148730423Y-107573000D01*
X144774530Y-107573000D01*
X144811840Y-107548601D01*
X145013501Y-107350895D01*
X145172716Y-107117646D01*
X145283368Y-106857818D01*
X145300905Y-106775039D01*
X145178916Y-106553000D01*
X143636001Y-106553000D01*
X143636001Y-106573000D01*
X143382001Y-106573000D01*
X143382001Y-106553000D01*
X141839086Y-106553000D01*
X141749549Y-106715971D01*
X139221871Y-104188293D01*
X139228236Y-104167309D01*
X139255943Y-103886000D01*
X139228236Y-103604691D01*
X139146182Y-103334192D01*
X139012932Y-103084899D01*
X138833608Y-102866392D01*
X138615101Y-102687068D01*
X138482142Y-102616000D01*
X138615101Y-102544932D01*
X138833608Y-102365608D01*
X139012932Y-102147101D01*
X139146182Y-101897808D01*
X139228236Y-101627309D01*
X139255943Y-101346000D01*
X141667058Y-101346000D01*
X141694765Y-101627309D01*
X141776819Y-101897808D01*
X141910069Y-102147101D01*
X142089393Y-102365608D01*
X142307900Y-102544932D01*
X142440859Y-102616000D01*
X142307900Y-102687068D01*
X142089393Y-102866392D01*
X141910069Y-103084899D01*
X141776819Y-103334192D01*
X141694765Y-103604691D01*
X141667058Y-103886000D01*
X141694765Y-104167309D01*
X141776819Y-104437808D01*
X141910069Y-104687101D01*
X142089393Y-104905608D01*
X142307900Y-105084932D01*
X142435742Y-105153265D01*
X142206162Y-105303399D01*
X142004501Y-105501105D01*
X141845286Y-105734354D01*
X141734634Y-105994182D01*
X141717097Y-106076961D01*
X141839086Y-106299000D01*
X143382001Y-106299000D01*
X143382001Y-106279000D01*
X143636001Y-106279000D01*
X143636001Y-106299000D01*
X145178916Y-106299000D01*
X145300905Y-106076961D01*
X145283368Y-105994182D01*
X145172716Y-105734354D01*
X145013501Y-105501105D01*
X144811840Y-105303399D01*
X144582260Y-105153265D01*
X144710102Y-105084932D01*
X144928609Y-104905608D01*
X145107933Y-104687101D01*
X145241183Y-104437808D01*
X145323237Y-104167309D01*
X145350944Y-103886000D01*
X145323237Y-103604691D01*
X145241183Y-103334192D01*
X145107933Y-103084899D01*
X144928609Y-102866392D01*
X144710102Y-102687068D01*
X144577143Y-102616000D01*
X144710102Y-102544932D01*
X144928609Y-102365608D01*
X145107933Y-102147101D01*
X145241183Y-101897808D01*
X145323237Y-101627309D01*
X145350944Y-101346000D01*
X145323237Y-101064691D01*
X145241183Y-100794192D01*
X145107933Y-100544899D01*
X144928609Y-100326392D01*
X144815519Y-100233581D01*
X144833483Y-100231812D01*
X144953181Y-100195502D01*
X145063495Y-100136537D01*
X145160186Y-100057185D01*
X145239538Y-99960494D01*
X145298503Y-99850180D01*
X145334813Y-99730482D01*
X145347073Y-99606000D01*
X145347073Y-98006000D01*
X145334813Y-97881518D01*
X145298503Y-97761820D01*
X145239538Y-97651506D01*
X145160186Y-97554815D01*
X145063495Y-97475463D01*
X144953181Y-97416498D01*
X144833483Y-97380188D01*
X144709001Y-97367928D01*
X142309001Y-97367928D01*
X142184519Y-97380188D01*
X142064821Y-97416498D01*
X141954507Y-97475463D01*
X141857816Y-97554815D01*
X141778464Y-97651506D01*
X141719499Y-97761820D01*
X141683189Y-97881518D01*
X141670929Y-98006000D01*
X141670929Y-99606000D01*
X141683189Y-99730482D01*
X141719499Y-99850180D01*
X141778464Y-99960494D01*
X141857816Y-100057185D01*
X141954507Y-100136537D01*
X142064821Y-100195502D01*
X142184519Y-100231812D01*
X142202483Y-100233581D01*
X142089393Y-100326392D01*
X141910069Y-100544899D01*
X141776819Y-100794192D01*
X141694765Y-101064691D01*
X141667058Y-101346000D01*
X139255943Y-101346000D01*
X139228236Y-101064691D01*
X139146182Y-100794192D01*
X139012932Y-100544899D01*
X138833608Y-100326392D01*
X138615101Y-100147068D01*
X138482142Y-100076000D01*
X138615101Y-100004932D01*
X138833608Y-99825608D01*
X139012932Y-99607101D01*
X139146182Y-99357808D01*
X139228236Y-99087309D01*
X139255943Y-98806000D01*
X139228236Y-98524691D01*
X139146182Y-98254192D01*
X139012932Y-98004899D01*
X138833608Y-97786392D01*
X138615101Y-97607068D01*
X138365808Y-97473818D01*
X138095309Y-97391764D01*
X137884492Y-97371000D01*
X137822271Y-97371000D01*
X137802380Y-97360368D01*
X137611994Y-97302615D01*
X137414000Y-97283114D01*
X137216007Y-97302615D01*
X137025621Y-97360368D01*
X137005730Y-97371000D01*
X136943508Y-97371000D01*
X136732691Y-97391764D01*
X136685500Y-97406079D01*
X138136051Y-95955528D01*
X138169817Y-95927817D01*
X138171249Y-95926072D01*
X138341000Y-95926072D01*
X138465482Y-95913812D01*
X138585180Y-95877502D01*
X138695494Y-95818537D01*
X138792185Y-95739185D01*
X138871537Y-95642494D01*
X138930502Y-95532180D01*
X138966812Y-95412482D01*
X138979072Y-95288000D01*
X138979072Y-93688000D01*
X138966812Y-93563518D01*
X138930502Y-93443820D01*
X138871537Y-93333506D01*
X138792185Y-93236815D01*
X138695494Y-93157463D01*
X138585180Y-93098498D01*
X138465482Y-93062188D01*
X138426000Y-93058299D01*
X138426000Y-91812521D01*
X138455759Y-91792637D01*
X138655637Y-91592759D01*
X138812680Y-91357727D01*
X138920853Y-91096574D01*
X138976000Y-90819335D01*
X138976000Y-90536665D01*
X138920853Y-90259426D01*
X138812680Y-89998273D01*
X138655637Y-89763241D01*
X138455759Y-89563363D01*
X138220727Y-89406320D01*
X137959574Y-89298147D01*
X137682335Y-89243000D01*
X137399665Y-89243000D01*
X137122426Y-89298147D01*
X136861273Y-89406320D01*
X136626241Y-89563363D01*
X136426363Y-89763241D01*
X136269320Y-89998273D01*
X136161147Y-90259426D01*
X136106000Y-90536665D01*
X136106000Y-90819335D01*
X136161147Y-91096574D01*
X136269320Y-91357727D01*
X136426363Y-91592759D01*
X136626241Y-91792637D01*
X136656000Y-91812521D01*
X136656001Y-93058299D01*
X136616518Y-93062188D01*
X136496820Y-93098498D01*
X136386506Y-93157463D01*
X136289815Y-93236815D01*
X136210463Y-93333506D01*
X136151498Y-93443820D01*
X136115188Y-93563518D01*
X136102928Y-93688000D01*
X136102928Y-95288000D01*
X136115188Y-95412482D01*
X136129327Y-95459094D01*
X131235434Y-100352988D01*
X131213608Y-100326392D01*
X131100518Y-100233581D01*
X131118482Y-100231812D01*
X131238180Y-100195502D01*
X131348494Y-100136537D01*
X131445185Y-100057185D01*
X131524537Y-99960494D01*
X131583502Y-99850180D01*
X131619812Y-99730482D01*
X131632072Y-99606000D01*
X131632072Y-98006000D01*
X131619812Y-97881518D01*
X131583502Y-97761820D01*
X131524537Y-97651506D01*
X131445185Y-97554815D01*
X131348494Y-97475463D01*
X131238180Y-97416498D01*
X131118482Y-97380188D01*
X130994000Y-97367928D01*
X128594000Y-97367928D01*
X128469518Y-97380188D01*
X128451789Y-97385566D01*
X129914355Y-95923000D01*
X130062335Y-95923000D01*
X130339574Y-95867853D01*
X130600727Y-95759680D01*
X130835759Y-95602637D01*
X131035637Y-95402759D01*
X131192680Y-95167727D01*
X131300853Y-94906574D01*
X131356000Y-94629335D01*
X131356000Y-94346665D01*
X131300853Y-94069426D01*
X131192680Y-93808273D01*
X131035637Y-93573241D01*
X130835759Y-93373363D01*
X130600727Y-93216320D01*
X130339574Y-93108147D01*
X130062335Y-93053000D01*
X129779665Y-93053000D01*
X129502426Y-93108147D01*
X129241273Y-93216320D01*
X129006241Y-93373363D01*
X128806363Y-93573241D01*
X128649320Y-93808273D01*
X128541147Y-94069426D01*
X128486000Y-94346665D01*
X128486000Y-94494645D01*
X126200645Y-96780000D01*
X120778604Y-96780000D01*
X120728999Y-96775114D01*
X120679394Y-96780000D01*
X120679392Y-96780000D01*
X120531006Y-96794615D01*
X120340620Y-96852368D01*
X120165160Y-96946153D01*
X120011367Y-97072367D01*
X119979739Y-97110906D01*
X117759685Y-99330960D01*
X117533656Y-99286000D01*
X117162344Y-99286000D01*
X116798166Y-99358439D01*
X116455118Y-99500534D01*
X116146382Y-99706825D01*
X115883825Y-99969382D01*
X115677534Y-100278118D01*
X115535439Y-100621166D01*
X115463000Y-100985344D01*
X115463000Y-101356656D01*
X115535439Y-101720834D01*
X115677534Y-102063882D01*
X115883825Y-102372618D01*
X116146382Y-102635175D01*
X116455118Y-102841466D01*
X116798166Y-102983561D01*
X117162344Y-103056000D01*
X117533656Y-103056000D01*
X117897834Y-102983561D01*
X118240882Y-102841466D01*
X118549618Y-102635175D01*
X118812175Y-102372618D01*
X119018466Y-102063882D01*
X119160561Y-101720834D01*
X119233000Y-101356656D01*
X119233000Y-100985344D01*
X119188040Y-100759315D01*
X121147355Y-98800000D01*
X126200645Y-98800000D01*
X126244000Y-98843355D01*
X126244001Y-99901208D01*
X126049618Y-99706825D01*
X125740882Y-99500534D01*
X125397834Y-99358439D01*
X125033656Y-99286000D01*
X124662344Y-99286000D01*
X124298166Y-99358439D01*
X123955118Y-99500534D01*
X123646382Y-99706825D01*
X123383825Y-99969382D01*
X123177534Y-100278118D01*
X123035439Y-100621166D01*
X122963000Y-100985344D01*
X122963000Y-101356656D01*
X123035439Y-101720834D01*
X123132740Y-101955740D01*
X122897834Y-101858439D01*
X122533656Y-101786000D01*
X122162344Y-101786000D01*
X121798166Y-101858439D01*
X121455118Y-102000534D01*
X121146382Y-102206825D01*
X120883825Y-102469382D01*
X120677534Y-102778118D01*
X120535439Y-103121166D01*
X120463000Y-103485344D01*
X120463000Y-103856656D01*
X120535439Y-104220834D01*
X120677534Y-104563882D01*
X120883825Y-104872618D01*
X121146382Y-105135175D01*
X121455118Y-105341466D01*
X121798166Y-105483561D01*
X122162344Y-105556000D01*
X122533656Y-105556000D01*
X122897834Y-105483561D01*
X123240882Y-105341466D01*
X123549618Y-105135175D01*
X123812175Y-104872618D01*
X124018466Y-104563882D01*
X124160561Y-104220834D01*
X124233000Y-103856656D01*
X124233000Y-103485344D01*
X124160561Y-103121166D01*
X124063260Y-102886260D01*
X124298166Y-102983561D01*
X124662344Y-103056000D01*
X125033656Y-103056000D01*
X125397834Y-102983561D01*
X125740882Y-102841466D01*
X126049618Y-102635175D01*
X126312175Y-102372618D01*
X126518466Y-102063882D01*
X126524539Y-102049220D01*
X126536368Y-102063633D01*
X126574901Y-102095256D01*
X128004102Y-103524458D01*
X127979764Y-103604691D01*
X127952057Y-103886000D01*
X127979764Y-104167309D01*
X128061818Y-104437808D01*
X128195068Y-104687101D01*
X128374392Y-104905608D01*
X128592899Y-105084932D01*
X128725858Y-105156000D01*
X128592899Y-105227068D01*
X128374392Y-105406392D01*
X128195068Y-105624899D01*
X128061818Y-105874192D01*
X127979764Y-106144691D01*
X127952057Y-106426000D01*
X127979764Y-106707309D01*
X128061818Y-106977808D01*
X128195068Y-107227101D01*
X128374392Y-107445608D01*
X128592899Y-107624932D01*
X128842192Y-107758182D01*
X129112691Y-107840236D01*
X129323508Y-107861000D01*
X130264492Y-107861000D01*
X130475309Y-107840236D01*
X130745808Y-107758182D01*
X130995101Y-107624932D01*
X131213608Y-107445608D01*
X131392932Y-107227101D01*
X131526182Y-106977808D01*
X131608236Y-106707309D01*
X131635943Y-106426000D01*
X131608236Y-106144691D01*
X131526182Y-105874192D01*
X131392932Y-105624899D01*
X131213608Y-105406392D01*
X130995101Y-105227068D01*
X130862142Y-105156000D01*
X130995101Y-105084932D01*
X131213608Y-104905608D01*
X131392932Y-104687101D01*
X131526182Y-104437808D01*
X131608236Y-104167309D01*
X131635943Y-103886000D01*
X131608236Y-103604691D01*
X131526182Y-103334192D01*
X131392932Y-103084899D01*
X131213608Y-102866392D01*
X130995101Y-102687068D01*
X130862142Y-102616000D01*
X130995101Y-102544932D01*
X131213608Y-102365608D01*
X131324078Y-102231000D01*
X131450531Y-102231000D01*
X131494000Y-102235281D01*
X131537469Y-102231000D01*
X131537477Y-102231000D01*
X131667490Y-102218195D01*
X131834313Y-102167589D01*
X131988059Y-102085411D01*
X132122817Y-101974817D01*
X132150534Y-101941044D01*
X135614079Y-98477499D01*
X135599764Y-98524691D01*
X135596247Y-98560397D01*
X134067901Y-100088744D01*
X134029368Y-100120367D01*
X133997745Y-100158900D01*
X133997744Y-100158901D01*
X133903154Y-100274160D01*
X133809368Y-100449621D01*
X133751615Y-100640006D01*
X133732114Y-100838000D01*
X133737001Y-100887618D01*
X133737000Y-108464000D01*
X130675290Y-108464000D01*
X130473727Y-108329320D01*
X130212574Y-108221147D01*
X129935335Y-108166000D01*
X129652665Y-108166000D01*
X129375426Y-108221147D01*
X129114273Y-108329320D01*
X128879241Y-108486363D01*
X128679363Y-108686241D01*
X128524000Y-108918759D01*
X128368637Y-108686241D01*
X128168759Y-108486363D01*
X127933727Y-108329320D01*
X127672574Y-108221147D01*
X127395335Y-108166000D01*
X127112665Y-108166000D01*
X126835426Y-108221147D01*
X126574273Y-108329320D01*
X126339241Y-108486363D01*
X126139363Y-108686241D01*
X125982320Y-108921273D01*
X125874147Y-109182426D01*
X125819000Y-109459665D01*
X125819000Y-109742335D01*
X125874147Y-110019574D01*
X125982320Y-110280727D01*
X126139363Y-110515759D01*
X126339241Y-110715637D01*
X126574273Y-110872680D01*
X126835426Y-110980853D01*
X127112665Y-111036000D01*
X127395335Y-111036000D01*
X127672574Y-110980853D01*
X127933727Y-110872680D01*
X128168759Y-110715637D01*
X128368637Y-110515759D01*
X128524000Y-110283241D01*
X128679363Y-110515759D01*
X128879241Y-110715637D01*
X129114273Y-110872680D01*
X129375426Y-110980853D01*
X129652665Y-111036000D01*
X129935335Y-111036000D01*
X130212574Y-110980853D01*
X130473727Y-110872680D01*
X130708759Y-110715637D01*
X130908637Y-110515759D01*
X130929858Y-110484000D01*
X134328645Y-110484000D01*
X135050040Y-111205396D01*
X134874000Y-111188057D01*
X134592692Y-111215764D01*
X134322193Y-111297818D01*
X134072900Y-111431068D01*
X133854393Y-111610392D01*
X133675068Y-111828899D01*
X133604000Y-111961858D01*
X133532932Y-111828899D01*
X133353608Y-111610392D01*
X133135101Y-111431068D01*
X132885808Y-111297818D01*
X132615309Y-111215764D01*
X132334000Y-111188057D01*
X132052692Y-111215764D01*
X131782193Y-111297818D01*
X131532900Y-111431068D01*
X131314393Y-111610392D01*
X131135068Y-111828899D01*
X131064000Y-111961858D01*
X130992932Y-111828899D01*
X130813608Y-111610392D01*
X130595101Y-111431068D01*
X130345808Y-111297818D01*
X130075309Y-111215764D01*
X129794000Y-111188057D01*
X129512692Y-111215764D01*
X129242193Y-111297818D01*
X128992900Y-111431068D01*
X128774393Y-111610392D01*
X128595068Y-111828899D01*
X128524000Y-111961858D01*
X128452932Y-111828899D01*
X128273608Y-111610392D01*
X128055101Y-111431068D01*
X127805808Y-111297818D01*
X127535309Y-111215764D01*
X127254000Y-111188057D01*
X126972692Y-111215764D01*
X126702193Y-111297818D01*
X126452900Y-111431068D01*
X126234393Y-111610392D01*
X126055068Y-111828899D01*
X125984000Y-111961858D01*
X125912932Y-111828899D01*
X125733608Y-111610392D01*
X125515101Y-111431068D01*
X125265808Y-111297818D01*
X124995309Y-111215764D01*
X124714000Y-111188057D01*
X124432692Y-111215764D01*
X124162193Y-111297818D01*
X123912900Y-111431068D01*
X123694393Y-111610392D01*
X123515068Y-111828899D01*
X123444000Y-111961858D01*
X123372932Y-111828899D01*
X123193608Y-111610392D01*
X122975101Y-111431068D01*
X122725808Y-111297818D01*
X122455309Y-111215764D01*
X122174000Y-111188057D01*
X121892692Y-111215764D01*
X121622193Y-111297818D01*
X121372900Y-111431068D01*
X121154393Y-111610392D01*
X120975068Y-111828899D01*
X120906735Y-111956741D01*
X120756601Y-111727161D01*
X120558895Y-111525500D01*
X120325646Y-111366285D01*
X120065818Y-111255633D01*
X119983039Y-111238096D01*
X119761000Y-111360085D01*
X119761000Y-112903000D01*
X119781000Y-112903000D01*
X119781000Y-113157000D01*
X119761000Y-113157000D01*
X119761000Y-114699915D01*
X119983039Y-114821904D01*
X120065818Y-114804367D01*
X120325646Y-114693715D01*
X120558895Y-114534500D01*
X120756601Y-114332839D01*
X120906735Y-114103258D01*
X120975068Y-114231100D01*
X121154392Y-114449607D01*
X121372899Y-114628932D01*
X121622192Y-114762182D01*
X121892691Y-114844236D01*
X122174000Y-114871943D01*
X122455308Y-114844236D01*
X122725807Y-114762182D01*
X122975100Y-114628932D01*
X123193607Y-114449608D01*
X123372932Y-114231101D01*
X123444000Y-114098142D01*
X123515068Y-114231100D01*
X123694392Y-114449607D01*
X123912899Y-114628932D01*
X124162192Y-114762182D01*
X124432691Y-114844236D01*
X124714000Y-114871943D01*
X124995308Y-114844236D01*
X125265807Y-114762182D01*
X125515100Y-114628932D01*
X125733607Y-114449608D01*
X125912932Y-114231101D01*
X125984000Y-114098142D01*
X126055068Y-114231100D01*
X126234392Y-114449607D01*
X126452899Y-114628932D01*
X126702192Y-114762182D01*
X126972691Y-114844236D01*
X127254000Y-114871943D01*
X127535308Y-114844236D01*
X127805807Y-114762182D01*
X128055100Y-114628932D01*
X128273607Y-114449608D01*
X128452932Y-114231101D01*
X128524000Y-114098142D01*
X128595068Y-114231100D01*
X128774392Y-114449607D01*
X128992899Y-114628932D01*
X129242192Y-114762182D01*
X129512691Y-114844236D01*
X129794000Y-114871943D01*
X130075308Y-114844236D01*
X130345807Y-114762182D01*
X130595100Y-114628932D01*
X130813607Y-114449608D01*
X130992932Y-114231101D01*
X131064000Y-114098142D01*
X131135068Y-114231100D01*
X131314392Y-114449607D01*
X131532899Y-114628932D01*
X131782192Y-114762182D01*
X132052691Y-114844236D01*
X132334000Y-114871943D01*
X132615308Y-114844236D01*
X132885807Y-114762182D01*
X133135100Y-114628932D01*
X133353607Y-114449608D01*
X133532932Y-114231101D01*
X133604000Y-114098142D01*
X133675068Y-114231100D01*
X133854392Y-114449607D01*
X134072899Y-114628932D01*
X134322192Y-114762182D01*
X134592691Y-114844236D01*
X134874000Y-114871943D01*
X135155308Y-114844236D01*
X135425807Y-114762182D01*
X135675100Y-114628932D01*
X135893607Y-114449608D01*
X135986419Y-114336517D01*
X135988188Y-114354482D01*
X136024498Y-114474180D01*
X136083463Y-114584494D01*
X136162815Y-114681185D01*
X136259506Y-114760537D01*
X136369820Y-114819502D01*
X136489518Y-114855812D01*
X136614000Y-114868072D01*
X138214000Y-114868072D01*
X138338482Y-114855812D01*
X138458180Y-114819502D01*
X138568494Y-114760537D01*
X138665185Y-114681185D01*
X138744537Y-114584494D01*
X138803502Y-114474180D01*
X138839812Y-114354482D01*
X138852072Y-114230000D01*
X138852072Y-112135000D01*
X145250645Y-112135000D01*
X146135928Y-113020284D01*
X146135928Y-113039716D01*
X143846901Y-115328744D01*
X143808368Y-115360367D01*
X143776745Y-115398900D01*
X143776744Y-115398901D01*
X143682154Y-115514160D01*
X143588368Y-115689621D01*
X143530615Y-115880006D01*
X143511114Y-116078000D01*
X143516001Y-116127617D01*
X143516000Y-117527893D01*
X143372525Y-117671368D01*
X143210010Y-117914589D01*
X143098068Y-118184842D01*
X143041000Y-118471740D01*
X143041000Y-118674645D01*
X142837645Y-118878000D01*
X138086355Y-118878000D01*
X135877261Y-116668906D01*
X135845633Y-116630367D01*
X135691840Y-116504153D01*
X135516380Y-116410368D01*
X135325994Y-116352615D01*
X135177608Y-116338000D01*
X135128000Y-116333114D01*
X135078392Y-116338000D01*
X125017604Y-116338000D01*
X124967999Y-116333114D01*
X124918394Y-116338000D01*
X124918392Y-116338000D01*
X124770006Y-116352615D01*
X124579620Y-116410368D01*
X124404160Y-116504153D01*
X124250367Y-116630367D01*
X124218744Y-116668900D01*
X122428000Y-118459645D01*
X117125355Y-113157000D01*
X118199000Y-113157000D01*
X118199000Y-113557000D01*
X118251350Y-113834514D01*
X118356834Y-114096483D01*
X118511399Y-114332839D01*
X118709105Y-114534500D01*
X118942354Y-114693715D01*
X119202182Y-114804367D01*
X119284961Y-114821904D01*
X119507000Y-114699915D01*
X119507000Y-113157000D01*
X118199000Y-113157000D01*
X117125355Y-113157000D01*
X116573261Y-112604906D01*
X116541633Y-112566367D01*
X116464420Y-112503000D01*
X118199000Y-112503000D01*
X118199000Y-112903000D01*
X119507000Y-112903000D01*
X119507000Y-111360085D01*
X119284961Y-111238096D01*
X119202182Y-111255633D01*
X118942354Y-111366285D01*
X118709105Y-111525500D01*
X118511399Y-111727161D01*
X118356834Y-111963517D01*
X118251350Y-112225486D01*
X118199000Y-112503000D01*
X116464420Y-112503000D01*
X116387840Y-112440153D01*
X116212380Y-112346368D01*
X116021994Y-112288615D01*
X115873608Y-112274000D01*
X115824000Y-112269114D01*
X115774392Y-112274000D01*
X114175870Y-112274000D01*
X114165502Y-112239820D01*
X114106537Y-112129506D01*
X114027185Y-112032815D01*
X113930494Y-111953463D01*
X113820180Y-111894498D01*
X113700482Y-111858188D01*
X113576000Y-111845928D01*
X111976000Y-111845928D01*
X111851518Y-111858188D01*
X111731820Y-111894498D01*
X111621506Y-111953463D01*
X111524815Y-112032815D01*
X111514193Y-112045758D01*
X111262004Y-111926429D01*
X110987816Y-111857700D01*
X110705488Y-111843783D01*
X110425870Y-111885213D01*
X110159708Y-111980397D01*
X110034486Y-112047329D01*
X109962903Y-112291298D01*
X110776000Y-113104395D01*
X110790143Y-113090253D01*
X110969748Y-113269858D01*
X110955605Y-113284000D01*
X110969748Y-113298143D01*
X110790143Y-113477748D01*
X110776000Y-113463605D01*
X109962903Y-114276702D01*
X110034486Y-114520671D01*
X110289996Y-114641571D01*
X110564184Y-114710300D01*
X110846512Y-114724217D01*
X111126130Y-114682787D01*
X111392292Y-114587603D01*
X111514309Y-114522384D01*
X111524815Y-114535185D01*
X111621506Y-114614537D01*
X111731820Y-114673502D01*
X111851518Y-114709812D01*
X111976000Y-114722072D01*
X113576000Y-114722072D01*
X113700482Y-114709812D01*
X113820180Y-114673502D01*
X113930494Y-114614537D01*
X114027185Y-114535185D01*
X114106537Y-114438494D01*
X114165502Y-114328180D01*
X114175870Y-114294000D01*
X115405645Y-114294000D01*
X119961386Y-118849741D01*
X119915309Y-118835764D01*
X119634000Y-118808057D01*
X119352692Y-118835764D01*
X119082193Y-118917818D01*
X118832900Y-119051068D01*
X118614393Y-119230392D01*
X118435068Y-119448899D01*
X118301818Y-119698192D01*
X118219764Y-119968691D01*
X118199000Y-120179508D01*
X118199000Y-121120491D01*
X118219764Y-121331308D01*
X118301818Y-121601807D01*
X118435068Y-121851100D01*
X118494895Y-121924000D01*
X117079579Y-121924000D01*
X114458017Y-119302439D01*
X114465000Y-119267335D01*
X114465000Y-118984665D01*
X114409853Y-118707426D01*
X114301680Y-118446273D01*
X114144637Y-118211241D01*
X113944759Y-118011363D01*
X113709727Y-117854320D01*
X113448574Y-117746147D01*
X113171335Y-117691000D01*
X112888665Y-117691000D01*
X112611426Y-117746147D01*
X112350273Y-117854320D01*
X112115241Y-118011363D01*
X111915363Y-118211241D01*
X111781308Y-118411869D01*
X111766671Y-118384486D01*
X111522702Y-118312903D01*
X110709605Y-119126000D01*
X111522702Y-119939097D01*
X111766671Y-119867514D01*
X111780324Y-119838659D01*
X111915363Y-120040759D01*
X112115241Y-120240637D01*
X112350273Y-120397680D01*
X112611426Y-120505853D01*
X112888665Y-120561000D01*
X113171335Y-120561000D01*
X113206439Y-120554017D01*
X116056470Y-123404049D01*
X116084183Y-123437817D01*
X116117951Y-123465530D01*
X116117953Y-123465532D01*
X116218941Y-123548411D01*
X116372686Y-123630589D01*
X116520440Y-123675410D01*
X116539510Y-123681195D01*
X116669523Y-123694000D01*
X116669531Y-123694000D01*
X116713000Y-123698281D01*
X116756469Y-123694000D01*
X125051531Y-123694000D01*
X125095000Y-123698281D01*
X125138469Y-123694000D01*
X125138477Y-123694000D01*
X125268490Y-123681195D01*
X125435313Y-123630589D01*
X125589059Y-123548411D01*
X125723817Y-123437817D01*
X125751534Y-123404044D01*
X126756824Y-122398754D01*
X126972691Y-122464236D01*
X127254000Y-122491943D01*
X127535308Y-122464236D01*
X127805807Y-122382182D01*
X128055100Y-122248932D01*
X128273607Y-122069608D01*
X128452932Y-121851101D01*
X128521265Y-121723259D01*
X128671399Y-121952839D01*
X128869105Y-122154500D01*
X129102354Y-122313715D01*
X129362182Y-122424367D01*
X129444961Y-122441904D01*
X129667000Y-122319915D01*
X129667000Y-120777000D01*
X129647000Y-120777000D01*
X129647000Y-120523000D01*
X129667000Y-120523000D01*
X129667000Y-118980085D01*
X129444961Y-118858096D01*
X129362182Y-118875633D01*
X129102354Y-118986285D01*
X128869105Y-119145500D01*
X128671399Y-119347161D01*
X128521265Y-119576741D01*
X128452932Y-119448899D01*
X128273608Y-119230392D01*
X128055101Y-119051068D01*
X127805808Y-118917818D01*
X127535309Y-118835764D01*
X127254000Y-118808057D01*
X126972692Y-118835764D01*
X126702193Y-118917818D01*
X126452900Y-119051068D01*
X126234393Y-119230392D01*
X126055068Y-119448899D01*
X125984000Y-119581858D01*
X125912932Y-119448899D01*
X125733608Y-119230392D01*
X125515101Y-119051068D01*
X125265808Y-118917818D01*
X124995309Y-118835764D01*
X124916367Y-118827989D01*
X125386356Y-118358000D01*
X134709645Y-118358000D01*
X135201386Y-118849741D01*
X135155309Y-118835764D01*
X134874000Y-118808057D01*
X134592692Y-118835764D01*
X134322193Y-118917818D01*
X134072900Y-119051068D01*
X133854393Y-119230392D01*
X133675068Y-119448899D01*
X133604000Y-119581858D01*
X133532932Y-119448899D01*
X133353608Y-119230392D01*
X133135101Y-119051068D01*
X132885808Y-118917818D01*
X132615309Y-118835764D01*
X132334000Y-118808057D01*
X132052692Y-118835764D01*
X131782193Y-118917818D01*
X131532900Y-119051068D01*
X131314393Y-119230392D01*
X131135068Y-119448899D01*
X131066735Y-119576741D01*
X130916601Y-119347161D01*
X130718895Y-119145500D01*
X130485646Y-118986285D01*
X130225818Y-118875633D01*
X130143039Y-118858096D01*
X129921000Y-118980085D01*
X129921000Y-120523000D01*
X129941000Y-120523000D01*
X129941000Y-120777000D01*
X129921000Y-120777000D01*
X129921000Y-122319915D01*
X130143039Y-122441904D01*
X130225818Y-122424367D01*
X130485646Y-122313715D01*
X130718895Y-122154500D01*
X130916601Y-121952839D01*
X131066735Y-121723258D01*
X131135068Y-121851100D01*
X131314392Y-122069607D01*
X131532899Y-122248932D01*
X131782192Y-122382182D01*
X132052691Y-122464236D01*
X132334000Y-122491943D01*
X132408980Y-122484558D01*
X133455470Y-123531049D01*
X133483183Y-123564817D01*
X133516951Y-123592530D01*
X133516953Y-123592532D01*
X133617940Y-123675410D01*
X133617941Y-123675411D01*
X133771687Y-123757589D01*
X133938510Y-123808195D01*
X134068523Y-123821000D01*
X134068531Y-123821000D01*
X134112000Y-123825281D01*
X134155469Y-123821000D01*
X142704531Y-123821000D01*
X142748000Y-123825281D01*
X142791469Y-123821000D01*
X142791477Y-123821000D01*
X142921490Y-123808195D01*
X143088313Y-123757589D01*
X143242059Y-123675411D01*
X143376817Y-123564817D01*
X143404534Y-123531044D01*
X144289507Y-122646072D01*
X145376000Y-122646072D01*
X145500482Y-122633812D01*
X145620180Y-122597502D01*
X145730494Y-122538537D01*
X145827185Y-122459185D01*
X145906537Y-122362494D01*
X145965502Y-122252180D01*
X145987513Y-122179620D01*
X146119368Y-122311475D01*
X146362589Y-122473990D01*
X146499656Y-122530765D01*
X144138951Y-124891470D01*
X144116461Y-124909928D01*
X143854000Y-124909928D01*
X143686598Y-124926416D01*
X143549514Y-124968000D01*
X141958486Y-124968000D01*
X141821402Y-124926416D01*
X141654000Y-124909928D01*
X139894000Y-124909928D01*
X139726598Y-124926416D01*
X139589514Y-124968000D01*
X137998486Y-124968000D01*
X137861402Y-124926416D01*
X137694000Y-124909928D01*
X135934000Y-124909928D01*
X135766598Y-124926416D01*
X135629514Y-124968000D01*
X134038486Y-124968000D01*
X133901402Y-124926416D01*
X133734000Y-124909928D01*
X131974000Y-124909928D01*
X131806598Y-124926416D01*
X131669514Y-124968000D01*
X130078486Y-124968000D01*
X129941402Y-124926416D01*
X129774000Y-124909928D01*
X128014000Y-124909928D01*
X127846598Y-124926416D01*
X127709514Y-124968000D01*
X126118486Y-124968000D01*
X125981402Y-124926416D01*
X125814000Y-124909928D01*
X124054000Y-124909928D01*
X123886598Y-124926416D01*
X123749514Y-124968000D01*
X122158486Y-124968000D01*
X122021402Y-124926416D01*
X121854000Y-124909928D01*
X120094000Y-124909928D01*
X119926598Y-124926416D01*
X119789514Y-124968000D01*
X118198486Y-124968000D01*
X118061402Y-124926416D01*
X117894000Y-124909928D01*
X116134000Y-124909928D01*
X115966598Y-124926416D01*
X115829514Y-124968000D01*
X114238486Y-124968000D01*
X114101402Y-124926416D01*
X113934000Y-124909928D01*
X112174000Y-124909928D01*
X112006598Y-124926416D01*
X111869514Y-124968000D01*
X110455957Y-124968000D01*
X110438180Y-124958498D01*
X110318482Y-124922188D01*
X110194000Y-124909928D01*
X109379750Y-124913000D01*
X109324750Y-124968000D01*
X108863250Y-124968000D01*
X108808250Y-124913000D01*
X107994000Y-124909928D01*
X107869518Y-124922188D01*
X107749820Y-124958498D01*
X107732043Y-124968000D01*
X107517800Y-124968000D01*
X107517800Y-120118702D01*
X109716903Y-120118702D01*
X109788486Y-120362671D01*
X110043996Y-120483571D01*
X110318184Y-120552300D01*
X110600512Y-120566217D01*
X110880130Y-120524787D01*
X111146292Y-120429603D01*
X111271514Y-120362671D01*
X111343097Y-120118702D01*
X110530000Y-119305605D01*
X109716903Y-120118702D01*
X107517800Y-120118702D01*
X107517800Y-119196512D01*
X109089783Y-119196512D01*
X109131213Y-119476130D01*
X109226397Y-119742292D01*
X109293329Y-119867514D01*
X109537298Y-119939097D01*
X110350395Y-119126000D01*
X109537298Y-118312903D01*
X109293329Y-118384486D01*
X109172429Y-118639996D01*
X109103700Y-118914184D01*
X109089783Y-119196512D01*
X107517800Y-119196512D01*
X107517800Y-118133298D01*
X109716903Y-118133298D01*
X110530000Y-118946395D01*
X111343097Y-118133298D01*
X111271514Y-117889329D01*
X111016004Y-117768429D01*
X110741816Y-117699700D01*
X110459488Y-117685783D01*
X110179870Y-117727213D01*
X109913708Y-117822397D01*
X109788486Y-117889329D01*
X109716903Y-118133298D01*
X107517800Y-118133298D01*
X107517800Y-113354512D01*
X109335783Y-113354512D01*
X109377213Y-113634130D01*
X109472397Y-113900292D01*
X109539329Y-114025514D01*
X109783298Y-114097097D01*
X110596395Y-113284000D01*
X109783298Y-112470903D01*
X109539329Y-112542486D01*
X109418429Y-112797996D01*
X109349700Y-113072184D01*
X109335783Y-113354512D01*
X107517800Y-113354512D01*
X107517800Y-109950039D01*
X118242096Y-109950039D01*
X118282754Y-110084087D01*
X118402963Y-110338420D01*
X118570481Y-110564414D01*
X118778869Y-110753385D01*
X119020119Y-110898070D01*
X119284960Y-110992909D01*
X119507000Y-110871624D01*
X119507000Y-109728000D01*
X119761000Y-109728000D01*
X119761000Y-110871624D01*
X119983040Y-110992909D01*
X120247881Y-110898070D01*
X120489131Y-110753385D01*
X120697519Y-110564414D01*
X120865037Y-110338420D01*
X120985246Y-110084087D01*
X121025904Y-109950039D01*
X120903915Y-109728000D01*
X119761000Y-109728000D01*
X119507000Y-109728000D01*
X118364085Y-109728000D01*
X118242096Y-109950039D01*
X107517800Y-109950039D01*
X107517800Y-109251961D01*
X118242096Y-109251961D01*
X118364085Y-109474000D01*
X119507000Y-109474000D01*
X119507000Y-108330376D01*
X119761000Y-108330376D01*
X119761000Y-109474000D01*
X120903915Y-109474000D01*
X121025904Y-109251961D01*
X120985246Y-109117913D01*
X120865037Y-108863580D01*
X120697519Y-108637586D01*
X120489131Y-108448615D01*
X120247881Y-108303930D01*
X119983040Y-108209091D01*
X119761000Y-108330376D01*
X119507000Y-108330376D01*
X119284960Y-108209091D01*
X119020119Y-108303930D01*
X118778869Y-108448615D01*
X118570481Y-108637586D01*
X118402963Y-108863580D01*
X118282754Y-109117913D01*
X118242096Y-109251961D01*
X107517800Y-109251961D01*
X107517800Y-100985344D01*
X107963000Y-100985344D01*
X107963000Y-101356656D01*
X108035439Y-101720834D01*
X108177534Y-102063882D01*
X108383825Y-102372618D01*
X108646382Y-102635175D01*
X108955118Y-102841466D01*
X109298166Y-102983561D01*
X109662344Y-103056000D01*
X110033656Y-103056000D01*
X110397834Y-102983561D01*
X110632740Y-102886260D01*
X110535439Y-103121166D01*
X110463000Y-103485344D01*
X110463000Y-103856656D01*
X110535439Y-104220834D01*
X110677534Y-104563882D01*
X110883825Y-104872618D01*
X111146382Y-105135175D01*
X111455118Y-105341466D01*
X111798166Y-105483561D01*
X112162344Y-105556000D01*
X112533656Y-105556000D01*
X112897834Y-105483561D01*
X113240882Y-105341466D01*
X113549618Y-105135175D01*
X113812175Y-104872618D01*
X114018466Y-104563882D01*
X114160561Y-104220834D01*
X114233000Y-103856656D01*
X114233000Y-103485344D01*
X114160561Y-103121166D01*
X114018466Y-102778118D01*
X113812175Y-102469382D01*
X113549618Y-102206825D01*
X113358000Y-102078790D01*
X113358000Y-101938355D01*
X119036355Y-96260000D01*
X125299392Y-96260000D01*
X125349000Y-96264886D01*
X125546994Y-96245385D01*
X125652388Y-96213414D01*
X125737380Y-96187632D01*
X125912840Y-96093847D01*
X126066633Y-95967633D01*
X126098261Y-95929094D01*
X129914355Y-92113000D01*
X130062335Y-92113000D01*
X130339574Y-92057853D01*
X130600727Y-91949680D01*
X130835759Y-91792637D01*
X131035637Y-91592759D01*
X131192680Y-91357727D01*
X131300853Y-91096574D01*
X131356000Y-90819335D01*
X131356000Y-90536665D01*
X131300853Y-90259426D01*
X131192680Y-89998273D01*
X131035637Y-89763241D01*
X130835759Y-89563363D01*
X130600727Y-89406320D01*
X130339574Y-89298147D01*
X130062335Y-89243000D01*
X129779665Y-89243000D01*
X129502426Y-89298147D01*
X129241273Y-89406320D01*
X129006241Y-89563363D01*
X128806363Y-89763241D01*
X128649320Y-89998273D01*
X128541147Y-90259426D01*
X128486000Y-90536665D01*
X128486000Y-90684645D01*
X124930645Y-94240000D01*
X118667604Y-94240000D01*
X118617999Y-94235114D01*
X118568394Y-94240000D01*
X118568392Y-94240000D01*
X118420006Y-94254615D01*
X118229620Y-94312368D01*
X118054160Y-94406153D01*
X117900367Y-94532367D01*
X117868739Y-94570906D01*
X111686761Y-100752884D01*
X111660561Y-100621166D01*
X111518466Y-100278118D01*
X111312175Y-99969382D01*
X111049618Y-99706825D01*
X110740882Y-99500534D01*
X110397834Y-99358439D01*
X110033656Y-99286000D01*
X109662344Y-99286000D01*
X109298166Y-99358439D01*
X108955118Y-99500534D01*
X108646382Y-99706825D01*
X108383825Y-99969382D01*
X108177534Y-100278118D01*
X108035439Y-100621166D01*
X107963000Y-100985344D01*
X107517800Y-100985344D01*
X107517800Y-91091279D01*
X107528187Y-90985344D01*
X110463000Y-90985344D01*
X110463000Y-91356656D01*
X110535439Y-91720834D01*
X110677534Y-92063882D01*
X110883825Y-92372618D01*
X111146382Y-92635175D01*
X111455118Y-92841466D01*
X111798166Y-92983561D01*
X112162344Y-93056000D01*
X112533656Y-93056000D01*
X112897834Y-92983561D01*
X113240882Y-92841466D01*
X113549618Y-92635175D01*
X113812175Y-92372618D01*
X114018466Y-92063882D01*
X114160561Y-91720834D01*
X114233000Y-91356656D01*
X114233000Y-90985344D01*
X120463000Y-90985344D01*
X120463000Y-91356656D01*
X120535439Y-91720834D01*
X120677534Y-92063882D01*
X120883825Y-92372618D01*
X121146382Y-92635175D01*
X121455118Y-92841466D01*
X121798166Y-92983561D01*
X122162344Y-93056000D01*
X122533656Y-93056000D01*
X122897834Y-92983561D01*
X123240882Y-92841466D01*
X123549618Y-92635175D01*
X123812175Y-92372618D01*
X124018466Y-92063882D01*
X124160561Y-91720834D01*
X124233000Y-91356656D01*
X124233000Y-90985344D01*
X124160561Y-90621166D01*
X124018466Y-90278118D01*
X123812175Y-89969382D01*
X123549618Y-89706825D01*
X123240882Y-89500534D01*
X122897834Y-89358439D01*
X122533656Y-89286000D01*
X122162344Y-89286000D01*
X121798166Y-89358439D01*
X121455118Y-89500534D01*
X121146382Y-89706825D01*
X120883825Y-89969382D01*
X120677534Y-90278118D01*
X120535439Y-90621166D01*
X120463000Y-90985344D01*
X114233000Y-90985344D01*
X114160561Y-90621166D01*
X114018466Y-90278118D01*
X113812175Y-89969382D01*
X113549618Y-89706825D01*
X113240882Y-89500534D01*
X112897834Y-89358439D01*
X112533656Y-89286000D01*
X112162344Y-89286000D01*
X111798166Y-89358439D01*
X111455118Y-89500534D01*
X111146382Y-89706825D01*
X110883825Y-89969382D01*
X110677534Y-90278118D01*
X110535439Y-90621166D01*
X110463000Y-90985344D01*
X107528187Y-90985344D01*
X107556709Y-90694455D01*
X107662580Y-90343792D01*
X107834544Y-90020375D01*
X108066054Y-89736516D01*
X108348286Y-89503035D01*
X108670495Y-89328817D01*
X109020414Y-89220498D01*
X109415243Y-89179000D01*
X152291521Y-89179000D01*
X152688345Y-89217909D01*
G04 #@! TA.AperFunction,Conductor*
D26*
G36*
X152688345Y-89217909D02*
G01*
X153039008Y-89323780D01*
X153362425Y-89495744D01*
X153646284Y-89727254D01*
X153879765Y-90009486D01*
X154053983Y-90331695D01*
X154162302Y-90681614D01*
X154203801Y-91076452D01*
X154203800Y-124187618D01*
X154203801Y-124187628D01*
X154203801Y-124968000D01*
X154015957Y-124968000D01*
X153998180Y-124958498D01*
X153878482Y-124922188D01*
X153754000Y-124909928D01*
X152939750Y-124913000D01*
X152884750Y-124968000D01*
X152423250Y-124968000D01*
X152368250Y-124913000D01*
X151554000Y-124909928D01*
X151429518Y-124922188D01*
X151309820Y-124958498D01*
X151292043Y-124968000D01*
X149878486Y-124968000D01*
X149741402Y-124926416D01*
X149704000Y-124922732D01*
X149704000Y-124597357D01*
X151710101Y-122591257D01*
X151748634Y-122559634D01*
X151874848Y-122405841D01*
X151968633Y-122230381D01*
X151991651Y-122154500D01*
X152026386Y-122039996D01*
X152045887Y-121842001D01*
X152041001Y-121792393D01*
X152041001Y-116536609D01*
X152045887Y-116487001D01*
X152026386Y-116289006D01*
X151968633Y-116098621D01*
X151874847Y-115923160D01*
X151780257Y-115807901D01*
X151748634Y-115769368D01*
X151710101Y-115737745D01*
X150265669Y-114293313D01*
X150315514Y-114266671D01*
X150387097Y-114022702D01*
X149574000Y-113209605D01*
X149559858Y-113223748D01*
X149380253Y-113044143D01*
X149394395Y-113030000D01*
X149753605Y-113030000D01*
X150566702Y-113843097D01*
X150810671Y-113771514D01*
X150931571Y-113516004D01*
X151000300Y-113241816D01*
X151014217Y-112959488D01*
X150972787Y-112679870D01*
X150877603Y-112413708D01*
X150810671Y-112288486D01*
X150566702Y-112216903D01*
X149753605Y-113030000D01*
X149394395Y-113030000D01*
X149380253Y-113015858D01*
X149559858Y-112836253D01*
X149574000Y-112850395D01*
X150387097Y-112037298D01*
X150315514Y-111793329D01*
X150263594Y-111768762D01*
X153583111Y-108449245D01*
X153621644Y-108417622D01*
X153747858Y-108263829D01*
X153841643Y-108088369D01*
X153899396Y-107897983D01*
X153914011Y-107749597D01*
X153914011Y-107749596D01*
X153918897Y-107699989D01*
X153914011Y-107650381D01*
X153914011Y-100630614D01*
X153918897Y-100581009D01*
X153913421Y-100525411D01*
X153899396Y-100383016D01*
X153841643Y-100192630D01*
X153747858Y-100017170D01*
X153621644Y-99863377D01*
X153583105Y-99831749D01*
X152918899Y-99167543D01*
X152943237Y-99087309D01*
X152970944Y-98806000D01*
X152943237Y-98524691D01*
X152861183Y-98254192D01*
X152727933Y-98004899D01*
X152548609Y-97786392D01*
X152330102Y-97607068D01*
X152080809Y-97473818D01*
X151810310Y-97391764D01*
X151599493Y-97371000D01*
X150658509Y-97371000D01*
X150447692Y-97391764D01*
X150177193Y-97473818D01*
X149927900Y-97607068D01*
X149709393Y-97786392D01*
X149530069Y-98004899D01*
X149475000Y-98107926D01*
X149475000Y-95599039D01*
X149738096Y-95599039D01*
X149778754Y-95733087D01*
X149898963Y-95987420D01*
X150066481Y-96213414D01*
X150274869Y-96402385D01*
X150516119Y-96547070D01*
X150780960Y-96641909D01*
X151003000Y-96520624D01*
X151003000Y-95377000D01*
X151257000Y-95377000D01*
X151257000Y-96520624D01*
X151479040Y-96641909D01*
X151743881Y-96547070D01*
X151985131Y-96402385D01*
X152193519Y-96213414D01*
X152361037Y-95987420D01*
X152481246Y-95733087D01*
X152521904Y-95599039D01*
X152399915Y-95377000D01*
X151257000Y-95377000D01*
X151003000Y-95377000D01*
X149860085Y-95377000D01*
X149738096Y-95599039D01*
X149475000Y-95599039D01*
X149475000Y-94900961D01*
X149738096Y-94900961D01*
X149860085Y-95123000D01*
X151003000Y-95123000D01*
X151003000Y-93979376D01*
X151257000Y-93979376D01*
X151257000Y-95123000D01*
X152399915Y-95123000D01*
X152521904Y-94900961D01*
X152481246Y-94766913D01*
X152361037Y-94512580D01*
X152193519Y-94286586D01*
X151985131Y-94097615D01*
X151743881Y-93952930D01*
X151479040Y-93858091D01*
X151257000Y-93979376D01*
X151003000Y-93979376D01*
X150780960Y-93858091D01*
X150516119Y-93952930D01*
X150274869Y-94097615D01*
X150066481Y-94286586D01*
X149898963Y-94512580D01*
X149778754Y-94766913D01*
X149738096Y-94900961D01*
X149475000Y-94900961D01*
X149475000Y-92567790D01*
X149568505Y-92505312D01*
X149782312Y-92291505D01*
X149950299Y-92040095D01*
X150066011Y-91760743D01*
X150125000Y-91464184D01*
X150125000Y-91161816D01*
X150066011Y-90865257D01*
X149950299Y-90585905D01*
X149782312Y-90334495D01*
X149568505Y-90120688D01*
X149317095Y-89952701D01*
X149037743Y-89836989D01*
X148741184Y-89778000D01*
X148438816Y-89778000D01*
X148142257Y-89836989D01*
X147862905Y-89952701D01*
X147611495Y-90120688D01*
X147545056Y-90187127D01*
X147539502Y-90168820D01*
X147480537Y-90058506D01*
X147401185Y-89961815D01*
X147304494Y-89882463D01*
X147194180Y-89823498D01*
X147074482Y-89787188D01*
X146950000Y-89774928D01*
X145150000Y-89774928D01*
X145025518Y-89787188D01*
X144905820Y-89823498D01*
X144795506Y-89882463D01*
X144698815Y-89961815D01*
X144619463Y-90058506D01*
X144560498Y-90168820D01*
X144524188Y-90288518D01*
X144511928Y-90413000D01*
X144511928Y-92213000D01*
X144524188Y-92337482D01*
X144560498Y-92457180D01*
X144619463Y-92567494D01*
X144698815Y-92664185D01*
X144778687Y-92729734D01*
X143686439Y-93821983D01*
X143651335Y-93815000D01*
X143368665Y-93815000D01*
X143091426Y-93870147D01*
X142830273Y-93978320D01*
X142595241Y-94135363D01*
X142395363Y-94335241D01*
X142238320Y-94570273D01*
X142130147Y-94831426D01*
X142075000Y-95108665D01*
X142075000Y-95391335D01*
X142130147Y-95668574D01*
X142238320Y-95929727D01*
X142395363Y-96164759D01*
X142595241Y-96364637D01*
X142830273Y-96521680D01*
X143091426Y-96629853D01*
X143368665Y-96685000D01*
X143651335Y-96685000D01*
X143928574Y-96629853D01*
X144189727Y-96521680D01*
X144424759Y-96364637D01*
X144624637Y-96164759D01*
X144781680Y-95929727D01*
X144889853Y-95668574D01*
X144945000Y-95391335D01*
X144945000Y-95108665D01*
X144938017Y-95073561D01*
X146645049Y-93366530D01*
X146678817Y-93338817D01*
X146789411Y-93204059D01*
X146871589Y-93050313D01*
X146922195Y-92883490D01*
X146925388Y-92851072D01*
X146950000Y-92851072D01*
X147074482Y-92838812D01*
X147194180Y-92802502D01*
X147304494Y-92743537D01*
X147401185Y-92664185D01*
X147480537Y-92567494D01*
X147539502Y-92457180D01*
X147545056Y-92438873D01*
X147611495Y-92505312D01*
X147705001Y-92567791D01*
X147705000Y-101303530D01*
X147700719Y-101346999D01*
X147705000Y-101390468D01*
X147705000Y-101390475D01*
X147712871Y-101470392D01*
X147717805Y-101520489D01*
X147728466Y-101555632D01*
X147768411Y-101687311D01*
X147850589Y-101841057D01*
X147961183Y-101975816D01*
X147994956Y-102003533D01*
X149380247Y-103388824D01*
X149314765Y-103604691D01*
X149287058Y-103886000D01*
X149314765Y-104167309D01*
X149396819Y-104437808D01*
X149530069Y-104687101D01*
X149709393Y-104905608D01*
X149927900Y-105084932D01*
X150060859Y-105156000D01*
X149927900Y-105227068D01*
X149709393Y-105406392D01*
X149530069Y-105624899D01*
X149396819Y-105874192D01*
X149314765Y-106144691D01*
X149287058Y-106426000D01*
X149314765Y-106707309D01*
X149380247Y-106923176D01*
X148730423Y-107573000D01*
X144774530Y-107573000D01*
X144811840Y-107548601D01*
X145013501Y-107350895D01*
X145172716Y-107117646D01*
X145283368Y-106857818D01*
X145300905Y-106775039D01*
X145178916Y-106553000D01*
X143636001Y-106553000D01*
X143636001Y-106573000D01*
X143382001Y-106573000D01*
X143382001Y-106553000D01*
X141839086Y-106553000D01*
X141749549Y-106715971D01*
X139221871Y-104188293D01*
X139228236Y-104167309D01*
X139255943Y-103886000D01*
X139228236Y-103604691D01*
X139146182Y-103334192D01*
X139012932Y-103084899D01*
X138833608Y-102866392D01*
X138615101Y-102687068D01*
X138482142Y-102616000D01*
X138615101Y-102544932D01*
X138833608Y-102365608D01*
X139012932Y-102147101D01*
X139146182Y-101897808D01*
X139228236Y-101627309D01*
X139255943Y-101346000D01*
X141667058Y-101346000D01*
X141694765Y-101627309D01*
X141776819Y-101897808D01*
X141910069Y-102147101D01*
X142089393Y-102365608D01*
X142307900Y-102544932D01*
X142440859Y-102616000D01*
X142307900Y-102687068D01*
X142089393Y-102866392D01*
X141910069Y-103084899D01*
X141776819Y-103334192D01*
X141694765Y-103604691D01*
X141667058Y-103886000D01*
X141694765Y-104167309D01*
X141776819Y-104437808D01*
X141910069Y-104687101D01*
X142089393Y-104905608D01*
X142307900Y-105084932D01*
X142435742Y-105153265D01*
X142206162Y-105303399D01*
X142004501Y-105501105D01*
X141845286Y-105734354D01*
X141734634Y-105994182D01*
X141717097Y-106076961D01*
X141839086Y-106299000D01*
X143382001Y-106299000D01*
X143382001Y-106279000D01*
X143636001Y-106279000D01*
X143636001Y-106299000D01*
X145178916Y-106299000D01*
X145300905Y-106076961D01*
X145283368Y-105994182D01*
X145172716Y-105734354D01*
X145013501Y-105501105D01*
X144811840Y-105303399D01*
X144582260Y-105153265D01*
X144710102Y-105084932D01*
X144928609Y-104905608D01*
X145107933Y-104687101D01*
X145241183Y-104437808D01*
X145323237Y-104167309D01*
X145350944Y-103886000D01*
X145323237Y-103604691D01*
X145241183Y-103334192D01*
X145107933Y-103084899D01*
X144928609Y-102866392D01*
X144710102Y-102687068D01*
X144577143Y-102616000D01*
X144710102Y-102544932D01*
X144928609Y-102365608D01*
X145107933Y-102147101D01*
X145241183Y-101897808D01*
X145323237Y-101627309D01*
X145350944Y-101346000D01*
X145323237Y-101064691D01*
X145241183Y-100794192D01*
X145107933Y-100544899D01*
X144928609Y-100326392D01*
X144815519Y-100233581D01*
X144833483Y-100231812D01*
X144953181Y-100195502D01*
X145063495Y-100136537D01*
X145160186Y-100057185D01*
X145239538Y-99960494D01*
X145298503Y-99850180D01*
X145334813Y-99730482D01*
X145347073Y-99606000D01*
X145347073Y-98006000D01*
X145334813Y-97881518D01*
X145298503Y-97761820D01*
X145239538Y-97651506D01*
X145160186Y-97554815D01*
X145063495Y-97475463D01*
X144953181Y-97416498D01*
X144833483Y-97380188D01*
X144709001Y-97367928D01*
X142309001Y-97367928D01*
X142184519Y-97380188D01*
X142064821Y-97416498D01*
X141954507Y-97475463D01*
X141857816Y-97554815D01*
X141778464Y-97651506D01*
X141719499Y-97761820D01*
X141683189Y-97881518D01*
X141670929Y-98006000D01*
X141670929Y-99606000D01*
X141683189Y-99730482D01*
X141719499Y-99850180D01*
X141778464Y-99960494D01*
X141857816Y-100057185D01*
X141954507Y-100136537D01*
X142064821Y-100195502D01*
X142184519Y-100231812D01*
X142202483Y-100233581D01*
X142089393Y-100326392D01*
X141910069Y-100544899D01*
X141776819Y-100794192D01*
X141694765Y-101064691D01*
X141667058Y-101346000D01*
X139255943Y-101346000D01*
X139228236Y-101064691D01*
X139146182Y-100794192D01*
X139012932Y-100544899D01*
X138833608Y-100326392D01*
X138615101Y-100147068D01*
X138482142Y-100076000D01*
X138615101Y-100004932D01*
X138833608Y-99825608D01*
X139012932Y-99607101D01*
X139146182Y-99357808D01*
X139228236Y-99087309D01*
X139255943Y-98806000D01*
X139228236Y-98524691D01*
X139146182Y-98254192D01*
X139012932Y-98004899D01*
X138833608Y-97786392D01*
X138615101Y-97607068D01*
X138365808Y-97473818D01*
X138095309Y-97391764D01*
X137884492Y-97371000D01*
X137822271Y-97371000D01*
X137802380Y-97360368D01*
X137611994Y-97302615D01*
X137414000Y-97283114D01*
X137216007Y-97302615D01*
X137025621Y-97360368D01*
X137005730Y-97371000D01*
X136943508Y-97371000D01*
X136732691Y-97391764D01*
X136685500Y-97406079D01*
X138136051Y-95955528D01*
X138169817Y-95927817D01*
X138171249Y-95926072D01*
X138341000Y-95926072D01*
X138465482Y-95913812D01*
X138585180Y-95877502D01*
X138695494Y-95818537D01*
X138792185Y-95739185D01*
X138871537Y-95642494D01*
X138930502Y-95532180D01*
X138966812Y-95412482D01*
X138979072Y-95288000D01*
X138979072Y-93688000D01*
X138966812Y-93563518D01*
X138930502Y-93443820D01*
X138871537Y-93333506D01*
X138792185Y-93236815D01*
X138695494Y-93157463D01*
X138585180Y-93098498D01*
X138465482Y-93062188D01*
X138426000Y-93058299D01*
X138426000Y-91812521D01*
X138455759Y-91792637D01*
X138655637Y-91592759D01*
X138812680Y-91357727D01*
X138920853Y-91096574D01*
X138976000Y-90819335D01*
X138976000Y-90536665D01*
X138920853Y-90259426D01*
X138812680Y-89998273D01*
X138655637Y-89763241D01*
X138455759Y-89563363D01*
X138220727Y-89406320D01*
X137959574Y-89298147D01*
X137682335Y-89243000D01*
X137399665Y-89243000D01*
X137122426Y-89298147D01*
X136861273Y-89406320D01*
X136626241Y-89563363D01*
X136426363Y-89763241D01*
X136269320Y-89998273D01*
X136161147Y-90259426D01*
X136106000Y-90536665D01*
X136106000Y-90819335D01*
X136161147Y-91096574D01*
X136269320Y-91357727D01*
X136426363Y-91592759D01*
X136626241Y-91792637D01*
X136656000Y-91812521D01*
X136656001Y-93058299D01*
X136616518Y-93062188D01*
X136496820Y-93098498D01*
X136386506Y-93157463D01*
X136289815Y-93236815D01*
X136210463Y-93333506D01*
X136151498Y-93443820D01*
X136115188Y-93563518D01*
X136102928Y-93688000D01*
X136102928Y-95288000D01*
X136115188Y-95412482D01*
X136129327Y-95459094D01*
X131235434Y-100352988D01*
X131213608Y-100326392D01*
X131100518Y-100233581D01*
X131118482Y-100231812D01*
X131238180Y-100195502D01*
X131348494Y-100136537D01*
X131445185Y-100057185D01*
X131524537Y-99960494D01*
X131583502Y-99850180D01*
X131619812Y-99730482D01*
X131632072Y-99606000D01*
X131632072Y-98006000D01*
X131619812Y-97881518D01*
X131583502Y-97761820D01*
X131524537Y-97651506D01*
X131445185Y-97554815D01*
X131348494Y-97475463D01*
X131238180Y-97416498D01*
X131118482Y-97380188D01*
X130994000Y-97367928D01*
X128594000Y-97367928D01*
X128469518Y-97380188D01*
X128451789Y-97385566D01*
X129914355Y-95923000D01*
X130062335Y-95923000D01*
X130339574Y-95867853D01*
X130600727Y-95759680D01*
X130835759Y-95602637D01*
X131035637Y-95402759D01*
X131192680Y-95167727D01*
X131300853Y-94906574D01*
X131356000Y-94629335D01*
X131356000Y-94346665D01*
X131300853Y-94069426D01*
X131192680Y-93808273D01*
X131035637Y-93573241D01*
X130835759Y-93373363D01*
X130600727Y-93216320D01*
X130339574Y-93108147D01*
X130062335Y-93053000D01*
X129779665Y-93053000D01*
X129502426Y-93108147D01*
X129241273Y-93216320D01*
X129006241Y-93373363D01*
X128806363Y-93573241D01*
X128649320Y-93808273D01*
X128541147Y-94069426D01*
X128486000Y-94346665D01*
X128486000Y-94494645D01*
X126200645Y-96780000D01*
X120778604Y-96780000D01*
X120728999Y-96775114D01*
X120679394Y-96780000D01*
X120679392Y-96780000D01*
X120531006Y-96794615D01*
X120340620Y-96852368D01*
X120165160Y-96946153D01*
X120011367Y-97072367D01*
X119979739Y-97110906D01*
X117759685Y-99330960D01*
X117533656Y-99286000D01*
X117162344Y-99286000D01*
X116798166Y-99358439D01*
X116455118Y-99500534D01*
X116146382Y-99706825D01*
X115883825Y-99969382D01*
X115677534Y-100278118D01*
X115535439Y-100621166D01*
X115463000Y-100985344D01*
X115463000Y-101356656D01*
X115535439Y-101720834D01*
X115677534Y-102063882D01*
X115883825Y-102372618D01*
X116146382Y-102635175D01*
X116455118Y-102841466D01*
X116798166Y-102983561D01*
X117162344Y-103056000D01*
X117533656Y-103056000D01*
X117897834Y-102983561D01*
X118240882Y-102841466D01*
X118549618Y-102635175D01*
X118812175Y-102372618D01*
X119018466Y-102063882D01*
X119160561Y-101720834D01*
X119233000Y-101356656D01*
X119233000Y-100985344D01*
X119188040Y-100759315D01*
X121147355Y-98800000D01*
X126200645Y-98800000D01*
X126244000Y-98843355D01*
X126244001Y-99901208D01*
X126049618Y-99706825D01*
X125740882Y-99500534D01*
X125397834Y-99358439D01*
X125033656Y-99286000D01*
X124662344Y-99286000D01*
X124298166Y-99358439D01*
X123955118Y-99500534D01*
X123646382Y-99706825D01*
X123383825Y-99969382D01*
X123177534Y-100278118D01*
X123035439Y-100621166D01*
X122963000Y-100985344D01*
X122963000Y-101356656D01*
X123035439Y-101720834D01*
X123132740Y-101955740D01*
X122897834Y-101858439D01*
X122533656Y-101786000D01*
X122162344Y-101786000D01*
X121798166Y-101858439D01*
X121455118Y-102000534D01*
X121146382Y-102206825D01*
X120883825Y-102469382D01*
X120677534Y-102778118D01*
X120535439Y-103121166D01*
X120463000Y-103485344D01*
X120463000Y-103856656D01*
X120535439Y-104220834D01*
X120677534Y-104563882D01*
X120883825Y-104872618D01*
X121146382Y-105135175D01*
X121455118Y-105341466D01*
X121798166Y-105483561D01*
X122162344Y-105556000D01*
X122533656Y-105556000D01*
X122897834Y-105483561D01*
X123240882Y-105341466D01*
X123549618Y-105135175D01*
X123812175Y-104872618D01*
X124018466Y-104563882D01*
X124160561Y-104220834D01*
X124233000Y-103856656D01*
X124233000Y-103485344D01*
X124160561Y-103121166D01*
X124063260Y-102886260D01*
X124298166Y-102983561D01*
X124662344Y-103056000D01*
X125033656Y-103056000D01*
X125397834Y-102983561D01*
X125740882Y-102841466D01*
X126049618Y-102635175D01*
X126312175Y-102372618D01*
X126518466Y-102063882D01*
X126524539Y-102049220D01*
X126536368Y-102063633D01*
X126574901Y-102095256D01*
X128004102Y-103524458D01*
X127979764Y-103604691D01*
X127952057Y-103886000D01*
X127979764Y-104167309D01*
X128061818Y-104437808D01*
X128195068Y-104687101D01*
X128374392Y-104905608D01*
X128592899Y-105084932D01*
X128725858Y-105156000D01*
X128592899Y-105227068D01*
X128374392Y-105406392D01*
X128195068Y-105624899D01*
X128061818Y-105874192D01*
X127979764Y-106144691D01*
X127952057Y-106426000D01*
X127979764Y-106707309D01*
X128061818Y-106977808D01*
X128195068Y-107227101D01*
X128374392Y-107445608D01*
X128592899Y-107624932D01*
X128842192Y-107758182D01*
X129112691Y-107840236D01*
X129323508Y-107861000D01*
X130264492Y-107861000D01*
X130475309Y-107840236D01*
X130745808Y-107758182D01*
X130995101Y-107624932D01*
X131213608Y-107445608D01*
X131392932Y-107227101D01*
X131526182Y-106977808D01*
X131608236Y-106707309D01*
X131635943Y-106426000D01*
X131608236Y-106144691D01*
X131526182Y-105874192D01*
X131392932Y-105624899D01*
X131213608Y-105406392D01*
X130995101Y-105227068D01*
X130862142Y-105156000D01*
X130995101Y-105084932D01*
X131213608Y-104905608D01*
X131392932Y-104687101D01*
X131526182Y-104437808D01*
X131608236Y-104167309D01*
X131635943Y-103886000D01*
X131608236Y-103604691D01*
X131526182Y-103334192D01*
X131392932Y-103084899D01*
X131213608Y-102866392D01*
X130995101Y-102687068D01*
X130862142Y-102616000D01*
X130995101Y-102544932D01*
X131213608Y-102365608D01*
X131324078Y-102231000D01*
X131450531Y-102231000D01*
X131494000Y-102235281D01*
X131537469Y-102231000D01*
X131537477Y-102231000D01*
X131667490Y-102218195D01*
X131834313Y-102167589D01*
X131988059Y-102085411D01*
X132122817Y-101974817D01*
X132150534Y-101941044D01*
X135614079Y-98477499D01*
X135599764Y-98524691D01*
X135596247Y-98560397D01*
X134067901Y-100088744D01*
X134029368Y-100120367D01*
X133997745Y-100158900D01*
X133997744Y-100158901D01*
X133903154Y-100274160D01*
X133809368Y-100449621D01*
X133751615Y-100640006D01*
X133732114Y-100838000D01*
X133737001Y-100887618D01*
X133737000Y-108464000D01*
X130675290Y-108464000D01*
X130473727Y-108329320D01*
X130212574Y-108221147D01*
X129935335Y-108166000D01*
X129652665Y-108166000D01*
X129375426Y-108221147D01*
X129114273Y-108329320D01*
X128879241Y-108486363D01*
X128679363Y-108686241D01*
X128524000Y-108918759D01*
X128368637Y-108686241D01*
X128168759Y-108486363D01*
X127933727Y-108329320D01*
X127672574Y-108221147D01*
X127395335Y-108166000D01*
X127112665Y-108166000D01*
X126835426Y-108221147D01*
X126574273Y-108329320D01*
X126339241Y-108486363D01*
X126139363Y-108686241D01*
X125982320Y-108921273D01*
X125874147Y-109182426D01*
X125819000Y-109459665D01*
X125819000Y-109742335D01*
X125874147Y-110019574D01*
X125982320Y-110280727D01*
X126139363Y-110515759D01*
X126339241Y-110715637D01*
X126574273Y-110872680D01*
X126835426Y-110980853D01*
X127112665Y-111036000D01*
X127395335Y-111036000D01*
X127672574Y-110980853D01*
X127933727Y-110872680D01*
X128168759Y-110715637D01*
X128368637Y-110515759D01*
X128524000Y-110283241D01*
X128679363Y-110515759D01*
X128879241Y-110715637D01*
X129114273Y-110872680D01*
X129375426Y-110980853D01*
X129652665Y-111036000D01*
X129935335Y-111036000D01*
X130212574Y-110980853D01*
X130473727Y-110872680D01*
X130708759Y-110715637D01*
X130908637Y-110515759D01*
X130929858Y-110484000D01*
X134328645Y-110484000D01*
X135050040Y-111205396D01*
X134874000Y-111188057D01*
X134592692Y-111215764D01*
X134322193Y-111297818D01*
X134072900Y-111431068D01*
X133854393Y-111610392D01*
X133675068Y-111828899D01*
X133604000Y-111961858D01*
X133532932Y-111828899D01*
X133353608Y-111610392D01*
X133135101Y-111431068D01*
X132885808Y-111297818D01*
X132615309Y-111215764D01*
X132334000Y-111188057D01*
X132052692Y-111215764D01*
X131782193Y-111297818D01*
X131532900Y-111431068D01*
X131314393Y-111610392D01*
X131135068Y-111828899D01*
X131064000Y-111961858D01*
X130992932Y-111828899D01*
X130813608Y-111610392D01*
X130595101Y-111431068D01*
X130345808Y-111297818D01*
X130075309Y-111215764D01*
X129794000Y-111188057D01*
X129512692Y-111215764D01*
X129242193Y-111297818D01*
X128992900Y-111431068D01*
X128774393Y-111610392D01*
X128595068Y-111828899D01*
X128524000Y-111961858D01*
X128452932Y-111828899D01*
X128273608Y-111610392D01*
X128055101Y-111431068D01*
X127805808Y-111297818D01*
X127535309Y-111215764D01*
X127254000Y-111188057D01*
X126972692Y-111215764D01*
X126702193Y-111297818D01*
X126452900Y-111431068D01*
X126234393Y-111610392D01*
X126055068Y-111828899D01*
X125984000Y-111961858D01*
X125912932Y-111828899D01*
X125733608Y-111610392D01*
X125515101Y-111431068D01*
X125265808Y-111297818D01*
X124995309Y-111215764D01*
X124714000Y-111188057D01*
X124432692Y-111215764D01*
X124162193Y-111297818D01*
X123912900Y-111431068D01*
X123694393Y-111610392D01*
X123515068Y-111828899D01*
X123444000Y-111961858D01*
X123372932Y-111828899D01*
X123193608Y-111610392D01*
X122975101Y-111431068D01*
X122725808Y-111297818D01*
X122455309Y-111215764D01*
X122174000Y-111188057D01*
X121892692Y-111215764D01*
X121622193Y-111297818D01*
X121372900Y-111431068D01*
X121154393Y-111610392D01*
X120975068Y-111828899D01*
X120906735Y-111956741D01*
X120756601Y-111727161D01*
X120558895Y-111525500D01*
X120325646Y-111366285D01*
X120065818Y-111255633D01*
X119983039Y-111238096D01*
X119761000Y-111360085D01*
X119761000Y-112903000D01*
X119781000Y-112903000D01*
X119781000Y-113157000D01*
X119761000Y-113157000D01*
X119761000Y-114699915D01*
X119983039Y-114821904D01*
X120065818Y-114804367D01*
X120325646Y-114693715D01*
X120558895Y-114534500D01*
X120756601Y-114332839D01*
X120906735Y-114103258D01*
X120975068Y-114231100D01*
X121154392Y-114449607D01*
X121372899Y-114628932D01*
X121622192Y-114762182D01*
X121892691Y-114844236D01*
X122174000Y-114871943D01*
X122455308Y-114844236D01*
X122725807Y-114762182D01*
X122975100Y-114628932D01*
X123193607Y-114449608D01*
X123372932Y-114231101D01*
X123444000Y-114098142D01*
X123515068Y-114231100D01*
X123694392Y-114449607D01*
X123912899Y-114628932D01*
X124162192Y-114762182D01*
X124432691Y-114844236D01*
X124714000Y-114871943D01*
X124995308Y-114844236D01*
X125265807Y-114762182D01*
X125515100Y-114628932D01*
X125733607Y-114449608D01*
X125912932Y-114231101D01*
X125984000Y-114098142D01*
X126055068Y-114231100D01*
X126234392Y-114449607D01*
X126452899Y-114628932D01*
X126702192Y-114762182D01*
X126972691Y-114844236D01*
X127254000Y-114871943D01*
X127535308Y-114844236D01*
X127805807Y-114762182D01*
X128055100Y-114628932D01*
X128273607Y-114449608D01*
X128452932Y-114231101D01*
X128524000Y-114098142D01*
X128595068Y-114231100D01*
X128774392Y-114449607D01*
X128992899Y-114628932D01*
X129242192Y-114762182D01*
X129512691Y-114844236D01*
X129794000Y-114871943D01*
X130075308Y-114844236D01*
X130345807Y-114762182D01*
X130595100Y-114628932D01*
X130813607Y-114449608D01*
X130992932Y-114231101D01*
X131064000Y-114098142D01*
X131135068Y-114231100D01*
X131314392Y-114449607D01*
X131532899Y-114628932D01*
X131782192Y-114762182D01*
X132052691Y-114844236D01*
X132334000Y-114871943D01*
X132615308Y-114844236D01*
X132885807Y-114762182D01*
X133135100Y-114628932D01*
X133353607Y-114449608D01*
X133532932Y-114231101D01*
X133604000Y-114098142D01*
X133675068Y-114231100D01*
X133854392Y-114449607D01*
X134072899Y-114628932D01*
X134322192Y-114762182D01*
X134592691Y-114844236D01*
X134874000Y-114871943D01*
X135155308Y-114844236D01*
X135425807Y-114762182D01*
X135675100Y-114628932D01*
X135893607Y-114449608D01*
X135986419Y-114336517D01*
X135988188Y-114354482D01*
X136024498Y-114474180D01*
X136083463Y-114584494D01*
X136162815Y-114681185D01*
X136259506Y-114760537D01*
X136369820Y-114819502D01*
X136489518Y-114855812D01*
X136614000Y-114868072D01*
X138214000Y-114868072D01*
X138338482Y-114855812D01*
X138458180Y-114819502D01*
X138568494Y-114760537D01*
X138665185Y-114681185D01*
X138744537Y-114584494D01*
X138803502Y-114474180D01*
X138839812Y-114354482D01*
X138852072Y-114230000D01*
X138852072Y-112135000D01*
X145250645Y-112135000D01*
X146135928Y-113020284D01*
X146135928Y-113039716D01*
X143846901Y-115328744D01*
X143808368Y-115360367D01*
X143776745Y-115398900D01*
X143776744Y-115398901D01*
X143682154Y-115514160D01*
X143588368Y-115689621D01*
X143530615Y-115880006D01*
X143511114Y-116078000D01*
X143516001Y-116127617D01*
X143516000Y-117527893D01*
X143372525Y-117671368D01*
X143210010Y-117914589D01*
X143098068Y-118184842D01*
X143041000Y-118471740D01*
X143041000Y-118674645D01*
X142837645Y-118878000D01*
X138086355Y-118878000D01*
X135877261Y-116668906D01*
X135845633Y-116630367D01*
X135691840Y-116504153D01*
X135516380Y-116410368D01*
X135325994Y-116352615D01*
X135177608Y-116338000D01*
X135128000Y-116333114D01*
X135078392Y-116338000D01*
X125017604Y-116338000D01*
X124967999Y-116333114D01*
X124918394Y-116338000D01*
X124918392Y-116338000D01*
X124770006Y-116352615D01*
X124579620Y-116410368D01*
X124404160Y-116504153D01*
X124250367Y-116630367D01*
X124218744Y-116668900D01*
X122428000Y-118459645D01*
X117125355Y-113157000D01*
X118199000Y-113157000D01*
X118199000Y-113557000D01*
X118251350Y-113834514D01*
X118356834Y-114096483D01*
X118511399Y-114332839D01*
X118709105Y-114534500D01*
X118942354Y-114693715D01*
X119202182Y-114804367D01*
X119284961Y-114821904D01*
X119507000Y-114699915D01*
X119507000Y-113157000D01*
X118199000Y-113157000D01*
X117125355Y-113157000D01*
X116573261Y-112604906D01*
X116541633Y-112566367D01*
X116464420Y-112503000D01*
X118199000Y-112503000D01*
X118199000Y-112903000D01*
X119507000Y-112903000D01*
X119507000Y-111360085D01*
X119284961Y-111238096D01*
X119202182Y-111255633D01*
X118942354Y-111366285D01*
X118709105Y-111525500D01*
X118511399Y-111727161D01*
X118356834Y-111963517D01*
X118251350Y-112225486D01*
X118199000Y-112503000D01*
X116464420Y-112503000D01*
X116387840Y-112440153D01*
X116212380Y-112346368D01*
X116021994Y-112288615D01*
X115873608Y-112274000D01*
X115824000Y-112269114D01*
X115774392Y-112274000D01*
X114175870Y-112274000D01*
X114165502Y-112239820D01*
X114106537Y-112129506D01*
X114027185Y-112032815D01*
X113930494Y-111953463D01*
X113820180Y-111894498D01*
X113700482Y-111858188D01*
X113576000Y-111845928D01*
X111976000Y-111845928D01*
X111851518Y-111858188D01*
X111731820Y-111894498D01*
X111621506Y-111953463D01*
X111524815Y-112032815D01*
X111514193Y-112045758D01*
X111262004Y-111926429D01*
X110987816Y-111857700D01*
X110705488Y-111843783D01*
X110425870Y-111885213D01*
X110159708Y-111980397D01*
X110034486Y-112047329D01*
X109962903Y-112291298D01*
X110776000Y-113104395D01*
X110790143Y-113090253D01*
X110969748Y-113269858D01*
X110955605Y-113284000D01*
X110969748Y-113298143D01*
X110790143Y-113477748D01*
X110776000Y-113463605D01*
X109962903Y-114276702D01*
X110034486Y-114520671D01*
X110289996Y-114641571D01*
X110564184Y-114710300D01*
X110846512Y-114724217D01*
X111126130Y-114682787D01*
X111392292Y-114587603D01*
X111514309Y-114522384D01*
X111524815Y-114535185D01*
X111621506Y-114614537D01*
X111731820Y-114673502D01*
X111851518Y-114709812D01*
X111976000Y-114722072D01*
X113576000Y-114722072D01*
X113700482Y-114709812D01*
X113820180Y-114673502D01*
X113930494Y-114614537D01*
X114027185Y-114535185D01*
X114106537Y-114438494D01*
X114165502Y-114328180D01*
X114175870Y-114294000D01*
X115405645Y-114294000D01*
X119961386Y-118849741D01*
X119915309Y-118835764D01*
X119634000Y-118808057D01*
X119352692Y-118835764D01*
X119082193Y-118917818D01*
X118832900Y-119051068D01*
X118614393Y-119230392D01*
X118435068Y-119448899D01*
X118301818Y-119698192D01*
X118219764Y-119968691D01*
X118199000Y-120179508D01*
X118199000Y-121120491D01*
X118219764Y-121331308D01*
X118301818Y-121601807D01*
X118435068Y-121851100D01*
X118494895Y-121924000D01*
X117079579Y-121924000D01*
X114458017Y-119302439D01*
X114465000Y-119267335D01*
X114465000Y-118984665D01*
X114409853Y-118707426D01*
X114301680Y-118446273D01*
X114144637Y-118211241D01*
X113944759Y-118011363D01*
X113709727Y-117854320D01*
X113448574Y-117746147D01*
X113171335Y-117691000D01*
X112888665Y-117691000D01*
X112611426Y-117746147D01*
X112350273Y-117854320D01*
X112115241Y-118011363D01*
X111915363Y-118211241D01*
X111781308Y-118411869D01*
X111766671Y-118384486D01*
X111522702Y-118312903D01*
X110709605Y-119126000D01*
X111522702Y-119939097D01*
X111766671Y-119867514D01*
X111780324Y-119838659D01*
X111915363Y-120040759D01*
X112115241Y-120240637D01*
X112350273Y-120397680D01*
X112611426Y-120505853D01*
X112888665Y-120561000D01*
X113171335Y-120561000D01*
X113206439Y-120554017D01*
X116056470Y-123404049D01*
X116084183Y-123437817D01*
X116117951Y-123465530D01*
X116117953Y-123465532D01*
X116218941Y-123548411D01*
X116372686Y-123630589D01*
X116520440Y-123675410D01*
X116539510Y-123681195D01*
X116669523Y-123694000D01*
X116669531Y-123694000D01*
X116713000Y-123698281D01*
X116756469Y-123694000D01*
X125051531Y-123694000D01*
X125095000Y-123698281D01*
X125138469Y-123694000D01*
X125138477Y-123694000D01*
X125268490Y-123681195D01*
X125435313Y-123630589D01*
X125589059Y-123548411D01*
X125723817Y-123437817D01*
X125751534Y-123404044D01*
X126756824Y-122398754D01*
X126972691Y-122464236D01*
X127254000Y-122491943D01*
X127535308Y-122464236D01*
X127805807Y-122382182D01*
X128055100Y-122248932D01*
X128273607Y-122069608D01*
X128452932Y-121851101D01*
X128521265Y-121723259D01*
X128671399Y-121952839D01*
X128869105Y-122154500D01*
X129102354Y-122313715D01*
X129362182Y-122424367D01*
X129444961Y-122441904D01*
X129667000Y-122319915D01*
X129667000Y-120777000D01*
X129647000Y-120777000D01*
X129647000Y-120523000D01*
X129667000Y-120523000D01*
X129667000Y-118980085D01*
X129444961Y-118858096D01*
X129362182Y-118875633D01*
X129102354Y-118986285D01*
X128869105Y-119145500D01*
X128671399Y-119347161D01*
X128521265Y-119576741D01*
X128452932Y-119448899D01*
X128273608Y-119230392D01*
X128055101Y-119051068D01*
X127805808Y-118917818D01*
X127535309Y-118835764D01*
X127254000Y-118808057D01*
X126972692Y-118835764D01*
X126702193Y-118917818D01*
X126452900Y-119051068D01*
X126234393Y-119230392D01*
X126055068Y-119448899D01*
X125984000Y-119581858D01*
X125912932Y-119448899D01*
X125733608Y-119230392D01*
X125515101Y-119051068D01*
X125265808Y-118917818D01*
X124995309Y-118835764D01*
X124916367Y-118827989D01*
X125386356Y-118358000D01*
X134709645Y-118358000D01*
X135201386Y-118849741D01*
X135155309Y-118835764D01*
X134874000Y-118808057D01*
X134592692Y-118835764D01*
X134322193Y-118917818D01*
X134072900Y-119051068D01*
X133854393Y-119230392D01*
X133675068Y-119448899D01*
X133604000Y-119581858D01*
X133532932Y-119448899D01*
X133353608Y-119230392D01*
X133135101Y-119051068D01*
X132885808Y-118917818D01*
X132615309Y-118835764D01*
X132334000Y-118808057D01*
X132052692Y-118835764D01*
X131782193Y-118917818D01*
X131532900Y-119051068D01*
X131314393Y-119230392D01*
X131135068Y-119448899D01*
X131066735Y-119576741D01*
X130916601Y-119347161D01*
X130718895Y-119145500D01*
X130485646Y-118986285D01*
X130225818Y-118875633D01*
X130143039Y-118858096D01*
X129921000Y-118980085D01*
X129921000Y-120523000D01*
X129941000Y-120523000D01*
X129941000Y-120777000D01*
X129921000Y-120777000D01*
X129921000Y-122319915D01*
X130143039Y-122441904D01*
X130225818Y-122424367D01*
X130485646Y-122313715D01*
X130718895Y-122154500D01*
X130916601Y-121952839D01*
X131066735Y-121723258D01*
X131135068Y-121851100D01*
X131314392Y-122069607D01*
X131532899Y-122248932D01*
X131782192Y-122382182D01*
X132052691Y-122464236D01*
X132334000Y-122491943D01*
X132408980Y-122484558D01*
X133455470Y-123531049D01*
X133483183Y-123564817D01*
X133516951Y-123592530D01*
X133516953Y-123592532D01*
X133617940Y-123675410D01*
X133617941Y-123675411D01*
X133771687Y-123757589D01*
X133938510Y-123808195D01*
X134068523Y-123821000D01*
X134068531Y-123821000D01*
X134112000Y-123825281D01*
X134155469Y-123821000D01*
X142704531Y-123821000D01*
X142748000Y-123825281D01*
X142791469Y-123821000D01*
X142791477Y-123821000D01*
X142921490Y-123808195D01*
X143088313Y-123757589D01*
X143242059Y-123675411D01*
X143376817Y-123564817D01*
X143404534Y-123531044D01*
X144289507Y-122646072D01*
X145376000Y-122646072D01*
X145500482Y-122633812D01*
X145620180Y-122597502D01*
X145730494Y-122538537D01*
X145827185Y-122459185D01*
X145906537Y-122362494D01*
X145965502Y-122252180D01*
X145987513Y-122179620D01*
X146119368Y-122311475D01*
X146362589Y-122473990D01*
X146499656Y-122530765D01*
X144138951Y-124891470D01*
X144116461Y-124909928D01*
X143854000Y-124909928D01*
X143686598Y-124926416D01*
X143549514Y-124968000D01*
X141958486Y-124968000D01*
X141821402Y-124926416D01*
X141654000Y-124909928D01*
X139894000Y-124909928D01*
X139726598Y-124926416D01*
X139589514Y-124968000D01*
X137998486Y-124968000D01*
X137861402Y-124926416D01*
X137694000Y-124909928D01*
X135934000Y-124909928D01*
X135766598Y-124926416D01*
X135629514Y-124968000D01*
X134038486Y-124968000D01*
X133901402Y-124926416D01*
X133734000Y-124909928D01*
X131974000Y-124909928D01*
X131806598Y-124926416D01*
X131669514Y-124968000D01*
X130078486Y-124968000D01*
X129941402Y-124926416D01*
X129774000Y-124909928D01*
X128014000Y-124909928D01*
X127846598Y-124926416D01*
X127709514Y-124968000D01*
X126118486Y-124968000D01*
X125981402Y-124926416D01*
X125814000Y-124909928D01*
X124054000Y-124909928D01*
X123886598Y-124926416D01*
X123749514Y-124968000D01*
X122158486Y-124968000D01*
X122021402Y-124926416D01*
X121854000Y-124909928D01*
X120094000Y-124909928D01*
X119926598Y-124926416D01*
X119789514Y-124968000D01*
X118198486Y-124968000D01*
X118061402Y-124926416D01*
X117894000Y-124909928D01*
X116134000Y-124909928D01*
X115966598Y-124926416D01*
X115829514Y-124968000D01*
X114238486Y-124968000D01*
X114101402Y-124926416D01*
X113934000Y-124909928D01*
X112174000Y-124909928D01*
X112006598Y-124926416D01*
X111869514Y-124968000D01*
X110455957Y-124968000D01*
X110438180Y-124958498D01*
X110318482Y-124922188D01*
X110194000Y-124909928D01*
X109379750Y-124913000D01*
X109324750Y-124968000D01*
X108863250Y-124968000D01*
X108808250Y-124913000D01*
X107994000Y-124909928D01*
X107869518Y-124922188D01*
X107749820Y-124958498D01*
X107732043Y-124968000D01*
X107517800Y-124968000D01*
X107517800Y-120118702D01*
X109716903Y-120118702D01*
X109788486Y-120362671D01*
X110043996Y-120483571D01*
X110318184Y-120552300D01*
X110600512Y-120566217D01*
X110880130Y-120524787D01*
X111146292Y-120429603D01*
X111271514Y-120362671D01*
X111343097Y-120118702D01*
X110530000Y-119305605D01*
X109716903Y-120118702D01*
X107517800Y-120118702D01*
X107517800Y-119196512D01*
X109089783Y-119196512D01*
X109131213Y-119476130D01*
X109226397Y-119742292D01*
X109293329Y-119867514D01*
X109537298Y-119939097D01*
X110350395Y-119126000D01*
X109537298Y-118312903D01*
X109293329Y-118384486D01*
X109172429Y-118639996D01*
X109103700Y-118914184D01*
X109089783Y-119196512D01*
X107517800Y-119196512D01*
X107517800Y-118133298D01*
X109716903Y-118133298D01*
X110530000Y-118946395D01*
X111343097Y-118133298D01*
X111271514Y-117889329D01*
X111016004Y-117768429D01*
X110741816Y-117699700D01*
X110459488Y-117685783D01*
X110179870Y-117727213D01*
X109913708Y-117822397D01*
X109788486Y-117889329D01*
X109716903Y-118133298D01*
X107517800Y-118133298D01*
X107517800Y-113354512D01*
X109335783Y-113354512D01*
X109377213Y-113634130D01*
X109472397Y-113900292D01*
X109539329Y-114025514D01*
X109783298Y-114097097D01*
X110596395Y-113284000D01*
X109783298Y-112470903D01*
X109539329Y-112542486D01*
X109418429Y-112797996D01*
X109349700Y-113072184D01*
X109335783Y-113354512D01*
X107517800Y-113354512D01*
X107517800Y-109950039D01*
X118242096Y-109950039D01*
X118282754Y-110084087D01*
X118402963Y-110338420D01*
X118570481Y-110564414D01*
X118778869Y-110753385D01*
X119020119Y-110898070D01*
X119284960Y-110992909D01*
X119507000Y-110871624D01*
X119507000Y-109728000D01*
X119761000Y-109728000D01*
X119761000Y-110871624D01*
X119983040Y-110992909D01*
X120247881Y-110898070D01*
X120489131Y-110753385D01*
X120697519Y-110564414D01*
X120865037Y-110338420D01*
X120985246Y-110084087D01*
X121025904Y-109950039D01*
X120903915Y-109728000D01*
X119761000Y-109728000D01*
X119507000Y-109728000D01*
X118364085Y-109728000D01*
X118242096Y-109950039D01*
X107517800Y-109950039D01*
X107517800Y-109251961D01*
X118242096Y-109251961D01*
X118364085Y-109474000D01*
X119507000Y-109474000D01*
X119507000Y-108330376D01*
X119761000Y-108330376D01*
X119761000Y-109474000D01*
X120903915Y-109474000D01*
X121025904Y-109251961D01*
X120985246Y-109117913D01*
X120865037Y-108863580D01*
X120697519Y-108637586D01*
X120489131Y-108448615D01*
X120247881Y-108303930D01*
X119983040Y-108209091D01*
X119761000Y-108330376D01*
X119507000Y-108330376D01*
X119284960Y-108209091D01*
X119020119Y-108303930D01*
X118778869Y-108448615D01*
X118570481Y-108637586D01*
X118402963Y-108863580D01*
X118282754Y-109117913D01*
X118242096Y-109251961D01*
X107517800Y-109251961D01*
X107517800Y-100985344D01*
X107963000Y-100985344D01*
X107963000Y-101356656D01*
X108035439Y-101720834D01*
X108177534Y-102063882D01*
X108383825Y-102372618D01*
X108646382Y-102635175D01*
X108955118Y-102841466D01*
X109298166Y-102983561D01*
X109662344Y-103056000D01*
X110033656Y-103056000D01*
X110397834Y-102983561D01*
X110632740Y-102886260D01*
X110535439Y-103121166D01*
X110463000Y-103485344D01*
X110463000Y-103856656D01*
X110535439Y-104220834D01*
X110677534Y-104563882D01*
X110883825Y-104872618D01*
X111146382Y-105135175D01*
X111455118Y-105341466D01*
X111798166Y-105483561D01*
X112162344Y-105556000D01*
X112533656Y-105556000D01*
X112897834Y-105483561D01*
X113240882Y-105341466D01*
X113549618Y-105135175D01*
X113812175Y-104872618D01*
X114018466Y-104563882D01*
X114160561Y-104220834D01*
X114233000Y-103856656D01*
X114233000Y-103485344D01*
X114160561Y-103121166D01*
X114018466Y-102778118D01*
X113812175Y-102469382D01*
X113549618Y-102206825D01*
X113358000Y-102078790D01*
X113358000Y-101938355D01*
X119036355Y-96260000D01*
X125299392Y-96260000D01*
X125349000Y-96264886D01*
X125546994Y-96245385D01*
X125652388Y-96213414D01*
X125737380Y-96187632D01*
X125912840Y-96093847D01*
X126066633Y-95967633D01*
X126098261Y-95929094D01*
X129914355Y-92113000D01*
X130062335Y-92113000D01*
X130339574Y-92057853D01*
X130600727Y-91949680D01*
X130835759Y-91792637D01*
X131035637Y-91592759D01*
X131192680Y-91357727D01*
X131300853Y-91096574D01*
X131356000Y-90819335D01*
X131356000Y-90536665D01*
X131300853Y-90259426D01*
X131192680Y-89998273D01*
X131035637Y-89763241D01*
X130835759Y-89563363D01*
X130600727Y-89406320D01*
X130339574Y-89298147D01*
X130062335Y-89243000D01*
X129779665Y-89243000D01*
X129502426Y-89298147D01*
X129241273Y-89406320D01*
X129006241Y-89563363D01*
X128806363Y-89763241D01*
X128649320Y-89998273D01*
X128541147Y-90259426D01*
X128486000Y-90536665D01*
X128486000Y-90684645D01*
X124930645Y-94240000D01*
X118667604Y-94240000D01*
X118617999Y-94235114D01*
X118568394Y-94240000D01*
X118568392Y-94240000D01*
X118420006Y-94254615D01*
X118229620Y-94312368D01*
X118054160Y-94406153D01*
X117900367Y-94532367D01*
X117868739Y-94570906D01*
X111686761Y-100752884D01*
X111660561Y-100621166D01*
X111518466Y-100278118D01*
X111312175Y-99969382D01*
X111049618Y-99706825D01*
X110740882Y-99500534D01*
X110397834Y-99358439D01*
X110033656Y-99286000D01*
X109662344Y-99286000D01*
X109298166Y-99358439D01*
X108955118Y-99500534D01*
X108646382Y-99706825D01*
X108383825Y-99969382D01*
X108177534Y-100278118D01*
X108035439Y-100621166D01*
X107963000Y-100985344D01*
X107517800Y-100985344D01*
X107517800Y-91091279D01*
X107528187Y-90985344D01*
X110463000Y-90985344D01*
X110463000Y-91356656D01*
X110535439Y-91720834D01*
X110677534Y-92063882D01*
X110883825Y-92372618D01*
X111146382Y-92635175D01*
X111455118Y-92841466D01*
X111798166Y-92983561D01*
X112162344Y-93056000D01*
X112533656Y-93056000D01*
X112897834Y-92983561D01*
X113240882Y-92841466D01*
X113549618Y-92635175D01*
X113812175Y-92372618D01*
X114018466Y-92063882D01*
X114160561Y-91720834D01*
X114233000Y-91356656D01*
X114233000Y-90985344D01*
X120463000Y-90985344D01*
X120463000Y-91356656D01*
X120535439Y-91720834D01*
X120677534Y-92063882D01*
X120883825Y-92372618D01*
X121146382Y-92635175D01*
X121455118Y-92841466D01*
X121798166Y-92983561D01*
X122162344Y-93056000D01*
X122533656Y-93056000D01*
X122897834Y-92983561D01*
X123240882Y-92841466D01*
X123549618Y-92635175D01*
X123812175Y-92372618D01*
X124018466Y-92063882D01*
X124160561Y-91720834D01*
X124233000Y-91356656D01*
X124233000Y-90985344D01*
X124160561Y-90621166D01*
X124018466Y-90278118D01*
X123812175Y-89969382D01*
X123549618Y-89706825D01*
X123240882Y-89500534D01*
X122897834Y-89358439D01*
X122533656Y-89286000D01*
X122162344Y-89286000D01*
X121798166Y-89358439D01*
X121455118Y-89500534D01*
X121146382Y-89706825D01*
X120883825Y-89969382D01*
X120677534Y-90278118D01*
X120535439Y-90621166D01*
X120463000Y-90985344D01*
X114233000Y-90985344D01*
X114160561Y-90621166D01*
X114018466Y-90278118D01*
X113812175Y-89969382D01*
X113549618Y-89706825D01*
X113240882Y-89500534D01*
X112897834Y-89358439D01*
X112533656Y-89286000D01*
X112162344Y-89286000D01*
X111798166Y-89358439D01*
X111455118Y-89500534D01*
X111146382Y-89706825D01*
X110883825Y-89969382D01*
X110677534Y-90278118D01*
X110535439Y-90621166D01*
X110463000Y-90985344D01*
X107528187Y-90985344D01*
X107556709Y-90694455D01*
X107662580Y-90343792D01*
X107834544Y-90020375D01*
X108066054Y-89736516D01*
X108348286Y-89503035D01*
X108670495Y-89328817D01*
X109020414Y-89220498D01*
X109415243Y-89179000D01*
X152291521Y-89179000D01*
X152688345Y-89217909D01*
G37*
G04 #@! TD.AperFunction*
D25*
X150021002Y-116905358D02*
X150021002Y-117194150D01*
X149962890Y-117176524D01*
X149733000Y-117297845D01*
X149733000Y-118491000D01*
X149753000Y-118491000D01*
X149753000Y-118745000D01*
X149733000Y-118745000D01*
X149733000Y-118765000D01*
X149479000Y-118765000D01*
X149479000Y-118745000D01*
X149459000Y-118745000D01*
X149459000Y-118491000D01*
X149479000Y-118491000D01*
X149479000Y-117297845D01*
X149249110Y-117176524D01*
X149101901Y-117221175D01*
X148839080Y-117346359D01*
X148605731Y-117520412D01*
X148410822Y-117736645D01*
X148341195Y-117853534D01*
X148219475Y-117671368D01*
X148012632Y-117464525D01*
X147769411Y-117302010D01*
X147499158Y-117190068D01*
X147212260Y-117133000D01*
X146919740Y-117133000D01*
X146632842Y-117190068D01*
X146362589Y-117302010D01*
X146119368Y-117464525D01*
X145912525Y-117671368D01*
X145796000Y-117845760D01*
X145679475Y-117671368D01*
X145536000Y-117527893D01*
X145536000Y-116496355D01*
X147564284Y-114468072D01*
X147583717Y-114468072D01*
X150021002Y-116905358D01*
G04 #@! TA.AperFunction,Conductor*
D26*
G36*
X150021002Y-116905358D02*
G01*
X150021002Y-117194150D01*
X149962890Y-117176524D01*
X149733000Y-117297845D01*
X149733000Y-118491000D01*
X149753000Y-118491000D01*
X149753000Y-118745000D01*
X149733000Y-118745000D01*
X149733000Y-118765000D01*
X149479000Y-118765000D01*
X149479000Y-118745000D01*
X149459000Y-118745000D01*
X149459000Y-118491000D01*
X149479000Y-118491000D01*
X149479000Y-117297845D01*
X149249110Y-117176524D01*
X149101901Y-117221175D01*
X148839080Y-117346359D01*
X148605731Y-117520412D01*
X148410822Y-117736645D01*
X148341195Y-117853534D01*
X148219475Y-117671368D01*
X148012632Y-117464525D01*
X147769411Y-117302010D01*
X147499158Y-117190068D01*
X147212260Y-117133000D01*
X146919740Y-117133000D01*
X146632842Y-117190068D01*
X146362589Y-117302010D01*
X146119368Y-117464525D01*
X145912525Y-117671368D01*
X145796000Y-117845760D01*
X145679475Y-117671368D01*
X145536000Y-117527893D01*
X145536000Y-116496355D01*
X147564284Y-114468072D01*
X147583717Y-114468072D01*
X150021002Y-116905358D01*
G37*
G04 #@! TD.AperFunction*
D25*
X137541000Y-106299000D02*
X137561000Y-106299000D01*
X137561000Y-106553000D01*
X137541000Y-106553000D01*
X137541000Y-107861000D01*
X137941000Y-107861000D01*
X138218514Y-107808650D01*
X138480483Y-107703166D01*
X138716839Y-107548601D01*
X138918500Y-107350895D01*
X139077715Y-107117646D01*
X139188367Y-106857818D01*
X139205904Y-106775039D01*
X139084517Y-106554095D01*
X140988421Y-108458000D01*
X140730422Y-108716000D01*
X138548521Y-108716000D01*
X138528637Y-108686241D01*
X138328759Y-108486363D01*
X138093727Y-108329320D01*
X137832574Y-108221147D01*
X137555335Y-108166000D01*
X137272665Y-108166000D01*
X136995426Y-108221147D01*
X136734273Y-108329320D01*
X136499241Y-108486363D01*
X136299363Y-108686241D01*
X136142320Y-108921273D01*
X136034147Y-109182426D01*
X136009199Y-109307844D01*
X135757000Y-109055645D01*
X135757000Y-107127483D01*
X135909500Y-107350895D01*
X136111161Y-107548601D01*
X136347517Y-107703166D01*
X136609486Y-107808650D01*
X136887000Y-107861000D01*
X137287000Y-107861000D01*
X137287000Y-106553000D01*
X137267000Y-106553000D01*
X137267000Y-106299000D01*
X137287000Y-106299000D01*
X137287000Y-106279000D01*
X137541000Y-106279000D01*
X137541000Y-106299000D01*
G04 #@! TA.AperFunction,Conductor*
D26*
G36*
X137541000Y-106299000D02*
G01*
X137561000Y-106299000D01*
X137561000Y-106553000D01*
X137541000Y-106553000D01*
X137541000Y-107861000D01*
X137941000Y-107861000D01*
X138218514Y-107808650D01*
X138480483Y-107703166D01*
X138716839Y-107548601D01*
X138918500Y-107350895D01*
X139077715Y-107117646D01*
X139188367Y-106857818D01*
X139205904Y-106775039D01*
X139084517Y-106554095D01*
X140988421Y-108458000D01*
X140730422Y-108716000D01*
X138548521Y-108716000D01*
X138528637Y-108686241D01*
X138328759Y-108486363D01*
X138093727Y-108329320D01*
X137832574Y-108221147D01*
X137555335Y-108166000D01*
X137272665Y-108166000D01*
X136995426Y-108221147D01*
X136734273Y-108329320D01*
X136499241Y-108486363D01*
X136299363Y-108686241D01*
X136142320Y-108921273D01*
X136034147Y-109182426D01*
X136009199Y-109307844D01*
X135757000Y-109055645D01*
X135757000Y-107127483D01*
X135909500Y-107350895D01*
X136111161Y-107548601D01*
X136347517Y-107703166D01*
X136609486Y-107808650D01*
X136887000Y-107861000D01*
X137287000Y-107861000D01*
X137287000Y-106553000D01*
X137267000Y-106553000D01*
X137267000Y-106299000D01*
X137287000Y-106299000D01*
X137287000Y-106279000D01*
X137541000Y-106279000D01*
X137541000Y-106299000D01*
G37*
G04 #@! TD.AperFunction*
M02*
