G04 #@! TF.GenerationSoftware,KiCad,Pcbnew,5.1.9+dfsg1-1*
G04 #@! TF.CreationDate,2021-03-02T11:36:12-06:00*
G04 #@! TF.ProjectId,C64UserPortMidi,43363455-7365-4725-906f-72744d696469,rev?*
G04 #@! TF.SameCoordinates,Original*
G04 #@! TF.FileFunction,Copper,L2,Bot*
G04 #@! TF.FilePolarity,Positive*
%FSLAX46Y46*%
G04 Gerber Fmt 4.6, Leading zero omitted, Abs format (unit mm)*
G04 Created by KiCad (PCBNEW 5.1.9+dfsg1-1) date 2021-03-02 11:36:12*
%MOMM*%
%LPD*%
G01*
G04 APERTURE LIST*
G04 #@! TA.AperFunction,ComponentPad*
%ADD10C,2.500000*%
G04 #@! TD*
G04 #@! TA.AperFunction,ComponentPad*
%ADD11O,1.600000X1.600000*%
G04 #@! TD*
G04 #@! TA.AperFunction,ComponentPad*
%ADD12R,1.600000X1.600000*%
G04 #@! TD*
G04 #@! TA.AperFunction,ComponentPad*
%ADD13C,1.600000*%
G04 #@! TD*
G04 #@! TA.AperFunction,ComponentPad*
%ADD14R,1.700000X1.700000*%
G04 #@! TD*
G04 #@! TA.AperFunction,ComponentPad*
%ADD15O,1.700000X1.700000*%
G04 #@! TD*
G04 #@! TA.AperFunction,ComponentPad*
%ADD16R,2.400000X1.600000*%
G04 #@! TD*
G04 #@! TA.AperFunction,ComponentPad*
%ADD17O,2.400000X1.600000*%
G04 #@! TD*
G04 #@! TA.AperFunction,ComponentPad*
%ADD18R,1.600000X2.400000*%
G04 #@! TD*
G04 #@! TA.AperFunction,ComponentPad*
%ADD19O,1.600000X2.400000*%
G04 #@! TD*
G04 #@! TA.AperFunction,Conductor*
%ADD20C,0.750000*%
G04 #@! TD*
G04 #@! TA.AperFunction,Conductor*
%ADD21C,1.000000*%
G04 #@! TD*
G04 #@! TA.AperFunction,Conductor*
%ADD22C,0.500000*%
G04 #@! TD*
G04 #@! TA.AperFunction,Conductor*
%ADD23C,0.254000*%
G04 #@! TD*
G04 #@! TA.AperFunction,Conductor*
%ADD24C,0.150000*%
G04 #@! TD*
G04 APERTURE END LIST*
D10*
X124848000Y-101171000D03*
X112348000Y-103671000D03*
X117348000Y-101171000D03*
X109848000Y-101171000D03*
X122348000Y-103671000D03*
X112348000Y-91171000D03*
X122348000Y-91171000D03*
G04 #@! TA.AperFunction,SMDPad,CuDef*
G36*
G01*
X107994000Y-134328000D02*
X107994000Y-125768000D01*
G75*
G02*
X108214000Y-125548000I220000J0D01*
G01*
X109974000Y-125548000D01*
G75*
G02*
X110194000Y-125768000I0J-220000D01*
G01*
X110194000Y-134328000D01*
G75*
G02*
X109974000Y-134548000I-220000J0D01*
G01*
X108214000Y-134548000D01*
G75*
G02*
X107994000Y-134328000I0J220000D01*
G01*
G37*
G04 #@! TD.AperFunction*
G04 #@! TA.AperFunction,SMDPad,CuDef*
G36*
G01*
X111954000Y-134328000D02*
X111954000Y-125768000D01*
G75*
G02*
X112174000Y-125548000I220000J0D01*
G01*
X113934000Y-125548000D01*
G75*
G02*
X114154000Y-125768000I0J-220000D01*
G01*
X114154000Y-134328000D01*
G75*
G02*
X113934000Y-134548000I-220000J0D01*
G01*
X112174000Y-134548000D01*
G75*
G02*
X111954000Y-134328000I0J220000D01*
G01*
G37*
G04 #@! TD.AperFunction*
G04 #@! TA.AperFunction,SMDPad,CuDef*
G36*
G01*
X115914000Y-134328000D02*
X115914000Y-125768000D01*
G75*
G02*
X116134000Y-125548000I220000J0D01*
G01*
X117894000Y-125548000D01*
G75*
G02*
X118114000Y-125768000I0J-220000D01*
G01*
X118114000Y-134328000D01*
G75*
G02*
X117894000Y-134548000I-220000J0D01*
G01*
X116134000Y-134548000D01*
G75*
G02*
X115914000Y-134328000I0J220000D01*
G01*
G37*
G04 #@! TD.AperFunction*
G04 #@! TA.AperFunction,SMDPad,CuDef*
G36*
G01*
X119874000Y-134328000D02*
X119874000Y-125768000D01*
G75*
G02*
X120094000Y-125548000I220000J0D01*
G01*
X121854000Y-125548000D01*
G75*
G02*
X122074000Y-125768000I0J-220000D01*
G01*
X122074000Y-134328000D01*
G75*
G02*
X121854000Y-134548000I-220000J0D01*
G01*
X120094000Y-134548000D01*
G75*
G02*
X119874000Y-134328000I0J220000D01*
G01*
G37*
G04 #@! TD.AperFunction*
G04 #@! TA.AperFunction,SMDPad,CuDef*
G36*
G01*
X123834000Y-134328000D02*
X123834000Y-125768000D01*
G75*
G02*
X124054000Y-125548000I220000J0D01*
G01*
X125814000Y-125548000D01*
G75*
G02*
X126034000Y-125768000I0J-220000D01*
G01*
X126034000Y-134328000D01*
G75*
G02*
X125814000Y-134548000I-220000J0D01*
G01*
X124054000Y-134548000D01*
G75*
G02*
X123834000Y-134328000I0J220000D01*
G01*
G37*
G04 #@! TD.AperFunction*
G04 #@! TA.AperFunction,SMDPad,CuDef*
G36*
G01*
X127794000Y-134328000D02*
X127794000Y-125768000D01*
G75*
G02*
X128014000Y-125548000I220000J0D01*
G01*
X129774000Y-125548000D01*
G75*
G02*
X129994000Y-125768000I0J-220000D01*
G01*
X129994000Y-134328000D01*
G75*
G02*
X129774000Y-134548000I-220000J0D01*
G01*
X128014000Y-134548000D01*
G75*
G02*
X127794000Y-134328000I0J220000D01*
G01*
G37*
G04 #@! TD.AperFunction*
G04 #@! TA.AperFunction,SMDPad,CuDef*
G36*
G01*
X131754000Y-134328000D02*
X131754000Y-125768000D01*
G75*
G02*
X131974000Y-125548000I220000J0D01*
G01*
X133734000Y-125548000D01*
G75*
G02*
X133954000Y-125768000I0J-220000D01*
G01*
X133954000Y-134328000D01*
G75*
G02*
X133734000Y-134548000I-220000J0D01*
G01*
X131974000Y-134548000D01*
G75*
G02*
X131754000Y-134328000I0J220000D01*
G01*
G37*
G04 #@! TD.AperFunction*
G04 #@! TA.AperFunction,SMDPad,CuDef*
G36*
G01*
X135714000Y-134328000D02*
X135714000Y-125768000D01*
G75*
G02*
X135934000Y-125548000I220000J0D01*
G01*
X137694000Y-125548000D01*
G75*
G02*
X137914000Y-125768000I0J-220000D01*
G01*
X137914000Y-134328000D01*
G75*
G02*
X137694000Y-134548000I-220000J0D01*
G01*
X135934000Y-134548000D01*
G75*
G02*
X135714000Y-134328000I0J220000D01*
G01*
G37*
G04 #@! TD.AperFunction*
G04 #@! TA.AperFunction,SMDPad,CuDef*
G36*
G01*
X139674000Y-134328000D02*
X139674000Y-125768000D01*
G75*
G02*
X139894000Y-125548000I220000J0D01*
G01*
X141654000Y-125548000D01*
G75*
G02*
X141874000Y-125768000I0J-220000D01*
G01*
X141874000Y-134328000D01*
G75*
G02*
X141654000Y-134548000I-220000J0D01*
G01*
X139894000Y-134548000D01*
G75*
G02*
X139674000Y-134328000I0J220000D01*
G01*
G37*
G04 #@! TD.AperFunction*
G04 #@! TA.AperFunction,SMDPad,CuDef*
G36*
G01*
X143634000Y-134328000D02*
X143634000Y-125768000D01*
G75*
G02*
X143854000Y-125548000I220000J0D01*
G01*
X145614000Y-125548000D01*
G75*
G02*
X145834000Y-125768000I0J-220000D01*
G01*
X145834000Y-134328000D01*
G75*
G02*
X145614000Y-134548000I-220000J0D01*
G01*
X143854000Y-134548000D01*
G75*
G02*
X143634000Y-134328000I0J220000D01*
G01*
G37*
G04 #@! TD.AperFunction*
G04 #@! TA.AperFunction,SMDPad,CuDef*
G36*
G01*
X147594000Y-134328000D02*
X147594000Y-125768000D01*
G75*
G02*
X147814000Y-125548000I220000J0D01*
G01*
X149574000Y-125548000D01*
G75*
G02*
X149794000Y-125768000I0J-220000D01*
G01*
X149794000Y-134328000D01*
G75*
G02*
X149574000Y-134548000I-220000J0D01*
G01*
X147814000Y-134548000D01*
G75*
G02*
X147594000Y-134328000I0J220000D01*
G01*
G37*
G04 #@! TD.AperFunction*
G04 #@! TA.AperFunction,SMDPad,CuDef*
G36*
G01*
X151554000Y-134328000D02*
X151554000Y-125768000D01*
G75*
G02*
X151774000Y-125548000I220000J0D01*
G01*
X153534000Y-125548000D01*
G75*
G02*
X153754000Y-125768000I0J-220000D01*
G01*
X153754000Y-134328000D01*
G75*
G02*
X153534000Y-134548000I-220000J0D01*
G01*
X151774000Y-134548000D01*
G75*
G02*
X151554000Y-134328000I0J220000D01*
G01*
G37*
G04 #@! TD.AperFunction*
D11*
X129921000Y-94488000D03*
D12*
X137541000Y-94488000D03*
D13*
X149574000Y-113030000D03*
D12*
X147574000Y-113030000D03*
X111760000Y-117570000D03*
D13*
X111760000Y-115570000D03*
D14*
X144526000Y-121158000D03*
D15*
X144526000Y-118618000D03*
X147066000Y-121158000D03*
X147066000Y-118618000D03*
X149606000Y-121158000D03*
X149606000Y-118618000D03*
D13*
X129921000Y-90678000D03*
D11*
X137541000Y-90678000D03*
X143510000Y-94488000D03*
D13*
X151130000Y-94488000D03*
X143510000Y-90678000D03*
D11*
X151130000Y-90678000D03*
D16*
X143509001Y-98806000D03*
D17*
X151129001Y-106426000D03*
X143509001Y-101346000D03*
X151129001Y-103886000D03*
X143509001Y-103886000D03*
X151129001Y-101346000D03*
X143509001Y-106426000D03*
X151129001Y-98806000D03*
X137414000Y-98806000D03*
X129794000Y-106426000D03*
X137414000Y-101346000D03*
X129794000Y-103886000D03*
X137414000Y-103886000D03*
X129794000Y-101346000D03*
X137414000Y-106426000D03*
D16*
X129794000Y-98806000D03*
D18*
X137668000Y-112268000D03*
D19*
X119888000Y-119888000D03*
X135128000Y-112268000D03*
X122428000Y-119888000D03*
X132588000Y-112268000D03*
X124968000Y-119888000D03*
X130048000Y-112268000D03*
X127508000Y-119888000D03*
X127508000Y-112268000D03*
X130048000Y-119888000D03*
X124968000Y-112268000D03*
X132588000Y-119888000D03*
X122428000Y-112268000D03*
X135128000Y-119888000D03*
X119888000Y-112268000D03*
X137668000Y-119888000D03*
D20*
X151130000Y-94488000D02*
X149225000Y-96393000D01*
X139827000Y-96393000D02*
X137414000Y-98806000D01*
X149225000Y-96393000D02*
X139827000Y-96393000D01*
D21*
X152654000Y-130048000D02*
X152654000Y-124460000D01*
X109094000Y-130048000D02*
X109094000Y-124334000D01*
D22*
X124968000Y-116975781D02*
X124968000Y-119888000D01*
X128758010Y-113185771D02*
X124968000Y-116975781D01*
X128758010Y-111390209D02*
X128758010Y-113185771D01*
X133604000Y-106544219D02*
X128758010Y-111390209D01*
X142591230Y-100095990D02*
X140091210Y-102596010D01*
X149878991Y-100095990D02*
X142591230Y-100095990D01*
X151129001Y-101346000D02*
X149878991Y-100095990D01*
X133604000Y-106544219D02*
X133638819Y-106544219D01*
X133638819Y-106544219D02*
X135077519Y-105105519D01*
X136536209Y-102596010D02*
X140091210Y-102596010D01*
X135077519Y-104054700D02*
X136536209Y-102596010D01*
X135077519Y-105105519D02*
X135077519Y-104054700D01*
X130048000Y-117602000D02*
X130048000Y-119888000D01*
X133838010Y-113811990D02*
X130048000Y-117602000D01*
X133838010Y-111390209D02*
X133838010Y-113811990D01*
X143509001Y-103886000D02*
X141859000Y-103886000D01*
X140569010Y-105175990D02*
X135997010Y-105175990D01*
X141859000Y-103886000D02*
X140569010Y-105175990D01*
X133858000Y-111370219D02*
X133838010Y-111390209D01*
X133858000Y-107315000D02*
X133858000Y-111370219D01*
X135997010Y-105175990D02*
X133858000Y-107315000D01*
X143225999Y-119857999D02*
X144526000Y-121158000D01*
X143225999Y-111789002D02*
X143225999Y-119857999D01*
X151129001Y-103886000D02*
X143225999Y-111789002D01*
X147036002Y-121158000D02*
X147066000Y-121158000D01*
X145004002Y-123190000D02*
X147036002Y-121158000D01*
X143510000Y-123190000D02*
X145004002Y-123190000D01*
X142494000Y-122174000D02*
X143510000Y-123190000D01*
X142494000Y-111506000D02*
X142494000Y-122174000D01*
X144018000Y-110007039D02*
X143992961Y-110007039D01*
X145159011Y-108866028D02*
X144018000Y-110007039D01*
X143992961Y-110007039D02*
X142494000Y-111506000D01*
X145159011Y-102996010D02*
X145159011Y-108866028D01*
X143509001Y-101346000D02*
X145159011Y-102996010D01*
X148694000Y-126879998D02*
X145004002Y-123190000D01*
X148694000Y-130048000D02*
X148694000Y-126879998D01*
X149860000Y-106426000D02*
X151129001Y-106426000D01*
X144018000Y-112268000D02*
X149860000Y-106426000D01*
X144018000Y-115570000D02*
X144018000Y-112268000D01*
X147066000Y-118618000D02*
X144018000Y-115570000D01*
X152779011Y-117984989D02*
X149606000Y-121158000D01*
X152046772Y-97555990D02*
X152779011Y-98288229D01*
X144760010Y-97555990D02*
X152046772Y-97555990D01*
X152779011Y-98288229D02*
X152779011Y-117984989D01*
X143510000Y-98806000D02*
X144760010Y-97555990D01*
X143509001Y-98806000D02*
X143510000Y-98806000D01*
X117014000Y-125048000D02*
X117014000Y-130048000D01*
X117014000Y-117682000D02*
X117014000Y-125048000D01*
X122428000Y-112268000D02*
X117014000Y-117682000D01*
X121177990Y-129844010D02*
X120974000Y-130048000D01*
X121177990Y-116058010D02*
X121177990Y-129844010D01*
X124968000Y-112268000D02*
X121177990Y-116058010D01*
X124934000Y-123732000D02*
X124934000Y-130048000D01*
X123717990Y-122515990D02*
X124934000Y-123732000D01*
X123717990Y-116058010D02*
X123717990Y-122515990D01*
X127508000Y-112268000D02*
X123717990Y-116058010D01*
X128797990Y-129951990D02*
X128894000Y-130048000D01*
X130048000Y-112268000D02*
X130048000Y-113792000D01*
X126257990Y-117582010D02*
X126257990Y-121177990D01*
X130048000Y-113792000D02*
X126257990Y-117582010D01*
X128894000Y-123814000D02*
X128894000Y-130048000D01*
X126257990Y-121177990D02*
X128894000Y-123814000D01*
X132588000Y-112268000D02*
X132588000Y-113030000D01*
X128797990Y-116820010D02*
X128797990Y-121177990D01*
X132588000Y-113030000D02*
X128797990Y-116820010D01*
X132854000Y-125234000D02*
X132854000Y-130048000D01*
X128797990Y-121177990D02*
X132854000Y-125234000D01*
X136417990Y-129651990D02*
X136814000Y-130048000D01*
X136814000Y-126281781D02*
X136814000Y-130048000D01*
X131337990Y-120805771D02*
X136814000Y-126281781D01*
X131337990Y-118090010D02*
X131337990Y-120805771D01*
X135128000Y-114300000D02*
X131337990Y-118090010D01*
X135128000Y-112268000D02*
X135128000Y-114300000D01*
X140774000Y-127701781D02*
X140774000Y-130048000D01*
X133838010Y-120765791D02*
X140774000Y-127701781D01*
X133838010Y-117875990D02*
X133838010Y-120765791D01*
X137668000Y-114046000D02*
X133838010Y-117875990D01*
X137668000Y-112268000D02*
X137668000Y-114046000D01*
X144734000Y-126954000D02*
X144734000Y-130048000D01*
X141224000Y-123444000D02*
X144734000Y-126954000D01*
X138684000Y-123444000D02*
X141224000Y-123444000D01*
X135128000Y-119888000D02*
X138684000Y-123444000D01*
X135763990Y-99695990D02*
X137414000Y-101346000D01*
X135763990Y-97662010D02*
X135763990Y-99695990D01*
X136906000Y-96520000D02*
X135763990Y-97662010D01*
X137795000Y-96520000D02*
X136906000Y-96520000D01*
X143510000Y-90805000D02*
X137795000Y-96520000D01*
X143510000Y-90678000D02*
X143510000Y-90805000D01*
D23*
X152688345Y-89217909D02*
X153039008Y-89323780D01*
X153362425Y-89495744D01*
X153646284Y-89727254D01*
X153879765Y-90009486D01*
X154053983Y-90331695D01*
X154162302Y-90681614D01*
X154203801Y-91076452D01*
X154203800Y-124187618D01*
X154203801Y-124187628D01*
X154203801Y-124968000D01*
X154015957Y-124968000D01*
X153998180Y-124958498D01*
X153878482Y-124922188D01*
X153754000Y-124909928D01*
X152939750Y-124913000D01*
X152884750Y-124968000D01*
X152423250Y-124968000D01*
X152368250Y-124913000D01*
X151554000Y-124909928D01*
X151429518Y-124922188D01*
X151309820Y-124958498D01*
X151292043Y-124968000D01*
X149878486Y-124968000D01*
X149741402Y-124926416D01*
X149574000Y-124909928D01*
X147975509Y-124909928D01*
X146255580Y-123190000D01*
X146822019Y-122623562D01*
X146919740Y-122643000D01*
X147212260Y-122643000D01*
X147499158Y-122585932D01*
X147769411Y-122473990D01*
X148012632Y-122311475D01*
X148219475Y-122104632D01*
X148336000Y-121930240D01*
X148452525Y-122104632D01*
X148659368Y-122311475D01*
X148902589Y-122473990D01*
X149172842Y-122585932D01*
X149459740Y-122643000D01*
X149752260Y-122643000D01*
X150039158Y-122585932D01*
X150309411Y-122473990D01*
X150552632Y-122311475D01*
X150759475Y-122104632D01*
X150921990Y-121861411D01*
X151033932Y-121591158D01*
X151091000Y-121304260D01*
X151091000Y-121011740D01*
X151076539Y-120939039D01*
X153374060Y-118641519D01*
X153407828Y-118613806D01*
X153518422Y-118479048D01*
X153600600Y-118325302D01*
X153651206Y-118158479D01*
X153664011Y-118028466D01*
X153664011Y-118028456D01*
X153668292Y-117984990D01*
X153664011Y-117941524D01*
X153664011Y-98331694D01*
X153668292Y-98288228D01*
X153664011Y-98244762D01*
X153664011Y-98244752D01*
X153651206Y-98114739D01*
X153600600Y-97947916D01*
X153518422Y-97794170D01*
X153407828Y-97659412D01*
X153374061Y-97631700D01*
X152703306Y-96960946D01*
X152675589Y-96927173D01*
X152540831Y-96816579D01*
X152387085Y-96734401D01*
X152220262Y-96683795D01*
X152090249Y-96670990D01*
X152090241Y-96670990D01*
X152046772Y-96666709D01*
X152003303Y-96670990D01*
X150375365Y-96670990D01*
X151123356Y-95923000D01*
X151271335Y-95923000D01*
X151548574Y-95867853D01*
X151809727Y-95759680D01*
X152044759Y-95602637D01*
X152244637Y-95402759D01*
X152401680Y-95167727D01*
X152509853Y-94906574D01*
X152565000Y-94629335D01*
X152565000Y-94346665D01*
X152509853Y-94069426D01*
X152401680Y-93808273D01*
X152244637Y-93573241D01*
X152044759Y-93373363D01*
X151809727Y-93216320D01*
X151548574Y-93108147D01*
X151271335Y-93053000D01*
X150988665Y-93053000D01*
X150711426Y-93108147D01*
X150450273Y-93216320D01*
X150215241Y-93373363D01*
X150015363Y-93573241D01*
X149858320Y-93808273D01*
X149750147Y-94069426D01*
X149695000Y-94346665D01*
X149695000Y-94494644D01*
X148806645Y-95383000D01*
X144637840Y-95383000D01*
X144781680Y-95167727D01*
X144889853Y-94906574D01*
X144945000Y-94629335D01*
X144945000Y-94346665D01*
X144889853Y-94069426D01*
X144781680Y-93808273D01*
X144624637Y-93573241D01*
X144424759Y-93373363D01*
X144189727Y-93216320D01*
X143928574Y-93108147D01*
X143651335Y-93053000D01*
X143368665Y-93053000D01*
X143091426Y-93108147D01*
X142830273Y-93216320D01*
X142595241Y-93373363D01*
X142395363Y-93573241D01*
X142238320Y-93808273D01*
X142130147Y-94069426D01*
X142075000Y-94346665D01*
X142075000Y-94629335D01*
X142130147Y-94906574D01*
X142238320Y-95167727D01*
X142382160Y-95383000D01*
X140183578Y-95383000D01*
X143453579Y-92113000D01*
X143651335Y-92113000D01*
X143928574Y-92057853D01*
X144189727Y-91949680D01*
X144424759Y-91792637D01*
X144624637Y-91592759D01*
X144781680Y-91357727D01*
X144889853Y-91096574D01*
X144903684Y-91027039D01*
X149738096Y-91027039D01*
X149778754Y-91161087D01*
X149898963Y-91415420D01*
X150066481Y-91641414D01*
X150274869Y-91830385D01*
X150516119Y-91975070D01*
X150780960Y-92069909D01*
X151003000Y-91948624D01*
X151003000Y-90805000D01*
X151257000Y-90805000D01*
X151257000Y-91948624D01*
X151479040Y-92069909D01*
X151743881Y-91975070D01*
X151985131Y-91830385D01*
X152193519Y-91641414D01*
X152361037Y-91415420D01*
X152481246Y-91161087D01*
X152521904Y-91027039D01*
X152399915Y-90805000D01*
X151257000Y-90805000D01*
X151003000Y-90805000D01*
X149860085Y-90805000D01*
X149738096Y-91027039D01*
X144903684Y-91027039D01*
X144945000Y-90819335D01*
X144945000Y-90536665D01*
X144903685Y-90328961D01*
X149738096Y-90328961D01*
X149860085Y-90551000D01*
X151003000Y-90551000D01*
X151003000Y-89407376D01*
X151257000Y-89407376D01*
X151257000Y-90551000D01*
X152399915Y-90551000D01*
X152521904Y-90328961D01*
X152481246Y-90194913D01*
X152361037Y-89940580D01*
X152193519Y-89714586D01*
X151985131Y-89525615D01*
X151743881Y-89380930D01*
X151479040Y-89286091D01*
X151257000Y-89407376D01*
X151003000Y-89407376D01*
X150780960Y-89286091D01*
X150516119Y-89380930D01*
X150274869Y-89525615D01*
X150066481Y-89714586D01*
X149898963Y-89940580D01*
X149778754Y-90194913D01*
X149738096Y-90328961D01*
X144903685Y-90328961D01*
X144889853Y-90259426D01*
X144781680Y-89998273D01*
X144624637Y-89763241D01*
X144424759Y-89563363D01*
X144189727Y-89406320D01*
X143928574Y-89298147D01*
X143651335Y-89243000D01*
X143368665Y-89243000D01*
X143091426Y-89298147D01*
X142830273Y-89406320D01*
X142595241Y-89563363D01*
X142395363Y-89763241D01*
X142238320Y-89998273D01*
X142130147Y-90259426D01*
X142075000Y-90536665D01*
X142075000Y-90819335D01*
X142103054Y-90960368D01*
X138979072Y-94084350D01*
X138979072Y-93688000D01*
X138966812Y-93563518D01*
X138930502Y-93443820D01*
X138871537Y-93333506D01*
X138792185Y-93236815D01*
X138695494Y-93157463D01*
X138585180Y-93098498D01*
X138465482Y-93062188D01*
X138341000Y-93049928D01*
X136741000Y-93049928D01*
X136616518Y-93062188D01*
X136496820Y-93098498D01*
X136386506Y-93157463D01*
X136289815Y-93236815D01*
X136210463Y-93333506D01*
X136151498Y-93443820D01*
X136115188Y-93563518D01*
X136102928Y-93688000D01*
X136102928Y-95288000D01*
X136115188Y-95412482D01*
X136151498Y-95532180D01*
X136210463Y-95642494D01*
X136289815Y-95739185D01*
X136376104Y-95810000D01*
X136310953Y-95863468D01*
X136310951Y-95863470D01*
X136277183Y-95891183D01*
X136249470Y-95924951D01*
X135168946Y-97005476D01*
X135135173Y-97033193D01*
X135024579Y-97167952D01*
X134942401Y-97321698D01*
X134917738Y-97403000D01*
X134898433Y-97466640D01*
X134891795Y-97488521D01*
X134878990Y-97618534D01*
X134878990Y-97618541D01*
X134874709Y-97662010D01*
X134878990Y-97705479D01*
X134878991Y-99652511D01*
X134874709Y-99695990D01*
X134891795Y-99869480D01*
X134942402Y-100036303D01*
X135024580Y-100190049D01*
X135107458Y-100291036D01*
X135107461Y-100291039D01*
X135135174Y-100324807D01*
X135168941Y-100352519D01*
X135665246Y-100848824D01*
X135599764Y-101064691D01*
X135572057Y-101346000D01*
X135599764Y-101627309D01*
X135681818Y-101897808D01*
X135786669Y-102093971D01*
X134482470Y-103398171D01*
X134448703Y-103425883D01*
X134420990Y-103459651D01*
X134420987Y-103459654D01*
X134338109Y-103560641D01*
X134255931Y-103714387D01*
X134205324Y-103881210D01*
X134188238Y-104054700D01*
X134192520Y-104098178D01*
X134192519Y-104738940D01*
X133145840Y-105785620D01*
X133109941Y-105804808D01*
X133008953Y-105887687D01*
X133008951Y-105887689D01*
X132975183Y-105915402D01*
X132947470Y-105949170D01*
X128255971Y-110640670D01*
X128059808Y-110535818D01*
X127789309Y-110453764D01*
X127508000Y-110426057D01*
X127226692Y-110453764D01*
X126956193Y-110535818D01*
X126706900Y-110669068D01*
X126488393Y-110848392D01*
X126309068Y-111066899D01*
X126238000Y-111199858D01*
X126166932Y-111066899D01*
X125987608Y-110848392D01*
X125769101Y-110669068D01*
X125519808Y-110535818D01*
X125249309Y-110453764D01*
X124968000Y-110426057D01*
X124686692Y-110453764D01*
X124416193Y-110535818D01*
X124166900Y-110669068D01*
X123948393Y-110848392D01*
X123769068Y-111066899D01*
X123698000Y-111199858D01*
X123626932Y-111066899D01*
X123447608Y-110848392D01*
X123229101Y-110669068D01*
X122979808Y-110535818D01*
X122709309Y-110453764D01*
X122428000Y-110426057D01*
X122146692Y-110453764D01*
X121876193Y-110535818D01*
X121626900Y-110669068D01*
X121408393Y-110848392D01*
X121229068Y-111066899D01*
X121160735Y-111194741D01*
X121010601Y-110965161D01*
X120812895Y-110763500D01*
X120579646Y-110604285D01*
X120319818Y-110493633D01*
X120237039Y-110476096D01*
X120015000Y-110598085D01*
X120015000Y-112141000D01*
X120035000Y-112141000D01*
X120035000Y-112395000D01*
X120015000Y-112395000D01*
X120015000Y-112415000D01*
X119761000Y-112415000D01*
X119761000Y-112395000D01*
X118453000Y-112395000D01*
X118453000Y-112795000D01*
X118505350Y-113072514D01*
X118610834Y-113334483D01*
X118765399Y-113570839D01*
X118963105Y-113772500D01*
X119196354Y-113931715D01*
X119418221Y-114026201D01*
X116418956Y-117025466D01*
X116385183Y-117053183D01*
X116274589Y-117187942D01*
X116192411Y-117341688D01*
X116166073Y-117428511D01*
X116145915Y-117494964D01*
X116141805Y-117508511D01*
X116129000Y-117638524D01*
X116129000Y-117638531D01*
X116124719Y-117682000D01*
X116129000Y-117725469D01*
X116129001Y-124910420D01*
X115966598Y-124926416D01*
X115829514Y-124968000D01*
X114238486Y-124968000D01*
X114101402Y-124926416D01*
X113934000Y-124909928D01*
X112174000Y-124909928D01*
X112006598Y-124926416D01*
X111869514Y-124968000D01*
X110455957Y-124968000D01*
X110438180Y-124958498D01*
X110318482Y-124922188D01*
X110194000Y-124909928D01*
X109379750Y-124913000D01*
X109324750Y-124968000D01*
X108863250Y-124968000D01*
X108808250Y-124913000D01*
X107994000Y-124909928D01*
X107869518Y-124922188D01*
X107749820Y-124958498D01*
X107732043Y-124968000D01*
X107517800Y-124968000D01*
X107517800Y-115640512D01*
X110319783Y-115640512D01*
X110361213Y-115920130D01*
X110456397Y-116186292D01*
X110521616Y-116308309D01*
X110508815Y-116318815D01*
X110429463Y-116415506D01*
X110370498Y-116525820D01*
X110334188Y-116645518D01*
X110321928Y-116770000D01*
X110321928Y-118370000D01*
X110334188Y-118494482D01*
X110370498Y-118614180D01*
X110429463Y-118724494D01*
X110508815Y-118821185D01*
X110605506Y-118900537D01*
X110715820Y-118959502D01*
X110835518Y-118995812D01*
X110960000Y-119008072D01*
X112560000Y-119008072D01*
X112684482Y-118995812D01*
X112804180Y-118959502D01*
X112914494Y-118900537D01*
X113011185Y-118821185D01*
X113090537Y-118724494D01*
X113149502Y-118614180D01*
X113185812Y-118494482D01*
X113198072Y-118370000D01*
X113198072Y-116770000D01*
X113185812Y-116645518D01*
X113149502Y-116525820D01*
X113090537Y-116415506D01*
X113011185Y-116318815D01*
X112998242Y-116308193D01*
X113117571Y-116056004D01*
X113186300Y-115781816D01*
X113200217Y-115499488D01*
X113158787Y-115219870D01*
X113063603Y-114953708D01*
X112996671Y-114828486D01*
X112752702Y-114756903D01*
X111939605Y-115570000D01*
X111953748Y-115584143D01*
X111774143Y-115763748D01*
X111760000Y-115749605D01*
X111745858Y-115763748D01*
X111566253Y-115584143D01*
X111580395Y-115570000D01*
X110767298Y-114756903D01*
X110523329Y-114828486D01*
X110402429Y-115083996D01*
X110333700Y-115358184D01*
X110319783Y-115640512D01*
X107517800Y-115640512D01*
X107517800Y-114577298D01*
X110946903Y-114577298D01*
X111760000Y-115390395D01*
X112573097Y-114577298D01*
X112501514Y-114333329D01*
X112246004Y-114212429D01*
X111971816Y-114143700D01*
X111689488Y-114129783D01*
X111409870Y-114171213D01*
X111143708Y-114266397D01*
X111018486Y-114333329D01*
X110946903Y-114577298D01*
X107517800Y-114577298D01*
X107517800Y-111741000D01*
X118453000Y-111741000D01*
X118453000Y-112141000D01*
X119761000Y-112141000D01*
X119761000Y-110598085D01*
X119538961Y-110476096D01*
X119456182Y-110493633D01*
X119196354Y-110604285D01*
X118963105Y-110763500D01*
X118765399Y-110965161D01*
X118610834Y-111201517D01*
X118505350Y-111463486D01*
X118453000Y-111741000D01*
X107517800Y-111741000D01*
X107517800Y-100985344D01*
X107963000Y-100985344D01*
X107963000Y-101356656D01*
X108035439Y-101720834D01*
X108177534Y-102063882D01*
X108383825Y-102372618D01*
X108646382Y-102635175D01*
X108955118Y-102841466D01*
X109298166Y-102983561D01*
X109662344Y-103056000D01*
X110033656Y-103056000D01*
X110397834Y-102983561D01*
X110632740Y-102886260D01*
X110535439Y-103121166D01*
X110463000Y-103485344D01*
X110463000Y-103856656D01*
X110535439Y-104220834D01*
X110677534Y-104563882D01*
X110883825Y-104872618D01*
X111146382Y-105135175D01*
X111455118Y-105341466D01*
X111798166Y-105483561D01*
X112162344Y-105556000D01*
X112533656Y-105556000D01*
X112897834Y-105483561D01*
X113240882Y-105341466D01*
X113549618Y-105135175D01*
X113812175Y-104872618D01*
X114018466Y-104563882D01*
X114160561Y-104220834D01*
X114233000Y-103856656D01*
X114233000Y-103485344D01*
X120463000Y-103485344D01*
X120463000Y-103856656D01*
X120535439Y-104220834D01*
X120677534Y-104563882D01*
X120883825Y-104872618D01*
X121146382Y-105135175D01*
X121455118Y-105341466D01*
X121798166Y-105483561D01*
X122162344Y-105556000D01*
X122533656Y-105556000D01*
X122897834Y-105483561D01*
X123240882Y-105341466D01*
X123549618Y-105135175D01*
X123812175Y-104872618D01*
X124018466Y-104563882D01*
X124160561Y-104220834D01*
X124233000Y-103856656D01*
X124233000Y-103485344D01*
X124160561Y-103121166D01*
X124063260Y-102886260D01*
X124298166Y-102983561D01*
X124662344Y-103056000D01*
X125033656Y-103056000D01*
X125397834Y-102983561D01*
X125740882Y-102841466D01*
X126049618Y-102635175D01*
X126312175Y-102372618D01*
X126518466Y-102063882D01*
X126660561Y-101720834D01*
X126733000Y-101356656D01*
X126733000Y-101346000D01*
X127952057Y-101346000D01*
X127979764Y-101627309D01*
X128061818Y-101897808D01*
X128195068Y-102147101D01*
X128374392Y-102365608D01*
X128592899Y-102544932D01*
X128725858Y-102616000D01*
X128592899Y-102687068D01*
X128374392Y-102866392D01*
X128195068Y-103084899D01*
X128061818Y-103334192D01*
X127979764Y-103604691D01*
X127952057Y-103886000D01*
X127979764Y-104167309D01*
X128061818Y-104437808D01*
X128195068Y-104687101D01*
X128374392Y-104905608D01*
X128592899Y-105084932D01*
X128725858Y-105156000D01*
X128592899Y-105227068D01*
X128374392Y-105406392D01*
X128195068Y-105624899D01*
X128061818Y-105874192D01*
X127979764Y-106144691D01*
X127952057Y-106426000D01*
X127979764Y-106707309D01*
X128061818Y-106977808D01*
X128195068Y-107227101D01*
X128374392Y-107445608D01*
X128592899Y-107624932D01*
X128842192Y-107758182D01*
X129112691Y-107840236D01*
X129323508Y-107861000D01*
X130264492Y-107861000D01*
X130475309Y-107840236D01*
X130745808Y-107758182D01*
X130995101Y-107624932D01*
X131213608Y-107445608D01*
X131392932Y-107227101D01*
X131526182Y-106977808D01*
X131608236Y-106707309D01*
X131635943Y-106426000D01*
X131608236Y-106144691D01*
X131526182Y-105874192D01*
X131392932Y-105624899D01*
X131213608Y-105406392D01*
X130995101Y-105227068D01*
X130862142Y-105156000D01*
X130995101Y-105084932D01*
X131213608Y-104905608D01*
X131392932Y-104687101D01*
X131526182Y-104437808D01*
X131608236Y-104167309D01*
X131635943Y-103886000D01*
X131608236Y-103604691D01*
X131526182Y-103334192D01*
X131392932Y-103084899D01*
X131213608Y-102866392D01*
X130995101Y-102687068D01*
X130862142Y-102616000D01*
X130995101Y-102544932D01*
X131213608Y-102365608D01*
X131392932Y-102147101D01*
X131526182Y-101897808D01*
X131608236Y-101627309D01*
X131635943Y-101346000D01*
X131608236Y-101064691D01*
X131526182Y-100794192D01*
X131392932Y-100544899D01*
X131213608Y-100326392D01*
X131100518Y-100233581D01*
X131118482Y-100231812D01*
X131238180Y-100195502D01*
X131348494Y-100136537D01*
X131445185Y-100057185D01*
X131524537Y-99960494D01*
X131583502Y-99850180D01*
X131619812Y-99730482D01*
X131632072Y-99606000D01*
X131632072Y-98006000D01*
X131619812Y-97881518D01*
X131583502Y-97761820D01*
X131524537Y-97651506D01*
X131445185Y-97554815D01*
X131348494Y-97475463D01*
X131238180Y-97416498D01*
X131118482Y-97380188D01*
X130994000Y-97367928D01*
X128594000Y-97367928D01*
X128469518Y-97380188D01*
X128349820Y-97416498D01*
X128239506Y-97475463D01*
X128142815Y-97554815D01*
X128063463Y-97651506D01*
X128004498Y-97761820D01*
X127968188Y-97881518D01*
X127955928Y-98006000D01*
X127955928Y-99606000D01*
X127968188Y-99730482D01*
X128004498Y-99850180D01*
X128063463Y-99960494D01*
X128142815Y-100057185D01*
X128239506Y-100136537D01*
X128349820Y-100195502D01*
X128469518Y-100231812D01*
X128487482Y-100233581D01*
X128374392Y-100326392D01*
X128195068Y-100544899D01*
X128061818Y-100794192D01*
X127979764Y-101064691D01*
X127952057Y-101346000D01*
X126733000Y-101346000D01*
X126733000Y-100985344D01*
X126660561Y-100621166D01*
X126518466Y-100278118D01*
X126312175Y-99969382D01*
X126049618Y-99706825D01*
X125740882Y-99500534D01*
X125397834Y-99358439D01*
X125033656Y-99286000D01*
X124662344Y-99286000D01*
X124298166Y-99358439D01*
X123955118Y-99500534D01*
X123646382Y-99706825D01*
X123383825Y-99969382D01*
X123177534Y-100278118D01*
X123035439Y-100621166D01*
X122963000Y-100985344D01*
X122963000Y-101356656D01*
X123035439Y-101720834D01*
X123132740Y-101955740D01*
X122897834Y-101858439D01*
X122533656Y-101786000D01*
X122162344Y-101786000D01*
X121798166Y-101858439D01*
X121455118Y-102000534D01*
X121146382Y-102206825D01*
X120883825Y-102469382D01*
X120677534Y-102778118D01*
X120535439Y-103121166D01*
X120463000Y-103485344D01*
X114233000Y-103485344D01*
X114160561Y-103121166D01*
X114018466Y-102778118D01*
X113812175Y-102469382D01*
X113549618Y-102206825D01*
X113240882Y-102000534D01*
X112897834Y-101858439D01*
X112533656Y-101786000D01*
X112162344Y-101786000D01*
X111798166Y-101858439D01*
X111563260Y-101955740D01*
X111660561Y-101720834D01*
X111733000Y-101356656D01*
X111733000Y-100985344D01*
X115463000Y-100985344D01*
X115463000Y-101356656D01*
X115535439Y-101720834D01*
X115677534Y-102063882D01*
X115883825Y-102372618D01*
X116146382Y-102635175D01*
X116455118Y-102841466D01*
X116798166Y-102983561D01*
X117162344Y-103056000D01*
X117533656Y-103056000D01*
X117897834Y-102983561D01*
X118240882Y-102841466D01*
X118549618Y-102635175D01*
X118812175Y-102372618D01*
X119018466Y-102063882D01*
X119160561Y-101720834D01*
X119233000Y-101356656D01*
X119233000Y-100985344D01*
X119160561Y-100621166D01*
X119018466Y-100278118D01*
X118812175Y-99969382D01*
X118549618Y-99706825D01*
X118240882Y-99500534D01*
X117897834Y-99358439D01*
X117533656Y-99286000D01*
X117162344Y-99286000D01*
X116798166Y-99358439D01*
X116455118Y-99500534D01*
X116146382Y-99706825D01*
X115883825Y-99969382D01*
X115677534Y-100278118D01*
X115535439Y-100621166D01*
X115463000Y-100985344D01*
X111733000Y-100985344D01*
X111660561Y-100621166D01*
X111518466Y-100278118D01*
X111312175Y-99969382D01*
X111049618Y-99706825D01*
X110740882Y-99500534D01*
X110397834Y-99358439D01*
X110033656Y-99286000D01*
X109662344Y-99286000D01*
X109298166Y-99358439D01*
X108955118Y-99500534D01*
X108646382Y-99706825D01*
X108383825Y-99969382D01*
X108177534Y-100278118D01*
X108035439Y-100621166D01*
X107963000Y-100985344D01*
X107517800Y-100985344D01*
X107517800Y-94346665D01*
X128486000Y-94346665D01*
X128486000Y-94629335D01*
X128541147Y-94906574D01*
X128649320Y-95167727D01*
X128806363Y-95402759D01*
X129006241Y-95602637D01*
X129241273Y-95759680D01*
X129502426Y-95867853D01*
X129779665Y-95923000D01*
X130062335Y-95923000D01*
X130339574Y-95867853D01*
X130600727Y-95759680D01*
X130835759Y-95602637D01*
X131035637Y-95402759D01*
X131192680Y-95167727D01*
X131300853Y-94906574D01*
X131356000Y-94629335D01*
X131356000Y-94346665D01*
X131300853Y-94069426D01*
X131192680Y-93808273D01*
X131035637Y-93573241D01*
X130835759Y-93373363D01*
X130600727Y-93216320D01*
X130339574Y-93108147D01*
X130062335Y-93053000D01*
X129779665Y-93053000D01*
X129502426Y-93108147D01*
X129241273Y-93216320D01*
X129006241Y-93373363D01*
X128806363Y-93573241D01*
X128649320Y-93808273D01*
X128541147Y-94069426D01*
X128486000Y-94346665D01*
X107517800Y-94346665D01*
X107517800Y-91091279D01*
X107528187Y-90985344D01*
X110463000Y-90985344D01*
X110463000Y-91356656D01*
X110535439Y-91720834D01*
X110677534Y-92063882D01*
X110883825Y-92372618D01*
X111146382Y-92635175D01*
X111455118Y-92841466D01*
X111798166Y-92983561D01*
X112162344Y-93056000D01*
X112533656Y-93056000D01*
X112897834Y-92983561D01*
X113240882Y-92841466D01*
X113549618Y-92635175D01*
X113812175Y-92372618D01*
X114018466Y-92063882D01*
X114160561Y-91720834D01*
X114233000Y-91356656D01*
X114233000Y-90985344D01*
X120463000Y-90985344D01*
X120463000Y-91356656D01*
X120535439Y-91720834D01*
X120677534Y-92063882D01*
X120883825Y-92372618D01*
X121146382Y-92635175D01*
X121455118Y-92841466D01*
X121798166Y-92983561D01*
X122162344Y-93056000D01*
X122533656Y-93056000D01*
X122897834Y-92983561D01*
X123240882Y-92841466D01*
X123549618Y-92635175D01*
X123812175Y-92372618D01*
X124018466Y-92063882D01*
X124160561Y-91720834D01*
X124233000Y-91356656D01*
X124233000Y-90985344D01*
X124160561Y-90621166D01*
X124125560Y-90536665D01*
X128486000Y-90536665D01*
X128486000Y-90819335D01*
X128541147Y-91096574D01*
X128649320Y-91357727D01*
X128806363Y-91592759D01*
X129006241Y-91792637D01*
X129241273Y-91949680D01*
X129502426Y-92057853D01*
X129779665Y-92113000D01*
X130062335Y-92113000D01*
X130339574Y-92057853D01*
X130600727Y-91949680D01*
X130835759Y-91792637D01*
X131035637Y-91592759D01*
X131192680Y-91357727D01*
X131300853Y-91096574D01*
X131356000Y-90819335D01*
X131356000Y-90536665D01*
X136106000Y-90536665D01*
X136106000Y-90819335D01*
X136161147Y-91096574D01*
X136269320Y-91357727D01*
X136426363Y-91592759D01*
X136626241Y-91792637D01*
X136861273Y-91949680D01*
X137122426Y-92057853D01*
X137399665Y-92113000D01*
X137682335Y-92113000D01*
X137959574Y-92057853D01*
X138220727Y-91949680D01*
X138455759Y-91792637D01*
X138655637Y-91592759D01*
X138812680Y-91357727D01*
X138920853Y-91096574D01*
X138976000Y-90819335D01*
X138976000Y-90536665D01*
X138920853Y-90259426D01*
X138812680Y-89998273D01*
X138655637Y-89763241D01*
X138455759Y-89563363D01*
X138220727Y-89406320D01*
X137959574Y-89298147D01*
X137682335Y-89243000D01*
X137399665Y-89243000D01*
X137122426Y-89298147D01*
X136861273Y-89406320D01*
X136626241Y-89563363D01*
X136426363Y-89763241D01*
X136269320Y-89998273D01*
X136161147Y-90259426D01*
X136106000Y-90536665D01*
X131356000Y-90536665D01*
X131300853Y-90259426D01*
X131192680Y-89998273D01*
X131035637Y-89763241D01*
X130835759Y-89563363D01*
X130600727Y-89406320D01*
X130339574Y-89298147D01*
X130062335Y-89243000D01*
X129779665Y-89243000D01*
X129502426Y-89298147D01*
X129241273Y-89406320D01*
X129006241Y-89563363D01*
X128806363Y-89763241D01*
X128649320Y-89998273D01*
X128541147Y-90259426D01*
X128486000Y-90536665D01*
X124125560Y-90536665D01*
X124018466Y-90278118D01*
X123812175Y-89969382D01*
X123549618Y-89706825D01*
X123240882Y-89500534D01*
X122897834Y-89358439D01*
X122533656Y-89286000D01*
X122162344Y-89286000D01*
X121798166Y-89358439D01*
X121455118Y-89500534D01*
X121146382Y-89706825D01*
X120883825Y-89969382D01*
X120677534Y-90278118D01*
X120535439Y-90621166D01*
X120463000Y-90985344D01*
X114233000Y-90985344D01*
X114160561Y-90621166D01*
X114018466Y-90278118D01*
X113812175Y-89969382D01*
X113549618Y-89706825D01*
X113240882Y-89500534D01*
X112897834Y-89358439D01*
X112533656Y-89286000D01*
X112162344Y-89286000D01*
X111798166Y-89358439D01*
X111455118Y-89500534D01*
X111146382Y-89706825D01*
X110883825Y-89969382D01*
X110677534Y-90278118D01*
X110535439Y-90621166D01*
X110463000Y-90985344D01*
X107528187Y-90985344D01*
X107556709Y-90694455D01*
X107662580Y-90343792D01*
X107834544Y-90020375D01*
X108066054Y-89736516D01*
X108348286Y-89503035D01*
X108670495Y-89328817D01*
X109020414Y-89220498D01*
X109415243Y-89179000D01*
X152291521Y-89179000D01*
X152688345Y-89217909D01*
G04 #@! TA.AperFunction,Conductor*
D24*
G36*
X152688345Y-89217909D02*
G01*
X153039008Y-89323780D01*
X153362425Y-89495744D01*
X153646284Y-89727254D01*
X153879765Y-90009486D01*
X154053983Y-90331695D01*
X154162302Y-90681614D01*
X154203801Y-91076452D01*
X154203800Y-124187618D01*
X154203801Y-124187628D01*
X154203801Y-124968000D01*
X154015957Y-124968000D01*
X153998180Y-124958498D01*
X153878482Y-124922188D01*
X153754000Y-124909928D01*
X152939750Y-124913000D01*
X152884750Y-124968000D01*
X152423250Y-124968000D01*
X152368250Y-124913000D01*
X151554000Y-124909928D01*
X151429518Y-124922188D01*
X151309820Y-124958498D01*
X151292043Y-124968000D01*
X149878486Y-124968000D01*
X149741402Y-124926416D01*
X149574000Y-124909928D01*
X147975509Y-124909928D01*
X146255580Y-123190000D01*
X146822019Y-122623562D01*
X146919740Y-122643000D01*
X147212260Y-122643000D01*
X147499158Y-122585932D01*
X147769411Y-122473990D01*
X148012632Y-122311475D01*
X148219475Y-122104632D01*
X148336000Y-121930240D01*
X148452525Y-122104632D01*
X148659368Y-122311475D01*
X148902589Y-122473990D01*
X149172842Y-122585932D01*
X149459740Y-122643000D01*
X149752260Y-122643000D01*
X150039158Y-122585932D01*
X150309411Y-122473990D01*
X150552632Y-122311475D01*
X150759475Y-122104632D01*
X150921990Y-121861411D01*
X151033932Y-121591158D01*
X151091000Y-121304260D01*
X151091000Y-121011740D01*
X151076539Y-120939039D01*
X153374060Y-118641519D01*
X153407828Y-118613806D01*
X153518422Y-118479048D01*
X153600600Y-118325302D01*
X153651206Y-118158479D01*
X153664011Y-118028466D01*
X153664011Y-118028456D01*
X153668292Y-117984990D01*
X153664011Y-117941524D01*
X153664011Y-98331694D01*
X153668292Y-98288228D01*
X153664011Y-98244762D01*
X153664011Y-98244752D01*
X153651206Y-98114739D01*
X153600600Y-97947916D01*
X153518422Y-97794170D01*
X153407828Y-97659412D01*
X153374061Y-97631700D01*
X152703306Y-96960946D01*
X152675589Y-96927173D01*
X152540831Y-96816579D01*
X152387085Y-96734401D01*
X152220262Y-96683795D01*
X152090249Y-96670990D01*
X152090241Y-96670990D01*
X152046772Y-96666709D01*
X152003303Y-96670990D01*
X150375365Y-96670990D01*
X151123356Y-95923000D01*
X151271335Y-95923000D01*
X151548574Y-95867853D01*
X151809727Y-95759680D01*
X152044759Y-95602637D01*
X152244637Y-95402759D01*
X152401680Y-95167727D01*
X152509853Y-94906574D01*
X152565000Y-94629335D01*
X152565000Y-94346665D01*
X152509853Y-94069426D01*
X152401680Y-93808273D01*
X152244637Y-93573241D01*
X152044759Y-93373363D01*
X151809727Y-93216320D01*
X151548574Y-93108147D01*
X151271335Y-93053000D01*
X150988665Y-93053000D01*
X150711426Y-93108147D01*
X150450273Y-93216320D01*
X150215241Y-93373363D01*
X150015363Y-93573241D01*
X149858320Y-93808273D01*
X149750147Y-94069426D01*
X149695000Y-94346665D01*
X149695000Y-94494644D01*
X148806645Y-95383000D01*
X144637840Y-95383000D01*
X144781680Y-95167727D01*
X144889853Y-94906574D01*
X144945000Y-94629335D01*
X144945000Y-94346665D01*
X144889853Y-94069426D01*
X144781680Y-93808273D01*
X144624637Y-93573241D01*
X144424759Y-93373363D01*
X144189727Y-93216320D01*
X143928574Y-93108147D01*
X143651335Y-93053000D01*
X143368665Y-93053000D01*
X143091426Y-93108147D01*
X142830273Y-93216320D01*
X142595241Y-93373363D01*
X142395363Y-93573241D01*
X142238320Y-93808273D01*
X142130147Y-94069426D01*
X142075000Y-94346665D01*
X142075000Y-94629335D01*
X142130147Y-94906574D01*
X142238320Y-95167727D01*
X142382160Y-95383000D01*
X140183578Y-95383000D01*
X143453579Y-92113000D01*
X143651335Y-92113000D01*
X143928574Y-92057853D01*
X144189727Y-91949680D01*
X144424759Y-91792637D01*
X144624637Y-91592759D01*
X144781680Y-91357727D01*
X144889853Y-91096574D01*
X144903684Y-91027039D01*
X149738096Y-91027039D01*
X149778754Y-91161087D01*
X149898963Y-91415420D01*
X150066481Y-91641414D01*
X150274869Y-91830385D01*
X150516119Y-91975070D01*
X150780960Y-92069909D01*
X151003000Y-91948624D01*
X151003000Y-90805000D01*
X151257000Y-90805000D01*
X151257000Y-91948624D01*
X151479040Y-92069909D01*
X151743881Y-91975070D01*
X151985131Y-91830385D01*
X152193519Y-91641414D01*
X152361037Y-91415420D01*
X152481246Y-91161087D01*
X152521904Y-91027039D01*
X152399915Y-90805000D01*
X151257000Y-90805000D01*
X151003000Y-90805000D01*
X149860085Y-90805000D01*
X149738096Y-91027039D01*
X144903684Y-91027039D01*
X144945000Y-90819335D01*
X144945000Y-90536665D01*
X144903685Y-90328961D01*
X149738096Y-90328961D01*
X149860085Y-90551000D01*
X151003000Y-90551000D01*
X151003000Y-89407376D01*
X151257000Y-89407376D01*
X151257000Y-90551000D01*
X152399915Y-90551000D01*
X152521904Y-90328961D01*
X152481246Y-90194913D01*
X152361037Y-89940580D01*
X152193519Y-89714586D01*
X151985131Y-89525615D01*
X151743881Y-89380930D01*
X151479040Y-89286091D01*
X151257000Y-89407376D01*
X151003000Y-89407376D01*
X150780960Y-89286091D01*
X150516119Y-89380930D01*
X150274869Y-89525615D01*
X150066481Y-89714586D01*
X149898963Y-89940580D01*
X149778754Y-90194913D01*
X149738096Y-90328961D01*
X144903685Y-90328961D01*
X144889853Y-90259426D01*
X144781680Y-89998273D01*
X144624637Y-89763241D01*
X144424759Y-89563363D01*
X144189727Y-89406320D01*
X143928574Y-89298147D01*
X143651335Y-89243000D01*
X143368665Y-89243000D01*
X143091426Y-89298147D01*
X142830273Y-89406320D01*
X142595241Y-89563363D01*
X142395363Y-89763241D01*
X142238320Y-89998273D01*
X142130147Y-90259426D01*
X142075000Y-90536665D01*
X142075000Y-90819335D01*
X142103054Y-90960368D01*
X138979072Y-94084350D01*
X138979072Y-93688000D01*
X138966812Y-93563518D01*
X138930502Y-93443820D01*
X138871537Y-93333506D01*
X138792185Y-93236815D01*
X138695494Y-93157463D01*
X138585180Y-93098498D01*
X138465482Y-93062188D01*
X138341000Y-93049928D01*
X136741000Y-93049928D01*
X136616518Y-93062188D01*
X136496820Y-93098498D01*
X136386506Y-93157463D01*
X136289815Y-93236815D01*
X136210463Y-93333506D01*
X136151498Y-93443820D01*
X136115188Y-93563518D01*
X136102928Y-93688000D01*
X136102928Y-95288000D01*
X136115188Y-95412482D01*
X136151498Y-95532180D01*
X136210463Y-95642494D01*
X136289815Y-95739185D01*
X136376104Y-95810000D01*
X136310953Y-95863468D01*
X136310951Y-95863470D01*
X136277183Y-95891183D01*
X136249470Y-95924951D01*
X135168946Y-97005476D01*
X135135173Y-97033193D01*
X135024579Y-97167952D01*
X134942401Y-97321698D01*
X134917738Y-97403000D01*
X134898433Y-97466640D01*
X134891795Y-97488521D01*
X134878990Y-97618534D01*
X134878990Y-97618541D01*
X134874709Y-97662010D01*
X134878990Y-97705479D01*
X134878991Y-99652511D01*
X134874709Y-99695990D01*
X134891795Y-99869480D01*
X134942402Y-100036303D01*
X135024580Y-100190049D01*
X135107458Y-100291036D01*
X135107461Y-100291039D01*
X135135174Y-100324807D01*
X135168941Y-100352519D01*
X135665246Y-100848824D01*
X135599764Y-101064691D01*
X135572057Y-101346000D01*
X135599764Y-101627309D01*
X135681818Y-101897808D01*
X135786669Y-102093971D01*
X134482470Y-103398171D01*
X134448703Y-103425883D01*
X134420990Y-103459651D01*
X134420987Y-103459654D01*
X134338109Y-103560641D01*
X134255931Y-103714387D01*
X134205324Y-103881210D01*
X134188238Y-104054700D01*
X134192520Y-104098178D01*
X134192519Y-104738940D01*
X133145840Y-105785620D01*
X133109941Y-105804808D01*
X133008953Y-105887687D01*
X133008951Y-105887689D01*
X132975183Y-105915402D01*
X132947470Y-105949170D01*
X128255971Y-110640670D01*
X128059808Y-110535818D01*
X127789309Y-110453764D01*
X127508000Y-110426057D01*
X127226692Y-110453764D01*
X126956193Y-110535818D01*
X126706900Y-110669068D01*
X126488393Y-110848392D01*
X126309068Y-111066899D01*
X126238000Y-111199858D01*
X126166932Y-111066899D01*
X125987608Y-110848392D01*
X125769101Y-110669068D01*
X125519808Y-110535818D01*
X125249309Y-110453764D01*
X124968000Y-110426057D01*
X124686692Y-110453764D01*
X124416193Y-110535818D01*
X124166900Y-110669068D01*
X123948393Y-110848392D01*
X123769068Y-111066899D01*
X123698000Y-111199858D01*
X123626932Y-111066899D01*
X123447608Y-110848392D01*
X123229101Y-110669068D01*
X122979808Y-110535818D01*
X122709309Y-110453764D01*
X122428000Y-110426057D01*
X122146692Y-110453764D01*
X121876193Y-110535818D01*
X121626900Y-110669068D01*
X121408393Y-110848392D01*
X121229068Y-111066899D01*
X121160735Y-111194741D01*
X121010601Y-110965161D01*
X120812895Y-110763500D01*
X120579646Y-110604285D01*
X120319818Y-110493633D01*
X120237039Y-110476096D01*
X120015000Y-110598085D01*
X120015000Y-112141000D01*
X120035000Y-112141000D01*
X120035000Y-112395000D01*
X120015000Y-112395000D01*
X120015000Y-112415000D01*
X119761000Y-112415000D01*
X119761000Y-112395000D01*
X118453000Y-112395000D01*
X118453000Y-112795000D01*
X118505350Y-113072514D01*
X118610834Y-113334483D01*
X118765399Y-113570839D01*
X118963105Y-113772500D01*
X119196354Y-113931715D01*
X119418221Y-114026201D01*
X116418956Y-117025466D01*
X116385183Y-117053183D01*
X116274589Y-117187942D01*
X116192411Y-117341688D01*
X116166073Y-117428511D01*
X116145915Y-117494964D01*
X116141805Y-117508511D01*
X116129000Y-117638524D01*
X116129000Y-117638531D01*
X116124719Y-117682000D01*
X116129000Y-117725469D01*
X116129001Y-124910420D01*
X115966598Y-124926416D01*
X115829514Y-124968000D01*
X114238486Y-124968000D01*
X114101402Y-124926416D01*
X113934000Y-124909928D01*
X112174000Y-124909928D01*
X112006598Y-124926416D01*
X111869514Y-124968000D01*
X110455957Y-124968000D01*
X110438180Y-124958498D01*
X110318482Y-124922188D01*
X110194000Y-124909928D01*
X109379750Y-124913000D01*
X109324750Y-124968000D01*
X108863250Y-124968000D01*
X108808250Y-124913000D01*
X107994000Y-124909928D01*
X107869518Y-124922188D01*
X107749820Y-124958498D01*
X107732043Y-124968000D01*
X107517800Y-124968000D01*
X107517800Y-115640512D01*
X110319783Y-115640512D01*
X110361213Y-115920130D01*
X110456397Y-116186292D01*
X110521616Y-116308309D01*
X110508815Y-116318815D01*
X110429463Y-116415506D01*
X110370498Y-116525820D01*
X110334188Y-116645518D01*
X110321928Y-116770000D01*
X110321928Y-118370000D01*
X110334188Y-118494482D01*
X110370498Y-118614180D01*
X110429463Y-118724494D01*
X110508815Y-118821185D01*
X110605506Y-118900537D01*
X110715820Y-118959502D01*
X110835518Y-118995812D01*
X110960000Y-119008072D01*
X112560000Y-119008072D01*
X112684482Y-118995812D01*
X112804180Y-118959502D01*
X112914494Y-118900537D01*
X113011185Y-118821185D01*
X113090537Y-118724494D01*
X113149502Y-118614180D01*
X113185812Y-118494482D01*
X113198072Y-118370000D01*
X113198072Y-116770000D01*
X113185812Y-116645518D01*
X113149502Y-116525820D01*
X113090537Y-116415506D01*
X113011185Y-116318815D01*
X112998242Y-116308193D01*
X113117571Y-116056004D01*
X113186300Y-115781816D01*
X113200217Y-115499488D01*
X113158787Y-115219870D01*
X113063603Y-114953708D01*
X112996671Y-114828486D01*
X112752702Y-114756903D01*
X111939605Y-115570000D01*
X111953748Y-115584143D01*
X111774143Y-115763748D01*
X111760000Y-115749605D01*
X111745858Y-115763748D01*
X111566253Y-115584143D01*
X111580395Y-115570000D01*
X110767298Y-114756903D01*
X110523329Y-114828486D01*
X110402429Y-115083996D01*
X110333700Y-115358184D01*
X110319783Y-115640512D01*
X107517800Y-115640512D01*
X107517800Y-114577298D01*
X110946903Y-114577298D01*
X111760000Y-115390395D01*
X112573097Y-114577298D01*
X112501514Y-114333329D01*
X112246004Y-114212429D01*
X111971816Y-114143700D01*
X111689488Y-114129783D01*
X111409870Y-114171213D01*
X111143708Y-114266397D01*
X111018486Y-114333329D01*
X110946903Y-114577298D01*
X107517800Y-114577298D01*
X107517800Y-111741000D01*
X118453000Y-111741000D01*
X118453000Y-112141000D01*
X119761000Y-112141000D01*
X119761000Y-110598085D01*
X119538961Y-110476096D01*
X119456182Y-110493633D01*
X119196354Y-110604285D01*
X118963105Y-110763500D01*
X118765399Y-110965161D01*
X118610834Y-111201517D01*
X118505350Y-111463486D01*
X118453000Y-111741000D01*
X107517800Y-111741000D01*
X107517800Y-100985344D01*
X107963000Y-100985344D01*
X107963000Y-101356656D01*
X108035439Y-101720834D01*
X108177534Y-102063882D01*
X108383825Y-102372618D01*
X108646382Y-102635175D01*
X108955118Y-102841466D01*
X109298166Y-102983561D01*
X109662344Y-103056000D01*
X110033656Y-103056000D01*
X110397834Y-102983561D01*
X110632740Y-102886260D01*
X110535439Y-103121166D01*
X110463000Y-103485344D01*
X110463000Y-103856656D01*
X110535439Y-104220834D01*
X110677534Y-104563882D01*
X110883825Y-104872618D01*
X111146382Y-105135175D01*
X111455118Y-105341466D01*
X111798166Y-105483561D01*
X112162344Y-105556000D01*
X112533656Y-105556000D01*
X112897834Y-105483561D01*
X113240882Y-105341466D01*
X113549618Y-105135175D01*
X113812175Y-104872618D01*
X114018466Y-104563882D01*
X114160561Y-104220834D01*
X114233000Y-103856656D01*
X114233000Y-103485344D01*
X120463000Y-103485344D01*
X120463000Y-103856656D01*
X120535439Y-104220834D01*
X120677534Y-104563882D01*
X120883825Y-104872618D01*
X121146382Y-105135175D01*
X121455118Y-105341466D01*
X121798166Y-105483561D01*
X122162344Y-105556000D01*
X122533656Y-105556000D01*
X122897834Y-105483561D01*
X123240882Y-105341466D01*
X123549618Y-105135175D01*
X123812175Y-104872618D01*
X124018466Y-104563882D01*
X124160561Y-104220834D01*
X124233000Y-103856656D01*
X124233000Y-103485344D01*
X124160561Y-103121166D01*
X124063260Y-102886260D01*
X124298166Y-102983561D01*
X124662344Y-103056000D01*
X125033656Y-103056000D01*
X125397834Y-102983561D01*
X125740882Y-102841466D01*
X126049618Y-102635175D01*
X126312175Y-102372618D01*
X126518466Y-102063882D01*
X126660561Y-101720834D01*
X126733000Y-101356656D01*
X126733000Y-101346000D01*
X127952057Y-101346000D01*
X127979764Y-101627309D01*
X128061818Y-101897808D01*
X128195068Y-102147101D01*
X128374392Y-102365608D01*
X128592899Y-102544932D01*
X128725858Y-102616000D01*
X128592899Y-102687068D01*
X128374392Y-102866392D01*
X128195068Y-103084899D01*
X128061818Y-103334192D01*
X127979764Y-103604691D01*
X127952057Y-103886000D01*
X127979764Y-104167309D01*
X128061818Y-104437808D01*
X128195068Y-104687101D01*
X128374392Y-104905608D01*
X128592899Y-105084932D01*
X128725858Y-105156000D01*
X128592899Y-105227068D01*
X128374392Y-105406392D01*
X128195068Y-105624899D01*
X128061818Y-105874192D01*
X127979764Y-106144691D01*
X127952057Y-106426000D01*
X127979764Y-106707309D01*
X128061818Y-106977808D01*
X128195068Y-107227101D01*
X128374392Y-107445608D01*
X128592899Y-107624932D01*
X128842192Y-107758182D01*
X129112691Y-107840236D01*
X129323508Y-107861000D01*
X130264492Y-107861000D01*
X130475309Y-107840236D01*
X130745808Y-107758182D01*
X130995101Y-107624932D01*
X131213608Y-107445608D01*
X131392932Y-107227101D01*
X131526182Y-106977808D01*
X131608236Y-106707309D01*
X131635943Y-106426000D01*
X131608236Y-106144691D01*
X131526182Y-105874192D01*
X131392932Y-105624899D01*
X131213608Y-105406392D01*
X130995101Y-105227068D01*
X130862142Y-105156000D01*
X130995101Y-105084932D01*
X131213608Y-104905608D01*
X131392932Y-104687101D01*
X131526182Y-104437808D01*
X131608236Y-104167309D01*
X131635943Y-103886000D01*
X131608236Y-103604691D01*
X131526182Y-103334192D01*
X131392932Y-103084899D01*
X131213608Y-102866392D01*
X130995101Y-102687068D01*
X130862142Y-102616000D01*
X130995101Y-102544932D01*
X131213608Y-102365608D01*
X131392932Y-102147101D01*
X131526182Y-101897808D01*
X131608236Y-101627309D01*
X131635943Y-101346000D01*
X131608236Y-101064691D01*
X131526182Y-100794192D01*
X131392932Y-100544899D01*
X131213608Y-100326392D01*
X131100518Y-100233581D01*
X131118482Y-100231812D01*
X131238180Y-100195502D01*
X131348494Y-100136537D01*
X131445185Y-100057185D01*
X131524537Y-99960494D01*
X131583502Y-99850180D01*
X131619812Y-99730482D01*
X131632072Y-99606000D01*
X131632072Y-98006000D01*
X131619812Y-97881518D01*
X131583502Y-97761820D01*
X131524537Y-97651506D01*
X131445185Y-97554815D01*
X131348494Y-97475463D01*
X131238180Y-97416498D01*
X131118482Y-97380188D01*
X130994000Y-97367928D01*
X128594000Y-97367928D01*
X128469518Y-97380188D01*
X128349820Y-97416498D01*
X128239506Y-97475463D01*
X128142815Y-97554815D01*
X128063463Y-97651506D01*
X128004498Y-97761820D01*
X127968188Y-97881518D01*
X127955928Y-98006000D01*
X127955928Y-99606000D01*
X127968188Y-99730482D01*
X128004498Y-99850180D01*
X128063463Y-99960494D01*
X128142815Y-100057185D01*
X128239506Y-100136537D01*
X128349820Y-100195502D01*
X128469518Y-100231812D01*
X128487482Y-100233581D01*
X128374392Y-100326392D01*
X128195068Y-100544899D01*
X128061818Y-100794192D01*
X127979764Y-101064691D01*
X127952057Y-101346000D01*
X126733000Y-101346000D01*
X126733000Y-100985344D01*
X126660561Y-100621166D01*
X126518466Y-100278118D01*
X126312175Y-99969382D01*
X126049618Y-99706825D01*
X125740882Y-99500534D01*
X125397834Y-99358439D01*
X125033656Y-99286000D01*
X124662344Y-99286000D01*
X124298166Y-99358439D01*
X123955118Y-99500534D01*
X123646382Y-99706825D01*
X123383825Y-99969382D01*
X123177534Y-100278118D01*
X123035439Y-100621166D01*
X122963000Y-100985344D01*
X122963000Y-101356656D01*
X123035439Y-101720834D01*
X123132740Y-101955740D01*
X122897834Y-101858439D01*
X122533656Y-101786000D01*
X122162344Y-101786000D01*
X121798166Y-101858439D01*
X121455118Y-102000534D01*
X121146382Y-102206825D01*
X120883825Y-102469382D01*
X120677534Y-102778118D01*
X120535439Y-103121166D01*
X120463000Y-103485344D01*
X114233000Y-103485344D01*
X114160561Y-103121166D01*
X114018466Y-102778118D01*
X113812175Y-102469382D01*
X113549618Y-102206825D01*
X113240882Y-102000534D01*
X112897834Y-101858439D01*
X112533656Y-101786000D01*
X112162344Y-101786000D01*
X111798166Y-101858439D01*
X111563260Y-101955740D01*
X111660561Y-101720834D01*
X111733000Y-101356656D01*
X111733000Y-100985344D01*
X115463000Y-100985344D01*
X115463000Y-101356656D01*
X115535439Y-101720834D01*
X115677534Y-102063882D01*
X115883825Y-102372618D01*
X116146382Y-102635175D01*
X116455118Y-102841466D01*
X116798166Y-102983561D01*
X117162344Y-103056000D01*
X117533656Y-103056000D01*
X117897834Y-102983561D01*
X118240882Y-102841466D01*
X118549618Y-102635175D01*
X118812175Y-102372618D01*
X119018466Y-102063882D01*
X119160561Y-101720834D01*
X119233000Y-101356656D01*
X119233000Y-100985344D01*
X119160561Y-100621166D01*
X119018466Y-100278118D01*
X118812175Y-99969382D01*
X118549618Y-99706825D01*
X118240882Y-99500534D01*
X117897834Y-99358439D01*
X117533656Y-99286000D01*
X117162344Y-99286000D01*
X116798166Y-99358439D01*
X116455118Y-99500534D01*
X116146382Y-99706825D01*
X115883825Y-99969382D01*
X115677534Y-100278118D01*
X115535439Y-100621166D01*
X115463000Y-100985344D01*
X111733000Y-100985344D01*
X111660561Y-100621166D01*
X111518466Y-100278118D01*
X111312175Y-99969382D01*
X111049618Y-99706825D01*
X110740882Y-99500534D01*
X110397834Y-99358439D01*
X110033656Y-99286000D01*
X109662344Y-99286000D01*
X109298166Y-99358439D01*
X108955118Y-99500534D01*
X108646382Y-99706825D01*
X108383825Y-99969382D01*
X108177534Y-100278118D01*
X108035439Y-100621166D01*
X107963000Y-100985344D01*
X107517800Y-100985344D01*
X107517800Y-94346665D01*
X128486000Y-94346665D01*
X128486000Y-94629335D01*
X128541147Y-94906574D01*
X128649320Y-95167727D01*
X128806363Y-95402759D01*
X129006241Y-95602637D01*
X129241273Y-95759680D01*
X129502426Y-95867853D01*
X129779665Y-95923000D01*
X130062335Y-95923000D01*
X130339574Y-95867853D01*
X130600727Y-95759680D01*
X130835759Y-95602637D01*
X131035637Y-95402759D01*
X131192680Y-95167727D01*
X131300853Y-94906574D01*
X131356000Y-94629335D01*
X131356000Y-94346665D01*
X131300853Y-94069426D01*
X131192680Y-93808273D01*
X131035637Y-93573241D01*
X130835759Y-93373363D01*
X130600727Y-93216320D01*
X130339574Y-93108147D01*
X130062335Y-93053000D01*
X129779665Y-93053000D01*
X129502426Y-93108147D01*
X129241273Y-93216320D01*
X129006241Y-93373363D01*
X128806363Y-93573241D01*
X128649320Y-93808273D01*
X128541147Y-94069426D01*
X128486000Y-94346665D01*
X107517800Y-94346665D01*
X107517800Y-91091279D01*
X107528187Y-90985344D01*
X110463000Y-90985344D01*
X110463000Y-91356656D01*
X110535439Y-91720834D01*
X110677534Y-92063882D01*
X110883825Y-92372618D01*
X111146382Y-92635175D01*
X111455118Y-92841466D01*
X111798166Y-92983561D01*
X112162344Y-93056000D01*
X112533656Y-93056000D01*
X112897834Y-92983561D01*
X113240882Y-92841466D01*
X113549618Y-92635175D01*
X113812175Y-92372618D01*
X114018466Y-92063882D01*
X114160561Y-91720834D01*
X114233000Y-91356656D01*
X114233000Y-90985344D01*
X120463000Y-90985344D01*
X120463000Y-91356656D01*
X120535439Y-91720834D01*
X120677534Y-92063882D01*
X120883825Y-92372618D01*
X121146382Y-92635175D01*
X121455118Y-92841466D01*
X121798166Y-92983561D01*
X122162344Y-93056000D01*
X122533656Y-93056000D01*
X122897834Y-92983561D01*
X123240882Y-92841466D01*
X123549618Y-92635175D01*
X123812175Y-92372618D01*
X124018466Y-92063882D01*
X124160561Y-91720834D01*
X124233000Y-91356656D01*
X124233000Y-90985344D01*
X124160561Y-90621166D01*
X124125560Y-90536665D01*
X128486000Y-90536665D01*
X128486000Y-90819335D01*
X128541147Y-91096574D01*
X128649320Y-91357727D01*
X128806363Y-91592759D01*
X129006241Y-91792637D01*
X129241273Y-91949680D01*
X129502426Y-92057853D01*
X129779665Y-92113000D01*
X130062335Y-92113000D01*
X130339574Y-92057853D01*
X130600727Y-91949680D01*
X130835759Y-91792637D01*
X131035637Y-91592759D01*
X131192680Y-91357727D01*
X131300853Y-91096574D01*
X131356000Y-90819335D01*
X131356000Y-90536665D01*
X136106000Y-90536665D01*
X136106000Y-90819335D01*
X136161147Y-91096574D01*
X136269320Y-91357727D01*
X136426363Y-91592759D01*
X136626241Y-91792637D01*
X136861273Y-91949680D01*
X137122426Y-92057853D01*
X137399665Y-92113000D01*
X137682335Y-92113000D01*
X137959574Y-92057853D01*
X138220727Y-91949680D01*
X138455759Y-91792637D01*
X138655637Y-91592759D01*
X138812680Y-91357727D01*
X138920853Y-91096574D01*
X138976000Y-90819335D01*
X138976000Y-90536665D01*
X138920853Y-90259426D01*
X138812680Y-89998273D01*
X138655637Y-89763241D01*
X138455759Y-89563363D01*
X138220727Y-89406320D01*
X137959574Y-89298147D01*
X137682335Y-89243000D01*
X137399665Y-89243000D01*
X137122426Y-89298147D01*
X136861273Y-89406320D01*
X136626241Y-89563363D01*
X136426363Y-89763241D01*
X136269320Y-89998273D01*
X136161147Y-90259426D01*
X136106000Y-90536665D01*
X131356000Y-90536665D01*
X131300853Y-90259426D01*
X131192680Y-89998273D01*
X131035637Y-89763241D01*
X130835759Y-89563363D01*
X130600727Y-89406320D01*
X130339574Y-89298147D01*
X130062335Y-89243000D01*
X129779665Y-89243000D01*
X129502426Y-89298147D01*
X129241273Y-89406320D01*
X129006241Y-89563363D01*
X128806363Y-89763241D01*
X128649320Y-89998273D01*
X128541147Y-90259426D01*
X128486000Y-90536665D01*
X124125560Y-90536665D01*
X124018466Y-90278118D01*
X123812175Y-89969382D01*
X123549618Y-89706825D01*
X123240882Y-89500534D01*
X122897834Y-89358439D01*
X122533656Y-89286000D01*
X122162344Y-89286000D01*
X121798166Y-89358439D01*
X121455118Y-89500534D01*
X121146382Y-89706825D01*
X120883825Y-89969382D01*
X120677534Y-90278118D01*
X120535439Y-90621166D01*
X120463000Y-90985344D01*
X114233000Y-90985344D01*
X114160561Y-90621166D01*
X114018466Y-90278118D01*
X113812175Y-89969382D01*
X113549618Y-89706825D01*
X113240882Y-89500534D01*
X112897834Y-89358439D01*
X112533656Y-89286000D01*
X112162344Y-89286000D01*
X111798166Y-89358439D01*
X111455118Y-89500534D01*
X111146382Y-89706825D01*
X110883825Y-89969382D01*
X110677534Y-90278118D01*
X110535439Y-90621166D01*
X110463000Y-90985344D01*
X107528187Y-90985344D01*
X107556709Y-90694455D01*
X107662580Y-90343792D01*
X107834544Y-90020375D01*
X108066054Y-89736516D01*
X108348286Y-89503035D01*
X108670495Y-89328817D01*
X109020414Y-89220498D01*
X109415243Y-89179000D01*
X152291521Y-89179000D01*
X152688345Y-89217909D01*
G37*
G04 #@! TD.AperFunction*
D23*
X142307900Y-105084932D02*
X142435742Y-105153265D01*
X142206162Y-105303399D01*
X142004501Y-105501105D01*
X141845286Y-105734354D01*
X141734634Y-105994182D01*
X141717097Y-106076961D01*
X141839086Y-106299000D01*
X143382001Y-106299000D01*
X143382001Y-106279000D01*
X143636001Y-106279000D01*
X143636001Y-106299000D01*
X143656001Y-106299000D01*
X143656001Y-106553000D01*
X143636001Y-106553000D01*
X143636001Y-107861000D01*
X144036001Y-107861000D01*
X144274012Y-107816102D01*
X144274012Y-108499448D01*
X143513791Y-109259670D01*
X143498902Y-109267628D01*
X143498900Y-109267629D01*
X143498901Y-109267629D01*
X143397914Y-109350507D01*
X143397912Y-109350509D01*
X143364144Y-109378222D01*
X143336431Y-109411990D01*
X141898956Y-110849466D01*
X141865183Y-110877183D01*
X141754589Y-111011942D01*
X141672411Y-111165688D01*
X141621805Y-111332511D01*
X141609000Y-111462524D01*
X141609000Y-111462531D01*
X141604719Y-111506000D01*
X141609000Y-111549469D01*
X141609001Y-122130521D01*
X141604719Y-122174000D01*
X141621805Y-122347490D01*
X141672412Y-122514313D01*
X141754590Y-122668059D01*
X141837468Y-122769046D01*
X141837471Y-122769049D01*
X141865184Y-122802817D01*
X141898951Y-122830529D01*
X142853470Y-123785049D01*
X142881183Y-123818817D01*
X142914951Y-123846530D01*
X142914953Y-123846532D01*
X142981818Y-123901407D01*
X143015941Y-123929411D01*
X143169687Y-124011589D01*
X143285903Y-124046843D01*
X143336509Y-124062195D01*
X143351306Y-124063652D01*
X143466523Y-124075000D01*
X143466531Y-124075000D01*
X143510000Y-124079281D01*
X143553469Y-124075000D01*
X144637424Y-124075000D01*
X145472352Y-124909928D01*
X143941507Y-124909928D01*
X141880534Y-122848956D01*
X141852817Y-122815183D01*
X141718059Y-122704589D01*
X141564313Y-122622411D01*
X141397490Y-122571805D01*
X141267477Y-122559000D01*
X141267469Y-122559000D01*
X141224000Y-122554719D01*
X141180531Y-122559000D01*
X139050579Y-122559000D01*
X138136908Y-121645329D01*
X138219807Y-121620182D01*
X138469100Y-121486932D01*
X138687607Y-121307608D01*
X138866932Y-121089101D01*
X139000182Y-120839808D01*
X139082236Y-120569309D01*
X139103000Y-120358492D01*
X139103000Y-119417509D01*
X139082236Y-119206691D01*
X139000182Y-118936192D01*
X138866932Y-118686899D01*
X138687608Y-118468392D01*
X138469101Y-118289068D01*
X138219808Y-118155818D01*
X137949309Y-118073764D01*
X137668000Y-118046057D01*
X137386692Y-118073764D01*
X137116193Y-118155818D01*
X136866900Y-118289068D01*
X136648393Y-118468392D01*
X136469068Y-118686899D01*
X136398000Y-118819858D01*
X136326932Y-118686899D01*
X136147608Y-118468392D01*
X135929101Y-118289068D01*
X135679808Y-118155818D01*
X135409309Y-118073764D01*
X135128000Y-118046057D01*
X134896744Y-118068834D01*
X138263049Y-114702530D01*
X138296817Y-114674817D01*
X138325134Y-114640314D01*
X138407411Y-114540059D01*
X138445888Y-114468072D01*
X138489589Y-114386313D01*
X138540195Y-114219490D01*
X138552182Y-114097781D01*
X138592482Y-114093812D01*
X138712180Y-114057502D01*
X138822494Y-113998537D01*
X138919185Y-113919185D01*
X138998537Y-113822494D01*
X139057502Y-113712180D01*
X139093812Y-113592482D01*
X139106072Y-113468000D01*
X139106072Y-111068000D01*
X139093812Y-110943518D01*
X139057502Y-110823820D01*
X138998537Y-110713506D01*
X138919185Y-110616815D01*
X138822494Y-110537463D01*
X138712180Y-110478498D01*
X138592482Y-110442188D01*
X138468000Y-110429928D01*
X136868000Y-110429928D01*
X136743518Y-110442188D01*
X136623820Y-110478498D01*
X136513506Y-110537463D01*
X136416815Y-110616815D01*
X136337463Y-110713506D01*
X136278498Y-110823820D01*
X136242188Y-110943518D01*
X136240419Y-110961482D01*
X136147608Y-110848392D01*
X135929101Y-110669068D01*
X135679808Y-110535818D01*
X135409309Y-110453764D01*
X135128000Y-110426057D01*
X134846692Y-110453764D01*
X134743000Y-110485218D01*
X134743000Y-107681578D01*
X135626894Y-106797685D01*
X135639633Y-106857818D01*
X135750285Y-107117646D01*
X135909500Y-107350895D01*
X136111161Y-107548601D01*
X136347517Y-107703166D01*
X136609486Y-107808650D01*
X136887000Y-107861000D01*
X137287000Y-107861000D01*
X137287000Y-106553000D01*
X137541000Y-106553000D01*
X137541000Y-107861000D01*
X137941000Y-107861000D01*
X138218514Y-107808650D01*
X138480483Y-107703166D01*
X138716839Y-107548601D01*
X138918500Y-107350895D01*
X139077715Y-107117646D01*
X139188367Y-106857818D01*
X139205904Y-106775039D01*
X141717097Y-106775039D01*
X141734634Y-106857818D01*
X141845286Y-107117646D01*
X142004501Y-107350895D01*
X142206162Y-107548601D01*
X142442518Y-107703166D01*
X142704487Y-107808650D01*
X142982001Y-107861000D01*
X143382001Y-107861000D01*
X143382001Y-106553000D01*
X141839086Y-106553000D01*
X141717097Y-106775039D01*
X139205904Y-106775039D01*
X139083915Y-106553000D01*
X137541000Y-106553000D01*
X137287000Y-106553000D01*
X137267000Y-106553000D01*
X137267000Y-106299000D01*
X137287000Y-106299000D01*
X137287000Y-106279000D01*
X137541000Y-106279000D01*
X137541000Y-106299000D01*
X139083915Y-106299000D01*
X139205904Y-106076961D01*
X139202520Y-106060990D01*
X140525541Y-106060990D01*
X140569010Y-106065271D01*
X140612479Y-106060990D01*
X140612487Y-106060990D01*
X140742500Y-106048185D01*
X140909323Y-105997579D01*
X141063069Y-105915401D01*
X141197827Y-105804807D01*
X141225544Y-105771034D01*
X142090260Y-104906319D01*
X142307900Y-105084932D01*
G04 #@! TA.AperFunction,Conductor*
D24*
G36*
X142307900Y-105084932D02*
G01*
X142435742Y-105153265D01*
X142206162Y-105303399D01*
X142004501Y-105501105D01*
X141845286Y-105734354D01*
X141734634Y-105994182D01*
X141717097Y-106076961D01*
X141839086Y-106299000D01*
X143382001Y-106299000D01*
X143382001Y-106279000D01*
X143636001Y-106279000D01*
X143636001Y-106299000D01*
X143656001Y-106299000D01*
X143656001Y-106553000D01*
X143636001Y-106553000D01*
X143636001Y-107861000D01*
X144036001Y-107861000D01*
X144274012Y-107816102D01*
X144274012Y-108499448D01*
X143513791Y-109259670D01*
X143498902Y-109267628D01*
X143498900Y-109267629D01*
X143498901Y-109267629D01*
X143397914Y-109350507D01*
X143397912Y-109350509D01*
X143364144Y-109378222D01*
X143336431Y-109411990D01*
X141898956Y-110849466D01*
X141865183Y-110877183D01*
X141754589Y-111011942D01*
X141672411Y-111165688D01*
X141621805Y-111332511D01*
X141609000Y-111462524D01*
X141609000Y-111462531D01*
X141604719Y-111506000D01*
X141609000Y-111549469D01*
X141609001Y-122130521D01*
X141604719Y-122174000D01*
X141621805Y-122347490D01*
X141672412Y-122514313D01*
X141754590Y-122668059D01*
X141837468Y-122769046D01*
X141837471Y-122769049D01*
X141865184Y-122802817D01*
X141898951Y-122830529D01*
X142853470Y-123785049D01*
X142881183Y-123818817D01*
X142914951Y-123846530D01*
X142914953Y-123846532D01*
X142981818Y-123901407D01*
X143015941Y-123929411D01*
X143169687Y-124011589D01*
X143285903Y-124046843D01*
X143336509Y-124062195D01*
X143351306Y-124063652D01*
X143466523Y-124075000D01*
X143466531Y-124075000D01*
X143510000Y-124079281D01*
X143553469Y-124075000D01*
X144637424Y-124075000D01*
X145472352Y-124909928D01*
X143941507Y-124909928D01*
X141880534Y-122848956D01*
X141852817Y-122815183D01*
X141718059Y-122704589D01*
X141564313Y-122622411D01*
X141397490Y-122571805D01*
X141267477Y-122559000D01*
X141267469Y-122559000D01*
X141224000Y-122554719D01*
X141180531Y-122559000D01*
X139050579Y-122559000D01*
X138136908Y-121645329D01*
X138219807Y-121620182D01*
X138469100Y-121486932D01*
X138687607Y-121307608D01*
X138866932Y-121089101D01*
X139000182Y-120839808D01*
X139082236Y-120569309D01*
X139103000Y-120358492D01*
X139103000Y-119417509D01*
X139082236Y-119206691D01*
X139000182Y-118936192D01*
X138866932Y-118686899D01*
X138687608Y-118468392D01*
X138469101Y-118289068D01*
X138219808Y-118155818D01*
X137949309Y-118073764D01*
X137668000Y-118046057D01*
X137386692Y-118073764D01*
X137116193Y-118155818D01*
X136866900Y-118289068D01*
X136648393Y-118468392D01*
X136469068Y-118686899D01*
X136398000Y-118819858D01*
X136326932Y-118686899D01*
X136147608Y-118468392D01*
X135929101Y-118289068D01*
X135679808Y-118155818D01*
X135409309Y-118073764D01*
X135128000Y-118046057D01*
X134896744Y-118068834D01*
X138263049Y-114702530D01*
X138296817Y-114674817D01*
X138325134Y-114640314D01*
X138407411Y-114540059D01*
X138445888Y-114468072D01*
X138489589Y-114386313D01*
X138540195Y-114219490D01*
X138552182Y-114097781D01*
X138592482Y-114093812D01*
X138712180Y-114057502D01*
X138822494Y-113998537D01*
X138919185Y-113919185D01*
X138998537Y-113822494D01*
X139057502Y-113712180D01*
X139093812Y-113592482D01*
X139106072Y-113468000D01*
X139106072Y-111068000D01*
X139093812Y-110943518D01*
X139057502Y-110823820D01*
X138998537Y-110713506D01*
X138919185Y-110616815D01*
X138822494Y-110537463D01*
X138712180Y-110478498D01*
X138592482Y-110442188D01*
X138468000Y-110429928D01*
X136868000Y-110429928D01*
X136743518Y-110442188D01*
X136623820Y-110478498D01*
X136513506Y-110537463D01*
X136416815Y-110616815D01*
X136337463Y-110713506D01*
X136278498Y-110823820D01*
X136242188Y-110943518D01*
X136240419Y-110961482D01*
X136147608Y-110848392D01*
X135929101Y-110669068D01*
X135679808Y-110535818D01*
X135409309Y-110453764D01*
X135128000Y-110426057D01*
X134846692Y-110453764D01*
X134743000Y-110485218D01*
X134743000Y-107681578D01*
X135626894Y-106797685D01*
X135639633Y-106857818D01*
X135750285Y-107117646D01*
X135909500Y-107350895D01*
X136111161Y-107548601D01*
X136347517Y-107703166D01*
X136609486Y-107808650D01*
X136887000Y-107861000D01*
X137287000Y-107861000D01*
X137287000Y-106553000D01*
X137541000Y-106553000D01*
X137541000Y-107861000D01*
X137941000Y-107861000D01*
X138218514Y-107808650D01*
X138480483Y-107703166D01*
X138716839Y-107548601D01*
X138918500Y-107350895D01*
X139077715Y-107117646D01*
X139188367Y-106857818D01*
X139205904Y-106775039D01*
X141717097Y-106775039D01*
X141734634Y-106857818D01*
X141845286Y-107117646D01*
X142004501Y-107350895D01*
X142206162Y-107548601D01*
X142442518Y-107703166D01*
X142704487Y-107808650D01*
X142982001Y-107861000D01*
X143382001Y-107861000D01*
X143382001Y-106553000D01*
X141839086Y-106553000D01*
X141717097Y-106775039D01*
X139205904Y-106775039D01*
X139083915Y-106553000D01*
X137541000Y-106553000D01*
X137287000Y-106553000D01*
X137267000Y-106553000D01*
X137267000Y-106299000D01*
X137287000Y-106299000D01*
X137287000Y-106279000D01*
X137541000Y-106279000D01*
X137541000Y-106299000D01*
X139083915Y-106299000D01*
X139205904Y-106076961D01*
X139202520Y-106060990D01*
X140525541Y-106060990D01*
X140569010Y-106065271D01*
X140612479Y-106060990D01*
X140612487Y-106060990D01*
X140742500Y-106048185D01*
X140909323Y-105997579D01*
X141063069Y-105915401D01*
X141197827Y-105804807D01*
X141225544Y-105771034D01*
X142090260Y-104906319D01*
X142307900Y-105084932D01*
G37*
G04 #@! TD.AperFunction*
D23*
X149927900Y-107624932D02*
X150177193Y-107758182D01*
X150447692Y-107840236D01*
X150658509Y-107861000D01*
X151599493Y-107861000D01*
X151810310Y-107840236D01*
X151894011Y-107814846D01*
X151894012Y-117618409D01*
X151021423Y-118490998D01*
X150926815Y-118490998D01*
X151047481Y-118261109D01*
X150950157Y-117986748D01*
X150801178Y-117736645D01*
X150606269Y-117520412D01*
X150372920Y-117346359D01*
X150110099Y-117221175D01*
X149962890Y-117176524D01*
X149733000Y-117297845D01*
X149733000Y-118491000D01*
X149753000Y-118491000D01*
X149753000Y-118745000D01*
X149733000Y-118745000D01*
X149733000Y-118765000D01*
X149479000Y-118765000D01*
X149479000Y-118745000D01*
X149459000Y-118745000D01*
X149459000Y-118491000D01*
X149479000Y-118491000D01*
X149479000Y-117297845D01*
X149249110Y-117176524D01*
X149101901Y-117221175D01*
X148839080Y-117346359D01*
X148605731Y-117520412D01*
X148410822Y-117736645D01*
X148341195Y-117853534D01*
X148219475Y-117671368D01*
X148012632Y-117464525D01*
X147769411Y-117302010D01*
X147499158Y-117190068D01*
X147212260Y-117133000D01*
X146919740Y-117133000D01*
X146847040Y-117147461D01*
X144903000Y-115203422D01*
X144903000Y-112634578D01*
X145307578Y-112230000D01*
X146135928Y-112230000D01*
X146135928Y-113830000D01*
X146148188Y-113954482D01*
X146184498Y-114074180D01*
X146243463Y-114184494D01*
X146322815Y-114281185D01*
X146419506Y-114360537D01*
X146529820Y-114419502D01*
X146649518Y-114455812D01*
X146774000Y-114468072D01*
X148374000Y-114468072D01*
X148498482Y-114455812D01*
X148618180Y-114419502D01*
X148728494Y-114360537D01*
X148825185Y-114281185D01*
X148835807Y-114268242D01*
X149087996Y-114387571D01*
X149362184Y-114456300D01*
X149644512Y-114470217D01*
X149924130Y-114428787D01*
X150190292Y-114333603D01*
X150315514Y-114266671D01*
X150387097Y-114022702D01*
X149574000Y-113209605D01*
X149559858Y-113223748D01*
X149380253Y-113044143D01*
X149394395Y-113030000D01*
X149753605Y-113030000D01*
X150566702Y-113843097D01*
X150810671Y-113771514D01*
X150931571Y-113516004D01*
X151000300Y-113241816D01*
X151014217Y-112959488D01*
X150972787Y-112679870D01*
X150877603Y-112413708D01*
X150810671Y-112288486D01*
X150566702Y-112216903D01*
X149753605Y-113030000D01*
X149394395Y-113030000D01*
X149380253Y-113015858D01*
X149559858Y-112836253D01*
X149574000Y-112850395D01*
X150387097Y-112037298D01*
X150315514Y-111793329D01*
X150060004Y-111672429D01*
X149785816Y-111603700D01*
X149503488Y-111589783D01*
X149223870Y-111631213D01*
X148957708Y-111726397D01*
X148835691Y-111791616D01*
X148825185Y-111778815D01*
X148728494Y-111699463D01*
X148618180Y-111640498D01*
X148498482Y-111604188D01*
X148374000Y-111591928D01*
X146774000Y-111591928D01*
X146649518Y-111604188D01*
X146529820Y-111640498D01*
X146419506Y-111699463D01*
X146322815Y-111778815D01*
X146243463Y-111875506D01*
X146184498Y-111985820D01*
X146148188Y-112105518D01*
X146135928Y-112230000D01*
X145307578Y-112230000D01*
X149919522Y-107618057D01*
X149927900Y-107624932D01*
G04 #@! TA.AperFunction,Conductor*
D24*
G36*
X149927900Y-107624932D02*
G01*
X150177193Y-107758182D01*
X150447692Y-107840236D01*
X150658509Y-107861000D01*
X151599493Y-107861000D01*
X151810310Y-107840236D01*
X151894011Y-107814846D01*
X151894012Y-117618409D01*
X151021423Y-118490998D01*
X150926815Y-118490998D01*
X151047481Y-118261109D01*
X150950157Y-117986748D01*
X150801178Y-117736645D01*
X150606269Y-117520412D01*
X150372920Y-117346359D01*
X150110099Y-117221175D01*
X149962890Y-117176524D01*
X149733000Y-117297845D01*
X149733000Y-118491000D01*
X149753000Y-118491000D01*
X149753000Y-118745000D01*
X149733000Y-118745000D01*
X149733000Y-118765000D01*
X149479000Y-118765000D01*
X149479000Y-118745000D01*
X149459000Y-118745000D01*
X149459000Y-118491000D01*
X149479000Y-118491000D01*
X149479000Y-117297845D01*
X149249110Y-117176524D01*
X149101901Y-117221175D01*
X148839080Y-117346359D01*
X148605731Y-117520412D01*
X148410822Y-117736645D01*
X148341195Y-117853534D01*
X148219475Y-117671368D01*
X148012632Y-117464525D01*
X147769411Y-117302010D01*
X147499158Y-117190068D01*
X147212260Y-117133000D01*
X146919740Y-117133000D01*
X146847040Y-117147461D01*
X144903000Y-115203422D01*
X144903000Y-112634578D01*
X145307578Y-112230000D01*
X146135928Y-112230000D01*
X146135928Y-113830000D01*
X146148188Y-113954482D01*
X146184498Y-114074180D01*
X146243463Y-114184494D01*
X146322815Y-114281185D01*
X146419506Y-114360537D01*
X146529820Y-114419502D01*
X146649518Y-114455812D01*
X146774000Y-114468072D01*
X148374000Y-114468072D01*
X148498482Y-114455812D01*
X148618180Y-114419502D01*
X148728494Y-114360537D01*
X148825185Y-114281185D01*
X148835807Y-114268242D01*
X149087996Y-114387571D01*
X149362184Y-114456300D01*
X149644512Y-114470217D01*
X149924130Y-114428787D01*
X150190292Y-114333603D01*
X150315514Y-114266671D01*
X150387097Y-114022702D01*
X149574000Y-113209605D01*
X149559858Y-113223748D01*
X149380253Y-113044143D01*
X149394395Y-113030000D01*
X149753605Y-113030000D01*
X150566702Y-113843097D01*
X150810671Y-113771514D01*
X150931571Y-113516004D01*
X151000300Y-113241816D01*
X151014217Y-112959488D01*
X150972787Y-112679870D01*
X150877603Y-112413708D01*
X150810671Y-112288486D01*
X150566702Y-112216903D01*
X149753605Y-113030000D01*
X149394395Y-113030000D01*
X149380253Y-113015858D01*
X149559858Y-112836253D01*
X149574000Y-112850395D01*
X150387097Y-112037298D01*
X150315514Y-111793329D01*
X150060004Y-111672429D01*
X149785816Y-111603700D01*
X149503488Y-111589783D01*
X149223870Y-111631213D01*
X148957708Y-111726397D01*
X148835691Y-111791616D01*
X148825185Y-111778815D01*
X148728494Y-111699463D01*
X148618180Y-111640498D01*
X148498482Y-111604188D01*
X148374000Y-111591928D01*
X146774000Y-111591928D01*
X146649518Y-111604188D01*
X146529820Y-111640498D01*
X146419506Y-111699463D01*
X146322815Y-111778815D01*
X146243463Y-111875506D01*
X146184498Y-111985820D01*
X146148188Y-112105518D01*
X146135928Y-112230000D01*
X145307578Y-112230000D01*
X149919522Y-107618057D01*
X149927900Y-107624932D01*
G37*
G04 #@! TD.AperFunction*
M02*
