M48
INCH,TZ
T1C0.0157
T2C0.0276
T3C0.0295
T4C0.0315
T5C0.0354
T6C0.0394
T7C0.0551
%
G90
G05
T1
X42441Y-34843
X42441Y-39882
X42441Y-52756
X46142Y-48386
X46791Y-50079
X47362Y-48346
X47461Y-49606
X48583Y-49961
X53386Y-38465
X56890Y-44921
X59252Y-44252
X59370Y-49764
X60315Y-47953
X60906Y-49449
X61299Y-44370
X62126Y-44370
X62323Y-48976
X66260Y-34843
X66260Y-39882
X66260Y-46732
X66260Y-52756
T2
X43543Y-48701
X65236Y-47165
X65236Y-48307
T3
X58567Y-43240
X58567Y-43740
X58567Y-44240
T4
X43543Y-50157
X43543Y-50945
X45248Y-45854
X45248Y-46854
X45248Y-47854
X45248Y-48854
X45744Y-44331
X45748Y-42992
X48248Y-45854
X48248Y-46854
X48248Y-47854
X48248Y-48854
X48744Y-44331
X48748Y-42992
X49720Y-44331
X49724Y-42992
X49843Y-45858
X49843Y-48858
X50843Y-45858
X50843Y-48858
X51843Y-45858
X51843Y-48858
X52720Y-44331
X52724Y-42992
X52843Y-45858
X52843Y-48858
X53366Y-36965
X53366Y-39965
X53843Y-45858
X53843Y-48858
X54370Y-41220
X54370Y-42008
X54843Y-45858
X54843Y-48858
X55335Y-36965
X55335Y-39965
X55843Y-45858
X55843Y-48858
X56220Y-43425
X56220Y-44213
X56843Y-45858
X56843Y-48858
X57843Y-45858
X57843Y-48858
X58843Y-45858
X58843Y-48858
X59953Y-42992
X59957Y-44331
X62953Y-42992
X62957Y-44331
X65157Y-50157
X65157Y-50945
T5
X54350Y-34935
X54350Y-35935
T6
X61913Y-46346
X61913Y-47346
X61913Y-48346
X62913Y-46346
X62913Y-47346
X62913Y-48346
T7
X45492Y-39449
X46476Y-35512
X46476Y-40433
X48445Y-39449
X50413Y-35512
X50413Y-40433
X51398Y-39449
X57303Y-39449
X58287Y-35512
X58287Y-40433
X60256Y-39449
X62224Y-35512
X62224Y-40433
X63209Y-39449
T0
M30
