G04 #@! TF.GenerationSoftware,KiCad,Pcbnew,6.0.7+dfsg-1*
G04 #@! TF.CreationDate,2023-01-03T09:25:58-06:00*
G04 #@! TF.ProjectId,C64UserPortMidi,43363455-7365-4725-906f-72744d696469,V1.0 RevA*
G04 #@! TF.SameCoordinates,Original*
G04 #@! TF.FileFunction,Legend,Bot*
G04 #@! TF.FilePolarity,Positive*
%FSLAX46Y46*%
G04 Gerber Fmt 4.6, Leading zero omitted, Abs format (unit mm)*
G04 Created by KiCad (PCBNEW 6.0.7+dfsg-1) date 2023-01-03 09:25:58*
%MOMM*%
%LPD*%
G01*
G04 APERTURE LIST*
%ADD10C,0.120000*%
%ADD11C,0.200000*%
%ADD12C,0.150000*%
G04 APERTURE END LIST*
D10*
X133550000Y-92400000D02*
X112650000Y-92400000D01*
X112650000Y-97988000D02*
X133550000Y-97988000D01*
X133550000Y-97988000D02*
X133550000Y-92400000D01*
X112650000Y-92400000D02*
X112650000Y-97988000D01*
D11*
X126591619Y-93941142D02*
X126639238Y-93988761D01*
X126782095Y-94036380D01*
X126877333Y-94036380D01*
X127020190Y-93988761D01*
X127115428Y-93893523D01*
X127163047Y-93798285D01*
X127210666Y-93607809D01*
X127210666Y-93464952D01*
X127163047Y-93274476D01*
X127115428Y-93179238D01*
X127020190Y-93084000D01*
X126877333Y-93036380D01*
X126782095Y-93036380D01*
X126639238Y-93084000D01*
X126591619Y-93131619D01*
X126163047Y-94036380D02*
X126163047Y-93369714D01*
X126163047Y-93560190D02*
X126115428Y-93464952D01*
X126067809Y-93417333D01*
X125972571Y-93369714D01*
X125877333Y-93369714D01*
X125163047Y-93988761D02*
X125258285Y-94036380D01*
X125448761Y-94036380D01*
X125544000Y-93988761D01*
X125591619Y-93893523D01*
X125591619Y-93512571D01*
X125544000Y-93417333D01*
X125448761Y-93369714D01*
X125258285Y-93369714D01*
X125163047Y-93417333D01*
X125115428Y-93512571D01*
X125115428Y-93607809D01*
X125591619Y-93703047D01*
X124258285Y-94036380D02*
X124258285Y-93512571D01*
X124305904Y-93417333D01*
X124401142Y-93369714D01*
X124591619Y-93369714D01*
X124686857Y-93417333D01*
X124258285Y-93988761D02*
X124353523Y-94036380D01*
X124591619Y-94036380D01*
X124686857Y-93988761D01*
X124734476Y-93893523D01*
X124734476Y-93798285D01*
X124686857Y-93703047D01*
X124591619Y-93655428D01*
X124353523Y-93655428D01*
X124258285Y-93607809D01*
X123924952Y-93369714D02*
X123544000Y-93369714D01*
X123782095Y-93036380D02*
X123782095Y-93893523D01*
X123734476Y-93988761D01*
X123639238Y-94036380D01*
X123544000Y-94036380D01*
X122829714Y-93988761D02*
X122924952Y-94036380D01*
X123115428Y-94036380D01*
X123210666Y-93988761D01*
X123258285Y-93893523D01*
X123258285Y-93512571D01*
X123210666Y-93417333D01*
X123115428Y-93369714D01*
X122924952Y-93369714D01*
X122829714Y-93417333D01*
X122782095Y-93512571D01*
X122782095Y-93607809D01*
X123258285Y-93703047D01*
X121924952Y-94036380D02*
X121924952Y-93036380D01*
X121924952Y-93988761D02*
X122020190Y-94036380D01*
X122210666Y-94036380D01*
X122305904Y-93988761D01*
X122353523Y-93941142D01*
X122401142Y-93845904D01*
X122401142Y-93560190D01*
X122353523Y-93464952D01*
X122305904Y-93417333D01*
X122210666Y-93369714D01*
X122020190Y-93369714D01*
X121924952Y-93417333D01*
X120353523Y-93512571D02*
X120210666Y-93560190D01*
X120163047Y-93607809D01*
X120115428Y-93703047D01*
X120115428Y-93845904D01*
X120163047Y-93941142D01*
X120210666Y-93988761D01*
X120305904Y-94036380D01*
X120686857Y-94036380D01*
X120686857Y-93036380D01*
X120353523Y-93036380D01*
X120258285Y-93084000D01*
X120210666Y-93131619D01*
X120163047Y-93226857D01*
X120163047Y-93322095D01*
X120210666Y-93417333D01*
X120258285Y-93464952D01*
X120353523Y-93512571D01*
X120686857Y-93512571D01*
X119782095Y-93369714D02*
X119544000Y-94036380D01*
X119305904Y-93369714D02*
X119544000Y-94036380D01*
X119639238Y-94274476D01*
X119686857Y-94322095D01*
X119782095Y-94369714D01*
X118924952Y-93941142D02*
X118877333Y-93988761D01*
X118924952Y-94036380D01*
X118972571Y-93988761D01*
X118924952Y-93941142D01*
X118924952Y-94036380D01*
X118924952Y-93417333D02*
X118877333Y-93464952D01*
X118924952Y-93512571D01*
X118972571Y-93464952D01*
X118924952Y-93417333D01*
X118924952Y-93512571D01*
X130377333Y-95646380D02*
X130377333Y-94646380D01*
X130139238Y-94646380D01*
X129996380Y-94694000D01*
X129901142Y-94789238D01*
X129853523Y-94884476D01*
X129805904Y-95074952D01*
X129805904Y-95217809D01*
X129853523Y-95408285D01*
X129901142Y-95503523D01*
X129996380Y-95598761D01*
X130139238Y-95646380D01*
X130377333Y-95646380D01*
X128044000Y-95551142D02*
X128091619Y-95598761D01*
X128234476Y-95646380D01*
X128329714Y-95646380D01*
X128472571Y-95598761D01*
X128567809Y-95503523D01*
X128615428Y-95408285D01*
X128663047Y-95217809D01*
X128663047Y-95074952D01*
X128615428Y-94884476D01*
X128567809Y-94789238D01*
X128472571Y-94694000D01*
X128329714Y-94646380D01*
X128234476Y-94646380D01*
X128091619Y-94694000D01*
X128044000Y-94741619D01*
X127472571Y-95646380D02*
X127567809Y-95598761D01*
X127615428Y-95551142D01*
X127663047Y-95455904D01*
X127663047Y-95170190D01*
X127615428Y-95074952D01*
X127567809Y-95027333D01*
X127472571Y-94979714D01*
X127329714Y-94979714D01*
X127234476Y-95027333D01*
X127186857Y-95074952D01*
X127139238Y-95170190D01*
X127139238Y-95455904D01*
X127186857Y-95551142D01*
X127234476Y-95598761D01*
X127329714Y-95646380D01*
X127472571Y-95646380D01*
X126567809Y-95646380D02*
X126663047Y-95598761D01*
X126710666Y-95551142D01*
X126758285Y-95455904D01*
X126758285Y-95170190D01*
X126710666Y-95074952D01*
X126663047Y-95027333D01*
X126567809Y-94979714D01*
X126424952Y-94979714D01*
X126329714Y-95027333D01*
X126282095Y-95074952D01*
X126234476Y-95170190D01*
X126234476Y-95455904D01*
X126282095Y-95551142D01*
X126329714Y-95598761D01*
X126424952Y-95646380D01*
X126567809Y-95646380D01*
X125805904Y-94979714D02*
X125805904Y-95979714D01*
X125805904Y-95027333D02*
X125710666Y-94979714D01*
X125520190Y-94979714D01*
X125424952Y-95027333D01*
X125377333Y-95074952D01*
X125329714Y-95170190D01*
X125329714Y-95455904D01*
X125377333Y-95551142D01*
X125424952Y-95598761D01*
X125520190Y-95646380D01*
X125710666Y-95646380D01*
X125805904Y-95598761D01*
X124520190Y-95598761D02*
X124615428Y-95646380D01*
X124805904Y-95646380D01*
X124901142Y-95598761D01*
X124948761Y-95503523D01*
X124948761Y-95122571D01*
X124901142Y-95027333D01*
X124805904Y-94979714D01*
X124615428Y-94979714D01*
X124520190Y-95027333D01*
X124472571Y-95122571D01*
X124472571Y-95217809D01*
X124948761Y-95313047D01*
X124044000Y-95646380D02*
X124044000Y-94979714D01*
X124044000Y-95170190D02*
X123996380Y-95074952D01*
X123948761Y-95027333D01*
X123853523Y-94979714D01*
X123758285Y-94979714D01*
X122663047Y-95646380D02*
X122663047Y-94646380D01*
X122424952Y-94646380D01*
X122282095Y-94694000D01*
X122186857Y-94789238D01*
X122139238Y-94884476D01*
X122091619Y-95074952D01*
X122091619Y-95217809D01*
X122139238Y-95408285D01*
X122186857Y-95503523D01*
X122282095Y-95598761D01*
X122424952Y-95646380D01*
X122663047Y-95646380D01*
X121234476Y-95646380D02*
X121234476Y-95122571D01*
X121282095Y-95027333D01*
X121377333Y-94979714D01*
X121567809Y-94979714D01*
X121663047Y-95027333D01*
X121234476Y-95598761D02*
X121329714Y-95646380D01*
X121567809Y-95646380D01*
X121663047Y-95598761D01*
X121710666Y-95503523D01*
X121710666Y-95408285D01*
X121663047Y-95313047D01*
X121567809Y-95265428D01*
X121329714Y-95265428D01*
X121234476Y-95217809D01*
X120615428Y-95646380D02*
X120710666Y-95598761D01*
X120758285Y-95503523D01*
X120758285Y-94646380D01*
X120234476Y-95646380D02*
X120234476Y-94979714D01*
X120234476Y-95170190D02*
X120186857Y-95074952D01*
X120139238Y-95027333D01*
X120044000Y-94979714D01*
X119948761Y-94979714D01*
X119710666Y-94979714D02*
X119472571Y-95646380D01*
X119234476Y-94979714D02*
X119472571Y-95646380D01*
X119567809Y-95884476D01*
X119615428Y-95932095D01*
X119710666Y-95979714D01*
X118853523Y-95646380D02*
X118853523Y-94979714D01*
X118853523Y-95074952D02*
X118805904Y-95027333D01*
X118710666Y-94979714D01*
X118567809Y-94979714D01*
X118472571Y-95027333D01*
X118424952Y-95122571D01*
X118424952Y-95646380D01*
X118424952Y-95122571D02*
X118377333Y-95027333D01*
X118282095Y-94979714D01*
X118139238Y-94979714D01*
X118044000Y-95027333D01*
X117996380Y-95122571D01*
X117996380Y-95646380D01*
X117520190Y-94979714D02*
X117520190Y-95979714D01*
X117520190Y-95027333D02*
X117424952Y-94979714D01*
X117234476Y-94979714D01*
X117139238Y-95027333D01*
X117091619Y-95074952D01*
X117044000Y-95170190D01*
X117044000Y-95455904D01*
X117091619Y-95551142D01*
X117139238Y-95598761D01*
X117234476Y-95646380D01*
X117424952Y-95646380D01*
X117520190Y-95598761D01*
X116472571Y-95646380D02*
X116567809Y-95598761D01*
X116615428Y-95503523D01*
X116615428Y-94646380D01*
X115710666Y-95598761D02*
X115805904Y-95646380D01*
X115996380Y-95646380D01*
X116091619Y-95598761D01*
X116139238Y-95503523D01*
X116139238Y-95122571D01*
X116091619Y-95027333D01*
X115996380Y-94979714D01*
X115805904Y-94979714D01*
X115710666Y-95027333D01*
X115663047Y-95122571D01*
X115663047Y-95217809D01*
X116139238Y-95313047D01*
X132472571Y-97256380D02*
X133044000Y-97256380D01*
X132758285Y-97256380D02*
X132758285Y-96256380D01*
X132853523Y-96399238D01*
X132948761Y-96494476D01*
X133044000Y-96542095D01*
X132091619Y-96351619D02*
X132044000Y-96304000D01*
X131948761Y-96256380D01*
X131710666Y-96256380D01*
X131615428Y-96304000D01*
X131567809Y-96351619D01*
X131520190Y-96446857D01*
X131520190Y-96542095D01*
X131567809Y-96684952D01*
X132139238Y-97256380D01*
X131520190Y-97256380D01*
X131091619Y-96875428D02*
X130329714Y-96875428D01*
X129901142Y-96351619D02*
X129853523Y-96304000D01*
X129758285Y-96256380D01*
X129520190Y-96256380D01*
X129424952Y-96304000D01*
X129377333Y-96351619D01*
X129329714Y-96446857D01*
X129329714Y-96542095D01*
X129377333Y-96684952D01*
X129948761Y-97256380D01*
X129329714Y-97256380D01*
X128710666Y-96256380D02*
X128615428Y-96256380D01*
X128520190Y-96304000D01*
X128472571Y-96351619D01*
X128424952Y-96446857D01*
X128377333Y-96637333D01*
X128377333Y-96875428D01*
X128424952Y-97065904D01*
X128472571Y-97161142D01*
X128520190Y-97208761D01*
X128615428Y-97256380D01*
X128710666Y-97256380D01*
X128805904Y-97208761D01*
X128853523Y-97161142D01*
X128901142Y-97065904D01*
X128948761Y-96875428D01*
X128948761Y-96637333D01*
X128901142Y-96446857D01*
X128853523Y-96351619D01*
X128805904Y-96304000D01*
X128710666Y-96256380D01*
X127996380Y-96351619D02*
X127948761Y-96304000D01*
X127853523Y-96256380D01*
X127615428Y-96256380D01*
X127520190Y-96304000D01*
X127472571Y-96351619D01*
X127424952Y-96446857D01*
X127424952Y-96542095D01*
X127472571Y-96684952D01*
X128044000Y-97256380D01*
X127424952Y-97256380D01*
X127044000Y-96351619D02*
X126996380Y-96304000D01*
X126901142Y-96256380D01*
X126663047Y-96256380D01*
X126567809Y-96304000D01*
X126520190Y-96351619D01*
X126472571Y-96446857D01*
X126472571Y-96542095D01*
X126520190Y-96684952D01*
X127091619Y-97256380D01*
X126472571Y-97256380D01*
X124853523Y-97256380D02*
X124853523Y-96256380D01*
X124853523Y-97208761D02*
X124948761Y-97256380D01*
X125139238Y-97256380D01*
X125234476Y-97208761D01*
X125282095Y-97161142D01*
X125329714Y-97065904D01*
X125329714Y-96780190D01*
X125282095Y-96684952D01*
X125234476Y-96637333D01*
X125139238Y-96589714D01*
X124948761Y-96589714D01*
X124853523Y-96637333D01*
X123948761Y-97208761D02*
X124044000Y-97256380D01*
X124234476Y-97256380D01*
X124329714Y-97208761D01*
X124377333Y-97161142D01*
X124424952Y-97065904D01*
X124424952Y-96780190D01*
X124377333Y-96684952D01*
X124329714Y-96637333D01*
X124234476Y-96589714D01*
X124044000Y-96589714D01*
X123948761Y-96637333D01*
X123091619Y-97256380D02*
X123091619Y-96256380D01*
X123091619Y-97208761D02*
X123186857Y-97256380D01*
X123377333Y-97256380D01*
X123472571Y-97208761D01*
X123520190Y-97161142D01*
X123567809Y-97065904D01*
X123567809Y-96780190D01*
X123520190Y-96684952D01*
X123472571Y-96637333D01*
X123377333Y-96589714D01*
X123186857Y-96589714D01*
X123091619Y-96637333D01*
X122186857Y-97256380D02*
X122186857Y-96732571D01*
X122234476Y-96637333D01*
X122329714Y-96589714D01*
X122520190Y-96589714D01*
X122615428Y-96637333D01*
X122186857Y-97208761D02*
X122282095Y-97256380D01*
X122520190Y-97256380D01*
X122615428Y-97208761D01*
X122663047Y-97113523D01*
X122663047Y-97018285D01*
X122615428Y-96923047D01*
X122520190Y-96875428D01*
X122282095Y-96875428D01*
X122186857Y-96827809D01*
X121567809Y-97256380D02*
X121663047Y-97208761D01*
X121710666Y-97113523D01*
X121710666Y-96256380D01*
X121186857Y-97256380D02*
X121186857Y-96589714D01*
X121186857Y-96780190D02*
X121139238Y-96684952D01*
X121091619Y-96637333D01*
X120996380Y-96589714D01*
X120901142Y-96589714D01*
X120663047Y-96589714D02*
X120424952Y-97256380D01*
X120186857Y-96589714D02*
X120424952Y-97256380D01*
X120520190Y-97494476D01*
X120567809Y-97542095D01*
X120663047Y-97589714D01*
X119805904Y-97256380D02*
X119805904Y-96589714D01*
X119805904Y-96684952D02*
X119758285Y-96637333D01*
X119663047Y-96589714D01*
X119520190Y-96589714D01*
X119424952Y-96637333D01*
X119377333Y-96732571D01*
X119377333Y-97256380D01*
X119377333Y-96732571D02*
X119329714Y-96637333D01*
X119234476Y-96589714D01*
X119091619Y-96589714D01*
X118996380Y-96637333D01*
X118948761Y-96732571D01*
X118948761Y-97256380D01*
X118472571Y-96589714D02*
X118472571Y-97589714D01*
X118472571Y-96637333D02*
X118377333Y-96589714D01*
X118186857Y-96589714D01*
X118091619Y-96637333D01*
X118044000Y-96684952D01*
X117996380Y-96780190D01*
X117996380Y-97065904D01*
X118044000Y-97161142D01*
X118091619Y-97208761D01*
X118186857Y-97256380D01*
X118377333Y-97256380D01*
X118472571Y-97208761D01*
X117424952Y-97256380D02*
X117520190Y-97208761D01*
X117567809Y-97113523D01*
X117567809Y-96256380D01*
X116663047Y-97208761D02*
X116758285Y-97256380D01*
X116948761Y-97256380D01*
X117044000Y-97208761D01*
X117091619Y-97113523D01*
X117091619Y-96732571D01*
X117044000Y-96637333D01*
X116948761Y-96589714D01*
X116758285Y-96589714D01*
X116663047Y-96637333D01*
X116615428Y-96732571D01*
X116615428Y-96827809D01*
X117091619Y-96923047D01*
X116186857Y-97161142D02*
X116139238Y-97208761D01*
X116186857Y-97256380D01*
X116234476Y-97208761D01*
X116186857Y-97161142D01*
X116186857Y-97256380D01*
X115282095Y-97208761D02*
X115377333Y-97256380D01*
X115567809Y-97256380D01*
X115663047Y-97208761D01*
X115710666Y-97161142D01*
X115758285Y-97065904D01*
X115758285Y-96780190D01*
X115710666Y-96684952D01*
X115663047Y-96637333D01*
X115567809Y-96589714D01*
X115377333Y-96589714D01*
X115282095Y-96637333D01*
X114710666Y-97256380D02*
X114805904Y-97208761D01*
X114853523Y-97161142D01*
X114901142Y-97065904D01*
X114901142Y-96780190D01*
X114853523Y-96684952D01*
X114805904Y-96637333D01*
X114710666Y-96589714D01*
X114567809Y-96589714D01*
X114472571Y-96637333D01*
X114424952Y-96684952D01*
X114377333Y-96780190D01*
X114377333Y-97065904D01*
X114424952Y-97161142D01*
X114472571Y-97208761D01*
X114567809Y-97256380D01*
X114710666Y-97256380D01*
X113948761Y-97256380D02*
X113948761Y-96589714D01*
X113948761Y-96684952D02*
X113901142Y-96637333D01*
X113805904Y-96589714D01*
X113663047Y-96589714D01*
X113567809Y-96637333D01*
X113520190Y-96732571D01*
X113520190Y-97256380D01*
X113520190Y-96732571D02*
X113472571Y-96637333D01*
X113377333Y-96589714D01*
X113234476Y-96589714D01*
X113139238Y-96637333D01*
X113091619Y-96732571D01*
X113091619Y-97256380D01*
X148945238Y-119659738D02*
X148788095Y-119712119D01*
X148526190Y-119712119D01*
X148421428Y-119659738D01*
X148369047Y-119607357D01*
X148316666Y-119502595D01*
X148316666Y-119397833D01*
X148369047Y-119293071D01*
X148421428Y-119240690D01*
X148526190Y-119188309D01*
X148735714Y-119135928D01*
X148840476Y-119083547D01*
X148892857Y-119031166D01*
X148945238Y-118926404D01*
X148945238Y-118821642D01*
X148892857Y-118716880D01*
X148840476Y-118664500D01*
X148735714Y-118612119D01*
X148473809Y-118612119D01*
X148316666Y-118664500D01*
X147688095Y-119712119D02*
X147792857Y-119659738D01*
X147845238Y-119607357D01*
X147897619Y-119502595D01*
X147897619Y-119188309D01*
X147845238Y-119083547D01*
X147792857Y-119031166D01*
X147688095Y-118978785D01*
X147530952Y-118978785D01*
X147426190Y-119031166D01*
X147373809Y-119083547D01*
X147321428Y-119188309D01*
X147321428Y-119502595D01*
X147373809Y-119607357D01*
X147426190Y-119659738D01*
X147530952Y-119712119D01*
X147688095Y-119712119D01*
X147007142Y-118978785D02*
X146588095Y-118978785D01*
X146850000Y-119712119D02*
X146850000Y-118769261D01*
X146797619Y-118664500D01*
X146692857Y-118612119D01*
X146588095Y-118612119D01*
X146378571Y-118978785D02*
X145959523Y-118978785D01*
X146221428Y-118612119D02*
X146221428Y-119554976D01*
X146169047Y-119659738D01*
X146064285Y-119712119D01*
X145959523Y-119712119D01*
X145697619Y-118978785D02*
X145488095Y-119712119D01*
X145278571Y-119188309D01*
X145069047Y-119712119D01*
X144859523Y-118978785D01*
X143969047Y-119712119D02*
X143969047Y-119135928D01*
X144021428Y-119031166D01*
X144126190Y-118978785D01*
X144335714Y-118978785D01*
X144440476Y-119031166D01*
X143969047Y-119659738D02*
X144073809Y-119712119D01*
X144335714Y-119712119D01*
X144440476Y-119659738D01*
X144492857Y-119554976D01*
X144492857Y-119450214D01*
X144440476Y-119345452D01*
X144335714Y-119293071D01*
X144073809Y-119293071D01*
X143969047Y-119240690D01*
X143445238Y-119712119D02*
X143445238Y-118978785D01*
X143445238Y-119188309D02*
X143392857Y-119083547D01*
X143340476Y-119031166D01*
X143235714Y-118978785D01*
X143130952Y-118978785D01*
X142345238Y-119659738D02*
X142450000Y-119712119D01*
X142659523Y-119712119D01*
X142764285Y-119659738D01*
X142816666Y-119554976D01*
X142816666Y-119135928D01*
X142764285Y-119031166D01*
X142659523Y-118978785D01*
X142450000Y-118978785D01*
X142345238Y-119031166D01*
X142292857Y-119135928D01*
X142292857Y-119240690D01*
X142816666Y-119345452D01*
X140092857Y-119712119D02*
X140145238Y-119712119D01*
X140250000Y-119659738D01*
X140407142Y-119502595D01*
X140669047Y-119188309D01*
X140773809Y-119031166D01*
X140826190Y-118874023D01*
X140826190Y-118769261D01*
X140773809Y-118664500D01*
X140669047Y-118612119D01*
X140616666Y-118612119D01*
X140511904Y-118664500D01*
X140459523Y-118769261D01*
X140459523Y-118821642D01*
X140511904Y-118926404D01*
X140564285Y-118978785D01*
X140878571Y-119188309D01*
X140930952Y-119240690D01*
X140983333Y-119345452D01*
X140983333Y-119502595D01*
X140930952Y-119607357D01*
X140878571Y-119659738D01*
X140773809Y-119712119D01*
X140616666Y-119712119D01*
X140511904Y-119659738D01*
X140459523Y-119607357D01*
X140302380Y-119397833D01*
X140250000Y-119240690D01*
X140250000Y-119135928D01*
X138783333Y-119712119D02*
X138783333Y-118612119D01*
X138783333Y-119135928D02*
X138154761Y-119135928D01*
X138154761Y-119712119D02*
X138154761Y-118612119D01*
X137159523Y-119712119D02*
X137159523Y-119135928D01*
X137211904Y-119031166D01*
X137316666Y-118978785D01*
X137526190Y-118978785D01*
X137630952Y-119031166D01*
X137159523Y-119659738D02*
X137264285Y-119712119D01*
X137526190Y-119712119D01*
X137630952Y-119659738D01*
X137683333Y-119554976D01*
X137683333Y-119450214D01*
X137630952Y-119345452D01*
X137526190Y-119293071D01*
X137264285Y-119293071D01*
X137159523Y-119240690D01*
X136635714Y-119712119D02*
X136635714Y-118978785D01*
X136635714Y-119188309D02*
X136583333Y-119083547D01*
X136530952Y-119031166D01*
X136426190Y-118978785D01*
X136321428Y-118978785D01*
X135483333Y-119712119D02*
X135483333Y-118612119D01*
X135483333Y-119659738D02*
X135588095Y-119712119D01*
X135797619Y-119712119D01*
X135902380Y-119659738D01*
X135954761Y-119607357D01*
X136007142Y-119502595D01*
X136007142Y-119188309D01*
X135954761Y-119083547D01*
X135902380Y-119031166D01*
X135797619Y-118978785D01*
X135588095Y-118978785D01*
X135483333Y-119031166D01*
X135064285Y-118978785D02*
X134854761Y-119712119D01*
X134645238Y-119188309D01*
X134435714Y-119712119D01*
X134226190Y-118978785D01*
X133335714Y-119712119D02*
X133335714Y-119135928D01*
X133388095Y-119031166D01*
X133492857Y-118978785D01*
X133702380Y-118978785D01*
X133807142Y-119031166D01*
X133335714Y-119659738D02*
X133440476Y-119712119D01*
X133702380Y-119712119D01*
X133807142Y-119659738D01*
X133859523Y-119554976D01*
X133859523Y-119450214D01*
X133807142Y-119345452D01*
X133702380Y-119293071D01*
X133440476Y-119293071D01*
X133335714Y-119240690D01*
X132811904Y-119712119D02*
X132811904Y-118978785D01*
X132811904Y-119188309D02*
X132759523Y-119083547D01*
X132707142Y-119031166D01*
X132602380Y-118978785D01*
X132497619Y-118978785D01*
X131711904Y-119659738D02*
X131816666Y-119712119D01*
X132026190Y-119712119D01*
X132130952Y-119659738D01*
X132183333Y-119554976D01*
X132183333Y-119135928D01*
X132130952Y-119031166D01*
X132026190Y-118978785D01*
X131816666Y-118978785D01*
X131711904Y-119031166D01*
X131659523Y-119135928D01*
X131659523Y-119240690D01*
X132183333Y-119345452D01*
X130350000Y-119712119D02*
X130350000Y-118612119D01*
X129826190Y-118978785D02*
X129826190Y-119712119D01*
X129826190Y-119083547D02*
X129773809Y-119031166D01*
X129669047Y-118978785D01*
X129511904Y-118978785D01*
X129407142Y-119031166D01*
X129354761Y-119135928D01*
X129354761Y-119712119D01*
X128988095Y-118978785D02*
X128569047Y-118978785D01*
X128830952Y-119712119D02*
X128830952Y-118769261D01*
X128778571Y-118664500D01*
X128673809Y-118612119D01*
X128569047Y-118612119D01*
X128045238Y-119712119D02*
X128150000Y-119659738D01*
X128202380Y-119607357D01*
X128254761Y-119502595D01*
X128254761Y-119188309D01*
X128202380Y-119083547D01*
X128150000Y-119031166D01*
X128045238Y-118978785D01*
X127888095Y-118978785D01*
X127783333Y-119031166D01*
X127730952Y-119083547D01*
X127678571Y-119188309D01*
X127678571Y-119502595D01*
X127730952Y-119607357D01*
X127783333Y-119659738D01*
X127888095Y-119712119D01*
X128045238Y-119712119D01*
X127207142Y-119607357D02*
X127154761Y-119659738D01*
X127207142Y-119712119D01*
X127259523Y-119659738D01*
X127207142Y-119607357D01*
X127207142Y-119712119D01*
X127207142Y-119031166D02*
X127154761Y-119083547D01*
X127207142Y-119135928D01*
X127259523Y-119083547D01*
X127207142Y-119031166D01*
X127207142Y-119135928D01*
X151642857Y-121483119D02*
X151642857Y-120383119D01*
X151642857Y-121430738D02*
X151747619Y-121483119D01*
X151957142Y-121483119D01*
X152061904Y-121430738D01*
X152114285Y-121378357D01*
X152166666Y-121273595D01*
X152166666Y-120959309D01*
X152114285Y-120854547D01*
X152061904Y-120802166D01*
X151957142Y-120749785D01*
X151747619Y-120749785D01*
X151642857Y-120802166D01*
X150647619Y-121430738D02*
X150752380Y-121483119D01*
X150961904Y-121483119D01*
X151066666Y-121430738D01*
X151119047Y-121378357D01*
X151171428Y-121273595D01*
X151171428Y-120959309D01*
X151119047Y-120854547D01*
X151066666Y-120802166D01*
X150961904Y-120749785D01*
X150752380Y-120749785D01*
X150647619Y-120802166D01*
X149704761Y-121483119D02*
X149704761Y-120383119D01*
X149704761Y-121430738D02*
X149809523Y-121483119D01*
X150019047Y-121483119D01*
X150123809Y-121430738D01*
X150176190Y-121378357D01*
X150228571Y-121273595D01*
X150228571Y-120959309D01*
X150176190Y-120854547D01*
X150123809Y-120802166D01*
X150019047Y-120749785D01*
X149809523Y-120749785D01*
X149704761Y-120802166D01*
X148709523Y-121483119D02*
X148709523Y-120906928D01*
X148761904Y-120802166D01*
X148866666Y-120749785D01*
X149076190Y-120749785D01*
X149180952Y-120802166D01*
X148709523Y-121430738D02*
X148814285Y-121483119D01*
X149076190Y-121483119D01*
X149180952Y-121430738D01*
X149233333Y-121325976D01*
X149233333Y-121221214D01*
X149180952Y-121116452D01*
X149076190Y-121064071D01*
X148814285Y-121064071D01*
X148709523Y-121011690D01*
X148028571Y-121483119D02*
X148133333Y-121430738D01*
X148185714Y-121325976D01*
X148185714Y-120383119D01*
X147609523Y-121483119D02*
X147609523Y-120749785D01*
X147609523Y-120959309D02*
X147557142Y-120854547D01*
X147504761Y-120802166D01*
X147400000Y-120749785D01*
X147295238Y-120749785D01*
X147033333Y-120749785D02*
X146771428Y-121483119D01*
X146509523Y-120749785D02*
X146771428Y-121483119D01*
X146876190Y-121745023D01*
X146928571Y-121797404D01*
X147033333Y-121849785D01*
X146090476Y-121483119D02*
X146090476Y-120749785D01*
X146090476Y-120854547D02*
X146038095Y-120802166D01*
X145933333Y-120749785D01*
X145776190Y-120749785D01*
X145671428Y-120802166D01*
X145619047Y-120906928D01*
X145619047Y-121483119D01*
X145619047Y-120906928D02*
X145566666Y-120802166D01*
X145461904Y-120749785D01*
X145304761Y-120749785D01*
X145200000Y-120802166D01*
X145147619Y-120906928D01*
X145147619Y-121483119D01*
X144623809Y-120749785D02*
X144623809Y-121849785D01*
X144623809Y-120802166D02*
X144519047Y-120749785D01*
X144309523Y-120749785D01*
X144204761Y-120802166D01*
X144152380Y-120854547D01*
X144100000Y-120959309D01*
X144100000Y-121273595D01*
X144152380Y-121378357D01*
X144204761Y-121430738D01*
X144309523Y-121483119D01*
X144519047Y-121483119D01*
X144623809Y-121430738D01*
X143471428Y-121483119D02*
X143576190Y-121430738D01*
X143628571Y-121325976D01*
X143628571Y-120383119D01*
X142633333Y-121430738D02*
X142738095Y-121483119D01*
X142947619Y-121483119D01*
X143052380Y-121430738D01*
X143104761Y-121325976D01*
X143104761Y-120906928D01*
X143052380Y-120802166D01*
X142947619Y-120749785D01*
X142738095Y-120749785D01*
X142633333Y-120802166D01*
X142580952Y-120906928D01*
X142580952Y-121011690D01*
X143104761Y-121116452D01*
X142109523Y-121378357D02*
X142057142Y-121430738D01*
X142109523Y-121483119D01*
X142161904Y-121430738D01*
X142109523Y-121378357D01*
X142109523Y-121483119D01*
X141114285Y-121430738D02*
X141219047Y-121483119D01*
X141428571Y-121483119D01*
X141533333Y-121430738D01*
X141585714Y-121378357D01*
X141638095Y-121273595D01*
X141638095Y-120959309D01*
X141585714Y-120854547D01*
X141533333Y-120802166D01*
X141428571Y-120749785D01*
X141219047Y-120749785D01*
X141114285Y-120802166D01*
X140485714Y-121483119D02*
X140590476Y-121430738D01*
X140642857Y-121378357D01*
X140695238Y-121273595D01*
X140695238Y-120959309D01*
X140642857Y-120854547D01*
X140590476Y-120802166D01*
X140485714Y-120749785D01*
X140328571Y-120749785D01*
X140223809Y-120802166D01*
X140171428Y-120854547D01*
X140119047Y-120959309D01*
X140119047Y-121273595D01*
X140171428Y-121378357D01*
X140223809Y-121430738D01*
X140328571Y-121483119D01*
X140485714Y-121483119D01*
X139647619Y-121483119D02*
X139647619Y-120749785D01*
X139647619Y-120854547D02*
X139595238Y-120802166D01*
X139490476Y-120749785D01*
X139333333Y-120749785D01*
X139228571Y-120802166D01*
X139176190Y-120906928D01*
X139176190Y-121483119D01*
X139176190Y-120906928D02*
X139123809Y-120802166D01*
X139019047Y-120749785D01*
X138861904Y-120749785D01*
X138757142Y-120802166D01*
X138704761Y-120906928D01*
X138704761Y-121483119D01*
X137395238Y-120330738D02*
X138338095Y-121745023D01*
X136400000Y-121378357D02*
X136452380Y-121430738D01*
X136609523Y-121483119D01*
X136714285Y-121483119D01*
X136871428Y-121430738D01*
X136976190Y-121325976D01*
X137028571Y-121221214D01*
X137080952Y-121011690D01*
X137080952Y-120854547D01*
X137028571Y-120645023D01*
X136976190Y-120540261D01*
X136871428Y-120435500D01*
X136714285Y-120383119D01*
X136609523Y-120383119D01*
X136452380Y-120435500D01*
X136400000Y-120487880D01*
X135457142Y-120383119D02*
X135666666Y-120383119D01*
X135771428Y-120435500D01*
X135823809Y-120487880D01*
X135928571Y-120645023D01*
X135980952Y-120854547D01*
X135980952Y-121273595D01*
X135928571Y-121378357D01*
X135876190Y-121430738D01*
X135771428Y-121483119D01*
X135561904Y-121483119D01*
X135457142Y-121430738D01*
X135404761Y-121378357D01*
X135352380Y-121273595D01*
X135352380Y-121011690D01*
X135404761Y-120906928D01*
X135457142Y-120854547D01*
X135561904Y-120802166D01*
X135771428Y-120802166D01*
X135876190Y-120854547D01*
X135928571Y-120906928D01*
X135980952Y-121011690D01*
X134409523Y-120749785D02*
X134409523Y-121483119D01*
X134671428Y-120330738D02*
X134933333Y-121116452D01*
X134252380Y-121116452D01*
X133833333Y-120383119D02*
X133833333Y-121273595D01*
X133780952Y-121378357D01*
X133728571Y-121430738D01*
X133623809Y-121483119D01*
X133414285Y-121483119D01*
X133309523Y-121430738D01*
X133257142Y-121378357D01*
X133204761Y-121273595D01*
X133204761Y-120383119D01*
X132733333Y-121430738D02*
X132628571Y-121483119D01*
X132419047Y-121483119D01*
X132314285Y-121430738D01*
X132261904Y-121325976D01*
X132261904Y-121273595D01*
X132314285Y-121168833D01*
X132419047Y-121116452D01*
X132576190Y-121116452D01*
X132680952Y-121064071D01*
X132733333Y-120959309D01*
X132733333Y-120906928D01*
X132680952Y-120802166D01*
X132576190Y-120749785D01*
X132419047Y-120749785D01*
X132314285Y-120802166D01*
X131371428Y-121430738D02*
X131476190Y-121483119D01*
X131685714Y-121483119D01*
X131790476Y-121430738D01*
X131842857Y-121325976D01*
X131842857Y-120906928D01*
X131790476Y-120802166D01*
X131685714Y-120749785D01*
X131476190Y-120749785D01*
X131371428Y-120802166D01*
X131319047Y-120906928D01*
X131319047Y-121011690D01*
X131842857Y-121116452D01*
X130847619Y-121483119D02*
X130847619Y-120749785D01*
X130847619Y-120959309D02*
X130795238Y-120854547D01*
X130742857Y-120802166D01*
X130638095Y-120749785D01*
X130533333Y-120749785D01*
X130166666Y-121483119D02*
X130166666Y-120383119D01*
X129747619Y-120383119D01*
X129642857Y-120435500D01*
X129590476Y-120487880D01*
X129538095Y-120592642D01*
X129538095Y-120749785D01*
X129590476Y-120854547D01*
X129642857Y-120906928D01*
X129747619Y-120959309D01*
X130166666Y-120959309D01*
X128909523Y-121483119D02*
X129014285Y-121430738D01*
X129066666Y-121378357D01*
X129119047Y-121273595D01*
X129119047Y-120959309D01*
X129066666Y-120854547D01*
X129014285Y-120802166D01*
X128909523Y-120749785D01*
X128752380Y-120749785D01*
X128647619Y-120802166D01*
X128595238Y-120854547D01*
X128542857Y-120959309D01*
X128542857Y-121273595D01*
X128595238Y-121378357D01*
X128647619Y-121430738D01*
X128752380Y-121483119D01*
X128909523Y-121483119D01*
X128071428Y-121483119D02*
X128071428Y-120749785D01*
X128071428Y-120959309D02*
X128019047Y-120854547D01*
X127966666Y-120802166D01*
X127861904Y-120749785D01*
X127757142Y-120749785D01*
X127547619Y-120749785D02*
X127128571Y-120749785D01*
X127390476Y-120383119D02*
X127390476Y-121325976D01*
X127338095Y-121430738D01*
X127233333Y-121483119D01*
X127128571Y-121483119D01*
X126761904Y-121483119D02*
X126761904Y-120383119D01*
X126395238Y-121168833D01*
X126028571Y-120383119D01*
X126028571Y-121483119D01*
X125504761Y-121483119D02*
X125504761Y-120749785D01*
X125504761Y-120383119D02*
X125557142Y-120435500D01*
X125504761Y-120487880D01*
X125452380Y-120435500D01*
X125504761Y-120383119D01*
X125504761Y-120487880D01*
X124509523Y-121483119D02*
X124509523Y-120383119D01*
X124509523Y-121430738D02*
X124614285Y-121483119D01*
X124823809Y-121483119D01*
X124928571Y-121430738D01*
X124980952Y-121378357D01*
X125033333Y-121273595D01*
X125033333Y-120959309D01*
X124980952Y-120854547D01*
X124928571Y-120802166D01*
X124823809Y-120749785D01*
X124614285Y-120749785D01*
X124509523Y-120802166D01*
X123985714Y-121483119D02*
X123985714Y-120749785D01*
X123985714Y-120383119D02*
X124038095Y-120435500D01*
X123985714Y-120487880D01*
X123933333Y-120435500D01*
X123985714Y-120383119D01*
X123985714Y-120487880D01*
D12*
X157166666Y-93918571D02*
X157500000Y-93918571D01*
X157500000Y-94442380D02*
X157500000Y-93442380D01*
X157023809Y-93442380D01*
X156500000Y-94442380D02*
X156595238Y-94394761D01*
X156642857Y-94347142D01*
X156690476Y-94251904D01*
X156690476Y-93966190D01*
X156642857Y-93870952D01*
X156595238Y-93823333D01*
X156500000Y-93775714D01*
X156357142Y-93775714D01*
X156261904Y-93823333D01*
X156214285Y-93870952D01*
X156166666Y-93966190D01*
X156166666Y-94251904D01*
X156214285Y-94347142D01*
X156261904Y-94394761D01*
X156357142Y-94442380D01*
X156500000Y-94442380D01*
X155738095Y-94442380D02*
X155738095Y-93775714D01*
X155738095Y-93966190D02*
X155690476Y-93870952D01*
X155642857Y-93823333D01*
X155547619Y-93775714D01*
X155452380Y-93775714D01*
X153928571Y-93775714D02*
X153928571Y-94442380D01*
X154357142Y-93775714D02*
X154357142Y-94299523D01*
X154309523Y-94394761D01*
X154214285Y-94442380D01*
X154071428Y-94442380D01*
X153976190Y-94394761D01*
X153928571Y-94347142D01*
X153500000Y-94394761D02*
X153404761Y-94442380D01*
X153214285Y-94442380D01*
X153119047Y-94394761D01*
X153071428Y-94299523D01*
X153071428Y-94251904D01*
X153119047Y-94156666D01*
X153214285Y-94109047D01*
X153357142Y-94109047D01*
X153452380Y-94061428D01*
X153500000Y-93966190D01*
X153500000Y-93918571D01*
X153452380Y-93823333D01*
X153357142Y-93775714D01*
X153214285Y-93775714D01*
X153119047Y-93823333D01*
X152261904Y-94394761D02*
X152357142Y-94442380D01*
X152547619Y-94442380D01*
X152642857Y-94394761D01*
X152690476Y-94299523D01*
X152690476Y-93918571D01*
X152642857Y-93823333D01*
X152547619Y-93775714D01*
X152357142Y-93775714D01*
X152261904Y-93823333D01*
X152214285Y-93918571D01*
X152214285Y-94013809D01*
X152690476Y-94109047D01*
X151119047Y-93775714D02*
X150928571Y-94442380D01*
X150738095Y-93966190D01*
X150547619Y-94442380D01*
X150357142Y-93775714D01*
X149976190Y-94442380D02*
X149976190Y-93775714D01*
X149976190Y-93442380D02*
X150023809Y-93490000D01*
X149976190Y-93537619D01*
X149928571Y-93490000D01*
X149976190Y-93442380D01*
X149976190Y-93537619D01*
X149642857Y-93775714D02*
X149261904Y-93775714D01*
X149500000Y-93442380D02*
X149500000Y-94299523D01*
X149452380Y-94394761D01*
X149357142Y-94442380D01*
X149261904Y-94442380D01*
X148928571Y-94442380D02*
X148928571Y-93442380D01*
X148500000Y-94442380D02*
X148500000Y-93918571D01*
X148547619Y-93823333D01*
X148642857Y-93775714D01*
X148785714Y-93775714D01*
X148880952Y-93823333D01*
X148928571Y-93870952D01*
X157904761Y-95957142D02*
X157952380Y-96004761D01*
X158095238Y-96052380D01*
X158190476Y-96052380D01*
X158333333Y-96004761D01*
X158428571Y-95909523D01*
X158476190Y-95814285D01*
X158523809Y-95623809D01*
X158523809Y-95480952D01*
X158476190Y-95290476D01*
X158428571Y-95195238D01*
X158333333Y-95100000D01*
X158190476Y-95052380D01*
X158095238Y-95052380D01*
X157952380Y-95100000D01*
X157904761Y-95147619D01*
X157333333Y-96052380D02*
X157428571Y-96004761D01*
X157476190Y-95957142D01*
X157523809Y-95861904D01*
X157523809Y-95576190D01*
X157476190Y-95480952D01*
X157428571Y-95433333D01*
X157333333Y-95385714D01*
X157190476Y-95385714D01*
X157095238Y-95433333D01*
X157047619Y-95480952D01*
X157000000Y-95576190D01*
X157000000Y-95861904D01*
X157047619Y-95957142D01*
X157095238Y-96004761D01*
X157190476Y-96052380D01*
X157333333Y-96052380D01*
X156571428Y-96052380D02*
X156571428Y-95385714D01*
X156571428Y-95480952D02*
X156523809Y-95433333D01*
X156428571Y-95385714D01*
X156285714Y-95385714D01*
X156190476Y-95433333D01*
X156142857Y-95528571D01*
X156142857Y-96052380D01*
X156142857Y-95528571D02*
X156095238Y-95433333D01*
X156000000Y-95385714D01*
X155857142Y-95385714D01*
X155761904Y-95433333D01*
X155714285Y-95528571D01*
X155714285Y-96052380D01*
X155238095Y-96052380D02*
X155238095Y-95385714D01*
X155238095Y-95480952D02*
X155190476Y-95433333D01*
X155095238Y-95385714D01*
X154952380Y-95385714D01*
X154857142Y-95433333D01*
X154809523Y-95528571D01*
X154809523Y-96052380D01*
X154809523Y-95528571D02*
X154761904Y-95433333D01*
X154666666Y-95385714D01*
X154523809Y-95385714D01*
X154428571Y-95433333D01*
X154380952Y-95528571D01*
X154380952Y-96052380D01*
X153761904Y-96052380D02*
X153857142Y-96004761D01*
X153904761Y-95957142D01*
X153952380Y-95861904D01*
X153952380Y-95576190D01*
X153904761Y-95480952D01*
X153857142Y-95433333D01*
X153761904Y-95385714D01*
X153619047Y-95385714D01*
X153523809Y-95433333D01*
X153476190Y-95480952D01*
X153428571Y-95576190D01*
X153428571Y-95861904D01*
X153476190Y-95957142D01*
X153523809Y-96004761D01*
X153619047Y-96052380D01*
X153761904Y-96052380D01*
X152571428Y-96052380D02*
X152571428Y-95052380D01*
X152571428Y-96004761D02*
X152666666Y-96052380D01*
X152857142Y-96052380D01*
X152952380Y-96004761D01*
X153000000Y-95957142D01*
X153047619Y-95861904D01*
X153047619Y-95576190D01*
X153000000Y-95480952D01*
X152952380Y-95433333D01*
X152857142Y-95385714D01*
X152666666Y-95385714D01*
X152571428Y-95433333D01*
X151952380Y-96052380D02*
X152047619Y-96004761D01*
X152095238Y-95957142D01*
X152142857Y-95861904D01*
X152142857Y-95576190D01*
X152095238Y-95480952D01*
X152047619Y-95433333D01*
X151952380Y-95385714D01*
X151809523Y-95385714D01*
X151714285Y-95433333D01*
X151666666Y-95480952D01*
X151619047Y-95576190D01*
X151619047Y-95861904D01*
X151666666Y-95957142D01*
X151714285Y-96004761D01*
X151809523Y-96052380D01*
X151952380Y-96052380D01*
X151190476Y-96052380D02*
X151190476Y-95385714D01*
X151190476Y-95576190D02*
X151142857Y-95480952D01*
X151095238Y-95433333D01*
X151000000Y-95385714D01*
X150904761Y-95385714D01*
X150190476Y-96004761D02*
X150285714Y-96052380D01*
X150476190Y-96052380D01*
X150571428Y-96004761D01*
X150619047Y-95909523D01*
X150619047Y-95528571D01*
X150571428Y-95433333D01*
X150476190Y-95385714D01*
X150285714Y-95385714D01*
X150190476Y-95433333D01*
X150142857Y-95528571D01*
X150142857Y-95623809D01*
X150619047Y-95719047D01*
X148523809Y-95052380D02*
X148714285Y-95052380D01*
X148809523Y-95100000D01*
X148857142Y-95147619D01*
X148952380Y-95290476D01*
X149000000Y-95480952D01*
X149000000Y-95861904D01*
X148952380Y-95957142D01*
X148904761Y-96004761D01*
X148809523Y-96052380D01*
X148619047Y-96052380D01*
X148523809Y-96004761D01*
X148476190Y-95957142D01*
X148428571Y-95861904D01*
X148428571Y-95623809D01*
X148476190Y-95528571D01*
X148523809Y-95480952D01*
X148619047Y-95433333D01*
X148809523Y-95433333D01*
X148904761Y-95480952D01*
X148952380Y-95528571D01*
X149000000Y-95623809D01*
X147571428Y-95385714D02*
X147571428Y-96052380D01*
X147809523Y-95004761D02*
X148047619Y-95719047D01*
X147428571Y-95719047D01*
X160452380Y-97614761D02*
X160547619Y-97662380D01*
X160738095Y-97662380D01*
X160833333Y-97614761D01*
X160880952Y-97567142D01*
X160928571Y-97471904D01*
X160928571Y-97186190D01*
X160880952Y-97090952D01*
X160833333Y-97043333D01*
X160738095Y-96995714D01*
X160547619Y-96995714D01*
X160452380Y-97043333D01*
X159880952Y-97662380D02*
X159976190Y-97614761D01*
X160023809Y-97567142D01*
X160071428Y-97471904D01*
X160071428Y-97186190D01*
X160023809Y-97090952D01*
X159976190Y-97043333D01*
X159880952Y-96995714D01*
X159738095Y-96995714D01*
X159642857Y-97043333D01*
X159595238Y-97090952D01*
X159547619Y-97186190D01*
X159547619Y-97471904D01*
X159595238Y-97567142D01*
X159642857Y-97614761D01*
X159738095Y-97662380D01*
X159880952Y-97662380D01*
X159119047Y-97662380D02*
X159119047Y-96995714D01*
X159119047Y-97090952D02*
X159071428Y-97043333D01*
X158976190Y-96995714D01*
X158833333Y-96995714D01*
X158738095Y-97043333D01*
X158690476Y-97138571D01*
X158690476Y-97662380D01*
X158690476Y-97138571D02*
X158642857Y-97043333D01*
X158547619Y-96995714D01*
X158404761Y-96995714D01*
X158309523Y-97043333D01*
X158261904Y-97138571D01*
X158261904Y-97662380D01*
X157785714Y-96995714D02*
X157785714Y-97995714D01*
X157785714Y-97043333D02*
X157690476Y-96995714D01*
X157500000Y-96995714D01*
X157404761Y-97043333D01*
X157357142Y-97090952D01*
X157309523Y-97186190D01*
X157309523Y-97471904D01*
X157357142Y-97567142D01*
X157404761Y-97614761D01*
X157500000Y-97662380D01*
X157690476Y-97662380D01*
X157785714Y-97614761D01*
X156452380Y-97662380D02*
X156452380Y-97138571D01*
X156500000Y-97043333D01*
X156595238Y-96995714D01*
X156785714Y-96995714D01*
X156880952Y-97043333D01*
X156452380Y-97614761D02*
X156547619Y-97662380D01*
X156785714Y-97662380D01*
X156880952Y-97614761D01*
X156928571Y-97519523D01*
X156928571Y-97424285D01*
X156880952Y-97329047D01*
X156785714Y-97281428D01*
X156547619Y-97281428D01*
X156452380Y-97233809D01*
X156119047Y-96995714D02*
X155738095Y-96995714D01*
X155976190Y-96662380D02*
X155976190Y-97519523D01*
X155928571Y-97614761D01*
X155833333Y-97662380D01*
X155738095Y-97662380D01*
X155404761Y-97662380D02*
X155404761Y-96995714D01*
X155404761Y-96662380D02*
X155452380Y-96710000D01*
X155404761Y-96757619D01*
X155357142Y-96710000D01*
X155404761Y-96662380D01*
X155404761Y-96757619D01*
X154928571Y-97662380D02*
X154928571Y-96662380D01*
X154928571Y-97043333D02*
X154833333Y-96995714D01*
X154642857Y-96995714D01*
X154547619Y-97043333D01*
X154500000Y-97090952D01*
X154452380Y-97186190D01*
X154452380Y-97471904D01*
X154500000Y-97567142D01*
X154547619Y-97614761D01*
X154642857Y-97662380D01*
X154833333Y-97662380D01*
X154928571Y-97614761D01*
X153880952Y-97662380D02*
X153976190Y-97614761D01*
X154023809Y-97519523D01*
X154023809Y-96662380D01*
X153119047Y-97614761D02*
X153214285Y-97662380D01*
X153404761Y-97662380D01*
X153500000Y-97614761D01*
X153547619Y-97519523D01*
X153547619Y-97138571D01*
X153500000Y-97043333D01*
X153404761Y-96995714D01*
X153214285Y-96995714D01*
X153119047Y-97043333D01*
X153071428Y-97138571D01*
X153071428Y-97233809D01*
X153547619Y-97329047D01*
X151880952Y-97662380D02*
X151880952Y-96662380D01*
X151452380Y-97662380D02*
X151452380Y-97138571D01*
X151500000Y-97043333D01*
X151595238Y-96995714D01*
X151738095Y-96995714D01*
X151833333Y-97043333D01*
X151880952Y-97090952D01*
X150547619Y-97662380D02*
X150547619Y-97138571D01*
X150595238Y-97043333D01*
X150690476Y-96995714D01*
X150880952Y-96995714D01*
X150976190Y-97043333D01*
X150547619Y-97614761D02*
X150642857Y-97662380D01*
X150880952Y-97662380D01*
X150976190Y-97614761D01*
X151023809Y-97519523D01*
X151023809Y-97424285D01*
X150976190Y-97329047D01*
X150880952Y-97281428D01*
X150642857Y-97281428D01*
X150547619Y-97233809D01*
X150071428Y-97662380D02*
X150071428Y-96995714D01*
X150071428Y-97186190D02*
X150023809Y-97090952D01*
X149976190Y-97043333D01*
X149880952Y-96995714D01*
X149785714Y-96995714D01*
X149023809Y-97662380D02*
X149023809Y-96662380D01*
X149023809Y-97614761D02*
X149119047Y-97662380D01*
X149309523Y-97662380D01*
X149404761Y-97614761D01*
X149452380Y-97567142D01*
X149500000Y-97471904D01*
X149500000Y-97186190D01*
X149452380Y-97090952D01*
X149404761Y-97043333D01*
X149309523Y-96995714D01*
X149119047Y-96995714D01*
X149023809Y-97043333D01*
X148642857Y-96995714D02*
X148452380Y-97662380D01*
X148261904Y-97186190D01*
X148071428Y-97662380D01*
X147880952Y-96995714D01*
X147071428Y-97662380D02*
X147071428Y-97138571D01*
X147119047Y-97043333D01*
X147214285Y-96995714D01*
X147404761Y-96995714D01*
X147500000Y-97043333D01*
X147071428Y-97614761D02*
X147166666Y-97662380D01*
X147404761Y-97662380D01*
X147500000Y-97614761D01*
X147547619Y-97519523D01*
X147547619Y-97424285D01*
X147500000Y-97329047D01*
X147404761Y-97281428D01*
X147166666Y-97281428D01*
X147071428Y-97233809D01*
X146595238Y-97662380D02*
X146595238Y-96995714D01*
X146595238Y-97186190D02*
X146547619Y-97090952D01*
X146500000Y-97043333D01*
X146404761Y-96995714D01*
X146309523Y-96995714D01*
X145595238Y-97614761D02*
X145690476Y-97662380D01*
X145880952Y-97662380D01*
X145976190Y-97614761D01*
X146023809Y-97519523D01*
X146023809Y-97138571D01*
X145976190Y-97043333D01*
X145880952Y-96995714D01*
X145690476Y-96995714D01*
X145595238Y-97043333D01*
X145547619Y-97138571D01*
X145547619Y-97233809D01*
X146023809Y-97329047D01*
X145119047Y-97567142D02*
X145071428Y-97614761D01*
X145119047Y-97662380D01*
X145166666Y-97614761D01*
X145119047Y-97567142D01*
X145119047Y-97662380D01*
X147883333Y-126947380D02*
X147883333Y-125947380D01*
X147502380Y-125947380D01*
X147407142Y-125995000D01*
X147359523Y-126042619D01*
X147311904Y-126137857D01*
X147311904Y-126280714D01*
X147359523Y-126375952D01*
X147407142Y-126423571D01*
X147502380Y-126471190D01*
X147883333Y-126471190D01*
X146883333Y-126947380D02*
X146883333Y-126280714D01*
X146883333Y-126471190D02*
X146835714Y-126375952D01*
X146788095Y-126328333D01*
X146692857Y-126280714D01*
X146597619Y-126280714D01*
X146121428Y-126947380D02*
X146216666Y-126899761D01*
X146264285Y-126852142D01*
X146311904Y-126756904D01*
X146311904Y-126471190D01*
X146264285Y-126375952D01*
X146216666Y-126328333D01*
X146121428Y-126280714D01*
X145978571Y-126280714D01*
X145883333Y-126328333D01*
X145835714Y-126375952D01*
X145788095Y-126471190D01*
X145788095Y-126756904D01*
X145835714Y-126852142D01*
X145883333Y-126899761D01*
X145978571Y-126947380D01*
X146121428Y-126947380D01*
X144930952Y-126280714D02*
X144930952Y-127090238D01*
X144978571Y-127185476D01*
X145026190Y-127233095D01*
X145121428Y-127280714D01*
X145264285Y-127280714D01*
X145359523Y-127233095D01*
X144930952Y-126899761D02*
X145026190Y-126947380D01*
X145216666Y-126947380D01*
X145311904Y-126899761D01*
X145359523Y-126852142D01*
X145407142Y-126756904D01*
X145407142Y-126471190D01*
X145359523Y-126375952D01*
X145311904Y-126328333D01*
X145216666Y-126280714D01*
X145026190Y-126280714D01*
X144930952Y-126328333D01*
X144454761Y-126947380D02*
X144454761Y-126280714D01*
X144454761Y-126471190D02*
X144407142Y-126375952D01*
X144359523Y-126328333D01*
X144264285Y-126280714D01*
X144169047Y-126280714D01*
X143407142Y-126947380D02*
X143407142Y-126423571D01*
X143454761Y-126328333D01*
X143550000Y-126280714D01*
X143740476Y-126280714D01*
X143835714Y-126328333D01*
X143407142Y-126899761D02*
X143502380Y-126947380D01*
X143740476Y-126947380D01*
X143835714Y-126899761D01*
X143883333Y-126804523D01*
X143883333Y-126709285D01*
X143835714Y-126614047D01*
X143740476Y-126566428D01*
X143502380Y-126566428D01*
X143407142Y-126518809D01*
X142930952Y-126947380D02*
X142930952Y-126280714D01*
X142930952Y-126375952D02*
X142883333Y-126328333D01*
X142788095Y-126280714D01*
X142645238Y-126280714D01*
X142550000Y-126328333D01*
X142502380Y-126423571D01*
X142502380Y-126947380D01*
X142502380Y-126423571D02*
X142454761Y-126328333D01*
X142359523Y-126280714D01*
X142216666Y-126280714D01*
X142121428Y-126328333D01*
X142073809Y-126423571D01*
X142073809Y-126947380D01*
X140883333Y-126661666D02*
X140407142Y-126661666D01*
X140978571Y-126947380D02*
X140645238Y-125947380D01*
X140311904Y-126947380D01*
X140121428Y-125947380D02*
X139550000Y-125947380D01*
X139835714Y-126947380D02*
X139835714Y-125947380D01*
X139359523Y-126280714D02*
X138978571Y-126280714D01*
X139216666Y-125947380D02*
X139216666Y-126804523D01*
X139169047Y-126899761D01*
X139073809Y-126947380D01*
X138978571Y-126947380D01*
X138645238Y-126947380D02*
X138645238Y-126280714D01*
X138645238Y-125947380D02*
X138692857Y-125995000D01*
X138645238Y-126042619D01*
X138597619Y-125995000D01*
X138645238Y-125947380D01*
X138645238Y-126042619D01*
X138169047Y-126280714D02*
X138169047Y-126947380D01*
X138169047Y-126375952D02*
X138121428Y-126328333D01*
X138026190Y-126280714D01*
X137883333Y-126280714D01*
X137788095Y-126328333D01*
X137740476Y-126423571D01*
X137740476Y-126947380D01*
X137359523Y-126280714D02*
X137121428Y-126947380D01*
X136883333Y-126280714D02*
X137121428Y-126947380D01*
X137216666Y-127185476D01*
X137264285Y-127233095D01*
X137359523Y-127280714D01*
X135835714Y-126280714D02*
X135645238Y-126947380D01*
X135454761Y-126471190D01*
X135264285Y-126947380D01*
X135073809Y-126280714D01*
X134692857Y-126947380D02*
X134692857Y-126280714D01*
X134692857Y-125947380D02*
X134740476Y-125995000D01*
X134692857Y-126042619D01*
X134645238Y-125995000D01*
X134692857Y-125947380D01*
X134692857Y-126042619D01*
X134359523Y-126280714D02*
X133978571Y-126280714D01*
X134216666Y-125947380D02*
X134216666Y-126804523D01*
X134169047Y-126899761D01*
X134073809Y-126947380D01*
X133978571Y-126947380D01*
X133645238Y-126947380D02*
X133645238Y-125947380D01*
X133216666Y-126947380D02*
X133216666Y-126423571D01*
X133264285Y-126328333D01*
X133359523Y-126280714D01*
X133502380Y-126280714D01*
X133597619Y-126328333D01*
X133645238Y-126375952D01*
X131835714Y-126947380D02*
X131930952Y-126899761D01*
X131978571Y-126804523D01*
X131978571Y-125947380D01*
X131026190Y-126947380D02*
X131026190Y-126423571D01*
X131073809Y-126328333D01*
X131169047Y-126280714D01*
X131359523Y-126280714D01*
X131454761Y-126328333D01*
X131026190Y-126899761D02*
X131121428Y-126947380D01*
X131359523Y-126947380D01*
X131454761Y-126899761D01*
X131502380Y-126804523D01*
X131502380Y-126709285D01*
X131454761Y-126614047D01*
X131359523Y-126566428D01*
X131121428Y-126566428D01*
X131026190Y-126518809D01*
X130692857Y-126280714D02*
X130311904Y-126280714D01*
X130550000Y-125947380D02*
X130550000Y-126804523D01*
X130502380Y-126899761D01*
X130407142Y-126947380D01*
X130311904Y-126947380D01*
X129597619Y-126899761D02*
X129692857Y-126947380D01*
X129883333Y-126947380D01*
X129978571Y-126899761D01*
X130026190Y-126804523D01*
X130026190Y-126423571D01*
X129978571Y-126328333D01*
X129883333Y-126280714D01*
X129692857Y-126280714D01*
X129597619Y-126328333D01*
X129550000Y-126423571D01*
X129550000Y-126518809D01*
X130026190Y-126614047D01*
X129169047Y-126899761D02*
X129073809Y-126947380D01*
X128883333Y-126947380D01*
X128788095Y-126899761D01*
X128740476Y-126804523D01*
X128740476Y-126756904D01*
X128788095Y-126661666D01*
X128883333Y-126614047D01*
X129026190Y-126614047D01*
X129121428Y-126566428D01*
X129169047Y-126471190D01*
X129169047Y-126423571D01*
X129121428Y-126328333D01*
X129026190Y-126280714D01*
X128883333Y-126280714D01*
X128788095Y-126328333D01*
X128454761Y-126280714D02*
X128073809Y-126280714D01*
X128311904Y-125947380D02*
X128311904Y-126804523D01*
X128264285Y-126899761D01*
X128169047Y-126947380D01*
X128073809Y-126947380D01*
X149359523Y-127890714D02*
X148978571Y-127890714D01*
X149216666Y-128557380D02*
X149216666Y-127700238D01*
X149169047Y-127605000D01*
X149073809Y-127557380D01*
X148978571Y-127557380D01*
X148645238Y-128557380D02*
X148645238Y-127890714D01*
X148645238Y-127557380D02*
X148692857Y-127605000D01*
X148645238Y-127652619D01*
X148597619Y-127605000D01*
X148645238Y-127557380D01*
X148645238Y-127652619D01*
X148169047Y-128557380D02*
X148169047Y-127890714D01*
X148169047Y-128081190D02*
X148121428Y-127985952D01*
X148073809Y-127938333D01*
X147978571Y-127890714D01*
X147883333Y-127890714D01*
X147550000Y-128557380D02*
X147550000Y-127890714D01*
X147550000Y-127985952D02*
X147502380Y-127938333D01*
X147407142Y-127890714D01*
X147264285Y-127890714D01*
X147169047Y-127938333D01*
X147121428Y-128033571D01*
X147121428Y-128557380D01*
X147121428Y-128033571D02*
X147073809Y-127938333D01*
X146978571Y-127890714D01*
X146835714Y-127890714D01*
X146740476Y-127938333D01*
X146692857Y-128033571D01*
X146692857Y-128557380D01*
X146311904Y-127890714D02*
X146121428Y-128557380D01*
X145930952Y-128081190D01*
X145740476Y-128557380D01*
X145550000Y-127890714D01*
X144740476Y-128557380D02*
X144740476Y-128033571D01*
X144788095Y-127938333D01*
X144883333Y-127890714D01*
X145073809Y-127890714D01*
X145169047Y-127938333D01*
X144740476Y-128509761D02*
X144835714Y-128557380D01*
X145073809Y-128557380D01*
X145169047Y-128509761D01*
X145216666Y-128414523D01*
X145216666Y-128319285D01*
X145169047Y-128224047D01*
X145073809Y-128176428D01*
X144835714Y-128176428D01*
X144740476Y-128128809D01*
X144264285Y-128557380D02*
X144264285Y-127890714D01*
X144264285Y-128081190D02*
X144216666Y-127985952D01*
X144169047Y-127938333D01*
X144073809Y-127890714D01*
X143978571Y-127890714D01*
X143264285Y-128509761D02*
X143359523Y-128557380D01*
X143550000Y-128557380D01*
X143645238Y-128509761D01*
X143692857Y-128414523D01*
X143692857Y-128033571D01*
X143645238Y-127938333D01*
X143550000Y-127890714D01*
X143359523Y-127890714D01*
X143264285Y-127938333D01*
X143216666Y-128033571D01*
X143216666Y-128128809D01*
X143692857Y-128224047D01*
X142121428Y-127890714D02*
X141883333Y-128557380D01*
X141645238Y-127890714D01*
X141264285Y-128557380D02*
X141264285Y-127890714D01*
X141264285Y-127557380D02*
X141311904Y-127605000D01*
X141264285Y-127652619D01*
X141216666Y-127605000D01*
X141264285Y-127557380D01*
X141264285Y-127652619D01*
X140359523Y-128557380D02*
X140359523Y-128033571D01*
X140407142Y-127938333D01*
X140502380Y-127890714D01*
X140692857Y-127890714D01*
X140788095Y-127938333D01*
X140359523Y-128509761D02*
X140454761Y-128557380D01*
X140692857Y-128557380D01*
X140788095Y-128509761D01*
X140835714Y-128414523D01*
X140835714Y-128319285D01*
X140788095Y-128224047D01*
X140692857Y-128176428D01*
X140454761Y-128176428D01*
X140359523Y-128128809D01*
X139121428Y-128557380D02*
X139121428Y-127557380D01*
X138073809Y-128462142D02*
X138121428Y-128509761D01*
X138264285Y-128557380D01*
X138359523Y-128557380D01*
X138502380Y-128509761D01*
X138597619Y-128414523D01*
X138645238Y-128319285D01*
X138692857Y-128128809D01*
X138692857Y-127985952D01*
X138645238Y-127795476D01*
X138597619Y-127700238D01*
X138502380Y-127605000D01*
X138359523Y-127557380D01*
X138264285Y-127557380D01*
X138121428Y-127605000D01*
X138073809Y-127652619D01*
X137692857Y-128509761D02*
X137550000Y-128557380D01*
X137311904Y-128557380D01*
X137216666Y-128509761D01*
X137169047Y-128462142D01*
X137121428Y-128366904D01*
X137121428Y-128271666D01*
X137169047Y-128176428D01*
X137216666Y-128128809D01*
X137311904Y-128081190D01*
X137502380Y-128033571D01*
X137597619Y-127985952D01*
X137645238Y-127938333D01*
X137692857Y-127843095D01*
X137692857Y-127747857D01*
X137645238Y-127652619D01*
X137597619Y-127605000D01*
X137502380Y-127557380D01*
X137264285Y-127557380D01*
X137121428Y-127605000D01*
X136692857Y-128557380D02*
X136692857Y-127557380D01*
X136311904Y-127557380D01*
X136216666Y-127605000D01*
X136169047Y-127652619D01*
X136121428Y-127747857D01*
X136121428Y-127890714D01*
X136169047Y-127985952D01*
X136216666Y-128033571D01*
X136311904Y-128081190D01*
X136692857Y-128081190D01*
X134930952Y-128557380D02*
X134930952Y-127557380D01*
X134930952Y-127938333D02*
X134835714Y-127890714D01*
X134645238Y-127890714D01*
X134550000Y-127938333D01*
X134502380Y-127985952D01*
X134454761Y-128081190D01*
X134454761Y-128366904D01*
X134502380Y-128462142D01*
X134550000Y-128509761D01*
X134645238Y-128557380D01*
X134835714Y-128557380D01*
X134930952Y-128509761D01*
X133645238Y-128509761D02*
X133740476Y-128557380D01*
X133930952Y-128557380D01*
X134026190Y-128509761D01*
X134073809Y-128414523D01*
X134073809Y-128033571D01*
X134026190Y-127938333D01*
X133930952Y-127890714D01*
X133740476Y-127890714D01*
X133645238Y-127938333D01*
X133597619Y-128033571D01*
X133597619Y-128128809D01*
X134073809Y-128224047D01*
X133311904Y-127890714D02*
X132930952Y-127890714D01*
X133169047Y-128557380D02*
X133169047Y-127700238D01*
X133121428Y-127605000D01*
X133026190Y-127557380D01*
X132930952Y-127557380D01*
X132454761Y-128557380D02*
X132550000Y-128509761D01*
X132597619Y-128462142D01*
X132645238Y-128366904D01*
X132645238Y-128081190D01*
X132597619Y-127985952D01*
X132550000Y-127938333D01*
X132454761Y-127890714D01*
X132311904Y-127890714D01*
X132216666Y-127938333D01*
X132169047Y-127985952D01*
X132121428Y-128081190D01*
X132121428Y-128366904D01*
X132169047Y-128462142D01*
X132216666Y-128509761D01*
X132311904Y-128557380D01*
X132454761Y-128557380D01*
X131692857Y-128557380D02*
X131692857Y-127890714D01*
X131692857Y-128081190D02*
X131645238Y-127985952D01*
X131597619Y-127938333D01*
X131502380Y-127890714D01*
X131407142Y-127890714D01*
X130692857Y-128509761D02*
X130788095Y-128557380D01*
X130978571Y-128557380D01*
X131073809Y-128509761D01*
X131121428Y-128414523D01*
X131121428Y-128033571D01*
X131073809Y-127938333D01*
X130978571Y-127890714D01*
X130788095Y-127890714D01*
X130692857Y-127938333D01*
X130645238Y-128033571D01*
X130645238Y-128128809D01*
X131121428Y-128224047D01*
X129026190Y-127890714D02*
X129026190Y-128557380D01*
X129454761Y-127890714D02*
X129454761Y-128414523D01*
X129407142Y-128509761D01*
X129311904Y-128557380D01*
X129169047Y-128557380D01*
X129073809Y-128509761D01*
X129026190Y-128462142D01*
X128597619Y-128509761D02*
X128502380Y-128557380D01*
X128311904Y-128557380D01*
X128216666Y-128509761D01*
X128169047Y-128414523D01*
X128169047Y-128366904D01*
X128216666Y-128271666D01*
X128311904Y-128224047D01*
X128454761Y-128224047D01*
X128550000Y-128176428D01*
X128597619Y-128081190D01*
X128597619Y-128033571D01*
X128550000Y-127938333D01*
X128454761Y-127890714D01*
X128311904Y-127890714D01*
X128216666Y-127938333D01*
X127359523Y-128509761D02*
X127454761Y-128557380D01*
X127645238Y-128557380D01*
X127740476Y-128509761D01*
X127788095Y-128414523D01*
X127788095Y-128033571D01*
X127740476Y-127938333D01*
X127645238Y-127890714D01*
X127454761Y-127890714D01*
X127359523Y-127938333D01*
X127311904Y-128033571D01*
X127311904Y-128128809D01*
X127788095Y-128224047D01*
X126883333Y-128462142D02*
X126835714Y-128509761D01*
X126883333Y-128557380D01*
X126930952Y-128509761D01*
X126883333Y-128462142D01*
X126883333Y-128557380D01*
M02*
