G04 #@! TF.GenerationSoftware,KiCad,Pcbnew,5.1.9+dfsg1-1*
G04 #@! TF.CreationDate,2021-03-09T09:38:51-06:00*
G04 #@! TF.ProjectId,C64UserPortMidi,43363455-7365-4725-906f-72744d696469,rev?*
G04 #@! TF.SameCoordinates,Original*
G04 #@! TF.FileFunction,Soldermask,Bot*
G04 #@! TF.FilePolarity,Negative*
%FSLAX46Y46*%
G04 Gerber Fmt 4.6, Leading zero omitted, Abs format (unit mm)*
G04 Created by KiCad (PCBNEW 5.1.9+dfsg1-1) date 2021-03-09 09:38:51*
%MOMM*%
%LPD*%
G01*
G04 APERTURE LIST*
%ADD10C,0.100000*%
%ADD11C,2.500000*%
%ADD12O,1.600000X1.600000*%
%ADD13R,1.600000X1.600000*%
%ADD14C,1.600000*%
%ADD15R,1.700000X1.700000*%
%ADD16O,1.700000X1.700000*%
%ADD17R,2.400000X1.600000*%
%ADD18O,2.400000X1.600000*%
%ADD19R,1.600000X2.400000*%
%ADD20O,1.600000X2.400000*%
%ADD21R,1.800000X1.800000*%
%ADD22C,1.800000*%
G04 APERTURE END LIST*
D10*
G36*
X153860500Y-134683500D02*
G01*
X151447500Y-134683500D01*
X151447500Y-125412500D01*
X153860500Y-125412500D01*
X153860500Y-134683500D01*
G37*
X153860500Y-134683500D02*
X151447500Y-134683500D01*
X151447500Y-125412500D01*
X153860500Y-125412500D01*
X153860500Y-134683500D01*
G36*
X149923500Y-134683500D02*
G01*
X147510500Y-134683500D01*
X147510500Y-125412500D01*
X149923500Y-125412500D01*
X149923500Y-134683500D01*
G37*
X149923500Y-134683500D02*
X147510500Y-134683500D01*
X147510500Y-125412500D01*
X149923500Y-125412500D01*
X149923500Y-134683500D01*
G36*
X145923000Y-134683500D02*
G01*
X143510000Y-134683500D01*
X143510000Y-125412500D01*
X145923000Y-125412500D01*
X145923000Y-134683500D01*
G37*
X145923000Y-134683500D02*
X143510000Y-134683500D01*
X143510000Y-125412500D01*
X145923000Y-125412500D01*
X145923000Y-134683500D01*
G36*
X141986000Y-134683500D02*
G01*
X139573000Y-134683500D01*
X139573000Y-125412500D01*
X141986000Y-125412500D01*
X141986000Y-134683500D01*
G37*
X141986000Y-134683500D02*
X139573000Y-134683500D01*
X139573000Y-125412500D01*
X141986000Y-125412500D01*
X141986000Y-134683500D01*
G36*
X138049000Y-134683500D02*
G01*
X135636000Y-134683500D01*
X135636000Y-125412500D01*
X138049000Y-125412500D01*
X138049000Y-134683500D01*
G37*
X138049000Y-134683500D02*
X135636000Y-134683500D01*
X135636000Y-125412500D01*
X138049000Y-125412500D01*
X138049000Y-134683500D01*
G36*
X134048500Y-134683500D02*
G01*
X131635500Y-134683500D01*
X131635500Y-125412500D01*
X134048500Y-125412500D01*
X134048500Y-134683500D01*
G37*
X134048500Y-134683500D02*
X131635500Y-134683500D01*
X131635500Y-125412500D01*
X134048500Y-125412500D01*
X134048500Y-134683500D01*
G36*
X130111500Y-134683500D02*
G01*
X127698500Y-134683500D01*
X127698500Y-125412500D01*
X130111500Y-125412500D01*
X130111500Y-134683500D01*
G37*
X130111500Y-134683500D02*
X127698500Y-134683500D01*
X127698500Y-125412500D01*
X130111500Y-125412500D01*
X130111500Y-134683500D01*
G36*
X126111000Y-134683500D02*
G01*
X123698000Y-134683500D01*
X123698000Y-125412500D01*
X126111000Y-125412500D01*
X126111000Y-134683500D01*
G37*
X126111000Y-134683500D02*
X123698000Y-134683500D01*
X123698000Y-125412500D01*
X126111000Y-125412500D01*
X126111000Y-134683500D01*
G36*
X122174000Y-134683500D02*
G01*
X119761000Y-134683500D01*
X119761000Y-125412500D01*
X122174000Y-125412500D01*
X122174000Y-134683500D01*
G37*
X122174000Y-134683500D02*
X119761000Y-134683500D01*
X119761000Y-125412500D01*
X122174000Y-125412500D01*
X122174000Y-134683500D01*
G36*
X118237000Y-134683500D02*
G01*
X115824000Y-134683500D01*
X115824000Y-125412500D01*
X118237000Y-125412500D01*
X118237000Y-134683500D01*
G37*
X118237000Y-134683500D02*
X115824000Y-134683500D01*
X115824000Y-125412500D01*
X118237000Y-125412500D01*
X118237000Y-134683500D01*
G36*
X114236500Y-134683500D02*
G01*
X111823500Y-134683500D01*
X111823500Y-125412500D01*
X114236500Y-125412500D01*
X114236500Y-134683500D01*
G37*
X114236500Y-134683500D02*
X111823500Y-134683500D01*
X111823500Y-125412500D01*
X114236500Y-125412500D01*
X114236500Y-134683500D01*
G36*
X110299500Y-134683500D02*
G01*
X107886500Y-134683500D01*
X107886500Y-125412500D01*
X110299500Y-125412500D01*
X110299500Y-134683500D01*
G37*
X110299500Y-134683500D02*
X107886500Y-134683500D01*
X107886500Y-125412500D01*
X110299500Y-125412500D01*
X110299500Y-134683500D01*
D11*
X124848000Y-101171000D03*
X112348000Y-103671000D03*
X117348000Y-101171000D03*
X109848000Y-101171000D03*
X122348000Y-103671000D03*
X112348000Y-91171000D03*
X122348000Y-91171000D03*
D12*
X129921000Y-94488000D03*
D13*
X137541000Y-94488000D03*
D14*
X149574000Y-113030000D03*
D13*
X147574000Y-113030000D03*
X112776000Y-113284000D03*
D14*
X110776000Y-113284000D03*
D15*
X144526000Y-121158000D03*
D16*
X144526000Y-118618000D03*
X147066000Y-121158000D03*
X147066000Y-118618000D03*
X149606000Y-121158000D03*
X149606000Y-118618000D03*
D14*
X129921000Y-90678000D03*
D12*
X137541000Y-90678000D03*
X137414000Y-109601000D03*
D14*
X129794000Y-109601000D03*
X127254000Y-109601000D03*
D12*
X119634000Y-109601000D03*
D17*
X143509001Y-98806000D03*
D18*
X151129001Y-106426000D03*
X143509001Y-101346000D03*
X151129001Y-103886000D03*
X143509001Y-103886000D03*
X151129001Y-101346000D03*
X143509001Y-106426000D03*
X151129001Y-98806000D03*
X137414000Y-98806000D03*
X129794000Y-106426000D03*
X137414000Y-101346000D03*
X129794000Y-103886000D03*
X137414000Y-103886000D03*
X129794000Y-101346000D03*
X137414000Y-106426000D03*
D17*
X129794000Y-98806000D03*
D19*
X137414000Y-113030000D03*
D20*
X119634000Y-120650000D03*
X134874000Y-113030000D03*
X122174000Y-120650000D03*
X132334000Y-113030000D03*
X124714000Y-120650000D03*
X129794000Y-113030000D03*
X127254000Y-120650000D03*
X127254000Y-113030000D03*
X129794000Y-120650000D03*
X124714000Y-113030000D03*
X132334000Y-120650000D03*
X122174000Y-113030000D03*
X134874000Y-120650000D03*
X119634000Y-113030000D03*
X137414000Y-120650000D03*
D14*
X113030000Y-119126000D03*
X110530000Y-119126000D03*
X143510000Y-95250000D03*
D12*
X151130000Y-95250000D03*
D21*
X146050000Y-91313000D03*
D22*
X148590000Y-91313000D03*
M02*
