G04 #@! TF.GenerationSoftware,KiCad,Pcbnew,6.0.7+dfsg-1*
G04 #@! TF.CreationDate,2023-01-03T09:25:57-06:00*
G04 #@! TF.ProjectId,C64UserPortMidi,43363455-7365-4725-906f-72744d696469,V1.0 RevA*
G04 #@! TF.SameCoordinates,Original*
G04 #@! TF.FileFunction,Copper,L1,Top*
G04 #@! TF.FilePolarity,Positive*
%FSLAX46Y46*%
G04 Gerber Fmt 4.6, Leading zero omitted, Abs format (unit mm)*
G04 Created by KiCad (PCBNEW 6.0.7+dfsg-1) date 2023-01-03 09:25:57*
%MOMM*%
%LPD*%
G01*
G04 APERTURE LIST*
G04 Aperture macros list*
%AMRoundRect*
0 Rectangle with rounded corners*
0 $1 Rounding radius*
0 $2 $3 $4 $5 $6 $7 $8 $9 X,Y pos of 4 corners*
0 Add a 4 corners polygon primitive as box body*
4,1,4,$2,$3,$4,$5,$6,$7,$8,$9,$2,$3,0*
0 Add four circle primitives for the rounded corners*
1,1,$1+$1,$2,$3*
1,1,$1+$1,$4,$5*
1,1,$1+$1,$6,$7*
1,1,$1+$1,$8,$9*
0 Add four rect primitives between the rounded corners*
20,1,$1+$1,$2,$3,$4,$5,0*
20,1,$1+$1,$4,$5,$6,$7,0*
20,1,$1+$1,$6,$7,$8,$9,0*
20,1,$1+$1,$8,$9,$2,$3,0*%
%AMFreePoly0*
4,1,22,0.500000,-0.750000,0.000000,-0.750000,0.000000,-0.745033,-0.079941,-0.743568,-0.215256,-0.701293,-0.333266,-0.622738,-0.424486,-0.514219,-0.481581,-0.384460,-0.499164,-0.250000,-0.500000,-0.250000,-0.500000,0.250000,-0.499164,0.250000,-0.499963,0.256109,-0.478152,0.396186,-0.417904,0.524511,-0.324060,0.630769,-0.204165,0.706417,-0.067858,0.745374,0.000000,0.744959,0.000000,0.750000,
0.500000,0.750000,0.500000,-0.750000,0.500000,-0.750000,$1*%
%AMFreePoly1*
4,1,20,0.000000,0.744959,0.073905,0.744508,0.209726,0.703889,0.328688,0.626782,0.421226,0.519385,0.479903,0.390333,0.500000,0.250000,0.500000,-0.250000,0.499851,-0.262216,0.476331,-0.402017,0.414519,-0.529596,0.319384,-0.634700,0.198574,-0.708877,0.061801,-0.746166,0.000000,-0.745033,0.000000,-0.750000,-0.500000,-0.750000,-0.500000,0.750000,0.000000,0.750000,0.000000,0.744959,
0.000000,0.744959,$1*%
G04 Aperture macros list end*
G04 #@! TA.AperFunction,ComponentPad*
%ADD10R,1.600000X1.600000*%
G04 #@! TD*
G04 #@! TA.AperFunction,ComponentPad*
%ADD11O,1.600000X1.600000*%
G04 #@! TD*
G04 #@! TA.AperFunction,ComponentPad*
%ADD12C,1.600000*%
G04 #@! TD*
G04 #@! TA.AperFunction,SMDPad,CuDef*
%ADD13RoundRect,0.220000X-0.880000X-4.280000X0.880000X-4.280000X0.880000X4.280000X-0.880000X4.280000X0*%
G04 #@! TD*
G04 #@! TA.AperFunction,ComponentPad*
%ADD14C,2.500000*%
G04 #@! TD*
G04 #@! TA.AperFunction,ComponentPad*
%ADD15R,2.400000X1.600000*%
G04 #@! TD*
G04 #@! TA.AperFunction,ComponentPad*
%ADD16O,2.400000X1.600000*%
G04 #@! TD*
G04 #@! TA.AperFunction,ComponentPad*
%ADD17R,1.700000X1.700000*%
G04 #@! TD*
G04 #@! TA.AperFunction,ComponentPad*
%ADD18O,1.700000X1.700000*%
G04 #@! TD*
G04 #@! TA.AperFunction,ComponentPad*
%ADD19R,1.600000X2.400000*%
G04 #@! TD*
G04 #@! TA.AperFunction,ComponentPad*
%ADD20O,1.600000X2.400000*%
G04 #@! TD*
G04 #@! TA.AperFunction,ComponentPad*
%ADD21R,1.500000X1.050000*%
G04 #@! TD*
G04 #@! TA.AperFunction,ComponentPad*
%ADD22O,1.500000X1.050000*%
G04 #@! TD*
G04 #@! TA.AperFunction,SMDPad,CuDef*
%ADD23FreePoly0,0.000000*%
G04 #@! TD*
G04 #@! TA.AperFunction,SMDPad,CuDef*
%ADD24FreePoly1,0.000000*%
G04 #@! TD*
G04 #@! TA.AperFunction,ComponentPad*
%ADD25C,1.500000*%
G04 #@! TD*
G04 #@! TA.AperFunction,ComponentPad*
%ADD26R,1.800000X1.800000*%
G04 #@! TD*
G04 #@! TA.AperFunction,ComponentPad*
%ADD27C,1.800000*%
G04 #@! TD*
G04 #@! TA.AperFunction,SMDPad,CuDef*
%ADD28FreePoly0,90.000000*%
G04 #@! TD*
G04 #@! TA.AperFunction,SMDPad,CuDef*
%ADD29FreePoly1,90.000000*%
G04 #@! TD*
G04 #@! TA.AperFunction,ViaPad*
%ADD30C,0.800000*%
G04 #@! TD*
G04 #@! TA.AperFunction,Conductor*
%ADD31C,0.350000*%
G04 #@! TD*
G04 #@! TA.AperFunction,Conductor*
%ADD32C,0.750000*%
G04 #@! TD*
G04 #@! TA.AperFunction,Conductor*
%ADD33C,1.000000*%
G04 #@! TD*
G04 #@! TA.AperFunction,Conductor*
%ADD34C,0.500000*%
G04 #@! TD*
G04 APERTURE END LIST*
G36*
X153200000Y-124250000D02*
G01*
X152600000Y-124250000D01*
X152600000Y-123750000D01*
X153200000Y-123750000D01*
X153200000Y-124250000D01*
G37*
D10*
X126290000Y-112600000D03*
D11*
X133910000Y-112600000D03*
D10*
X110600000Y-127400000D03*
D12*
X110600000Y-129400000D03*
D13*
X159850000Y-134000000D03*
X155890000Y-134000000D03*
X151930000Y-134000000D03*
X147970000Y-134000000D03*
X144010000Y-134000000D03*
X140050000Y-134000000D03*
X136090000Y-134000000D03*
X132130000Y-134000000D03*
X128170000Y-134000000D03*
X124210000Y-134000000D03*
X120250000Y-134000000D03*
X116290000Y-134000000D03*
D14*
X115550000Y-100200000D03*
X123050000Y-100200000D03*
X130550000Y-100200000D03*
X118050000Y-102700000D03*
X128050000Y-102700000D03*
X118050000Y-90200000D03*
X128050000Y-90200000D03*
D12*
X126300000Y-109200000D03*
D11*
X133920000Y-109200000D03*
D15*
X114930923Y-116469922D03*
D16*
X114930923Y-119009922D03*
X114930923Y-121549922D03*
X114930923Y-124089922D03*
X122550923Y-124089922D03*
X122550923Y-121549922D03*
X122550923Y-119009922D03*
X122550923Y-116469922D03*
D12*
X116200000Y-109200000D03*
D11*
X123820000Y-109200000D03*
D17*
X159800000Y-122800000D03*
D18*
X157260000Y-122800000D03*
X159800000Y-120260000D03*
X157260000Y-120260000D03*
X159800000Y-117720000D03*
X157260000Y-117720000D03*
D12*
X123810000Y-112600000D03*
D11*
X116190000Y-112600000D03*
D19*
X126600000Y-124100000D03*
D20*
X129140000Y-124100000D03*
X131680000Y-124100000D03*
X134220000Y-124100000D03*
X136760000Y-124100000D03*
X139300000Y-124100000D03*
X141840000Y-124100000D03*
X144380000Y-124100000D03*
X146920000Y-124100000D03*
X149460000Y-124100000D03*
X149460000Y-116480000D03*
X146920000Y-116480000D03*
X144380000Y-116480000D03*
X141840000Y-116480000D03*
X139300000Y-116480000D03*
X136760000Y-116480000D03*
X134220000Y-116480000D03*
X131680000Y-116480000D03*
X129140000Y-116480000D03*
X126600000Y-116480000D03*
D12*
X159910000Y-112600000D03*
D11*
X152290000Y-112600000D03*
D21*
X148760000Y-112370000D03*
D22*
X148760000Y-111100000D03*
X148760000Y-109830000D03*
D23*
X152450000Y-116500000D03*
D24*
X153750000Y-116500000D03*
D10*
X142800000Y-110300000D03*
D12*
X142800000Y-112300000D03*
D10*
X138100000Y-104700000D03*
D12*
X138100000Y-106700000D03*
D14*
X145550000Y-100200000D03*
X153050000Y-100200000D03*
X160550000Y-100200000D03*
X148050000Y-102700000D03*
X158050000Y-102700000D03*
X148050000Y-90200000D03*
X158050000Y-90200000D03*
D12*
X159900000Y-109200000D03*
D11*
X152280000Y-109200000D03*
D25*
X165700000Y-122700000D03*
X110600000Y-123700000D03*
D12*
X135550000Y-93890000D03*
D11*
X135550000Y-101510000D03*
D25*
X165700000Y-119800000D03*
D12*
X140550000Y-93890000D03*
D11*
X140550000Y-101510000D03*
D26*
X138050000Y-91275000D03*
D27*
X138050000Y-88735000D03*
D28*
X152900000Y-124650000D03*
D29*
X152900000Y-123350000D03*
D10*
X165500000Y-127400000D03*
D12*
X165500000Y-129400000D03*
D30*
X120550000Y-126000000D03*
X117200000Y-122900000D03*
X168300000Y-88500000D03*
X107800000Y-88500000D03*
X107800000Y-134000000D03*
X168300000Y-118700000D03*
X120300000Y-122800000D03*
X135600000Y-97700000D03*
X144500000Y-114100000D03*
X155700000Y-112700000D03*
X157800000Y-112700000D03*
X168300000Y-101300000D03*
X150500000Y-112400000D03*
X107800000Y-101300000D03*
X158300000Y-124400000D03*
X168300000Y-134000000D03*
X154700000Y-125600000D03*
X118850000Y-127200000D03*
X123400000Y-126900000D03*
X150800000Y-126400000D03*
X153200000Y-121800000D03*
D31*
X126850000Y-114550000D02*
X128800000Y-112600000D01*
X121930845Y-114550000D02*
X126850000Y-114550000D01*
X128800000Y-112600000D02*
X133910000Y-112600000D01*
X121930845Y-114550000D02*
X114930923Y-121549922D01*
X129690000Y-109200000D02*
X126290000Y-112600000D01*
X124890000Y-114000000D02*
X126290000Y-112600000D01*
X114930923Y-119009922D02*
X119940845Y-114000000D01*
X119940845Y-114000000D02*
X124890000Y-114000000D01*
X133920000Y-109200000D02*
X129690000Y-109200000D01*
D32*
X118800000Y-125500000D02*
X116900000Y-127400000D01*
X139050000Y-114050000D02*
X142800000Y-110300000D01*
D33*
X155890000Y-129110000D02*
X157600000Y-127400000D01*
D32*
X118800000Y-120220845D02*
X118800000Y-125500000D01*
D33*
X155890000Y-134000000D02*
X155890000Y-129110000D01*
D32*
X116900000Y-127400000D02*
X110600000Y-127400000D01*
X122550923Y-116469922D02*
X126589922Y-116469922D01*
D33*
X157600000Y-127400000D02*
X165500000Y-127400000D01*
D32*
X126589922Y-116469922D02*
X126600000Y-116480000D01*
D33*
X155800000Y-129020000D02*
X155800000Y-124260000D01*
D32*
X126795456Y-116480000D02*
X129225456Y-114050000D01*
X129225456Y-114050000D02*
X139050000Y-114050000D01*
D33*
X155800000Y-124260000D02*
X157260000Y-122800000D01*
D32*
X122550923Y-116469922D02*
X118800000Y-120220845D01*
D33*
X155890000Y-129110000D02*
X155800000Y-129020000D01*
D32*
X126600000Y-116480000D02*
X126795456Y-116480000D01*
D31*
X126799922Y-121549922D02*
X129140000Y-123890000D01*
X129140000Y-123890000D02*
X129140000Y-124100000D01*
X122550923Y-121549922D02*
X126799922Y-121549922D01*
X154300000Y-125200000D02*
X154700000Y-125600000D01*
X136921701Y-126000000D02*
X138125000Y-124796701D01*
X138125000Y-124796701D02*
X138125000Y-123213299D01*
X152900000Y-123350000D02*
X153380330Y-123350000D01*
X154300000Y-124269670D02*
X154300000Y-125200000D01*
X126600000Y-124100000D02*
X128500000Y-126000000D01*
X153380330Y-123350000D02*
X154300000Y-124269670D01*
X138125000Y-123213299D02*
X139138299Y-122200000D01*
X151750000Y-122200000D02*
X152900000Y-123350000D01*
X139138299Y-122200000D02*
X151750000Y-122200000D01*
X128500000Y-126000000D02*
X136921701Y-126000000D01*
X132150000Y-131938543D02*
X132150000Y-129050000D01*
X131150000Y-128050000D02*
X119700000Y-128050000D01*
X119700000Y-128050000D02*
X118850000Y-127200000D01*
X132130000Y-134000000D02*
X132130000Y-131958543D01*
X132130000Y-131958543D02*
X132150000Y-131938543D01*
X132150000Y-129050000D02*
X131150000Y-128050000D01*
X139758299Y-119000000D02*
X158540000Y-119000000D01*
X130820000Y-114800000D02*
X137200000Y-114800000D01*
X138100000Y-117341701D02*
X139758299Y-119000000D01*
X138100000Y-115700000D02*
X138100000Y-117341701D01*
X137200000Y-114800000D02*
X138100000Y-115700000D01*
X158540000Y-119000000D02*
X159800000Y-120260000D01*
X129140000Y-116480000D02*
X130820000Y-114800000D01*
X158500000Y-121500000D02*
X159800000Y-122800000D01*
X154000000Y-120810000D02*
X154690000Y-121500000D01*
X131680000Y-116480000D02*
X136010000Y-120810000D01*
X154690000Y-121500000D02*
X158500000Y-121500000D01*
X136010000Y-120810000D02*
X154000000Y-120810000D01*
X138000000Y-120260000D02*
X157260000Y-120260000D01*
X138000000Y-120260000D02*
X134220000Y-116480000D01*
X123400000Y-126900000D02*
X138150000Y-126900000D01*
X139300000Y-125750000D02*
X139300000Y-124100000D01*
X138150000Y-126900000D02*
X139300000Y-125750000D01*
D32*
X125782234Y-104700000D02*
X138100000Y-104700000D01*
X123050000Y-101967766D02*
X125782234Y-104700000D01*
X123050000Y-100200000D02*
X123050000Y-101967766D01*
D34*
X152280000Y-109200000D02*
X149390000Y-109200000D01*
X153750000Y-110670000D02*
X153750000Y-116500000D01*
X149390000Y-109200000D02*
X148760000Y-109830000D01*
X152280000Y-109200000D02*
X153750000Y-110670000D01*
D31*
X151930000Y-125620000D02*
X152900000Y-124650000D01*
X151930000Y-134000000D02*
X151930000Y-125620000D01*
X146680000Y-126400000D02*
X150800000Y-126400000D01*
X144380000Y-124100000D02*
X146680000Y-126400000D01*
X161623289Y-115723289D02*
X165700000Y-119800000D01*
X154175000Y-117625000D02*
X156076711Y-115723289D01*
X149460000Y-116480000D02*
X150605000Y-117625000D01*
X150605000Y-117625000D02*
X154175000Y-117625000D01*
X156076711Y-115723289D02*
X161623289Y-115723289D01*
D34*
X152290000Y-112600000D02*
X152290000Y-116340000D01*
X152900000Y-121500000D02*
X153200000Y-121800000D01*
X131680000Y-123120000D02*
X131680000Y-124100000D01*
X152290000Y-116340000D02*
X152450000Y-116500000D01*
X133300000Y-121500000D02*
X152900000Y-121500000D01*
X133300000Y-121500000D02*
X131680000Y-123120000D01*
G04 #@! TA.AperFunction,Conductor*
G36*
X113145606Y-115400750D02*
G01*
X113205212Y-115439319D01*
X113234505Y-115503991D01*
X113232314Y-115550684D01*
X113231952Y-115552206D01*
X113229178Y-115559606D01*
X113222423Y-115621788D01*
X113222423Y-117318056D01*
X113229178Y-117380238D01*
X113280308Y-117516627D01*
X113367662Y-117633183D01*
X113484218Y-117720537D01*
X113620607Y-117771667D01*
X113631397Y-117772839D01*
X113633529Y-117773725D01*
X113636145Y-117774347D01*
X113636044Y-117774770D01*
X113696958Y-117800077D01*
X113737386Y-117858439D01*
X113739845Y-117929393D01*
X113703552Y-117990412D01*
X113694892Y-117997411D01*
X113691130Y-118000568D01*
X113686623Y-118003724D01*
X113524725Y-118165622D01*
X113521568Y-118170130D01*
X113521566Y-118170133D01*
X113470655Y-118242842D01*
X113393400Y-118353173D01*
X113391077Y-118358155D01*
X113391074Y-118358160D01*
X113298965Y-118555690D01*
X113296639Y-118560679D01*
X113295217Y-118565987D01*
X113295216Y-118565989D01*
X113283033Y-118611457D01*
X113237380Y-118781835D01*
X113217425Y-119009922D01*
X113237380Y-119238009D01*
X113238804Y-119243322D01*
X113238804Y-119243324D01*
X113288363Y-119428277D01*
X113296639Y-119459165D01*
X113298962Y-119464146D01*
X113298962Y-119464147D01*
X113391074Y-119661684D01*
X113391077Y-119661689D01*
X113393400Y-119666671D01*
X113466825Y-119771533D01*
X113504768Y-119825720D01*
X113524725Y-119854222D01*
X113686623Y-120016120D01*
X113691131Y-120019277D01*
X113691134Y-120019279D01*
X113727199Y-120044532D01*
X113874174Y-120147445D01*
X113879156Y-120149768D01*
X113879161Y-120149771D01*
X113913380Y-120165727D01*
X113966665Y-120212644D01*
X113986126Y-120280921D01*
X113965584Y-120348881D01*
X113913380Y-120394117D01*
X113879161Y-120410073D01*
X113879156Y-120410076D01*
X113874174Y-120412399D01*
X113853799Y-120426666D01*
X113691134Y-120540565D01*
X113691131Y-120540567D01*
X113686623Y-120543724D01*
X113524725Y-120705622D01*
X113521568Y-120710130D01*
X113521566Y-120710133D01*
X113481223Y-120767749D01*
X113393400Y-120893173D01*
X113391077Y-120898155D01*
X113391074Y-120898160D01*
X113314289Y-121062828D01*
X113296639Y-121100679D01*
X113295217Y-121105987D01*
X113295216Y-121105989D01*
X113257237Y-121247727D01*
X113237380Y-121321835D01*
X113217425Y-121549922D01*
X113237380Y-121778009D01*
X113238804Y-121783322D01*
X113238804Y-121783324D01*
X113270568Y-121901866D01*
X113296639Y-121999165D01*
X113298962Y-122004146D01*
X113298962Y-122004147D01*
X113391074Y-122201684D01*
X113391077Y-122201689D01*
X113393400Y-122206671D01*
X113436290Y-122267924D01*
X113519655Y-122386981D01*
X113524725Y-122394222D01*
X113686623Y-122556120D01*
X113691131Y-122559277D01*
X113691134Y-122559279D01*
X113700210Y-122565634D01*
X113874174Y-122687445D01*
X113879156Y-122689768D01*
X113879161Y-122689771D01*
X113913380Y-122705727D01*
X113966665Y-122752644D01*
X113986126Y-122820921D01*
X113965584Y-122888881D01*
X113913380Y-122934117D01*
X113879161Y-122950073D01*
X113879156Y-122950076D01*
X113874174Y-122952399D01*
X113816821Y-122992558D01*
X113691134Y-123080565D01*
X113691131Y-123080567D01*
X113686623Y-123083724D01*
X113524725Y-123245622D01*
X113521568Y-123250130D01*
X113521566Y-123250133D01*
X113505390Y-123273235D01*
X113393400Y-123433173D01*
X113391077Y-123438155D01*
X113391074Y-123438160D01*
X113308267Y-123615743D01*
X113296639Y-123640679D01*
X113295217Y-123645987D01*
X113295216Y-123645989D01*
X113242916Y-123841173D01*
X113237380Y-123861835D01*
X113217425Y-124089922D01*
X113237380Y-124318009D01*
X113238804Y-124323322D01*
X113238804Y-124323324D01*
X113288162Y-124507527D01*
X113296639Y-124539165D01*
X113298962Y-124544146D01*
X113298962Y-124544147D01*
X113391074Y-124741684D01*
X113391077Y-124741689D01*
X113393400Y-124746671D01*
X113524725Y-124934222D01*
X113686623Y-125096120D01*
X113691131Y-125099277D01*
X113691134Y-125099279D01*
X113763534Y-125149974D01*
X113874174Y-125227445D01*
X113879156Y-125229768D01*
X113879161Y-125229771D01*
X114061684Y-125314882D01*
X114081680Y-125324206D01*
X114086988Y-125325628D01*
X114086990Y-125325629D01*
X114297521Y-125382041D01*
X114297523Y-125382041D01*
X114302836Y-125383465D01*
X114401043Y-125392057D01*
X114471072Y-125398184D01*
X114471079Y-125398184D01*
X114473796Y-125398422D01*
X115388050Y-125398422D01*
X115390767Y-125398184D01*
X115390774Y-125398184D01*
X115460803Y-125392057D01*
X115559010Y-125383465D01*
X115564323Y-125382041D01*
X115564325Y-125382041D01*
X115774856Y-125325629D01*
X115774858Y-125325628D01*
X115780166Y-125324206D01*
X115800162Y-125314882D01*
X115982685Y-125229771D01*
X115982690Y-125229768D01*
X115987672Y-125227445D01*
X116098312Y-125149974D01*
X116170712Y-125099279D01*
X116170715Y-125099277D01*
X116175223Y-125096120D01*
X116337121Y-124934222D01*
X116468446Y-124746671D01*
X116470769Y-124741689D01*
X116470772Y-124741684D01*
X116562884Y-124544147D01*
X116562884Y-124544146D01*
X116565207Y-124539165D01*
X116573685Y-124507527D01*
X116623042Y-124323324D01*
X116623042Y-124323322D01*
X116624466Y-124318009D01*
X116644421Y-124089922D01*
X116624466Y-123861835D01*
X116618930Y-123841173D01*
X116566630Y-123645989D01*
X116566629Y-123645987D01*
X116565207Y-123640679D01*
X116553579Y-123615743D01*
X116470772Y-123438160D01*
X116470769Y-123438155D01*
X116468446Y-123433173D01*
X116356456Y-123273235D01*
X116340280Y-123250133D01*
X116340278Y-123250130D01*
X116337121Y-123245622D01*
X116175223Y-123083724D01*
X116170715Y-123080567D01*
X116170712Y-123080565D01*
X116045025Y-122992558D01*
X115987672Y-122952399D01*
X115982690Y-122950076D01*
X115982685Y-122950073D01*
X115948466Y-122934117D01*
X115895181Y-122887200D01*
X115875720Y-122818923D01*
X115896262Y-122750963D01*
X115948466Y-122705727D01*
X115982685Y-122689771D01*
X115982690Y-122689768D01*
X115987672Y-122687445D01*
X116161636Y-122565634D01*
X116170712Y-122559279D01*
X116170715Y-122559277D01*
X116175223Y-122556120D01*
X116337121Y-122394222D01*
X116342192Y-122386981D01*
X116425556Y-122267924D01*
X116468446Y-122206671D01*
X116470769Y-122201689D01*
X116470772Y-122201684D01*
X116562884Y-122004147D01*
X116562884Y-122004146D01*
X116565207Y-121999165D01*
X116591279Y-121901866D01*
X116623042Y-121783324D01*
X116623042Y-121783322D01*
X116624466Y-121778009D01*
X116644421Y-121549922D01*
X116624466Y-121321835D01*
X116565207Y-121100679D01*
X116557159Y-121083418D01*
X116533030Y-121031674D01*
X116522369Y-120961482D01*
X116551350Y-120896670D01*
X116558130Y-120889330D01*
X117850308Y-119597152D01*
X117912620Y-119563126D01*
X117983435Y-119568191D01*
X118040271Y-119610738D01*
X118065082Y-119677258D01*
X118051670Y-119743448D01*
X118024787Y-119796208D01*
X118021654Y-119801978D01*
X117991740Y-119853790D01*
X117991738Y-119853795D01*
X117988436Y-119859514D01*
X117986395Y-119865794D01*
X117986392Y-119865802D01*
X117984292Y-119872266D01*
X117976728Y-119890528D01*
X117973637Y-119896594D01*
X117973634Y-119896603D01*
X117970638Y-119902482D01*
X117968929Y-119908860D01*
X117953444Y-119966649D01*
X117951578Y-119972951D01*
X117931046Y-120036143D01*
X117929689Y-120049050D01*
X117929645Y-120049473D01*
X117926042Y-120068916D01*
X117922570Y-120081874D01*
X117922225Y-120088464D01*
X117922224Y-120088468D01*
X117919093Y-120148212D01*
X117918577Y-120154776D01*
X117916500Y-120174539D01*
X117916500Y-120194400D01*
X117916327Y-120200995D01*
X117913235Y-120260000D01*
X117912850Y-120267338D01*
X117913882Y-120273852D01*
X117914949Y-120280589D01*
X117916500Y-120300301D01*
X117916500Y-125081853D01*
X117896498Y-125149974D01*
X117879595Y-125170948D01*
X116570947Y-126479595D01*
X116508635Y-126513621D01*
X116481852Y-126516500D01*
X111999126Y-126516500D01*
X111931005Y-126496498D01*
X111884512Y-126442842D01*
X111881144Y-126434730D01*
X111853767Y-126361703D01*
X111850615Y-126353295D01*
X111763261Y-126236739D01*
X111646705Y-126149385D01*
X111510316Y-126098255D01*
X111448134Y-126091500D01*
X109751866Y-126091500D01*
X109689684Y-126098255D01*
X109553295Y-126149385D01*
X109436739Y-126236739D01*
X109349385Y-126353295D01*
X109298255Y-126489684D01*
X109291500Y-126551866D01*
X109291500Y-128248134D01*
X109298255Y-128310316D01*
X109349385Y-128446705D01*
X109354771Y-128453891D01*
X109431355Y-128556078D01*
X109431358Y-128556081D01*
X109436739Y-128563261D01*
X109443919Y-128568642D01*
X109450270Y-128574993D01*
X109448128Y-128577135D01*
X109481564Y-128621846D01*
X109486594Y-128692664D01*
X109468477Y-128734035D01*
X109468818Y-128734232D01*
X109467048Y-128737298D01*
X109466701Y-128738090D01*
X109466071Y-128738989D01*
X109460586Y-128748489D01*
X109368510Y-128945947D01*
X109364764Y-128956239D01*
X109308375Y-129166688D01*
X109306472Y-129177481D01*
X109287483Y-129394525D01*
X109287483Y-129405475D01*
X109306472Y-129622519D01*
X109308375Y-129633312D01*
X109364764Y-129843761D01*
X109368510Y-129854053D01*
X109460586Y-130051511D01*
X109466069Y-130061006D01*
X109502509Y-130113048D01*
X109512988Y-130121424D01*
X109526434Y-130114356D01*
X110510905Y-129129885D01*
X110573217Y-129095859D01*
X110644032Y-129100924D01*
X110689095Y-129129885D01*
X111674287Y-130115077D01*
X111686062Y-130121507D01*
X111698077Y-130112211D01*
X111733931Y-130061006D01*
X111739414Y-130051511D01*
X111831490Y-129854053D01*
X111835236Y-129843761D01*
X111891625Y-129633312D01*
X111893528Y-129622519D01*
X111912517Y-129405475D01*
X111912517Y-129394525D01*
X111893528Y-129177481D01*
X111891625Y-129166688D01*
X111835236Y-128956239D01*
X111831490Y-128945947D01*
X111739414Y-128748489D01*
X111733929Y-128738989D01*
X111733299Y-128738090D01*
X111733144Y-128737630D01*
X111731182Y-128734232D01*
X111731865Y-128733838D01*
X111710612Y-128670816D01*
X111727898Y-128601956D01*
X111750934Y-128576197D01*
X111749730Y-128574993D01*
X111756081Y-128568642D01*
X111763261Y-128563261D01*
X111768642Y-128556081D01*
X111768645Y-128556078D01*
X111845229Y-128453891D01*
X111850615Y-128446705D01*
X111863858Y-128411379D01*
X111881144Y-128365270D01*
X111923786Y-128308506D01*
X111990348Y-128283806D01*
X111999126Y-128283500D01*
X116820543Y-128283500D01*
X116840255Y-128285051D01*
X116853507Y-128287150D01*
X116860094Y-128286805D01*
X116860098Y-128286805D01*
X116919850Y-128283673D01*
X116926445Y-128283500D01*
X116946306Y-128283500D01*
X116966069Y-128281423D01*
X116972628Y-128280907D01*
X116988427Y-128280079D01*
X117032377Y-128277776D01*
X117032381Y-128277775D01*
X117038971Y-128277430D01*
X117051929Y-128273958D01*
X117071372Y-128270355D01*
X117071795Y-128270311D01*
X117084702Y-128268954D01*
X117147894Y-128248422D01*
X117154196Y-128246556D01*
X117211985Y-128231071D01*
X117218363Y-128229362D01*
X117224242Y-128226366D01*
X117224251Y-128226363D01*
X117230317Y-128223272D01*
X117248579Y-128215708D01*
X117255043Y-128213608D01*
X117255051Y-128213605D01*
X117261331Y-128211564D01*
X117267050Y-128208262D01*
X117267055Y-128208260D01*
X117318867Y-128178346D01*
X117324637Y-128175213D01*
X117383839Y-128145047D01*
X117394259Y-128136609D01*
X117410552Y-128125411D01*
X117410903Y-128125209D01*
X117422169Y-128118704D01*
X117427075Y-128114287D01*
X117427080Y-128114283D01*
X117471538Y-128074253D01*
X117476554Y-128069969D01*
X117489409Y-128059559D01*
X117489412Y-128059556D01*
X117491986Y-128057472D01*
X117506031Y-128043427D01*
X117510816Y-128038886D01*
X117555274Y-127998856D01*
X117555275Y-127998855D01*
X117560185Y-127994434D01*
X117568075Y-127983574D01*
X117580912Y-127968546D01*
X117885610Y-127663848D01*
X117947922Y-127629822D01*
X118018737Y-127634887D01*
X118075573Y-127677434D01*
X118083823Y-127689942D01*
X118110960Y-127736944D01*
X118238747Y-127878866D01*
X118393248Y-127991118D01*
X118399276Y-127993802D01*
X118399278Y-127993803D01*
X118561681Y-128066109D01*
X118567712Y-128068794D01*
X118685487Y-128093828D01*
X118748057Y-128107128D01*
X118748060Y-128107128D01*
X118752782Y-128108132D01*
X118754513Y-128108500D01*
X118754446Y-128108817D01*
X118816781Y-128134462D01*
X118827050Y-128143665D01*
X119196844Y-128513459D01*
X119202698Y-128519724D01*
X119239290Y-128561670D01*
X119289652Y-128597066D01*
X119294912Y-128600972D01*
X119343329Y-128638935D01*
X119350254Y-128642062D01*
X119354582Y-128644683D01*
X119363983Y-128650046D01*
X119368425Y-128652428D01*
X119374639Y-128656795D01*
X119381714Y-128659554D01*
X119381717Y-128659555D01*
X119431956Y-128679142D01*
X119438037Y-128681698D01*
X119494105Y-128707014D01*
X119501577Y-128708399D01*
X119506378Y-128709903D01*
X119516818Y-128712878D01*
X119521698Y-128714131D01*
X119528772Y-128716889D01*
X119536303Y-128717881D01*
X119536305Y-128717881D01*
X119589777Y-128724921D01*
X119596290Y-128725953D01*
X119649299Y-128735777D01*
X119649301Y-128735777D01*
X119656768Y-128737161D01*
X119664349Y-128736724D01*
X119664350Y-128736724D01*
X119716643Y-128733709D01*
X119723895Y-128733500D01*
X130814695Y-128733500D01*
X130882816Y-128753502D01*
X130903790Y-128770405D01*
X130982966Y-128849581D01*
X131016992Y-128911893D01*
X131011927Y-128982708D01*
X130969380Y-129039544D01*
X130947325Y-129052775D01*
X130945803Y-129053488D01*
X130938867Y-129055802D01*
X130932647Y-129059651D01*
X130932645Y-129059652D01*
X130893579Y-129083827D01*
X130794414Y-129145193D01*
X130674399Y-129265417D01*
X130670559Y-129271647D01*
X130670558Y-129271648D01*
X130589685Y-129402849D01*
X130585260Y-129410027D01*
X130531780Y-129571264D01*
X130521500Y-129671599D01*
X130521500Y-129674816D01*
X130521501Y-134365500D01*
X130501499Y-134433621D01*
X130447843Y-134480114D01*
X130395501Y-134491500D01*
X129904500Y-134491500D01*
X129836379Y-134471498D01*
X129789886Y-134417842D01*
X129778500Y-134365500D01*
X129778499Y-129674867D01*
X129778499Y-129671600D01*
X129767959Y-129570011D01*
X129714198Y-129408867D01*
X129624807Y-129264414D01*
X129504583Y-129144399D01*
X129425837Y-129095859D01*
X129366203Y-129059100D01*
X129366201Y-129059099D01*
X129359973Y-129055260D01*
X129198736Y-129001780D01*
X129191900Y-129001080D01*
X129191897Y-129001079D01*
X129131351Y-128994876D01*
X129098401Y-128991500D01*
X128177160Y-128991500D01*
X127241600Y-128991501D01*
X127238356Y-128991838D01*
X127238348Y-128991838D01*
X127193929Y-128996447D01*
X127140011Y-129002041D01*
X126978867Y-129055802D01*
X126834414Y-129145193D01*
X126714399Y-129265417D01*
X126710559Y-129271647D01*
X126710558Y-129271648D01*
X126629685Y-129402849D01*
X126625260Y-129410027D01*
X126571780Y-129571264D01*
X126561500Y-129671599D01*
X126561500Y-129674816D01*
X126561501Y-134365500D01*
X126541499Y-134433621D01*
X126487843Y-134480114D01*
X126435501Y-134491500D01*
X125944500Y-134491500D01*
X125876379Y-134471498D01*
X125829886Y-134417842D01*
X125818500Y-134365500D01*
X125818499Y-129674867D01*
X125818499Y-129671600D01*
X125807959Y-129570011D01*
X125754198Y-129408867D01*
X125664807Y-129264414D01*
X125544583Y-129144399D01*
X125465837Y-129095859D01*
X125406203Y-129059100D01*
X125406201Y-129059099D01*
X125399973Y-129055260D01*
X125238736Y-129001780D01*
X125231900Y-129001080D01*
X125231897Y-129001079D01*
X125171351Y-128994876D01*
X125138401Y-128991500D01*
X124217160Y-128991500D01*
X123281600Y-128991501D01*
X123278356Y-128991838D01*
X123278348Y-128991838D01*
X123233929Y-128996447D01*
X123180011Y-129002041D01*
X123018867Y-129055802D01*
X122874414Y-129145193D01*
X122754399Y-129265417D01*
X122750559Y-129271647D01*
X122750558Y-129271648D01*
X122669685Y-129402849D01*
X122665260Y-129410027D01*
X122611780Y-129571264D01*
X122601500Y-129671599D01*
X122601500Y-129674816D01*
X122601501Y-134365500D01*
X122581499Y-134433621D01*
X122527843Y-134480114D01*
X122475501Y-134491500D01*
X121984500Y-134491500D01*
X121916379Y-134471498D01*
X121869886Y-134417842D01*
X121858500Y-134365500D01*
X121858499Y-129674867D01*
X121858499Y-129671600D01*
X121847959Y-129570011D01*
X121794198Y-129408867D01*
X121704807Y-129264414D01*
X121584583Y-129144399D01*
X121505837Y-129095859D01*
X121446203Y-129059100D01*
X121446201Y-129059099D01*
X121439973Y-129055260D01*
X121278736Y-129001780D01*
X121271900Y-129001080D01*
X121271897Y-129001079D01*
X121211351Y-128994876D01*
X121178401Y-128991500D01*
X120257160Y-128991500D01*
X119321600Y-128991501D01*
X119318356Y-128991838D01*
X119318348Y-128991838D01*
X119273929Y-128996447D01*
X119220011Y-129002041D01*
X119058867Y-129055802D01*
X118914414Y-129145193D01*
X118794399Y-129265417D01*
X118790559Y-129271647D01*
X118790558Y-129271648D01*
X118709685Y-129402849D01*
X118705260Y-129410027D01*
X118651780Y-129571264D01*
X118641500Y-129671599D01*
X118641500Y-129674816D01*
X118641501Y-134365500D01*
X118621499Y-134433621D01*
X118567843Y-134480114D01*
X118515501Y-134491500D01*
X118024000Y-134491500D01*
X117955879Y-134471498D01*
X117909386Y-134417842D01*
X117898000Y-134365500D01*
X117898000Y-134272115D01*
X117893525Y-134256876D01*
X117892135Y-134255671D01*
X117884452Y-134254000D01*
X114700115Y-134254000D01*
X114684876Y-134258475D01*
X114683671Y-134259865D01*
X114682000Y-134267548D01*
X114682000Y-134365500D01*
X114661998Y-134433621D01*
X114608342Y-134480114D01*
X114556000Y-134491500D01*
X107434500Y-134491500D01*
X107366379Y-134471498D01*
X107319886Y-134417842D01*
X107308500Y-134365500D01*
X107308500Y-133727885D01*
X114682000Y-133727885D01*
X114686475Y-133743124D01*
X114687865Y-133744329D01*
X114695548Y-133746000D01*
X116017885Y-133746000D01*
X116033124Y-133741525D01*
X116034329Y-133740135D01*
X116036000Y-133732452D01*
X116036000Y-133727885D01*
X116544000Y-133727885D01*
X116548475Y-133743124D01*
X116549865Y-133744329D01*
X116557548Y-133746000D01*
X117879885Y-133746000D01*
X117895124Y-133741525D01*
X117896329Y-133740135D01*
X117898000Y-133732452D01*
X117898000Y-129674897D01*
X117897663Y-129668378D01*
X117888178Y-129576970D01*
X117885286Y-129563576D01*
X117836060Y-129416028D01*
X117829886Y-129402849D01*
X117748267Y-129270954D01*
X117739231Y-129259553D01*
X117629451Y-129149964D01*
X117618040Y-129140952D01*
X117485991Y-129059556D01*
X117472814Y-129053412D01*
X117325162Y-129004438D01*
X117311795Y-129001572D01*
X117221568Y-128992328D01*
X117215153Y-128992000D01*
X116562115Y-128992000D01*
X116546876Y-128996475D01*
X116545671Y-128997865D01*
X116544000Y-129005548D01*
X116544000Y-133727885D01*
X116036000Y-133727885D01*
X116036000Y-129010115D01*
X116031525Y-128994876D01*
X116030135Y-128993671D01*
X116022452Y-128992000D01*
X115364897Y-128992000D01*
X115358378Y-128992337D01*
X115266970Y-129001822D01*
X115253576Y-129004714D01*
X115106028Y-129053940D01*
X115092849Y-129060114D01*
X114960954Y-129141733D01*
X114949553Y-129150769D01*
X114839964Y-129260549D01*
X114830952Y-129271960D01*
X114749556Y-129404009D01*
X114743412Y-129417186D01*
X114694438Y-129564838D01*
X114691572Y-129578205D01*
X114682328Y-129668432D01*
X114682000Y-129674847D01*
X114682000Y-133727885D01*
X107308500Y-133727885D01*
X107308500Y-130486062D01*
X109878493Y-130486062D01*
X109887789Y-130498077D01*
X109938994Y-130533931D01*
X109948489Y-130539414D01*
X110145947Y-130631490D01*
X110156239Y-130635236D01*
X110366688Y-130691625D01*
X110377481Y-130693528D01*
X110594525Y-130712517D01*
X110605475Y-130712517D01*
X110822519Y-130693528D01*
X110833312Y-130691625D01*
X111043761Y-130635236D01*
X111054053Y-130631490D01*
X111251511Y-130539414D01*
X111261006Y-130533931D01*
X111313048Y-130497491D01*
X111321424Y-130487012D01*
X111314356Y-130473566D01*
X110612812Y-129772022D01*
X110598868Y-129764408D01*
X110597035Y-129764539D01*
X110590420Y-129768790D01*
X109884923Y-130474287D01*
X109878493Y-130486062D01*
X107308500Y-130486062D01*
X107308500Y-123700000D01*
X109336693Y-123700000D01*
X109355885Y-123919371D01*
X109412880Y-124132076D01*
X109440721Y-124191782D01*
X109503618Y-124326666D01*
X109503621Y-124326671D01*
X109505944Y-124331653D01*
X109509100Y-124336160D01*
X109509101Y-124336162D01*
X109522762Y-124355671D01*
X109632251Y-124512038D01*
X109787962Y-124667749D01*
X109792471Y-124670906D01*
X109792473Y-124670908D01*
X109862391Y-124719865D01*
X109968346Y-124794056D01*
X110167924Y-124887120D01*
X110380629Y-124944115D01*
X110600000Y-124963307D01*
X110819371Y-124944115D01*
X111032076Y-124887120D01*
X111231654Y-124794056D01*
X111337609Y-124719865D01*
X111407527Y-124670908D01*
X111407529Y-124670906D01*
X111412038Y-124667749D01*
X111567749Y-124512038D01*
X111677239Y-124355671D01*
X111690899Y-124336162D01*
X111690900Y-124336160D01*
X111694056Y-124331653D01*
X111696379Y-124326671D01*
X111696382Y-124326666D01*
X111759279Y-124191782D01*
X111787120Y-124132076D01*
X111844115Y-123919371D01*
X111863307Y-123700000D01*
X111844115Y-123480629D01*
X111787120Y-123267924D01*
X111742717Y-123172701D01*
X111696382Y-123073334D01*
X111696379Y-123073329D01*
X111694056Y-123068347D01*
X111690137Y-123062750D01*
X111570908Y-122892473D01*
X111570906Y-122892470D01*
X111567749Y-122887962D01*
X111412038Y-122732251D01*
X111384814Y-122713188D01*
X111332759Y-122676739D01*
X111231654Y-122605944D01*
X111032076Y-122512880D01*
X110819371Y-122455885D01*
X110600000Y-122436693D01*
X110380629Y-122455885D01*
X110167924Y-122512880D01*
X110075195Y-122556120D01*
X109973334Y-122603618D01*
X109973329Y-122603621D01*
X109968347Y-122605944D01*
X109963840Y-122609100D01*
X109963838Y-122609101D01*
X109792473Y-122729092D01*
X109792470Y-122729094D01*
X109787962Y-122732251D01*
X109632251Y-122887962D01*
X109629094Y-122892470D01*
X109629092Y-122892473D01*
X109509863Y-123062750D01*
X109505944Y-123068347D01*
X109503621Y-123073329D01*
X109503618Y-123073334D01*
X109457283Y-123172701D01*
X109412880Y-123267924D01*
X109355885Y-123480629D01*
X109336693Y-123700000D01*
X107308500Y-123700000D01*
X107308500Y-118363460D01*
X107328502Y-118295339D01*
X107382158Y-118248846D01*
X107421615Y-118238121D01*
X107923029Y-118186574D01*
X107923030Y-118186574D01*
X107925188Y-118186352D01*
X107927311Y-118185986D01*
X107927318Y-118185985D01*
X108139418Y-118149415D01*
X108481222Y-118090482D01*
X108483321Y-118089971D01*
X108483333Y-118089968D01*
X109027308Y-117957405D01*
X109027316Y-117957403D01*
X109029416Y-117956891D01*
X109501054Y-117807200D01*
X109565159Y-117786854D01*
X109565163Y-117786853D01*
X109567216Y-117786201D01*
X110092114Y-117579208D01*
X110121443Y-117565260D01*
X110241931Y-117507958D01*
X110601663Y-117336877D01*
X110603538Y-117335823D01*
X110603551Y-117335816D01*
X111091619Y-117061389D01*
X111091634Y-117061380D01*
X111093487Y-117060338D01*
X111305166Y-116921498D01*
X111563477Y-116752072D01*
X111563488Y-116752064D01*
X111565292Y-116750881D01*
X112014880Y-116409948D01*
X112440153Y-116039129D01*
X112839129Y-115640153D01*
X112903421Y-115566420D01*
X113014764Y-115438727D01*
X113074609Y-115400529D01*
X113145606Y-115400750D01*
G37*
G04 #@! TD.AperFunction*
G04 #@! TA.AperFunction,Conductor*
G36*
X136705022Y-88028502D02*
G01*
X136751515Y-88082158D01*
X136761619Y-88152432D01*
X136751188Y-88187551D01*
X136725778Y-88242291D01*
X136725774Y-88242302D01*
X136723602Y-88246981D01*
X136661707Y-88470169D01*
X136637095Y-88700469D01*
X136637392Y-88705622D01*
X136637392Y-88705625D01*
X136642890Y-88800976D01*
X136650427Y-88931697D01*
X136651564Y-88936743D01*
X136651565Y-88936749D01*
X136683741Y-89079523D01*
X136701346Y-89157642D01*
X136703288Y-89162424D01*
X136703289Y-89162428D01*
X136786540Y-89367450D01*
X136788484Y-89372237D01*
X136909501Y-89569719D01*
X136912882Y-89573622D01*
X137021304Y-89698788D01*
X137050786Y-89763373D01*
X137040671Y-89833646D01*
X136994170Y-89887294D01*
X136970296Y-89899267D01*
X136914515Y-89920179D01*
X136903295Y-89924385D01*
X136786739Y-90011739D01*
X136699385Y-90128295D01*
X136648255Y-90264684D01*
X136641500Y-90326866D01*
X136641500Y-92223134D01*
X136648255Y-92285316D01*
X136699385Y-92421705D01*
X136786739Y-92538261D01*
X136903295Y-92625615D01*
X137039684Y-92676745D01*
X137101866Y-92683500D01*
X138998134Y-92683500D01*
X139060316Y-92676745D01*
X139196705Y-92625615D01*
X139313261Y-92538261D01*
X139400615Y-92421705D01*
X139451745Y-92285316D01*
X139458500Y-92223134D01*
X139458500Y-90326866D01*
X139451745Y-90264684D01*
X139410191Y-90153839D01*
X146287173Y-90153839D01*
X146299713Y-90414908D01*
X146350704Y-90671256D01*
X146439026Y-90917252D01*
X146441242Y-90921376D01*
X146505753Y-91041437D01*
X146562737Y-91147491D01*
X146565532Y-91151234D01*
X146565534Y-91151237D01*
X146716330Y-91353177D01*
X146716335Y-91353183D01*
X146719122Y-91356915D01*
X146722431Y-91360195D01*
X146722436Y-91360201D01*
X146901426Y-91537635D01*
X146904743Y-91540923D01*
X146908505Y-91543681D01*
X146908508Y-91543684D01*
X147111750Y-91692707D01*
X147115524Y-91695474D01*
X147119667Y-91697654D01*
X147119669Y-91697655D01*
X147342684Y-91814989D01*
X147342689Y-91814991D01*
X147346834Y-91817172D01*
X147593590Y-91903344D01*
X147598183Y-91904216D01*
X147845785Y-91951224D01*
X147845788Y-91951224D01*
X147850374Y-91952095D01*
X147980958Y-91957226D01*
X148106875Y-91962174D01*
X148106881Y-91962174D01*
X148111543Y-91962357D01*
X148190977Y-91953657D01*
X148366707Y-91934412D01*
X148366712Y-91934411D01*
X148371360Y-91933902D01*
X148484116Y-91904216D01*
X148619594Y-91868548D01*
X148619596Y-91868547D01*
X148624117Y-91867357D01*
X148864262Y-91764182D01*
X149086519Y-91626646D01*
X149090082Y-91623629D01*
X149090087Y-91623626D01*
X149282439Y-91460787D01*
X149282440Y-91460786D01*
X149286005Y-91457768D01*
X149377729Y-91353177D01*
X149455257Y-91264774D01*
X149455261Y-91264769D01*
X149458339Y-91261259D01*
X149599733Y-91041437D01*
X149707083Y-90803129D01*
X149778030Y-90551572D01*
X149794832Y-90419496D01*
X149810616Y-90295421D01*
X149810616Y-90295417D01*
X149811014Y-90292291D01*
X149813431Y-90200000D01*
X149810001Y-90153839D01*
X156287173Y-90153839D01*
X156299713Y-90414908D01*
X156350704Y-90671256D01*
X156439026Y-90917252D01*
X156441242Y-90921376D01*
X156505753Y-91041437D01*
X156562737Y-91147491D01*
X156565532Y-91151234D01*
X156565534Y-91151237D01*
X156716330Y-91353177D01*
X156716335Y-91353183D01*
X156719122Y-91356915D01*
X156722431Y-91360195D01*
X156722436Y-91360201D01*
X156901426Y-91537635D01*
X156904743Y-91540923D01*
X156908505Y-91543681D01*
X156908508Y-91543684D01*
X157111750Y-91692707D01*
X157115524Y-91695474D01*
X157119667Y-91697654D01*
X157119669Y-91697655D01*
X157342684Y-91814989D01*
X157342689Y-91814991D01*
X157346834Y-91817172D01*
X157593590Y-91903344D01*
X157598183Y-91904216D01*
X157845785Y-91951224D01*
X157845788Y-91951224D01*
X157850374Y-91952095D01*
X157980958Y-91957226D01*
X158106875Y-91962174D01*
X158106881Y-91962174D01*
X158111543Y-91962357D01*
X158190977Y-91953657D01*
X158366707Y-91934412D01*
X158366712Y-91934411D01*
X158371360Y-91933902D01*
X158484116Y-91904216D01*
X158619594Y-91868548D01*
X158619596Y-91868547D01*
X158624117Y-91867357D01*
X158864262Y-91764182D01*
X159086519Y-91626646D01*
X159090082Y-91623629D01*
X159090087Y-91623626D01*
X159282439Y-91460787D01*
X159282440Y-91460786D01*
X159286005Y-91457768D01*
X159377729Y-91353177D01*
X159455257Y-91264774D01*
X159455261Y-91264769D01*
X159458339Y-91261259D01*
X159599733Y-91041437D01*
X159707083Y-90803129D01*
X159778030Y-90551572D01*
X159794832Y-90419496D01*
X159810616Y-90295421D01*
X159810616Y-90295417D01*
X159811014Y-90292291D01*
X159813431Y-90200000D01*
X159794061Y-89939348D01*
X159790676Y-89924385D01*
X159737408Y-89688980D01*
X159736377Y-89684423D01*
X159723382Y-89651005D01*
X159643340Y-89445176D01*
X159643339Y-89445173D01*
X159641647Y-89440823D01*
X159511951Y-89213902D01*
X159350138Y-89008643D01*
X159159763Y-88829557D01*
X158981117Y-88705625D01*
X158948851Y-88683241D01*
X158948848Y-88683239D01*
X158945009Y-88680576D01*
X158940816Y-88678508D01*
X158714781Y-88567040D01*
X158714778Y-88567039D01*
X158710593Y-88564975D01*
X158664449Y-88550204D01*
X158466123Y-88486720D01*
X158461665Y-88485293D01*
X158203693Y-88443279D01*
X158089942Y-88441790D01*
X157947022Y-88439919D01*
X157947019Y-88439919D01*
X157942345Y-88439858D01*
X157683362Y-88475104D01*
X157432433Y-88548243D01*
X157428180Y-88550203D01*
X157428179Y-88550204D01*
X157391659Y-88567040D01*
X157195072Y-88657668D01*
X157156067Y-88683241D01*
X156980404Y-88798410D01*
X156980399Y-88798414D01*
X156976491Y-88800976D01*
X156781494Y-88975018D01*
X156614363Y-89175970D01*
X156611934Y-89179973D01*
X156566237Y-89255280D01*
X156478771Y-89399419D01*
X156377697Y-89640455D01*
X156313359Y-89893783D01*
X156312891Y-89898434D01*
X156312890Y-89898438D01*
X156309735Y-89929771D01*
X156287173Y-90153839D01*
X149810001Y-90153839D01*
X149794061Y-89939348D01*
X149790676Y-89924385D01*
X149737408Y-89688980D01*
X149736377Y-89684423D01*
X149723382Y-89651005D01*
X149643340Y-89445176D01*
X149643339Y-89445173D01*
X149641647Y-89440823D01*
X149511951Y-89213902D01*
X149350138Y-89008643D01*
X149159763Y-88829557D01*
X148981117Y-88705625D01*
X148948851Y-88683241D01*
X148948848Y-88683239D01*
X148945009Y-88680576D01*
X148940816Y-88678508D01*
X148714781Y-88567040D01*
X148714778Y-88567039D01*
X148710593Y-88564975D01*
X148664449Y-88550204D01*
X148466123Y-88486720D01*
X148461665Y-88485293D01*
X148203693Y-88443279D01*
X148089942Y-88441790D01*
X147947022Y-88439919D01*
X147947019Y-88439919D01*
X147942345Y-88439858D01*
X147683362Y-88475104D01*
X147432433Y-88548243D01*
X147428180Y-88550203D01*
X147428179Y-88550204D01*
X147391659Y-88567040D01*
X147195072Y-88657668D01*
X147156067Y-88683241D01*
X146980404Y-88798410D01*
X146980399Y-88798414D01*
X146976491Y-88800976D01*
X146781494Y-88975018D01*
X146614363Y-89175970D01*
X146611934Y-89179973D01*
X146566237Y-89255280D01*
X146478771Y-89399419D01*
X146377697Y-89640455D01*
X146313359Y-89893783D01*
X146312891Y-89898434D01*
X146312890Y-89898438D01*
X146309735Y-89929771D01*
X146287173Y-90153839D01*
X139410191Y-90153839D01*
X139400615Y-90128295D01*
X139313261Y-90011739D01*
X139196705Y-89924385D01*
X139188296Y-89921233D01*
X139188295Y-89921232D01*
X139129804Y-89899305D01*
X139073039Y-89856664D01*
X139048339Y-89790103D01*
X139063546Y-89720754D01*
X139085093Y-89692073D01*
X139122636Y-89654660D01*
X139122640Y-89654655D01*
X139126303Y-89651005D01*
X139130633Y-89644980D01*
X139187875Y-89565318D01*
X139261458Y-89462917D01*
X139272378Y-89440823D01*
X139361784Y-89259922D01*
X139361785Y-89259920D01*
X139364078Y-89255280D01*
X139431408Y-89033671D01*
X139461640Y-88804041D01*
X139463327Y-88735000D01*
X139449518Y-88567040D01*
X139444773Y-88509318D01*
X139444772Y-88509312D01*
X139444349Y-88504167D01*
X139387925Y-88279533D01*
X139385869Y-88274803D01*
X139385866Y-88274796D01*
X139346709Y-88184742D01*
X139337889Y-88114295D01*
X139368556Y-88050264D01*
X139428973Y-88012976D01*
X139462259Y-88008500D01*
X168665500Y-88008500D01*
X168733621Y-88028502D01*
X168780114Y-88082158D01*
X168791500Y-88134500D01*
X168791500Y-101636540D01*
X168771498Y-101704661D01*
X168717842Y-101751154D01*
X168678385Y-101761879D01*
X168176971Y-101813426D01*
X168174812Y-101813648D01*
X168172689Y-101814014D01*
X168172682Y-101814015D01*
X167967683Y-101849361D01*
X167618778Y-101909518D01*
X167616679Y-101910029D01*
X167616667Y-101910032D01*
X167072692Y-102042595D01*
X167072684Y-102042597D01*
X167070584Y-102043109D01*
X166763872Y-102140455D01*
X166667611Y-102171007D01*
X166532784Y-102213799D01*
X166007886Y-102420792D01*
X166005944Y-102421715D01*
X166005943Y-102421716D01*
X165925925Y-102459771D01*
X165498337Y-102663123D01*
X165496462Y-102664177D01*
X165496449Y-102664184D01*
X165008381Y-102938611D01*
X165008366Y-102938620D01*
X165006513Y-102939662D01*
X165004724Y-102940835D01*
X165004723Y-102940836D01*
X164536523Y-103247928D01*
X164536512Y-103247936D01*
X164534708Y-103249119D01*
X164085120Y-103590052D01*
X163659847Y-103960871D01*
X163260871Y-104359847D01*
X162890052Y-104785120D01*
X162549119Y-105234708D01*
X162547936Y-105236512D01*
X162547928Y-105236523D01*
X162272034Y-105657158D01*
X162239662Y-105706513D01*
X162238620Y-105708366D01*
X162238611Y-105708381D01*
X161964184Y-106196449D01*
X161964177Y-106196462D01*
X161963123Y-106198337D01*
X161720792Y-106707886D01*
X161513799Y-107232784D01*
X161343109Y-107770584D01*
X161342597Y-107772684D01*
X161342595Y-107772692D01*
X161239974Y-108193802D01*
X161209518Y-108318778D01*
X161209152Y-108320899D01*
X161209150Y-108320910D01*
X161196442Y-108394616D01*
X161165156Y-108458348D01*
X161104381Y-108495048D01*
X161033412Y-108493064D01*
X160974781Y-108453027D01*
X160969061Y-108445477D01*
X160909361Y-108360216D01*
X160909355Y-108360209D01*
X160906198Y-108355700D01*
X160744300Y-108193802D01*
X160739792Y-108190645D01*
X160739789Y-108190643D01*
X160661611Y-108135902D01*
X160556749Y-108062477D01*
X160551767Y-108060154D01*
X160551762Y-108060151D01*
X160354225Y-107968039D01*
X160354224Y-107968039D01*
X160349243Y-107965716D01*
X160343935Y-107964294D01*
X160343933Y-107964293D01*
X160133402Y-107907881D01*
X160133400Y-107907881D01*
X160128087Y-107906457D01*
X159900000Y-107886502D01*
X159671913Y-107906457D01*
X159666600Y-107907881D01*
X159666598Y-107907881D01*
X159456067Y-107964293D01*
X159456065Y-107964294D01*
X159450757Y-107965716D01*
X159445776Y-107968039D01*
X159445775Y-107968039D01*
X159248238Y-108060151D01*
X159248233Y-108060154D01*
X159243251Y-108062477D01*
X159138389Y-108135902D01*
X159060211Y-108190643D01*
X159060208Y-108190645D01*
X159055700Y-108193802D01*
X158893802Y-108355700D01*
X158890645Y-108360208D01*
X158890643Y-108360211D01*
X158860064Y-108403883D01*
X158762477Y-108543251D01*
X158760154Y-108548233D01*
X158760151Y-108548238D01*
X158702628Y-108671598D01*
X158665716Y-108750757D01*
X158664294Y-108756065D01*
X158664293Y-108756067D01*
X158614972Y-108940135D01*
X158606457Y-108971913D01*
X158586502Y-109200000D01*
X158606457Y-109428087D01*
X158607881Y-109433400D01*
X158607881Y-109433402D01*
X158612829Y-109451866D01*
X158665716Y-109649243D01*
X158668039Y-109654224D01*
X158668039Y-109654225D01*
X158760151Y-109851762D01*
X158760154Y-109851767D01*
X158762477Y-109856749D01*
X158893802Y-110044300D01*
X159055700Y-110206198D01*
X159060208Y-110209355D01*
X159060211Y-110209357D01*
X159093170Y-110232435D01*
X159243251Y-110337523D01*
X159248233Y-110339846D01*
X159248238Y-110339849D01*
X159427920Y-110423635D01*
X159450757Y-110434284D01*
X159456065Y-110435706D01*
X159456067Y-110435707D01*
X159666598Y-110492119D01*
X159666600Y-110492119D01*
X159671913Y-110493543D01*
X159900000Y-110513498D01*
X160128087Y-110493543D01*
X160133400Y-110492119D01*
X160133402Y-110492119D01*
X160343933Y-110435707D01*
X160343935Y-110435706D01*
X160349243Y-110434284D01*
X160372080Y-110423635D01*
X160551762Y-110339849D01*
X160551767Y-110339846D01*
X160556749Y-110337523D01*
X160706830Y-110232435D01*
X160739789Y-110209357D01*
X160739792Y-110209355D01*
X160744300Y-110206198D01*
X160828718Y-110121780D01*
X160891030Y-110087754D01*
X160961845Y-110092819D01*
X161018681Y-110135366D01*
X161043740Y-110206573D01*
X161048213Y-110337523D01*
X161054909Y-110533512D01*
X161055947Y-110563909D01*
X161113648Y-111125188D01*
X161114014Y-111127311D01*
X161114015Y-111127318D01*
X161129601Y-111217715D01*
X161209518Y-111681222D01*
X161210029Y-111683321D01*
X161210032Y-111683333D01*
X161235326Y-111787126D01*
X161232022Y-111858045D01*
X161190899Y-111915920D01*
X161125016Y-111942375D01*
X161055288Y-111929011D01*
X161009696Y-111889229D01*
X160919357Y-111760211D01*
X160919355Y-111760208D01*
X160916198Y-111755700D01*
X160754300Y-111593802D01*
X160749792Y-111590645D01*
X160749789Y-111590643D01*
X160652009Y-111522177D01*
X160566749Y-111462477D01*
X160561767Y-111460154D01*
X160561762Y-111460151D01*
X160364225Y-111368039D01*
X160364224Y-111368039D01*
X160359243Y-111365716D01*
X160353935Y-111364294D01*
X160353933Y-111364293D01*
X160143402Y-111307881D01*
X160143400Y-111307881D01*
X160138087Y-111306457D01*
X159910000Y-111286502D01*
X159681913Y-111306457D01*
X159676600Y-111307881D01*
X159676598Y-111307881D01*
X159466067Y-111364293D01*
X159466065Y-111364294D01*
X159460757Y-111365716D01*
X159455776Y-111368039D01*
X159455775Y-111368039D01*
X159258238Y-111460151D01*
X159258233Y-111460154D01*
X159253251Y-111462477D01*
X159167991Y-111522177D01*
X159070211Y-111590643D01*
X159070208Y-111590645D01*
X159065700Y-111593802D01*
X158903802Y-111755700D01*
X158772477Y-111943251D01*
X158770154Y-111948233D01*
X158770151Y-111948238D01*
X158690373Y-112119324D01*
X158675716Y-112150757D01*
X158616457Y-112371913D01*
X158596502Y-112600000D01*
X158616457Y-112828087D01*
X158617881Y-112833400D01*
X158617881Y-112833402D01*
X158666018Y-113013048D01*
X158675716Y-113049243D01*
X158678039Y-113054224D01*
X158678039Y-113054225D01*
X158770151Y-113251762D01*
X158770154Y-113251767D01*
X158772477Y-113256749D01*
X158812374Y-113313728D01*
X158900381Y-113439414D01*
X158903802Y-113444300D01*
X159065700Y-113606198D01*
X159070208Y-113609355D01*
X159070211Y-113609357D01*
X159074724Y-113612517D01*
X159253251Y-113737523D01*
X159258233Y-113739846D01*
X159258238Y-113739849D01*
X159394849Y-113803551D01*
X159460757Y-113834284D01*
X159466065Y-113835706D01*
X159466067Y-113835707D01*
X159676598Y-113892119D01*
X159676600Y-113892119D01*
X159681913Y-113893543D01*
X159910000Y-113913498D01*
X160138087Y-113893543D01*
X160143400Y-113892119D01*
X160143402Y-113892119D01*
X160353933Y-113835707D01*
X160353935Y-113835706D01*
X160359243Y-113834284D01*
X160425151Y-113803551D01*
X160561762Y-113739849D01*
X160561767Y-113739846D01*
X160566749Y-113737523D01*
X160745276Y-113612517D01*
X160749789Y-113609357D01*
X160749792Y-113609355D01*
X160754300Y-113606198D01*
X160916198Y-113444300D01*
X160919620Y-113439414D01*
X161007626Y-113313728D01*
X161047523Y-113256749D01*
X161049846Y-113251767D01*
X161049849Y-113251762D01*
X161141961Y-113054225D01*
X161141961Y-113054224D01*
X161144284Y-113049243D01*
X161153983Y-113013048D01*
X161202119Y-112833402D01*
X161202119Y-112833400D01*
X161203543Y-112828087D01*
X161204022Y-112822611D01*
X161204023Y-112822606D01*
X161217197Y-112672022D01*
X161219824Y-112641989D01*
X161245687Y-112575871D01*
X161303191Y-112534232D01*
X161374078Y-112530291D01*
X161435843Y-112565300D01*
X161465441Y-112614854D01*
X161506355Y-112743761D01*
X161513799Y-112767216D01*
X161720792Y-113292114D01*
X161721715Y-113294056D01*
X161721716Y-113294057D01*
X161730696Y-113312940D01*
X161963123Y-113801663D01*
X161964177Y-113803538D01*
X161964184Y-113803551D01*
X162238611Y-114291619D01*
X162238620Y-114291634D01*
X162239662Y-114293487D01*
X162240835Y-114295276D01*
X162240836Y-114295277D01*
X162547928Y-114763477D01*
X162547936Y-114763488D01*
X162549119Y-114765292D01*
X162890052Y-115214880D01*
X163260871Y-115640153D01*
X163659847Y-116039129D01*
X164085120Y-116409948D01*
X164534708Y-116750881D01*
X164536512Y-116752064D01*
X164536523Y-116752072D01*
X164794834Y-116921498D01*
X165006513Y-117060338D01*
X165008366Y-117061380D01*
X165008381Y-117061389D01*
X165496449Y-117335816D01*
X165496462Y-117335823D01*
X165498337Y-117336877D01*
X165858069Y-117507958D01*
X165978558Y-117565260D01*
X166007886Y-117579208D01*
X166532784Y-117786201D01*
X166534837Y-117786853D01*
X166534841Y-117786854D01*
X166598946Y-117807200D01*
X167070584Y-117956891D01*
X167072684Y-117957403D01*
X167072692Y-117957405D01*
X167616667Y-118089968D01*
X167616679Y-118089971D01*
X167618778Y-118090482D01*
X167960582Y-118149415D01*
X168172682Y-118185985D01*
X168172689Y-118185986D01*
X168174812Y-118186352D01*
X168176970Y-118186574D01*
X168176971Y-118186574D01*
X168678385Y-118238121D01*
X168744103Y-118264984D01*
X168784865Y-118323113D01*
X168791500Y-118363460D01*
X168791500Y-134365500D01*
X168771498Y-134433621D01*
X168717842Y-134480114D01*
X168665500Y-134491500D01*
X161584000Y-134491500D01*
X161515879Y-134471498D01*
X161469386Y-134417842D01*
X161458000Y-134365500D01*
X161458000Y-134272115D01*
X161453525Y-134256876D01*
X161452135Y-134255671D01*
X161444452Y-134254000D01*
X158260115Y-134254000D01*
X158244876Y-134258475D01*
X158243671Y-134259865D01*
X158242000Y-134267548D01*
X158242000Y-134365500D01*
X158221998Y-134433621D01*
X158168342Y-134480114D01*
X158116000Y-134491500D01*
X157624500Y-134491500D01*
X157556379Y-134471498D01*
X157509886Y-134417842D01*
X157498500Y-134365500D01*
X157498500Y-133727885D01*
X158242000Y-133727885D01*
X158246475Y-133743124D01*
X158247865Y-133744329D01*
X158255548Y-133746000D01*
X159577885Y-133746000D01*
X159593124Y-133741525D01*
X159594329Y-133740135D01*
X159596000Y-133732452D01*
X159596000Y-133727885D01*
X160104000Y-133727885D01*
X160108475Y-133743124D01*
X160109865Y-133744329D01*
X160117548Y-133746000D01*
X161439885Y-133746000D01*
X161455124Y-133741525D01*
X161456329Y-133740135D01*
X161458000Y-133732452D01*
X161458000Y-130486062D01*
X164778493Y-130486062D01*
X164787789Y-130498077D01*
X164838994Y-130533931D01*
X164848489Y-130539414D01*
X165045947Y-130631490D01*
X165056239Y-130635236D01*
X165266688Y-130691625D01*
X165277481Y-130693528D01*
X165494525Y-130712517D01*
X165505475Y-130712517D01*
X165722519Y-130693528D01*
X165733312Y-130691625D01*
X165943761Y-130635236D01*
X165954053Y-130631490D01*
X166151511Y-130539414D01*
X166161006Y-130533931D01*
X166213048Y-130497491D01*
X166221424Y-130487012D01*
X166214356Y-130473566D01*
X165512812Y-129772022D01*
X165498868Y-129764408D01*
X165497035Y-129764539D01*
X165490420Y-129768790D01*
X164784923Y-130474287D01*
X164778493Y-130486062D01*
X161458000Y-130486062D01*
X161458000Y-129674897D01*
X161457663Y-129668378D01*
X161448178Y-129576970D01*
X161445286Y-129563576D01*
X161396060Y-129416028D01*
X161389886Y-129402849D01*
X161308267Y-129270954D01*
X161299231Y-129259553D01*
X161189451Y-129149964D01*
X161178040Y-129140952D01*
X161045991Y-129059556D01*
X161032814Y-129053412D01*
X160885162Y-129004438D01*
X160871795Y-129001572D01*
X160781568Y-128992328D01*
X160775153Y-128992000D01*
X160122115Y-128992000D01*
X160106876Y-128996475D01*
X160105671Y-128997865D01*
X160104000Y-129005548D01*
X160104000Y-133727885D01*
X159596000Y-133727885D01*
X159596000Y-129010115D01*
X159591525Y-128994876D01*
X159590135Y-128993671D01*
X159582452Y-128992000D01*
X158924897Y-128992000D01*
X158918378Y-128992337D01*
X158826970Y-129001822D01*
X158813576Y-129004714D01*
X158666028Y-129053940D01*
X158652849Y-129060114D01*
X158520954Y-129141733D01*
X158509553Y-129150769D01*
X158399964Y-129260549D01*
X158390952Y-129271960D01*
X158309556Y-129404009D01*
X158303412Y-129417186D01*
X158254438Y-129564838D01*
X158251572Y-129578205D01*
X158242328Y-129668432D01*
X158242000Y-129674847D01*
X158242000Y-133727885D01*
X157498500Y-133727885D01*
X157498499Y-129674867D01*
X157498499Y-129671600D01*
X157487959Y-129570011D01*
X157434198Y-129408867D01*
X157344807Y-129264414D01*
X157339625Y-129259241D01*
X157335078Y-129253504D01*
X157336965Y-129252009D01*
X157308405Y-129199811D01*
X157313408Y-129128991D01*
X157342407Y-129083827D01*
X157980829Y-128445405D01*
X158043141Y-128411379D01*
X158069924Y-128408500D01*
X164157725Y-128408500D01*
X164225846Y-128428502D01*
X164258551Y-128458935D01*
X164331355Y-128556078D01*
X164331358Y-128556081D01*
X164336739Y-128563261D01*
X164343919Y-128568642D01*
X164350270Y-128574993D01*
X164348128Y-128577135D01*
X164381564Y-128621846D01*
X164386594Y-128692664D01*
X164368477Y-128734035D01*
X164368818Y-128734232D01*
X164367048Y-128737298D01*
X164366701Y-128738090D01*
X164366071Y-128738989D01*
X164360586Y-128748489D01*
X164268510Y-128945947D01*
X164264764Y-128956239D01*
X164208375Y-129166688D01*
X164206472Y-129177481D01*
X164187483Y-129394525D01*
X164187483Y-129405475D01*
X164206472Y-129622519D01*
X164208375Y-129633312D01*
X164264764Y-129843761D01*
X164268510Y-129854053D01*
X164360586Y-130051511D01*
X164366069Y-130061006D01*
X164402509Y-130113048D01*
X164412988Y-130121424D01*
X164426434Y-130114356D01*
X165410905Y-129129885D01*
X165473217Y-129095859D01*
X165544032Y-129100924D01*
X165589095Y-129129885D01*
X166574287Y-130115077D01*
X166586062Y-130121507D01*
X166598077Y-130112211D01*
X166633931Y-130061006D01*
X166639414Y-130051511D01*
X166731490Y-129854053D01*
X166735236Y-129843761D01*
X166791625Y-129633312D01*
X166793528Y-129622519D01*
X166812517Y-129405475D01*
X166812517Y-129394525D01*
X166793528Y-129177481D01*
X166791625Y-129166688D01*
X166735236Y-128956239D01*
X166731490Y-128945947D01*
X166639414Y-128748489D01*
X166633929Y-128738989D01*
X166633299Y-128738090D01*
X166633144Y-128737630D01*
X166631182Y-128734232D01*
X166631865Y-128733838D01*
X166610612Y-128670816D01*
X166627898Y-128601956D01*
X166650934Y-128576197D01*
X166649730Y-128574993D01*
X166656081Y-128568642D01*
X166663261Y-128563261D01*
X166668642Y-128556081D01*
X166668645Y-128556078D01*
X166745229Y-128453891D01*
X166750615Y-128446705D01*
X166801745Y-128310316D01*
X166808500Y-128248134D01*
X166808500Y-126551866D01*
X166801745Y-126489684D01*
X166750615Y-126353295D01*
X166663261Y-126236739D01*
X166546705Y-126149385D01*
X166410316Y-126098255D01*
X166348134Y-126091500D01*
X164651866Y-126091500D01*
X164589684Y-126098255D01*
X164453295Y-126149385D01*
X164336739Y-126236739D01*
X164326717Y-126250111D01*
X164258551Y-126341065D01*
X164201692Y-126383580D01*
X164157725Y-126391500D01*
X157661842Y-126391500D01*
X157648235Y-126390763D01*
X157616737Y-126387341D01*
X157616732Y-126387341D01*
X157610611Y-126386676D01*
X157592611Y-126388251D01*
X157560609Y-126391050D01*
X157555784Y-126391379D01*
X157553313Y-126391500D01*
X157550231Y-126391500D01*
X157527763Y-126393703D01*
X157507489Y-126395691D01*
X157506174Y-126395813D01*
X157473913Y-126398636D01*
X157413587Y-126403913D01*
X157408468Y-126405400D01*
X157403167Y-126405920D01*
X157314194Y-126432782D01*
X157313054Y-126433120D01*
X157223663Y-126459091D01*
X157218929Y-126461545D01*
X157213831Y-126463084D01*
X157208387Y-126465978D01*
X157208386Y-126465979D01*
X157131831Y-126506684D01*
X157130663Y-126507298D01*
X157103971Y-126521134D01*
X157048074Y-126550108D01*
X157043911Y-126553431D01*
X157039204Y-126555934D01*
X157034430Y-126559828D01*
X157034428Y-126559829D01*
X157014136Y-126576379D01*
X156948704Y-126603933D01*
X156878763Y-126591738D01*
X156826518Y-126543665D01*
X156808500Y-126478736D01*
X156808500Y-124729926D01*
X156828502Y-124661805D01*
X156845404Y-124640831D01*
X157294452Y-124191782D01*
X157356765Y-124157757D01*
X157367534Y-124155899D01*
X157448421Y-124145537D01*
X157538289Y-124134025D01*
X157538292Y-124134024D01*
X157543416Y-124133368D01*
X157565425Y-124126765D01*
X157752429Y-124070661D01*
X157752434Y-124070659D01*
X157757384Y-124069174D01*
X157957994Y-123970896D01*
X158139860Y-123841173D01*
X158248091Y-123733319D01*
X158310462Y-123699404D01*
X158381268Y-123704592D01*
X158438030Y-123747238D01*
X158455012Y-123778341D01*
X158484320Y-123856520D01*
X158499385Y-123896705D01*
X158586739Y-124013261D01*
X158703295Y-124100615D01*
X158839684Y-124151745D01*
X158901866Y-124158500D01*
X160698134Y-124158500D01*
X160760316Y-124151745D01*
X160896705Y-124100615D01*
X161013261Y-124013261D01*
X161100615Y-123896705D01*
X161151745Y-123760316D01*
X161158500Y-123698134D01*
X161158500Y-122700000D01*
X164436693Y-122700000D01*
X164455885Y-122919371D01*
X164512880Y-123132076D01*
X164531824Y-123172701D01*
X164603618Y-123326666D01*
X164603621Y-123326671D01*
X164605944Y-123331653D01*
X164609100Y-123336160D01*
X164609101Y-123336162D01*
X164700497Y-123466688D01*
X164732251Y-123512038D01*
X164887962Y-123667749D01*
X164892471Y-123670906D01*
X164892473Y-123670908D01*
X164930486Y-123697525D01*
X165068346Y-123794056D01*
X165267924Y-123887120D01*
X165480629Y-123944115D01*
X165700000Y-123963307D01*
X165919371Y-123944115D01*
X166132076Y-123887120D01*
X166331654Y-123794056D01*
X166469514Y-123697525D01*
X166507527Y-123670908D01*
X166507529Y-123670906D01*
X166512038Y-123667749D01*
X166667749Y-123512038D01*
X166699504Y-123466688D01*
X166790899Y-123336162D01*
X166790900Y-123336160D01*
X166794056Y-123331653D01*
X166796379Y-123326671D01*
X166796382Y-123326666D01*
X166868176Y-123172701D01*
X166887120Y-123132076D01*
X166944115Y-122919371D01*
X166963307Y-122700000D01*
X166944115Y-122480629D01*
X166887120Y-122267924D01*
X166806332Y-122094673D01*
X166796382Y-122073334D01*
X166796379Y-122073329D01*
X166794056Y-122068347D01*
X166765839Y-122028049D01*
X166670908Y-121892473D01*
X166670906Y-121892470D01*
X166667749Y-121887962D01*
X166512038Y-121732251D01*
X166331654Y-121605944D01*
X166132076Y-121512880D01*
X165919371Y-121455885D01*
X165700000Y-121436693D01*
X165480629Y-121455885D01*
X165267924Y-121512880D01*
X165200228Y-121544447D01*
X165073334Y-121603618D01*
X165073329Y-121603621D01*
X165068347Y-121605944D01*
X165063840Y-121609100D01*
X165063838Y-121609101D01*
X164892473Y-121729092D01*
X164892470Y-121729094D01*
X164887962Y-121732251D01*
X164732251Y-121887962D01*
X164729094Y-121892470D01*
X164729092Y-121892473D01*
X164634161Y-122028049D01*
X164605944Y-122068347D01*
X164603621Y-122073329D01*
X164603618Y-122073334D01*
X164593668Y-122094673D01*
X164512880Y-122267924D01*
X164455885Y-122480629D01*
X164436693Y-122700000D01*
X161158500Y-122700000D01*
X161158500Y-121901866D01*
X161151745Y-121839684D01*
X161100615Y-121703295D01*
X161013261Y-121586739D01*
X160896705Y-121499385D01*
X160884132Y-121494672D01*
X160778203Y-121454960D01*
X160721439Y-121412318D01*
X160696739Y-121345756D01*
X160711947Y-121276408D01*
X160733493Y-121247727D01*
X160834435Y-121147137D01*
X160838096Y-121143489D01*
X160896057Y-121062828D01*
X160965435Y-120966277D01*
X160968453Y-120962077D01*
X160989518Y-120919456D01*
X161065136Y-120766453D01*
X161065137Y-120766451D01*
X161067430Y-120761811D01*
X161132370Y-120548069D01*
X161161529Y-120326590D01*
X161163156Y-120260000D01*
X161144852Y-120037361D01*
X161090431Y-119820702D01*
X161001354Y-119615840D01*
X160952029Y-119539595D01*
X160882822Y-119432617D01*
X160882820Y-119432614D01*
X160880014Y-119428277D01*
X160729670Y-119263051D01*
X160725619Y-119259852D01*
X160725615Y-119259848D01*
X160558414Y-119127800D01*
X160558410Y-119127798D01*
X160554359Y-119124598D01*
X160513053Y-119101796D01*
X160463084Y-119051364D01*
X160448312Y-118981921D01*
X160473428Y-118915516D01*
X160500780Y-118888909D01*
X160574748Y-118836148D01*
X160679860Y-118761173D01*
X160737616Y-118703619D01*
X160834435Y-118607137D01*
X160838096Y-118603489D01*
X160968453Y-118422077D01*
X161002508Y-118353173D01*
X161065136Y-118226453D01*
X161065137Y-118226451D01*
X161067430Y-118221811D01*
X161108791Y-118085677D01*
X161130865Y-118013023D01*
X161130865Y-118013021D01*
X161132370Y-118008069D01*
X161161529Y-117786590D01*
X161161894Y-117771667D01*
X161163074Y-117723365D01*
X161163074Y-117723361D01*
X161163156Y-117720000D01*
X161144852Y-117497361D01*
X161090431Y-117280702D01*
X161001354Y-117075840D01*
X160914446Y-116941500D01*
X160882822Y-116892617D01*
X160882820Y-116892614D01*
X160880014Y-116888277D01*
X160729670Y-116723051D01*
X160725619Y-116719852D01*
X160725615Y-116719848D01*
X160613963Y-116631671D01*
X160572900Y-116573754D01*
X160569668Y-116502831D01*
X160605293Y-116441419D01*
X160668465Y-116409017D01*
X160692055Y-116406789D01*
X161287984Y-116406789D01*
X161356105Y-116426791D01*
X161377079Y-116443694D01*
X164419015Y-119485630D01*
X164453041Y-119547942D01*
X164455441Y-119585705D01*
X164436693Y-119800000D01*
X164455885Y-120019371D01*
X164512880Y-120232076D01*
X164555390Y-120323240D01*
X164603618Y-120426666D01*
X164603621Y-120426671D01*
X164605944Y-120431653D01*
X164609100Y-120436160D01*
X164609101Y-120436162D01*
X164687146Y-120547621D01*
X164732251Y-120612038D01*
X164887962Y-120767749D01*
X164892471Y-120770906D01*
X164892473Y-120770908D01*
X164958538Y-120817167D01*
X165068346Y-120894056D01*
X165267924Y-120987120D01*
X165480629Y-121044115D01*
X165700000Y-121063307D01*
X165919371Y-121044115D01*
X166132076Y-120987120D01*
X166331654Y-120894056D01*
X166441462Y-120817167D01*
X166507527Y-120770908D01*
X166507529Y-120770906D01*
X166512038Y-120767749D01*
X166667749Y-120612038D01*
X166712855Y-120547621D01*
X166790899Y-120436162D01*
X166790900Y-120436160D01*
X166794056Y-120431653D01*
X166796379Y-120426671D01*
X166796382Y-120426666D01*
X166844610Y-120323240D01*
X166887120Y-120232076D01*
X166944115Y-120019371D01*
X166963307Y-119800000D01*
X166944115Y-119580629D01*
X166887120Y-119367924D01*
X166838217Y-119263051D01*
X166796382Y-119173334D01*
X166796379Y-119173329D01*
X166794056Y-119168347D01*
X166763423Y-119124598D01*
X166670908Y-118992473D01*
X166670906Y-118992470D01*
X166667749Y-118987962D01*
X166512038Y-118832251D01*
X166331654Y-118705944D01*
X166132076Y-118612880D01*
X165919371Y-118555885D01*
X165700000Y-118536693D01*
X165485705Y-118555441D01*
X165416102Y-118541452D01*
X165385630Y-118519015D01*
X162126445Y-115259830D01*
X162120591Y-115253565D01*
X162118887Y-115251612D01*
X162083999Y-115211619D01*
X162033634Y-115176223D01*
X162028366Y-115172309D01*
X162026634Y-115170951D01*
X161979961Y-115134354D01*
X161973037Y-115131228D01*
X161968728Y-115128618D01*
X161959313Y-115123247D01*
X161954865Y-115120862D01*
X161948650Y-115116494D01*
X161891328Y-115094145D01*
X161885260Y-115091595D01*
X161829184Y-115066275D01*
X161821707Y-115064889D01*
X161816887Y-115063379D01*
X161806454Y-115060407D01*
X161801593Y-115059159D01*
X161794517Y-115056400D01*
X161733527Y-115048371D01*
X161727011Y-115047339D01*
X161673989Y-115037512D01*
X161666522Y-115036128D01*
X161658942Y-115036565D01*
X161658941Y-115036565D01*
X161606647Y-115039580D01*
X161599395Y-115039789D01*
X156104755Y-115039789D01*
X156096186Y-115039497D01*
X156048252Y-115036229D01*
X156048248Y-115036229D01*
X156040676Y-115035713D01*
X156033199Y-115037018D01*
X156033197Y-115037018D01*
X156017321Y-115039789D01*
X155980051Y-115046294D01*
X155973554Y-115047252D01*
X155912476Y-115054644D01*
X155905367Y-115057330D01*
X155900442Y-115058540D01*
X155890027Y-115061390D01*
X155885190Y-115062850D01*
X155877707Y-115064156D01*
X155870757Y-115067207D01*
X155870750Y-115067209D01*
X155821374Y-115088884D01*
X155815270Y-115091375D01*
X155757722Y-115113120D01*
X155751463Y-115117422D01*
X155747009Y-115119750D01*
X155737530Y-115125025D01*
X155733178Y-115127599D01*
X155726225Y-115130651D01*
X155720201Y-115135274D01*
X155720195Y-115135277D01*
X155677402Y-115168113D01*
X155672077Y-115171982D01*
X155621385Y-115206823D01*
X155616334Y-115212492D01*
X155616333Y-115212493D01*
X155581479Y-115251612D01*
X155576498Y-115256887D01*
X154904592Y-115928793D01*
X154842280Y-115962819D01*
X154771465Y-115957754D01*
X154714629Y-115915207D01*
X154700796Y-115891849D01*
X154645073Y-115769293D01*
X154643217Y-115765211D01*
X154640805Y-115761440D01*
X154640801Y-115761432D01*
X154567157Y-115646279D01*
X154567156Y-115646278D01*
X154564742Y-115642503D01*
X154559197Y-115636067D01*
X154539048Y-115612684D01*
X154509733Y-115548021D01*
X154508500Y-115530435D01*
X154508500Y-110737070D01*
X154509933Y-110718120D01*
X154512099Y-110703885D01*
X154512099Y-110703881D01*
X154513199Y-110696651D01*
X154508915Y-110643982D01*
X154508500Y-110633767D01*
X154508500Y-110625707D01*
X154505209Y-110597480D01*
X154504778Y-110593121D01*
X154498860Y-110520364D01*
X154496605Y-110513403D01*
X154495418Y-110507463D01*
X154494029Y-110501588D01*
X154493182Y-110494319D01*
X154468264Y-110425670D01*
X154466847Y-110421542D01*
X154446607Y-110359064D01*
X154446606Y-110359062D01*
X154444351Y-110352101D01*
X154440555Y-110345846D01*
X154438049Y-110340372D01*
X154435330Y-110334942D01*
X154432833Y-110328063D01*
X154392814Y-110267024D01*
X154390467Y-110263305D01*
X154352595Y-110200893D01*
X154345197Y-110192516D01*
X154345224Y-110192492D01*
X154342571Y-110189500D01*
X154339868Y-110186267D01*
X154335856Y-110180148D01*
X154279617Y-110126872D01*
X154277175Y-110124494D01*
X153615671Y-109462990D01*
X153581645Y-109400678D01*
X153579245Y-109362913D01*
X153593019Y-109205475D01*
X153593498Y-109200000D01*
X153573543Y-108971913D01*
X153565028Y-108940135D01*
X153515707Y-108756067D01*
X153515706Y-108756065D01*
X153514284Y-108750757D01*
X153477372Y-108671598D01*
X153419849Y-108548238D01*
X153419846Y-108548233D01*
X153417523Y-108543251D01*
X153319936Y-108403883D01*
X153289357Y-108360211D01*
X153289355Y-108360208D01*
X153286198Y-108355700D01*
X153124300Y-108193802D01*
X153119792Y-108190645D01*
X153119789Y-108190643D01*
X153041611Y-108135902D01*
X152936749Y-108062477D01*
X152931767Y-108060154D01*
X152931762Y-108060151D01*
X152734225Y-107968039D01*
X152734224Y-107968039D01*
X152729243Y-107965716D01*
X152723935Y-107964294D01*
X152723933Y-107964293D01*
X152513402Y-107907881D01*
X152513400Y-107907881D01*
X152508087Y-107906457D01*
X152280000Y-107886502D01*
X152051913Y-107906457D01*
X152046600Y-107907881D01*
X152046598Y-107907881D01*
X151836067Y-107964293D01*
X151836065Y-107964294D01*
X151830757Y-107965716D01*
X151825776Y-107968039D01*
X151825775Y-107968039D01*
X151628238Y-108060151D01*
X151628233Y-108060154D01*
X151623251Y-108062477D01*
X151518389Y-108135902D01*
X151440211Y-108190643D01*
X151440208Y-108190645D01*
X151435700Y-108193802D01*
X151273802Y-108355700D01*
X151251345Y-108387771D01*
X151195890Y-108432099D01*
X151148133Y-108441500D01*
X149457070Y-108441500D01*
X149438120Y-108440067D01*
X149423885Y-108437901D01*
X149423881Y-108437901D01*
X149416651Y-108436801D01*
X149409359Y-108437394D01*
X149409356Y-108437394D01*
X149363982Y-108441085D01*
X149353767Y-108441500D01*
X149345707Y-108441500D01*
X149342073Y-108441924D01*
X149342067Y-108441924D01*
X149329042Y-108443443D01*
X149317480Y-108444791D01*
X149313132Y-108445221D01*
X149291059Y-108447016D01*
X149247662Y-108450546D01*
X149247659Y-108450547D01*
X149240364Y-108451140D01*
X149233400Y-108453396D01*
X149227461Y-108454583D01*
X149221590Y-108455970D01*
X149214319Y-108456818D01*
X149207443Y-108459314D01*
X149207434Y-108459316D01*
X149145702Y-108481725D01*
X149141598Y-108483135D01*
X149072101Y-108505648D01*
X149065846Y-108509444D01*
X149060387Y-108511943D01*
X149054939Y-108514671D01*
X149048063Y-108517167D01*
X148987010Y-108557195D01*
X148983337Y-108559513D01*
X148920893Y-108597405D01*
X148912517Y-108604802D01*
X148912493Y-108604775D01*
X148909499Y-108607430D01*
X148906268Y-108610132D01*
X148900148Y-108614144D01*
X148895116Y-108619456D01*
X148846872Y-108670383D01*
X148844494Y-108672825D01*
X148757724Y-108759595D01*
X148695412Y-108793621D01*
X148668629Y-108796500D01*
X148483996Y-108796500D01*
X148333287Y-108811277D01*
X148139258Y-108869858D01*
X147960302Y-108965010D01*
X147803237Y-109093110D01*
X147799310Y-109097857D01*
X147799308Y-109097859D01*
X147677973Y-109244528D01*
X147677971Y-109244531D01*
X147674044Y-109249278D01*
X147577644Y-109427565D01*
X147517710Y-109621180D01*
X147517066Y-109627305D01*
X147517066Y-109627306D01*
X147514760Y-109649243D01*
X147496524Y-109822750D01*
X147499618Y-109856749D01*
X147513769Y-110012230D01*
X147514894Y-110024596D01*
X147516632Y-110030502D01*
X147516633Y-110030506D01*
X147558251Y-110171909D01*
X147572119Y-110219029D01*
X147574972Y-110224486D01*
X147574973Y-110224489D01*
X147595877Y-110264474D01*
X147665923Y-110398460D01*
X147665923Y-110398462D01*
X147666019Y-110398645D01*
X147665984Y-110398663D01*
X147685889Y-110464441D01*
X147670729Y-110525409D01*
X147577644Y-110697565D01*
X147517710Y-110891180D01*
X147496524Y-111092750D01*
X147501874Y-111151531D01*
X147511254Y-111254595D01*
X147514894Y-111294596D01*
X147516632Y-111300502D01*
X147516633Y-111300506D01*
X147536510Y-111368041D01*
X147571069Y-111485461D01*
X147572119Y-111489029D01*
X147571441Y-111489229D01*
X147577956Y-111555273D01*
X147564680Y-111592323D01*
X147556679Y-111606937D01*
X147511522Y-111727394D01*
X147507895Y-111742649D01*
X147502369Y-111793514D01*
X147502000Y-111800328D01*
X147502000Y-112097885D01*
X147506475Y-112113124D01*
X147507865Y-112114329D01*
X147515548Y-112116000D01*
X148313758Y-112116000D01*
X148327803Y-112116785D01*
X148476817Y-112133500D01*
X149036004Y-112133500D01*
X149186713Y-112118723D01*
X149189002Y-112118032D01*
X149209724Y-112116000D01*
X149999884Y-112116000D01*
X150015123Y-112111525D01*
X150016328Y-112110135D01*
X150017999Y-112102452D01*
X150017999Y-111800331D01*
X150017629Y-111793510D01*
X150012105Y-111742648D01*
X150008479Y-111727396D01*
X149963323Y-111606944D01*
X149954886Y-111591534D01*
X149939716Y-111522177D01*
X149945040Y-111493764D01*
X150000468Y-111314706D01*
X150002290Y-111308820D01*
X150003401Y-111298255D01*
X150022832Y-111113378D01*
X150022832Y-111113377D01*
X150023476Y-111107250D01*
X150014588Y-111009588D01*
X150005665Y-110911543D01*
X150005664Y-110911540D01*
X150005106Y-110905404D01*
X149947881Y-110710971D01*
X149943951Y-110703452D01*
X149872116Y-110566045D01*
X149853981Y-110531355D01*
X149854016Y-110531337D01*
X149834111Y-110465559D01*
X149849271Y-110404591D01*
X149865285Y-110374974D01*
X149942356Y-110232435D01*
X149999683Y-110047240D01*
X150038934Y-109988081D01*
X150103939Y-109959534D01*
X150120048Y-109958500D01*
X151148133Y-109958500D01*
X151216254Y-109978502D01*
X151251345Y-110012228D01*
X151273802Y-110044300D01*
X151435700Y-110206198D01*
X151440208Y-110209355D01*
X151440211Y-110209357D01*
X151473170Y-110232435D01*
X151623251Y-110337523D01*
X151628233Y-110339846D01*
X151628238Y-110339849D01*
X151807920Y-110423635D01*
X151830757Y-110434284D01*
X151836065Y-110435706D01*
X151836067Y-110435707D01*
X152046598Y-110492119D01*
X152046600Y-110492119D01*
X152051913Y-110493543D01*
X152280000Y-110513498D01*
X152285475Y-110513019D01*
X152442913Y-110499245D01*
X152512518Y-110513234D01*
X152542990Y-110535671D01*
X152954595Y-110947276D01*
X152988621Y-111009588D01*
X152991500Y-111036371D01*
X152991500Y-111285564D01*
X152971498Y-111353685D01*
X152917842Y-111400178D01*
X152847568Y-111410282D01*
X152812251Y-111399759D01*
X152744230Y-111368041D01*
X152744225Y-111368039D01*
X152739243Y-111365716D01*
X152733935Y-111364294D01*
X152733933Y-111364293D01*
X152523402Y-111307881D01*
X152523400Y-111307881D01*
X152518087Y-111306457D01*
X152290000Y-111286502D01*
X152061913Y-111306457D01*
X152056600Y-111307881D01*
X152056598Y-111307881D01*
X151846067Y-111364293D01*
X151846065Y-111364294D01*
X151840757Y-111365716D01*
X151835776Y-111368039D01*
X151835775Y-111368039D01*
X151638238Y-111460151D01*
X151638233Y-111460154D01*
X151633251Y-111462477D01*
X151547991Y-111522177D01*
X151450211Y-111590643D01*
X151450208Y-111590645D01*
X151445700Y-111593802D01*
X151283802Y-111755700D01*
X151152477Y-111943251D01*
X151150154Y-111948233D01*
X151150151Y-111948238D01*
X151070373Y-112119324D01*
X151055716Y-112150757D01*
X150996457Y-112371913D01*
X150976502Y-112600000D01*
X150996457Y-112828087D01*
X150997881Y-112833400D01*
X150997881Y-112833402D01*
X151046018Y-113013048D01*
X151055716Y-113049243D01*
X151058039Y-113054224D01*
X151058039Y-113054225D01*
X151150151Y-113251762D01*
X151150154Y-113251767D01*
X151152477Y-113256749D01*
X151192374Y-113313728D01*
X151280381Y-113439414D01*
X151283802Y-113444300D01*
X151445700Y-113606198D01*
X151477771Y-113628655D01*
X151522099Y-113684110D01*
X151531500Y-113731867D01*
X151531500Y-115792836D01*
X151519555Y-115846385D01*
X151516960Y-115851913D01*
X151501905Y-115883979D01*
X151459317Y-116023277D01*
X151458628Y-116027700D01*
X151458627Y-116027706D01*
X151449993Y-116083165D01*
X151437283Y-116164795D01*
X151435503Y-116310438D01*
X151436063Y-116314723D01*
X151436271Y-116321760D01*
X151436271Y-116711047D01*
X151436273Y-116711047D01*
X151436682Y-116714014D01*
X151435504Y-116810438D01*
X151435139Y-116810434D01*
X151419734Y-116877250D01*
X151368914Y-116926827D01*
X151309903Y-116941500D01*
X150940305Y-116941500D01*
X150872184Y-116921498D01*
X150851210Y-116904595D01*
X150805405Y-116858790D01*
X150771379Y-116796478D01*
X150768500Y-116769695D01*
X150768500Y-116022873D01*
X150768161Y-116018989D01*
X150757037Y-115891849D01*
X150753543Y-115851913D01*
X150698443Y-115646279D01*
X150695707Y-115636067D01*
X150695706Y-115636065D01*
X150694284Y-115630757D01*
X150688518Y-115618391D01*
X150599849Y-115428238D01*
X150599846Y-115428233D01*
X150597523Y-115423251D01*
X150483094Y-115259830D01*
X150469357Y-115240211D01*
X150469355Y-115240208D01*
X150466198Y-115235700D01*
X150304300Y-115073802D01*
X150299792Y-115070645D01*
X150299789Y-115070643D01*
X150221611Y-115015902D01*
X150116749Y-114942477D01*
X150111767Y-114940154D01*
X150111762Y-114940151D01*
X149914225Y-114848039D01*
X149914224Y-114848039D01*
X149909243Y-114845716D01*
X149903935Y-114844294D01*
X149903933Y-114844293D01*
X149693402Y-114787881D01*
X149693400Y-114787881D01*
X149688087Y-114786457D01*
X149460000Y-114766502D01*
X149231913Y-114786457D01*
X149226600Y-114787881D01*
X149226598Y-114787881D01*
X149016067Y-114844293D01*
X149016065Y-114844294D01*
X149010757Y-114845716D01*
X149005776Y-114848039D01*
X149005775Y-114848039D01*
X148808238Y-114940151D01*
X148808233Y-114940154D01*
X148803251Y-114942477D01*
X148698389Y-115015902D01*
X148620211Y-115070643D01*
X148620208Y-115070645D01*
X148615700Y-115073802D01*
X148453802Y-115235700D01*
X148450645Y-115240208D01*
X148450643Y-115240211D01*
X148436906Y-115259830D01*
X148322477Y-115423251D01*
X148320154Y-115428233D01*
X148320151Y-115428238D01*
X148304195Y-115462457D01*
X148257278Y-115515742D01*
X148189001Y-115535203D01*
X148121041Y-115514661D01*
X148075805Y-115462457D01*
X148059849Y-115428238D01*
X148059846Y-115428233D01*
X148057523Y-115423251D01*
X147943094Y-115259830D01*
X147929357Y-115240211D01*
X147929355Y-115240208D01*
X147926198Y-115235700D01*
X147764300Y-115073802D01*
X147759792Y-115070645D01*
X147759789Y-115070643D01*
X147681611Y-115015902D01*
X147576749Y-114942477D01*
X147571767Y-114940154D01*
X147571762Y-114940151D01*
X147374225Y-114848039D01*
X147374224Y-114848039D01*
X147369243Y-114845716D01*
X147363935Y-114844294D01*
X147363933Y-114844293D01*
X147153402Y-114787881D01*
X147153400Y-114787881D01*
X147148087Y-114786457D01*
X146920000Y-114766502D01*
X146691913Y-114786457D01*
X146686600Y-114787881D01*
X146686598Y-114787881D01*
X146476067Y-114844293D01*
X146476065Y-114844294D01*
X146470757Y-114845716D01*
X146465776Y-114848039D01*
X146465775Y-114848039D01*
X146268238Y-114940151D01*
X146268233Y-114940154D01*
X146263251Y-114942477D01*
X146158389Y-115015902D01*
X146080211Y-115070643D01*
X146080208Y-115070645D01*
X146075700Y-115073802D01*
X145913802Y-115235700D01*
X145910645Y-115240208D01*
X145910643Y-115240211D01*
X145896906Y-115259830D01*
X145782477Y-115423251D01*
X145780154Y-115428233D01*
X145780151Y-115428238D01*
X145764195Y-115462457D01*
X145717278Y-115515742D01*
X145649001Y-115535203D01*
X145581041Y-115514661D01*
X145535805Y-115462457D01*
X145519849Y-115428238D01*
X145519846Y-115428233D01*
X145517523Y-115423251D01*
X145403094Y-115259830D01*
X145389357Y-115240211D01*
X145389355Y-115240208D01*
X145386198Y-115235700D01*
X145224300Y-115073802D01*
X145219792Y-115070645D01*
X145219789Y-115070643D01*
X145141611Y-115015902D01*
X145036749Y-114942477D01*
X145031767Y-114940154D01*
X145031762Y-114940151D01*
X144834225Y-114848039D01*
X144834224Y-114848039D01*
X144829243Y-114845716D01*
X144823935Y-114844294D01*
X144823933Y-114844293D01*
X144613402Y-114787881D01*
X144613400Y-114787881D01*
X144608087Y-114786457D01*
X144380000Y-114766502D01*
X144151913Y-114786457D01*
X144146600Y-114787881D01*
X144146598Y-114787881D01*
X143936067Y-114844293D01*
X143936065Y-114844294D01*
X143930757Y-114845716D01*
X143925776Y-114848039D01*
X143925775Y-114848039D01*
X143728238Y-114940151D01*
X143728233Y-114940154D01*
X143723251Y-114942477D01*
X143618389Y-115015902D01*
X143540211Y-115070643D01*
X143540208Y-115070645D01*
X143535700Y-115073802D01*
X143373802Y-115235700D01*
X143370645Y-115240208D01*
X143370643Y-115240211D01*
X143356906Y-115259830D01*
X143242477Y-115423251D01*
X143240154Y-115428233D01*
X143240151Y-115428238D01*
X143224195Y-115462457D01*
X143177278Y-115515742D01*
X143109001Y-115535203D01*
X143041041Y-115514661D01*
X142995805Y-115462457D01*
X142979849Y-115428238D01*
X142979846Y-115428233D01*
X142977523Y-115423251D01*
X142863094Y-115259830D01*
X142849357Y-115240211D01*
X142849355Y-115240208D01*
X142846198Y-115235700D01*
X142684300Y-115073802D01*
X142679792Y-115070645D01*
X142679789Y-115070643D01*
X142601611Y-115015902D01*
X142496749Y-114942477D01*
X142491767Y-114940154D01*
X142491762Y-114940151D01*
X142294225Y-114848039D01*
X142294224Y-114848039D01*
X142289243Y-114845716D01*
X142283935Y-114844294D01*
X142283933Y-114844293D01*
X142073402Y-114787881D01*
X142073400Y-114787881D01*
X142068087Y-114786457D01*
X141840000Y-114766502D01*
X141611913Y-114786457D01*
X141606600Y-114787881D01*
X141606598Y-114787881D01*
X141396067Y-114844293D01*
X141396065Y-114844294D01*
X141390757Y-114845716D01*
X141385776Y-114848039D01*
X141385775Y-114848039D01*
X141188238Y-114940151D01*
X141188233Y-114940154D01*
X141183251Y-114942477D01*
X141078389Y-115015902D01*
X141000211Y-115070643D01*
X141000208Y-115070645D01*
X140995700Y-115073802D01*
X140833802Y-115235700D01*
X140830645Y-115240208D01*
X140830643Y-115240211D01*
X140816906Y-115259830D01*
X140702477Y-115423251D01*
X140700154Y-115428233D01*
X140700151Y-115428238D01*
X140684195Y-115462457D01*
X140637278Y-115515742D01*
X140569001Y-115535203D01*
X140501041Y-115514661D01*
X140455805Y-115462457D01*
X140439849Y-115428238D01*
X140439846Y-115428233D01*
X140437523Y-115423251D01*
X140323094Y-115259830D01*
X140309357Y-115240211D01*
X140309355Y-115240208D01*
X140306198Y-115235700D01*
X140144300Y-115073802D01*
X140139792Y-115070645D01*
X140139789Y-115070643D01*
X140061611Y-115015902D01*
X139956749Y-114942477D01*
X139951767Y-114940154D01*
X139951762Y-114940151D01*
X139749243Y-114845716D01*
X139750173Y-114843722D01*
X139700637Y-114807241D01*
X139675306Y-114740917D01*
X139689854Y-114671427D01*
X139706473Y-114647776D01*
X139710185Y-114644434D01*
X139718075Y-114633574D01*
X139730912Y-114618546D01*
X140577069Y-113772389D01*
X140963396Y-113386062D01*
X142078493Y-113386062D01*
X142087789Y-113398077D01*
X142138994Y-113433931D01*
X142148489Y-113439414D01*
X142345947Y-113531490D01*
X142356239Y-113535236D01*
X142566688Y-113591625D01*
X142577481Y-113593528D01*
X142794525Y-113612517D01*
X142805475Y-113612517D01*
X143022519Y-113593528D01*
X143033312Y-113591625D01*
X143243761Y-113535236D01*
X143254053Y-113531490D01*
X143451511Y-113439414D01*
X143461006Y-113433931D01*
X143513048Y-113397491D01*
X143521424Y-113387012D01*
X143514356Y-113373566D01*
X142812812Y-112672022D01*
X142798868Y-112664408D01*
X142797035Y-112664539D01*
X142790420Y-112668790D01*
X142084923Y-113374287D01*
X142078493Y-113386062D01*
X140963396Y-113386062D01*
X141449822Y-112899635D01*
X141512133Y-112865611D01*
X141582948Y-112870675D01*
X141639784Y-112913222D01*
X141653110Y-112935478D01*
X141660588Y-112951513D01*
X141666069Y-112961006D01*
X141702509Y-113013048D01*
X141712988Y-113021424D01*
X141726434Y-113014356D01*
X142710905Y-112029885D01*
X142773217Y-111995859D01*
X142844032Y-112000924D01*
X142889095Y-112029885D01*
X143874287Y-113015077D01*
X143886062Y-113021507D01*
X143898077Y-113012211D01*
X143933931Y-112961006D01*
X143939414Y-112951511D01*
X143944936Y-112939669D01*
X147502001Y-112939669D01*
X147502371Y-112946490D01*
X147507895Y-112997352D01*
X147511521Y-113012604D01*
X147556676Y-113133054D01*
X147565214Y-113148649D01*
X147641715Y-113250724D01*
X147654276Y-113263285D01*
X147756351Y-113339786D01*
X147771946Y-113348324D01*
X147892394Y-113393478D01*
X147907649Y-113397105D01*
X147958514Y-113402631D01*
X147965328Y-113403000D01*
X148487885Y-113403000D01*
X148503124Y-113398525D01*
X148504329Y-113397135D01*
X148506000Y-113389452D01*
X148506000Y-113384884D01*
X149014000Y-113384884D01*
X149018475Y-113400123D01*
X149019865Y-113401328D01*
X149027548Y-113402999D01*
X149554669Y-113402999D01*
X149561490Y-113402629D01*
X149612352Y-113397105D01*
X149627604Y-113393479D01*
X149748054Y-113348324D01*
X149763649Y-113339786D01*
X149865724Y-113263285D01*
X149878285Y-113250724D01*
X149954786Y-113148649D01*
X149963324Y-113133054D01*
X150008478Y-113012606D01*
X150012105Y-112997351D01*
X150017631Y-112946486D01*
X150018000Y-112939672D01*
X150018000Y-112642115D01*
X150013525Y-112626876D01*
X150012135Y-112625671D01*
X150004452Y-112624000D01*
X149032115Y-112624000D01*
X149016876Y-112628475D01*
X149015671Y-112629865D01*
X149014000Y-112637548D01*
X149014000Y-113384884D01*
X148506000Y-113384884D01*
X148506000Y-112642115D01*
X148501525Y-112626876D01*
X148500135Y-112625671D01*
X148492452Y-112624000D01*
X147520116Y-112624000D01*
X147504877Y-112628475D01*
X147503672Y-112629865D01*
X147502001Y-112637548D01*
X147502001Y-112939669D01*
X143944936Y-112939669D01*
X144031490Y-112754053D01*
X144035236Y-112743761D01*
X144091625Y-112533312D01*
X144093528Y-112522519D01*
X144112517Y-112305475D01*
X144112517Y-112294525D01*
X144093528Y-112077481D01*
X144091625Y-112066688D01*
X144035236Y-111856239D01*
X144031490Y-111845947D01*
X143939414Y-111648489D01*
X143933929Y-111638989D01*
X143933299Y-111638090D01*
X143933144Y-111637630D01*
X143931182Y-111634232D01*
X143931865Y-111633838D01*
X143910612Y-111570816D01*
X143927898Y-111501956D01*
X143950934Y-111476197D01*
X143949730Y-111474993D01*
X143956081Y-111468642D01*
X143963261Y-111463261D01*
X143968642Y-111456081D01*
X143968645Y-111456078D01*
X144016292Y-111392502D01*
X144050615Y-111346705D01*
X144101745Y-111210316D01*
X144108500Y-111148134D01*
X144108500Y-109451866D01*
X144101745Y-109389684D01*
X144050615Y-109253295D01*
X143963261Y-109136739D01*
X143846705Y-109049385D01*
X143710316Y-108998255D01*
X143648134Y-108991500D01*
X141951866Y-108991500D01*
X141889684Y-108998255D01*
X141753295Y-109049385D01*
X141636739Y-109136739D01*
X141549385Y-109253295D01*
X141498255Y-109389684D01*
X141491500Y-109451866D01*
X141491500Y-110306853D01*
X141471498Y-110374974D01*
X141454595Y-110395948D01*
X138720947Y-113129595D01*
X138658635Y-113163621D01*
X138631852Y-113166500D01*
X135277072Y-113166500D01*
X135208951Y-113146498D01*
X135162458Y-113092842D01*
X135152354Y-113022568D01*
X135155365Y-113007889D01*
X135202119Y-112833402D01*
X135202119Y-112833400D01*
X135203543Y-112828087D01*
X135223498Y-112600000D01*
X135203543Y-112371913D01*
X135144284Y-112150757D01*
X135129627Y-112119324D01*
X135049849Y-111948238D01*
X135049846Y-111948233D01*
X135047523Y-111943251D01*
X134916198Y-111755700D01*
X134754300Y-111593802D01*
X134749792Y-111590645D01*
X134749789Y-111590643D01*
X134652009Y-111522177D01*
X134566749Y-111462477D01*
X134561767Y-111460154D01*
X134561762Y-111460151D01*
X134364225Y-111368039D01*
X134364224Y-111368039D01*
X134359243Y-111365716D01*
X134353935Y-111364294D01*
X134353933Y-111364293D01*
X134143402Y-111307881D01*
X134143400Y-111307881D01*
X134138087Y-111306457D01*
X133910000Y-111286502D01*
X133681913Y-111306457D01*
X133676600Y-111307881D01*
X133676598Y-111307881D01*
X133466067Y-111364293D01*
X133466065Y-111364294D01*
X133460757Y-111365716D01*
X133455776Y-111368039D01*
X133455775Y-111368039D01*
X133258238Y-111460151D01*
X133258233Y-111460154D01*
X133253251Y-111462477D01*
X133167991Y-111522177D01*
X133070211Y-111590643D01*
X133070208Y-111590645D01*
X133065700Y-111593802D01*
X132903802Y-111755700D01*
X132833404Y-111856239D01*
X132828830Y-111862771D01*
X132773373Y-111907099D01*
X132725617Y-111916500D01*
X128828045Y-111916500D01*
X128819476Y-111916208D01*
X128771542Y-111912940D01*
X128771538Y-111912940D01*
X128763966Y-111912424D01*
X128756489Y-111913729D01*
X128756486Y-111913729D01*
X128703353Y-111923002D01*
X128696829Y-111923965D01*
X128643309Y-111930442D01*
X128635765Y-111931355D01*
X128628655Y-111934042D01*
X128623752Y-111935246D01*
X128613266Y-111938114D01*
X128608474Y-111939561D01*
X128600996Y-111940866D01*
X128594044Y-111943918D01*
X128594043Y-111943918D01*
X128544656Y-111965596D01*
X128538551Y-111968087D01*
X128488125Y-111987142D01*
X128488119Y-111987145D01*
X128481011Y-111989831D01*
X128474747Y-111994137D01*
X128470251Y-111996487D01*
X128460819Y-112001737D01*
X128456473Y-112004307D01*
X128449514Y-112007362D01*
X128443484Y-112011989D01*
X128400691Y-112044824D01*
X128395366Y-112048693D01*
X128344674Y-112083534D01*
X128339623Y-112089203D01*
X128339622Y-112089204D01*
X128304768Y-112128323D01*
X128299787Y-112133598D01*
X127813595Y-112619790D01*
X127751283Y-112653816D01*
X127680468Y-112648751D01*
X127623632Y-112606204D01*
X127598821Y-112539684D01*
X127598500Y-112530695D01*
X127598500Y-112310305D01*
X127618502Y-112242184D01*
X127635405Y-112221210D01*
X129936210Y-109920405D01*
X129998522Y-109886379D01*
X130025305Y-109883500D01*
X132735617Y-109883500D01*
X132803738Y-109903502D01*
X132838829Y-109937228D01*
X132913802Y-110044300D01*
X133075700Y-110206198D01*
X133080208Y-110209355D01*
X133080211Y-110209357D01*
X133113170Y-110232435D01*
X133263251Y-110337523D01*
X133268233Y-110339846D01*
X133268238Y-110339849D01*
X133447920Y-110423635D01*
X133470757Y-110434284D01*
X133476065Y-110435706D01*
X133476067Y-110435707D01*
X133686598Y-110492119D01*
X133686600Y-110492119D01*
X133691913Y-110493543D01*
X133920000Y-110513498D01*
X134148087Y-110493543D01*
X134153400Y-110492119D01*
X134153402Y-110492119D01*
X134363933Y-110435707D01*
X134363935Y-110435706D01*
X134369243Y-110434284D01*
X134392080Y-110423635D01*
X134571762Y-110339849D01*
X134571767Y-110339846D01*
X134576749Y-110337523D01*
X134726830Y-110232435D01*
X134759789Y-110209357D01*
X134759792Y-110209355D01*
X134764300Y-110206198D01*
X134926198Y-110044300D01*
X135057523Y-109856749D01*
X135059846Y-109851767D01*
X135059849Y-109851762D01*
X135151961Y-109654225D01*
X135151961Y-109654224D01*
X135154284Y-109649243D01*
X135207172Y-109451866D01*
X135212119Y-109433402D01*
X135212119Y-109433400D01*
X135213543Y-109428087D01*
X135233498Y-109200000D01*
X135213543Y-108971913D01*
X135205028Y-108940135D01*
X135155707Y-108756067D01*
X135155706Y-108756065D01*
X135154284Y-108750757D01*
X135117372Y-108671598D01*
X135059849Y-108548238D01*
X135059846Y-108548233D01*
X135057523Y-108543251D01*
X134959936Y-108403883D01*
X134929357Y-108360211D01*
X134929355Y-108360208D01*
X134926198Y-108355700D01*
X134764300Y-108193802D01*
X134759792Y-108190645D01*
X134759789Y-108190643D01*
X134681611Y-108135902D01*
X134576749Y-108062477D01*
X134571767Y-108060154D01*
X134571762Y-108060151D01*
X134374225Y-107968039D01*
X134374224Y-107968039D01*
X134369243Y-107965716D01*
X134363935Y-107964294D01*
X134363933Y-107964293D01*
X134153402Y-107907881D01*
X134153400Y-107907881D01*
X134148087Y-107906457D01*
X133920000Y-107886502D01*
X133691913Y-107906457D01*
X133686600Y-107907881D01*
X133686598Y-107907881D01*
X133476067Y-107964293D01*
X133476065Y-107964294D01*
X133470757Y-107965716D01*
X133465776Y-107968039D01*
X133465775Y-107968039D01*
X133268238Y-108060151D01*
X133268233Y-108060154D01*
X133263251Y-108062477D01*
X133158389Y-108135902D01*
X133080211Y-108190643D01*
X133080208Y-108190645D01*
X133075700Y-108193802D01*
X132913802Y-108355700D01*
X132910645Y-108360209D01*
X132910643Y-108360211D01*
X132880064Y-108403883D01*
X132851243Y-108445044D01*
X132838830Y-108462771D01*
X132783373Y-108507099D01*
X132735617Y-108516500D01*
X129718045Y-108516500D01*
X129709476Y-108516208D01*
X129661542Y-108512940D01*
X129661538Y-108512940D01*
X129653966Y-108512424D01*
X129646489Y-108513729D01*
X129646486Y-108513729D01*
X129593353Y-108523002D01*
X129586829Y-108523965D01*
X129533309Y-108530442D01*
X129525765Y-108531355D01*
X129518655Y-108534042D01*
X129513752Y-108535246D01*
X129503266Y-108538114D01*
X129498474Y-108539561D01*
X129490996Y-108540866D01*
X129484044Y-108543918D01*
X129484043Y-108543918D01*
X129434659Y-108565595D01*
X129428554Y-108568086D01*
X129378118Y-108587145D01*
X129378115Y-108587147D01*
X129371011Y-108589831D01*
X129364754Y-108594131D01*
X129360286Y-108596467D01*
X129350840Y-108601725D01*
X129346474Y-108604307D01*
X129339515Y-108607362D01*
X129290696Y-108644823D01*
X129285377Y-108648686D01*
X129253809Y-108670383D01*
X129234674Y-108683534D01*
X129229623Y-108689203D01*
X129194768Y-108728323D01*
X129189787Y-108733598D01*
X126668790Y-111254595D01*
X126606478Y-111288621D01*
X126579695Y-111291500D01*
X125441866Y-111291500D01*
X125379684Y-111298255D01*
X125243295Y-111349385D01*
X125126739Y-111436739D01*
X125039385Y-111553295D01*
X125036233Y-111561704D01*
X125036232Y-111561705D01*
X124992037Y-111679596D01*
X124949396Y-111736361D01*
X124882834Y-111761061D01*
X124813486Y-111745854D01*
X124784960Y-111724462D01*
X124654300Y-111593802D01*
X124649792Y-111590645D01*
X124649789Y-111590643D01*
X124552009Y-111522177D01*
X124466749Y-111462477D01*
X124461767Y-111460154D01*
X124461762Y-111460151D01*
X124264225Y-111368039D01*
X124264224Y-111368039D01*
X124259243Y-111365716D01*
X124253935Y-111364294D01*
X124253933Y-111364293D01*
X124043402Y-111307881D01*
X124043400Y-111307881D01*
X124038087Y-111306457D01*
X123810000Y-111286502D01*
X123581913Y-111306457D01*
X123576600Y-111307881D01*
X123576598Y-111307881D01*
X123366067Y-111364293D01*
X123366065Y-111364294D01*
X123360757Y-111365716D01*
X123355776Y-111368039D01*
X123355775Y-111368039D01*
X123158238Y-111460151D01*
X123158233Y-111460154D01*
X123153251Y-111462477D01*
X123067991Y-111522177D01*
X122970211Y-111590643D01*
X122970208Y-111590645D01*
X122965700Y-111593802D01*
X122803802Y-111755700D01*
X122672477Y-111943251D01*
X122670154Y-111948233D01*
X122670151Y-111948238D01*
X122590373Y-112119324D01*
X122575716Y-112150757D01*
X122516457Y-112371913D01*
X122496502Y-112600000D01*
X122516457Y-112828087D01*
X122517881Y-112833400D01*
X122517881Y-112833402D01*
X122566018Y-113013048D01*
X122575716Y-113049243D01*
X122578037Y-113054220D01*
X122578039Y-113054226D01*
X122616754Y-113137250D01*
X122627415Y-113207442D01*
X122598435Y-113272255D01*
X122539015Y-113311111D01*
X122502559Y-113316500D01*
X119968901Y-113316500D01*
X119960331Y-113316208D01*
X119959288Y-113316137D01*
X119904811Y-113312423D01*
X119897334Y-113313728D01*
X119897331Y-113313728D01*
X119844187Y-113323003D01*
X119837664Y-113323966D01*
X119784153Y-113330442D01*
X119784152Y-113330442D01*
X119776610Y-113331355D01*
X119769500Y-113334041D01*
X119764597Y-113335246D01*
X119754111Y-113338114D01*
X119749319Y-113339561D01*
X119741841Y-113340866D01*
X119734889Y-113343918D01*
X119734888Y-113343918D01*
X119685504Y-113365595D01*
X119679399Y-113368086D01*
X119628963Y-113387145D01*
X119628960Y-113387147D01*
X119621856Y-113389831D01*
X119615599Y-113394131D01*
X119611131Y-113396467D01*
X119601685Y-113401725D01*
X119597319Y-113404307D01*
X119590360Y-113407362D01*
X119541541Y-113444823D01*
X119536222Y-113448686D01*
X119497524Y-113475283D01*
X119485519Y-113483534D01*
X119480468Y-113489203D01*
X119445613Y-113528323D01*
X119440632Y-113533598D01*
X116854518Y-116119712D01*
X116792206Y-116153738D01*
X116721391Y-116148673D01*
X116664555Y-116106126D01*
X116639744Y-116039606D01*
X116639423Y-116030617D01*
X116639423Y-115621788D01*
X116632668Y-115559606D01*
X116581538Y-115423217D01*
X116494184Y-115306661D01*
X116377628Y-115219307D01*
X116241239Y-115168177D01*
X116179057Y-115161422D01*
X113682789Y-115161422D01*
X113620607Y-115168177D01*
X113504061Y-115211868D01*
X113433255Y-115217051D01*
X113370886Y-115183130D01*
X113336756Y-115120875D01*
X113341703Y-115050051D01*
X113359432Y-115017755D01*
X113550881Y-114765292D01*
X113552064Y-114763488D01*
X113552072Y-114763477D01*
X113859164Y-114295277D01*
X113859165Y-114295276D01*
X113860338Y-114293487D01*
X113861380Y-114291634D01*
X113861389Y-114291619D01*
X114135816Y-113803551D01*
X114135823Y-113803538D01*
X114136877Y-113801663D01*
X114369304Y-113312940D01*
X114378284Y-113294057D01*
X114378285Y-113294056D01*
X114379208Y-113292114D01*
X114586201Y-112767216D01*
X114593645Y-112743761D01*
X114634559Y-112614854D01*
X114674231Y-112555976D01*
X114739438Y-112527893D01*
X114809476Y-112539522D01*
X114862108Y-112587170D01*
X114880176Y-112641989D01*
X114882803Y-112672022D01*
X114895977Y-112822606D01*
X114895978Y-112822611D01*
X114896457Y-112828087D01*
X114897881Y-112833400D01*
X114897881Y-112833402D01*
X114946018Y-113013048D01*
X114955716Y-113049243D01*
X114958039Y-113054224D01*
X114958039Y-113054225D01*
X115050151Y-113251762D01*
X115050154Y-113251767D01*
X115052477Y-113256749D01*
X115092374Y-113313728D01*
X115180381Y-113439414D01*
X115183802Y-113444300D01*
X115345700Y-113606198D01*
X115350208Y-113609355D01*
X115350211Y-113609357D01*
X115354724Y-113612517D01*
X115533251Y-113737523D01*
X115538233Y-113739846D01*
X115538238Y-113739849D01*
X115674849Y-113803551D01*
X115740757Y-113834284D01*
X115746065Y-113835706D01*
X115746067Y-113835707D01*
X115956598Y-113892119D01*
X115956600Y-113892119D01*
X115961913Y-113893543D01*
X116190000Y-113913498D01*
X116418087Y-113893543D01*
X116423400Y-113892119D01*
X116423402Y-113892119D01*
X116633933Y-113835707D01*
X116633935Y-113835706D01*
X116639243Y-113834284D01*
X116705151Y-113803551D01*
X116841762Y-113739849D01*
X116841767Y-113739846D01*
X116846749Y-113737523D01*
X117025276Y-113612517D01*
X117029789Y-113609357D01*
X117029792Y-113609355D01*
X117034300Y-113606198D01*
X117196198Y-113444300D01*
X117199620Y-113439414D01*
X117287626Y-113313728D01*
X117327523Y-113256749D01*
X117329846Y-113251767D01*
X117329849Y-113251762D01*
X117421961Y-113054225D01*
X117421961Y-113054224D01*
X117424284Y-113049243D01*
X117433983Y-113013048D01*
X117482119Y-112833402D01*
X117482119Y-112833400D01*
X117483543Y-112828087D01*
X117503498Y-112600000D01*
X117483543Y-112371913D01*
X117424284Y-112150757D01*
X117409627Y-112119324D01*
X117329849Y-111948238D01*
X117329846Y-111948233D01*
X117327523Y-111943251D01*
X117196198Y-111755700D01*
X117034300Y-111593802D01*
X117029792Y-111590645D01*
X117029789Y-111590643D01*
X116932009Y-111522177D01*
X116846749Y-111462477D01*
X116841767Y-111460154D01*
X116841762Y-111460151D01*
X116644225Y-111368039D01*
X116644224Y-111368039D01*
X116639243Y-111365716D01*
X116633935Y-111364294D01*
X116633933Y-111364293D01*
X116423402Y-111307881D01*
X116423400Y-111307881D01*
X116418087Y-111306457D01*
X116190000Y-111286502D01*
X115961913Y-111306457D01*
X115956600Y-111307881D01*
X115956598Y-111307881D01*
X115746067Y-111364293D01*
X115746065Y-111364294D01*
X115740757Y-111365716D01*
X115735776Y-111368039D01*
X115735775Y-111368039D01*
X115538238Y-111460151D01*
X115538233Y-111460154D01*
X115533251Y-111462477D01*
X115447991Y-111522177D01*
X115350211Y-111590643D01*
X115350208Y-111590645D01*
X115345700Y-111593802D01*
X115183802Y-111755700D01*
X115180645Y-111760208D01*
X115180643Y-111760211D01*
X115090304Y-111889229D01*
X115034847Y-111933557D01*
X114964228Y-111940866D01*
X114900867Y-111908835D01*
X114864882Y-111847634D01*
X114864674Y-111787126D01*
X114889968Y-111683333D01*
X114889971Y-111683321D01*
X114890482Y-111681222D01*
X114970399Y-111217715D01*
X114985985Y-111127318D01*
X114985986Y-111127311D01*
X114986352Y-111125188D01*
X115044053Y-110563909D01*
X115045092Y-110533512D01*
X115051787Y-110337523D01*
X115056260Y-110206573D01*
X115078577Y-110139175D01*
X115133788Y-110094541D01*
X115204366Y-110086842D01*
X115271282Y-110121780D01*
X115355700Y-110206198D01*
X115360208Y-110209355D01*
X115360211Y-110209357D01*
X115393170Y-110232435D01*
X115543251Y-110337523D01*
X115548233Y-110339846D01*
X115548238Y-110339849D01*
X115727920Y-110423635D01*
X115750757Y-110434284D01*
X115756065Y-110435706D01*
X115756067Y-110435707D01*
X115966598Y-110492119D01*
X115966600Y-110492119D01*
X115971913Y-110493543D01*
X116200000Y-110513498D01*
X116428087Y-110493543D01*
X116433400Y-110492119D01*
X116433402Y-110492119D01*
X116643933Y-110435707D01*
X116643935Y-110435706D01*
X116649243Y-110434284D01*
X116672080Y-110423635D01*
X116851762Y-110339849D01*
X116851767Y-110339846D01*
X116856749Y-110337523D01*
X117006830Y-110232435D01*
X117039789Y-110209357D01*
X117039792Y-110209355D01*
X117044300Y-110206198D01*
X117206198Y-110044300D01*
X117337523Y-109856749D01*
X117339846Y-109851767D01*
X117339849Y-109851762D01*
X117431961Y-109654225D01*
X117431961Y-109654224D01*
X117434284Y-109649243D01*
X117483245Y-109466522D01*
X122537273Y-109466522D01*
X122584764Y-109643761D01*
X122588510Y-109654053D01*
X122680586Y-109851511D01*
X122686069Y-109861007D01*
X122811028Y-110039467D01*
X122818084Y-110047875D01*
X122972125Y-110201916D01*
X122980533Y-110208972D01*
X123158993Y-110333931D01*
X123168489Y-110339414D01*
X123365947Y-110431490D01*
X123376239Y-110435236D01*
X123548503Y-110481394D01*
X123562599Y-110481058D01*
X123566000Y-110473116D01*
X123566000Y-110467967D01*
X124074000Y-110467967D01*
X124077973Y-110481498D01*
X124086522Y-110482727D01*
X124263761Y-110435236D01*
X124274053Y-110431490D01*
X124471511Y-110339414D01*
X124481007Y-110333931D01*
X124659467Y-110208972D01*
X124667875Y-110201916D01*
X124821916Y-110047875D01*
X124828972Y-110039467D01*
X124956482Y-109857364D01*
X125011939Y-109813036D01*
X125082559Y-109805727D01*
X125145919Y-109837758D01*
X125162906Y-109857362D01*
X125293802Y-110044300D01*
X125455700Y-110206198D01*
X125460208Y-110209355D01*
X125460211Y-110209357D01*
X125493170Y-110232435D01*
X125643251Y-110337523D01*
X125648233Y-110339846D01*
X125648238Y-110339849D01*
X125827920Y-110423635D01*
X125850757Y-110434284D01*
X125856065Y-110435706D01*
X125856067Y-110435707D01*
X126066598Y-110492119D01*
X126066600Y-110492119D01*
X126071913Y-110493543D01*
X126300000Y-110513498D01*
X126528087Y-110493543D01*
X126533400Y-110492119D01*
X126533402Y-110492119D01*
X126743933Y-110435707D01*
X126743935Y-110435706D01*
X126749243Y-110434284D01*
X126772080Y-110423635D01*
X126951762Y-110339849D01*
X126951767Y-110339846D01*
X126956749Y-110337523D01*
X127106830Y-110232435D01*
X127139789Y-110209357D01*
X127139792Y-110209355D01*
X127144300Y-110206198D01*
X127306198Y-110044300D01*
X127437523Y-109856749D01*
X127439846Y-109851767D01*
X127439849Y-109851762D01*
X127531961Y-109654225D01*
X127531961Y-109654224D01*
X127534284Y-109649243D01*
X127587172Y-109451866D01*
X127592119Y-109433402D01*
X127592119Y-109433400D01*
X127593543Y-109428087D01*
X127613498Y-109200000D01*
X127593543Y-108971913D01*
X127585028Y-108940135D01*
X127535707Y-108756067D01*
X127535706Y-108756065D01*
X127534284Y-108750757D01*
X127497372Y-108671598D01*
X127439849Y-108548238D01*
X127439846Y-108548233D01*
X127437523Y-108543251D01*
X127339936Y-108403883D01*
X127309357Y-108360211D01*
X127309355Y-108360208D01*
X127306198Y-108355700D01*
X127144300Y-108193802D01*
X127139792Y-108190645D01*
X127139789Y-108190643D01*
X127061611Y-108135902D01*
X126956749Y-108062477D01*
X126951767Y-108060154D01*
X126951762Y-108060151D01*
X126754225Y-107968039D01*
X126754224Y-107968039D01*
X126749243Y-107965716D01*
X126743935Y-107964294D01*
X126743933Y-107964293D01*
X126533402Y-107907881D01*
X126533400Y-107907881D01*
X126528087Y-107906457D01*
X126300000Y-107886502D01*
X126071913Y-107906457D01*
X126066600Y-107907881D01*
X126066598Y-107907881D01*
X125856067Y-107964293D01*
X125856065Y-107964294D01*
X125850757Y-107965716D01*
X125845776Y-107968039D01*
X125845775Y-107968039D01*
X125648238Y-108060151D01*
X125648233Y-108060154D01*
X125643251Y-108062477D01*
X125538389Y-108135902D01*
X125460211Y-108190643D01*
X125460208Y-108190645D01*
X125455700Y-108193802D01*
X125293802Y-108355700D01*
X125290645Y-108360208D01*
X125290643Y-108360211D01*
X125260064Y-108403883D01*
X125165459Y-108538993D01*
X125162908Y-108542636D01*
X125107451Y-108586964D01*
X125036832Y-108594273D01*
X124973471Y-108562242D01*
X124956482Y-108542636D01*
X124828972Y-108360533D01*
X124821916Y-108352125D01*
X124667875Y-108198084D01*
X124659467Y-108191028D01*
X124481007Y-108066069D01*
X124471511Y-108060586D01*
X124274053Y-107968510D01*
X124263761Y-107964764D01*
X124091497Y-107918606D01*
X124077401Y-107918942D01*
X124074000Y-107926884D01*
X124074000Y-110467967D01*
X123566000Y-110467967D01*
X123566000Y-109472115D01*
X123561525Y-109456876D01*
X123560135Y-109455671D01*
X123552452Y-109454000D01*
X122552033Y-109454000D01*
X122538502Y-109457973D01*
X122537273Y-109466522D01*
X117483245Y-109466522D01*
X117487172Y-109451866D01*
X117492119Y-109433402D01*
X117492119Y-109433400D01*
X117493543Y-109428087D01*
X117513498Y-109200000D01*
X117493543Y-108971913D01*
X117485028Y-108940135D01*
X117481911Y-108928503D01*
X122538606Y-108928503D01*
X122538942Y-108942599D01*
X122546884Y-108946000D01*
X123547885Y-108946000D01*
X123563124Y-108941525D01*
X123564329Y-108940135D01*
X123566000Y-108932452D01*
X123566000Y-107932033D01*
X123562027Y-107918502D01*
X123553478Y-107917273D01*
X123376239Y-107964764D01*
X123365947Y-107968510D01*
X123168489Y-108060586D01*
X123158993Y-108066069D01*
X122980533Y-108191028D01*
X122972125Y-108198084D01*
X122818084Y-108352125D01*
X122811028Y-108360533D01*
X122686069Y-108538993D01*
X122680586Y-108548489D01*
X122588510Y-108745947D01*
X122584764Y-108756239D01*
X122538606Y-108928503D01*
X117481911Y-108928503D01*
X117435707Y-108756067D01*
X117435706Y-108756065D01*
X117434284Y-108750757D01*
X117397372Y-108671598D01*
X117339849Y-108548238D01*
X117339846Y-108548233D01*
X117337523Y-108543251D01*
X117239936Y-108403883D01*
X117209357Y-108360211D01*
X117209355Y-108360208D01*
X117206198Y-108355700D01*
X117044300Y-108193802D01*
X117039792Y-108190645D01*
X117039789Y-108190643D01*
X116961611Y-108135902D01*
X116856749Y-108062477D01*
X116851767Y-108060154D01*
X116851762Y-108060151D01*
X116654225Y-107968039D01*
X116654224Y-107968039D01*
X116649243Y-107965716D01*
X116643935Y-107964294D01*
X116643933Y-107964293D01*
X116433402Y-107907881D01*
X116433400Y-107907881D01*
X116428087Y-107906457D01*
X116200000Y-107886502D01*
X115971913Y-107906457D01*
X115966600Y-107907881D01*
X115966598Y-107907881D01*
X115756067Y-107964293D01*
X115756065Y-107964294D01*
X115750757Y-107965716D01*
X115745776Y-107968039D01*
X115745775Y-107968039D01*
X115548238Y-108060151D01*
X115548233Y-108060154D01*
X115543251Y-108062477D01*
X115438389Y-108135902D01*
X115360211Y-108190643D01*
X115360208Y-108190645D01*
X115355700Y-108193802D01*
X115193802Y-108355700D01*
X115190645Y-108360209D01*
X115190639Y-108360216D01*
X115130939Y-108445477D01*
X115075482Y-108489806D01*
X115004863Y-108497115D01*
X114941502Y-108465085D01*
X114905517Y-108403883D01*
X114903558Y-108394616D01*
X114890850Y-108320910D01*
X114890848Y-108320899D01*
X114890482Y-108318778D01*
X114860027Y-108193802D01*
X114760663Y-107786062D01*
X137378493Y-107786062D01*
X137387789Y-107798077D01*
X137438994Y-107833931D01*
X137448489Y-107839414D01*
X137645947Y-107931490D01*
X137656239Y-107935236D01*
X137866688Y-107991625D01*
X137877481Y-107993528D01*
X138094525Y-108012517D01*
X138105475Y-108012517D01*
X138322519Y-107993528D01*
X138333312Y-107991625D01*
X138543761Y-107935236D01*
X138554053Y-107931490D01*
X138751511Y-107839414D01*
X138761006Y-107833931D01*
X138813048Y-107797491D01*
X138821424Y-107787012D01*
X138814356Y-107773566D01*
X138112812Y-107072022D01*
X138098868Y-107064408D01*
X138097035Y-107064539D01*
X138090420Y-107068790D01*
X137384923Y-107774287D01*
X137378493Y-107786062D01*
X114760663Y-107786062D01*
X114757405Y-107772692D01*
X114757403Y-107772684D01*
X114756891Y-107770584D01*
X114586201Y-107232784D01*
X114379208Y-106707886D01*
X114136877Y-106198337D01*
X114135823Y-106196462D01*
X114135816Y-106196449D01*
X113861389Y-105708381D01*
X113861380Y-105708366D01*
X113860338Y-105706513D01*
X113827966Y-105657158D01*
X113552072Y-105236523D01*
X113552064Y-105236512D01*
X113550881Y-105234708D01*
X113209948Y-104785120D01*
X112839129Y-104359847D01*
X112440153Y-103960871D01*
X112014880Y-103590052D01*
X111565292Y-103249119D01*
X111563488Y-103247936D01*
X111563477Y-103247928D01*
X111095277Y-102940836D01*
X111095276Y-102940835D01*
X111093487Y-102939662D01*
X111091634Y-102938620D01*
X111091619Y-102938611D01*
X110603551Y-102664184D01*
X110603538Y-102664177D01*
X110601663Y-102663123D01*
X110174075Y-102459771D01*
X110094057Y-102421716D01*
X110094056Y-102421715D01*
X110092114Y-102420792D01*
X109567216Y-102213799D01*
X109432390Y-102171007D01*
X109336128Y-102140455D01*
X109029416Y-102043109D01*
X109027316Y-102042597D01*
X109027308Y-102042595D01*
X108483333Y-101910032D01*
X108483321Y-101910029D01*
X108481222Y-101909518D01*
X108132317Y-101849361D01*
X107927318Y-101814015D01*
X107927311Y-101814014D01*
X107925188Y-101813648D01*
X107923029Y-101813426D01*
X107421615Y-101761879D01*
X107355897Y-101735016D01*
X107315135Y-101676887D01*
X107308500Y-101636540D01*
X107308500Y-100153839D01*
X113787173Y-100153839D01*
X113787397Y-100158505D01*
X113787397Y-100158511D01*
X113790158Y-100215978D01*
X113799713Y-100414908D01*
X113850704Y-100671256D01*
X113939026Y-100917252D01*
X113941242Y-100921376D01*
X114028411Y-101083606D01*
X114062737Y-101147491D01*
X114065532Y-101151234D01*
X114065534Y-101151237D01*
X114216330Y-101353177D01*
X114216335Y-101353183D01*
X114219122Y-101356915D01*
X114222431Y-101360195D01*
X114222436Y-101360201D01*
X114368026Y-101504525D01*
X114404743Y-101540923D01*
X114408505Y-101543681D01*
X114408508Y-101543684D01*
X114594383Y-101679973D01*
X114615524Y-101695474D01*
X114619667Y-101697654D01*
X114619669Y-101697655D01*
X114842684Y-101814989D01*
X114842689Y-101814991D01*
X114846834Y-101817172D01*
X114983897Y-101865037D01*
X115082351Y-101899419D01*
X115093590Y-101903344D01*
X115098183Y-101904216D01*
X115345785Y-101951224D01*
X115345788Y-101951224D01*
X115350374Y-101952095D01*
X115480959Y-101957226D01*
X115606875Y-101962174D01*
X115606881Y-101962174D01*
X115611543Y-101962357D01*
X115690977Y-101953657D01*
X115866707Y-101934412D01*
X115866712Y-101934411D01*
X115871360Y-101933902D01*
X115919329Y-101921273D01*
X116119594Y-101868548D01*
X116119596Y-101868547D01*
X116124117Y-101867357D01*
X116249128Y-101813648D01*
X116286571Y-101797561D01*
X116357056Y-101789049D01*
X116420953Y-101819994D01*
X116457977Y-101880573D01*
X116456372Y-101951551D01*
X116452506Y-101962054D01*
X116377697Y-102140455D01*
X116313359Y-102393783D01*
X116312891Y-102398434D01*
X116312890Y-102398438D01*
X116310639Y-102420792D01*
X116287173Y-102653839D01*
X116287397Y-102658505D01*
X116287397Y-102658511D01*
X116293128Y-102777818D01*
X116299713Y-102914908D01*
X116350704Y-103171256D01*
X116439026Y-103417252D01*
X116441242Y-103421376D01*
X116532636Y-103591469D01*
X116562737Y-103647491D01*
X116565532Y-103651234D01*
X116565534Y-103651237D01*
X116716330Y-103853177D01*
X116716335Y-103853183D01*
X116719122Y-103856915D01*
X116722431Y-103860195D01*
X116722436Y-103860201D01*
X116901426Y-104037635D01*
X116904743Y-104040923D01*
X116908505Y-104043681D01*
X116908508Y-104043684D01*
X117111750Y-104192707D01*
X117115524Y-104195474D01*
X117119667Y-104197654D01*
X117119669Y-104197655D01*
X117342684Y-104314989D01*
X117342689Y-104314991D01*
X117346834Y-104317172D01*
X117593590Y-104403344D01*
X117598183Y-104404216D01*
X117845785Y-104451224D01*
X117845788Y-104451224D01*
X117850374Y-104452095D01*
X117980958Y-104457226D01*
X118106875Y-104462174D01*
X118106881Y-104462174D01*
X118111543Y-104462357D01*
X118190977Y-104453657D01*
X118366707Y-104434412D01*
X118366712Y-104434411D01*
X118371360Y-104433902D01*
X118484116Y-104404216D01*
X118619594Y-104368548D01*
X118619596Y-104368547D01*
X118624117Y-104367357D01*
X118637855Y-104361455D01*
X118747204Y-104314474D01*
X118864262Y-104264182D01*
X119086519Y-104126646D01*
X119090082Y-104123629D01*
X119090087Y-104123626D01*
X119282439Y-103960787D01*
X119282440Y-103960786D01*
X119286005Y-103957768D01*
X119409894Y-103816500D01*
X119455257Y-103764774D01*
X119455261Y-103764769D01*
X119458339Y-103761259D01*
X119522376Y-103661703D01*
X119568463Y-103590052D01*
X119599733Y-103541437D01*
X119707083Y-103303129D01*
X119778030Y-103051572D01*
X119792117Y-102940836D01*
X119810616Y-102795421D01*
X119810616Y-102795417D01*
X119811014Y-102792291D01*
X119811255Y-102783116D01*
X119813348Y-102703160D01*
X119813431Y-102700000D01*
X119804226Y-102576132D01*
X119794407Y-102444000D01*
X119794406Y-102443996D01*
X119794061Y-102439348D01*
X119793019Y-102434740D01*
X119737408Y-102188980D01*
X119736377Y-102184423D01*
X119726390Y-102158741D01*
X119643340Y-101945176D01*
X119643339Y-101945173D01*
X119641647Y-101940823D01*
X119637692Y-101933902D01*
X119578428Y-101830213D01*
X119511951Y-101713902D01*
X119350138Y-101508643D01*
X119159763Y-101329557D01*
X118945009Y-101180576D01*
X118940816Y-101178508D01*
X118714781Y-101067040D01*
X118714776Y-101067038D01*
X118710593Y-101064975D01*
X118696851Y-101060576D01*
X118466123Y-100986720D01*
X118461665Y-100985293D01*
X118203693Y-100943279D01*
X118089942Y-100941790D01*
X117947022Y-100939919D01*
X117947019Y-100939919D01*
X117942345Y-100939858D01*
X117683362Y-100975104D01*
X117432433Y-101048243D01*
X117428180Y-101050203D01*
X117428179Y-101050204D01*
X117314710Y-101102514D01*
X117244473Y-101112869D01*
X117179787Y-101083606D01*
X117141190Y-101024018D01*
X117140937Y-100953021D01*
X117147077Y-100936337D01*
X117152296Y-100924751D01*
X117207083Y-100803129D01*
X117246851Y-100662125D01*
X117276760Y-100556076D01*
X117276761Y-100556073D01*
X117278030Y-100551572D01*
X117294840Y-100419435D01*
X117310616Y-100295421D01*
X117310616Y-100295417D01*
X117311014Y-100292291D01*
X117311098Y-100289108D01*
X117312682Y-100228606D01*
X117313431Y-100200000D01*
X117310001Y-100153839D01*
X121287173Y-100153839D01*
X121287397Y-100158505D01*
X121287397Y-100158511D01*
X121290158Y-100215978D01*
X121299713Y-100414908D01*
X121350704Y-100671256D01*
X121439026Y-100917252D01*
X121441242Y-100921376D01*
X121528411Y-101083606D01*
X121562737Y-101147491D01*
X121565532Y-101151234D01*
X121565534Y-101151237D01*
X121716330Y-101353177D01*
X121716335Y-101353183D01*
X121719122Y-101356915D01*
X121722431Y-101360195D01*
X121722436Y-101360201D01*
X121868026Y-101504525D01*
X121904743Y-101540923D01*
X121908505Y-101543681D01*
X121908508Y-101543684D01*
X121981161Y-101596955D01*
X122115006Y-101695094D01*
X122158113Y-101751504D01*
X122166500Y-101796705D01*
X122166500Y-101888309D01*
X122164949Y-101908021D01*
X122162850Y-101921273D01*
X122163195Y-101927860D01*
X122163195Y-101927864D01*
X122166327Y-101987616D01*
X122166500Y-101994211D01*
X122166500Y-102014072D01*
X122166844Y-102017343D01*
X122168576Y-102033825D01*
X122169093Y-102040394D01*
X122172570Y-102106737D01*
X122176042Y-102119695D01*
X122179645Y-102139138D01*
X122181046Y-102152468D01*
X122201578Y-102215660D01*
X122203444Y-102221962D01*
X122217773Y-102275438D01*
X122220638Y-102286129D01*
X122223634Y-102292008D01*
X122223637Y-102292017D01*
X122226728Y-102298083D01*
X122234292Y-102316345D01*
X122236392Y-102322809D01*
X122236395Y-102322817D01*
X122238436Y-102329097D01*
X122241738Y-102334816D01*
X122241740Y-102334821D01*
X122271654Y-102386633D01*
X122274787Y-102392403D01*
X122304953Y-102451605D01*
X122309109Y-102456737D01*
X122313391Y-102462025D01*
X122324589Y-102478318D01*
X122331296Y-102489935D01*
X122335713Y-102494841D01*
X122335717Y-102494846D01*
X122375747Y-102539304D01*
X122380031Y-102544320D01*
X122390441Y-102557175D01*
X122392528Y-102559752D01*
X122406573Y-102573797D01*
X122411114Y-102578582D01*
X122455566Y-102627951D01*
X122466426Y-102635841D01*
X122481454Y-102648678D01*
X125101322Y-105268546D01*
X125114159Y-105283574D01*
X125122049Y-105294434D01*
X125126959Y-105298855D01*
X125126960Y-105298856D01*
X125171418Y-105338886D01*
X125176203Y-105343427D01*
X125190248Y-105357472D01*
X125192822Y-105359556D01*
X125192825Y-105359559D01*
X125205680Y-105369969D01*
X125210696Y-105374253D01*
X125255154Y-105414283D01*
X125255159Y-105414287D01*
X125260065Y-105418704D01*
X125271331Y-105425209D01*
X125271682Y-105425411D01*
X125287975Y-105436609D01*
X125298395Y-105445047D01*
X125357597Y-105475213D01*
X125363367Y-105478346D01*
X125415179Y-105508260D01*
X125415184Y-105508262D01*
X125420903Y-105511564D01*
X125427183Y-105513605D01*
X125427191Y-105513608D01*
X125433655Y-105515708D01*
X125451917Y-105523272D01*
X125457989Y-105526365D01*
X125463871Y-105529362D01*
X125470243Y-105531069D01*
X125470242Y-105531069D01*
X125528047Y-105546558D01*
X125534346Y-105548424D01*
X125597532Y-105568954D01*
X125604101Y-105569644D01*
X125604108Y-105569646D01*
X125610879Y-105570358D01*
X125630308Y-105573958D01*
X125643263Y-105577429D01*
X125649859Y-105577775D01*
X125649861Y-105577775D01*
X125682663Y-105579494D01*
X125709587Y-105580905D01*
X125716146Y-105581421D01*
X125735928Y-105583500D01*
X125755808Y-105583500D01*
X125762403Y-105583673D01*
X125822136Y-105586804D01*
X125822140Y-105586804D01*
X125828727Y-105587149D01*
X125841974Y-105585051D01*
X125861684Y-105583500D01*
X136700874Y-105583500D01*
X136768995Y-105603502D01*
X136815488Y-105657158D01*
X136818856Y-105665270D01*
X136834318Y-105706513D01*
X136849385Y-105746705D01*
X136854771Y-105753891D01*
X136931355Y-105856078D01*
X136931358Y-105856081D01*
X136936739Y-105863261D01*
X136943919Y-105868642D01*
X136950270Y-105874993D01*
X136948128Y-105877135D01*
X136981564Y-105921846D01*
X136986594Y-105992664D01*
X136968477Y-106034035D01*
X136968818Y-106034232D01*
X136967048Y-106037298D01*
X136966701Y-106038090D01*
X136966071Y-106038989D01*
X136960586Y-106048489D01*
X136868510Y-106245947D01*
X136864764Y-106256239D01*
X136808375Y-106466688D01*
X136806472Y-106477481D01*
X136787483Y-106694525D01*
X136787483Y-106705475D01*
X136806472Y-106922519D01*
X136808375Y-106933312D01*
X136864764Y-107143761D01*
X136868510Y-107154053D01*
X136960586Y-107351511D01*
X136966069Y-107361006D01*
X137002509Y-107413048D01*
X137012988Y-107421424D01*
X137026434Y-107414356D01*
X138010905Y-106429885D01*
X138073217Y-106395859D01*
X138144032Y-106400924D01*
X138189095Y-106429885D01*
X139174287Y-107415077D01*
X139186062Y-107421507D01*
X139198077Y-107412211D01*
X139233931Y-107361006D01*
X139239414Y-107351511D01*
X139331490Y-107154053D01*
X139335236Y-107143761D01*
X139391625Y-106933312D01*
X139393528Y-106922519D01*
X139412517Y-106705475D01*
X139412517Y-106694525D01*
X139393528Y-106477481D01*
X139391625Y-106466688D01*
X139335236Y-106256239D01*
X139331490Y-106245947D01*
X139239414Y-106048489D01*
X139233929Y-106038989D01*
X139233299Y-106038090D01*
X139233144Y-106037630D01*
X139231182Y-106034232D01*
X139231865Y-106033838D01*
X139210612Y-105970816D01*
X139227898Y-105901956D01*
X139250934Y-105876197D01*
X139249730Y-105874993D01*
X139256081Y-105868642D01*
X139263261Y-105863261D01*
X139268642Y-105856081D01*
X139268645Y-105856078D01*
X139345229Y-105753891D01*
X139350615Y-105746705D01*
X139401745Y-105610316D01*
X139408500Y-105548134D01*
X139408500Y-103851866D01*
X139401745Y-103789684D01*
X139350615Y-103653295D01*
X139263261Y-103536739D01*
X139146705Y-103449385D01*
X139010316Y-103398255D01*
X138948134Y-103391500D01*
X137251866Y-103391500D01*
X137189684Y-103398255D01*
X137053295Y-103449385D01*
X136936739Y-103536739D01*
X136849385Y-103653295D01*
X136846233Y-103661703D01*
X136818856Y-103734730D01*
X136776214Y-103791494D01*
X136709652Y-103816194D01*
X136700874Y-103816500D01*
X129653667Y-103816500D01*
X129585546Y-103796498D01*
X129539053Y-103742842D01*
X129528949Y-103672568D01*
X129547696Y-103622337D01*
X129569304Y-103588745D01*
X129599733Y-103541437D01*
X129707083Y-103303129D01*
X129778030Y-103051572D01*
X129792117Y-102940836D01*
X129810616Y-102795421D01*
X129810616Y-102795417D01*
X129811014Y-102792291D01*
X129811255Y-102783116D01*
X129813348Y-102703160D01*
X129813431Y-102700000D01*
X129804226Y-102576132D01*
X129794407Y-102444000D01*
X129794406Y-102443996D01*
X129794061Y-102439348D01*
X129793019Y-102434740D01*
X129737408Y-102188980D01*
X129736377Y-102184423D01*
X129723951Y-102152468D01*
X129650555Y-101963730D01*
X129644508Y-101892991D01*
X129677665Y-101830213D01*
X129739498Y-101795326D01*
X129810378Y-101799408D01*
X129826641Y-101806548D01*
X129846834Y-101817172D01*
X129983897Y-101865037D01*
X130082351Y-101899419D01*
X130093590Y-101903344D01*
X130098183Y-101904216D01*
X130345785Y-101951224D01*
X130345788Y-101951224D01*
X130350374Y-101952095D01*
X130480959Y-101957226D01*
X130606875Y-101962174D01*
X130606881Y-101962174D01*
X130611543Y-101962357D01*
X130690977Y-101953657D01*
X130866707Y-101934412D01*
X130866712Y-101934411D01*
X130871360Y-101933902D01*
X130919329Y-101921273D01*
X131119594Y-101868548D01*
X131119596Y-101868547D01*
X131124117Y-101867357D01*
X131335540Y-101776522D01*
X134267273Y-101776522D01*
X134314764Y-101953761D01*
X134318510Y-101964053D01*
X134410586Y-102161511D01*
X134416069Y-102171007D01*
X134541028Y-102349467D01*
X134548084Y-102357875D01*
X134702125Y-102511916D01*
X134710533Y-102518972D01*
X134888993Y-102643931D01*
X134898489Y-102649414D01*
X135095947Y-102741490D01*
X135106239Y-102745236D01*
X135278503Y-102791394D01*
X135292599Y-102791058D01*
X135296000Y-102783116D01*
X135296000Y-102777967D01*
X135804000Y-102777967D01*
X135807973Y-102791498D01*
X135816522Y-102792727D01*
X135993761Y-102745236D01*
X136004053Y-102741490D01*
X136201511Y-102649414D01*
X136211007Y-102643931D01*
X136389467Y-102518972D01*
X136397875Y-102511916D01*
X136551916Y-102357875D01*
X136558972Y-102349467D01*
X136683931Y-102171007D01*
X136689414Y-102161511D01*
X136781490Y-101964053D01*
X136785236Y-101953761D01*
X136831394Y-101781497D01*
X136831058Y-101767401D01*
X136823116Y-101764000D01*
X135822115Y-101764000D01*
X135806876Y-101768475D01*
X135805671Y-101769865D01*
X135804000Y-101777548D01*
X135804000Y-102777967D01*
X135296000Y-102777967D01*
X135296000Y-101782115D01*
X135291525Y-101766876D01*
X135290135Y-101765671D01*
X135282452Y-101764000D01*
X134282033Y-101764000D01*
X134268502Y-101767973D01*
X134267273Y-101776522D01*
X131335540Y-101776522D01*
X131364262Y-101764182D01*
X131460448Y-101704661D01*
X131582547Y-101629104D01*
X131582548Y-101629104D01*
X131586519Y-101626646D01*
X131590082Y-101623629D01*
X131590087Y-101623626D01*
X131724307Y-101510000D01*
X139236502Y-101510000D01*
X139256457Y-101738087D01*
X139257881Y-101743400D01*
X139257881Y-101743402D01*
X139313717Y-101951781D01*
X139315716Y-101959243D01*
X139318039Y-101964224D01*
X139318039Y-101964225D01*
X139410151Y-102161762D01*
X139410154Y-102161767D01*
X139412477Y-102166749D01*
X139475595Y-102256891D01*
X139530163Y-102334821D01*
X139543802Y-102354300D01*
X139705700Y-102516198D01*
X139710208Y-102519355D01*
X139710211Y-102519357D01*
X139742192Y-102541750D01*
X139893251Y-102647523D01*
X139898233Y-102649846D01*
X139898238Y-102649849D01*
X140094317Y-102741281D01*
X140100757Y-102744284D01*
X140106065Y-102745706D01*
X140106067Y-102745707D01*
X140316598Y-102802119D01*
X140316600Y-102802119D01*
X140321913Y-102803543D01*
X140550000Y-102823498D01*
X140778087Y-102803543D01*
X140783400Y-102802119D01*
X140783402Y-102802119D01*
X140993933Y-102745707D01*
X140993935Y-102745706D01*
X140999243Y-102744284D01*
X141005683Y-102741281D01*
X141201762Y-102649849D01*
X141201767Y-102649846D01*
X141206749Y-102647523D01*
X141357808Y-102541750D01*
X141389789Y-102519357D01*
X141389792Y-102519355D01*
X141394300Y-102516198D01*
X141556198Y-102354300D01*
X141569838Y-102334821D01*
X141624405Y-102256891D01*
X141687523Y-102166749D01*
X141689846Y-102161767D01*
X141689849Y-102161762D01*
X141781961Y-101964225D01*
X141781961Y-101964224D01*
X141784284Y-101959243D01*
X141786284Y-101951781D01*
X141842119Y-101743402D01*
X141842119Y-101743400D01*
X141843543Y-101738087D01*
X141863498Y-101510000D01*
X141843543Y-101281913D01*
X141833244Y-101243478D01*
X141785707Y-101066067D01*
X141785706Y-101066065D01*
X141784284Y-101060757D01*
X141773176Y-101036936D01*
X141689849Y-100858238D01*
X141689846Y-100858233D01*
X141687523Y-100853251D01*
X141563080Y-100675528D01*
X141559357Y-100670211D01*
X141559355Y-100670208D01*
X141556198Y-100665700D01*
X141394300Y-100503802D01*
X141389792Y-100500645D01*
X141389789Y-100500643D01*
X141273812Y-100419435D01*
X141206749Y-100372477D01*
X141201767Y-100370154D01*
X141201762Y-100370151D01*
X141004225Y-100278039D01*
X141004224Y-100278039D01*
X140999243Y-100275716D01*
X140993935Y-100274294D01*
X140993933Y-100274293D01*
X140783402Y-100217881D01*
X140783400Y-100217881D01*
X140778087Y-100216457D01*
X140550000Y-100196502D01*
X140321913Y-100216457D01*
X140316600Y-100217881D01*
X140316598Y-100217881D01*
X140106067Y-100274293D01*
X140106065Y-100274294D01*
X140100757Y-100275716D01*
X140095776Y-100278039D01*
X140095775Y-100278039D01*
X139898238Y-100370151D01*
X139898233Y-100370154D01*
X139893251Y-100372477D01*
X139826188Y-100419435D01*
X139710211Y-100500643D01*
X139710208Y-100500645D01*
X139705700Y-100503802D01*
X139543802Y-100665700D01*
X139540645Y-100670208D01*
X139540643Y-100670211D01*
X139536920Y-100675528D01*
X139412477Y-100853251D01*
X139410154Y-100858233D01*
X139410151Y-100858238D01*
X139326824Y-101036936D01*
X139315716Y-101060757D01*
X139314294Y-101066065D01*
X139314293Y-101066067D01*
X139266756Y-101243478D01*
X139256457Y-101281913D01*
X139236502Y-101510000D01*
X131724307Y-101510000D01*
X131782439Y-101460787D01*
X131782440Y-101460786D01*
X131786005Y-101457768D01*
X131895632Y-101332763D01*
X131955257Y-101264774D01*
X131955261Y-101264769D01*
X131958339Y-101261259D01*
X131972976Y-101238503D01*
X134268606Y-101238503D01*
X134268942Y-101252599D01*
X134276884Y-101256000D01*
X135277885Y-101256000D01*
X135293124Y-101251525D01*
X135294329Y-101250135D01*
X135296000Y-101242452D01*
X135296000Y-101237885D01*
X135804000Y-101237885D01*
X135808475Y-101253124D01*
X135809865Y-101254329D01*
X135817548Y-101256000D01*
X136817967Y-101256000D01*
X136831498Y-101252027D01*
X136832727Y-101243478D01*
X136785236Y-101066239D01*
X136781490Y-101055947D01*
X136689414Y-100858489D01*
X136683931Y-100848993D01*
X136558972Y-100670533D01*
X136551916Y-100662125D01*
X136397875Y-100508084D01*
X136389467Y-100501028D01*
X136211007Y-100376069D01*
X136201511Y-100370586D01*
X136004053Y-100278510D01*
X135993761Y-100274764D01*
X135821497Y-100228606D01*
X135807401Y-100228942D01*
X135804000Y-100236884D01*
X135804000Y-101237885D01*
X135296000Y-101237885D01*
X135296000Y-100242033D01*
X135292027Y-100228502D01*
X135283478Y-100227273D01*
X135106239Y-100274764D01*
X135095947Y-100278510D01*
X134898489Y-100370586D01*
X134888993Y-100376069D01*
X134710533Y-100501028D01*
X134702125Y-100508084D01*
X134548084Y-100662125D01*
X134541028Y-100670533D01*
X134416069Y-100848993D01*
X134410586Y-100858489D01*
X134318510Y-101055947D01*
X134314764Y-101066239D01*
X134268606Y-101238503D01*
X131972976Y-101238503D01*
X132099733Y-101041437D01*
X132207083Y-100803129D01*
X132246851Y-100662125D01*
X132276760Y-100556076D01*
X132276761Y-100556073D01*
X132278030Y-100551572D01*
X132294840Y-100419435D01*
X132310616Y-100295421D01*
X132310616Y-100295417D01*
X132311014Y-100292291D01*
X132311098Y-100289108D01*
X132312682Y-100228606D01*
X132313431Y-100200000D01*
X132310001Y-100153839D01*
X143787173Y-100153839D01*
X143787397Y-100158505D01*
X143787397Y-100158511D01*
X143790158Y-100215978D01*
X143799713Y-100414908D01*
X143850704Y-100671256D01*
X143939026Y-100917252D01*
X143941242Y-100921376D01*
X144028411Y-101083606D01*
X144062737Y-101147491D01*
X144065532Y-101151234D01*
X144065534Y-101151237D01*
X144216330Y-101353177D01*
X144216335Y-101353183D01*
X144219122Y-101356915D01*
X144222431Y-101360195D01*
X144222436Y-101360201D01*
X144368026Y-101504525D01*
X144404743Y-101540923D01*
X144408505Y-101543681D01*
X144408508Y-101543684D01*
X144594383Y-101679973D01*
X144615524Y-101695474D01*
X144619667Y-101697654D01*
X144619669Y-101697655D01*
X144842684Y-101814989D01*
X144842689Y-101814991D01*
X144846834Y-101817172D01*
X144983897Y-101865037D01*
X145082351Y-101899419D01*
X145093590Y-101903344D01*
X145098183Y-101904216D01*
X145345785Y-101951224D01*
X145345788Y-101951224D01*
X145350374Y-101952095D01*
X145480959Y-101957226D01*
X145606875Y-101962174D01*
X145606881Y-101962174D01*
X145611543Y-101962357D01*
X145690977Y-101953657D01*
X145866707Y-101934412D01*
X145866712Y-101934411D01*
X145871360Y-101933902D01*
X145919329Y-101921273D01*
X146119594Y-101868548D01*
X146119596Y-101868547D01*
X146124117Y-101867357D01*
X146249128Y-101813648D01*
X146286571Y-101797561D01*
X146357056Y-101789049D01*
X146420953Y-101819994D01*
X146457977Y-101880573D01*
X146456372Y-101951551D01*
X146452506Y-101962054D01*
X146377697Y-102140455D01*
X146313359Y-102393783D01*
X146312891Y-102398434D01*
X146312890Y-102398438D01*
X146310639Y-102420792D01*
X146287173Y-102653839D01*
X146287397Y-102658505D01*
X146287397Y-102658511D01*
X146293128Y-102777818D01*
X146299713Y-102914908D01*
X146350704Y-103171256D01*
X146439026Y-103417252D01*
X146441242Y-103421376D01*
X146532636Y-103591469D01*
X146562737Y-103647491D01*
X146565532Y-103651234D01*
X146565534Y-103651237D01*
X146716330Y-103853177D01*
X146716335Y-103853183D01*
X146719122Y-103856915D01*
X146722431Y-103860195D01*
X146722436Y-103860201D01*
X146901426Y-104037635D01*
X146904743Y-104040923D01*
X146908505Y-104043681D01*
X146908508Y-104043684D01*
X147111750Y-104192707D01*
X147115524Y-104195474D01*
X147119667Y-104197654D01*
X147119669Y-104197655D01*
X147342684Y-104314989D01*
X147342689Y-104314991D01*
X147346834Y-104317172D01*
X147593590Y-104403344D01*
X147598183Y-104404216D01*
X147845785Y-104451224D01*
X147845788Y-104451224D01*
X147850374Y-104452095D01*
X147980958Y-104457226D01*
X148106875Y-104462174D01*
X148106881Y-104462174D01*
X148111543Y-104462357D01*
X148190977Y-104453657D01*
X148366707Y-104434412D01*
X148366712Y-104434411D01*
X148371360Y-104433902D01*
X148484116Y-104404216D01*
X148619594Y-104368548D01*
X148619596Y-104368547D01*
X148624117Y-104367357D01*
X148637855Y-104361455D01*
X148747204Y-104314474D01*
X148864262Y-104264182D01*
X149086519Y-104126646D01*
X149090082Y-104123629D01*
X149090087Y-104123626D01*
X149282439Y-103960787D01*
X149282440Y-103960786D01*
X149286005Y-103957768D01*
X149409894Y-103816500D01*
X149455257Y-103764774D01*
X149455261Y-103764769D01*
X149458339Y-103761259D01*
X149522376Y-103661703D01*
X149568463Y-103590052D01*
X149599733Y-103541437D01*
X149707083Y-103303129D01*
X149778030Y-103051572D01*
X149792117Y-102940836D01*
X149810616Y-102795421D01*
X149810616Y-102795417D01*
X149811014Y-102792291D01*
X149811255Y-102783116D01*
X149813348Y-102703160D01*
X149813431Y-102700000D01*
X149810001Y-102653839D01*
X156287173Y-102653839D01*
X156287397Y-102658505D01*
X156287397Y-102658511D01*
X156293128Y-102777818D01*
X156299713Y-102914908D01*
X156350704Y-103171256D01*
X156439026Y-103417252D01*
X156441242Y-103421376D01*
X156532636Y-103591469D01*
X156562737Y-103647491D01*
X156565532Y-103651234D01*
X156565534Y-103651237D01*
X156716330Y-103853177D01*
X156716335Y-103853183D01*
X156719122Y-103856915D01*
X156722431Y-103860195D01*
X156722436Y-103860201D01*
X156901426Y-104037635D01*
X156904743Y-104040923D01*
X156908505Y-104043681D01*
X156908508Y-104043684D01*
X157111750Y-104192707D01*
X157115524Y-104195474D01*
X157119667Y-104197654D01*
X157119669Y-104197655D01*
X157342684Y-104314989D01*
X157342689Y-104314991D01*
X157346834Y-104317172D01*
X157593590Y-104403344D01*
X157598183Y-104404216D01*
X157845785Y-104451224D01*
X157845788Y-104451224D01*
X157850374Y-104452095D01*
X157980958Y-104457226D01*
X158106875Y-104462174D01*
X158106881Y-104462174D01*
X158111543Y-104462357D01*
X158190977Y-104453657D01*
X158366707Y-104434412D01*
X158366712Y-104434411D01*
X158371360Y-104433902D01*
X158484116Y-104404216D01*
X158619594Y-104368548D01*
X158619596Y-104368547D01*
X158624117Y-104367357D01*
X158637855Y-104361455D01*
X158747204Y-104314474D01*
X158864262Y-104264182D01*
X159086519Y-104126646D01*
X159090082Y-104123629D01*
X159090087Y-104123626D01*
X159282439Y-103960787D01*
X159282440Y-103960786D01*
X159286005Y-103957768D01*
X159409894Y-103816500D01*
X159455257Y-103764774D01*
X159455261Y-103764769D01*
X159458339Y-103761259D01*
X159522376Y-103661703D01*
X159568463Y-103590052D01*
X159599733Y-103541437D01*
X159707083Y-103303129D01*
X159778030Y-103051572D01*
X159792117Y-102940836D01*
X159810616Y-102795421D01*
X159810616Y-102795417D01*
X159811014Y-102792291D01*
X159811255Y-102783116D01*
X159813348Y-102703160D01*
X159813431Y-102700000D01*
X159804226Y-102576132D01*
X159794407Y-102444000D01*
X159794406Y-102443996D01*
X159794061Y-102439348D01*
X159793019Y-102434740D01*
X159737408Y-102188980D01*
X159736377Y-102184423D01*
X159723951Y-102152468D01*
X159650555Y-101963730D01*
X159644508Y-101892991D01*
X159677665Y-101830213D01*
X159739498Y-101795326D01*
X159810378Y-101799408D01*
X159826641Y-101806548D01*
X159846834Y-101817172D01*
X159983897Y-101865037D01*
X160082351Y-101899419D01*
X160093590Y-101903344D01*
X160098183Y-101904216D01*
X160345785Y-101951224D01*
X160345788Y-101951224D01*
X160350374Y-101952095D01*
X160480959Y-101957226D01*
X160606875Y-101962174D01*
X160606881Y-101962174D01*
X160611543Y-101962357D01*
X160690977Y-101953657D01*
X160866707Y-101934412D01*
X160866712Y-101934411D01*
X160871360Y-101933902D01*
X160919329Y-101921273D01*
X161119594Y-101868548D01*
X161119596Y-101868547D01*
X161124117Y-101867357D01*
X161364262Y-101764182D01*
X161460448Y-101704661D01*
X161582547Y-101629104D01*
X161582548Y-101629104D01*
X161586519Y-101626646D01*
X161590082Y-101623629D01*
X161590087Y-101623626D01*
X161782439Y-101460787D01*
X161782440Y-101460786D01*
X161786005Y-101457768D01*
X161895632Y-101332763D01*
X161955257Y-101264774D01*
X161955261Y-101264769D01*
X161958339Y-101261259D01*
X162099733Y-101041437D01*
X162207083Y-100803129D01*
X162246851Y-100662125D01*
X162276760Y-100556076D01*
X162276761Y-100556073D01*
X162278030Y-100551572D01*
X162294840Y-100419435D01*
X162310616Y-100295421D01*
X162310616Y-100295417D01*
X162311014Y-100292291D01*
X162311098Y-100289108D01*
X162312682Y-100228606D01*
X162313431Y-100200000D01*
X162294061Y-99939348D01*
X162284825Y-99898528D01*
X162237408Y-99688980D01*
X162236377Y-99684423D01*
X162141647Y-99440823D01*
X162011951Y-99213902D01*
X161850138Y-99008643D01*
X161659763Y-98829557D01*
X161445009Y-98680576D01*
X161404644Y-98660670D01*
X161214781Y-98567040D01*
X161214778Y-98567039D01*
X161210593Y-98564975D01*
X161164449Y-98550204D01*
X160966123Y-98486720D01*
X160961665Y-98485293D01*
X160703693Y-98443279D01*
X160589942Y-98441790D01*
X160447022Y-98439919D01*
X160447019Y-98439919D01*
X160442345Y-98439858D01*
X160183362Y-98475104D01*
X159932433Y-98548243D01*
X159928180Y-98550203D01*
X159928179Y-98550204D01*
X159877888Y-98573389D01*
X159695072Y-98657668D01*
X159656067Y-98683241D01*
X159480404Y-98798410D01*
X159480399Y-98798414D01*
X159476491Y-98800976D01*
X159281494Y-98975018D01*
X159114363Y-99175970D01*
X158978771Y-99399419D01*
X158877697Y-99640455D01*
X158813359Y-99893783D01*
X158787173Y-100153839D01*
X158787397Y-100158505D01*
X158787397Y-100158511D01*
X158790158Y-100215978D01*
X158799713Y-100414908D01*
X158850704Y-100671256D01*
X158939026Y-100917252D01*
X158943056Y-100924753D01*
X158957680Y-100994225D01*
X158932422Y-101060576D01*
X158875301Y-101102739D01*
X158804452Y-101107327D01*
X158776340Y-101097398D01*
X158710593Y-101064975D01*
X158696851Y-101060576D01*
X158466123Y-100986720D01*
X158461665Y-100985293D01*
X158203693Y-100943279D01*
X158089942Y-100941790D01*
X157947022Y-100939919D01*
X157947019Y-100939919D01*
X157942345Y-100939858D01*
X157683362Y-100975104D01*
X157432433Y-101048243D01*
X157428180Y-101050203D01*
X157428179Y-101050204D01*
X157391659Y-101067040D01*
X157195072Y-101157668D01*
X157156067Y-101183241D01*
X156980404Y-101298410D01*
X156980399Y-101298414D01*
X156976491Y-101300976D01*
X156781494Y-101475018D01*
X156614363Y-101675970D01*
X156611934Y-101679973D01*
X156482672Y-101892991D01*
X156478771Y-101899419D01*
X156377697Y-102140455D01*
X156313359Y-102393783D01*
X156312891Y-102398434D01*
X156312890Y-102398438D01*
X156310639Y-102420792D01*
X156287173Y-102653839D01*
X149810001Y-102653839D01*
X149804226Y-102576132D01*
X149794407Y-102444000D01*
X149794406Y-102443996D01*
X149794061Y-102439348D01*
X149793019Y-102434740D01*
X149737408Y-102188980D01*
X149736377Y-102184423D01*
X149726390Y-102158741D01*
X149643340Y-101945176D01*
X149643339Y-101945173D01*
X149641647Y-101940823D01*
X149637692Y-101933902D01*
X149578428Y-101830213D01*
X149511951Y-101713902D01*
X149429358Y-101609133D01*
X152005612Y-101609133D01*
X152014325Y-101620653D01*
X152112018Y-101692284D01*
X152119928Y-101697227D01*
X152342890Y-101814533D01*
X152351453Y-101818256D01*
X152589304Y-101901318D01*
X152598313Y-101903732D01*
X152845842Y-101950727D01*
X152855098Y-101951781D01*
X153106857Y-101961673D01*
X153116171Y-101961347D01*
X153366615Y-101933920D01*
X153375792Y-101932219D01*
X153619431Y-101868074D01*
X153628251Y-101865037D01*
X153859736Y-101765583D01*
X153868008Y-101761276D01*
X154082249Y-101628700D01*
X154089188Y-101623658D01*
X154097518Y-101611019D01*
X154091456Y-101600666D01*
X153062812Y-100572022D01*
X153048868Y-100564408D01*
X153047035Y-100564539D01*
X153040420Y-100568790D01*
X152012270Y-101596940D01*
X152005612Y-101609133D01*
X149429358Y-101609133D01*
X149350138Y-101508643D01*
X149159763Y-101329557D01*
X148945009Y-101180576D01*
X148940816Y-101178508D01*
X148714781Y-101067040D01*
X148714776Y-101067038D01*
X148710593Y-101064975D01*
X148696851Y-101060576D01*
X148466123Y-100986720D01*
X148461665Y-100985293D01*
X148203693Y-100943279D01*
X148089942Y-100941790D01*
X147947022Y-100939919D01*
X147947019Y-100939919D01*
X147942345Y-100939858D01*
X147683362Y-100975104D01*
X147432433Y-101048243D01*
X147428180Y-101050203D01*
X147428179Y-101050204D01*
X147314710Y-101102514D01*
X147244473Y-101112869D01*
X147179787Y-101083606D01*
X147141190Y-101024018D01*
X147140937Y-100953021D01*
X147147077Y-100936337D01*
X147152296Y-100924751D01*
X147207083Y-100803129D01*
X147246851Y-100662125D01*
X147276760Y-100556076D01*
X147276761Y-100556073D01*
X147278030Y-100551572D01*
X147294840Y-100419435D01*
X147310616Y-100295421D01*
X147310616Y-100295417D01*
X147311014Y-100292291D01*
X147311098Y-100289108D01*
X147312682Y-100228606D01*
X147313431Y-100200000D01*
X147310349Y-100158523D01*
X151287898Y-100158523D01*
X151299987Y-100410175D01*
X151301124Y-100419435D01*
X151350274Y-100666535D01*
X151352768Y-100675528D01*
X151437900Y-100912639D01*
X151441700Y-100921174D01*
X151560946Y-101143101D01*
X151565957Y-101150968D01*
X151629446Y-101235990D01*
X151640704Y-101244439D01*
X151653123Y-101237667D01*
X152677978Y-100212812D01*
X152684356Y-100201132D01*
X153414408Y-100201132D01*
X153414539Y-100202965D01*
X153418790Y-100209580D01*
X154449913Y-101240703D01*
X154462293Y-101247463D01*
X154470634Y-101241219D01*
X154596765Y-101045127D01*
X154601212Y-101036936D01*
X154704691Y-100807222D01*
X154707882Y-100798455D01*
X154776269Y-100555976D01*
X154778129Y-100546834D01*
X154810116Y-100295396D01*
X154810597Y-100289108D01*
X154812847Y-100203160D01*
X154812696Y-100196851D01*
X154793912Y-99944074D01*
X154792536Y-99934868D01*
X154736929Y-99689126D01*
X154734205Y-99680215D01*
X154642888Y-99445392D01*
X154638877Y-99436983D01*
X154513854Y-99218240D01*
X154508643Y-99210514D01*
X154471391Y-99163261D01*
X154459466Y-99154790D01*
X154447934Y-99161276D01*
X153422022Y-100187188D01*
X153414408Y-100201132D01*
X152684356Y-100201132D01*
X152685592Y-100198868D01*
X152685461Y-100197035D01*
X152681210Y-100190420D01*
X151651321Y-99160531D01*
X151638013Y-99153264D01*
X151627974Y-99160386D01*
X151617761Y-99172666D01*
X151612346Y-99180258D01*
X151481646Y-99395646D01*
X151477408Y-99403963D01*
X151379981Y-99636299D01*
X151377020Y-99645149D01*
X151315006Y-99889331D01*
X151313384Y-99898528D01*
X151288143Y-100149198D01*
X151287898Y-100158523D01*
X147310349Y-100158523D01*
X147294061Y-99939348D01*
X147284825Y-99898528D01*
X147237408Y-99688980D01*
X147236377Y-99684423D01*
X147141647Y-99440823D01*
X147011951Y-99213902D01*
X146850138Y-99008643D01*
X146659763Y-98829557D01*
X146601017Y-98788803D01*
X152003216Y-98788803D01*
X152007789Y-98798579D01*
X153037188Y-99827978D01*
X153051132Y-99835592D01*
X153052965Y-99835461D01*
X153059580Y-99831210D01*
X154088419Y-98802371D01*
X154094803Y-98790681D01*
X154085391Y-98778570D01*
X153948593Y-98683670D01*
X153940565Y-98678942D01*
X153714593Y-98567505D01*
X153705960Y-98564017D01*
X153465998Y-98487205D01*
X153456938Y-98485029D01*
X153208260Y-98444529D01*
X153198973Y-98443717D01*
X152947053Y-98440419D01*
X152937742Y-98440989D01*
X152688097Y-98474964D01*
X152678978Y-98476902D01*
X152437098Y-98547404D01*
X152428367Y-98550667D01*
X152199558Y-98656151D01*
X152191406Y-98660670D01*
X152012353Y-98778062D01*
X152003216Y-98788803D01*
X146601017Y-98788803D01*
X146445009Y-98680576D01*
X146404644Y-98660670D01*
X146214781Y-98567040D01*
X146214778Y-98567039D01*
X146210593Y-98564975D01*
X146164449Y-98550204D01*
X145966123Y-98486720D01*
X145961665Y-98485293D01*
X145703693Y-98443279D01*
X145589942Y-98441790D01*
X145447022Y-98439919D01*
X145447019Y-98439919D01*
X145442345Y-98439858D01*
X145183362Y-98475104D01*
X144932433Y-98548243D01*
X144928180Y-98550203D01*
X144928179Y-98550204D01*
X144877888Y-98573389D01*
X144695072Y-98657668D01*
X144656067Y-98683241D01*
X144480404Y-98798410D01*
X144480399Y-98798414D01*
X144476491Y-98800976D01*
X144281494Y-98975018D01*
X144114363Y-99175970D01*
X143978771Y-99399419D01*
X143877697Y-99640455D01*
X143813359Y-99893783D01*
X143787173Y-100153839D01*
X132310001Y-100153839D01*
X132294061Y-99939348D01*
X132284825Y-99898528D01*
X132237408Y-99688980D01*
X132236377Y-99684423D01*
X132141647Y-99440823D01*
X132011951Y-99213902D01*
X131850138Y-99008643D01*
X131659763Y-98829557D01*
X131445009Y-98680576D01*
X131404644Y-98660670D01*
X131214781Y-98567040D01*
X131214778Y-98567039D01*
X131210593Y-98564975D01*
X131164449Y-98550204D01*
X130966123Y-98486720D01*
X130961665Y-98485293D01*
X130703693Y-98443279D01*
X130589942Y-98441790D01*
X130447022Y-98439919D01*
X130447019Y-98439919D01*
X130442345Y-98439858D01*
X130183362Y-98475104D01*
X129932433Y-98548243D01*
X129928180Y-98550203D01*
X129928179Y-98550204D01*
X129877888Y-98573389D01*
X129695072Y-98657668D01*
X129656067Y-98683241D01*
X129480404Y-98798410D01*
X129480399Y-98798414D01*
X129476491Y-98800976D01*
X129281494Y-98975018D01*
X129114363Y-99175970D01*
X128978771Y-99399419D01*
X128877697Y-99640455D01*
X128813359Y-99893783D01*
X128787173Y-100153839D01*
X128787397Y-100158505D01*
X128787397Y-100158511D01*
X128790158Y-100215978D01*
X128799713Y-100414908D01*
X128850704Y-100671256D01*
X128939026Y-100917252D01*
X128943056Y-100924753D01*
X128957680Y-100994225D01*
X128932422Y-101060576D01*
X128875301Y-101102739D01*
X128804452Y-101107327D01*
X128776340Y-101097398D01*
X128710593Y-101064975D01*
X128696851Y-101060576D01*
X128466123Y-100986720D01*
X128461665Y-100985293D01*
X128203693Y-100943279D01*
X128089942Y-100941790D01*
X127947022Y-100939919D01*
X127947019Y-100939919D01*
X127942345Y-100939858D01*
X127683362Y-100975104D01*
X127432433Y-101048243D01*
X127428180Y-101050203D01*
X127428179Y-101050204D01*
X127391659Y-101067040D01*
X127195072Y-101157668D01*
X127156067Y-101183241D01*
X126980404Y-101298410D01*
X126980399Y-101298414D01*
X126976491Y-101300976D01*
X126781494Y-101475018D01*
X126614363Y-101675970D01*
X126611934Y-101679973D01*
X126482672Y-101892991D01*
X126478771Y-101899419D01*
X126377697Y-102140455D01*
X126313359Y-102393783D01*
X126312891Y-102398434D01*
X126312890Y-102398438D01*
X126310639Y-102420792D01*
X126287173Y-102653839D01*
X126287397Y-102658505D01*
X126287397Y-102658511D01*
X126293128Y-102777818D01*
X126299713Y-102914908D01*
X126350704Y-103171256D01*
X126439026Y-103417252D01*
X126441242Y-103421376D01*
X126553802Y-103630862D01*
X126568425Y-103700336D01*
X126543167Y-103766688D01*
X126486045Y-103808850D01*
X126442810Y-103816500D01*
X126200382Y-103816500D01*
X126132261Y-103796498D01*
X126111287Y-103779595D01*
X124113909Y-101782217D01*
X124079883Y-101719905D01*
X124084948Y-101649090D01*
X124121592Y-101596955D01*
X124282439Y-101460787D01*
X124282440Y-101460786D01*
X124286005Y-101457768D01*
X124395632Y-101332763D01*
X124455257Y-101264774D01*
X124455261Y-101264769D01*
X124458339Y-101261259D01*
X124599733Y-101041437D01*
X124707083Y-100803129D01*
X124746851Y-100662125D01*
X124776760Y-100556076D01*
X124776761Y-100556073D01*
X124778030Y-100551572D01*
X124794840Y-100419435D01*
X124810616Y-100295421D01*
X124810616Y-100295417D01*
X124811014Y-100292291D01*
X124811098Y-100289108D01*
X124812682Y-100228606D01*
X124813431Y-100200000D01*
X124794061Y-99939348D01*
X124784825Y-99898528D01*
X124737408Y-99688980D01*
X124736377Y-99684423D01*
X124641647Y-99440823D01*
X124511951Y-99213902D01*
X124350138Y-99008643D01*
X124159763Y-98829557D01*
X123945009Y-98680576D01*
X123904644Y-98660670D01*
X123714781Y-98567040D01*
X123714778Y-98567039D01*
X123710593Y-98564975D01*
X123664449Y-98550204D01*
X123466123Y-98486720D01*
X123461665Y-98485293D01*
X123203693Y-98443279D01*
X123089942Y-98441790D01*
X122947022Y-98439919D01*
X122947019Y-98439919D01*
X122942345Y-98439858D01*
X122683362Y-98475104D01*
X122432433Y-98548243D01*
X122428180Y-98550203D01*
X122428179Y-98550204D01*
X122377888Y-98573389D01*
X122195072Y-98657668D01*
X122156067Y-98683241D01*
X121980404Y-98798410D01*
X121980399Y-98798414D01*
X121976491Y-98800976D01*
X121781494Y-98975018D01*
X121614363Y-99175970D01*
X121478771Y-99399419D01*
X121377697Y-99640455D01*
X121313359Y-99893783D01*
X121287173Y-100153839D01*
X117310001Y-100153839D01*
X117294061Y-99939348D01*
X117284825Y-99898528D01*
X117237408Y-99688980D01*
X117236377Y-99684423D01*
X117141647Y-99440823D01*
X117011951Y-99213902D01*
X116850138Y-99008643D01*
X116659763Y-98829557D01*
X116445009Y-98680576D01*
X116404644Y-98660670D01*
X116214781Y-98567040D01*
X116214778Y-98567039D01*
X116210593Y-98564975D01*
X116164449Y-98550204D01*
X115966123Y-98486720D01*
X115961665Y-98485293D01*
X115703693Y-98443279D01*
X115589942Y-98441790D01*
X115447022Y-98439919D01*
X115447019Y-98439919D01*
X115442345Y-98439858D01*
X115183362Y-98475104D01*
X114932433Y-98548243D01*
X114928180Y-98550203D01*
X114928179Y-98550204D01*
X114877888Y-98573389D01*
X114695072Y-98657668D01*
X114656067Y-98683241D01*
X114480404Y-98798410D01*
X114480399Y-98798414D01*
X114476491Y-98800976D01*
X114281494Y-98975018D01*
X114114363Y-99175970D01*
X113978771Y-99399419D01*
X113877697Y-99640455D01*
X113813359Y-99893783D01*
X113787173Y-100153839D01*
X107308500Y-100153839D01*
X107308500Y-93890000D01*
X134236502Y-93890000D01*
X134256457Y-94118087D01*
X134315716Y-94339243D01*
X134318039Y-94344224D01*
X134318039Y-94344225D01*
X134410151Y-94541762D01*
X134410154Y-94541767D01*
X134412477Y-94546749D01*
X134543802Y-94734300D01*
X134705700Y-94896198D01*
X134710208Y-94899355D01*
X134710211Y-94899357D01*
X134788389Y-94954098D01*
X134893251Y-95027523D01*
X134898233Y-95029846D01*
X134898238Y-95029849D01*
X135095775Y-95121961D01*
X135100757Y-95124284D01*
X135106065Y-95125706D01*
X135106067Y-95125707D01*
X135316598Y-95182119D01*
X135316600Y-95182119D01*
X135321913Y-95183543D01*
X135550000Y-95203498D01*
X135778087Y-95183543D01*
X135783400Y-95182119D01*
X135783402Y-95182119D01*
X135993933Y-95125707D01*
X135993935Y-95125706D01*
X135999243Y-95124284D01*
X136004225Y-95121961D01*
X136201762Y-95029849D01*
X136201767Y-95029846D01*
X136206749Y-95027523D01*
X136311611Y-94954098D01*
X136389789Y-94899357D01*
X136389792Y-94899355D01*
X136394300Y-94896198D01*
X136556198Y-94734300D01*
X136687523Y-94546749D01*
X136689846Y-94541767D01*
X136689849Y-94541762D01*
X136781961Y-94344225D01*
X136781961Y-94344224D01*
X136784284Y-94339243D01*
X136843543Y-94118087D01*
X136863498Y-93890000D01*
X139236502Y-93890000D01*
X139256457Y-94118087D01*
X139315716Y-94339243D01*
X139318039Y-94344224D01*
X139318039Y-94344225D01*
X139410151Y-94541762D01*
X139410154Y-94541767D01*
X139412477Y-94546749D01*
X139543802Y-94734300D01*
X139705700Y-94896198D01*
X139710208Y-94899355D01*
X139710211Y-94899357D01*
X139788389Y-94954098D01*
X139893251Y-95027523D01*
X139898233Y-95029846D01*
X139898238Y-95029849D01*
X140095775Y-95121961D01*
X140100757Y-95124284D01*
X140106065Y-95125706D01*
X140106067Y-95125707D01*
X140316598Y-95182119D01*
X140316600Y-95182119D01*
X140321913Y-95183543D01*
X140550000Y-95203498D01*
X140778087Y-95183543D01*
X140783400Y-95182119D01*
X140783402Y-95182119D01*
X140993933Y-95125707D01*
X140993935Y-95125706D01*
X140999243Y-95124284D01*
X141004225Y-95121961D01*
X141201762Y-95029849D01*
X141201767Y-95029846D01*
X141206749Y-95027523D01*
X141311611Y-94954098D01*
X141389789Y-94899357D01*
X141389792Y-94899355D01*
X141394300Y-94896198D01*
X141556198Y-94734300D01*
X141687523Y-94546749D01*
X141689846Y-94541767D01*
X141689849Y-94541762D01*
X141781961Y-94344225D01*
X141781961Y-94344224D01*
X141784284Y-94339243D01*
X141843543Y-94118087D01*
X141863498Y-93890000D01*
X141843543Y-93661913D01*
X141784284Y-93440757D01*
X141781961Y-93435775D01*
X141689849Y-93238238D01*
X141689846Y-93238233D01*
X141687523Y-93233251D01*
X141556198Y-93045700D01*
X141394300Y-92883802D01*
X141389792Y-92880645D01*
X141389789Y-92880643D01*
X141311611Y-92825902D01*
X141206749Y-92752477D01*
X141201767Y-92750154D01*
X141201762Y-92750151D01*
X141004225Y-92658039D01*
X141004224Y-92658039D01*
X140999243Y-92655716D01*
X140993935Y-92654294D01*
X140993933Y-92654293D01*
X140783402Y-92597881D01*
X140783400Y-92597881D01*
X140778087Y-92596457D01*
X140550000Y-92576502D01*
X140321913Y-92596457D01*
X140316600Y-92597881D01*
X140316598Y-92597881D01*
X140106067Y-92654293D01*
X140106065Y-92654294D01*
X140100757Y-92655716D01*
X140095776Y-92658039D01*
X140095775Y-92658039D01*
X139898238Y-92750151D01*
X139898233Y-92750154D01*
X139893251Y-92752477D01*
X139788389Y-92825902D01*
X139710211Y-92880643D01*
X139710208Y-92880645D01*
X139705700Y-92883802D01*
X139543802Y-93045700D01*
X139412477Y-93233251D01*
X139410154Y-93238233D01*
X139410151Y-93238238D01*
X139318039Y-93435775D01*
X139315716Y-93440757D01*
X139256457Y-93661913D01*
X139236502Y-93890000D01*
X136863498Y-93890000D01*
X136843543Y-93661913D01*
X136784284Y-93440757D01*
X136781961Y-93435775D01*
X136689849Y-93238238D01*
X136689846Y-93238233D01*
X136687523Y-93233251D01*
X136556198Y-93045700D01*
X136394300Y-92883802D01*
X136389792Y-92880645D01*
X136389789Y-92880643D01*
X136311611Y-92825902D01*
X136206749Y-92752477D01*
X136201767Y-92750154D01*
X136201762Y-92750151D01*
X136004225Y-92658039D01*
X136004224Y-92658039D01*
X135999243Y-92655716D01*
X135993935Y-92654294D01*
X135993933Y-92654293D01*
X135783402Y-92597881D01*
X135783400Y-92597881D01*
X135778087Y-92596457D01*
X135550000Y-92576502D01*
X135321913Y-92596457D01*
X135316600Y-92597881D01*
X135316598Y-92597881D01*
X135106067Y-92654293D01*
X135106065Y-92654294D01*
X135100757Y-92655716D01*
X135095776Y-92658039D01*
X135095775Y-92658039D01*
X134898238Y-92750151D01*
X134898233Y-92750154D01*
X134893251Y-92752477D01*
X134788389Y-92825902D01*
X134710211Y-92880643D01*
X134710208Y-92880645D01*
X134705700Y-92883802D01*
X134543802Y-93045700D01*
X134412477Y-93233251D01*
X134410154Y-93238233D01*
X134410151Y-93238238D01*
X134318039Y-93435775D01*
X134315716Y-93440757D01*
X134256457Y-93661913D01*
X134236502Y-93890000D01*
X107308500Y-93890000D01*
X107308500Y-90153839D01*
X116287173Y-90153839D01*
X116299713Y-90414908D01*
X116350704Y-90671256D01*
X116439026Y-90917252D01*
X116441242Y-90921376D01*
X116505753Y-91041437D01*
X116562737Y-91147491D01*
X116565532Y-91151234D01*
X116565534Y-91151237D01*
X116716330Y-91353177D01*
X116716335Y-91353183D01*
X116719122Y-91356915D01*
X116722431Y-91360195D01*
X116722436Y-91360201D01*
X116901426Y-91537635D01*
X116904743Y-91540923D01*
X116908505Y-91543681D01*
X116908508Y-91543684D01*
X117111750Y-91692707D01*
X117115524Y-91695474D01*
X117119667Y-91697654D01*
X117119669Y-91697655D01*
X117342684Y-91814989D01*
X117342689Y-91814991D01*
X117346834Y-91817172D01*
X117593590Y-91903344D01*
X117598183Y-91904216D01*
X117845785Y-91951224D01*
X117845788Y-91951224D01*
X117850374Y-91952095D01*
X117980958Y-91957226D01*
X118106875Y-91962174D01*
X118106881Y-91962174D01*
X118111543Y-91962357D01*
X118190977Y-91953657D01*
X118366707Y-91934412D01*
X118366712Y-91934411D01*
X118371360Y-91933902D01*
X118484116Y-91904216D01*
X118619594Y-91868548D01*
X118619596Y-91868547D01*
X118624117Y-91867357D01*
X118864262Y-91764182D01*
X119086519Y-91626646D01*
X119090082Y-91623629D01*
X119090087Y-91623626D01*
X119282439Y-91460787D01*
X119282440Y-91460786D01*
X119286005Y-91457768D01*
X119377729Y-91353177D01*
X119455257Y-91264774D01*
X119455261Y-91264769D01*
X119458339Y-91261259D01*
X119599733Y-91041437D01*
X119707083Y-90803129D01*
X119778030Y-90551572D01*
X119794832Y-90419496D01*
X119810616Y-90295421D01*
X119810616Y-90295417D01*
X119811014Y-90292291D01*
X119813431Y-90200000D01*
X119810001Y-90153839D01*
X126287173Y-90153839D01*
X126299713Y-90414908D01*
X126350704Y-90671256D01*
X126439026Y-90917252D01*
X126441242Y-90921376D01*
X126505753Y-91041437D01*
X126562737Y-91147491D01*
X126565532Y-91151234D01*
X126565534Y-91151237D01*
X126716330Y-91353177D01*
X126716335Y-91353183D01*
X126719122Y-91356915D01*
X126722431Y-91360195D01*
X126722436Y-91360201D01*
X126901426Y-91537635D01*
X126904743Y-91540923D01*
X126908505Y-91543681D01*
X126908508Y-91543684D01*
X127111750Y-91692707D01*
X127115524Y-91695474D01*
X127119667Y-91697654D01*
X127119669Y-91697655D01*
X127342684Y-91814989D01*
X127342689Y-91814991D01*
X127346834Y-91817172D01*
X127593590Y-91903344D01*
X127598183Y-91904216D01*
X127845785Y-91951224D01*
X127845788Y-91951224D01*
X127850374Y-91952095D01*
X127980958Y-91957226D01*
X128106875Y-91962174D01*
X128106881Y-91962174D01*
X128111543Y-91962357D01*
X128190977Y-91953657D01*
X128366707Y-91934412D01*
X128366712Y-91934411D01*
X128371360Y-91933902D01*
X128484116Y-91904216D01*
X128619594Y-91868548D01*
X128619596Y-91868547D01*
X128624117Y-91867357D01*
X128864262Y-91764182D01*
X129086519Y-91626646D01*
X129090082Y-91623629D01*
X129090087Y-91623626D01*
X129282439Y-91460787D01*
X129282440Y-91460786D01*
X129286005Y-91457768D01*
X129377729Y-91353177D01*
X129455257Y-91264774D01*
X129455261Y-91264769D01*
X129458339Y-91261259D01*
X129599733Y-91041437D01*
X129707083Y-90803129D01*
X129778030Y-90551572D01*
X129794832Y-90419496D01*
X129810616Y-90295421D01*
X129810616Y-90295417D01*
X129811014Y-90292291D01*
X129813431Y-90200000D01*
X129794061Y-89939348D01*
X129790676Y-89924385D01*
X129737408Y-89688980D01*
X129736377Y-89684423D01*
X129723382Y-89651005D01*
X129643340Y-89445176D01*
X129643339Y-89445173D01*
X129641647Y-89440823D01*
X129511951Y-89213902D01*
X129350138Y-89008643D01*
X129159763Y-88829557D01*
X128981117Y-88705625D01*
X128948851Y-88683241D01*
X128948848Y-88683239D01*
X128945009Y-88680576D01*
X128940816Y-88678508D01*
X128714781Y-88567040D01*
X128714778Y-88567039D01*
X128710593Y-88564975D01*
X128664449Y-88550204D01*
X128466123Y-88486720D01*
X128461665Y-88485293D01*
X128203693Y-88443279D01*
X128089942Y-88441790D01*
X127947022Y-88439919D01*
X127947019Y-88439919D01*
X127942345Y-88439858D01*
X127683362Y-88475104D01*
X127432433Y-88548243D01*
X127428180Y-88550203D01*
X127428179Y-88550204D01*
X127391659Y-88567040D01*
X127195072Y-88657668D01*
X127156067Y-88683241D01*
X126980404Y-88798410D01*
X126980399Y-88798414D01*
X126976491Y-88800976D01*
X126781494Y-88975018D01*
X126614363Y-89175970D01*
X126611934Y-89179973D01*
X126566237Y-89255280D01*
X126478771Y-89399419D01*
X126377697Y-89640455D01*
X126313359Y-89893783D01*
X126312891Y-89898434D01*
X126312890Y-89898438D01*
X126309735Y-89929771D01*
X126287173Y-90153839D01*
X119810001Y-90153839D01*
X119794061Y-89939348D01*
X119790676Y-89924385D01*
X119737408Y-89688980D01*
X119736377Y-89684423D01*
X119723382Y-89651005D01*
X119643340Y-89445176D01*
X119643339Y-89445173D01*
X119641647Y-89440823D01*
X119511951Y-89213902D01*
X119350138Y-89008643D01*
X119159763Y-88829557D01*
X118981117Y-88705625D01*
X118948851Y-88683241D01*
X118948848Y-88683239D01*
X118945009Y-88680576D01*
X118940816Y-88678508D01*
X118714781Y-88567040D01*
X118714778Y-88567039D01*
X118710593Y-88564975D01*
X118664449Y-88550204D01*
X118466123Y-88486720D01*
X118461665Y-88485293D01*
X118203693Y-88443279D01*
X118089942Y-88441790D01*
X117947022Y-88439919D01*
X117947019Y-88439919D01*
X117942345Y-88439858D01*
X117683362Y-88475104D01*
X117432433Y-88548243D01*
X117428180Y-88550203D01*
X117428179Y-88550204D01*
X117391659Y-88567040D01*
X117195072Y-88657668D01*
X117156067Y-88683241D01*
X116980404Y-88798410D01*
X116980399Y-88798414D01*
X116976491Y-88800976D01*
X116781494Y-88975018D01*
X116614363Y-89175970D01*
X116611934Y-89179973D01*
X116566237Y-89255280D01*
X116478771Y-89399419D01*
X116377697Y-89640455D01*
X116313359Y-89893783D01*
X116312891Y-89898434D01*
X116312890Y-89898438D01*
X116309735Y-89929771D01*
X116287173Y-90153839D01*
X107308500Y-90153839D01*
X107308500Y-88134500D01*
X107328502Y-88066379D01*
X107382158Y-88019886D01*
X107434500Y-88008500D01*
X136636901Y-88008500D01*
X136705022Y-88028502D01*
G37*
G04 #@! TD.AperFunction*
G04 #@! TA.AperFunction,Conductor*
G36*
X120888973Y-119485496D02*
G01*
X120945809Y-119528043D01*
X120959136Y-119550302D01*
X121011074Y-119661684D01*
X121011077Y-119661689D01*
X121013400Y-119666671D01*
X121086825Y-119771533D01*
X121124768Y-119825720D01*
X121144725Y-119854222D01*
X121306623Y-120016120D01*
X121311131Y-120019277D01*
X121311134Y-120019279D01*
X121347199Y-120044532D01*
X121494174Y-120147445D01*
X121499156Y-120149768D01*
X121499161Y-120149771D01*
X121533380Y-120165727D01*
X121586665Y-120212644D01*
X121606126Y-120280921D01*
X121585584Y-120348881D01*
X121533380Y-120394117D01*
X121499161Y-120410073D01*
X121499156Y-120410076D01*
X121494174Y-120412399D01*
X121473799Y-120426666D01*
X121311134Y-120540565D01*
X121311131Y-120540567D01*
X121306623Y-120543724D01*
X121144725Y-120705622D01*
X121141568Y-120710130D01*
X121141566Y-120710133D01*
X121101223Y-120767749D01*
X121013400Y-120893173D01*
X121011077Y-120898155D01*
X121011074Y-120898160D01*
X120934289Y-121062828D01*
X120916639Y-121100679D01*
X120915217Y-121105987D01*
X120915216Y-121105989D01*
X120877237Y-121247727D01*
X120857380Y-121321835D01*
X120837425Y-121549922D01*
X120857380Y-121778009D01*
X120858804Y-121783322D01*
X120858804Y-121783324D01*
X120890568Y-121901866D01*
X120916639Y-121999165D01*
X120918962Y-122004146D01*
X120918962Y-122004147D01*
X121011074Y-122201684D01*
X121011077Y-122201689D01*
X121013400Y-122206671D01*
X121056290Y-122267924D01*
X121139655Y-122386981D01*
X121144725Y-122394222D01*
X121306623Y-122556120D01*
X121311131Y-122559277D01*
X121311134Y-122559279D01*
X121320210Y-122565634D01*
X121494174Y-122687445D01*
X121499156Y-122689768D01*
X121499161Y-122689771D01*
X121533972Y-122706003D01*
X121587257Y-122752920D01*
X121606718Y-122821197D01*
X121586176Y-122889157D01*
X121533972Y-122934393D01*
X121499412Y-122950508D01*
X121489916Y-122955991D01*
X121311456Y-123080950D01*
X121303048Y-123088006D01*
X121149007Y-123242047D01*
X121141951Y-123250455D01*
X121016992Y-123428915D01*
X121011509Y-123438411D01*
X120919433Y-123635869D01*
X120915687Y-123646161D01*
X120869529Y-123818425D01*
X120869865Y-123832521D01*
X120877807Y-123835922D01*
X124218890Y-123835922D01*
X124232421Y-123831949D01*
X124233650Y-123823400D01*
X124186159Y-123646161D01*
X124182413Y-123635869D01*
X124090337Y-123438411D01*
X124084854Y-123428915D01*
X123959895Y-123250455D01*
X123952839Y-123242047D01*
X123798798Y-123088006D01*
X123790390Y-123080950D01*
X123611930Y-122955991D01*
X123602434Y-122950508D01*
X123567874Y-122934393D01*
X123514589Y-122887476D01*
X123495128Y-122819199D01*
X123515670Y-122751239D01*
X123567874Y-122706003D01*
X123602685Y-122689771D01*
X123602690Y-122689768D01*
X123607672Y-122687445D01*
X123781636Y-122565634D01*
X123790712Y-122559279D01*
X123790715Y-122559277D01*
X123795223Y-122556120D01*
X123957121Y-122394222D01*
X123962192Y-122386981D01*
X124000579Y-122332158D01*
X124032094Y-122287150D01*
X124087550Y-122242823D01*
X124135306Y-122233422D01*
X125463236Y-122233422D01*
X125531357Y-122253424D01*
X125577850Y-122307080D01*
X125587954Y-122377354D01*
X125558460Y-122441934D01*
X125538803Y-122460246D01*
X125436739Y-122536739D01*
X125349385Y-122653295D01*
X125298255Y-122789684D01*
X125291500Y-122851866D01*
X125291500Y-125348134D01*
X125298255Y-125410316D01*
X125349385Y-125546705D01*
X125436739Y-125663261D01*
X125553295Y-125750615D01*
X125689684Y-125801745D01*
X125751866Y-125808500D01*
X127289695Y-125808500D01*
X127357816Y-125828502D01*
X127378790Y-125845405D01*
X127534790Y-126001405D01*
X127568816Y-126063717D01*
X127563751Y-126134532D01*
X127521204Y-126191368D01*
X127454684Y-126216179D01*
X127445695Y-126216500D01*
X124045815Y-126216500D01*
X123977694Y-126196498D01*
X123971754Y-126192436D01*
X123862094Y-126112763D01*
X123862093Y-126112762D01*
X123856752Y-126108882D01*
X123850724Y-126106198D01*
X123850722Y-126106197D01*
X123688319Y-126033891D01*
X123688318Y-126033891D01*
X123682288Y-126031206D01*
X123585129Y-126010554D01*
X123501944Y-125992872D01*
X123501939Y-125992872D01*
X123495487Y-125991500D01*
X123304513Y-125991500D01*
X123298061Y-125992872D01*
X123298056Y-125992872D01*
X123214871Y-126010554D01*
X123117712Y-126031206D01*
X123111682Y-126033891D01*
X123111681Y-126033891D01*
X122949278Y-126106197D01*
X122949276Y-126106198D01*
X122943248Y-126108882D01*
X122788747Y-126221134D01*
X122660960Y-126363056D01*
X122565473Y-126528444D01*
X122506458Y-126710072D01*
X122505768Y-126716633D01*
X122505768Y-126716635D01*
X122489678Y-126869724D01*
X122486496Y-126900000D01*
X122487186Y-126906565D01*
X122504141Y-127067880D01*
X122506458Y-127089928D01*
X122512188Y-127107564D01*
X122542731Y-127201564D01*
X122544759Y-127272531D01*
X122508096Y-127333329D01*
X122444384Y-127364655D01*
X122422898Y-127366500D01*
X120035305Y-127366500D01*
X119967184Y-127346498D01*
X119946210Y-127329595D01*
X119788817Y-127172202D01*
X119754791Y-127109890D01*
X119752602Y-127096277D01*
X119751499Y-127085777D01*
X119743542Y-127010072D01*
X119684527Y-126828444D01*
X119589040Y-126663056D01*
X119545860Y-126615099D01*
X119465675Y-126526045D01*
X119465674Y-126526044D01*
X119461253Y-126521134D01*
X119376607Y-126459635D01*
X119329855Y-126425667D01*
X119286501Y-126369444D01*
X119280426Y-126298708D01*
X119314821Y-126234636D01*
X119368542Y-126180915D01*
X119383577Y-126168074D01*
X119389084Y-126164073D01*
X119389090Y-126164068D01*
X119394434Y-126160185D01*
X119406997Y-126146233D01*
X119438895Y-126110806D01*
X119443436Y-126106021D01*
X119457472Y-126091985D01*
X119469966Y-126076557D01*
X119474246Y-126071547D01*
X119514284Y-126027079D01*
X119514288Y-126027074D01*
X119518704Y-126022169D01*
X119525410Y-126010554D01*
X119536610Y-125994258D01*
X119540894Y-125988967D01*
X119545047Y-125983839D01*
X119575213Y-125924637D01*
X119578346Y-125918867D01*
X119608260Y-125867055D01*
X119608262Y-125867050D01*
X119611564Y-125861331D01*
X119613605Y-125855051D01*
X119613608Y-125855043D01*
X119615708Y-125848579D01*
X119623272Y-125830317D01*
X119626363Y-125824251D01*
X119626366Y-125824242D01*
X119629362Y-125818363D01*
X119646556Y-125754196D01*
X119648422Y-125747894D01*
X119668954Y-125684702D01*
X119670355Y-125671372D01*
X119673958Y-125651929D01*
X119677430Y-125638971D01*
X119678621Y-125616262D01*
X119680907Y-125572633D01*
X119681424Y-125566059D01*
X119681670Y-125563717D01*
X119683500Y-125546306D01*
X119683500Y-125526445D01*
X119683673Y-125519850D01*
X119686805Y-125460098D01*
X119686805Y-125460094D01*
X119687150Y-125453507D01*
X119685051Y-125440253D01*
X119683500Y-125420544D01*
X119683500Y-124356444D01*
X120868196Y-124356444D01*
X120915687Y-124533683D01*
X120919433Y-124543975D01*
X121011509Y-124741433D01*
X121016992Y-124750929D01*
X121141951Y-124929389D01*
X121149007Y-124937797D01*
X121303048Y-125091838D01*
X121311456Y-125098894D01*
X121489916Y-125223853D01*
X121499412Y-125229336D01*
X121696870Y-125321412D01*
X121707162Y-125325158D01*
X121917611Y-125381547D01*
X121928404Y-125383450D01*
X122091093Y-125397684D01*
X122096558Y-125397922D01*
X122278808Y-125397922D01*
X122294047Y-125393447D01*
X122295252Y-125392057D01*
X122296923Y-125384374D01*
X122296923Y-125379807D01*
X122804923Y-125379807D01*
X122809398Y-125395046D01*
X122810788Y-125396251D01*
X122818471Y-125397922D01*
X123005288Y-125397922D01*
X123010753Y-125397684D01*
X123173442Y-125383450D01*
X123184235Y-125381547D01*
X123394684Y-125325158D01*
X123404976Y-125321412D01*
X123602434Y-125229336D01*
X123611930Y-125223853D01*
X123790390Y-125098894D01*
X123798798Y-125091838D01*
X123952839Y-124937797D01*
X123959895Y-124929389D01*
X124084854Y-124750929D01*
X124090337Y-124741433D01*
X124182413Y-124543975D01*
X124186159Y-124533683D01*
X124232317Y-124361419D01*
X124231981Y-124347323D01*
X124224039Y-124343922D01*
X122823038Y-124343922D01*
X122807799Y-124348397D01*
X122806594Y-124349787D01*
X122804923Y-124357470D01*
X122804923Y-125379807D01*
X122296923Y-125379807D01*
X122296923Y-124362037D01*
X122292448Y-124346798D01*
X122291058Y-124345593D01*
X122283375Y-124343922D01*
X120882956Y-124343922D01*
X120869425Y-124347895D01*
X120868196Y-124356444D01*
X119683500Y-124356444D01*
X119683500Y-120638993D01*
X119703502Y-120570872D01*
X119720405Y-120549898D01*
X120755846Y-119514457D01*
X120818158Y-119480431D01*
X120888973Y-119485496D01*
G37*
G04 #@! TD.AperFunction*
G04 #@! TA.AperFunction,Conductor*
G36*
X151482816Y-122903502D02*
G01*
X151503790Y-122920405D01*
X151620240Y-123036855D01*
X151654266Y-123099167D01*
X151655761Y-123144570D01*
X151636688Y-123272196D01*
X151636661Y-123276673D01*
X151636005Y-123384050D01*
X151635813Y-123415417D01*
X151636148Y-123417861D01*
X151636271Y-123421656D01*
X151636271Y-123850000D01*
X151637406Y-123865869D01*
X151640125Y-123903879D01*
X151641500Y-123923111D01*
X151647668Y-123944115D01*
X151652167Y-123959438D01*
X151655988Y-124012868D01*
X151636271Y-124150000D01*
X151636271Y-124640008D01*
X151636269Y-124640778D01*
X151636141Y-124661805D01*
X151635813Y-124715417D01*
X151636422Y-124719861D01*
X151636422Y-124719865D01*
X151642593Y-124764917D01*
X151655294Y-124857637D01*
X151644722Y-124927840D01*
X151619555Y-124963830D01*
X151466541Y-125116844D01*
X151460276Y-125122698D01*
X151418330Y-125159290D01*
X151382934Y-125209655D01*
X151379022Y-125214920D01*
X151341065Y-125263328D01*
X151337939Y-125270252D01*
X151335329Y-125274561D01*
X151329958Y-125283976D01*
X151327573Y-125288424D01*
X151323205Y-125294639D01*
X151302324Y-125348197D01*
X151300858Y-125351957D01*
X151298306Y-125358029D01*
X151272986Y-125414105D01*
X151271600Y-125421582D01*
X151270090Y-125426402D01*
X151267121Y-125436824D01*
X151265871Y-125441694D01*
X151263111Y-125448772D01*
X151262634Y-125452397D01*
X151227182Y-125511960D01*
X151163651Y-125543652D01*
X151094807Y-125535289D01*
X151094598Y-125535932D01*
X151091315Y-125534865D01*
X151090204Y-125534730D01*
X151082288Y-125531206D01*
X151024812Y-125518989D01*
X150901944Y-125492872D01*
X150901939Y-125492872D01*
X150895487Y-125491500D01*
X150704513Y-125491500D01*
X150698061Y-125492872D01*
X150698056Y-125492872D01*
X150615596Y-125510400D01*
X150544805Y-125504998D01*
X150488173Y-125462181D01*
X150463679Y-125395544D01*
X150479100Y-125326242D01*
X150486186Y-125314882D01*
X150593931Y-125161006D01*
X150599414Y-125151511D01*
X150691490Y-124954053D01*
X150695236Y-124943761D01*
X150751625Y-124733312D01*
X150753528Y-124722519D01*
X150767762Y-124559830D01*
X150768000Y-124554365D01*
X150768000Y-124372115D01*
X150763525Y-124356876D01*
X150762135Y-124355671D01*
X150754452Y-124354000D01*
X149332000Y-124354000D01*
X149263879Y-124333998D01*
X149217386Y-124280342D01*
X149206000Y-124228000D01*
X149206000Y-123972000D01*
X149226002Y-123903879D01*
X149279658Y-123857386D01*
X149332000Y-123846000D01*
X150749885Y-123846000D01*
X150765124Y-123841525D01*
X150766329Y-123840135D01*
X150768000Y-123832452D01*
X150768000Y-123645635D01*
X150767762Y-123640170D01*
X150753528Y-123477481D01*
X150751625Y-123466688D01*
X150695236Y-123256239D01*
X150691490Y-123245947D01*
X150606064Y-123062750D01*
X150595403Y-122992558D01*
X150624383Y-122927745D01*
X150683803Y-122888889D01*
X150720259Y-122883500D01*
X151414695Y-122883500D01*
X151482816Y-122903502D01*
G37*
G04 #@! TD.AperFunction*
G04 #@! TA.AperFunction,Conductor*
G36*
X156019866Y-116850915D02*
G01*
X156076702Y-116893462D01*
X156101513Y-116959982D01*
X156086422Y-117029356D01*
X156079922Y-117039975D01*
X156078098Y-117042648D01*
X156073000Y-117051623D01*
X155983338Y-117244783D01*
X155979775Y-117254470D01*
X155924389Y-117454183D01*
X155925912Y-117462607D01*
X155938292Y-117466000D01*
X157388000Y-117466000D01*
X157456121Y-117486002D01*
X157502614Y-117539658D01*
X157514000Y-117592000D01*
X157514000Y-117848000D01*
X157493998Y-117916121D01*
X157440342Y-117962614D01*
X157388000Y-117974000D01*
X155943225Y-117974000D01*
X155929694Y-117977973D01*
X155928257Y-117987966D01*
X155958565Y-118122446D01*
X155961644Y-118132274D01*
X155966039Y-118143098D01*
X155973133Y-118213739D01*
X155940910Y-118277002D01*
X155879600Y-118312801D01*
X155849295Y-118316500D01*
X154755396Y-118316500D01*
X154687275Y-118296498D01*
X154640782Y-118242842D01*
X154630678Y-118172568D01*
X154661318Y-118106683D01*
X154670230Y-118096680D01*
X154675213Y-118091402D01*
X155886739Y-116879876D01*
X155949051Y-116845850D01*
X156019866Y-116850915D01*
G37*
G04 #@! TD.AperFunction*
M02*
