G04 #@! TF.GenerationSoftware,KiCad,Pcbnew,6.0.7+dfsg-1*
G04 #@! TF.CreationDate,2022-12-11T16:06:28-06:00*
G04 #@! TF.ProjectId,C64UserPortMidi,43363455-7365-4725-906f-72744d696469,V1.0 RevA*
G04 #@! TF.SameCoordinates,Original*
G04 #@! TF.FileFunction,Legend,Bot*
G04 #@! TF.FilePolarity,Positive*
%FSLAX46Y46*%
G04 Gerber Fmt 4.6, Leading zero omitted, Abs format (unit mm)*
G04 Created by KiCad (PCBNEW 6.0.7+dfsg-1) date 2022-12-11 16:06:28*
%MOMM*%
%LPD*%
G01*
G04 APERTURE LIST*
%ADD10C,0.120000*%
%ADD11C,0.200000*%
%ADD12C,0.150000*%
%ADD13C,0.010000*%
G04 APERTURE END LIST*
D10*
X133550000Y-92400000D02*
X112650000Y-92400000D01*
X112650000Y-97988000D02*
X133550000Y-97988000D01*
X133550000Y-97988000D02*
X133550000Y-92400000D01*
X112650000Y-92400000D02*
X112650000Y-97988000D01*
D11*
X126591619Y-93941142D02*
X126639238Y-93988761D01*
X126782095Y-94036380D01*
X126877333Y-94036380D01*
X127020190Y-93988761D01*
X127115428Y-93893523D01*
X127163047Y-93798285D01*
X127210666Y-93607809D01*
X127210666Y-93464952D01*
X127163047Y-93274476D01*
X127115428Y-93179238D01*
X127020190Y-93084000D01*
X126877333Y-93036380D01*
X126782095Y-93036380D01*
X126639238Y-93084000D01*
X126591619Y-93131619D01*
X126163047Y-94036380D02*
X126163047Y-93369714D01*
X126163047Y-93560190D02*
X126115428Y-93464952D01*
X126067809Y-93417333D01*
X125972571Y-93369714D01*
X125877333Y-93369714D01*
X125163047Y-93988761D02*
X125258285Y-94036380D01*
X125448761Y-94036380D01*
X125544000Y-93988761D01*
X125591619Y-93893523D01*
X125591619Y-93512571D01*
X125544000Y-93417333D01*
X125448761Y-93369714D01*
X125258285Y-93369714D01*
X125163047Y-93417333D01*
X125115428Y-93512571D01*
X125115428Y-93607809D01*
X125591619Y-93703047D01*
X124258285Y-94036380D02*
X124258285Y-93512571D01*
X124305904Y-93417333D01*
X124401142Y-93369714D01*
X124591619Y-93369714D01*
X124686857Y-93417333D01*
X124258285Y-93988761D02*
X124353523Y-94036380D01*
X124591619Y-94036380D01*
X124686857Y-93988761D01*
X124734476Y-93893523D01*
X124734476Y-93798285D01*
X124686857Y-93703047D01*
X124591619Y-93655428D01*
X124353523Y-93655428D01*
X124258285Y-93607809D01*
X123924952Y-93369714D02*
X123544000Y-93369714D01*
X123782095Y-93036380D02*
X123782095Y-93893523D01*
X123734476Y-93988761D01*
X123639238Y-94036380D01*
X123544000Y-94036380D01*
X122829714Y-93988761D02*
X122924952Y-94036380D01*
X123115428Y-94036380D01*
X123210666Y-93988761D01*
X123258285Y-93893523D01*
X123258285Y-93512571D01*
X123210666Y-93417333D01*
X123115428Y-93369714D01*
X122924952Y-93369714D01*
X122829714Y-93417333D01*
X122782095Y-93512571D01*
X122782095Y-93607809D01*
X123258285Y-93703047D01*
X121924952Y-94036380D02*
X121924952Y-93036380D01*
X121924952Y-93988761D02*
X122020190Y-94036380D01*
X122210666Y-94036380D01*
X122305904Y-93988761D01*
X122353523Y-93941142D01*
X122401142Y-93845904D01*
X122401142Y-93560190D01*
X122353523Y-93464952D01*
X122305904Y-93417333D01*
X122210666Y-93369714D01*
X122020190Y-93369714D01*
X121924952Y-93417333D01*
X120353523Y-93512571D02*
X120210666Y-93560190D01*
X120163047Y-93607809D01*
X120115428Y-93703047D01*
X120115428Y-93845904D01*
X120163047Y-93941142D01*
X120210666Y-93988761D01*
X120305904Y-94036380D01*
X120686857Y-94036380D01*
X120686857Y-93036380D01*
X120353523Y-93036380D01*
X120258285Y-93084000D01*
X120210666Y-93131619D01*
X120163047Y-93226857D01*
X120163047Y-93322095D01*
X120210666Y-93417333D01*
X120258285Y-93464952D01*
X120353523Y-93512571D01*
X120686857Y-93512571D01*
X119782095Y-93369714D02*
X119544000Y-94036380D01*
X119305904Y-93369714D02*
X119544000Y-94036380D01*
X119639238Y-94274476D01*
X119686857Y-94322095D01*
X119782095Y-94369714D01*
X118924952Y-93941142D02*
X118877333Y-93988761D01*
X118924952Y-94036380D01*
X118972571Y-93988761D01*
X118924952Y-93941142D01*
X118924952Y-94036380D01*
X118924952Y-93417333D02*
X118877333Y-93464952D01*
X118924952Y-93512571D01*
X118972571Y-93464952D01*
X118924952Y-93417333D01*
X118924952Y-93512571D01*
X130377333Y-95646380D02*
X130377333Y-94646380D01*
X130139238Y-94646380D01*
X129996380Y-94694000D01*
X129901142Y-94789238D01*
X129853523Y-94884476D01*
X129805904Y-95074952D01*
X129805904Y-95217809D01*
X129853523Y-95408285D01*
X129901142Y-95503523D01*
X129996380Y-95598761D01*
X130139238Y-95646380D01*
X130377333Y-95646380D01*
X128044000Y-95551142D02*
X128091619Y-95598761D01*
X128234476Y-95646380D01*
X128329714Y-95646380D01*
X128472571Y-95598761D01*
X128567809Y-95503523D01*
X128615428Y-95408285D01*
X128663047Y-95217809D01*
X128663047Y-95074952D01*
X128615428Y-94884476D01*
X128567809Y-94789238D01*
X128472571Y-94694000D01*
X128329714Y-94646380D01*
X128234476Y-94646380D01*
X128091619Y-94694000D01*
X128044000Y-94741619D01*
X127472571Y-95646380D02*
X127567809Y-95598761D01*
X127615428Y-95551142D01*
X127663047Y-95455904D01*
X127663047Y-95170190D01*
X127615428Y-95074952D01*
X127567809Y-95027333D01*
X127472571Y-94979714D01*
X127329714Y-94979714D01*
X127234476Y-95027333D01*
X127186857Y-95074952D01*
X127139238Y-95170190D01*
X127139238Y-95455904D01*
X127186857Y-95551142D01*
X127234476Y-95598761D01*
X127329714Y-95646380D01*
X127472571Y-95646380D01*
X126567809Y-95646380D02*
X126663047Y-95598761D01*
X126710666Y-95551142D01*
X126758285Y-95455904D01*
X126758285Y-95170190D01*
X126710666Y-95074952D01*
X126663047Y-95027333D01*
X126567809Y-94979714D01*
X126424952Y-94979714D01*
X126329714Y-95027333D01*
X126282095Y-95074952D01*
X126234476Y-95170190D01*
X126234476Y-95455904D01*
X126282095Y-95551142D01*
X126329714Y-95598761D01*
X126424952Y-95646380D01*
X126567809Y-95646380D01*
X125805904Y-94979714D02*
X125805904Y-95979714D01*
X125805904Y-95027333D02*
X125710666Y-94979714D01*
X125520190Y-94979714D01*
X125424952Y-95027333D01*
X125377333Y-95074952D01*
X125329714Y-95170190D01*
X125329714Y-95455904D01*
X125377333Y-95551142D01*
X125424952Y-95598761D01*
X125520190Y-95646380D01*
X125710666Y-95646380D01*
X125805904Y-95598761D01*
X124520190Y-95598761D02*
X124615428Y-95646380D01*
X124805904Y-95646380D01*
X124901142Y-95598761D01*
X124948761Y-95503523D01*
X124948761Y-95122571D01*
X124901142Y-95027333D01*
X124805904Y-94979714D01*
X124615428Y-94979714D01*
X124520190Y-95027333D01*
X124472571Y-95122571D01*
X124472571Y-95217809D01*
X124948761Y-95313047D01*
X124044000Y-95646380D02*
X124044000Y-94979714D01*
X124044000Y-95170190D02*
X123996380Y-95074952D01*
X123948761Y-95027333D01*
X123853523Y-94979714D01*
X123758285Y-94979714D01*
X122663047Y-95646380D02*
X122663047Y-94646380D01*
X122424952Y-94646380D01*
X122282095Y-94694000D01*
X122186857Y-94789238D01*
X122139238Y-94884476D01*
X122091619Y-95074952D01*
X122091619Y-95217809D01*
X122139238Y-95408285D01*
X122186857Y-95503523D01*
X122282095Y-95598761D01*
X122424952Y-95646380D01*
X122663047Y-95646380D01*
X121234476Y-95646380D02*
X121234476Y-95122571D01*
X121282095Y-95027333D01*
X121377333Y-94979714D01*
X121567809Y-94979714D01*
X121663047Y-95027333D01*
X121234476Y-95598761D02*
X121329714Y-95646380D01*
X121567809Y-95646380D01*
X121663047Y-95598761D01*
X121710666Y-95503523D01*
X121710666Y-95408285D01*
X121663047Y-95313047D01*
X121567809Y-95265428D01*
X121329714Y-95265428D01*
X121234476Y-95217809D01*
X120615428Y-95646380D02*
X120710666Y-95598761D01*
X120758285Y-95503523D01*
X120758285Y-94646380D01*
X120234476Y-95646380D02*
X120234476Y-94979714D01*
X120234476Y-95170190D02*
X120186857Y-95074952D01*
X120139238Y-95027333D01*
X120044000Y-94979714D01*
X119948761Y-94979714D01*
X119710666Y-94979714D02*
X119472571Y-95646380D01*
X119234476Y-94979714D02*
X119472571Y-95646380D01*
X119567809Y-95884476D01*
X119615428Y-95932095D01*
X119710666Y-95979714D01*
X118853523Y-95646380D02*
X118853523Y-94979714D01*
X118853523Y-95074952D02*
X118805904Y-95027333D01*
X118710666Y-94979714D01*
X118567809Y-94979714D01*
X118472571Y-95027333D01*
X118424952Y-95122571D01*
X118424952Y-95646380D01*
X118424952Y-95122571D02*
X118377333Y-95027333D01*
X118282095Y-94979714D01*
X118139238Y-94979714D01*
X118044000Y-95027333D01*
X117996380Y-95122571D01*
X117996380Y-95646380D01*
X117520190Y-94979714D02*
X117520190Y-95979714D01*
X117520190Y-95027333D02*
X117424952Y-94979714D01*
X117234476Y-94979714D01*
X117139238Y-95027333D01*
X117091619Y-95074952D01*
X117044000Y-95170190D01*
X117044000Y-95455904D01*
X117091619Y-95551142D01*
X117139238Y-95598761D01*
X117234476Y-95646380D01*
X117424952Y-95646380D01*
X117520190Y-95598761D01*
X116472571Y-95646380D02*
X116567809Y-95598761D01*
X116615428Y-95503523D01*
X116615428Y-94646380D01*
X115710666Y-95598761D02*
X115805904Y-95646380D01*
X115996380Y-95646380D01*
X116091619Y-95598761D01*
X116139238Y-95503523D01*
X116139238Y-95122571D01*
X116091619Y-95027333D01*
X115996380Y-94979714D01*
X115805904Y-94979714D01*
X115710666Y-95027333D01*
X115663047Y-95122571D01*
X115663047Y-95217809D01*
X116139238Y-95313047D01*
X132472571Y-97256380D02*
X133044000Y-97256380D01*
X132758285Y-97256380D02*
X132758285Y-96256380D01*
X132853523Y-96399238D01*
X132948761Y-96494476D01*
X133044000Y-96542095D01*
X132091619Y-96351619D02*
X132044000Y-96304000D01*
X131948761Y-96256380D01*
X131710666Y-96256380D01*
X131615428Y-96304000D01*
X131567809Y-96351619D01*
X131520190Y-96446857D01*
X131520190Y-96542095D01*
X131567809Y-96684952D01*
X132139238Y-97256380D01*
X131520190Y-97256380D01*
X131091619Y-96875428D02*
X130329714Y-96875428D01*
X129901142Y-96351619D02*
X129853523Y-96304000D01*
X129758285Y-96256380D01*
X129520190Y-96256380D01*
X129424952Y-96304000D01*
X129377333Y-96351619D01*
X129329714Y-96446857D01*
X129329714Y-96542095D01*
X129377333Y-96684952D01*
X129948761Y-97256380D01*
X129329714Y-97256380D01*
X128710666Y-96256380D02*
X128615428Y-96256380D01*
X128520190Y-96304000D01*
X128472571Y-96351619D01*
X128424952Y-96446857D01*
X128377333Y-96637333D01*
X128377333Y-96875428D01*
X128424952Y-97065904D01*
X128472571Y-97161142D01*
X128520190Y-97208761D01*
X128615428Y-97256380D01*
X128710666Y-97256380D01*
X128805904Y-97208761D01*
X128853523Y-97161142D01*
X128901142Y-97065904D01*
X128948761Y-96875428D01*
X128948761Y-96637333D01*
X128901142Y-96446857D01*
X128853523Y-96351619D01*
X128805904Y-96304000D01*
X128710666Y-96256380D01*
X127996380Y-96351619D02*
X127948761Y-96304000D01*
X127853523Y-96256380D01*
X127615428Y-96256380D01*
X127520190Y-96304000D01*
X127472571Y-96351619D01*
X127424952Y-96446857D01*
X127424952Y-96542095D01*
X127472571Y-96684952D01*
X128044000Y-97256380D01*
X127424952Y-97256380D01*
X127044000Y-96351619D02*
X126996380Y-96304000D01*
X126901142Y-96256380D01*
X126663047Y-96256380D01*
X126567809Y-96304000D01*
X126520190Y-96351619D01*
X126472571Y-96446857D01*
X126472571Y-96542095D01*
X126520190Y-96684952D01*
X127091619Y-97256380D01*
X126472571Y-97256380D01*
X124853523Y-97256380D02*
X124853523Y-96256380D01*
X124853523Y-97208761D02*
X124948761Y-97256380D01*
X125139238Y-97256380D01*
X125234476Y-97208761D01*
X125282095Y-97161142D01*
X125329714Y-97065904D01*
X125329714Y-96780190D01*
X125282095Y-96684952D01*
X125234476Y-96637333D01*
X125139238Y-96589714D01*
X124948761Y-96589714D01*
X124853523Y-96637333D01*
X123948761Y-97208761D02*
X124044000Y-97256380D01*
X124234476Y-97256380D01*
X124329714Y-97208761D01*
X124377333Y-97161142D01*
X124424952Y-97065904D01*
X124424952Y-96780190D01*
X124377333Y-96684952D01*
X124329714Y-96637333D01*
X124234476Y-96589714D01*
X124044000Y-96589714D01*
X123948761Y-96637333D01*
X123091619Y-97256380D02*
X123091619Y-96256380D01*
X123091619Y-97208761D02*
X123186857Y-97256380D01*
X123377333Y-97256380D01*
X123472571Y-97208761D01*
X123520190Y-97161142D01*
X123567809Y-97065904D01*
X123567809Y-96780190D01*
X123520190Y-96684952D01*
X123472571Y-96637333D01*
X123377333Y-96589714D01*
X123186857Y-96589714D01*
X123091619Y-96637333D01*
X122186857Y-97256380D02*
X122186857Y-96732571D01*
X122234476Y-96637333D01*
X122329714Y-96589714D01*
X122520190Y-96589714D01*
X122615428Y-96637333D01*
X122186857Y-97208761D02*
X122282095Y-97256380D01*
X122520190Y-97256380D01*
X122615428Y-97208761D01*
X122663047Y-97113523D01*
X122663047Y-97018285D01*
X122615428Y-96923047D01*
X122520190Y-96875428D01*
X122282095Y-96875428D01*
X122186857Y-96827809D01*
X121567809Y-97256380D02*
X121663047Y-97208761D01*
X121710666Y-97113523D01*
X121710666Y-96256380D01*
X121186857Y-97256380D02*
X121186857Y-96589714D01*
X121186857Y-96780190D02*
X121139238Y-96684952D01*
X121091619Y-96637333D01*
X120996380Y-96589714D01*
X120901142Y-96589714D01*
X120663047Y-96589714D02*
X120424952Y-97256380D01*
X120186857Y-96589714D02*
X120424952Y-97256380D01*
X120520190Y-97494476D01*
X120567809Y-97542095D01*
X120663047Y-97589714D01*
X119805904Y-97256380D02*
X119805904Y-96589714D01*
X119805904Y-96684952D02*
X119758285Y-96637333D01*
X119663047Y-96589714D01*
X119520190Y-96589714D01*
X119424952Y-96637333D01*
X119377333Y-96732571D01*
X119377333Y-97256380D01*
X119377333Y-96732571D02*
X119329714Y-96637333D01*
X119234476Y-96589714D01*
X119091619Y-96589714D01*
X118996380Y-96637333D01*
X118948761Y-96732571D01*
X118948761Y-97256380D01*
X118472571Y-96589714D02*
X118472571Y-97589714D01*
X118472571Y-96637333D02*
X118377333Y-96589714D01*
X118186857Y-96589714D01*
X118091619Y-96637333D01*
X118044000Y-96684952D01*
X117996380Y-96780190D01*
X117996380Y-97065904D01*
X118044000Y-97161142D01*
X118091619Y-97208761D01*
X118186857Y-97256380D01*
X118377333Y-97256380D01*
X118472571Y-97208761D01*
X117424952Y-97256380D02*
X117520190Y-97208761D01*
X117567809Y-97113523D01*
X117567809Y-96256380D01*
X116663047Y-97208761D02*
X116758285Y-97256380D01*
X116948761Y-97256380D01*
X117044000Y-97208761D01*
X117091619Y-97113523D01*
X117091619Y-96732571D01*
X117044000Y-96637333D01*
X116948761Y-96589714D01*
X116758285Y-96589714D01*
X116663047Y-96637333D01*
X116615428Y-96732571D01*
X116615428Y-96827809D01*
X117091619Y-96923047D01*
X116186857Y-97161142D02*
X116139238Y-97208761D01*
X116186857Y-97256380D01*
X116234476Y-97208761D01*
X116186857Y-97161142D01*
X116186857Y-97256380D01*
X115282095Y-97208761D02*
X115377333Y-97256380D01*
X115567809Y-97256380D01*
X115663047Y-97208761D01*
X115710666Y-97161142D01*
X115758285Y-97065904D01*
X115758285Y-96780190D01*
X115710666Y-96684952D01*
X115663047Y-96637333D01*
X115567809Y-96589714D01*
X115377333Y-96589714D01*
X115282095Y-96637333D01*
X114710666Y-97256380D02*
X114805904Y-97208761D01*
X114853523Y-97161142D01*
X114901142Y-97065904D01*
X114901142Y-96780190D01*
X114853523Y-96684952D01*
X114805904Y-96637333D01*
X114710666Y-96589714D01*
X114567809Y-96589714D01*
X114472571Y-96637333D01*
X114424952Y-96684952D01*
X114377333Y-96780190D01*
X114377333Y-97065904D01*
X114424952Y-97161142D01*
X114472571Y-97208761D01*
X114567809Y-97256380D01*
X114710666Y-97256380D01*
X113948761Y-97256380D02*
X113948761Y-96589714D01*
X113948761Y-96684952D02*
X113901142Y-96637333D01*
X113805904Y-96589714D01*
X113663047Y-96589714D01*
X113567809Y-96637333D01*
X113520190Y-96732571D01*
X113520190Y-97256380D01*
X113520190Y-96732571D02*
X113472571Y-96637333D01*
X113377333Y-96589714D01*
X113234476Y-96589714D01*
X113139238Y-96637333D01*
X113091619Y-96732571D01*
X113091619Y-97256380D01*
X148945238Y-119659738D02*
X148788095Y-119712119D01*
X148526190Y-119712119D01*
X148421428Y-119659738D01*
X148369047Y-119607357D01*
X148316666Y-119502595D01*
X148316666Y-119397833D01*
X148369047Y-119293071D01*
X148421428Y-119240690D01*
X148526190Y-119188309D01*
X148735714Y-119135928D01*
X148840476Y-119083547D01*
X148892857Y-119031166D01*
X148945238Y-118926404D01*
X148945238Y-118821642D01*
X148892857Y-118716880D01*
X148840476Y-118664500D01*
X148735714Y-118612119D01*
X148473809Y-118612119D01*
X148316666Y-118664500D01*
X147688095Y-119712119D02*
X147792857Y-119659738D01*
X147845238Y-119607357D01*
X147897619Y-119502595D01*
X147897619Y-119188309D01*
X147845238Y-119083547D01*
X147792857Y-119031166D01*
X147688095Y-118978785D01*
X147530952Y-118978785D01*
X147426190Y-119031166D01*
X147373809Y-119083547D01*
X147321428Y-119188309D01*
X147321428Y-119502595D01*
X147373809Y-119607357D01*
X147426190Y-119659738D01*
X147530952Y-119712119D01*
X147688095Y-119712119D01*
X147007142Y-118978785D02*
X146588095Y-118978785D01*
X146850000Y-119712119D02*
X146850000Y-118769261D01*
X146797619Y-118664500D01*
X146692857Y-118612119D01*
X146588095Y-118612119D01*
X146378571Y-118978785D02*
X145959523Y-118978785D01*
X146221428Y-118612119D02*
X146221428Y-119554976D01*
X146169047Y-119659738D01*
X146064285Y-119712119D01*
X145959523Y-119712119D01*
X145697619Y-118978785D02*
X145488095Y-119712119D01*
X145278571Y-119188309D01*
X145069047Y-119712119D01*
X144859523Y-118978785D01*
X143969047Y-119712119D02*
X143969047Y-119135928D01*
X144021428Y-119031166D01*
X144126190Y-118978785D01*
X144335714Y-118978785D01*
X144440476Y-119031166D01*
X143969047Y-119659738D02*
X144073809Y-119712119D01*
X144335714Y-119712119D01*
X144440476Y-119659738D01*
X144492857Y-119554976D01*
X144492857Y-119450214D01*
X144440476Y-119345452D01*
X144335714Y-119293071D01*
X144073809Y-119293071D01*
X143969047Y-119240690D01*
X143445238Y-119712119D02*
X143445238Y-118978785D01*
X143445238Y-119188309D02*
X143392857Y-119083547D01*
X143340476Y-119031166D01*
X143235714Y-118978785D01*
X143130952Y-118978785D01*
X142345238Y-119659738D02*
X142450000Y-119712119D01*
X142659523Y-119712119D01*
X142764285Y-119659738D01*
X142816666Y-119554976D01*
X142816666Y-119135928D01*
X142764285Y-119031166D01*
X142659523Y-118978785D01*
X142450000Y-118978785D01*
X142345238Y-119031166D01*
X142292857Y-119135928D01*
X142292857Y-119240690D01*
X142816666Y-119345452D01*
X140092857Y-119712119D02*
X140145238Y-119712119D01*
X140250000Y-119659738D01*
X140407142Y-119502595D01*
X140669047Y-119188309D01*
X140773809Y-119031166D01*
X140826190Y-118874023D01*
X140826190Y-118769261D01*
X140773809Y-118664500D01*
X140669047Y-118612119D01*
X140616666Y-118612119D01*
X140511904Y-118664500D01*
X140459523Y-118769261D01*
X140459523Y-118821642D01*
X140511904Y-118926404D01*
X140564285Y-118978785D01*
X140878571Y-119188309D01*
X140930952Y-119240690D01*
X140983333Y-119345452D01*
X140983333Y-119502595D01*
X140930952Y-119607357D01*
X140878571Y-119659738D01*
X140773809Y-119712119D01*
X140616666Y-119712119D01*
X140511904Y-119659738D01*
X140459523Y-119607357D01*
X140302380Y-119397833D01*
X140250000Y-119240690D01*
X140250000Y-119135928D01*
X138783333Y-119712119D02*
X138783333Y-118612119D01*
X138783333Y-119135928D02*
X138154761Y-119135928D01*
X138154761Y-119712119D02*
X138154761Y-118612119D01*
X137159523Y-119712119D02*
X137159523Y-119135928D01*
X137211904Y-119031166D01*
X137316666Y-118978785D01*
X137526190Y-118978785D01*
X137630952Y-119031166D01*
X137159523Y-119659738D02*
X137264285Y-119712119D01*
X137526190Y-119712119D01*
X137630952Y-119659738D01*
X137683333Y-119554976D01*
X137683333Y-119450214D01*
X137630952Y-119345452D01*
X137526190Y-119293071D01*
X137264285Y-119293071D01*
X137159523Y-119240690D01*
X136635714Y-119712119D02*
X136635714Y-118978785D01*
X136635714Y-119188309D02*
X136583333Y-119083547D01*
X136530952Y-119031166D01*
X136426190Y-118978785D01*
X136321428Y-118978785D01*
X135483333Y-119712119D02*
X135483333Y-118612119D01*
X135483333Y-119659738D02*
X135588095Y-119712119D01*
X135797619Y-119712119D01*
X135902380Y-119659738D01*
X135954761Y-119607357D01*
X136007142Y-119502595D01*
X136007142Y-119188309D01*
X135954761Y-119083547D01*
X135902380Y-119031166D01*
X135797619Y-118978785D01*
X135588095Y-118978785D01*
X135483333Y-119031166D01*
X135064285Y-118978785D02*
X134854761Y-119712119D01*
X134645238Y-119188309D01*
X134435714Y-119712119D01*
X134226190Y-118978785D01*
X133335714Y-119712119D02*
X133335714Y-119135928D01*
X133388095Y-119031166D01*
X133492857Y-118978785D01*
X133702380Y-118978785D01*
X133807142Y-119031166D01*
X133335714Y-119659738D02*
X133440476Y-119712119D01*
X133702380Y-119712119D01*
X133807142Y-119659738D01*
X133859523Y-119554976D01*
X133859523Y-119450214D01*
X133807142Y-119345452D01*
X133702380Y-119293071D01*
X133440476Y-119293071D01*
X133335714Y-119240690D01*
X132811904Y-119712119D02*
X132811904Y-118978785D01*
X132811904Y-119188309D02*
X132759523Y-119083547D01*
X132707142Y-119031166D01*
X132602380Y-118978785D01*
X132497619Y-118978785D01*
X131711904Y-119659738D02*
X131816666Y-119712119D01*
X132026190Y-119712119D01*
X132130952Y-119659738D01*
X132183333Y-119554976D01*
X132183333Y-119135928D01*
X132130952Y-119031166D01*
X132026190Y-118978785D01*
X131816666Y-118978785D01*
X131711904Y-119031166D01*
X131659523Y-119135928D01*
X131659523Y-119240690D01*
X132183333Y-119345452D01*
X130350000Y-119712119D02*
X130350000Y-118612119D01*
X129826190Y-118978785D02*
X129826190Y-119712119D01*
X129826190Y-119083547D02*
X129773809Y-119031166D01*
X129669047Y-118978785D01*
X129511904Y-118978785D01*
X129407142Y-119031166D01*
X129354761Y-119135928D01*
X129354761Y-119712119D01*
X128988095Y-118978785D02*
X128569047Y-118978785D01*
X128830952Y-119712119D02*
X128830952Y-118769261D01*
X128778571Y-118664500D01*
X128673809Y-118612119D01*
X128569047Y-118612119D01*
X128045238Y-119712119D02*
X128150000Y-119659738D01*
X128202380Y-119607357D01*
X128254761Y-119502595D01*
X128254761Y-119188309D01*
X128202380Y-119083547D01*
X128150000Y-119031166D01*
X128045238Y-118978785D01*
X127888095Y-118978785D01*
X127783333Y-119031166D01*
X127730952Y-119083547D01*
X127678571Y-119188309D01*
X127678571Y-119502595D01*
X127730952Y-119607357D01*
X127783333Y-119659738D01*
X127888095Y-119712119D01*
X128045238Y-119712119D01*
X127207142Y-119607357D02*
X127154761Y-119659738D01*
X127207142Y-119712119D01*
X127259523Y-119659738D01*
X127207142Y-119607357D01*
X127207142Y-119712119D01*
X127207142Y-119031166D02*
X127154761Y-119083547D01*
X127207142Y-119135928D01*
X127259523Y-119083547D01*
X127207142Y-119031166D01*
X127207142Y-119135928D01*
X151642857Y-121483119D02*
X151642857Y-120383119D01*
X151642857Y-121430738D02*
X151747619Y-121483119D01*
X151957142Y-121483119D01*
X152061904Y-121430738D01*
X152114285Y-121378357D01*
X152166666Y-121273595D01*
X152166666Y-120959309D01*
X152114285Y-120854547D01*
X152061904Y-120802166D01*
X151957142Y-120749785D01*
X151747619Y-120749785D01*
X151642857Y-120802166D01*
X150647619Y-121430738D02*
X150752380Y-121483119D01*
X150961904Y-121483119D01*
X151066666Y-121430738D01*
X151119047Y-121378357D01*
X151171428Y-121273595D01*
X151171428Y-120959309D01*
X151119047Y-120854547D01*
X151066666Y-120802166D01*
X150961904Y-120749785D01*
X150752380Y-120749785D01*
X150647619Y-120802166D01*
X149704761Y-121483119D02*
X149704761Y-120383119D01*
X149704761Y-121430738D02*
X149809523Y-121483119D01*
X150019047Y-121483119D01*
X150123809Y-121430738D01*
X150176190Y-121378357D01*
X150228571Y-121273595D01*
X150228571Y-120959309D01*
X150176190Y-120854547D01*
X150123809Y-120802166D01*
X150019047Y-120749785D01*
X149809523Y-120749785D01*
X149704761Y-120802166D01*
X148709523Y-121483119D02*
X148709523Y-120906928D01*
X148761904Y-120802166D01*
X148866666Y-120749785D01*
X149076190Y-120749785D01*
X149180952Y-120802166D01*
X148709523Y-121430738D02*
X148814285Y-121483119D01*
X149076190Y-121483119D01*
X149180952Y-121430738D01*
X149233333Y-121325976D01*
X149233333Y-121221214D01*
X149180952Y-121116452D01*
X149076190Y-121064071D01*
X148814285Y-121064071D01*
X148709523Y-121011690D01*
X148028571Y-121483119D02*
X148133333Y-121430738D01*
X148185714Y-121325976D01*
X148185714Y-120383119D01*
X147609523Y-121483119D02*
X147609523Y-120749785D01*
X147609523Y-120959309D02*
X147557142Y-120854547D01*
X147504761Y-120802166D01*
X147400000Y-120749785D01*
X147295238Y-120749785D01*
X147033333Y-120749785D02*
X146771428Y-121483119D01*
X146509523Y-120749785D02*
X146771428Y-121483119D01*
X146876190Y-121745023D01*
X146928571Y-121797404D01*
X147033333Y-121849785D01*
X146090476Y-121483119D02*
X146090476Y-120749785D01*
X146090476Y-120854547D02*
X146038095Y-120802166D01*
X145933333Y-120749785D01*
X145776190Y-120749785D01*
X145671428Y-120802166D01*
X145619047Y-120906928D01*
X145619047Y-121483119D01*
X145619047Y-120906928D02*
X145566666Y-120802166D01*
X145461904Y-120749785D01*
X145304761Y-120749785D01*
X145200000Y-120802166D01*
X145147619Y-120906928D01*
X145147619Y-121483119D01*
X144623809Y-120749785D02*
X144623809Y-121849785D01*
X144623809Y-120802166D02*
X144519047Y-120749785D01*
X144309523Y-120749785D01*
X144204761Y-120802166D01*
X144152380Y-120854547D01*
X144100000Y-120959309D01*
X144100000Y-121273595D01*
X144152380Y-121378357D01*
X144204761Y-121430738D01*
X144309523Y-121483119D01*
X144519047Y-121483119D01*
X144623809Y-121430738D01*
X143471428Y-121483119D02*
X143576190Y-121430738D01*
X143628571Y-121325976D01*
X143628571Y-120383119D01*
X142633333Y-121430738D02*
X142738095Y-121483119D01*
X142947619Y-121483119D01*
X143052380Y-121430738D01*
X143104761Y-121325976D01*
X143104761Y-120906928D01*
X143052380Y-120802166D01*
X142947619Y-120749785D01*
X142738095Y-120749785D01*
X142633333Y-120802166D01*
X142580952Y-120906928D01*
X142580952Y-121011690D01*
X143104761Y-121116452D01*
X142109523Y-121378357D02*
X142057142Y-121430738D01*
X142109523Y-121483119D01*
X142161904Y-121430738D01*
X142109523Y-121378357D01*
X142109523Y-121483119D01*
X141114285Y-121430738D02*
X141219047Y-121483119D01*
X141428571Y-121483119D01*
X141533333Y-121430738D01*
X141585714Y-121378357D01*
X141638095Y-121273595D01*
X141638095Y-120959309D01*
X141585714Y-120854547D01*
X141533333Y-120802166D01*
X141428571Y-120749785D01*
X141219047Y-120749785D01*
X141114285Y-120802166D01*
X140485714Y-121483119D02*
X140590476Y-121430738D01*
X140642857Y-121378357D01*
X140695238Y-121273595D01*
X140695238Y-120959309D01*
X140642857Y-120854547D01*
X140590476Y-120802166D01*
X140485714Y-120749785D01*
X140328571Y-120749785D01*
X140223809Y-120802166D01*
X140171428Y-120854547D01*
X140119047Y-120959309D01*
X140119047Y-121273595D01*
X140171428Y-121378357D01*
X140223809Y-121430738D01*
X140328571Y-121483119D01*
X140485714Y-121483119D01*
X139647619Y-121483119D02*
X139647619Y-120749785D01*
X139647619Y-120854547D02*
X139595238Y-120802166D01*
X139490476Y-120749785D01*
X139333333Y-120749785D01*
X139228571Y-120802166D01*
X139176190Y-120906928D01*
X139176190Y-121483119D01*
X139176190Y-120906928D02*
X139123809Y-120802166D01*
X139019047Y-120749785D01*
X138861904Y-120749785D01*
X138757142Y-120802166D01*
X138704761Y-120906928D01*
X138704761Y-121483119D01*
X137395238Y-120330738D02*
X138338095Y-121745023D01*
X136400000Y-121378357D02*
X136452380Y-121430738D01*
X136609523Y-121483119D01*
X136714285Y-121483119D01*
X136871428Y-121430738D01*
X136976190Y-121325976D01*
X137028571Y-121221214D01*
X137080952Y-121011690D01*
X137080952Y-120854547D01*
X137028571Y-120645023D01*
X136976190Y-120540261D01*
X136871428Y-120435500D01*
X136714285Y-120383119D01*
X136609523Y-120383119D01*
X136452380Y-120435500D01*
X136400000Y-120487880D01*
X135457142Y-120383119D02*
X135666666Y-120383119D01*
X135771428Y-120435500D01*
X135823809Y-120487880D01*
X135928571Y-120645023D01*
X135980952Y-120854547D01*
X135980952Y-121273595D01*
X135928571Y-121378357D01*
X135876190Y-121430738D01*
X135771428Y-121483119D01*
X135561904Y-121483119D01*
X135457142Y-121430738D01*
X135404761Y-121378357D01*
X135352380Y-121273595D01*
X135352380Y-121011690D01*
X135404761Y-120906928D01*
X135457142Y-120854547D01*
X135561904Y-120802166D01*
X135771428Y-120802166D01*
X135876190Y-120854547D01*
X135928571Y-120906928D01*
X135980952Y-121011690D01*
X134409523Y-120749785D02*
X134409523Y-121483119D01*
X134671428Y-120330738D02*
X134933333Y-121116452D01*
X134252380Y-121116452D01*
X133833333Y-120383119D02*
X133833333Y-121273595D01*
X133780952Y-121378357D01*
X133728571Y-121430738D01*
X133623809Y-121483119D01*
X133414285Y-121483119D01*
X133309523Y-121430738D01*
X133257142Y-121378357D01*
X133204761Y-121273595D01*
X133204761Y-120383119D01*
X132733333Y-121430738D02*
X132628571Y-121483119D01*
X132419047Y-121483119D01*
X132314285Y-121430738D01*
X132261904Y-121325976D01*
X132261904Y-121273595D01*
X132314285Y-121168833D01*
X132419047Y-121116452D01*
X132576190Y-121116452D01*
X132680952Y-121064071D01*
X132733333Y-120959309D01*
X132733333Y-120906928D01*
X132680952Y-120802166D01*
X132576190Y-120749785D01*
X132419047Y-120749785D01*
X132314285Y-120802166D01*
X131371428Y-121430738D02*
X131476190Y-121483119D01*
X131685714Y-121483119D01*
X131790476Y-121430738D01*
X131842857Y-121325976D01*
X131842857Y-120906928D01*
X131790476Y-120802166D01*
X131685714Y-120749785D01*
X131476190Y-120749785D01*
X131371428Y-120802166D01*
X131319047Y-120906928D01*
X131319047Y-121011690D01*
X131842857Y-121116452D01*
X130847619Y-121483119D02*
X130847619Y-120749785D01*
X130847619Y-120959309D02*
X130795238Y-120854547D01*
X130742857Y-120802166D01*
X130638095Y-120749785D01*
X130533333Y-120749785D01*
X130166666Y-121483119D02*
X130166666Y-120383119D01*
X129747619Y-120383119D01*
X129642857Y-120435500D01*
X129590476Y-120487880D01*
X129538095Y-120592642D01*
X129538095Y-120749785D01*
X129590476Y-120854547D01*
X129642857Y-120906928D01*
X129747619Y-120959309D01*
X130166666Y-120959309D01*
X128909523Y-121483119D02*
X129014285Y-121430738D01*
X129066666Y-121378357D01*
X129119047Y-121273595D01*
X129119047Y-120959309D01*
X129066666Y-120854547D01*
X129014285Y-120802166D01*
X128909523Y-120749785D01*
X128752380Y-120749785D01*
X128647619Y-120802166D01*
X128595238Y-120854547D01*
X128542857Y-120959309D01*
X128542857Y-121273595D01*
X128595238Y-121378357D01*
X128647619Y-121430738D01*
X128752380Y-121483119D01*
X128909523Y-121483119D01*
X128071428Y-121483119D02*
X128071428Y-120749785D01*
X128071428Y-120959309D02*
X128019047Y-120854547D01*
X127966666Y-120802166D01*
X127861904Y-120749785D01*
X127757142Y-120749785D01*
X127547619Y-120749785D02*
X127128571Y-120749785D01*
X127390476Y-120383119D02*
X127390476Y-121325976D01*
X127338095Y-121430738D01*
X127233333Y-121483119D01*
X127128571Y-121483119D01*
X126761904Y-121483119D02*
X126761904Y-120383119D01*
X126395238Y-121168833D01*
X126028571Y-120383119D01*
X126028571Y-121483119D01*
X125504761Y-121483119D02*
X125504761Y-120749785D01*
X125504761Y-120383119D02*
X125557142Y-120435500D01*
X125504761Y-120487880D01*
X125452380Y-120435500D01*
X125504761Y-120383119D01*
X125504761Y-120487880D01*
X124509523Y-121483119D02*
X124509523Y-120383119D01*
X124509523Y-121430738D02*
X124614285Y-121483119D01*
X124823809Y-121483119D01*
X124928571Y-121430738D01*
X124980952Y-121378357D01*
X125033333Y-121273595D01*
X125033333Y-120959309D01*
X124980952Y-120854547D01*
X124928571Y-120802166D01*
X124823809Y-120749785D01*
X124614285Y-120749785D01*
X124509523Y-120802166D01*
X123985714Y-121483119D02*
X123985714Y-120749785D01*
X123985714Y-120383119D02*
X124038095Y-120435500D01*
X123985714Y-120487880D01*
X123933333Y-120435500D01*
X123985714Y-120383119D01*
X123985714Y-120487880D01*
D12*
X157166666Y-93918571D02*
X157500000Y-93918571D01*
X157500000Y-94442380D02*
X157500000Y-93442380D01*
X157023809Y-93442380D01*
X156500000Y-94442380D02*
X156595238Y-94394761D01*
X156642857Y-94347142D01*
X156690476Y-94251904D01*
X156690476Y-93966190D01*
X156642857Y-93870952D01*
X156595238Y-93823333D01*
X156500000Y-93775714D01*
X156357142Y-93775714D01*
X156261904Y-93823333D01*
X156214285Y-93870952D01*
X156166666Y-93966190D01*
X156166666Y-94251904D01*
X156214285Y-94347142D01*
X156261904Y-94394761D01*
X156357142Y-94442380D01*
X156500000Y-94442380D01*
X155738095Y-94442380D02*
X155738095Y-93775714D01*
X155738095Y-93966190D02*
X155690476Y-93870952D01*
X155642857Y-93823333D01*
X155547619Y-93775714D01*
X155452380Y-93775714D01*
X153928571Y-93775714D02*
X153928571Y-94442380D01*
X154357142Y-93775714D02*
X154357142Y-94299523D01*
X154309523Y-94394761D01*
X154214285Y-94442380D01*
X154071428Y-94442380D01*
X153976190Y-94394761D01*
X153928571Y-94347142D01*
X153500000Y-94394761D02*
X153404761Y-94442380D01*
X153214285Y-94442380D01*
X153119047Y-94394761D01*
X153071428Y-94299523D01*
X153071428Y-94251904D01*
X153119047Y-94156666D01*
X153214285Y-94109047D01*
X153357142Y-94109047D01*
X153452380Y-94061428D01*
X153500000Y-93966190D01*
X153500000Y-93918571D01*
X153452380Y-93823333D01*
X153357142Y-93775714D01*
X153214285Y-93775714D01*
X153119047Y-93823333D01*
X152261904Y-94394761D02*
X152357142Y-94442380D01*
X152547619Y-94442380D01*
X152642857Y-94394761D01*
X152690476Y-94299523D01*
X152690476Y-93918571D01*
X152642857Y-93823333D01*
X152547619Y-93775714D01*
X152357142Y-93775714D01*
X152261904Y-93823333D01*
X152214285Y-93918571D01*
X152214285Y-94013809D01*
X152690476Y-94109047D01*
X151119047Y-93775714D02*
X150928571Y-94442380D01*
X150738095Y-93966190D01*
X150547619Y-94442380D01*
X150357142Y-93775714D01*
X149976190Y-94442380D02*
X149976190Y-93775714D01*
X149976190Y-93442380D02*
X150023809Y-93490000D01*
X149976190Y-93537619D01*
X149928571Y-93490000D01*
X149976190Y-93442380D01*
X149976190Y-93537619D01*
X149642857Y-93775714D02*
X149261904Y-93775714D01*
X149500000Y-93442380D02*
X149500000Y-94299523D01*
X149452380Y-94394761D01*
X149357142Y-94442380D01*
X149261904Y-94442380D01*
X148928571Y-94442380D02*
X148928571Y-93442380D01*
X148500000Y-94442380D02*
X148500000Y-93918571D01*
X148547619Y-93823333D01*
X148642857Y-93775714D01*
X148785714Y-93775714D01*
X148880952Y-93823333D01*
X148928571Y-93870952D01*
X157904761Y-95957142D02*
X157952380Y-96004761D01*
X158095238Y-96052380D01*
X158190476Y-96052380D01*
X158333333Y-96004761D01*
X158428571Y-95909523D01*
X158476190Y-95814285D01*
X158523809Y-95623809D01*
X158523809Y-95480952D01*
X158476190Y-95290476D01*
X158428571Y-95195238D01*
X158333333Y-95100000D01*
X158190476Y-95052380D01*
X158095238Y-95052380D01*
X157952380Y-95100000D01*
X157904761Y-95147619D01*
X157333333Y-96052380D02*
X157428571Y-96004761D01*
X157476190Y-95957142D01*
X157523809Y-95861904D01*
X157523809Y-95576190D01*
X157476190Y-95480952D01*
X157428571Y-95433333D01*
X157333333Y-95385714D01*
X157190476Y-95385714D01*
X157095238Y-95433333D01*
X157047619Y-95480952D01*
X157000000Y-95576190D01*
X157000000Y-95861904D01*
X157047619Y-95957142D01*
X157095238Y-96004761D01*
X157190476Y-96052380D01*
X157333333Y-96052380D01*
X156571428Y-96052380D02*
X156571428Y-95385714D01*
X156571428Y-95480952D02*
X156523809Y-95433333D01*
X156428571Y-95385714D01*
X156285714Y-95385714D01*
X156190476Y-95433333D01*
X156142857Y-95528571D01*
X156142857Y-96052380D01*
X156142857Y-95528571D02*
X156095238Y-95433333D01*
X156000000Y-95385714D01*
X155857142Y-95385714D01*
X155761904Y-95433333D01*
X155714285Y-95528571D01*
X155714285Y-96052380D01*
X155238095Y-96052380D02*
X155238095Y-95385714D01*
X155238095Y-95480952D02*
X155190476Y-95433333D01*
X155095238Y-95385714D01*
X154952380Y-95385714D01*
X154857142Y-95433333D01*
X154809523Y-95528571D01*
X154809523Y-96052380D01*
X154809523Y-95528571D02*
X154761904Y-95433333D01*
X154666666Y-95385714D01*
X154523809Y-95385714D01*
X154428571Y-95433333D01*
X154380952Y-95528571D01*
X154380952Y-96052380D01*
X153761904Y-96052380D02*
X153857142Y-96004761D01*
X153904761Y-95957142D01*
X153952380Y-95861904D01*
X153952380Y-95576190D01*
X153904761Y-95480952D01*
X153857142Y-95433333D01*
X153761904Y-95385714D01*
X153619047Y-95385714D01*
X153523809Y-95433333D01*
X153476190Y-95480952D01*
X153428571Y-95576190D01*
X153428571Y-95861904D01*
X153476190Y-95957142D01*
X153523809Y-96004761D01*
X153619047Y-96052380D01*
X153761904Y-96052380D01*
X152571428Y-96052380D02*
X152571428Y-95052380D01*
X152571428Y-96004761D02*
X152666666Y-96052380D01*
X152857142Y-96052380D01*
X152952380Y-96004761D01*
X153000000Y-95957142D01*
X153047619Y-95861904D01*
X153047619Y-95576190D01*
X153000000Y-95480952D01*
X152952380Y-95433333D01*
X152857142Y-95385714D01*
X152666666Y-95385714D01*
X152571428Y-95433333D01*
X151952380Y-96052380D02*
X152047619Y-96004761D01*
X152095238Y-95957142D01*
X152142857Y-95861904D01*
X152142857Y-95576190D01*
X152095238Y-95480952D01*
X152047619Y-95433333D01*
X151952380Y-95385714D01*
X151809523Y-95385714D01*
X151714285Y-95433333D01*
X151666666Y-95480952D01*
X151619047Y-95576190D01*
X151619047Y-95861904D01*
X151666666Y-95957142D01*
X151714285Y-96004761D01*
X151809523Y-96052380D01*
X151952380Y-96052380D01*
X151190476Y-96052380D02*
X151190476Y-95385714D01*
X151190476Y-95576190D02*
X151142857Y-95480952D01*
X151095238Y-95433333D01*
X151000000Y-95385714D01*
X150904761Y-95385714D01*
X150190476Y-96004761D02*
X150285714Y-96052380D01*
X150476190Y-96052380D01*
X150571428Y-96004761D01*
X150619047Y-95909523D01*
X150619047Y-95528571D01*
X150571428Y-95433333D01*
X150476190Y-95385714D01*
X150285714Y-95385714D01*
X150190476Y-95433333D01*
X150142857Y-95528571D01*
X150142857Y-95623809D01*
X150619047Y-95719047D01*
X148523809Y-95052380D02*
X148714285Y-95052380D01*
X148809523Y-95100000D01*
X148857142Y-95147619D01*
X148952380Y-95290476D01*
X149000000Y-95480952D01*
X149000000Y-95861904D01*
X148952380Y-95957142D01*
X148904761Y-96004761D01*
X148809523Y-96052380D01*
X148619047Y-96052380D01*
X148523809Y-96004761D01*
X148476190Y-95957142D01*
X148428571Y-95861904D01*
X148428571Y-95623809D01*
X148476190Y-95528571D01*
X148523809Y-95480952D01*
X148619047Y-95433333D01*
X148809523Y-95433333D01*
X148904761Y-95480952D01*
X148952380Y-95528571D01*
X149000000Y-95623809D01*
X147571428Y-95385714D02*
X147571428Y-96052380D01*
X147809523Y-95004761D02*
X148047619Y-95719047D01*
X147428571Y-95719047D01*
X160452380Y-97614761D02*
X160547619Y-97662380D01*
X160738095Y-97662380D01*
X160833333Y-97614761D01*
X160880952Y-97567142D01*
X160928571Y-97471904D01*
X160928571Y-97186190D01*
X160880952Y-97090952D01*
X160833333Y-97043333D01*
X160738095Y-96995714D01*
X160547619Y-96995714D01*
X160452380Y-97043333D01*
X159880952Y-97662380D02*
X159976190Y-97614761D01*
X160023809Y-97567142D01*
X160071428Y-97471904D01*
X160071428Y-97186190D01*
X160023809Y-97090952D01*
X159976190Y-97043333D01*
X159880952Y-96995714D01*
X159738095Y-96995714D01*
X159642857Y-97043333D01*
X159595238Y-97090952D01*
X159547619Y-97186190D01*
X159547619Y-97471904D01*
X159595238Y-97567142D01*
X159642857Y-97614761D01*
X159738095Y-97662380D01*
X159880952Y-97662380D01*
X159119047Y-97662380D02*
X159119047Y-96995714D01*
X159119047Y-97090952D02*
X159071428Y-97043333D01*
X158976190Y-96995714D01*
X158833333Y-96995714D01*
X158738095Y-97043333D01*
X158690476Y-97138571D01*
X158690476Y-97662380D01*
X158690476Y-97138571D02*
X158642857Y-97043333D01*
X158547619Y-96995714D01*
X158404761Y-96995714D01*
X158309523Y-97043333D01*
X158261904Y-97138571D01*
X158261904Y-97662380D01*
X157785714Y-96995714D02*
X157785714Y-97995714D01*
X157785714Y-97043333D02*
X157690476Y-96995714D01*
X157500000Y-96995714D01*
X157404761Y-97043333D01*
X157357142Y-97090952D01*
X157309523Y-97186190D01*
X157309523Y-97471904D01*
X157357142Y-97567142D01*
X157404761Y-97614761D01*
X157500000Y-97662380D01*
X157690476Y-97662380D01*
X157785714Y-97614761D01*
X156452380Y-97662380D02*
X156452380Y-97138571D01*
X156500000Y-97043333D01*
X156595238Y-96995714D01*
X156785714Y-96995714D01*
X156880952Y-97043333D01*
X156452380Y-97614761D02*
X156547619Y-97662380D01*
X156785714Y-97662380D01*
X156880952Y-97614761D01*
X156928571Y-97519523D01*
X156928571Y-97424285D01*
X156880952Y-97329047D01*
X156785714Y-97281428D01*
X156547619Y-97281428D01*
X156452380Y-97233809D01*
X156119047Y-96995714D02*
X155738095Y-96995714D01*
X155976190Y-96662380D02*
X155976190Y-97519523D01*
X155928571Y-97614761D01*
X155833333Y-97662380D01*
X155738095Y-97662380D01*
X155404761Y-97662380D02*
X155404761Y-96995714D01*
X155404761Y-96662380D02*
X155452380Y-96710000D01*
X155404761Y-96757619D01*
X155357142Y-96710000D01*
X155404761Y-96662380D01*
X155404761Y-96757619D01*
X154928571Y-97662380D02*
X154928571Y-96662380D01*
X154928571Y-97043333D02*
X154833333Y-96995714D01*
X154642857Y-96995714D01*
X154547619Y-97043333D01*
X154500000Y-97090952D01*
X154452380Y-97186190D01*
X154452380Y-97471904D01*
X154500000Y-97567142D01*
X154547619Y-97614761D01*
X154642857Y-97662380D01*
X154833333Y-97662380D01*
X154928571Y-97614761D01*
X153880952Y-97662380D02*
X153976190Y-97614761D01*
X154023809Y-97519523D01*
X154023809Y-96662380D01*
X153119047Y-97614761D02*
X153214285Y-97662380D01*
X153404761Y-97662380D01*
X153500000Y-97614761D01*
X153547619Y-97519523D01*
X153547619Y-97138571D01*
X153500000Y-97043333D01*
X153404761Y-96995714D01*
X153214285Y-96995714D01*
X153119047Y-97043333D01*
X153071428Y-97138571D01*
X153071428Y-97233809D01*
X153547619Y-97329047D01*
X151880952Y-97662380D02*
X151880952Y-96662380D01*
X151452380Y-97662380D02*
X151452380Y-97138571D01*
X151500000Y-97043333D01*
X151595238Y-96995714D01*
X151738095Y-96995714D01*
X151833333Y-97043333D01*
X151880952Y-97090952D01*
X150547619Y-97662380D02*
X150547619Y-97138571D01*
X150595238Y-97043333D01*
X150690476Y-96995714D01*
X150880952Y-96995714D01*
X150976190Y-97043333D01*
X150547619Y-97614761D02*
X150642857Y-97662380D01*
X150880952Y-97662380D01*
X150976190Y-97614761D01*
X151023809Y-97519523D01*
X151023809Y-97424285D01*
X150976190Y-97329047D01*
X150880952Y-97281428D01*
X150642857Y-97281428D01*
X150547619Y-97233809D01*
X150071428Y-97662380D02*
X150071428Y-96995714D01*
X150071428Y-97186190D02*
X150023809Y-97090952D01*
X149976190Y-97043333D01*
X149880952Y-96995714D01*
X149785714Y-96995714D01*
X149023809Y-97662380D02*
X149023809Y-96662380D01*
X149023809Y-97614761D02*
X149119047Y-97662380D01*
X149309523Y-97662380D01*
X149404761Y-97614761D01*
X149452380Y-97567142D01*
X149500000Y-97471904D01*
X149500000Y-97186190D01*
X149452380Y-97090952D01*
X149404761Y-97043333D01*
X149309523Y-96995714D01*
X149119047Y-96995714D01*
X149023809Y-97043333D01*
X148642857Y-96995714D02*
X148452380Y-97662380D01*
X148261904Y-97186190D01*
X148071428Y-97662380D01*
X147880952Y-96995714D01*
X147071428Y-97662380D02*
X147071428Y-97138571D01*
X147119047Y-97043333D01*
X147214285Y-96995714D01*
X147404761Y-96995714D01*
X147500000Y-97043333D01*
X147071428Y-97614761D02*
X147166666Y-97662380D01*
X147404761Y-97662380D01*
X147500000Y-97614761D01*
X147547619Y-97519523D01*
X147547619Y-97424285D01*
X147500000Y-97329047D01*
X147404761Y-97281428D01*
X147166666Y-97281428D01*
X147071428Y-97233809D01*
X146595238Y-97662380D02*
X146595238Y-96995714D01*
X146595238Y-97186190D02*
X146547619Y-97090952D01*
X146500000Y-97043333D01*
X146404761Y-96995714D01*
X146309523Y-96995714D01*
X145595238Y-97614761D02*
X145690476Y-97662380D01*
X145880952Y-97662380D01*
X145976190Y-97614761D01*
X146023809Y-97519523D01*
X146023809Y-97138571D01*
X145976190Y-97043333D01*
X145880952Y-96995714D01*
X145690476Y-96995714D01*
X145595238Y-97043333D01*
X145547619Y-97138571D01*
X145547619Y-97233809D01*
X146023809Y-97329047D01*
X145119047Y-97567142D02*
X145071428Y-97614761D01*
X145119047Y-97662380D01*
X145166666Y-97614761D01*
X145119047Y-97567142D01*
X145119047Y-97662380D01*
X147883333Y-126947380D02*
X147883333Y-125947380D01*
X147502380Y-125947380D01*
X147407142Y-125995000D01*
X147359523Y-126042619D01*
X147311904Y-126137857D01*
X147311904Y-126280714D01*
X147359523Y-126375952D01*
X147407142Y-126423571D01*
X147502380Y-126471190D01*
X147883333Y-126471190D01*
X146883333Y-126947380D02*
X146883333Y-126280714D01*
X146883333Y-126471190D02*
X146835714Y-126375952D01*
X146788095Y-126328333D01*
X146692857Y-126280714D01*
X146597619Y-126280714D01*
X146121428Y-126947380D02*
X146216666Y-126899761D01*
X146264285Y-126852142D01*
X146311904Y-126756904D01*
X146311904Y-126471190D01*
X146264285Y-126375952D01*
X146216666Y-126328333D01*
X146121428Y-126280714D01*
X145978571Y-126280714D01*
X145883333Y-126328333D01*
X145835714Y-126375952D01*
X145788095Y-126471190D01*
X145788095Y-126756904D01*
X145835714Y-126852142D01*
X145883333Y-126899761D01*
X145978571Y-126947380D01*
X146121428Y-126947380D01*
X144930952Y-126280714D02*
X144930952Y-127090238D01*
X144978571Y-127185476D01*
X145026190Y-127233095D01*
X145121428Y-127280714D01*
X145264285Y-127280714D01*
X145359523Y-127233095D01*
X144930952Y-126899761D02*
X145026190Y-126947380D01*
X145216666Y-126947380D01*
X145311904Y-126899761D01*
X145359523Y-126852142D01*
X145407142Y-126756904D01*
X145407142Y-126471190D01*
X145359523Y-126375952D01*
X145311904Y-126328333D01*
X145216666Y-126280714D01*
X145026190Y-126280714D01*
X144930952Y-126328333D01*
X144454761Y-126947380D02*
X144454761Y-126280714D01*
X144454761Y-126471190D02*
X144407142Y-126375952D01*
X144359523Y-126328333D01*
X144264285Y-126280714D01*
X144169047Y-126280714D01*
X143407142Y-126947380D02*
X143407142Y-126423571D01*
X143454761Y-126328333D01*
X143550000Y-126280714D01*
X143740476Y-126280714D01*
X143835714Y-126328333D01*
X143407142Y-126899761D02*
X143502380Y-126947380D01*
X143740476Y-126947380D01*
X143835714Y-126899761D01*
X143883333Y-126804523D01*
X143883333Y-126709285D01*
X143835714Y-126614047D01*
X143740476Y-126566428D01*
X143502380Y-126566428D01*
X143407142Y-126518809D01*
X142930952Y-126947380D02*
X142930952Y-126280714D01*
X142930952Y-126375952D02*
X142883333Y-126328333D01*
X142788095Y-126280714D01*
X142645238Y-126280714D01*
X142550000Y-126328333D01*
X142502380Y-126423571D01*
X142502380Y-126947380D01*
X142502380Y-126423571D02*
X142454761Y-126328333D01*
X142359523Y-126280714D01*
X142216666Y-126280714D01*
X142121428Y-126328333D01*
X142073809Y-126423571D01*
X142073809Y-126947380D01*
X140883333Y-126661666D02*
X140407142Y-126661666D01*
X140978571Y-126947380D02*
X140645238Y-125947380D01*
X140311904Y-126947380D01*
X140121428Y-125947380D02*
X139550000Y-125947380D01*
X139835714Y-126947380D02*
X139835714Y-125947380D01*
X139359523Y-126280714D02*
X138978571Y-126280714D01*
X139216666Y-125947380D02*
X139216666Y-126804523D01*
X139169047Y-126899761D01*
X139073809Y-126947380D01*
X138978571Y-126947380D01*
X138645238Y-126947380D02*
X138645238Y-126280714D01*
X138645238Y-125947380D02*
X138692857Y-125995000D01*
X138645238Y-126042619D01*
X138597619Y-125995000D01*
X138645238Y-125947380D01*
X138645238Y-126042619D01*
X138169047Y-126280714D02*
X138169047Y-126947380D01*
X138169047Y-126375952D02*
X138121428Y-126328333D01*
X138026190Y-126280714D01*
X137883333Y-126280714D01*
X137788095Y-126328333D01*
X137740476Y-126423571D01*
X137740476Y-126947380D01*
X137359523Y-126280714D02*
X137121428Y-126947380D01*
X136883333Y-126280714D02*
X137121428Y-126947380D01*
X137216666Y-127185476D01*
X137264285Y-127233095D01*
X137359523Y-127280714D01*
X135835714Y-126280714D02*
X135645238Y-126947380D01*
X135454761Y-126471190D01*
X135264285Y-126947380D01*
X135073809Y-126280714D01*
X134692857Y-126947380D02*
X134692857Y-126280714D01*
X134692857Y-125947380D02*
X134740476Y-125995000D01*
X134692857Y-126042619D01*
X134645238Y-125995000D01*
X134692857Y-125947380D01*
X134692857Y-126042619D01*
X134359523Y-126280714D02*
X133978571Y-126280714D01*
X134216666Y-125947380D02*
X134216666Y-126804523D01*
X134169047Y-126899761D01*
X134073809Y-126947380D01*
X133978571Y-126947380D01*
X133645238Y-126947380D02*
X133645238Y-125947380D01*
X133216666Y-126947380D02*
X133216666Y-126423571D01*
X133264285Y-126328333D01*
X133359523Y-126280714D01*
X133502380Y-126280714D01*
X133597619Y-126328333D01*
X133645238Y-126375952D01*
X131835714Y-126947380D02*
X131930952Y-126899761D01*
X131978571Y-126804523D01*
X131978571Y-125947380D01*
X131026190Y-126947380D02*
X131026190Y-126423571D01*
X131073809Y-126328333D01*
X131169047Y-126280714D01*
X131359523Y-126280714D01*
X131454761Y-126328333D01*
X131026190Y-126899761D02*
X131121428Y-126947380D01*
X131359523Y-126947380D01*
X131454761Y-126899761D01*
X131502380Y-126804523D01*
X131502380Y-126709285D01*
X131454761Y-126614047D01*
X131359523Y-126566428D01*
X131121428Y-126566428D01*
X131026190Y-126518809D01*
X130692857Y-126280714D02*
X130311904Y-126280714D01*
X130550000Y-125947380D02*
X130550000Y-126804523D01*
X130502380Y-126899761D01*
X130407142Y-126947380D01*
X130311904Y-126947380D01*
X129597619Y-126899761D02*
X129692857Y-126947380D01*
X129883333Y-126947380D01*
X129978571Y-126899761D01*
X130026190Y-126804523D01*
X130026190Y-126423571D01*
X129978571Y-126328333D01*
X129883333Y-126280714D01*
X129692857Y-126280714D01*
X129597619Y-126328333D01*
X129550000Y-126423571D01*
X129550000Y-126518809D01*
X130026190Y-126614047D01*
X129169047Y-126899761D02*
X129073809Y-126947380D01*
X128883333Y-126947380D01*
X128788095Y-126899761D01*
X128740476Y-126804523D01*
X128740476Y-126756904D01*
X128788095Y-126661666D01*
X128883333Y-126614047D01*
X129026190Y-126614047D01*
X129121428Y-126566428D01*
X129169047Y-126471190D01*
X129169047Y-126423571D01*
X129121428Y-126328333D01*
X129026190Y-126280714D01*
X128883333Y-126280714D01*
X128788095Y-126328333D01*
X128454761Y-126280714D02*
X128073809Y-126280714D01*
X128311904Y-125947380D02*
X128311904Y-126804523D01*
X128264285Y-126899761D01*
X128169047Y-126947380D01*
X128073809Y-126947380D01*
X149359523Y-127890714D02*
X148978571Y-127890714D01*
X149216666Y-128557380D02*
X149216666Y-127700238D01*
X149169047Y-127605000D01*
X149073809Y-127557380D01*
X148978571Y-127557380D01*
X148645238Y-128557380D02*
X148645238Y-127890714D01*
X148645238Y-127557380D02*
X148692857Y-127605000D01*
X148645238Y-127652619D01*
X148597619Y-127605000D01*
X148645238Y-127557380D01*
X148645238Y-127652619D01*
X148169047Y-128557380D02*
X148169047Y-127890714D01*
X148169047Y-128081190D02*
X148121428Y-127985952D01*
X148073809Y-127938333D01*
X147978571Y-127890714D01*
X147883333Y-127890714D01*
X147550000Y-128557380D02*
X147550000Y-127890714D01*
X147550000Y-127985952D02*
X147502380Y-127938333D01*
X147407142Y-127890714D01*
X147264285Y-127890714D01*
X147169047Y-127938333D01*
X147121428Y-128033571D01*
X147121428Y-128557380D01*
X147121428Y-128033571D02*
X147073809Y-127938333D01*
X146978571Y-127890714D01*
X146835714Y-127890714D01*
X146740476Y-127938333D01*
X146692857Y-128033571D01*
X146692857Y-128557380D01*
X146311904Y-127890714D02*
X146121428Y-128557380D01*
X145930952Y-128081190D01*
X145740476Y-128557380D01*
X145550000Y-127890714D01*
X144740476Y-128557380D02*
X144740476Y-128033571D01*
X144788095Y-127938333D01*
X144883333Y-127890714D01*
X145073809Y-127890714D01*
X145169047Y-127938333D01*
X144740476Y-128509761D02*
X144835714Y-128557380D01*
X145073809Y-128557380D01*
X145169047Y-128509761D01*
X145216666Y-128414523D01*
X145216666Y-128319285D01*
X145169047Y-128224047D01*
X145073809Y-128176428D01*
X144835714Y-128176428D01*
X144740476Y-128128809D01*
X144264285Y-128557380D02*
X144264285Y-127890714D01*
X144264285Y-128081190D02*
X144216666Y-127985952D01*
X144169047Y-127938333D01*
X144073809Y-127890714D01*
X143978571Y-127890714D01*
X143264285Y-128509761D02*
X143359523Y-128557380D01*
X143550000Y-128557380D01*
X143645238Y-128509761D01*
X143692857Y-128414523D01*
X143692857Y-128033571D01*
X143645238Y-127938333D01*
X143550000Y-127890714D01*
X143359523Y-127890714D01*
X143264285Y-127938333D01*
X143216666Y-128033571D01*
X143216666Y-128128809D01*
X143692857Y-128224047D01*
X142121428Y-127890714D02*
X141883333Y-128557380D01*
X141645238Y-127890714D01*
X141264285Y-128557380D02*
X141264285Y-127890714D01*
X141264285Y-127557380D02*
X141311904Y-127605000D01*
X141264285Y-127652619D01*
X141216666Y-127605000D01*
X141264285Y-127557380D01*
X141264285Y-127652619D01*
X140359523Y-128557380D02*
X140359523Y-128033571D01*
X140407142Y-127938333D01*
X140502380Y-127890714D01*
X140692857Y-127890714D01*
X140788095Y-127938333D01*
X140359523Y-128509761D02*
X140454761Y-128557380D01*
X140692857Y-128557380D01*
X140788095Y-128509761D01*
X140835714Y-128414523D01*
X140835714Y-128319285D01*
X140788095Y-128224047D01*
X140692857Y-128176428D01*
X140454761Y-128176428D01*
X140359523Y-128128809D01*
X139121428Y-128557380D02*
X139121428Y-127557380D01*
X138073809Y-128462142D02*
X138121428Y-128509761D01*
X138264285Y-128557380D01*
X138359523Y-128557380D01*
X138502380Y-128509761D01*
X138597619Y-128414523D01*
X138645238Y-128319285D01*
X138692857Y-128128809D01*
X138692857Y-127985952D01*
X138645238Y-127795476D01*
X138597619Y-127700238D01*
X138502380Y-127605000D01*
X138359523Y-127557380D01*
X138264285Y-127557380D01*
X138121428Y-127605000D01*
X138073809Y-127652619D01*
X137692857Y-128509761D02*
X137550000Y-128557380D01*
X137311904Y-128557380D01*
X137216666Y-128509761D01*
X137169047Y-128462142D01*
X137121428Y-128366904D01*
X137121428Y-128271666D01*
X137169047Y-128176428D01*
X137216666Y-128128809D01*
X137311904Y-128081190D01*
X137502380Y-128033571D01*
X137597619Y-127985952D01*
X137645238Y-127938333D01*
X137692857Y-127843095D01*
X137692857Y-127747857D01*
X137645238Y-127652619D01*
X137597619Y-127605000D01*
X137502380Y-127557380D01*
X137264285Y-127557380D01*
X137121428Y-127605000D01*
X136692857Y-128557380D02*
X136692857Y-127557380D01*
X136311904Y-127557380D01*
X136216666Y-127605000D01*
X136169047Y-127652619D01*
X136121428Y-127747857D01*
X136121428Y-127890714D01*
X136169047Y-127985952D01*
X136216666Y-128033571D01*
X136311904Y-128081190D01*
X136692857Y-128081190D01*
X134930952Y-128557380D02*
X134930952Y-127557380D01*
X134930952Y-127938333D02*
X134835714Y-127890714D01*
X134645238Y-127890714D01*
X134550000Y-127938333D01*
X134502380Y-127985952D01*
X134454761Y-128081190D01*
X134454761Y-128366904D01*
X134502380Y-128462142D01*
X134550000Y-128509761D01*
X134645238Y-128557380D01*
X134835714Y-128557380D01*
X134930952Y-128509761D01*
X133645238Y-128509761D02*
X133740476Y-128557380D01*
X133930952Y-128557380D01*
X134026190Y-128509761D01*
X134073809Y-128414523D01*
X134073809Y-128033571D01*
X134026190Y-127938333D01*
X133930952Y-127890714D01*
X133740476Y-127890714D01*
X133645238Y-127938333D01*
X133597619Y-128033571D01*
X133597619Y-128128809D01*
X134073809Y-128224047D01*
X133311904Y-127890714D02*
X132930952Y-127890714D01*
X133169047Y-128557380D02*
X133169047Y-127700238D01*
X133121428Y-127605000D01*
X133026190Y-127557380D01*
X132930952Y-127557380D01*
X132454761Y-128557380D02*
X132550000Y-128509761D01*
X132597619Y-128462142D01*
X132645238Y-128366904D01*
X132645238Y-128081190D01*
X132597619Y-127985952D01*
X132550000Y-127938333D01*
X132454761Y-127890714D01*
X132311904Y-127890714D01*
X132216666Y-127938333D01*
X132169047Y-127985952D01*
X132121428Y-128081190D01*
X132121428Y-128366904D01*
X132169047Y-128462142D01*
X132216666Y-128509761D01*
X132311904Y-128557380D01*
X132454761Y-128557380D01*
X131692857Y-128557380D02*
X131692857Y-127890714D01*
X131692857Y-128081190D02*
X131645238Y-127985952D01*
X131597619Y-127938333D01*
X131502380Y-127890714D01*
X131407142Y-127890714D01*
X130692857Y-128509761D02*
X130788095Y-128557380D01*
X130978571Y-128557380D01*
X131073809Y-128509761D01*
X131121428Y-128414523D01*
X131121428Y-128033571D01*
X131073809Y-127938333D01*
X130978571Y-127890714D01*
X130788095Y-127890714D01*
X130692857Y-127938333D01*
X130645238Y-128033571D01*
X130645238Y-128128809D01*
X131121428Y-128224047D01*
X129026190Y-127890714D02*
X129026190Y-128557380D01*
X129454761Y-127890714D02*
X129454761Y-128414523D01*
X129407142Y-128509761D01*
X129311904Y-128557380D01*
X129169047Y-128557380D01*
X129073809Y-128509761D01*
X129026190Y-128462142D01*
X128597619Y-128509761D02*
X128502380Y-128557380D01*
X128311904Y-128557380D01*
X128216666Y-128509761D01*
X128169047Y-128414523D01*
X128169047Y-128366904D01*
X128216666Y-128271666D01*
X128311904Y-128224047D01*
X128454761Y-128224047D01*
X128550000Y-128176428D01*
X128597619Y-128081190D01*
X128597619Y-128033571D01*
X128550000Y-127938333D01*
X128454761Y-127890714D01*
X128311904Y-127890714D01*
X128216666Y-127938333D01*
X127359523Y-128509761D02*
X127454761Y-128557380D01*
X127645238Y-128557380D01*
X127740476Y-128509761D01*
X127788095Y-128414523D01*
X127788095Y-128033571D01*
X127740476Y-127938333D01*
X127645238Y-127890714D01*
X127454761Y-127890714D01*
X127359523Y-127938333D01*
X127311904Y-128033571D01*
X127311904Y-128128809D01*
X127788095Y-128224047D01*
X126883333Y-128462142D02*
X126835714Y-128509761D01*
X126883333Y-128557380D01*
X126930952Y-128509761D01*
X126883333Y-128462142D01*
X126883333Y-128557380D01*
G36*
X167172971Y-98317822D02*
G01*
X163652178Y-98317822D01*
X163652178Y-97450198D01*
X167172971Y-97450198D01*
X167172971Y-98317822D01*
G37*
D13*
X167172971Y-98317822D02*
X163652178Y-98317822D01*
X163652178Y-97450198D01*
X167172971Y-97450198D01*
X167172971Y-98317822D01*
G36*
X166411662Y-93060696D02*
G01*
X166451314Y-93061782D01*
X166519109Y-93061782D01*
X166519109Y-93174951D01*
X166359577Y-93174951D01*
X166344682Y-93352732D01*
X166342682Y-93377037D01*
X166338023Y-93437880D01*
X166334731Y-93487389D01*
X166333092Y-93520992D01*
X166333390Y-93534116D01*
X166337724Y-93530343D01*
X166357496Y-93510676D01*
X166391679Y-93475818D01*
X166438541Y-93427576D01*
X166496354Y-93367757D01*
X166563387Y-93298167D01*
X166637912Y-93220615D01*
X166718197Y-93136907D01*
X166802513Y-93048849D01*
X166889130Y-92958250D01*
X166976319Y-92866915D01*
X167062349Y-92776653D01*
X167145492Y-92689269D01*
X167224016Y-92606572D01*
X167296192Y-92530368D01*
X167360291Y-92462463D01*
X167414583Y-92404666D01*
X167511592Y-92301040D01*
X167512034Y-92389315D01*
X167512475Y-92477589D01*
X166911938Y-93109158D01*
X166311401Y-93740726D01*
X166299396Y-93884674D01*
X166251365Y-94460635D01*
X166242876Y-94562791D01*
X166232343Y-94690612D01*
X166222621Y-94809767D01*
X166213898Y-94917914D01*
X166206358Y-95012713D01*
X166200187Y-95091819D01*
X166195573Y-95152892D01*
X166192700Y-95193590D01*
X166191754Y-95211570D01*
X166194251Y-95219808D01*
X166205471Y-95237599D01*
X166226751Y-95264411D01*
X166237021Y-95276129D01*
X166259225Y-95301466D01*
X166304023Y-95349986D01*
X166362281Y-95411192D01*
X166435129Y-95486307D01*
X166523703Y-95576550D01*
X166629134Y-95683145D01*
X166698492Y-95753093D01*
X166795179Y-95850658D01*
X166891526Y-95947941D01*
X166984638Y-96042014D01*
X167071618Y-96129950D01*
X167149569Y-96208820D01*
X167215596Y-96275699D01*
X167266802Y-96327658D01*
X167467514Y-96531620D01*
X167431058Y-96569671D01*
X167422460Y-96578245D01*
X167397095Y-96599297D01*
X167379695Y-96607723D01*
X167366071Y-96600530D01*
X167340743Y-96578944D01*
X167310379Y-96547995D01*
X167291896Y-96528448D01*
X167257427Y-96492752D01*
X167208712Y-96442684D01*
X167147469Y-96380001D01*
X167075420Y-96306457D01*
X166994285Y-96223810D01*
X166905784Y-96133815D01*
X166811637Y-96038228D01*
X166713565Y-95938805D01*
X166171161Y-95389343D01*
X166149066Y-95674746D01*
X166144250Y-95735662D01*
X166137216Y-95817548D01*
X166130872Y-95879569D01*
X166124748Y-95924987D01*
X166118373Y-95957062D01*
X166111277Y-95979052D01*
X166102991Y-95994219D01*
X166091393Y-96015416D01*
X166081850Y-96054386D01*
X166079010Y-96110531D01*
X166079010Y-96192773D01*
X165852674Y-96192773D01*
X165852674Y-96016733D01*
X165007082Y-96016733D01*
X164958203Y-96072262D01*
X164944836Y-96086722D01*
X164872388Y-96144813D01*
X164790532Y-96180576D01*
X164701900Y-96192773D01*
X164623692Y-96186306D01*
X164535233Y-96159047D01*
X164459507Y-96110328D01*
X164444748Y-96096403D01*
X164407864Y-96051328D01*
X164375503Y-95998819D01*
X164352297Y-95947061D01*
X164342879Y-95904239D01*
X164342697Y-95898023D01*
X164341342Y-95875246D01*
X164337800Y-95859513D01*
X164330390Y-95852068D01*
X164317431Y-95854156D01*
X164297243Y-95867020D01*
X164268145Y-95891905D01*
X164228456Y-95930053D01*
X164176496Y-95982710D01*
X164110584Y-96051119D01*
X164029040Y-96136524D01*
X163985604Y-96182112D01*
X163913000Y-96258441D01*
X163844309Y-96330808D01*
X163782223Y-96396366D01*
X163729434Y-96452274D01*
X163688634Y-96495686D01*
X163662515Y-96523758D01*
X163591119Y-96601436D01*
X163502863Y-96513416D01*
X164048690Y-95941287D01*
X164083105Y-95905188D01*
X164205546Y-95776272D01*
X164310651Y-95664754D01*
X164398736Y-95570288D01*
X164470116Y-95492529D01*
X164520588Y-95436174D01*
X164727247Y-95436174D01*
X164728872Y-95449434D01*
X164729156Y-95450819D01*
X164742698Y-95482228D01*
X164769748Y-95496863D01*
X164853129Y-95528063D01*
X164927418Y-95580038D01*
X164985846Y-95648791D01*
X165025890Y-95731315D01*
X165045026Y-95824606D01*
X165051364Y-95903565D01*
X166000838Y-95903565D01*
X166007458Y-95875273D01*
X166008629Y-95868329D01*
X166012268Y-95837281D01*
X166017234Y-95787081D01*
X166023157Y-95721727D01*
X166029669Y-95645219D01*
X166036401Y-95561555D01*
X166058724Y-95276129D01*
X165757826Y-94970565D01*
X165702636Y-94914704D01*
X165635109Y-94846888D01*
X165574529Y-94786643D01*
X165523021Y-94736052D01*
X165482710Y-94697200D01*
X165455722Y-94672170D01*
X165444182Y-94663046D01*
X165436444Y-94667405D01*
X165413395Y-94687241D01*
X165378709Y-94720375D01*
X165335487Y-94763820D01*
X165286832Y-94814587D01*
X165274140Y-94828051D01*
X165217229Y-94888275D01*
X165149414Y-94959864D01*
X165075800Y-95037437D01*
X165001493Y-95115611D01*
X164931599Y-95189005D01*
X164927401Y-95193409D01*
X164862420Y-95261785D01*
X164812836Y-95314732D01*
X164776688Y-95354767D01*
X164752016Y-95384411D01*
X164736858Y-95406181D01*
X164729256Y-95422595D01*
X164727247Y-95436174D01*
X164520588Y-95436174D01*
X164525105Y-95431131D01*
X164564019Y-95385748D01*
X164587173Y-95356035D01*
X164594882Y-95341644D01*
X164594883Y-95341559D01*
X164593825Y-95323624D01*
X164590737Y-95283421D01*
X164585858Y-95223687D01*
X164579432Y-95147158D01*
X164571700Y-95056569D01*
X164562905Y-94954657D01*
X164553287Y-94844159D01*
X164543091Y-94727811D01*
X164532556Y-94608348D01*
X164521926Y-94488507D01*
X164511442Y-94371025D01*
X164501346Y-94258637D01*
X164491881Y-94154081D01*
X164483288Y-94060091D01*
X164475809Y-93979405D01*
X164469687Y-93914759D01*
X164465162Y-93868888D01*
X164462478Y-93844530D01*
X164457067Y-93803732D01*
X164586253Y-93803732D01*
X164587908Y-93834653D01*
X164591549Y-93886653D01*
X164596995Y-93957487D01*
X164604063Y-94044911D01*
X164612570Y-94146681D01*
X164622335Y-94260552D01*
X164633174Y-94384279D01*
X164644907Y-94515618D01*
X164654079Y-94616908D01*
X164665566Y-94742526D01*
X164676322Y-94858762D01*
X164686131Y-94963380D01*
X164694781Y-95054140D01*
X164702057Y-95128804D01*
X164707746Y-95185134D01*
X164711634Y-95220891D01*
X164713506Y-95233837D01*
X164719188Y-95229826D01*
X164740020Y-95210138D01*
X164773872Y-95176322D01*
X164818412Y-95130837D01*
X164871310Y-95076146D01*
X164930236Y-95014710D01*
X164992858Y-94948990D01*
X165056848Y-94881449D01*
X165119874Y-94814547D01*
X165179606Y-94750746D01*
X165233713Y-94692507D01*
X165279865Y-94642292D01*
X165315733Y-94602563D01*
X165338984Y-94575780D01*
X165345778Y-94566477D01*
X165527601Y-94566477D01*
X165803305Y-94841968D01*
X165870726Y-94909224D01*
X165934267Y-94972162D01*
X165983490Y-95020100D01*
X166020196Y-95054594D01*
X166046190Y-95077199D01*
X166063276Y-95089471D01*
X166073256Y-95092966D01*
X166077935Y-95089238D01*
X166079116Y-95079844D01*
X166079873Y-95064749D01*
X166082601Y-95025883D01*
X166087108Y-94966895D01*
X166093179Y-94890473D01*
X166100596Y-94799305D01*
X166109142Y-94696080D01*
X166118602Y-94583483D01*
X166128758Y-94464205D01*
X166137723Y-94359077D01*
X166147066Y-94248351D01*
X166155443Y-94147814D01*
X166162653Y-94059943D01*
X166168496Y-93987215D01*
X166172769Y-93932110D01*
X166175273Y-93897104D01*
X166175805Y-93884674D01*
X166175384Y-93884908D01*
X166163509Y-93896350D01*
X166137130Y-93923198D01*
X166098570Y-93963018D01*
X166050153Y-94013372D01*
X165994203Y-94071828D01*
X165933042Y-94135948D01*
X165868995Y-94203298D01*
X165804385Y-94271443D01*
X165741535Y-94337948D01*
X165682768Y-94400377D01*
X165630409Y-94456295D01*
X165529533Y-94564406D01*
X165527601Y-94566477D01*
X165345778Y-94566477D01*
X165347290Y-94564406D01*
X165339148Y-94553383D01*
X165315478Y-94526999D01*
X165278478Y-94487527D01*
X165230350Y-94437191D01*
X165173296Y-94378217D01*
X165109520Y-94312830D01*
X165041222Y-94243255D01*
X164970605Y-94171716D01*
X164899871Y-94100438D01*
X164831222Y-94031647D01*
X164766861Y-93967566D01*
X164708989Y-93910422D01*
X164659810Y-93862439D01*
X164621524Y-93825841D01*
X164596334Y-93802854D01*
X164586442Y-93795703D01*
X164586253Y-93803732D01*
X164457067Y-93803732D01*
X164455390Y-93791089D01*
X164180297Y-93791089D01*
X164180140Y-93690495D01*
X164280891Y-93690495D01*
X164362624Y-93690495D01*
X164369895Y-93690489D01*
X164410950Y-93689613D01*
X164433277Y-93685867D01*
X164442529Y-93677270D01*
X164444357Y-93661840D01*
X164436306Y-93639159D01*
X164408730Y-93601428D01*
X164362624Y-93552179D01*
X164280891Y-93471172D01*
X164280891Y-93690495D01*
X164180140Y-93690495D01*
X164179968Y-93580471D01*
X164179639Y-93369852D01*
X163727914Y-92910891D01*
X163276189Y-92451931D01*
X163275570Y-92364848D01*
X163274951Y-92277767D01*
X163816769Y-92826952D01*
X163869137Y-92879998D01*
X163977803Y-92989772D01*
X164070709Y-93083114D01*
X164149055Y-93161173D01*
X164214043Y-93225097D01*
X164266872Y-93276035D01*
X164308743Y-93315135D01*
X164340855Y-93343548D01*
X164364410Y-93362420D01*
X164380608Y-93372901D01*
X164390649Y-93376139D01*
X164407579Y-93375158D01*
X164417084Y-93367996D01*
X164418723Y-93348401D01*
X164414782Y-93310124D01*
X164412065Y-93286025D01*
X164408284Y-93245744D01*
X164406760Y-93218961D01*
X164406015Y-93209728D01*
X164398746Y-93199839D01*
X164378668Y-93196562D01*
X164339689Y-93197992D01*
X164329737Y-93198553D01*
X164289898Y-93197921D01*
X164261560Y-93189167D01*
X164241586Y-93174951D01*
X164524852Y-93174951D01*
X164529013Y-93222104D01*
X164530935Y-93243498D01*
X164536924Y-93301909D01*
X164542826Y-93340381D01*
X164549727Y-93362912D01*
X164558712Y-93373498D01*
X164570870Y-93376139D01*
X164581801Y-93377937D01*
X164589050Y-93386530D01*
X164593100Y-93406505D01*
X164594863Y-93442450D01*
X164595248Y-93498952D01*
X164595248Y-93621766D01*
X164635447Y-93661840D01*
X164733565Y-93759654D01*
X164871881Y-93897542D01*
X164871881Y-93791089D01*
X165626337Y-93791089D01*
X165626337Y-94030000D01*
X165007831Y-94030000D01*
X165217592Y-94246906D01*
X165257770Y-94288334D01*
X165313328Y-94345200D01*
X165361570Y-94394082D01*
X165399971Y-94432441D01*
X165426003Y-94457741D01*
X165437140Y-94467442D01*
X165441373Y-94464767D01*
X165461224Y-94446782D01*
X165495451Y-94413481D01*
X165542227Y-94366712D01*
X165599724Y-94308325D01*
X165666112Y-94240169D01*
X165739564Y-94164094D01*
X165818251Y-94081950D01*
X165897341Y-93998943D01*
X165974871Y-93917136D01*
X166037746Y-93850083D01*
X166087502Y-93796007D01*
X166125678Y-93753129D01*
X166153811Y-93719673D01*
X166173440Y-93693861D01*
X166186101Y-93673914D01*
X166193334Y-93658056D01*
X166196675Y-93644509D01*
X166197561Y-93637910D01*
X166201488Y-93601548D01*
X166206459Y-93548018D01*
X166211927Y-93483421D01*
X166217344Y-93413862D01*
X166219181Y-93389635D01*
X166224488Y-93324178D01*
X166229548Y-93267717D01*
X166233863Y-93225618D01*
X166236934Y-93203243D01*
X166242955Y-93174951D01*
X164524852Y-93174951D01*
X164241586Y-93174951D01*
X164233630Y-93169289D01*
X164228820Y-93165104D01*
X164189482Y-93114427D01*
X164173903Y-93061782D01*
X164514698Y-93061782D01*
X165929221Y-93061782D01*
X166141881Y-93061782D01*
X166198908Y-93061782D01*
X166215993Y-93061662D01*
X166241308Y-93059462D01*
X166248616Y-93052334D01*
X166242943Y-93037508D01*
X166241267Y-93034682D01*
X166222448Y-93012944D01*
X166195183Y-92988820D01*
X166167987Y-92969254D01*
X166149371Y-92961188D01*
X166147697Y-92962463D01*
X166143544Y-92979976D01*
X166141881Y-93011485D01*
X166141881Y-93061782D01*
X165929221Y-93061782D01*
X165925526Y-92971095D01*
X165921832Y-92880407D01*
X165846386Y-92865252D01*
X165808551Y-92858379D01*
X165745368Y-92848756D01*
X165686065Y-92841496D01*
X165601188Y-92832893D01*
X165601188Y-92936040D01*
X165022773Y-92936040D01*
X165022773Y-92845122D01*
X164950471Y-92853753D01*
X164839998Y-92872249D01*
X164728816Y-92905691D01*
X164636850Y-92952324D01*
X164562542Y-93012786D01*
X164514698Y-93061782D01*
X164173903Y-93061782D01*
X164172172Y-93055934D01*
X164177474Y-92994575D01*
X164205975Y-92935297D01*
X164208733Y-92931606D01*
X164246822Y-92899851D01*
X164296476Y-92881067D01*
X164350002Y-92876071D01*
X164399707Y-92885678D01*
X164437900Y-92910704D01*
X164450831Y-92923480D01*
X164463428Y-92926576D01*
X164481467Y-92916998D01*
X164511928Y-92893082D01*
X164521274Y-92885731D01*
X164593430Y-92839339D01*
X164678915Y-92798084D01*
X164748830Y-92772575D01*
X165123367Y-92772575D01*
X165123367Y-92835446D01*
X165500594Y-92835446D01*
X165500594Y-92772575D01*
X165123367Y-92772575D01*
X164748830Y-92772575D01*
X164769767Y-92764936D01*
X164858027Y-92742868D01*
X164935736Y-92734852D01*
X164943991Y-92734788D01*
X164989879Y-92730321D01*
X165015079Y-92717795D01*
X165022773Y-92695784D01*
X165023676Y-92688849D01*
X165028615Y-92682885D01*
X165040611Y-92678519D01*
X165062680Y-92675503D01*
X165097836Y-92673590D01*
X165149094Y-92672530D01*
X165219471Y-92672077D01*
X165311980Y-92671980D01*
X165398660Y-92672150D01*
X165472332Y-92672834D01*
X165526265Y-92674215D01*
X165563288Y-92676470D01*
X165586230Y-92679778D01*
X165597920Y-92684320D01*
X165601188Y-92690272D01*
X165611937Y-92704888D01*
X165642055Y-92714215D01*
X165653582Y-92715847D01*
X165692886Y-92721591D01*
X165745188Y-92729378D01*
X165802376Y-92738003D01*
X165833916Y-92742393D01*
X165880074Y-92747148D01*
X165912641Y-92748295D01*
X165926023Y-92745495D01*
X165928308Y-92743671D01*
X165949405Y-92739165D01*
X165987355Y-92736029D01*
X166036048Y-92734852D01*
X166141881Y-92734852D01*
X166141894Y-92772575D01*
X166141894Y-92775718D01*
X166142388Y-92788668D01*
X166148819Y-92810411D01*
X166167123Y-92828851D01*
X166202830Y-92850801D01*
X166234174Y-92870854D01*
X166281893Y-92909356D01*
X166325138Y-92952579D01*
X166358219Y-92994627D01*
X166375442Y-93029604D01*
X166379662Y-93043081D01*
X166387480Y-93052334D01*
X166390116Y-93055454D01*
X166411662Y-93060696D01*
G37*
X166411662Y-93060696D02*
X166451314Y-93061782D01*
X166519109Y-93061782D01*
X166519109Y-93174951D01*
X166359577Y-93174951D01*
X166344682Y-93352732D01*
X166342682Y-93377037D01*
X166338023Y-93437880D01*
X166334731Y-93487389D01*
X166333092Y-93520992D01*
X166333390Y-93534116D01*
X166337724Y-93530343D01*
X166357496Y-93510676D01*
X166391679Y-93475818D01*
X166438541Y-93427576D01*
X166496354Y-93367757D01*
X166563387Y-93298167D01*
X166637912Y-93220615D01*
X166718197Y-93136907D01*
X166802513Y-93048849D01*
X166889130Y-92958250D01*
X166976319Y-92866915D01*
X167062349Y-92776653D01*
X167145492Y-92689269D01*
X167224016Y-92606572D01*
X167296192Y-92530368D01*
X167360291Y-92462463D01*
X167414583Y-92404666D01*
X167511592Y-92301040D01*
X167512034Y-92389315D01*
X167512475Y-92477589D01*
X166911938Y-93109158D01*
X166311401Y-93740726D01*
X166299396Y-93884674D01*
X166251365Y-94460635D01*
X166242876Y-94562791D01*
X166232343Y-94690612D01*
X166222621Y-94809767D01*
X166213898Y-94917914D01*
X166206358Y-95012713D01*
X166200187Y-95091819D01*
X166195573Y-95152892D01*
X166192700Y-95193590D01*
X166191754Y-95211570D01*
X166194251Y-95219808D01*
X166205471Y-95237599D01*
X166226751Y-95264411D01*
X166237021Y-95276129D01*
X166259225Y-95301466D01*
X166304023Y-95349986D01*
X166362281Y-95411192D01*
X166435129Y-95486307D01*
X166523703Y-95576550D01*
X166629134Y-95683145D01*
X166698492Y-95753093D01*
X166795179Y-95850658D01*
X166891526Y-95947941D01*
X166984638Y-96042014D01*
X167071618Y-96129950D01*
X167149569Y-96208820D01*
X167215596Y-96275699D01*
X167266802Y-96327658D01*
X167467514Y-96531620D01*
X167431058Y-96569671D01*
X167422460Y-96578245D01*
X167397095Y-96599297D01*
X167379695Y-96607723D01*
X167366071Y-96600530D01*
X167340743Y-96578944D01*
X167310379Y-96547995D01*
X167291896Y-96528448D01*
X167257427Y-96492752D01*
X167208712Y-96442684D01*
X167147469Y-96380001D01*
X167075420Y-96306457D01*
X166994285Y-96223810D01*
X166905784Y-96133815D01*
X166811637Y-96038228D01*
X166713565Y-95938805D01*
X166171161Y-95389343D01*
X166149066Y-95674746D01*
X166144250Y-95735662D01*
X166137216Y-95817548D01*
X166130872Y-95879569D01*
X166124748Y-95924987D01*
X166118373Y-95957062D01*
X166111277Y-95979052D01*
X166102991Y-95994219D01*
X166091393Y-96015416D01*
X166081850Y-96054386D01*
X166079010Y-96110531D01*
X166079010Y-96192773D01*
X165852674Y-96192773D01*
X165852674Y-96016733D01*
X165007082Y-96016733D01*
X164958203Y-96072262D01*
X164944836Y-96086722D01*
X164872388Y-96144813D01*
X164790532Y-96180576D01*
X164701900Y-96192773D01*
X164623692Y-96186306D01*
X164535233Y-96159047D01*
X164459507Y-96110328D01*
X164444748Y-96096403D01*
X164407864Y-96051328D01*
X164375503Y-95998819D01*
X164352297Y-95947061D01*
X164342879Y-95904239D01*
X164342697Y-95898023D01*
X164341342Y-95875246D01*
X164337800Y-95859513D01*
X164330390Y-95852068D01*
X164317431Y-95854156D01*
X164297243Y-95867020D01*
X164268145Y-95891905D01*
X164228456Y-95930053D01*
X164176496Y-95982710D01*
X164110584Y-96051119D01*
X164029040Y-96136524D01*
X163985604Y-96182112D01*
X163913000Y-96258441D01*
X163844309Y-96330808D01*
X163782223Y-96396366D01*
X163729434Y-96452274D01*
X163688634Y-96495686D01*
X163662515Y-96523758D01*
X163591119Y-96601436D01*
X163502863Y-96513416D01*
X164048690Y-95941287D01*
X164083105Y-95905188D01*
X164205546Y-95776272D01*
X164310651Y-95664754D01*
X164398736Y-95570288D01*
X164470116Y-95492529D01*
X164520588Y-95436174D01*
X164727247Y-95436174D01*
X164728872Y-95449434D01*
X164729156Y-95450819D01*
X164742698Y-95482228D01*
X164769748Y-95496863D01*
X164853129Y-95528063D01*
X164927418Y-95580038D01*
X164985846Y-95648791D01*
X165025890Y-95731315D01*
X165045026Y-95824606D01*
X165051364Y-95903565D01*
X166000838Y-95903565D01*
X166007458Y-95875273D01*
X166008629Y-95868329D01*
X166012268Y-95837281D01*
X166017234Y-95787081D01*
X166023157Y-95721727D01*
X166029669Y-95645219D01*
X166036401Y-95561555D01*
X166058724Y-95276129D01*
X165757826Y-94970565D01*
X165702636Y-94914704D01*
X165635109Y-94846888D01*
X165574529Y-94786643D01*
X165523021Y-94736052D01*
X165482710Y-94697200D01*
X165455722Y-94672170D01*
X165444182Y-94663046D01*
X165436444Y-94667405D01*
X165413395Y-94687241D01*
X165378709Y-94720375D01*
X165335487Y-94763820D01*
X165286832Y-94814587D01*
X165274140Y-94828051D01*
X165217229Y-94888275D01*
X165149414Y-94959864D01*
X165075800Y-95037437D01*
X165001493Y-95115611D01*
X164931599Y-95189005D01*
X164927401Y-95193409D01*
X164862420Y-95261785D01*
X164812836Y-95314732D01*
X164776688Y-95354767D01*
X164752016Y-95384411D01*
X164736858Y-95406181D01*
X164729256Y-95422595D01*
X164727247Y-95436174D01*
X164520588Y-95436174D01*
X164525105Y-95431131D01*
X164564019Y-95385748D01*
X164587173Y-95356035D01*
X164594882Y-95341644D01*
X164594883Y-95341559D01*
X164593825Y-95323624D01*
X164590737Y-95283421D01*
X164585858Y-95223687D01*
X164579432Y-95147158D01*
X164571700Y-95056569D01*
X164562905Y-94954657D01*
X164553287Y-94844159D01*
X164543091Y-94727811D01*
X164532556Y-94608348D01*
X164521926Y-94488507D01*
X164511442Y-94371025D01*
X164501346Y-94258637D01*
X164491881Y-94154081D01*
X164483288Y-94060091D01*
X164475809Y-93979405D01*
X164469687Y-93914759D01*
X164465162Y-93868888D01*
X164462478Y-93844530D01*
X164457067Y-93803732D01*
X164586253Y-93803732D01*
X164587908Y-93834653D01*
X164591549Y-93886653D01*
X164596995Y-93957487D01*
X164604063Y-94044911D01*
X164612570Y-94146681D01*
X164622335Y-94260552D01*
X164633174Y-94384279D01*
X164644907Y-94515618D01*
X164654079Y-94616908D01*
X164665566Y-94742526D01*
X164676322Y-94858762D01*
X164686131Y-94963380D01*
X164694781Y-95054140D01*
X164702057Y-95128804D01*
X164707746Y-95185134D01*
X164711634Y-95220891D01*
X164713506Y-95233837D01*
X164719188Y-95229826D01*
X164740020Y-95210138D01*
X164773872Y-95176322D01*
X164818412Y-95130837D01*
X164871310Y-95076146D01*
X164930236Y-95014710D01*
X164992858Y-94948990D01*
X165056848Y-94881449D01*
X165119874Y-94814547D01*
X165179606Y-94750746D01*
X165233713Y-94692507D01*
X165279865Y-94642292D01*
X165315733Y-94602563D01*
X165338984Y-94575780D01*
X165345778Y-94566477D01*
X165527601Y-94566477D01*
X165803305Y-94841968D01*
X165870726Y-94909224D01*
X165934267Y-94972162D01*
X165983490Y-95020100D01*
X166020196Y-95054594D01*
X166046190Y-95077199D01*
X166063276Y-95089471D01*
X166073256Y-95092966D01*
X166077935Y-95089238D01*
X166079116Y-95079844D01*
X166079873Y-95064749D01*
X166082601Y-95025883D01*
X166087108Y-94966895D01*
X166093179Y-94890473D01*
X166100596Y-94799305D01*
X166109142Y-94696080D01*
X166118602Y-94583483D01*
X166128758Y-94464205D01*
X166137723Y-94359077D01*
X166147066Y-94248351D01*
X166155443Y-94147814D01*
X166162653Y-94059943D01*
X166168496Y-93987215D01*
X166172769Y-93932110D01*
X166175273Y-93897104D01*
X166175805Y-93884674D01*
X166175384Y-93884908D01*
X166163509Y-93896350D01*
X166137130Y-93923198D01*
X166098570Y-93963018D01*
X166050153Y-94013372D01*
X165994203Y-94071828D01*
X165933042Y-94135948D01*
X165868995Y-94203298D01*
X165804385Y-94271443D01*
X165741535Y-94337948D01*
X165682768Y-94400377D01*
X165630409Y-94456295D01*
X165529533Y-94564406D01*
X165527601Y-94566477D01*
X165345778Y-94566477D01*
X165347290Y-94564406D01*
X165339148Y-94553383D01*
X165315478Y-94526999D01*
X165278478Y-94487527D01*
X165230350Y-94437191D01*
X165173296Y-94378217D01*
X165109520Y-94312830D01*
X165041222Y-94243255D01*
X164970605Y-94171716D01*
X164899871Y-94100438D01*
X164831222Y-94031647D01*
X164766861Y-93967566D01*
X164708989Y-93910422D01*
X164659810Y-93862439D01*
X164621524Y-93825841D01*
X164596334Y-93802854D01*
X164586442Y-93795703D01*
X164586253Y-93803732D01*
X164457067Y-93803732D01*
X164455390Y-93791089D01*
X164180297Y-93791089D01*
X164180140Y-93690495D01*
X164280891Y-93690495D01*
X164362624Y-93690495D01*
X164369895Y-93690489D01*
X164410950Y-93689613D01*
X164433277Y-93685867D01*
X164442529Y-93677270D01*
X164444357Y-93661840D01*
X164436306Y-93639159D01*
X164408730Y-93601428D01*
X164362624Y-93552179D01*
X164280891Y-93471172D01*
X164280891Y-93690495D01*
X164180140Y-93690495D01*
X164179968Y-93580471D01*
X164179639Y-93369852D01*
X163727914Y-92910891D01*
X163276189Y-92451931D01*
X163275570Y-92364848D01*
X163274951Y-92277767D01*
X163816769Y-92826952D01*
X163869137Y-92879998D01*
X163977803Y-92989772D01*
X164070709Y-93083114D01*
X164149055Y-93161173D01*
X164214043Y-93225097D01*
X164266872Y-93276035D01*
X164308743Y-93315135D01*
X164340855Y-93343548D01*
X164364410Y-93362420D01*
X164380608Y-93372901D01*
X164390649Y-93376139D01*
X164407579Y-93375158D01*
X164417084Y-93367996D01*
X164418723Y-93348401D01*
X164414782Y-93310124D01*
X164412065Y-93286025D01*
X164408284Y-93245744D01*
X164406760Y-93218961D01*
X164406015Y-93209728D01*
X164398746Y-93199839D01*
X164378668Y-93196562D01*
X164339689Y-93197992D01*
X164329737Y-93198553D01*
X164289898Y-93197921D01*
X164261560Y-93189167D01*
X164241586Y-93174951D01*
X164524852Y-93174951D01*
X164529013Y-93222104D01*
X164530935Y-93243498D01*
X164536924Y-93301909D01*
X164542826Y-93340381D01*
X164549727Y-93362912D01*
X164558712Y-93373498D01*
X164570870Y-93376139D01*
X164581801Y-93377937D01*
X164589050Y-93386530D01*
X164593100Y-93406505D01*
X164594863Y-93442450D01*
X164595248Y-93498952D01*
X164595248Y-93621766D01*
X164635447Y-93661840D01*
X164733565Y-93759654D01*
X164871881Y-93897542D01*
X164871881Y-93791089D01*
X165626337Y-93791089D01*
X165626337Y-94030000D01*
X165007831Y-94030000D01*
X165217592Y-94246906D01*
X165257770Y-94288334D01*
X165313328Y-94345200D01*
X165361570Y-94394082D01*
X165399971Y-94432441D01*
X165426003Y-94457741D01*
X165437140Y-94467442D01*
X165441373Y-94464767D01*
X165461224Y-94446782D01*
X165495451Y-94413481D01*
X165542227Y-94366712D01*
X165599724Y-94308325D01*
X165666112Y-94240169D01*
X165739564Y-94164094D01*
X165818251Y-94081950D01*
X165897341Y-93998943D01*
X165974871Y-93917136D01*
X166037746Y-93850083D01*
X166087502Y-93796007D01*
X166125678Y-93753129D01*
X166153811Y-93719673D01*
X166173440Y-93693861D01*
X166186101Y-93673914D01*
X166193334Y-93658056D01*
X166196675Y-93644509D01*
X166197561Y-93637910D01*
X166201488Y-93601548D01*
X166206459Y-93548018D01*
X166211927Y-93483421D01*
X166217344Y-93413862D01*
X166219181Y-93389635D01*
X166224488Y-93324178D01*
X166229548Y-93267717D01*
X166233863Y-93225618D01*
X166236934Y-93203243D01*
X166242955Y-93174951D01*
X164524852Y-93174951D01*
X164241586Y-93174951D01*
X164233630Y-93169289D01*
X164228820Y-93165104D01*
X164189482Y-93114427D01*
X164173903Y-93061782D01*
X164514698Y-93061782D01*
X165929221Y-93061782D01*
X166141881Y-93061782D01*
X166198908Y-93061782D01*
X166215993Y-93061662D01*
X166241308Y-93059462D01*
X166248616Y-93052334D01*
X166242943Y-93037508D01*
X166241267Y-93034682D01*
X166222448Y-93012944D01*
X166195183Y-92988820D01*
X166167987Y-92969254D01*
X166149371Y-92961188D01*
X166147697Y-92962463D01*
X166143544Y-92979976D01*
X166141881Y-93011485D01*
X166141881Y-93061782D01*
X165929221Y-93061782D01*
X165925526Y-92971095D01*
X165921832Y-92880407D01*
X165846386Y-92865252D01*
X165808551Y-92858379D01*
X165745368Y-92848756D01*
X165686065Y-92841496D01*
X165601188Y-92832893D01*
X165601188Y-92936040D01*
X165022773Y-92936040D01*
X165022773Y-92845122D01*
X164950471Y-92853753D01*
X164839998Y-92872249D01*
X164728816Y-92905691D01*
X164636850Y-92952324D01*
X164562542Y-93012786D01*
X164514698Y-93061782D01*
X164173903Y-93061782D01*
X164172172Y-93055934D01*
X164177474Y-92994575D01*
X164205975Y-92935297D01*
X164208733Y-92931606D01*
X164246822Y-92899851D01*
X164296476Y-92881067D01*
X164350002Y-92876071D01*
X164399707Y-92885678D01*
X164437900Y-92910704D01*
X164450831Y-92923480D01*
X164463428Y-92926576D01*
X164481467Y-92916998D01*
X164511928Y-92893082D01*
X164521274Y-92885731D01*
X164593430Y-92839339D01*
X164678915Y-92798084D01*
X164748830Y-92772575D01*
X165123367Y-92772575D01*
X165123367Y-92835446D01*
X165500594Y-92835446D01*
X165500594Y-92772575D01*
X165123367Y-92772575D01*
X164748830Y-92772575D01*
X164769767Y-92764936D01*
X164858027Y-92742868D01*
X164935736Y-92734852D01*
X164943991Y-92734788D01*
X164989879Y-92730321D01*
X165015079Y-92717795D01*
X165022773Y-92695784D01*
X165023676Y-92688849D01*
X165028615Y-92682885D01*
X165040611Y-92678519D01*
X165062680Y-92675503D01*
X165097836Y-92673590D01*
X165149094Y-92672530D01*
X165219471Y-92672077D01*
X165311980Y-92671980D01*
X165398660Y-92672150D01*
X165472332Y-92672834D01*
X165526265Y-92674215D01*
X165563288Y-92676470D01*
X165586230Y-92679778D01*
X165597920Y-92684320D01*
X165601188Y-92690272D01*
X165611937Y-92704888D01*
X165642055Y-92714215D01*
X165653582Y-92715847D01*
X165692886Y-92721591D01*
X165745188Y-92729378D01*
X165802376Y-92738003D01*
X165833916Y-92742393D01*
X165880074Y-92747148D01*
X165912641Y-92748295D01*
X165926023Y-92745495D01*
X165928308Y-92743671D01*
X165949405Y-92739165D01*
X165987355Y-92736029D01*
X166036048Y-92734852D01*
X166141881Y-92734852D01*
X166141894Y-92772575D01*
X166141894Y-92775718D01*
X166142388Y-92788668D01*
X166148819Y-92810411D01*
X166167123Y-92828851D01*
X166202830Y-92850801D01*
X166234174Y-92870854D01*
X166281893Y-92909356D01*
X166325138Y-92952579D01*
X166358219Y-92994627D01*
X166375442Y-93029604D01*
X166379662Y-93043081D01*
X166387480Y-93052334D01*
X166390116Y-93055454D01*
X166411662Y-93060696D01*
M02*
