G04 #@! TF.GenerationSoftware,KiCad,Pcbnew,6.0.7+dfsg-1*
G04 #@! TF.CreationDate,2023-01-03T09:25:58-06:00*
G04 #@! TF.ProjectId,C64UserPortMidi,43363455-7365-4725-906f-72744d696469,V1.0 RevA*
G04 #@! TF.SameCoordinates,Original*
G04 #@! TF.FileFunction,Soldermask,Top*
G04 #@! TF.FilePolarity,Negative*
%FSLAX46Y46*%
G04 Gerber Fmt 4.6, Leading zero omitted, Abs format (unit mm)*
G04 Created by KiCad (PCBNEW 6.0.7+dfsg-1) date 2023-01-03 09:25:58*
%MOMM*%
%LPD*%
G01*
G04 APERTURE LIST*
G04 Aperture macros list*
%AMRoundRect*
0 Rectangle with rounded corners*
0 $1 Rounding radius*
0 $2 $3 $4 $5 $6 $7 $8 $9 X,Y pos of 4 corners*
0 Add a 4 corners polygon primitive as box body*
4,1,4,$2,$3,$4,$5,$6,$7,$8,$9,$2,$3,0*
0 Add four circle primitives for the rounded corners*
1,1,$1+$1,$2,$3*
1,1,$1+$1,$4,$5*
1,1,$1+$1,$6,$7*
1,1,$1+$1,$8,$9*
0 Add four rect primitives between the rounded corners*
20,1,$1+$1,$2,$3,$4,$5,0*
20,1,$1+$1,$4,$5,$6,$7,0*
20,1,$1+$1,$6,$7,$8,$9,0*
20,1,$1+$1,$8,$9,$2,$3,0*%
%AMFreePoly0*
4,1,22,0.500000,-0.750000,0.000000,-0.750000,0.000000,-0.745033,-0.079941,-0.743568,-0.215256,-0.701293,-0.333266,-0.622738,-0.424486,-0.514219,-0.481581,-0.384460,-0.499164,-0.250000,-0.500000,-0.250000,-0.500000,0.250000,-0.499164,0.250000,-0.499963,0.256109,-0.478152,0.396186,-0.417904,0.524511,-0.324060,0.630769,-0.204165,0.706417,-0.067858,0.745374,0.000000,0.744959,0.000000,0.750000,
0.500000,0.750000,0.500000,-0.750000,0.500000,-0.750000,$1*%
%AMFreePoly1*
4,1,20,0.000000,0.744959,0.073905,0.744508,0.209726,0.703889,0.328688,0.626782,0.421226,0.519385,0.479903,0.390333,0.500000,0.250000,0.500000,-0.250000,0.499851,-0.262216,0.476331,-0.402017,0.414519,-0.529596,0.319384,-0.634700,0.198574,-0.708877,0.061801,-0.746166,0.000000,-0.745033,0.000000,-0.750000,-0.500000,-0.750000,-0.500000,0.750000,0.000000,0.750000,0.000000,0.744959,
0.000000,0.744959,$1*%
G04 Aperture macros list end*
%ADD10R,1.600000X1.600000*%
%ADD11O,1.600000X1.600000*%
%ADD12C,1.600000*%
%ADD13RoundRect,0.220000X-0.880000X-4.280000X0.880000X-4.280000X0.880000X4.280000X-0.880000X4.280000X0*%
%ADD14C,2.500000*%
%ADD15R,2.400000X1.600000*%
%ADD16O,2.400000X1.600000*%
%ADD17R,1.700000X1.700000*%
%ADD18O,1.700000X1.700000*%
%ADD19R,1.600000X2.400000*%
%ADD20O,1.600000X2.400000*%
%ADD21R,1.500000X1.050000*%
%ADD22O,1.500000X1.050000*%
%ADD23FreePoly0,0.000000*%
%ADD24FreePoly1,0.000000*%
%ADD25C,1.500000*%
%ADD26R,1.800000X1.800000*%
%ADD27C,1.800000*%
%ADD28FreePoly0,90.000000*%
%ADD29FreePoly1,90.000000*%
G04 APERTURE END LIST*
D10*
X126290000Y-112600000D03*
D11*
X133910000Y-112600000D03*
D10*
X110600000Y-127400000D03*
D12*
X110600000Y-129400000D03*
D13*
X159850000Y-134000000D03*
X155890000Y-134000000D03*
X151930000Y-134000000D03*
X147970000Y-134000000D03*
X144010000Y-134000000D03*
X140050000Y-134000000D03*
X136090000Y-134000000D03*
X132130000Y-134000000D03*
X128170000Y-134000000D03*
X124210000Y-134000000D03*
X120250000Y-134000000D03*
X116290000Y-134000000D03*
X159850000Y-134000000D03*
X155890000Y-134000000D03*
X151930000Y-134000000D03*
X147970000Y-134000000D03*
X144010000Y-134000000D03*
X140050000Y-134000000D03*
X136090000Y-134000000D03*
X132130000Y-134000000D03*
X128170000Y-134000000D03*
X124210000Y-134000000D03*
X120250000Y-134000000D03*
X116290000Y-134000000D03*
D14*
X115550000Y-100200000D03*
X123050000Y-100200000D03*
X130550000Y-100200000D03*
X118050000Y-102700000D03*
X128050000Y-102700000D03*
X118050000Y-90200000D03*
X128050000Y-90200000D03*
D12*
X126300000Y-109200000D03*
D11*
X133920000Y-109200000D03*
D15*
X114930923Y-116469922D03*
D16*
X114930923Y-119009922D03*
X114930923Y-121549922D03*
X114930923Y-124089922D03*
X122550923Y-124089922D03*
X122550923Y-121549922D03*
X122550923Y-119009922D03*
X122550923Y-116469922D03*
D12*
X116200000Y-109200000D03*
D11*
X123820000Y-109200000D03*
D17*
X159800000Y-122800000D03*
D18*
X157260000Y-122800000D03*
X159800000Y-120260000D03*
X157260000Y-120260000D03*
X159800000Y-117720000D03*
X157260000Y-117720000D03*
D12*
X123810000Y-112600000D03*
D11*
X116190000Y-112600000D03*
D19*
X126600000Y-124100000D03*
D20*
X129140000Y-124100000D03*
X131680000Y-124100000D03*
X134220000Y-124100000D03*
X136760000Y-124100000D03*
X139300000Y-124100000D03*
X141840000Y-124100000D03*
X144380000Y-124100000D03*
X146920000Y-124100000D03*
X149460000Y-124100000D03*
X149460000Y-116480000D03*
X146920000Y-116480000D03*
X144380000Y-116480000D03*
X141840000Y-116480000D03*
X139300000Y-116480000D03*
X136760000Y-116480000D03*
X134220000Y-116480000D03*
X131680000Y-116480000D03*
X129140000Y-116480000D03*
X126600000Y-116480000D03*
D12*
X159910000Y-112600000D03*
D11*
X152290000Y-112600000D03*
D21*
X148760000Y-112370000D03*
D22*
X148760000Y-111100000D03*
X148760000Y-109830000D03*
D23*
X152450000Y-116500000D03*
D24*
X153750000Y-116500000D03*
D10*
X142800000Y-110300000D03*
D12*
X142800000Y-112300000D03*
D10*
X138100000Y-104700000D03*
D12*
X138100000Y-106700000D03*
D14*
X145550000Y-100200000D03*
X153050000Y-100200000D03*
X160550000Y-100200000D03*
X148050000Y-102700000D03*
X158050000Y-102700000D03*
X148050000Y-90200000D03*
X158050000Y-90200000D03*
D12*
X159900000Y-109200000D03*
D11*
X152280000Y-109200000D03*
D25*
X165700000Y-122700000D03*
X110600000Y-123700000D03*
D12*
X135550000Y-93890000D03*
D11*
X135550000Y-101510000D03*
D25*
X165700000Y-119800000D03*
D12*
X140550000Y-93890000D03*
D11*
X140550000Y-101510000D03*
D26*
X138050000Y-91275000D03*
D27*
X138050000Y-88735000D03*
D28*
X152900000Y-124650000D03*
D29*
X152900000Y-123350000D03*
D10*
X165500000Y-127400000D03*
D12*
X165500000Y-129400000D03*
M02*
