G04 #@! TF.GenerationSoftware,KiCad,Pcbnew,5.1.9+dfsg1-1*
G04 #@! TF.CreationDate,2021-03-09T09:38:51-06:00*
G04 #@! TF.ProjectId,C64UserPortMidi,43363455-7365-4725-906f-72744d696469,rev?*
G04 #@! TF.SameCoordinates,Original*
G04 #@! TF.FileFunction,Legend,Top*
G04 #@! TF.FilePolarity,Positive*
%FSLAX46Y46*%
G04 Gerber Fmt 4.6, Leading zero omitted, Abs format (unit mm)*
G04 Created by KiCad (PCBNEW 5.1.9+dfsg1-1) date 2021-03-09 09:38:51*
%MOMM*%
%LPD*%
G01*
G04 APERTURE LIST*
%ADD10C,0.150000*%
%ADD11C,0.200000*%
%ADD12C,0.100000*%
%ADD13C,0.304800*%
%ADD14C,0.500000*%
%ADD15C,0.120000*%
%ADD16C,0.300000*%
G04 APERTURE END LIST*
D10*
X132365904Y-109148619D02*
X132413523Y-109101000D01*
X132508761Y-109053380D01*
X132746857Y-109053380D01*
X132842095Y-109101000D01*
X132889714Y-109148619D01*
X132937333Y-109243857D01*
X132937333Y-109339095D01*
X132889714Y-109481952D01*
X132318285Y-110053380D01*
X132937333Y-110053380D01*
X133318285Y-109148619D02*
X133365904Y-109101000D01*
X133461142Y-109053380D01*
X133699238Y-109053380D01*
X133794476Y-109101000D01*
X133842095Y-109148619D01*
X133889714Y-109243857D01*
X133889714Y-109339095D01*
X133842095Y-109481952D01*
X133270666Y-110053380D01*
X133889714Y-110053380D01*
X134508761Y-109053380D02*
X134604000Y-109053380D01*
X134699238Y-109101000D01*
X134746857Y-109148619D01*
X134794476Y-109243857D01*
X134842095Y-109434333D01*
X134842095Y-109672428D01*
X134794476Y-109862904D01*
X134746857Y-109958142D01*
X134699238Y-110005761D01*
X134604000Y-110053380D01*
X134508761Y-110053380D01*
X134413523Y-110005761D01*
X134365904Y-109958142D01*
X134318285Y-109862904D01*
X134270666Y-109672428D01*
X134270666Y-109434333D01*
X134318285Y-109243857D01*
X134365904Y-109148619D01*
X134413523Y-109101000D01*
X134508761Y-109053380D01*
X110117142Y-120864380D02*
X110212380Y-120864380D01*
X110307619Y-120912000D01*
X110355238Y-120959619D01*
X110402857Y-121054857D01*
X110450476Y-121245333D01*
X110450476Y-121483428D01*
X110402857Y-121673904D01*
X110355238Y-121769142D01*
X110307619Y-121816761D01*
X110212380Y-121864380D01*
X110117142Y-121864380D01*
X110021904Y-121816761D01*
X109974285Y-121769142D01*
X109926666Y-121673904D01*
X109879047Y-121483428D01*
X109879047Y-121245333D01*
X109926666Y-121054857D01*
X109974285Y-120959619D01*
X110021904Y-120912000D01*
X110117142Y-120864380D01*
X110879047Y-121769142D02*
X110926666Y-121816761D01*
X110879047Y-121864380D01*
X110831428Y-121816761D01*
X110879047Y-121769142D01*
X110879047Y-121864380D01*
X111879047Y-121864380D02*
X111307619Y-121864380D01*
X111593333Y-121864380D02*
X111593333Y-120864380D01*
X111498095Y-121007238D01*
X111402857Y-121102476D01*
X111307619Y-121150095D01*
X112736190Y-121197714D02*
X112736190Y-121864380D01*
X112307619Y-121197714D02*
X112307619Y-121721523D01*
X112355238Y-121816761D01*
X112450476Y-121864380D01*
X112593333Y-121864380D01*
X112688571Y-121816761D01*
X112736190Y-121769142D01*
X113545714Y-121340571D02*
X113212380Y-121340571D01*
X113212380Y-121864380D02*
X113212380Y-120864380D01*
X113688571Y-120864380D01*
D11*
X113739571Y-124398428D02*
X113680047Y-124457952D01*
X113501476Y-124517476D01*
X113382428Y-124517476D01*
X113203857Y-124457952D01*
X113084809Y-124338904D01*
X113025285Y-124219857D01*
X112965761Y-123981761D01*
X112965761Y-123803190D01*
X113025285Y-123565095D01*
X113084809Y-123446047D01*
X113203857Y-123327000D01*
X113382428Y-123267476D01*
X113501476Y-123267476D01*
X113680047Y-123327000D01*
X113739571Y-123386523D01*
X114811000Y-123267476D02*
X114572904Y-123267476D01*
X114453857Y-123327000D01*
X114394333Y-123386523D01*
X114275285Y-123565095D01*
X114215761Y-123803190D01*
X114215761Y-124279380D01*
X114275285Y-124398428D01*
X114334809Y-124457952D01*
X114453857Y-124517476D01*
X114691952Y-124517476D01*
X114811000Y-124457952D01*
X114870523Y-124398428D01*
X114930047Y-124279380D01*
X114930047Y-123981761D01*
X114870523Y-123862714D01*
X114811000Y-123803190D01*
X114691952Y-123743666D01*
X114453857Y-123743666D01*
X114334809Y-123803190D01*
X114275285Y-123862714D01*
X114215761Y-123981761D01*
X116001476Y-123684142D02*
X116001476Y-124517476D01*
X115703857Y-123207952D02*
X115406238Y-124100809D01*
X116180047Y-124100809D01*
X116656238Y-123267476D02*
X116656238Y-124279380D01*
X116715761Y-124398428D01*
X116775285Y-124457952D01*
X116894333Y-124517476D01*
X117132428Y-124517476D01*
X117251476Y-124457952D01*
X117311000Y-124398428D01*
X117370523Y-124279380D01*
X117370523Y-123267476D01*
X117906238Y-124457952D02*
X118025285Y-124517476D01*
X118263380Y-124517476D01*
X118382428Y-124457952D01*
X118441952Y-124338904D01*
X118441952Y-124279380D01*
X118382428Y-124160333D01*
X118263380Y-124100809D01*
X118084809Y-124100809D01*
X117965761Y-124041285D01*
X117906238Y-123922238D01*
X117906238Y-123862714D01*
X117965761Y-123743666D01*
X118084809Y-123684142D01*
X118263380Y-123684142D01*
X118382428Y-123743666D01*
X119453857Y-124457952D02*
X119334809Y-124517476D01*
X119096714Y-124517476D01*
X118977666Y-124457952D01*
X118918142Y-124338904D01*
X118918142Y-123862714D01*
X118977666Y-123743666D01*
X119096714Y-123684142D01*
X119334809Y-123684142D01*
X119453857Y-123743666D01*
X119513380Y-123862714D01*
X119513380Y-123981761D01*
X118918142Y-124100809D01*
X120049095Y-124517476D02*
X120049095Y-123684142D01*
X120049095Y-123922238D02*
X120108619Y-123803190D01*
X120168142Y-123743666D01*
X120287190Y-123684142D01*
X120406238Y-123684142D01*
X120822904Y-124517476D02*
X120822904Y-123267476D01*
X121299095Y-123267476D01*
X121418142Y-123327000D01*
X121477666Y-123386523D01*
X121537190Y-123505571D01*
X121537190Y-123684142D01*
X121477666Y-123803190D01*
X121418142Y-123862714D01*
X121299095Y-123922238D01*
X120822904Y-123922238D01*
X122251476Y-124517476D02*
X122132428Y-124457952D01*
X122072904Y-124398428D01*
X122013380Y-124279380D01*
X122013380Y-123922238D01*
X122072904Y-123803190D01*
X122132428Y-123743666D01*
X122251476Y-123684142D01*
X122430047Y-123684142D01*
X122549095Y-123743666D01*
X122608619Y-123803190D01*
X122668142Y-123922238D01*
X122668142Y-124279380D01*
X122608619Y-124398428D01*
X122549095Y-124457952D01*
X122430047Y-124517476D01*
X122251476Y-124517476D01*
X123203857Y-124517476D02*
X123203857Y-123684142D01*
X123203857Y-123922238D02*
X123263380Y-123803190D01*
X123322904Y-123743666D01*
X123441952Y-123684142D01*
X123561000Y-123684142D01*
X123799095Y-123684142D02*
X124275285Y-123684142D01*
X123977666Y-123267476D02*
X123977666Y-124338904D01*
X124037190Y-124457952D01*
X124156238Y-124517476D01*
X124275285Y-124517476D01*
X124691952Y-124517476D02*
X124691952Y-123267476D01*
X125108619Y-124160333D01*
X125525285Y-123267476D01*
X125525285Y-124517476D01*
X126120523Y-124517476D02*
X126120523Y-123684142D01*
X126120523Y-123267476D02*
X126061000Y-123327000D01*
X126120523Y-123386523D01*
X126180047Y-123327000D01*
X126120523Y-123267476D01*
X126120523Y-123386523D01*
X127251476Y-124517476D02*
X127251476Y-123267476D01*
X127251476Y-124457952D02*
X127132428Y-124517476D01*
X126894333Y-124517476D01*
X126775285Y-124457952D01*
X126715761Y-124398428D01*
X126656238Y-124279380D01*
X126656238Y-123922238D01*
X126715761Y-123803190D01*
X126775285Y-123743666D01*
X126894333Y-123684142D01*
X127132428Y-123684142D01*
X127251476Y-123743666D01*
X127846714Y-124517476D02*
X127846714Y-123684142D01*
X127846714Y-123267476D02*
X127787190Y-123327000D01*
X127846714Y-123386523D01*
X127906238Y-123327000D01*
X127846714Y-123267476D01*
X127846714Y-123386523D01*
X129215761Y-123267476D02*
X129632428Y-124517476D01*
X130049095Y-123267476D01*
X131120523Y-124517476D02*
X130406238Y-124517476D01*
X130763380Y-124517476D02*
X130763380Y-123267476D01*
X130644333Y-123446047D01*
X130525285Y-123565095D01*
X130406238Y-123624619D01*
X131656238Y-124398428D02*
X131715761Y-124457952D01*
X131656238Y-124517476D01*
X131596714Y-124457952D01*
X131656238Y-124398428D01*
X131656238Y-124517476D01*
X132489571Y-123267476D02*
X132608619Y-123267476D01*
X132727666Y-123327000D01*
X132787190Y-123386523D01*
X132846714Y-123505571D01*
X132906238Y-123743666D01*
X132906238Y-124041285D01*
X132846714Y-124279380D01*
X132787190Y-124398428D01*
X132727666Y-124457952D01*
X132608619Y-124517476D01*
X132489571Y-124517476D01*
X132370523Y-124457952D01*
X132311000Y-124398428D01*
X132251476Y-124279380D01*
X132191952Y-124041285D01*
X132191952Y-123743666D01*
X132251476Y-123505571D01*
X132311000Y-123386523D01*
X132370523Y-123327000D01*
X132489571Y-123267476D01*
D10*
X152598380Y-121364190D02*
X151598380Y-121364190D01*
X152503142Y-120316571D02*
X152550761Y-120364190D01*
X152598380Y-120507047D01*
X152598380Y-120602285D01*
X152550761Y-120745142D01*
X152455523Y-120840380D01*
X152360285Y-120888000D01*
X152169809Y-120935619D01*
X152026952Y-120935619D01*
X151836476Y-120888000D01*
X151741238Y-120840380D01*
X151646000Y-120745142D01*
X151598380Y-120602285D01*
X151598380Y-120507047D01*
X151646000Y-120364190D01*
X151693619Y-120316571D01*
X152550761Y-119935619D02*
X152598380Y-119792761D01*
X152598380Y-119554666D01*
X152550761Y-119459428D01*
X152503142Y-119411809D01*
X152407904Y-119364190D01*
X152312666Y-119364190D01*
X152217428Y-119411809D01*
X152169809Y-119459428D01*
X152122190Y-119554666D01*
X152074571Y-119745142D01*
X152026952Y-119840380D01*
X151979333Y-119888000D01*
X151884095Y-119935619D01*
X151788857Y-119935619D01*
X151693619Y-119888000D01*
X151646000Y-119840380D01*
X151598380Y-119745142D01*
X151598380Y-119507047D01*
X151646000Y-119364190D01*
X152598380Y-118935619D02*
X151598380Y-118935619D01*
X151598380Y-118554666D01*
X151646000Y-118459428D01*
X151693619Y-118411809D01*
X151788857Y-118364190D01*
X151931714Y-118364190D01*
X152026952Y-118411809D01*
X152074571Y-118459428D01*
X152122190Y-118554666D01*
X152122190Y-118935619D01*
D12*
X143740285Y-123416190D02*
X143740285Y-122916190D01*
X143906952Y-123273333D01*
X144073619Y-122916190D01*
X144073619Y-123416190D01*
X144311714Y-123416190D02*
X144311714Y-122916190D01*
X144526000Y-123392380D02*
X144597428Y-123416190D01*
X144716476Y-123416190D01*
X144764095Y-123392380D01*
X144787904Y-123368571D01*
X144811714Y-123320952D01*
X144811714Y-123273333D01*
X144787904Y-123225714D01*
X144764095Y-123201904D01*
X144716476Y-123178095D01*
X144621238Y-123154285D01*
X144573619Y-123130476D01*
X144549809Y-123106666D01*
X144526000Y-123059047D01*
X144526000Y-123011428D01*
X144549809Y-122963809D01*
X144573619Y-122940000D01*
X144621238Y-122916190D01*
X144740285Y-122916190D01*
X144811714Y-122940000D01*
X145121238Y-122916190D02*
X145216476Y-122916190D01*
X145264095Y-122940000D01*
X145311714Y-122987619D01*
X145335523Y-123082857D01*
X145335523Y-123249523D01*
X145311714Y-123344761D01*
X145264095Y-123392380D01*
X145216476Y-123416190D01*
X145121238Y-123416190D01*
X145073619Y-123392380D01*
X145026000Y-123344761D01*
X145002190Y-123249523D01*
X145002190Y-123082857D01*
X145026000Y-122987619D01*
X145073619Y-122940000D01*
X145121238Y-122916190D01*
X146423142Y-123392380D02*
X146494571Y-123416190D01*
X146613619Y-123416190D01*
X146661238Y-123392380D01*
X146685047Y-123368571D01*
X146708857Y-123320952D01*
X146708857Y-123273333D01*
X146685047Y-123225714D01*
X146661238Y-123201904D01*
X146613619Y-123178095D01*
X146518380Y-123154285D01*
X146470761Y-123130476D01*
X146446952Y-123106666D01*
X146423142Y-123059047D01*
X146423142Y-123011428D01*
X146446952Y-122963809D01*
X146470761Y-122940000D01*
X146518380Y-122916190D01*
X146637428Y-122916190D01*
X146708857Y-122940000D01*
X147208857Y-123368571D02*
X147185047Y-123392380D01*
X147113619Y-123416190D01*
X147066000Y-123416190D01*
X146994571Y-123392380D01*
X146946952Y-123344761D01*
X146923142Y-123297142D01*
X146899333Y-123201904D01*
X146899333Y-123130476D01*
X146923142Y-123035238D01*
X146946952Y-122987619D01*
X146994571Y-122940000D01*
X147066000Y-122916190D01*
X147113619Y-122916190D01*
X147185047Y-122940000D01*
X147208857Y-122963809D01*
X147423142Y-123416190D02*
X147423142Y-122916190D01*
X147708857Y-123416190D02*
X147494571Y-123130476D01*
X147708857Y-122916190D02*
X147423142Y-123201904D01*
X149332190Y-123416190D02*
X149165523Y-123178095D01*
X149046476Y-123416190D02*
X149046476Y-122916190D01*
X149236952Y-122916190D01*
X149284571Y-122940000D01*
X149308380Y-122963809D01*
X149332190Y-123011428D01*
X149332190Y-123082857D01*
X149308380Y-123130476D01*
X149284571Y-123154285D01*
X149236952Y-123178095D01*
X149046476Y-123178095D01*
X149522666Y-123392380D02*
X149594095Y-123416190D01*
X149713142Y-123416190D01*
X149760761Y-123392380D01*
X149784571Y-123368571D01*
X149808380Y-123320952D01*
X149808380Y-123273333D01*
X149784571Y-123225714D01*
X149760761Y-123201904D01*
X149713142Y-123178095D01*
X149617904Y-123154285D01*
X149570285Y-123130476D01*
X149546476Y-123106666D01*
X149522666Y-123059047D01*
X149522666Y-123011428D01*
X149546476Y-122963809D01*
X149570285Y-122940000D01*
X149617904Y-122916190D01*
X149736952Y-122916190D01*
X149808380Y-122940000D01*
X149951238Y-122916190D02*
X150236952Y-122916190D01*
X150094095Y-123416190D02*
X150094095Y-122916190D01*
X149225047Y-116336000D02*
X149177428Y-116312190D01*
X149106000Y-116312190D01*
X149034571Y-116336000D01*
X148986952Y-116383619D01*
X148963142Y-116431238D01*
X148939333Y-116526476D01*
X148939333Y-116597904D01*
X148963142Y-116693142D01*
X148986952Y-116740761D01*
X149034571Y-116788380D01*
X149106000Y-116812190D01*
X149153619Y-116812190D01*
X149225047Y-116788380D01*
X149248857Y-116764571D01*
X149248857Y-116597904D01*
X149153619Y-116597904D01*
X149463142Y-116812190D02*
X149463142Y-116312190D01*
X149748857Y-116812190D01*
X149748857Y-116312190D01*
X149986952Y-116812190D02*
X149986952Y-116312190D01*
X150106000Y-116312190D01*
X150177428Y-116336000D01*
X150225047Y-116383619D01*
X150248857Y-116431238D01*
X150272666Y-116526476D01*
X150272666Y-116597904D01*
X150248857Y-116693142D01*
X150225047Y-116740761D01*
X150177428Y-116788380D01*
X150106000Y-116812190D01*
X149986952Y-116812190D01*
X146280285Y-116812190D02*
X146280285Y-116312190D01*
X146446952Y-116669333D01*
X146613619Y-116312190D01*
X146613619Y-116812190D01*
X146946952Y-116312190D02*
X147042190Y-116312190D01*
X147089809Y-116336000D01*
X147137428Y-116383619D01*
X147161238Y-116478857D01*
X147161238Y-116645523D01*
X147137428Y-116740761D01*
X147089809Y-116788380D01*
X147042190Y-116812190D01*
X146946952Y-116812190D01*
X146899333Y-116788380D01*
X146851714Y-116740761D01*
X146827904Y-116645523D01*
X146827904Y-116478857D01*
X146851714Y-116383619D01*
X146899333Y-116336000D01*
X146946952Y-116312190D01*
X147351714Y-116788380D02*
X147423142Y-116812190D01*
X147542190Y-116812190D01*
X147589809Y-116788380D01*
X147613619Y-116764571D01*
X147637428Y-116716952D01*
X147637428Y-116669333D01*
X147613619Y-116621714D01*
X147589809Y-116597904D01*
X147542190Y-116574095D01*
X147446952Y-116550285D01*
X147399333Y-116526476D01*
X147375523Y-116502666D01*
X147351714Y-116455047D01*
X147351714Y-116407428D01*
X147375523Y-116359809D01*
X147399333Y-116336000D01*
X147446952Y-116312190D01*
X147566000Y-116312190D01*
X147637428Y-116336000D01*
X147851714Y-116812190D02*
X147851714Y-116312190D01*
X143859333Y-116312190D02*
X144026000Y-116812190D01*
X144192666Y-116312190D01*
X144645047Y-116764571D02*
X144621238Y-116788380D01*
X144549809Y-116812190D01*
X144502190Y-116812190D01*
X144430761Y-116788380D01*
X144383142Y-116740761D01*
X144359333Y-116693142D01*
X144335523Y-116597904D01*
X144335523Y-116526476D01*
X144359333Y-116431238D01*
X144383142Y-116383619D01*
X144430761Y-116336000D01*
X144502190Y-116312190D01*
X144549809Y-116312190D01*
X144621238Y-116336000D01*
X144645047Y-116359809D01*
X145145047Y-116764571D02*
X145121238Y-116788380D01*
X145049809Y-116812190D01*
X145002190Y-116812190D01*
X144930761Y-116788380D01*
X144883142Y-116740761D01*
X144859333Y-116693142D01*
X144835523Y-116597904D01*
X144835523Y-116526476D01*
X144859333Y-116431238D01*
X144883142Y-116383619D01*
X144930761Y-116336000D01*
X145002190Y-116312190D01*
X145049809Y-116312190D01*
X145121238Y-116336000D01*
X145145047Y-116359809D01*
D10*
X114181142Y-115530380D02*
X114276380Y-115530380D01*
X114371619Y-115578000D01*
X114419238Y-115625619D01*
X114466857Y-115720857D01*
X114514476Y-115911333D01*
X114514476Y-116149428D01*
X114466857Y-116339904D01*
X114419238Y-116435142D01*
X114371619Y-116482761D01*
X114276380Y-116530380D01*
X114181142Y-116530380D01*
X114085904Y-116482761D01*
X114038285Y-116435142D01*
X113990666Y-116339904D01*
X113943047Y-116149428D01*
X113943047Y-115911333D01*
X113990666Y-115720857D01*
X114038285Y-115625619D01*
X114085904Y-115578000D01*
X114181142Y-115530380D01*
X114943047Y-116435142D02*
X114990666Y-116482761D01*
X114943047Y-116530380D01*
X114895428Y-116482761D01*
X114943047Y-116435142D01*
X114943047Y-116530380D01*
X115943047Y-116530380D02*
X115371619Y-116530380D01*
X115657333Y-116530380D02*
X115657333Y-115530380D01*
X115562095Y-115673238D01*
X115466857Y-115768476D01*
X115371619Y-115816095D01*
X116800190Y-115863714D02*
X116800190Y-116530380D01*
X116371619Y-115863714D02*
X116371619Y-116387523D01*
X116419238Y-116482761D01*
X116514476Y-116530380D01*
X116657333Y-116530380D01*
X116752571Y-116482761D01*
X116800190Y-116435142D01*
X117609714Y-116006571D02*
X117276380Y-116006571D01*
X117276380Y-116530380D02*
X117276380Y-115530380D01*
X117752571Y-115530380D01*
X141994142Y-112482380D02*
X142089380Y-112482380D01*
X142184619Y-112530000D01*
X142232238Y-112577619D01*
X142279857Y-112672857D01*
X142327476Y-112863333D01*
X142327476Y-113101428D01*
X142279857Y-113291904D01*
X142232238Y-113387142D01*
X142184619Y-113434761D01*
X142089380Y-113482380D01*
X141994142Y-113482380D01*
X141898904Y-113434761D01*
X141851285Y-113387142D01*
X141803666Y-113291904D01*
X141756047Y-113101428D01*
X141756047Y-112863333D01*
X141803666Y-112672857D01*
X141851285Y-112577619D01*
X141898904Y-112530000D01*
X141994142Y-112482380D01*
X142756047Y-113387142D02*
X142803666Y-113434761D01*
X142756047Y-113482380D01*
X142708428Y-113434761D01*
X142756047Y-113387142D01*
X142756047Y-113482380D01*
X143756047Y-113482380D02*
X143184619Y-113482380D01*
X143470333Y-113482380D02*
X143470333Y-112482380D01*
X143375095Y-112625238D01*
X143279857Y-112720476D01*
X143184619Y-112768095D01*
X144613190Y-112815714D02*
X144613190Y-113482380D01*
X144184619Y-112815714D02*
X144184619Y-113339523D01*
X144232238Y-113434761D01*
X144327476Y-113482380D01*
X144470333Y-113482380D01*
X144565571Y-113434761D01*
X144613190Y-113387142D01*
X145422714Y-112958571D02*
X145089380Y-112958571D01*
X145089380Y-113482380D02*
X145089380Y-112482380D01*
X145565571Y-112482380D01*
X125262095Y-116292380D02*
X125928761Y-116292380D01*
X125500190Y-117292380D01*
X126738285Y-116625714D02*
X126738285Y-117292380D01*
X126500190Y-116244761D02*
X126262095Y-116959047D01*
X126881142Y-116959047D01*
X127262095Y-117292380D02*
X127262095Y-116292380D01*
X127262095Y-116768571D02*
X127833523Y-116768571D01*
X127833523Y-117292380D02*
X127833523Y-116292380D01*
X128881142Y-117197142D02*
X128833523Y-117244761D01*
X128690666Y-117292380D01*
X128595428Y-117292380D01*
X128452571Y-117244761D01*
X128357333Y-117149523D01*
X128309714Y-117054285D01*
X128262095Y-116863809D01*
X128262095Y-116720952D01*
X128309714Y-116530476D01*
X128357333Y-116435238D01*
X128452571Y-116340000D01*
X128595428Y-116292380D01*
X128690666Y-116292380D01*
X128833523Y-116340000D01*
X128881142Y-116387619D01*
X129785904Y-116292380D02*
X129309714Y-116292380D01*
X129262095Y-116768571D01*
X129309714Y-116720952D01*
X129404952Y-116673333D01*
X129643047Y-116673333D01*
X129738285Y-116720952D01*
X129785904Y-116768571D01*
X129833523Y-116863809D01*
X129833523Y-117101904D01*
X129785904Y-117197142D01*
X129738285Y-117244761D01*
X129643047Y-117292380D01*
X129404952Y-117292380D01*
X129309714Y-117244761D01*
X129262095Y-117197142D01*
X130309714Y-117292380D02*
X130500190Y-117292380D01*
X130595428Y-117244761D01*
X130643047Y-117197142D01*
X130738285Y-117054285D01*
X130785904Y-116863809D01*
X130785904Y-116482857D01*
X130738285Y-116387619D01*
X130690666Y-116340000D01*
X130595428Y-116292380D01*
X130404952Y-116292380D01*
X130309714Y-116340000D01*
X130262095Y-116387619D01*
X130214476Y-116482857D01*
X130214476Y-116720952D01*
X130262095Y-116816190D01*
X130309714Y-116863809D01*
X130404952Y-116911428D01*
X130595428Y-116911428D01*
X130690666Y-116863809D01*
X130738285Y-116816190D01*
X130785904Y-116720952D01*
X131690666Y-116292380D02*
X131214476Y-116292380D01*
X131166857Y-116768571D01*
X131214476Y-116720952D01*
X131309714Y-116673333D01*
X131547809Y-116673333D01*
X131643047Y-116720952D01*
X131690666Y-116768571D01*
X131738285Y-116863809D01*
X131738285Y-117101904D01*
X131690666Y-117197142D01*
X131643047Y-117244761D01*
X131547809Y-117292380D01*
X131309714Y-117292380D01*
X131214476Y-117244761D01*
X131166857Y-117197142D01*
X147486666Y-106179571D02*
X147486666Y-105703380D01*
X147772380Y-106274809D02*
X146772380Y-105941476D01*
X147772380Y-105608142D01*
X146772380Y-105417666D02*
X146772380Y-104846238D01*
X147772380Y-105131952D02*
X146772380Y-105131952D01*
X147105714Y-104655761D02*
X147105714Y-104274809D01*
X146772380Y-104512904D02*
X147629523Y-104512904D01*
X147724761Y-104465285D01*
X147772380Y-104370047D01*
X147772380Y-104274809D01*
X147772380Y-103941476D02*
X147105714Y-103941476D01*
X146772380Y-103941476D02*
X146820000Y-103989095D01*
X146867619Y-103941476D01*
X146820000Y-103893857D01*
X146772380Y-103941476D01*
X146867619Y-103941476D01*
X147105714Y-103465285D02*
X147772380Y-103465285D01*
X147200952Y-103465285D02*
X147153333Y-103417666D01*
X147105714Y-103322428D01*
X147105714Y-103179571D01*
X147153333Y-103084333D01*
X147248571Y-103036714D01*
X147772380Y-103036714D01*
X147105714Y-102655761D02*
X147772380Y-102417666D01*
X147105714Y-102179571D02*
X147772380Y-102417666D01*
X148010476Y-102512904D01*
X148058095Y-102560523D01*
X148105714Y-102655761D01*
X147772380Y-101274809D02*
X147772380Y-101846238D01*
X147772380Y-101560523D02*
X146772380Y-101560523D01*
X146915238Y-101655761D01*
X147010476Y-101751000D01*
X147058095Y-101846238D01*
X146772380Y-100941476D02*
X146772380Y-100322428D01*
X147153333Y-100655761D01*
X147153333Y-100512904D01*
X147200952Y-100417666D01*
X147248571Y-100370047D01*
X147343809Y-100322428D01*
X147581904Y-100322428D01*
X147677142Y-100370047D01*
X147724761Y-100417666D01*
X147772380Y-100512904D01*
X147772380Y-100798619D01*
X147724761Y-100893857D01*
X147677142Y-100941476D01*
X133056380Y-104631904D02*
X133056380Y-104822380D01*
X133104000Y-104917619D01*
X133151619Y-104965238D01*
X133294476Y-105060476D01*
X133484952Y-105108095D01*
X133865904Y-105108095D01*
X133961142Y-105060476D01*
X134008761Y-105012857D01*
X134056380Y-104917619D01*
X134056380Y-104727142D01*
X134008761Y-104631904D01*
X133961142Y-104584285D01*
X133865904Y-104536666D01*
X133627809Y-104536666D01*
X133532571Y-104584285D01*
X133484952Y-104631904D01*
X133437333Y-104727142D01*
X133437333Y-104917619D01*
X133484952Y-105012857D01*
X133532571Y-105060476D01*
X133627809Y-105108095D01*
X134056380Y-104108095D02*
X133056380Y-104108095D01*
X134056380Y-103536666D01*
X133056380Y-103536666D01*
X134056380Y-102536666D02*
X134056380Y-103108095D01*
X134056380Y-102822380D02*
X133056380Y-102822380D01*
X133199238Y-102917619D01*
X133294476Y-103012857D01*
X133342095Y-103108095D01*
X133056380Y-102203333D02*
X133056380Y-101584285D01*
X133437333Y-101917619D01*
X133437333Y-101774761D01*
X133484952Y-101679523D01*
X133532571Y-101631904D01*
X133627809Y-101584285D01*
X133865904Y-101584285D01*
X133961142Y-101631904D01*
X134008761Y-101679523D01*
X134056380Y-101774761D01*
X134056380Y-102060476D01*
X134008761Y-102155714D01*
X133961142Y-102203333D01*
X133484952Y-101012857D02*
X133437333Y-101108095D01*
X133389714Y-101155714D01*
X133294476Y-101203333D01*
X133246857Y-101203333D01*
X133151619Y-101155714D01*
X133104000Y-101108095D01*
X133056380Y-101012857D01*
X133056380Y-100822380D01*
X133104000Y-100727142D01*
X133151619Y-100679523D01*
X133246857Y-100631904D01*
X133294476Y-100631904D01*
X133389714Y-100679523D01*
X133437333Y-100727142D01*
X133484952Y-100822380D01*
X133484952Y-101012857D01*
X133532571Y-101108095D01*
X133580190Y-101155714D01*
X133675428Y-101203333D01*
X133865904Y-101203333D01*
X133961142Y-101155714D01*
X134008761Y-101108095D01*
X134056380Y-101012857D01*
X134056380Y-100822380D01*
X134008761Y-100727142D01*
X133961142Y-100679523D01*
X133865904Y-100631904D01*
X133675428Y-100631904D01*
X133580190Y-100679523D01*
X133532571Y-100727142D01*
X133484952Y-100822380D01*
D12*
X132516666Y-94714190D02*
X132230952Y-94714190D01*
X132373809Y-94714190D02*
X132373809Y-94214190D01*
X132326190Y-94285619D01*
X132278571Y-94333238D01*
X132230952Y-94357047D01*
X132730952Y-94714190D02*
X132730952Y-94214190D01*
X133016666Y-94714190D01*
X133016666Y-94214190D01*
X133278571Y-94714190D02*
X133373809Y-94714190D01*
X133421428Y-94690380D01*
X133445238Y-94666571D01*
X133492857Y-94595142D01*
X133516666Y-94499904D01*
X133516666Y-94309428D01*
X133492857Y-94261809D01*
X133469047Y-94238000D01*
X133421428Y-94214190D01*
X133326190Y-94214190D01*
X133278571Y-94238000D01*
X133254761Y-94261809D01*
X133230952Y-94309428D01*
X133230952Y-94428476D01*
X133254761Y-94476095D01*
X133278571Y-94499904D01*
X133326190Y-94523714D01*
X133421428Y-94523714D01*
X133469047Y-94499904D01*
X133492857Y-94476095D01*
X133516666Y-94428476D01*
X133992857Y-94714190D02*
X133707142Y-94714190D01*
X133850000Y-94714190D02*
X133850000Y-94214190D01*
X133802380Y-94285619D01*
X133754761Y-94333238D01*
X133707142Y-94357047D01*
X134421428Y-94380857D02*
X134421428Y-94714190D01*
X134302380Y-94190380D02*
X134183333Y-94547523D01*
X134492857Y-94547523D01*
D10*
X122515428Y-109386714D02*
X122515428Y-110053380D01*
X122277333Y-109005761D02*
X122039238Y-109720047D01*
X122658285Y-109720047D01*
X123039238Y-109958142D02*
X123086857Y-110005761D01*
X123039238Y-110053380D01*
X122991619Y-110005761D01*
X123039238Y-109958142D01*
X123039238Y-110053380D01*
X123420190Y-109053380D02*
X124086857Y-109053380D01*
X123658285Y-110053380D01*
X124467809Y-110053380D02*
X124467809Y-109053380D01*
X124563047Y-109672428D02*
X124848761Y-110053380D01*
X124848761Y-109386714D02*
X124467809Y-109767666D01*
X146081904Y-94797619D02*
X146129523Y-94750000D01*
X146224761Y-94702380D01*
X146462857Y-94702380D01*
X146558095Y-94750000D01*
X146605714Y-94797619D01*
X146653333Y-94892857D01*
X146653333Y-94988095D01*
X146605714Y-95130952D01*
X146034285Y-95702380D01*
X146653333Y-95702380D01*
X147034285Y-94797619D02*
X147081904Y-94750000D01*
X147177142Y-94702380D01*
X147415238Y-94702380D01*
X147510476Y-94750000D01*
X147558095Y-94797619D01*
X147605714Y-94892857D01*
X147605714Y-94988095D01*
X147558095Y-95130952D01*
X146986666Y-95702380D01*
X147605714Y-95702380D01*
X148224761Y-94702380D02*
X148320000Y-94702380D01*
X148415238Y-94750000D01*
X148462857Y-94797619D01*
X148510476Y-94892857D01*
X148558095Y-95083333D01*
X148558095Y-95321428D01*
X148510476Y-95511904D01*
X148462857Y-95607142D01*
X148415238Y-95654761D01*
X148320000Y-95702380D01*
X148224761Y-95702380D01*
X148129523Y-95654761D01*
X148081904Y-95607142D01*
X148034285Y-95511904D01*
X147986666Y-95321428D01*
X147986666Y-95083333D01*
X148034285Y-94892857D01*
X148081904Y-94797619D01*
X148129523Y-94750000D01*
X148224761Y-94702380D01*
X132365904Y-90225619D02*
X132413523Y-90178000D01*
X132508761Y-90130380D01*
X132746857Y-90130380D01*
X132842095Y-90178000D01*
X132889714Y-90225619D01*
X132937333Y-90320857D01*
X132937333Y-90416095D01*
X132889714Y-90558952D01*
X132318285Y-91130380D01*
X132937333Y-91130380D01*
X133318285Y-90225619D02*
X133365904Y-90178000D01*
X133461142Y-90130380D01*
X133699238Y-90130380D01*
X133794476Y-90178000D01*
X133842095Y-90225619D01*
X133889714Y-90320857D01*
X133889714Y-90416095D01*
X133842095Y-90558952D01*
X133270666Y-91130380D01*
X133889714Y-91130380D01*
X134508761Y-90130380D02*
X134604000Y-90130380D01*
X134699238Y-90178000D01*
X134746857Y-90225619D01*
X134794476Y-90320857D01*
X134842095Y-90511333D01*
X134842095Y-90749428D01*
X134794476Y-90939904D01*
X134746857Y-91035142D01*
X134699238Y-91082761D01*
X134604000Y-91130380D01*
X134508761Y-91130380D01*
X134413523Y-91082761D01*
X134365904Y-91035142D01*
X134318285Y-90939904D01*
X134270666Y-90749428D01*
X134270666Y-90511333D01*
X134318285Y-90320857D01*
X134365904Y-90225619D01*
X134413523Y-90178000D01*
X134508761Y-90130380D01*
D13*
X125846840Y-90170000D02*
X125846840Y-89408000D01*
X108849160Y-89535000D02*
X108849160Y-90170000D01*
X126347220Y-90170000D02*
X125846840Y-90170000D01*
X108348780Y-90170000D02*
X108849160Y-90170000D01*
D14*
X126365000Y-89281000D02*
X108331000Y-89281000D01*
D13*
X115349020Y-107170220D02*
X115349020Y-105171240D01*
X115846860Y-107670600D02*
X115349020Y-107170220D01*
X118849140Y-107670600D02*
X115846860Y-107670600D01*
X119346980Y-107170220D02*
X119346980Y-105171240D01*
X118849140Y-107670600D02*
X119346980Y-107170220D01*
X111848900Y-105171240D02*
X115349020Y-105171240D01*
X111848900Y-107170220D02*
X111848900Y-105171240D01*
X111348520Y-107670600D02*
X111848900Y-107170220D01*
X110848140Y-107670600D02*
X111348520Y-107670600D01*
X108849160Y-107670600D02*
X110848140Y-107670600D01*
X108348780Y-107170220D02*
X108849160Y-107670600D01*
X108348780Y-107170220D02*
X108348780Y-90170000D01*
X122847100Y-105171240D02*
X119346980Y-105171240D01*
X122847100Y-107170220D02*
X122847100Y-105171240D01*
X123347480Y-107670600D02*
X122847100Y-107170220D01*
X125846840Y-107670600D02*
X123347480Y-107670600D01*
X126347220Y-107170220D02*
X125846840Y-107670600D01*
X126347220Y-107170220D02*
X126347220Y-90170000D01*
D15*
X154354000Y-135148000D02*
X154354000Y-134348000D01*
X107354000Y-135148000D02*
X154354000Y-135148000D01*
X107354000Y-134348000D02*
X107354000Y-135148000D01*
X135851000Y-95608000D02*
X135851000Y-93368000D01*
X135851000Y-93368000D02*
X131611000Y-93368000D01*
X131611000Y-93368000D02*
X131611000Y-95608000D01*
X131611000Y-95608000D02*
X135851000Y-95608000D01*
X136501000Y-94488000D02*
X135851000Y-94488000D01*
X130961000Y-94488000D02*
X131611000Y-94488000D01*
X135131000Y-95608000D02*
X135131000Y-93368000D01*
X135011000Y-95608000D02*
X135011000Y-93368000D01*
X135251000Y-95608000D02*
X135251000Y-93368000D01*
X151194000Y-113030000D02*
G75*
G03*
X151194000Y-113030000I-2620000J0D01*
G01*
X148574000Y-114070000D02*
X148574000Y-115610000D01*
X148574000Y-110450000D02*
X148574000Y-111990000D01*
X148614000Y-114070000D02*
X148614000Y-115610000D01*
X148614000Y-110450000D02*
X148614000Y-111990000D01*
X148654000Y-110451000D02*
X148654000Y-111990000D01*
X148654000Y-114070000D02*
X148654000Y-115609000D01*
X148694000Y-110452000D02*
X148694000Y-111990000D01*
X148694000Y-114070000D02*
X148694000Y-115608000D01*
X148734000Y-110454000D02*
X148734000Y-111990000D01*
X148734000Y-114070000D02*
X148734000Y-115606000D01*
X148774000Y-110457000D02*
X148774000Y-111990000D01*
X148774000Y-114070000D02*
X148774000Y-115603000D01*
X148814000Y-110461000D02*
X148814000Y-111990000D01*
X148814000Y-114070000D02*
X148814000Y-115599000D01*
X148854000Y-110465000D02*
X148854000Y-111990000D01*
X148854000Y-114070000D02*
X148854000Y-115595000D01*
X148894000Y-110469000D02*
X148894000Y-111990000D01*
X148894000Y-114070000D02*
X148894000Y-115591000D01*
X148934000Y-110474000D02*
X148934000Y-111990000D01*
X148934000Y-114070000D02*
X148934000Y-115586000D01*
X148974000Y-110480000D02*
X148974000Y-111990000D01*
X148974000Y-114070000D02*
X148974000Y-115580000D01*
X149014000Y-110487000D02*
X149014000Y-111990000D01*
X149014000Y-114070000D02*
X149014000Y-115573000D01*
X149054000Y-110494000D02*
X149054000Y-111990000D01*
X149054000Y-114070000D02*
X149054000Y-115566000D01*
X149094000Y-110502000D02*
X149094000Y-111990000D01*
X149094000Y-114070000D02*
X149094000Y-115558000D01*
X149134000Y-110510000D02*
X149134000Y-111990000D01*
X149134000Y-114070000D02*
X149134000Y-115550000D01*
X149174000Y-110519000D02*
X149174000Y-111990000D01*
X149174000Y-114070000D02*
X149174000Y-115541000D01*
X149214000Y-110529000D02*
X149214000Y-111990000D01*
X149214000Y-114070000D02*
X149214000Y-115531000D01*
X149254000Y-110539000D02*
X149254000Y-111990000D01*
X149254000Y-114070000D02*
X149254000Y-115521000D01*
X149295000Y-110550000D02*
X149295000Y-111990000D01*
X149295000Y-114070000D02*
X149295000Y-115510000D01*
X149335000Y-110562000D02*
X149335000Y-111990000D01*
X149335000Y-114070000D02*
X149335000Y-115498000D01*
X149375000Y-110575000D02*
X149375000Y-111990000D01*
X149375000Y-114070000D02*
X149375000Y-115485000D01*
X149415000Y-110588000D02*
X149415000Y-111990000D01*
X149415000Y-114070000D02*
X149415000Y-115472000D01*
X149455000Y-110602000D02*
X149455000Y-111990000D01*
X149455000Y-114070000D02*
X149455000Y-115458000D01*
X149495000Y-110616000D02*
X149495000Y-111990000D01*
X149495000Y-114070000D02*
X149495000Y-115444000D01*
X149535000Y-110632000D02*
X149535000Y-111990000D01*
X149535000Y-114070000D02*
X149535000Y-115428000D01*
X149575000Y-110648000D02*
X149575000Y-111990000D01*
X149575000Y-114070000D02*
X149575000Y-115412000D01*
X149615000Y-110665000D02*
X149615000Y-111990000D01*
X149615000Y-114070000D02*
X149615000Y-115395000D01*
X149655000Y-110682000D02*
X149655000Y-111990000D01*
X149655000Y-114070000D02*
X149655000Y-115378000D01*
X149695000Y-110701000D02*
X149695000Y-111990000D01*
X149695000Y-114070000D02*
X149695000Y-115359000D01*
X149735000Y-110720000D02*
X149735000Y-111990000D01*
X149735000Y-114070000D02*
X149735000Y-115340000D01*
X149775000Y-110740000D02*
X149775000Y-111990000D01*
X149775000Y-114070000D02*
X149775000Y-115320000D01*
X149815000Y-110762000D02*
X149815000Y-111990000D01*
X149815000Y-114070000D02*
X149815000Y-115298000D01*
X149855000Y-110783000D02*
X149855000Y-111990000D01*
X149855000Y-114070000D02*
X149855000Y-115277000D01*
X149895000Y-110806000D02*
X149895000Y-111990000D01*
X149895000Y-114070000D02*
X149895000Y-115254000D01*
X149935000Y-110830000D02*
X149935000Y-111990000D01*
X149935000Y-114070000D02*
X149935000Y-115230000D01*
X149975000Y-110855000D02*
X149975000Y-111990000D01*
X149975000Y-114070000D02*
X149975000Y-115205000D01*
X150015000Y-110881000D02*
X150015000Y-111990000D01*
X150015000Y-114070000D02*
X150015000Y-115179000D01*
X150055000Y-110908000D02*
X150055000Y-111990000D01*
X150055000Y-114070000D02*
X150055000Y-115152000D01*
X150095000Y-110935000D02*
X150095000Y-111990000D01*
X150095000Y-114070000D02*
X150095000Y-115125000D01*
X150135000Y-110965000D02*
X150135000Y-111990000D01*
X150135000Y-114070000D02*
X150135000Y-115095000D01*
X150175000Y-110995000D02*
X150175000Y-111990000D01*
X150175000Y-114070000D02*
X150175000Y-115065000D01*
X150215000Y-111026000D02*
X150215000Y-111990000D01*
X150215000Y-114070000D02*
X150215000Y-115034000D01*
X150255000Y-111059000D02*
X150255000Y-111990000D01*
X150255000Y-114070000D02*
X150255000Y-115001000D01*
X150295000Y-111093000D02*
X150295000Y-111990000D01*
X150295000Y-114070000D02*
X150295000Y-114967000D01*
X150335000Y-111129000D02*
X150335000Y-111990000D01*
X150335000Y-114070000D02*
X150335000Y-114931000D01*
X150375000Y-111166000D02*
X150375000Y-111990000D01*
X150375000Y-114070000D02*
X150375000Y-114894000D01*
X150415000Y-111204000D02*
X150415000Y-111990000D01*
X150415000Y-114070000D02*
X150415000Y-114856000D01*
X150455000Y-111245000D02*
X150455000Y-111990000D01*
X150455000Y-114070000D02*
X150455000Y-114815000D01*
X150495000Y-111287000D02*
X150495000Y-111990000D01*
X150495000Y-114070000D02*
X150495000Y-114773000D01*
X150535000Y-111331000D02*
X150535000Y-111990000D01*
X150535000Y-114070000D02*
X150535000Y-114729000D01*
X150575000Y-111377000D02*
X150575000Y-111990000D01*
X150575000Y-114070000D02*
X150575000Y-114683000D01*
X150615000Y-111425000D02*
X150615000Y-114635000D01*
X150655000Y-111476000D02*
X150655000Y-114584000D01*
X150695000Y-111530000D02*
X150695000Y-114530000D01*
X150735000Y-111587000D02*
X150735000Y-114473000D01*
X150775000Y-111647000D02*
X150775000Y-114413000D01*
X150815000Y-111711000D02*
X150815000Y-114349000D01*
X150855000Y-111779000D02*
X150855000Y-114281000D01*
X150895000Y-111852000D02*
X150895000Y-114208000D01*
X150935000Y-111932000D02*
X150935000Y-114128000D01*
X150975000Y-112019000D02*
X150975000Y-114041000D01*
X151015000Y-112115000D02*
X151015000Y-113945000D01*
X151055000Y-112225000D02*
X151055000Y-113835000D01*
X151095000Y-112353000D02*
X151095000Y-113707000D01*
X151135000Y-112512000D02*
X151135000Y-113548000D01*
X151175000Y-112746000D02*
X151175000Y-113314000D01*
X145769225Y-111555000D02*
X146269225Y-111555000D01*
X146019225Y-111305000D02*
X146019225Y-111805000D01*
X114330775Y-115009000D02*
X114330775Y-114509000D01*
X114580775Y-114759000D02*
X114080775Y-114759000D01*
X109175000Y-113568000D02*
X109175000Y-113000000D01*
X109215000Y-113802000D02*
X109215000Y-112766000D01*
X109255000Y-113961000D02*
X109255000Y-112607000D01*
X109295000Y-114089000D02*
X109295000Y-112479000D01*
X109335000Y-114199000D02*
X109335000Y-112369000D01*
X109375000Y-114295000D02*
X109375000Y-112273000D01*
X109415000Y-114382000D02*
X109415000Y-112186000D01*
X109455000Y-114462000D02*
X109455000Y-112106000D01*
X109495000Y-114535000D02*
X109495000Y-112033000D01*
X109535000Y-114603000D02*
X109535000Y-111965000D01*
X109575000Y-114667000D02*
X109575000Y-111901000D01*
X109615000Y-114727000D02*
X109615000Y-111841000D01*
X109655000Y-114784000D02*
X109655000Y-111784000D01*
X109695000Y-114838000D02*
X109695000Y-111730000D01*
X109735000Y-114889000D02*
X109735000Y-111679000D01*
X109775000Y-112244000D02*
X109775000Y-111631000D01*
X109775000Y-114937000D02*
X109775000Y-114324000D01*
X109815000Y-112244000D02*
X109815000Y-111585000D01*
X109815000Y-114983000D02*
X109815000Y-114324000D01*
X109855000Y-112244000D02*
X109855000Y-111541000D01*
X109855000Y-115027000D02*
X109855000Y-114324000D01*
X109895000Y-112244000D02*
X109895000Y-111499000D01*
X109895000Y-115069000D02*
X109895000Y-114324000D01*
X109935000Y-112244000D02*
X109935000Y-111458000D01*
X109935000Y-115110000D02*
X109935000Y-114324000D01*
X109975000Y-112244000D02*
X109975000Y-111420000D01*
X109975000Y-115148000D02*
X109975000Y-114324000D01*
X110015000Y-112244000D02*
X110015000Y-111383000D01*
X110015000Y-115185000D02*
X110015000Y-114324000D01*
X110055000Y-112244000D02*
X110055000Y-111347000D01*
X110055000Y-115221000D02*
X110055000Y-114324000D01*
X110095000Y-112244000D02*
X110095000Y-111313000D01*
X110095000Y-115255000D02*
X110095000Y-114324000D01*
X110135000Y-112244000D02*
X110135000Y-111280000D01*
X110135000Y-115288000D02*
X110135000Y-114324000D01*
X110175000Y-112244000D02*
X110175000Y-111249000D01*
X110175000Y-115319000D02*
X110175000Y-114324000D01*
X110215000Y-112244000D02*
X110215000Y-111219000D01*
X110215000Y-115349000D02*
X110215000Y-114324000D01*
X110255000Y-112244000D02*
X110255000Y-111189000D01*
X110255000Y-115379000D02*
X110255000Y-114324000D01*
X110295000Y-112244000D02*
X110295000Y-111162000D01*
X110295000Y-115406000D02*
X110295000Y-114324000D01*
X110335000Y-112244000D02*
X110335000Y-111135000D01*
X110335000Y-115433000D02*
X110335000Y-114324000D01*
X110375000Y-112244000D02*
X110375000Y-111109000D01*
X110375000Y-115459000D02*
X110375000Y-114324000D01*
X110415000Y-112244000D02*
X110415000Y-111084000D01*
X110415000Y-115484000D02*
X110415000Y-114324000D01*
X110455000Y-112244000D02*
X110455000Y-111060000D01*
X110455000Y-115508000D02*
X110455000Y-114324000D01*
X110495000Y-112244000D02*
X110495000Y-111037000D01*
X110495000Y-115531000D02*
X110495000Y-114324000D01*
X110535000Y-112244000D02*
X110535000Y-111016000D01*
X110535000Y-115552000D02*
X110535000Y-114324000D01*
X110575000Y-112244000D02*
X110575000Y-110994000D01*
X110575000Y-115574000D02*
X110575000Y-114324000D01*
X110615000Y-112244000D02*
X110615000Y-110974000D01*
X110615000Y-115594000D02*
X110615000Y-114324000D01*
X110655000Y-112244000D02*
X110655000Y-110955000D01*
X110655000Y-115613000D02*
X110655000Y-114324000D01*
X110695000Y-112244000D02*
X110695000Y-110936000D01*
X110695000Y-115632000D02*
X110695000Y-114324000D01*
X110735000Y-112244000D02*
X110735000Y-110919000D01*
X110735000Y-115649000D02*
X110735000Y-114324000D01*
X110775000Y-112244000D02*
X110775000Y-110902000D01*
X110775000Y-115666000D02*
X110775000Y-114324000D01*
X110815000Y-112244000D02*
X110815000Y-110886000D01*
X110815000Y-115682000D02*
X110815000Y-114324000D01*
X110855000Y-112244000D02*
X110855000Y-110870000D01*
X110855000Y-115698000D02*
X110855000Y-114324000D01*
X110895000Y-112244000D02*
X110895000Y-110856000D01*
X110895000Y-115712000D02*
X110895000Y-114324000D01*
X110935000Y-112244000D02*
X110935000Y-110842000D01*
X110935000Y-115726000D02*
X110935000Y-114324000D01*
X110975000Y-112244000D02*
X110975000Y-110829000D01*
X110975000Y-115739000D02*
X110975000Y-114324000D01*
X111015000Y-112244000D02*
X111015000Y-110816000D01*
X111015000Y-115752000D02*
X111015000Y-114324000D01*
X111055000Y-112244000D02*
X111055000Y-110804000D01*
X111055000Y-115764000D02*
X111055000Y-114324000D01*
X111096000Y-112244000D02*
X111096000Y-110793000D01*
X111096000Y-115775000D02*
X111096000Y-114324000D01*
X111136000Y-112244000D02*
X111136000Y-110783000D01*
X111136000Y-115785000D02*
X111136000Y-114324000D01*
X111176000Y-112244000D02*
X111176000Y-110773000D01*
X111176000Y-115795000D02*
X111176000Y-114324000D01*
X111216000Y-112244000D02*
X111216000Y-110764000D01*
X111216000Y-115804000D02*
X111216000Y-114324000D01*
X111256000Y-112244000D02*
X111256000Y-110756000D01*
X111256000Y-115812000D02*
X111256000Y-114324000D01*
X111296000Y-112244000D02*
X111296000Y-110748000D01*
X111296000Y-115820000D02*
X111296000Y-114324000D01*
X111336000Y-112244000D02*
X111336000Y-110741000D01*
X111336000Y-115827000D02*
X111336000Y-114324000D01*
X111376000Y-112244000D02*
X111376000Y-110734000D01*
X111376000Y-115834000D02*
X111376000Y-114324000D01*
X111416000Y-112244000D02*
X111416000Y-110728000D01*
X111416000Y-115840000D02*
X111416000Y-114324000D01*
X111456000Y-112244000D02*
X111456000Y-110723000D01*
X111456000Y-115845000D02*
X111456000Y-114324000D01*
X111496000Y-112244000D02*
X111496000Y-110719000D01*
X111496000Y-115849000D02*
X111496000Y-114324000D01*
X111536000Y-112244000D02*
X111536000Y-110715000D01*
X111536000Y-115853000D02*
X111536000Y-114324000D01*
X111576000Y-112244000D02*
X111576000Y-110711000D01*
X111576000Y-115857000D02*
X111576000Y-114324000D01*
X111616000Y-112244000D02*
X111616000Y-110708000D01*
X111616000Y-115860000D02*
X111616000Y-114324000D01*
X111656000Y-112244000D02*
X111656000Y-110706000D01*
X111656000Y-115862000D02*
X111656000Y-114324000D01*
X111696000Y-112244000D02*
X111696000Y-110705000D01*
X111696000Y-115863000D02*
X111696000Y-114324000D01*
X111736000Y-115864000D02*
X111736000Y-114324000D01*
X111736000Y-112244000D02*
X111736000Y-110704000D01*
X111776000Y-115864000D02*
X111776000Y-114324000D01*
X111776000Y-112244000D02*
X111776000Y-110704000D01*
X114396000Y-113284000D02*
G75*
G03*
X114396000Y-113284000I-2620000J0D01*
G01*
X143196000Y-122488000D02*
X143196000Y-121158000D01*
X144526000Y-122488000D02*
X143196000Y-122488000D01*
X143196000Y-119888000D02*
X143196000Y-117288000D01*
X145796000Y-119888000D02*
X143196000Y-119888000D01*
X145796000Y-122488000D02*
X145796000Y-119888000D01*
X143196000Y-117288000D02*
X150936000Y-117288000D01*
X145796000Y-122488000D02*
X150936000Y-122488000D01*
X150936000Y-122488000D02*
X150936000Y-117288000D01*
X137001000Y-92048000D02*
X137001000Y-91718000D01*
X130461000Y-92048000D02*
X137001000Y-92048000D01*
X130461000Y-91718000D02*
X130461000Y-92048000D01*
X137001000Y-89308000D02*
X137001000Y-89638000D01*
X130461000Y-89308000D02*
X137001000Y-89308000D01*
X130461000Y-89638000D02*
X130461000Y-89308000D01*
X130334000Y-108561000D02*
X130334000Y-108231000D01*
X130334000Y-108231000D02*
X136874000Y-108231000D01*
X136874000Y-108231000D02*
X136874000Y-108561000D01*
X130334000Y-110641000D02*
X130334000Y-110971000D01*
X130334000Y-110971000D02*
X136874000Y-110971000D01*
X136874000Y-110971000D02*
X136874000Y-110641000D01*
X120174000Y-108231000D02*
X120174000Y-108561000D01*
X126714000Y-108231000D02*
X120174000Y-108231000D01*
X126714000Y-108561000D02*
X126714000Y-108231000D01*
X120174000Y-110971000D02*
X120174000Y-110641000D01*
X126714000Y-110971000D02*
X120174000Y-110971000D01*
X126714000Y-110641000D02*
X126714000Y-110971000D01*
X152569001Y-97416000D02*
X142069001Y-97416000D01*
X152569001Y-107816000D02*
X152569001Y-97416000D01*
X142069001Y-107816000D02*
X152569001Y-107816000D01*
X142069001Y-97416000D02*
X142069001Y-107816000D01*
X149569001Y-97476000D02*
X148319001Y-97476000D01*
X149569001Y-107756000D02*
X149569001Y-97476000D01*
X145069001Y-107756000D02*
X149569001Y-107756000D01*
X145069001Y-97476000D02*
X145069001Y-107756000D01*
X146319001Y-97476000D02*
X145069001Y-97476000D01*
X148319001Y-97476000D02*
G75*
G02*
X146319001Y-97476000I-1000000J0D01*
G01*
X132604000Y-97476000D02*
X131354000Y-97476000D01*
X131354000Y-97476000D02*
X131354000Y-107756000D01*
X131354000Y-107756000D02*
X135854000Y-107756000D01*
X135854000Y-107756000D02*
X135854000Y-97476000D01*
X135854000Y-97476000D02*
X134604000Y-97476000D01*
X128354000Y-97416000D02*
X128354000Y-107816000D01*
X128354000Y-107816000D02*
X138854000Y-107816000D01*
X138854000Y-107816000D02*
X138854000Y-97416000D01*
X138854000Y-97416000D02*
X128354000Y-97416000D01*
X134604000Y-97476000D02*
G75*
G02*
X132604000Y-97476000I-1000000J0D01*
G01*
X138804000Y-122090000D02*
X138804000Y-111590000D01*
X118244000Y-122090000D02*
X138804000Y-122090000D01*
X118244000Y-111590000D02*
X118244000Y-122090000D01*
X138804000Y-111590000D02*
X118244000Y-111590000D01*
X138744000Y-119090000D02*
X138744000Y-117840000D01*
X118304000Y-119090000D02*
X138744000Y-119090000D01*
X118304000Y-114590000D02*
X118304000Y-119090000D01*
X138744000Y-114590000D02*
X118304000Y-114590000D01*
X138744000Y-115840000D02*
X138744000Y-114590000D01*
X138744000Y-117840000D02*
G75*
G02*
X138744000Y-115840000I0J1000000D01*
G01*
X109160000Y-120496000D02*
X109160000Y-117756000D01*
X114400000Y-120496000D02*
X114400000Y-117756000D01*
X114400000Y-117756000D02*
X109160000Y-117756000D01*
X114400000Y-120496000D02*
X109160000Y-120496000D01*
X144050000Y-94210000D02*
X144050000Y-93880000D01*
X144050000Y-93880000D02*
X150590000Y-93880000D01*
X150590000Y-93880000D02*
X150590000Y-94210000D01*
X144050000Y-96290000D02*
X144050000Y-96620000D01*
X144050000Y-96620000D02*
X150590000Y-96620000D01*
X150590000Y-96620000D02*
X150590000Y-96290000D01*
X145760000Y-90077000D02*
X145760000Y-90233000D01*
X145760000Y-92393000D02*
X145760000Y-92549000D01*
X148992335Y-90234392D02*
G75*
G03*
X145760000Y-90077484I-1672335J-1078608D01*
G01*
X148992335Y-92391608D02*
G75*
G02*
X145760000Y-92548516I-1672335J1078608D01*
G01*
X148361130Y-90233163D02*
G75*
G03*
X146279039Y-90233000I-1041130J-1079837D01*
G01*
X148361130Y-92392837D02*
G75*
G02*
X146279039Y-92393000I-1041130J1079837D01*
G01*
D10*
X109775666Y-108291380D02*
X109775666Y-109005666D01*
X109728047Y-109148523D01*
X109632809Y-109243761D01*
X109489952Y-109291380D01*
X109394714Y-109291380D01*
X110204238Y-108386619D02*
X110251857Y-108339000D01*
X110347095Y-108291380D01*
X110585190Y-108291380D01*
X110680428Y-108339000D01*
X110728047Y-108386619D01*
X110775666Y-108481857D01*
X110775666Y-108577095D01*
X110728047Y-108719952D01*
X110156619Y-109291380D01*
X110775666Y-109291380D01*
D16*
X109562285Y-97198571D02*
X109562285Y-95698571D01*
X110062285Y-96770000D01*
X110562285Y-95698571D01*
X110562285Y-97198571D01*
X111276571Y-97198571D02*
X111276571Y-95698571D01*
X111990857Y-97198571D02*
X111990857Y-95698571D01*
X112348000Y-95698571D01*
X112562285Y-95770000D01*
X112705142Y-95912857D01*
X112776571Y-96055714D01*
X112848000Y-96341428D01*
X112848000Y-96555714D01*
X112776571Y-96841428D01*
X112705142Y-96984285D01*
X112562285Y-97127142D01*
X112348000Y-97198571D01*
X111990857Y-97198571D01*
X113490857Y-97198571D02*
X113490857Y-95698571D01*
X115348000Y-97198571D02*
X115348000Y-95698571D01*
X116062285Y-97198571D02*
X116062285Y-95698571D01*
X116919428Y-97198571D01*
X116919428Y-95698571D01*
X118776571Y-97198571D02*
X118776571Y-95698571D01*
X119133714Y-95698571D01*
X119348000Y-95770000D01*
X119490857Y-95912857D01*
X119562285Y-96055714D01*
X119633714Y-96341428D01*
X119633714Y-96555714D01*
X119562285Y-96841428D01*
X119490857Y-96984285D01*
X119348000Y-97127142D01*
X119133714Y-97198571D01*
X118776571Y-97198571D01*
X120276571Y-97198571D02*
X120276571Y-95698571D01*
X120990857Y-97198571D02*
X120990857Y-95698571D01*
X121848000Y-97198571D01*
X121848000Y-95698571D01*
X122562285Y-96627142D02*
X123705142Y-96627142D01*
X125133714Y-95698571D02*
X124419428Y-95698571D01*
X124347999Y-96412857D01*
X124419428Y-96341428D01*
X124562285Y-96270000D01*
X124919428Y-96270000D01*
X125062285Y-96341428D01*
X125133714Y-96412857D01*
X125205142Y-96555714D01*
X125205142Y-96912857D01*
X125133714Y-97055714D01*
X125062285Y-97127142D01*
X124919428Y-97198571D01*
X124562285Y-97198571D01*
X124419428Y-97127142D01*
X124347999Y-97055714D01*
D10*
X136572666Y-123594880D02*
X136572666Y-124309166D01*
X136525047Y-124452023D01*
X136429809Y-124547261D01*
X136286952Y-124594880D01*
X136191714Y-124594880D01*
X137572666Y-124594880D02*
X137001238Y-124594880D01*
X137286952Y-124594880D02*
X137286952Y-123594880D01*
X137191714Y-123737738D01*
X137096476Y-123832976D01*
X137001238Y-123880595D01*
X108902523Y-124467880D02*
X108331095Y-124467880D01*
X108616809Y-124467880D02*
X108616809Y-123467880D01*
X108521571Y-123610738D01*
X108426333Y-123705976D01*
X108331095Y-123753595D01*
X109283476Y-123563119D02*
X109331095Y-123515500D01*
X109426333Y-123467880D01*
X109664428Y-123467880D01*
X109759666Y-123515500D01*
X109807285Y-123563119D01*
X109854904Y-123658357D01*
X109854904Y-123753595D01*
X109807285Y-123896452D01*
X109235857Y-124467880D01*
X109854904Y-124467880D01*
X152939714Y-124531380D02*
X152368285Y-124531380D01*
X152654000Y-124531380D02*
X152654000Y-123531380D01*
X152558761Y-123674238D01*
X152463523Y-123769476D01*
X152368285Y-123817095D01*
X139088904Y-94940380D02*
X139088904Y-93940380D01*
X139327000Y-93940380D01*
X139469857Y-93988000D01*
X139565095Y-94083238D01*
X139612714Y-94178476D01*
X139660333Y-94368952D01*
X139660333Y-94511809D01*
X139612714Y-94702285D01*
X139565095Y-94797523D01*
X139469857Y-94892761D01*
X139327000Y-94940380D01*
X139088904Y-94940380D01*
X140612714Y-94940380D02*
X140041285Y-94940380D01*
X140327000Y-94940380D02*
X140327000Y-93940380D01*
X140231761Y-94083238D01*
X140136523Y-94178476D01*
X140041285Y-94226095D01*
X137279095Y-96740380D02*
X137279095Y-95740380D01*
X137850523Y-96740380D02*
X137421952Y-96168952D01*
X137850523Y-95740380D02*
X137279095Y-96311809D01*
X152233333Y-113387142D02*
X152185714Y-113434761D01*
X152042857Y-113482380D01*
X151947619Y-113482380D01*
X151804761Y-113434761D01*
X151709523Y-113339523D01*
X151661904Y-113244285D01*
X151614285Y-113053809D01*
X151614285Y-112910952D01*
X151661904Y-112720476D01*
X151709523Y-112625238D01*
X151804761Y-112530000D01*
X151947619Y-112482380D01*
X152042857Y-112482380D01*
X152185714Y-112530000D01*
X152233333Y-112577619D01*
X153185714Y-113482380D02*
X152614285Y-113482380D01*
X152900000Y-113482380D02*
X152900000Y-112482380D01*
X152804761Y-112625238D01*
X152709523Y-112720476D01*
X152614285Y-112768095D01*
X115403333Y-113641142D02*
X115355714Y-113688761D01*
X115212857Y-113736380D01*
X115117619Y-113736380D01*
X114974761Y-113688761D01*
X114879523Y-113593523D01*
X114831904Y-113498285D01*
X114784285Y-113307809D01*
X114784285Y-113164952D01*
X114831904Y-112974476D01*
X114879523Y-112879238D01*
X114974761Y-112784000D01*
X115117619Y-112736380D01*
X115212857Y-112736380D01*
X115355714Y-112784000D01*
X115403333Y-112831619D01*
X115784285Y-112831619D02*
X115831904Y-112784000D01*
X115927142Y-112736380D01*
X116165238Y-112736380D01*
X116260476Y-112784000D01*
X116308095Y-112831619D01*
X116355714Y-112926857D01*
X116355714Y-113022095D01*
X116308095Y-113164952D01*
X115736666Y-113736380D01*
X116355714Y-113736380D01*
X141652666Y-119340380D02*
X141652666Y-120054666D01*
X141605047Y-120197523D01*
X141509809Y-120292761D01*
X141366952Y-120340380D01*
X141271714Y-120340380D01*
X142033619Y-119340380D02*
X142652666Y-119340380D01*
X142319333Y-119721333D01*
X142462190Y-119721333D01*
X142557428Y-119768952D01*
X142605047Y-119816571D01*
X142652666Y-119911809D01*
X142652666Y-120149904D01*
X142605047Y-120245142D01*
X142557428Y-120292761D01*
X142462190Y-120340380D01*
X142176476Y-120340380D01*
X142081238Y-120292761D01*
X142033619Y-120245142D01*
X139660333Y-91130380D02*
X139327000Y-90654190D01*
X139088904Y-91130380D02*
X139088904Y-90130380D01*
X139469857Y-90130380D01*
X139565095Y-90178000D01*
X139612714Y-90225619D01*
X139660333Y-90320857D01*
X139660333Y-90463714D01*
X139612714Y-90558952D01*
X139565095Y-90606571D01*
X139469857Y-90654190D01*
X139088904Y-90654190D01*
X140612714Y-91130380D02*
X140041285Y-91130380D01*
X140327000Y-91130380D02*
X140327000Y-90130380D01*
X140231761Y-90273238D01*
X140136523Y-90368476D01*
X140041285Y-90416095D01*
X139533333Y-110053380D02*
X139200000Y-109577190D01*
X138961904Y-110053380D02*
X138961904Y-109053380D01*
X139342857Y-109053380D01*
X139438095Y-109101000D01*
X139485714Y-109148619D01*
X139533333Y-109243857D01*
X139533333Y-109386714D01*
X139485714Y-109481952D01*
X139438095Y-109529571D01*
X139342857Y-109577190D01*
X138961904Y-109577190D01*
X139914285Y-109148619D02*
X139961904Y-109101000D01*
X140057142Y-109053380D01*
X140295238Y-109053380D01*
X140390476Y-109101000D01*
X140438095Y-109148619D01*
X140485714Y-109243857D01*
X140485714Y-109339095D01*
X140438095Y-109481952D01*
X139866666Y-110053380D01*
X140485714Y-110053380D01*
X117181333Y-110053380D02*
X116848000Y-109577190D01*
X116609904Y-110053380D02*
X116609904Y-109053380D01*
X116990857Y-109053380D01*
X117086095Y-109101000D01*
X117133714Y-109148619D01*
X117181333Y-109243857D01*
X117181333Y-109386714D01*
X117133714Y-109481952D01*
X117086095Y-109529571D01*
X116990857Y-109577190D01*
X116609904Y-109577190D01*
X117514666Y-109053380D02*
X118133714Y-109053380D01*
X117800380Y-109434333D01*
X117943238Y-109434333D01*
X118038476Y-109481952D01*
X118086095Y-109529571D01*
X118133714Y-109624809D01*
X118133714Y-109862904D01*
X118086095Y-109958142D01*
X118038476Y-110005761D01*
X117943238Y-110053380D01*
X117657523Y-110053380D01*
X117562285Y-110005761D01*
X117514666Y-109958142D01*
X146557096Y-108291380D02*
X146557096Y-109100904D01*
X146604715Y-109196142D01*
X146652334Y-109243761D01*
X146747572Y-109291380D01*
X146938048Y-109291380D01*
X147033286Y-109243761D01*
X147080905Y-109196142D01*
X147128524Y-109100904D01*
X147128524Y-108291380D01*
X148128524Y-109291380D02*
X147557096Y-109291380D01*
X147842810Y-109291380D02*
X147842810Y-108291380D01*
X147747572Y-108434238D01*
X147652334Y-108529476D01*
X147557096Y-108577095D01*
X132842095Y-95972380D02*
X132842095Y-96781904D01*
X132889714Y-96877142D01*
X132937333Y-96924761D01*
X133032571Y-96972380D01*
X133223047Y-96972380D01*
X133318285Y-96924761D01*
X133365904Y-96877142D01*
X133413523Y-96781904D01*
X133413523Y-95972380D01*
X133842095Y-96067619D02*
X133889714Y-96020000D01*
X133984952Y-95972380D01*
X134223047Y-95972380D01*
X134318285Y-96020000D01*
X134365904Y-96067619D01*
X134413523Y-96162857D01*
X134413523Y-96258095D01*
X134365904Y-96400952D01*
X133794476Y-96972380D01*
X134413523Y-96972380D01*
X139446095Y-116292380D02*
X139446095Y-117101904D01*
X139493714Y-117197142D01*
X139541333Y-117244761D01*
X139636571Y-117292380D01*
X139827047Y-117292380D01*
X139922285Y-117244761D01*
X139969904Y-117197142D01*
X140017523Y-117101904D01*
X140017523Y-116292380D01*
X140398476Y-116292380D02*
X141017523Y-116292380D01*
X140684190Y-116673333D01*
X140827047Y-116673333D01*
X140922285Y-116720952D01*
X140969904Y-116768571D01*
X141017523Y-116863809D01*
X141017523Y-117101904D01*
X140969904Y-117197142D01*
X140922285Y-117244761D01*
X140827047Y-117292380D01*
X140541333Y-117292380D01*
X140446095Y-117244761D01*
X140398476Y-117197142D01*
X115403333Y-119483142D02*
X115355714Y-119530761D01*
X115212857Y-119578380D01*
X115117619Y-119578380D01*
X114974761Y-119530761D01*
X114879523Y-119435523D01*
X114831904Y-119340285D01*
X114784285Y-119149809D01*
X114784285Y-119006952D01*
X114831904Y-118816476D01*
X114879523Y-118721238D01*
X114974761Y-118626000D01*
X115117619Y-118578380D01*
X115212857Y-118578380D01*
X115355714Y-118626000D01*
X115403333Y-118673619D01*
X115736666Y-118578380D02*
X116355714Y-118578380D01*
X116022380Y-118959333D01*
X116165238Y-118959333D01*
X116260476Y-119006952D01*
X116308095Y-119054571D01*
X116355714Y-119149809D01*
X116355714Y-119387904D01*
X116308095Y-119483142D01*
X116260476Y-119530761D01*
X116165238Y-119578380D01*
X115879523Y-119578380D01*
X115784285Y-119530761D01*
X115736666Y-119483142D01*
X153249333Y-95575380D02*
X152916000Y-95099190D01*
X152677904Y-95575380D02*
X152677904Y-94575380D01*
X153058857Y-94575380D01*
X153154095Y-94623000D01*
X153201714Y-94670619D01*
X153249333Y-94765857D01*
X153249333Y-94908714D01*
X153201714Y-95003952D01*
X153154095Y-95051571D01*
X153058857Y-95099190D01*
X152677904Y-95099190D01*
X154106476Y-94908714D02*
X154106476Y-95575380D01*
X153868380Y-94527761D02*
X153630285Y-95242047D01*
X154249333Y-95242047D01*
X150264904Y-91765380D02*
X150264904Y-90765380D01*
X150503000Y-90765380D01*
X150645857Y-90813000D01*
X150741095Y-90908238D01*
X150788714Y-91003476D01*
X150836333Y-91193952D01*
X150836333Y-91336809D01*
X150788714Y-91527285D01*
X150741095Y-91622523D01*
X150645857Y-91717761D01*
X150503000Y-91765380D01*
X150264904Y-91765380D01*
X151217285Y-90860619D02*
X151264904Y-90813000D01*
X151360142Y-90765380D01*
X151598238Y-90765380D01*
X151693476Y-90813000D01*
X151741095Y-90860619D01*
X151788714Y-90955857D01*
X151788714Y-91051095D01*
X151741095Y-91193952D01*
X151169666Y-91765380D01*
X151788714Y-91765380D01*
M02*
