M48
INCH,TZ
T1C0.0315
T2C0.0394
T3C0.0551
%
G90
G05
T1
X44000Y-45500
X44000Y-46287
X47200Y-44200
X47200Y-47200
X48200Y-44200
X48200Y-47200
X49200Y-44200
X49200Y-47200
X50200Y-44200
X50200Y-47200
X51100Y-38900
X51100Y-39900
X51100Y-40900
X51100Y-41900
X51150Y-35700
X51150Y-37200
X51200Y-44200
X51200Y-47200
X52200Y-44200
X52200Y-47200
X53200Y-44200
X53200Y-47200
X54100Y-38900
X54100Y-39900
X54100Y-40900
X54100Y-41900
X54150Y-35700
X54150Y-37200
X54200Y-44200
X54200Y-47200
X56500Y-38900
X56500Y-39900
X56500Y-40900
X56500Y-41900
X56500Y-35700
X56500Y-37200
X58100Y-44500
X58887Y-44500
X59500Y-38900
X59500Y-39900
X59500Y-40900
X59500Y-41900
X59500Y-35700
X59500Y-37200
T2
X56900Y-46700
X56900Y-47700
X57900Y-46700
X57900Y-47700
X58900Y-46700
X58900Y-47700
T3
X43247Y-39831
X44231Y-35894
X44231Y-40815
X46200Y-39831
X48169Y-35894
X48169Y-40815
X49153Y-39831
T0
M30
